<svg xmlns="http://www.w3.org/2000/svg" xmlns:xlink="http://www.w3.org/1999/xlink" width="69.285" height="80" viewBox="0 0 69.285 80">
  <defs>
    <clipPath id="clip-path">
      <rect id="Rectangle_116" data-name="Rectangle 116" width="69.285" height="80" fill="#fff"/>
    </clipPath>
  </defs>
  <g id="Group_503" data-name="Group 503" style="isolation: isolate">
    <g id="Group_502" data-name="Group 502" clip-path="url(#clip-path)">
      <g id="Group_501" data-name="Group 501" transform="translate(0 0)">
        <g id="Group_500" data-name="Group 500" clip-path="url(#clip-path)">
          <g id="Group_499" data-name="Group 499" style="mix-blend-mode: darken;isolation: isolate">
            <g id="Group_498" data-name="Group 498">
              <g id="Group_497" data-name="Group 497" clip-path="url(#clip-path)">
                <path id="Path_1724" data-name="Path 1724" d="M51.855,65.235c2.763-2.668,5.488-5.318,8.234-7.946a5.146,5.146,0,0,1,5.728-1.2,5.006,5.006,0,0,1,3.347,4.523,5.116,5.116,0,0,1-1.218,3.8q-6.375,7.844-12.735,15.7a5.147,5.147,0,0,1-4.294,2.045c-5.871-.031-11.742-.062-17.611.025a11.547,11.547,0,0,0-3.811.855,2.491,2.491,0,0,0-1.83,2.937,4.081,4.081,0,0,1-1.374,3.459q-3.182,3.22-6.395,6.41a2,2,0,0,1-3.233-.012Q8.842,88.039,1.052,80.217c-1.086-1.09-1.067-2.1.042-3.224q3.141-3.174,6.32-6.309a4.606,4.606,0,0,1,4.54-1.355c.886.223,1.234-.083,1.681-.73A15.665,15.665,0,0,1,30,62.055a9.71,9.71,0,0,1,2.464.81,10.1,10.1,0,0,0,5.151,1.041c3.223-.059,6.449-.016,9.674-.01a6.383,6.383,0,0,1,4.564,1.338M25.835,82.045c2.378-2.5,5.254-2.953,8.391-2.9,5.412.1,10.827,0,16.241.051A3.142,3.142,0,0,0,53.2,77.889c4.027-5.034,8.1-10.027,12.166-15.033,1.052-1.3,1.1-2.611.12-3.533-1.026-.966-2.363-.844-3.618.364-2.5,2.407-4.973,4.845-7.5,7.228a2.457,2.457,0,0,0-.894,2.125A4.963,4.963,0,0,1,48.9,74.4c-4.167.164-8.345.075-12.518.059a1.336,1.336,0,0,1-1.434-1.4,1.376,1.376,0,0,1,1.364-1.476,10.458,10.458,0,0,1,1.238-.033c3.471,0,6.942.013,10.414-.009a2.325,2.325,0,0,0,2.559-2.729,2.381,2.381,0,0,0-2.644-1.924c-3.553-.026-7.108-.047-10.662,0a13.084,13.084,0,0,1-5.748-1.208A12.55,12.55,0,0,0,15.8,70.731a1.366,1.366,0,0,0,.046,1.257c3.257,3.341,6.565,6.63,9.986,10.057M18.164,93.286c2.136-2.111,4.1-4,6-5.947a1.871,1.871,0,0,0,0-2.782q-5.875-5.948-11.82-11.825a1.755,1.755,0,0,0-2.58-.128c-2.043,1.96-3.985,4.025-6.081,6.166L18.164,93.286" transform="translate(-0.076 -16.835)" fill="#fff"/>
                <path id="Path_1725" data-name="Path 1725" d="M51.855,65.235c2.763-2.668,5.488-5.318,8.234-7.946a5.146,5.146,0,0,1,5.728-1.2,5.006,5.006,0,0,1,3.347,4.523,5.116,5.116,0,0,1-1.218,3.8q-6.375,7.844-12.735,15.7a5.147,5.147,0,0,1-4.294,2.045c-5.871-.031-11.742-.062-17.611.025a11.547,11.547,0,0,0-3.811.855,2.491,2.491,0,0,0-1.83,2.937,4.081,4.081,0,0,1-1.374,3.459q-3.182,3.22-6.395,6.41a2,2,0,0,1-3.233-.012Q8.842,88.039,1.052,80.217c-1.086-1.09-1.067-2.1.042-3.224q3.141-3.174,6.32-6.309a4.606,4.606,0,0,1,4.54-1.355c.886.223,1.234-.083,1.681-.73A15.665,15.665,0,0,1,30,62.055a9.71,9.71,0,0,1,2.464.81,10.1,10.1,0,0,0,5.151,1.041c3.223-.059,6.449-.016,9.674-.01A6.383,6.383,0,0,1,51.855,65.235ZM25.835,82.045c2.378-2.5,5.254-2.953,8.391-2.9,5.412.1,10.827,0,16.241.051A3.142,3.142,0,0,0,53.2,77.889c4.027-5.034,8.1-10.027,12.166-15.033,1.052-1.3,1.1-2.611.12-3.533-1.026-.966-2.363-.844-3.618.364-2.5,2.407-4.973,4.845-7.5,7.228a2.457,2.457,0,0,0-.894,2.125A4.963,4.963,0,0,1,48.9,74.4c-4.167.164-8.345.075-12.518.059a1.336,1.336,0,0,1-1.434-1.4,1.376,1.376,0,0,1,1.364-1.476,10.458,10.458,0,0,1,1.238-.033c3.471,0,6.942.013,10.414-.009a2.325,2.325,0,0,0,2.559-2.729,2.381,2.381,0,0,0-2.644-1.924c-3.553-.026-7.108-.047-10.662,0a13.084,13.084,0,0,1-5.748-1.208A12.55,12.55,0,0,0,15.8,70.731a1.366,1.366,0,0,0,.046,1.257C19.106,75.329,22.415,78.619,25.835,82.045ZM18.164,93.286c2.136-2.111,4.1-4,6-5.947a1.871,1.871,0,0,0,0-2.782q-5.875-5.948-11.82-11.825a1.755,1.755,0,0,0-2.58-.128c-2.043,1.96-3.985,4.025-6.081,6.166Z" transform="translate(-0.076 -16.835)" fill="#fff"/>
                <path id="Path_1726" data-name="Path 1726" d="M42.279,10.649c-.951-1.942-1.848-3.752-2.723-5.571-.839-1.746-.3-2.425,1.631-2.6a35.673,35.673,0,0,0,4.822-1.005C47.57,1.1,49.1.549,50.679.313a6.564,6.564,0,0,1,5.067,1.582,1.689,1.689,0,0,1,.517,2.388c-.9,1.724-1.762,3.462-2.635,5.2-.181.359-.335.731-.522,1.143.3.122.483.211.674.27,10.051,3.151,16.79,13.376,15.645,24.945-.1.984-.475,1.7-1.568,1.69-.917-.01-1.386-.785-1.289-2.007.56-7.068-1.5-13.18-6.834-17.963C50.8,9.54,37.14,12.206,31.4,23.025A21.652,21.652,0,0,0,29.48,38.662c.076.322.171.638.257.958.324,1.2.029,2-.881,2.207-1.175.264-1.672-.472-1.891-1.454-.324-1.449-.677-2.9-.874-4.368A23.494,23.494,0,0,1,39.577,11.7c.828-.361,1.686-.655,2.7-1.047m.3-5.368c.709,1.341,1.324,2.368,1.8,3.454a1.843,1.843,0,0,0,2.249,1.333,21.069,21.069,0,0,1,2.715-.023c.329-.013.828-.1.949-.316,1.07-1.931,2.071-3.9,3.185-6.034-4.061-1.522-7.142,1.437-10.9,1.587" transform="translate(-7.828 -0.076)" fill="#fff"/>
                <path id="Path_1727" data-name="Path 1727" d="M42.279,10.649c-.951-1.942-1.848-3.752-2.723-5.571-.839-1.746-.3-2.425,1.631-2.6a35.673,35.673,0,0,0,4.822-1.005C47.57,1.1,49.1.549,50.679.313a6.564,6.564,0,0,1,5.067,1.582,1.689,1.689,0,0,1,.517,2.388c-.9,1.724-1.762,3.462-2.635,5.2-.181.359-.335.731-.522,1.143.3.122.483.211.674.27,10.051,3.151,16.79,13.376,15.645,24.945-.1.984-.475,1.7-1.568,1.69-.917-.01-1.386-.785-1.289-2.007.56-7.068-1.5-13.18-6.834-17.963C50.8,9.54,37.14,12.206,31.4,23.025A21.652,21.652,0,0,0,29.48,38.662c.076.322.171.638.257.958.324,1.2.029,2-.881,2.207-1.175.264-1.672-.472-1.891-1.454-.324-1.449-.677-2.9-.874-4.368A23.494,23.494,0,0,1,39.577,11.7C40.4,11.336,41.262,11.042,42.279,10.649Zm.3-5.368c.709,1.341,1.324,2.368,1.8,3.454a1.843,1.843,0,0,0,2.249,1.333,21.069,21.069,0,0,1,2.715-.023c.329-.013.828-.1.949-.316,1.07-1.931,2.071-3.9,3.185-6.034C49.419,2.172,46.337,5.131,42.577,5.281Z" transform="translate(-7.828 -0.076)" fill="#fff"/>
                <path id="Path_1728" data-name="Path 1728" d="M59.319,33.814c.008,1.324-.811,1.812-1.748,1.517a5.723,5.723,0,0,0-1.894-.4,1.411,1.411,0,0,0-1.075.78,1.636,1.636,0,0,0,.419,1.388,12.208,12.208,0,0,0,2.249,1.283c1.559.8,2.782,1.828,2.718,3.775a3.913,3.913,0,0,1-2.708,3.774c-.273.11-.461.665-.517,1.04-.1.689-.331,1.338-1.088,1.181a1.579,1.579,0,0,1-.978-1.124c-.058-.759-.387-.966-1.024-1.108a2.827,2.827,0,0,1-1.463-.6,2.213,2.213,0,0,1-.58-1.633c.159-.742.885-.857,1.621-.617a6.24,6.24,0,0,0,2.123.541,1.943,1.943,0,0,0,1.5-.922,1.988,1.988,0,0,0-.664-1.636,13.508,13.508,0,0,0-2.35-1.363c-1.37-.765-2.418-1.753-2.368-3.482a3.8,3.8,0,0,1,2.531-3.627c.294-.128.391-.673.626-.991.327-.443.7-.854,1.047-1.279.347.427.925.824.987,1.289.091.69.44.818.952,1.065a11.466,11.466,0,0,1,1.686,1.148" transform="translate(-15.565 -9.163)" fill="#fff"/>
                <path id="Path_1729" data-name="Path 1729" d="M59.319,33.814c.008,1.324-.811,1.812-1.748,1.517a5.723,5.723,0,0,0-1.894-.4,1.411,1.411,0,0,0-1.075.78,1.636,1.636,0,0,0,.419,1.388,12.208,12.208,0,0,0,2.249,1.283c1.559.8,2.782,1.828,2.718,3.775a3.913,3.913,0,0,1-2.708,3.774c-.273.11-.461.665-.517,1.04-.1.689-.331,1.338-1.088,1.181a1.579,1.579,0,0,1-.978-1.124c-.058-.759-.387-.966-1.024-1.108a2.827,2.827,0,0,1-1.463-.6,2.213,2.213,0,0,1-.58-1.633c.159-.742.885-.857,1.621-.617a6.24,6.24,0,0,0,2.123.541,1.943,1.943,0,0,0,1.5-.922,1.988,1.988,0,0,0-.664-1.636,13.508,13.508,0,0,0-2.35-1.363c-1.37-.765-2.418-1.753-2.368-3.482a3.8,3.8,0,0,1,2.531-3.627c.294-.128.391-.673.626-.991.327-.443.7-.854,1.047-1.279.347.427.925.824.987,1.289.091.69.44.818.952,1.065A11.466,11.466,0,0,1,59.319,33.814Z" transform="translate(-15.565 -9.163)" fill="#fff"/>
                <path id="Path_1730" data-name="Path 1730" d="M15.184,84.46a1.686,1.686,0,0,1,1.665,1.645,1.672,1.672,0,1,1-3.342.123,1.712,1.712,0,0,1,1.677-1.769" transform="translate(-4.083 -25.532)" fill="#fff"/>
                <path id="Path_1731" data-name="Path 1731" d="M15.184,84.46a1.686,1.686,0,0,1,1.665,1.645,1.672,1.672,0,1,1-3.342.123A1.712,1.712,0,0,1,15.184,84.46Z" transform="translate(-4.083 -25.532)" fill="#fff"/>
              </g>
            </g>
          </g>
        </g>
      </g>
    </g>
  </g>
</svg>
