<svg xmlns="http://www.w3.org/2000/svg" xmlns:xlink="http://www.w3.org/1999/xlink" width="82.858" height="80" viewBox="0 0 82.858 80">
  <defs>
    <clipPath id="clip-path">
      <rect id="Rectangle_110" data-name="Rectangle 110" width="82.858" height="80" fill="#fff"/>
    </clipPath>
  </defs>
  <g id="Group_489" data-name="Group 489" style="isolation: isolate">
    <g id="Group_488" data-name="Group 488" clip-path="url(#clip-path)">
      <g id="Group_487" data-name="Group 487" transform="translate(0 0)">
        <g id="Group_486" data-name="Group 486" clip-path="url(#clip-path)">
          <g id="Group_485" data-name="Group 485" transform="translate(0 0)" style="mix-blend-mode: darken;isolation: isolate">
            <g id="Group_484" data-name="Group 484" transform="translate(0 0)">
              <g id="Group_483" data-name="Group 483" clip-path="url(#clip-path)">
                <path id="Path_1713" data-name="Path 1713" d="M77.174,41.272c3.266,5.724,3.7,9.009.194,11.376-3.42,2.31-5.761,5.25-8.488,8.105-2.584,2.7-5.446,5.1-7.988,8.064-2.487,2.9-6.151,4.623-8.245,8.438-1.486,2.708-5.214,3.393-8.336,1.6a5.019,5.019,0,0,0-5.372-.194c-4.519,2.149-8.979-.1-10.8-4.763-.392-1-1.561-1.706-2.382-2.538a.794.794,0,0,0-.339-.147c-3.85-1.14-4.095-5.7-6.426-7.39-2.754-1.993-6.065-2.878-7.269-6.631a4.081,4.081,0,0,0-2.276-2.213c-5.415-1.92-7.209-6.331-4.827-11.522a5.106,5.106,0,0,0-.251-4.144c-6.452-10.477-5.237-23.771,3.1-31.9C16.007-.926,28.991-2.025,39.382,4.543a4.306,4.306,0,0,0,3.745.207c11.317-6.959,24.157-5.8,32.7,3.142,8.49,8.887,9.178,21.443,1.783,32.449a8.427,8.427,0,0,0-.433.931M38.509,9.329c-7.635-7.007-19.571-6.773-27.377.059C2.8,16.685,1.905,28.524,9.662,39.3a19.1,19.1,0,0,1,2.149-3.316c5.417-5.387,11.434-3.914,14.025,3.313a2.76,2.76,0,0,0,1.518,1.615,8.364,8.364,0,0,1,6.8,7.6c1.656.709,3.679.927,4.463,2.026A45.887,45.887,0,0,0,49.052,60.9c1.36,1,1.772,3.2,2.909,4.614,1.661,2.071,3.821,3,6.06.847,2.216-2.13,1.419-4.166-.549-6.1-3.814-3.739-7.64-7.474-11.264-11.394-.743-.8-.621-2.407-.9-3.641,1.167.3,2.672.233,3.444.955,3.9,3.645,7.64,7.465,11.378,11.281,1.9,1.944,3.852,2.832,6.079.614,2.267-2.258,1.222-4.19-.684-6.062-3.722-3.657-7.476-7.287-11.021-11.108-.794-.856-.783-2.458-1.143-3.716,1.246.3,2.852.219,3.677.979,3.921,3.621,7.673,7.429,11.4,11.257,1.968,2.025,4.052,2.527,6.2.617,2.247-2,1.211-4.087-.455-5.836-2.311-2.427-4.868-4.623-7.1-7.112-.634-.706-.516-2.086-.743-3.157,1.1.123,2.435-.106,3.238.446a36.472,36.472,0,0,1,4.249,3.935,11.174,11.174,0,0,0,1.122-1.066A21.118,21.118,0,0,0,72.4,10.034C64.689,2.685,52.785,1.839,44.864,8.56c-5.1,4.327-9.644,9.309-14.426,14.009-1.87,1.838-2.34,3.877-.346,5.863,2.041,2.032,3.943,1.353,5.786-.533,3.646-3.73,7.459-7.3,11.048-11.081,1.908-2.012,3.468-1.966,5.31-.044,2.836,2.961,5.845,5.761,8.561,8.824.676.763.511,2.271.733,3.437-1.143-.255-2.665-.133-3.361-.832-2.78-2.793-5.3-5.841-7.92-8.793a18.1,18.1,0,0,1-1.44,1.2c-3.356,3.32-6.68,6.671-10.055,9.97-3.8,3.717-8.12,3.882-11.452.5-3.356-3.408-3.178-7.662.616-11.466,3.416-3.425,6.938-6.745,10.591-10.284m-7.96,39.3c-.9-1.11-1.584-2.672-2.714-3.132a4.668,4.668,0,0,0-4,.45,77.632,77.632,0,0,0-7.117,6.991,3.473,3.473,0,0,0,.018,5.274c1.819,1.872,3.744,1.579,5.515-.144,2.209-2.15,4.413-4.308,6.533-6.544a17.884,17.884,0,0,0,1.762-2.9m8.141,7.953c-.887-1-1.631-2.5-2.781-2.933a4.657,4.657,0,0,0-3.928.5A37.828,37.828,0,0,0,24.953,61.2a5.645,5.645,0,0,0,.08,5.147c1.2,1.849,3.466,1.635,5.162.024q3.621-3.438,7.086-7.038a12.619,12.619,0,0,0,1.409-2.746m8.237,8.077c-1.029-1.1-1.822-2.539-3.009-3.038a4.225,4.225,0,0,0-3.648.525,40.4,40.4,0,0,0-7.011,7.063,5.651,5.651,0,0,0-.185,5.17c1.319,2.019,3.718,1.649,5.479.006,2.344-2.185,4.583-4.488,6.772-6.83a15.031,15.031,0,0,0,1.6-2.9M18.006,36.732c-.207.031-.706-.048-.919.162-3.144,3.1-6.405,6.11-9.226,9.485-.519.621.39,3.218,1.366,4.061a4.109,4.109,0,0,0,4,.058,60.764,60.764,0,0,0,8.1-8.168c1.7-2.11-.4-5.5-3.325-5.6M50.936,69.5l-1.575-.372-4.787,5.077q.245.645.489,1.291c1.682-.324,3.9-.119,4.892-1.124.975-.983.7-3.2.981-4.872" transform="translate(-0.05 -0.05)" fill="#fff"/>
                <path id="Path_1714" data-name="Path 1714" d="M77.174,41.272c3.266,5.724,3.7,9.009.194,11.376-3.42,2.31-5.761,5.25-8.488,8.105-2.584,2.7-5.446,5.1-7.988,8.064-2.487,2.9-6.151,4.623-8.245,8.438-1.486,2.708-5.214,3.393-8.336,1.6a5.019,5.019,0,0,0-5.372-.194c-4.519,2.149-8.979-.1-10.8-4.763-.392-1-1.561-1.706-2.382-2.538a.794.794,0,0,0-.339-.147c-3.85-1.14-4.095-5.7-6.426-7.39-2.754-1.993-6.065-2.878-7.269-6.631a4.081,4.081,0,0,0-2.276-2.213c-5.415-1.92-7.209-6.331-4.827-11.522a5.106,5.106,0,0,0-.251-4.144c-6.452-10.477-5.237-23.771,3.1-31.9C16.007-.926,28.991-2.025,39.382,4.543a4.306,4.306,0,0,0,3.745.207c11.317-6.959,24.157-5.8,32.7,3.142,8.49,8.887,9.178,21.443,1.783,32.449A8.427,8.427,0,0,0,77.174,41.272ZM38.509,9.329c-7.635-7.007-19.571-6.773-27.377.059C2.8,16.685,1.905,28.524,9.662,39.3a19.1,19.1,0,0,1,2.149-3.316c5.417-5.387,11.434-3.914,14.025,3.313a2.76,2.76,0,0,0,1.518,1.615,8.364,8.364,0,0,1,6.8,7.6c1.656.709,3.679.927,4.463,2.026A45.887,45.887,0,0,0,49.052,60.9c1.36,1,1.772,3.2,2.909,4.614,1.661,2.071,3.821,3,6.06.847,2.216-2.13,1.419-4.166-.549-6.1-3.814-3.739-7.64-7.474-11.264-11.394-.743-.8-.621-2.407-.9-3.641,1.167.3,2.672.233,3.444.955,3.9,3.645,7.64,7.465,11.378,11.281,1.9,1.944,3.852,2.832,6.079.614,2.267-2.258,1.222-4.19-.684-6.062-3.722-3.657-7.476-7.287-11.021-11.108-.794-.856-.783-2.458-1.143-3.716,1.246.3,2.852.219,3.677.979,3.921,3.621,7.673,7.429,11.4,11.257,1.968,2.025,4.052,2.527,6.2.617,2.247-2,1.211-4.087-.455-5.836-2.311-2.427-4.868-4.623-7.1-7.112-.634-.706-.516-2.086-.743-3.157,1.1.123,2.435-.106,3.238.446a36.472,36.472,0,0,1,4.249,3.935,11.174,11.174,0,0,0,1.122-1.066A21.118,21.118,0,0,0,72.4,10.034C64.689,2.685,52.785,1.839,44.864,8.56c-5.1,4.327-9.644,9.309-14.426,14.009-1.87,1.838-2.34,3.877-.346,5.863,2.041,2.032,3.943,1.353,5.786-.533,3.646-3.73,7.459-7.3,11.048-11.081,1.908-2.012,3.468-1.966,5.31-.044,2.836,2.961,5.845,5.761,8.561,8.824.676.763.511,2.271.733,3.437-1.143-.255-2.665-.133-3.361-.832-2.78-2.793-5.3-5.841-7.92-8.793a18.1,18.1,0,0,1-1.44,1.2c-3.356,3.32-6.68,6.671-10.055,9.97-3.8,3.717-8.12,3.882-11.452.5-3.356-3.408-3.178-7.662.616-11.466C31.334,16.188,34.856,12.868,38.509,9.329Zm-7.96,39.3c-.9-1.11-1.584-2.672-2.714-3.132a4.668,4.668,0,0,0-4,.45,77.632,77.632,0,0,0-7.117,6.991,3.473,3.473,0,0,0,.018,5.274c1.819,1.872,3.744,1.579,5.515-.144,2.209-2.15,4.413-4.308,6.533-6.544A17.884,17.884,0,0,0,30.55,48.632Zm8.141,7.953c-.887-1-1.631-2.5-2.781-2.933a4.657,4.657,0,0,0-3.928.5A37.828,37.828,0,0,0,24.953,61.2a5.645,5.645,0,0,0,.08,5.147c1.2,1.849,3.466,1.635,5.162.024q3.621-3.438,7.086-7.038A12.619,12.619,0,0,0,38.69,56.585Zm8.237,8.077c-1.029-1.1-1.822-2.539-3.009-3.038a4.225,4.225,0,0,0-3.648.525,40.4,40.4,0,0,0-7.011,7.063,5.651,5.651,0,0,0-.185,5.17c1.319,2.019,3.718,1.649,5.479.006,2.344-2.185,4.583-4.488,6.772-6.83A15.031,15.031,0,0,0,46.928,64.662ZM18.006,36.732c-.207.031-.706-.048-.919.162-3.144,3.1-6.405,6.11-9.226,9.485-.519.621.39,3.218,1.366,4.061a4.109,4.109,0,0,0,4,.058,60.764,60.764,0,0,0,8.1-8.168C23.036,40.22,20.932,36.834,18.006,36.732ZM50.936,69.5l-1.575-.372-4.787,5.077q.245.645.489,1.291c1.682-.324,3.9-.119,4.892-1.124C50.93,73.394,50.66,71.179,50.936,69.5Z" transform="translate(-0.05 -0.05)" fill="#fff" stroke="#fff" stroke-miterlimit="10" stroke-width="0.5"/>
              </g>
            </g>
          </g>
        </g>
      </g>
    </g>
  </g>
</svg>
