<svg xmlns="http://www.w3.org/2000/svg" xmlns:xlink="http://www.w3.org/1999/xlink" width="51.46" height="80" viewBox="0 0 51.46 80">
  <defs>
    <clipPath id="clip-path">
      <rect id="Rectangle_107" data-name="Rectangle 107" width="51.46" height="80" fill="#fff"/>
    </clipPath>
  </defs>
  <g id="Group_481" data-name="Group 481" style="isolation: isolate">
    <g id="Group_480" data-name="Group 480" clip-path="url(#clip-path)">
      <g id="Group_479" data-name="Group 479">
        <g id="Group_478" data-name="Group 478" clip-path="url(#clip-path)">
          <g id="Group_477" data-name="Group 477" style="mix-blend-mode: darken;isolation: isolate">
            <g id="Group_476" data-name="Group 476">
              <g id="Group_475" data-name="Group 475" clip-path="url(#clip-path)">
                <path id="Path_1707" data-name="Path 1707" d="M35.184,49.716c.509.634,1.084,1.241,1.534,1.931a5.876,5.876,0,0,1-.684,7.461,5.959,5.959,0,0,1-7.462.855,20.392,20.392,0,0,1-1.98-1.523c-1.83-1.466-3.3-3.891-6.409-1.9l-.479-.886c.816-.983,1.476-2.236,2.513-2.833.51-.294,1.831.476,2.59,1.031,1.512,1.1,2.88,2.4,4.327,3.6,1.788,1.478,3.68,1.66,5.265-.139,1.567-1.777,1.271-3.7-.473-5.24a105.05,105.05,0,0,0-9.117-7.6c-.985-.689-3.215-.488-4.385.173-1.956,1.1-3.468,2.971-5.28,4.371-.507.392-1.409.272-2.131.387.2-.7.181-1.621.634-2.054a74.845,74.845,0,0,1,5.9-5.13,4.917,4.917,0,0,1,6.364-.042c1.672,1.24,3.18,2.7,4.819,3.985,1.047.822,2.328,2.694,3.49.685a5.4,5.4,0,0,0,.109-4.674c-1.113-1.774-3.133-2.992-4.808-4.4-7.576-6.368-5.993-6.431-13.3-.109a6.671,6.671,0,0,1-1.449,1.176A5.175,5.175,0,0,1,13.1,39c.063-.629-.121-1.522.226-1.844,2.14-1.982,4.358-3.884,6.626-5.719,4.69-3.795,9.453-7.5,14.132-11.308,1.785-1.453,2.235-3.362.7-5.215-1.517-1.832-3.489-1.827-5.263-.354C21.184,21.485,12.743,28.307,4.7,35.566c-1.611,1.455-2.041,4.6-2.31,7.052-.28,2.544.373,5.181.437,7.783.014.611-.7,1.24-1.08,1.86C1.365,51.72.705,51.2.655,50.636.344,47.11,0,43.571,0,40.037a9.056,9.056,0,0,1,4.4-7.549,5.335,5.335,0,0,0,2.616-5.774c-.017-.1.014-.211,0-.312C5.253,17,9.514,9.678,15.1,2.782,17.485-.17,20.806-.861,23.61,1.135c2.772,1.972,3.364,5.534,1.234,8.57-.533.761-1.66,1.108-2.513,1.644.157-.923.3-1.849.472-2.769.236-1.266.946-2.65.648-3.77A3.365,3.365,0,0,0,17.495,3.7c-2.714,3.551-5.571,7.151-7.382,11.174-1.151,2.557-.537,5.915-.676,8.915-.056,1.215-.009,2.433-.009,4.386,2.492-2.077,4.552-3.61,6.356-5.4.612-.608.51-1.892.85-2.825A53.052,53.052,0,0,1,18.8,14.6c.22-.446,1.149-.543,1.752-.8a5.834,5.834,0,0,1,.035,2.151,28.558,28.558,0,0,1-1.821,3.385l.643.528c2.665-2.228,5.308-4.483,8-6.678,3.133-2.554,5.035-2.58,8.522-.638a4.777,4.777,0,0,0,3.091.19c4.07-.914,6.875,1.154,6.857,5.277a39.463,39.463,0,0,1-.321,4.677c-.668,5.4-.7,10.486,1.979,15.7,3.347,6.521,2.193,13.4-1.1,19.83-.324.632-1.29.936-1.958,1.392-.065-.75-.441-1.662-.147-2.227,4.1-7.869,3.175-15.433-.979-22.973a9.073,9.073,0,0,1-.671-4.524c.15-3.851.535-7.693.8-11.54.132-1.892-.389-3.369-2.622-3.425-1.963-.049-3.1.734-2.983,2.953a3.037,3.037,0,0,1-.776,2.292c-4.187,3.144-3.7,8.069-4.976,12.34-.83,2.775-.072,4.524,2.181,6.323,4.488,3.586,4.58,6.288.88,10.88M25.021,30.863,29.4,34.5l1.6-8.6-5.985,4.958" transform="translate(0 0)" fill="#fff"/>
                <path id="Path_1708" data-name="Path 1708" d="M10.811,101.47a12.659,12.659,0,0,1-.526-3.357c.406-3.565-.944-6.25-3.1-9.06-2.223-2.9-3.663-6.418-5.234-9.765-.287-.614.442-1.7.7-2.574.5.682,1.3,1.305,1.445,2.056.952,4.873,4.4,8.186,7.223,11.892,1.7,2.227,1.895,8.355-.507,10.808" transform="translate(-0.529 -21.577)" fill="#fff"/>
                <path id="Path_1709" data-name="Path 1709" d="M54.444,104.265a103.684,103.684,0,0,1,.114-11.1c.212-1.961,1.535-3.824,2.488-5.664.214-.413.974-.543,1.482-.8.226.507.792,1.232.627,1.491-3.014,4.729-2.842,10.053-3.034,15.322-.011.3-.473.584-.724.875l-.952-.119" transform="translate(-15.285 -24.384)" fill="#fff"/>
                <path id="Path_1710" data-name="Path 1710" d="M61.965,4.074C60.93,5.762,59.994,7.355,58.97,8.889a1.093,1.093,0,0,1-1.063.191c-.347-.272-.8-.947-.68-1.189.826-1.65,1.76-3.249,2.741-4.814a1.1,1.1,0,0,1,1.067-.19c.377.23.591.728.929,1.187" transform="translate(-16.09 -0.794)" fill="#fff"/>
                <path id="Path_1711" data-name="Path 1711" d="M51.6.025c0,2.052.046,4.105-.049,6.153-.014.309-.65.736-1.062.828-.264.059-.919-.387-.927-.623-.074-2.113-.043-4.23-.043-6.346L51.6.025" transform="translate(-13.925 -0.007)" fill="#fff"/>
                <path id="Path_1712" data-name="Path 1712" d="M68.092,10.182c.459.294.972.442,1.047.712.119.429.126,1.188-.132,1.374A43.031,43.031,0,0,1,64.6,15.051c-.287.158-.971-.138-1.3-.423a1.109,1.109,0,0,1-.033-1.077c1.55-1.155,3.163-2.226,4.828-3.369" transform="translate(-17.759 -2.864)" fill="#fff"/>
              </g>
            </g>
          </g>
        </g>
      </g>
    </g>
  </g>
</svg>
