<svg xmlns="http://www.w3.org/2000/svg" xmlns:xlink="http://www.w3.org/1999/xlink" width="80.844" height="80" viewBox="0 0 80.844 80">
  <defs>
    <clipPath id="clip-path">
      <rect id="Rectangle_113" data-name="Rectangle 113" width="80.844" height="80" fill="#fff"/>
    </clipPath>
  </defs>
  <g id="Group_496" data-name="Group 496" style="isolation: isolate">
    <g id="Group_495" data-name="Group 495" clip-path="url(#clip-path)">
      <g id="Group_494" data-name="Group 494" transform="translate(0 0)">
        <g id="Group_493" data-name="Group 493" clip-path="url(#clip-path)">
          <g id="Group_492" data-name="Group 492" style="mix-blend-mode: darken;isolation: isolate">
            <g id="Group_491" data-name="Group 491">
              <g id="Group_490" data-name="Group 490" clip-path="url(#clip-path)">
                <path id="Path_1715" data-name="Path 1715" d="M81.688,16.746,77.1,21.337c.878,1.136,1.806,2.258,2.648,3.441a33.49,33.49,0,0,1,6.127,15.881,34.186,34.186,0,0,1-8.591,27.616A33.492,33.492,0,0,1,55.773,79.686c-11.353,1.419-21.136-2-29.4-9.867a23.6,23.6,0,0,1-1.616-1.746A1.572,1.572,0,1,1,27.107,66a32.729,32.729,0,0,0,7.961,6.546,31.2,31.2,0,0,0,14.057,4.258,30.932,30.932,0,0,0,24.993-9.773,30.434,30.434,0,0,0,8.693-25.39C81.6,30.6,75.9,22.4,66.286,16.936A29.552,29.552,0,0,0,52.11,13.106,31.534,31.534,0,0,0,27.781,23.248a1.743,1.743,0,0,1-2.374.271,1.647,1.647,0,0,1,.138-2.512,34.981,34.981,0,0,1,7.376-5.98,34.149,34.149,0,0,1,15.731-4.96c.686-.041.955-.223.931-.96-.055-1.709-.048-3.422,0-5.133.018-.7-.224-.886-.895-.876-2.26.034-4.522.014-6.783.01a1.492,1.492,0,0,1-1.609-1.094A1.444,1.444,0,0,1,40.95.264,2.163,2.163,0,0,1,41.99.012Q50.973-.01,59.955,0A1.514,1.514,0,0,1,61.671,1.5c.031,1-.559,1.593-1.686,1.607-2.047.024-4.094.007-6.141.008H52.811a5.678,5.678,0,0,0-.1.7c-.007,1.8.016,3.605-.016,5.408-.01.584.169.8.766.832A31.547,31.547,0,0,1,67.03,13.786c2.421,1.325,4.623,3.05,6.918,4.6a8.03,8.03,0,0,1,.707.589L79.3,14.362c-.841-.8-1.7-1.719-2.663-2.509a1.759,1.759,0,0,1-.267-2.447,1.651,1.651,0,0,1,2.436.157q3.9,3.872,7.776,7.775a1.618,1.618,0,0,1,.137,2.366,1.553,1.553,0,0,1-2.34-.149c-.9-.907-1.774-1.848-2.691-2.808" transform="translate(-6.327 0)" fill="#fff"/>
                <path id="Path_1716" data-name="Path 1716" d="M50.8,54.022A7.209,7.209,0,0,1,61.13,47.551a1.112,1.112,0,0,0,1.545-.283c3.845-3.882,7.72-7.737,11.575-11.609a1.783,1.783,0,0,1,1.768-.706,1.608,1.608,0,0,1,.546,2.83c-2.536,2.559-5.09,5.1-7.635,7.648-1.381,1.382-2.744,2.783-4.153,4.135a.951.951,0,0,0-.247,1.325,7.165,7.165,0,0,1-1.074,8.021,7.391,7.391,0,0,1-8.039,1.961A7.272,7.272,0,0,1,50.8,54.022m7.236,4.191a4.137,4.137,0,1,0-4.123-4.163,4.2,4.2,0,0,0,4.123,4.163" transform="translate(-13.24 -9.098)" fill="#fff"/>
                <path id="Path_1717" data-name="Path 1717" d="M14.484,80.673q-6.411,0-12.823.005A1.461,1.461,0,0,1,.105,79.662,1.406,1.406,0,0,1,.6,77.946,2.014,2.014,0,0,1,1.7,77.6q12.732-.028,25.462-.01a1.612,1.612,0,0,1,1.726,1.518,1.577,1.577,0,0,1-1.761,1.559q-6.319.011-12.639,0" transform="translate(0 -20.223)" fill="#fff"/>
                <path id="Path_1718" data-name="Path 1718" d="M21.483,61.826q-3.8,0-7.6,0c-1.125,0-1.783-.543-1.813-1.474-.032-.983.632-1.609,1.8-1.612q7.692-.017,15.385,0a1.582,1.582,0,0,1,1.734,1.6,1.535,1.535,0,0,1-1.719,1.485c-2.6.008-5.19,0-7.785,0" transform="translate(-3.145 -15.308)" fill="#fff"/>
                <path id="Path_1719" data-name="Path 1719" d="M26.867,39.657c1.771,0,3.541-.006,5.312,0A1.633,1.633,0,0,1,34,41.179c.03.921-.713,1.567-1.845,1.568q-5.358.01-10.715,0c-1.16,0-1.772-.523-1.8-1.5-.031-.948.688-1.585,1.826-1.59,1.8-.008,3.6,0,5.4,0" transform="translate(-5.118 -10.336)" fill="#fff"/>
                <path id="Path_1720" data-name="Path 1720" d="M61.612,29.2c0,.822.029,1.645-.008,2.465a1.556,1.556,0,0,1-1.519,1.616A1.521,1.521,0,0,1,58.5,31.655q-.058-2.51,0-5.022a1.5,1.5,0,0,1,1.551-1.565A1.547,1.547,0,0,1,61.6,26.644c.04.851.009,1.7.008,2.557" transform="translate(-15.239 -6.534)" fill="#fff"/>
                <path id="Path_1721" data-name="Path 1721" d="M89.405,61.823c-.855,0-1.711.013-2.566,0A1.532,1.532,0,0,1,86.7,58.76q2.654-.082,5.312,0A1.5,1.5,0,0,1,93.5,60.314a1.565,1.565,0,0,1-1.619,1.509H89.405" transform="translate(-22.229 -15.305)" fill="#fff"/>
                <path id="Path_1722" data-name="Path 1722" d="M78.871,77.379a7.686,7.686,0,0,1,1.289.788c1.149,1.1,2.264,2.228,3.375,3.364a1.568,1.568,0,0,1,.174,2.286,1.6,1.6,0,0,1-2.362-.069c-1.161-1.128-2.3-2.278-3.437-3.431a1.424,1.424,0,0,1-.322-1.838,5.938,5.938,0,0,1,1.283-1.1" transform="translate(-20.167 -20.168)" fill="#fff"/>
                <path id="Path_1723" data-name="Path 1723" d="M61.616,89.733c0,.793.028,1.588-.007,2.38a1.593,1.593,0,0,1-1.53,1.622,1.514,1.514,0,0,1-1.57-1.559q-.07-2.561,0-5.125a1.485,1.485,0,0,1,1.51-1.524A1.544,1.544,0,0,1,61.6,87.079c.045.883.01,1.769.01,2.654Z" transform="translate(-15.24 -22.292)" fill="#fff"/>
              </g>
            </g>
          </g>
        </g>
      </g>
    </g>
  </g>
</svg>
