<svg xmlns="http://www.w3.org/2000/svg" xmlns:xlink="http://www.w3.org/1999/xlink" width="106.785" height="54" viewBox="0 0 106.785 54">
  <defs>
    <clipPath id="clip-path">
      <rect id="Rectangle_125" data-name="Rectangle 125" width="106.785" height="54" fill="#fff"/>
    </clipPath>
  </defs>
  <g id="Group_514" data-name="Group 514" transform="translate(0 0)" opacity="0.75">
    <g id="Group_513" data-name="Group 513" transform="translate(0 0)" clip-path="url(#clip-path)">
      <path id="Path_1741" data-name="Path 1741" d="M45.588,34.412a12.486,12.486,0,0,1,4.768-19.533V8.316a1.946,1.946,0,0,0-1.945-1.949h-4.03a1.949,1.949,0,0,0-1.949,1.949v2.317L31.106.8a3.254,3.254,0,0,0-4.269,0L1.121,23.12a3.256,3.256,0,0,0,2.133,5.717H8.185V48.888a1.875,1.875,0,0,0,1.877,1.875h11.08V36.185a3.73,3.73,0,0,1,3.73-3.731h8.2a3.731,3.731,0,0,1,3.731,3.731V50.763h2.109c.1-2.779.891-10.944,6.672-16.351" transform="translate(0 0.001)" fill="#fff"/>
      <path id="Path_1742" data-name="Path 1742" d="M66.532,41.706A7.3,7.3,0,0,1,54.86,42.822a7.452,7.452,0,0,1-.883-1.161,12.572,12.572,0,0,1-2.045-1.5c-5.258,4.908-6.025,12.546-6.133,15.078-.02.473-.018.769-.017.834l.006.358H62.432c.2-3.164,1.161-10.183,5.552-15.713a12.463,12.463,0,0,1-1.451.988" transform="translate(-5.102 -4.475)" fill="#fff"/>
      <path id="Path_1743" data-name="Path 1743" d="M67.228,26.572a13.97,13.97,0,0,1,1.193-5.65A10.7,10.7,0,1,0,55.334,37.606c.143.084.281.176.428.253a10.591,10.591,0,0,0,9.961,0,10.79,10.79,0,0,0,3.157-2.527,10.666,10.666,0,0,0,.723-.953,13.977,13.977,0,0,1-2.375-7.8" transform="translate(-5.576 -1.967)" fill="#fff"/>
      <path id="Path_1744" data-name="Path 1744" d="M106.472,45.414l.832-1.344a10.467,10.467,0,0,1-3.99-.141l.922,1.484-.579,3.371a38.862,38.862,0,0,1,1.247,7.223l13.391,0,.005-.323c.006-.375-.136-8.585-5.756-13.8a11.41,11.41,0,0,1-1.5.969l-3.816,7.429Z" transform="translate(-11.514 -4.668)" fill="#fff"/>
      <path id="Path_1745" data-name="Path 1745" d="M105.012,20.8a9.588,9.588,0,0,0-5.188,1.52,13.933,13.933,0,0,1-2.609,13.737,9.677,9.677,0,0,0,3.177,2.825,9.554,9.554,0,0,0,4.614,1.188h0a9.635,9.635,0,0,0,0-19.27" transform="translate(-10.834 -2.318)" fill="#fff"/>
      <path id="Path_1746" data-name="Path 1746" d="M99.156,57.968c-.006-.154-.016-.3-.024-.45a38.326,38.326,0,0,0-1.4-8.905c-1.626-5.533-4.172-8.079-5.38-9.025A13.978,13.978,0,0,1,73.8,39.5c-.151.135-.3.27-.447.409-7,6.682-6.9,17.607-6.893,18.082l0,.142,0,.267H99.173ZM87.411,48.35l-4.595-2.342L78.222,48.35V42.661l4.595,2.457,4.595-2.457Z" transform="translate(-7.407 -4.402)" fill="#fff"/>
      <path id="Path_1747" data-name="Path 1747" d="M94.773,20.92A12.275,12.275,0,1,0,74.147,33.89c.092.115.194.221.291.331A12.247,12.247,0,0,0,83.67,38.43h0a12.193,12.193,0,0,0,8.391-3.341c.1-.09.2-.171.29-.263.125-.125.235-.262.355-.392A12.18,12.18,0,0,0,94.773,20.92" transform="translate(-7.956 -1.544)" fill="#fff"/>
    </g>
  </g>
</svg>
