<svg xmlns="http://www.w3.org/2000/svg" xmlns:xlink="http://www.w3.org/1999/xlink" width="40.538" height="54" viewBox="0 0 40.538 54">
  <defs>
    <clipPath id="clip-path">
      <rect id="Rectangle_123" data-name="Rectangle 123" width="40.538" height="54" fill="#fff"/>
    </clipPath>
  </defs>
  <g id="Group_512" data-name="Group 512" transform="translate(0 0)" opacity="0.75">
    <g id="Group_511" data-name="Group 511" transform="translate(0 0)" clip-path="url(#clip-path)">
      <path id="Path_1736" data-name="Path 1736" d="M19.6,46.488c-.082.076-.166.148-.251.221s-.174.148-.264.22q-.275.221-.564.421l-3.983,8.182-.793-4.712,1.178-1.894c-.144.033-.288.062-.433.087a10.074,10.074,0,0,1-1.134.135c-.211.013-.421.022-.634.022a10.208,10.208,0,0,1-2.375-.282l1.2,1.933-.747,4.8L6.385,46.949c-.2-.162-.4-.332-.59-.509l-.081.071C1.43,50.216.3,55.933,0,58.94H25.032c-.826-8.793-4.485-11.811-5.431-12.452" transform="translate(0 -4.94)" fill="#fff"/>
      <path id="Path_1737" data-name="Path 1737" d="M13.107,27.483a9.487,9.487,0,1,0,9.488,9.487,9.5,9.5,0,0,0-9.488-9.487" transform="translate(-0.385 -2.923)" fill="#fff"/>
      <path id="Path_1738" data-name="Path 1738" d="M42.625,51.279a.19.19,0,0,0,.081-.167.186.186,0,0,0-.1-.155,4.815,4.815,0,0,1-2.028-1.945,3.7,3.7,0,0,0,2.084.937.182.182,0,0,0,.178-.067.186.186,0,0,0,.029-.189,32.69,32.69,0,0,1-1.632-6.7c-.243-1.411-.479-2.785-.8-4.011a7.127,7.127,0,0,0-.485-1.525,7.352,7.352,0,0,0-.831-1.61A5.419,5.419,0,0,0,35.6,33.533a7.177,7.177,0,0,0-2.24-.357A6.548,6.548,0,0,0,29.3,34.562a6.324,6.324,0,0,0-2.457,3.167,10.786,10.786,0,0,0-.828,2.672,6.783,6.783,0,0,0-.087.759q-.079.462-.15.957a20.042,20.042,0,0,0,.239,5.487,22.376,22.376,0,0,1,2.946,9.925H43.267a17.667,17.667,0,0,0-1.446-5.8,7.852,7.852,0,0,0,.8-.454m-4.4-1.141c-.113.14-2.353,1.6-2.353,1.6l1.1,1.5-3.489,2.74.005.013-.011-.008-.011.008.006-.013-3.488-2.74,1.1-1.5s-2.241-1.461-2.354-1.6c-.2-.25,1-1.4,1-1.4l3.743,7.238,3.744-7.238s1.2,1.152,1,1.4" transform="translate(-2.731 -3.529)" fill="#fff"/>
      <path id="Path_1739" data-name="Path 1739" d="M28.876,0H3.535a2.5,2.5,0,0,0-2.5,2.5V16.15a2.5,2.5,0,0,0,2.5,2.5H13.721l-.336,4.287,3.726-4.287H28.876a2.5,2.5,0,0,0,2.5-2.5V2.5a2.5,2.5,0,0,0-2.5-2.5M17.367,12.1H4.715a.439.439,0,1,1,0-.878H17.367a.439.439,0,1,1,0,.878M27.384,9.062H4.715a.439.439,0,0,1,0-.878H27.384a.439.439,0,0,1,0,.878m0-3.033H4.715a.439.439,0,0,1,0-.878H27.384a.439.439,0,1,1,0,.878" transform="translate(-0.11 0)" fill="#fff"/>
      <path id="Path_1740" data-name="Path 1740" d="M40.8,13.532H35.033v4.926a2.7,2.7,0,0,1-2.7,2.7h-7.6v3.283A1.567,1.567,0,0,0,26.3,26.007h7.731l2.332,2.682-.211-2.682H40.8a1.568,1.568,0,0,0,1.567-1.568V15.1A1.567,1.567,0,0,0,40.8,13.532" transform="translate(-2.631 -1.439)" fill="#fff"/>
    </g>
  </g>
</svg>
