<svg xmlns="http://www.w3.org/2000/svg" xmlns:xlink="http://www.w3.org/1999/xlink" width="63.001" height="54" viewBox="0 0 63.001 54">
  <defs>
    <clipPath id="clip-path">
      <rect id="Rectangle_122" data-name="Rectangle 122" width="63.001" height="54" fill="#fff"/>
    </clipPath>
  </defs>
  <g id="Group_509" data-name="Group 509" transform="translate(0 0)" opacity="0.75">
    <g id="Group_508" data-name="Group 508" transform="translate(0 0)" clip-path="url(#clip-path)">
      <path id="Path_1734" data-name="Path 1734" d="M58.885,29.55A9.157,9.157,0,0,0,63.14,22.5a.5.5,0,0,0-.769-.459l-5.361,3.467-5.056-2.419-.13-5.6,5.362-3.467a.5.5,0,0,0-.1-.888A9.178,9.178,0,0,0,44.929,23.288L23.14,37.377A9.172,9.172,0,0,0,8.9,44.29a.5.5,0,0,0,.769.459l5.361-3.467L20.085,43.7l.13,5.6L14.853,52.77a.5.5,0,0,0,.1.888A9.178,9.178,0,0,0,27.109,43.5L48.9,29.415a9.182,9.182,0,0,0,9.986.136" transform="translate(-0.141 -0.2)" fill="#fff"/>
      <path id="Path_1735" data-name="Path 1735" d="M29.689,19.641l-1.558-2.41L42.468,7.96l2.351-.025L50.352,2.55,48.7,0,41.521,2.835l-.987,2.134L26.2,14.239l-1.559-2.41a.761.761,0,0,0-1.059-.155l-1.156.748a.759.759,0,0,0-.292,1.028l.087.134a6.446,6.446,0,0,0-3.205,1.043L2.879,25.059C.15,26.823-.808,30.2.741,32.591l.209.323C2.5,35.309,5.967,35.82,8.7,34.056L24.83,23.624a6.442,6.442,0,0,0,2.266-2.5l.087.134a.759.759,0,0,0,1.058.156l1.157-.748a.76.76,0,0,0,.291-1.029M2.647,28.222l-.627-.969,17.738-11.47.627.97Zm1.813,2.8-.627-.969L21.571,18.587l.627.969Zm1.814,2.8-.627-.969,17.738-11.47.627.97Z" transform="translate(0 0)" fill="#fff"/>
    </g>
  </g>
</svg>
