<svg xmlns="http://www.w3.org/2000/svg" xmlns:xlink="http://www.w3.org/1999/xlink" width="66.621" height="56.992" viewBox="0 0 66.621 56.992">
  <defs>
    <clipPath id="clip-path">
      <rect id="Rectangle_135" data-name="Rectangle 135" width="66.621" height="56.992" transform="translate(0 0)" fill="#fff"/>
    </clipPath>
  </defs>
  <g id="Group_525" data-name="Group 525" transform="translate(0 0)" opacity="0.75">
    <g id="Group_524" data-name="Group 524" clip-path="url(#clip-path)">
      <path id="Path_1755" data-name="Path 1755" d="M18.063,14.714h.8l-2.6-2.638a.94.94,0,0,0-.752-.315,1.058,1.058,0,0,0-.749.311L11.24,15.616,11.22,3.672h8.527l.021,11.042H43.2v-8a4.774,4.774,0,0,0-1.408-3.4,4.834,4.834,0,0,0-1.107-.826,4.759,4.759,0,0,0-1.8-.556c-.16-.015-.324-.024-.489-.024H7.5a4.808,4.808,0,0,0-4.8,4.8V9.111H.88a.881.881,0,0,0-.88.88V14.4a.879.879,0,0,0,.88.879H2.7v3.313H.88a.879.879,0,0,0-.88.879v4.411a.881.881,0,0,0,.88.88H2.7v3.311H.88a.879.879,0,0,0-.88.879v4.411a.88.88,0,0,0,.88.88H2.7v3.313H.88a.879.879,0,0,0-.88.879v4.409a.88.88,0,0,0,.88.88H2.7V46.6a4.808,4.808,0,0,0,4.8,4.8h7.545V17.734a3.022,3.022,0,0,1,3.019-3.02" fill="#fff"/>
      <path id="Path_1756" data-name="Path 1756" d="M43.5,15.714h-.3v.415c.1-.14.2-.279.3-.415" fill="#fff"/>
      <path id="Path_1757" data-name="Path 1757" d="M45.131,15.207l-.005.006h.013Z" fill="#fff"/>
      <path id="Path_1758" data-name="Path 1758" d="M45.139,15.213h-.013c-.125.162-.251.327-.381.5h1.036Z" fill="#fff"/>
      <path id="Path_1759" data-name="Path 1759" d="M48.088,15.819l1.129.908a2.013,2.013,0,0,0-1.129-.908" fill="#fff"/>
      <path id="Path_1760" data-name="Path 1760" d="M49.217,16.727l.737.593a2.517,2.517,0,0,0-2.477-2.106h-.141l.752.605a2.016,2.016,0,0,1,1.129.908" fill="#fff"/>
      <path id="Path_1761" data-name="Path 1761" d="M45.988,14.129l-.029-.023-.231.3.4.308h.59Z" fill="#fff"/>
      <path id="Path_1762" data-name="Path 1762" d="M49.217,16.727l-1.129-.908a2,2,0,0,0-.611-.105h-.07L49.448,17.3a2,2,0,0,0-.231-.576" fill="#fff"/>
      <path id="Path_1763" data-name="Path 1763" d="M47.336,15.213l-.621-.5h-.591l.642.5Z" fill="#fff"/>
      <path id="Path_1764" data-name="Path 1764" d="M43.945,28.135a6.13,6.13,0,0,1-.55.448l-.194.133-.035.024-.375.212-.06.034-1.761.993h2.959v2.735H21.611V29.979h14.4l1.068-3.334H21.611V23.911H38.055l.008-.013.238-.382c.714-1.143,2.9-4.6,4.9-7.388v-.414H18.063a2.022,2.022,0,0,0-2.019,2.019V54.971a2.022,2.022,0,0,0,2.019,2.021H40.051V52.544a4.413,4.413,0,0,1,.3-1.576,4.461,4.461,0,0,1,2.493-2.553,4.407,4.407,0,0,1,1.663-.329H49.5V22.179c-1.755,2.021-4.2,4.758-5.551,5.956m-.016,10.646H21.611V36.048H43.929Z" fill="#fff"/>
      <path id="Path_1765" data-name="Path 1765" d="M42.489,52.544v2.842l5.156-4.863H44.509a2.023,2.023,0,0,0-2.02,2.021" fill="#fff"/>
      <path id="Path_1766" data-name="Path 1766" d="M38.289,26.145l-.16.5-1.068,3.334-.16.5-.161.5-.093.292.518-.292.886-.5.885-.5L41.92,28.3l-1.939-1.65-.587-.5-.588-.5-.28-.239-.077.239Z" fill="#fff"/>
      <path id="Path_1767" data-name="Path 1767" d="M50.5,19.387,50,19l-.5-.389L45.78,15.713H44.744c-.5.663-1.02,1.395-1.544,2.151-1.66,2.4-3.3,4.979-3.966,6.046l-.153.245-.16.256-.008.013.573.486.862.735.588.5.587.5,1.307,1.112c.095-.065.209-.155.334-.261l.036-.031a92.635,92.635,0,0,0,6.3-6.818c.184-.213.351-.408.5-.582l.5-.586.047-.055-.045-.036Z" fill="#fff"/>
      <path id="Path_1768" data-name="Path 1768" d="M56.918,0,45.96,14.106l.029.023.726.585.621.5h.141a2.518,2.518,0,0,1,2.478,2.107l-.737-.593a2,2,0,0,1,.23.576L50,17.73l.5.39.616.48.174-.209L66.622,0Z" fill="#fff"/>
      <path id="Path_1769" data-name="Path 1769" d="M47.477,15.714a2,2,0,0,1,.611.105l-.752-.605h-.57l.642.5Z" fill="#fff"/>
    </g>
  </g>
</svg>
