<svg id="Group_436" data-name="Group 436" xmlns="http://www.w3.org/2000/svg" xmlns:xlink="http://www.w3.org/1999/xlink" width="85.823" height="104.766" viewBox="0 0 85.823 104.766">
  <defs>
    <clipPath id="clip-path">
      <rect id="Rectangle_96" data-name="Rectangle 96" width="85.823" height="104.766" fill="none"/>
    </clipPath>
  </defs>
  <g id="Group_435" data-name="Group 435" clip-path="url(#clip-path)">
    <path id="Path_1529" data-name="Path 1529" d="M72.485,254.366l-2.052-.321-2.853-.5-2.232-.842.336-2.482,9.86-1.67,5.973-3.721,5.647-6.388,2.778-1.892,3.344-8.258L68.3,213.269l-22.04,2.725L39.5,222.6l1.835,6.68,1.386,3.857,2.912,2.285,4.342,7.127,7.27,5.18-1.04,3.393-2.951-1.126-5.064-.221-8.562,28.2,37.429-.478a203.6,203.6,0,0,1-4.575-23.128" transform="translate(-32.125 -173.433)" fill="#fff"/>
    <path id="Path_1530" data-name="Path 1530" d="M205.09,431.568s3.964.193,9.087,4.16,3.267,2.491,3.267,2.491v8.717l-8.582-4.69a86.53,86.53,0,0,0-3.773-10.676" transform="translate(-166.782 -350.956)" fill="#002140"/>
    <path id="Path_1531" data-name="Path 1531" d="M226.029,286.834a1.074,1.074,0,0,1-.45-.745,1.626,1.626,0,0,1,.247-.851.952.952,0,0,1,.333-.417.461.461,0,0,1,.052-.026.955.955,0,0,1,.228-.058,11.343,11.343,0,0,1,2.464.165l1.423.086a7.289,7.289,0,0,1,1.735.14,1.581,1.581,0,0,1,.728.468c.14.154.476.445.447.677-.037.291-.69.331-.915.375l-.9.173c-.762.147-1.524.294-2.291.4a4.167,4.167,0,0,1-3.1-.385" transform="translate(-183.442 -231.522)" fill="#002141"/>
    <path id="Path_1532" data-name="Path 1532" d="M125.123,261.084c-.208-.16-.85-.547-.753-.825.077-.222.551-.3.763-.361a1.832,1.832,0,0,1,.952-.024,9.519,9.519,0,0,1,1.821.81l1.48.69a14.849,14.849,0,0,1,2.569,1.18,1.248,1.248,0,0,1,.2.174.564.564,0,0,1,.041.051,1.008,1.008,0,0,1,.145.55,1.5,1.5,0,0,1-.141.889,1.047,1.047,0,0,1-.8.42,5.379,5.379,0,0,1-3.319-1.33c-.729-.506-1.432-1.047-2.136-1.588l-.828-.637" transform="translate(-101.131 -211.291)" fill="#002141"/>
    <path id="Path_1533" data-name="Path 1533" d="M226.79,316.943a.484.484,0,0,0,.41-.866l-3.288-2.175,4.224-.6a.484.484,0,0,0-.135-.958l-5.488.775a.484.484,0,0,0-.2.883l4.353,2.879a.475.475,0,0,0,.123.059" transform="translate(-180.612 -254.002)" fill="#002140"/>
    <path id="Path_1534" data-name="Path 1534" d="M226.525,316.651a.569.569,0,0,1-.169-.026.578.578,0,0,1-.148-.07l-4.352-2.878a.577.577,0,0,1,.238-1.053l5.488-.775a.577.577,0,1,1,.162,1.143l-3.98.562,3.082,2.039a.577.577,0,0,1-.32,1.059m-.114-.2a.394.394,0,0,0,.442-.158.39.39,0,0,0-.11-.541l-3.493-2.31,4.468-.631a.39.39,0,1,0-.109-.773l-5.488.775a.39.39,0,0,0-.161.712l4.353,2.879a.4.4,0,0,0,.1.047" transform="translate(-180.206 -253.594)" fill="#002140"/>
    <path id="Path_1535" data-name="Path 1535" d="M118.348,290.945a.484.484,0,0,1,.042-.957l3.923-.386-3.456-2.5a.484.484,0,1,1,.567-.784l4.49,3.249a.484.484,0,0,1-.236.873l-5.193.511a.482.482,0,0,1-.137-.006" transform="translate(-95.921 -232.762)" fill="#002140"/>
    <path id="Path_1536" data-name="Path 1536" d="M118.03,290.639a.553.553,0,0,1-.105-.01.58.58,0,0,1-.468-.511.577.577,0,0,1,.518-.631l3.677-.362-3.256-2.356a.577.577,0,1,1,.677-.935l4.49,3.249a.577.577,0,0,1-.282,1.042l-5.193.511-.058,0m-.071-.193a.382.382,0,0,0,.11,0l5.194-.511a.39.39,0,0,0,.191-.7l-4.49-3.25a.39.39,0,1,0-.458.633l3.655,2.645-4.168.411a.39.39,0,0,0-.35.427.392.392,0,0,0,.316.346" transform="translate(-95.515 -232.353)" fill="#002140"/>
    <path id="Path_1537" data-name="Path 1537" d="M63.253,56.043l2.247-.99a6.324,6.324,0,0,0,.775-.7,4.77,4.77,0,0,0,.684-.9h0c.427-.562.337-.859.7-1.452a2.885,2.885,0,0,0,.767.136c1.369.114,5.112-2.659,5.547-5.836.262-1.914-.9-1.733-.239-3.353s-.065-1.478-.69-2.841a1.626,1.626,0,0,1-.088-1.119,8.206,8.206,0,0,0-.281-6.755,12.267,12.267,0,0,0-1.247-2.027,4.669,4.669,0,0,0-1.176-1.035.823.823,0,0,1-.289-.3.8.8,0,0,1-.032-.423c.262-1.807,2.376-2.325,1.673-4.006q-.2-.474-.436-.92a8.476,8.476,0,0,0-1.808-2.374,1.212,1.212,0,0,1-.217-.261,2.307,2.307,0,0,1-.23-.921,7.2,7.2,0,0,0-.824-2.82,5.987,5.987,0,0,0-1.955-2.147c-.778-.526-1.688-.84-2.465-1.367a3.422,3.422,0,0,1-1.11-1.286c-1.292-2.671-3.627-3.786-6.171-4.615a2.173,2.173,0,0,0-.78-.177,2.37,2.37,0,0,1-2.179-1.145A4.421,4.421,0,0,0,49.075,4.55a.787.787,0,0,1-.538-.262,6.855,6.855,0,0,0-3.73-2.107A8.212,8.212,0,0,1,41.525.722C40.074-.2,38.56.192,37.09.776A1.052,1.052,0,0,1,36.04.7,4.533,4.533,0,0,0,31.881.347a8.2,8.2,0,0,0-1.5.76,3.66,3.66,0,0,1-2.136.3,4.76,4.76,0,0,0-2.887,1.034c-.721.566-1.371,1.232-2.068,1.832a1.034,1.034,0,0,1-.555.232,8.358,8.358,0,0,0-4.727,2,4.732,4.732,0,0,0-1,1.311,2.845,2.845,0,0,1-1.35,1.247,5.1,5.1,0,0,0-2.466,2.515,1.506,1.506,0,0,1-.721.617c-1.01.436,2.1-2.13,1.143-1.6a8.608,8.608,0,0,0-2.753,2.719,1.929,1.929,0,0,1-.578.55c-1.9,1.113-1.411.5-2.014,2.69-.182.66-1.748,1.628-2.121,2.138-1.67,2.284-2.02,2.911-1.74,5.737a.711.711,0,0,1-.3.752,9.474,9.474,0,0,0-3.317,6.3S-.562,35.5.271,36.981a7.816,7.816,0,0,0,1.008,1.406.465.465,0,0,1,.082.146,1.2,1.2,0,0,1,.054.51,6.784,6.784,0,0,0,.778,3.694l.025.049a1.439,1.439,0,0,0,.47.6c.671.4.444,2.047.816,2.7A3.531,3.531,0,0,0,5.76,47.715c.145.009.282.029.42.046,1.463.294,1.2,1.4,1.2,1.4s-.968,2.091,1.933,2.022,0,0,0,0c.349.416.216.7.971,1.332s2.593.183,2.593.183l.293-.115c.214-.116.039-.034.243-.166.072-.066.153-.134.25-.209.648-.507.516-.283.742-1.005.145-.463.314-.678.843-.627a4.348,4.348,0,0,0,3.018-.886,8.451,8.451,0,0,0,3.181-4.161.779.779,0,0,1,.841-.638,7.021,7.021,0,0,0,5.036-1.93,7.232,7.232,0,0,0,.772.163,5.176,5.176,0,0,0,2.685.806c.086.015.171.035.257.047a6.077,6.077,0,0,0,1.124.052,8.162,8.162,0,0,0,1.989,1.335,4.686,4.686,0,0,0,1.725.659c.219.063.437.121.652.169a8.843,8.843,0,0,0,6.383-.747c.04,0,.079-.007.119-.01.011.029.026.055.038.084.071.179.15.351.232.52.035.071.066.144.1.214a7.319,7.319,0,0,0,.38.648,7.622,7.622,0,0,0,3.784,2.939,6.433,6.433,0,0,0,1.945.277.963.963,0,0,1,.861.392,1.242,1.242,0,0,1,.115.306,10.782,10.782,0,0,0,.432,1.12,10.012,10.012,0,0,0,.44,1.026c.064.13.133.253.2.378.08.145.159.29.245.428.125.2.253.4.39.584l.05.067a9.463,9.463,0,0,0,3.3,2.725c1.763.588,1.115-.4,2.579-.364a.787.787,0,0,1,.227-.02c.416.021.828.016,1.238,0a14.73,14.73,0,0,0,3.661-.72c.007.027.033.042.07.05" transform="translate(0 -0.001)" fill="#002141"/>
    <path id="Path_1538" data-name="Path 1538" d="M79.468,287.085a23.218,23.218,0,0,0,20.754-3.368c6.753-4.888,8.819-17.273,8.9-17.8a.919.919,0,0,0-1.814-.293c-.02.121-2.031,12.161-8.167,16.6A21.419,21.419,0,0,1,80,285.319a24.985,24.985,0,0,1-9.205-5.286c-6.271-5.6-6.06-15.971-5.678-20.171.03-.329.108-1.2-.751-1.335s-1.048.713-1.118,1.032a.915.915,0,0,0,.013.446c-.471,5.624-.213,15.575,6.311,21.4a26.87,26.87,0,0,0,9.9,5.681" transform="translate(-51.319 -210.226)" fill="#002141"/>
    <path id="Path_1539" data-name="Path 1539" d="M144.254,338.22a12.244,12.244,0,0,1-2.362-.246c-2.855-.562-4.791-1.828-5.757-3.762-1.677-3.36.258-7.439.341-7.611a.651.651,0,0,1,.725-.355l14.25,3.033a.654.654,0,0,1,.518.651c0,.179-.11,4.4-3.04,6.766a7.216,7.216,0,0,1-4.674,1.524m-6.8-10.582c-.412,1.077-1.248,3.805-.151,6,.776,1.55,2.4,2.578,4.837,3.058,2.512.495,4.518.154,5.963-1.013a8.025,8.025,0,0,0,2.513-5.239Z" transform="translate(-110.152 -265.296)" fill="#002141"/>
    <path id="Path_1540" data-name="Path 1540" d="M75.945,252.853s-2.984,6-1.939,10.251l-3.08-1.869.02-9.169Z" transform="translate(-57.678 -204.983)" fill="#002141"/>
    <path id="Path_1541" data-name="Path 1541" d="M280.236,293.774s.275,6.467-1.628,10.279l2.577-1.037,2.6-8.776Z" transform="translate(-226.568 -238.901)" fill="#002141"/>
    <path id="Path_1542" data-name="Path 1542" d="M72.629,308.995a.465.465,0,0,1-.243-.069l-2.68-1.638a.467.467,0,1,1,.487-.8l2.68,1.637a.467.467,0,0,1-.244.865" transform="translate(-56.504 -249.187)" fill="#002140"/>
    <path id="Path_1543" data-name="Path 1543" d="M71.814,318.842a.465.465,0,0,1-.243-.069l-2.68-1.638a.467.467,0,1,1,.487-.8l2.68,1.637a.467.467,0,0,1-.244.865" transform="translate(-55.842 -257.195)" fill="#002140"/>
    <path id="Path_1544" data-name="Path 1544" d="M277.181,351.567a.467.467,0,0,1-.244-.865l1.247-.762a.467.467,0,0,1,.487.8l-1.247.762a.465.465,0,0,1-.243.069" transform="translate(-225.027 -284.519)" fill="#002140"/>
    <path id="Path_1545" data-name="Path 1545" d="M285.474,309.574a.912.912,0,0,0,.453.023c6.178-1.245,6.21-9.368,6.209-9.713a.919.919,0,0,0-1.837.008c0,.1-.048,6.96-4.734,7.9a.919.919,0,0,0-.09,1.778" transform="translate(-231.625 -243.126)" fill="#002141"/>
    <path id="Path_1546" data-name="Path 1546" d="M45.788,282.119a.919.919,0,0,0,.612-1.731c-4.467-1.779-3.255-8.555-3.242-8.624a.919.919,0,1,0-1.806-.338c-.064.339-1.487,8.336,4.368,10.669l.068.024" transform="translate(-33.468 -220.118)" fill="#002141"/>
    <path id="Path_1547" data-name="Path 1547" d="M329.868,261.188s.879,1.443-1.437,3.1c0,0-.822,3.827-4.014,4.291,0,0-1.161,3.45-5.556,2.179,0,0,1.646-3.516,1.622-3.5s.749-5.368.749-5.368Z" transform="translate(-259.302 -212.402)" fill="#002141"/>
    <path id="Path_1548" data-name="Path 1548" d="M10.323,217.252s-1.346.933.2,3.052c0,0-.636,3.468,2.165,4.864,0,0-.182,3.259,4.371,3.58,0,0-.245-3.467-.229-3.445s1.266-4.737,1.266-4.737Z" transform="translate(-7.954 -176.672)" fill="#002141"/>
    <path id="Path_1549" data-name="Path 1549" d="M157.775,424.388c.3-.161,2.749,5.189-4.615,9.552l6.736-.83-1.089-3.269,4.256,1.127-2.969-5.738Z" transform="translate(-124.552 -345.115)" fill="#002140"/>
    <path id="Path_1550" data-name="Path 1550" d="M112.964,422.094s-1.05-9.5-4.375-11.761l-2.63-.457-1.648,4.245,5.175,1.112-2.886,2.283c3.482.6,6.364,4.578,6.364,4.578" transform="translate(-84.827 -333.317)" fill="#002140"/>
    <path id="Path_1551" data-name="Path 1551" d="M104.353,441.355l.469,3.041c6.266,6,19.1,1.759,19.1,1.759a16.351,16.351,0,0,0-1.23-5.676l-2.626-.583,1.15,3.1-8.175,1a15.822,15.822,0,0,0-7.79-5.207l2.8-2.251-3.776-.883Z" transform="translate(-84.797 -354.282)" fill="#002140"/>
    <path id="Path_1552" data-name="Path 1552" d="M50.535,408.854s-6.88-1.859-8.63,6.583-1.717,21.446-1.717,21.446l9.314.227s-2.04-22.838,1.032-28.256" transform="translate(-32.681 -332.344)" fill="#002140"/>
    <path id="Path_1553" data-name="Path 1553" d="M172.478,416.34a.468.468,0,0,1-.455-.572l.718-3.106a.467.467,0,0,1,.91.21l-.718,3.106a.467.467,0,0,1-.455.362" transform="translate(-139.881 -335.288)" fill="#022242"/>
    <path id="Path_1554" data-name="Path 1554" d="M126.658,404.341a.468.468,0,0,1-.455-.572l.718-3.106a.467.467,0,0,1,.91.211l-.718,3.106a.467.467,0,0,1-.455.362" transform="translate(-102.62 -325.53)" fill="#022242"/>
    <path id="Path_1555" data-name="Path 1555" d="M232.78,356.955s-2.375-6.291-.275-6.97,2.517-.064,2.517-.064,1.826-1.091,3.2,0c0,0,1.591-.563,2.162.271,0,0,1.886,5.553-.14,9.37l4.288,15.178s.922,3.857-2.344,5.289-4.687-4.1-4.687-4.1l-1.816-15.547s-2.4-1.876-2.9-3.424" transform="translate(-188.371 -284.165)" fill="#fff"/>
    <path id="Path_1556" data-name="Path 1556" d="M238.315,378.063a2.845,2.845,0,0,1-1.257-.3c-2.086-1.016-2.975-4.391-3.011-4.534a.693.693,0,0,1-.016-.087l-1.785-15.282a9.932,9.932,0,0,1-2.9-3.547c-.211-.561-1.812-4.963-.888-6.883a1.72,1.72,0,0,1,1.029-.927,4.048,4.048,0,0,1,2.764-.195,3.562,3.562,0,0,1,3.271.035,2.378,2.378,0,0,1,2.585.617.654.654,0,0,1,.08.159c.079.233,1.879,5.648-.061,9.648l4.218,14.932.007.026c.363,1.518.262,4.733-2.717,6.04a3.263,3.263,0,0,1-1.315.294m-2.992-5.116c.227.846,1.048,3.032,2.308,3.644a1.671,1.671,0,0,0,1.473-.02c2.681-1.176,2.031-4.278,1.974-4.527l-4.284-15.164a.655.655,0,0,1,.052-.484c1.717-3.235.374-7.964.133-8.743-.239-.205-.933-.123-1.362.026a.657.657,0,0,1-.622-.1c-1-.791-2.447.044-2.461.052a.658.658,0,0,1-.8-.108c-.083-.036-.546-.189-1.846.231a.411.411,0,0,0-.253.25c-.521,1.081.3,4.173.938,5.867l.01.028a9.388,9.388,0,0,0,2.685,3.112.654.654,0,0,1,.246.439Zm-3.66-25.511h0Zm0,0h0Zm0,0h0m0,0h0m0,0h0" transform="translate(-185.551 -281.309)" fill="#002141"/>
    <path id="Path_1557" data-name="Path 1557" d="M227.334,276.328l26.156-16.987a34.439,34.439,0,0,0,4.926,30.584l-29.683-7.158-6.417.94-3.436,2.011s-1.607-1.18-1.912-4.835,1.3-3.876,1.3-3.876l1.712,1.059Z" transform="translate(-176.41 -210.9)" fill="#fff"/>
    <path id="Path_1558" data-name="Path 1558" d="M255.571,287.733a.641.641,0,0,1-.153-.018l-29.56-7.128-6.167.9-3.326,1.947a.653.653,0,0,1-.717-.037c-.075-.055-1.851-1.4-2.177-5.308-.346-4.152,1.632-4.547,1.859-4.578a.652.652,0,0,1,.433.092l1.482.916,6.983-1.649,26.06-16.925a.654.654,0,0,1,.968.779,31.914,31.914,0,0,0-1.561,9.553,33.29,33.29,0,0,0,6.4,20.416.654.654,0,0,1-.528,1.039m-29.683-8.465a.652.652,0,0,1,.153.018l28.016,6.756A34.615,34.615,0,0,1,248.39,266.2a35.631,35.631,0,0,1,1.108-8.18L224.845,274.03a.662.662,0,0,1-.206.088l-7.357,1.737a.656.656,0,0,1-.494-.08l-1.411-.872c-.276.229-.78.946-.6,3.08a7.278,7.278,0,0,0,1.37,4.068l3-1.754a.654.654,0,0,1,.236-.083l6.417-.94a.644.644,0,0,1,.095-.007m-1.4-5.786h0Z" transform="translate(-173.565 -208.053)" fill="#002141"/>
    <path id="Path_1559" data-name="Path 1559" d="M234.812,349.452s-.566,3.749,2.141,4.717,2.933-4.123,2.933-4.123-2.477-3.29-5.074-.594" transform="translate(-190.912 -283.315)" fill="#fff"/>
    <path id="Path_1560" data-name="Path 1560" d="M234.748,352.1a2.571,2.571,0,0,1-.869-.16c-3.178-1.136-2.594-5.255-2.567-5.43a.654.654,0,0,1,.176-.356,3.586,3.586,0,0,1,2.838-1.257,4.992,4.992,0,0,1,3.229,1.91.651.651,0,0,1,.131.422c-.015.351-.2,3.458-1.771,4.515a2.07,2.07,0,0,1-1.166.355m-2.165-5.192c-.058.722-.107,3.142,1.736,3.8a.885.885,0,0,0,.865-.049c.72-.483,1.089-2.145,1.178-3.239a3.465,3.465,0,0,0-2.122-1.219,2.2,2.2,0,0,0-1.657.705" transform="translate(-188.058 -280.469)" fill="#002141"/>
    <path id="Path_1561" data-name="Path 1561" d="M245.7,343.883s-.718,4.54,2.713,5.508,3.717-6.082,3.717-6.082a5.445,5.445,0,0,0-6.43.574" transform="translate(-199.753 -278.538)" fill="#fff"/>
    <path id="Path_1562" data-name="Path 1562" d="M246.138,347.333a2.931,2.931,0,0,1-.8-.115c-3.156-.891-3.461-4.471-3.181-6.239a.654.654,0,0,1,.231-.4,6.155,6.155,0,0,1,7.211-.61.654.654,0,0,1,.287.568c-.02.492-.253,4.852-2.271,6.316a2.481,2.481,0,0,1-1.479.484m-2.716-5.906c-.084.884-.174,3.842,2.274,4.533a1.252,1.252,0,0,0,1.153-.169c1.155-.837,1.6-3.544,1.708-4.918a4.753,4.753,0,0,0-5.135.554" transform="translate(-196.861 -275.736)" fill="#002141"/>
    <path id="Path_1563" data-name="Path 1563" d="M399.778,259.341s-9.237,16.633,4.927,30.584c0,0,9.73-16.372-4.927-30.584" transform="translate(-322.698 -210.9)" fill="#fff"/>
    <path id="Path_1564" data-name="Path 1564" d="M401.87,287.732a.654.654,0,0,1-.459-.188,25.5,25.5,0,0,1-7.967-21.049,28.322,28.322,0,0,1,2.928-10.318.654.654,0,0,1,1.027-.152c7.759,7.524,8.717,15.659,8.155,21.158a27.042,27.042,0,0,1-3.122,10.23.654.654,0,0,1-.478.314.668.668,0,0,1-.084.005M397.128,257.6a28.479,28.479,0,0,0-2.386,9.064,23.83,23.83,0,0,0,6.966,19.32,27.094,27.094,0,0,0,2.55-8.986c.73-7.282-1.669-13.8-7.13-19.4" transform="translate(-319.863 -208.052)" fill="#002141"/>
    <path id="Path_1565" data-name="Path 1565" d="M241.068,379.3c.331.573-.11,1.448-.985,1.953s-1.853.45-2.184-.123.11-1.448.985-1.953,1.853-.45,2.184.123" transform="translate(-193.373 -308.068)" fill="#fff"/>
    <path id="Path_1566" data-name="Path 1566" d="M236.04,379.4c-.046,0-.091,0-.136,0a1.689,1.689,0,0,1-1.418-.792c-.519-.9.019-2.15,1.225-2.846a3.032,3.032,0,0,1,1.66-.429,1.585,1.585,0,0,1,1.395,2.415,3.043,3.043,0,0,1-1.2,1.223,3.1,3.1,0,0,1-1.524.433m1.194-2.768a1.8,1.8,0,0,0-.869.258c-.632.365-.842.894-.746,1.06a.452.452,0,0,0,.358.14,1.914,1.914,0,0,0,1.621-.936.308.308,0,0,0-.3-.521l-.063,0" transform="translate(-190.528 -305.221)" fill="#002141"/>
  </g>
</svg>
