<svg xmlns="http://www.w3.org/2000/svg" width="326.764" height="258.584" viewBox="0 0 326.764 258.584">
  <g id="Group_116" data-name="Group 116" transform="translate(-1480.452 1138.211)">
    <g id="Group_115" data-name="Group 115">
      <path id="Path_328" data-name="Path 328" d="M1655.505-909.6a2.71,2.71,0,0,0,2.353,3.026,93.276,93.276,0,0,0,10.691.576c7.272,0,16.927-.788,24.64-4.19a2.709,2.709,0,0,0,1.385-3.575,2.708,2.708,0,0,0-3.574-1.385c-12.64,5.573-32.273,3.216-32.469,3.193A2.713,2.713,0,0,0,1655.505-909.6Z" fill="#00213d"/>
      <path id="Path_329" data-name="Path 329" d="M1687.391-904c-12.643,5.579-32.273,3.218-32.47,3.194a2.71,2.71,0,0,0-3.026,2.355,2.711,2.711,0,0,0,2.353,3.026,93.492,93.492,0,0,0,10.7.575c7.27,0,16.923-.786,24.636-4.189a2.71,2.71,0,0,0,1.386-3.575A2.711,2.711,0,0,0,1687.391-904Z" fill="#00213d"/>
      <path id="Path_330" data-name="Path 330" d="M1623.315-983.664a.9.9,0,0,0,.616,1.107.894.894,0,0,0,.253.037.912.912,0,0,0,.868-.643c.025-.081.65-1.986,3.63-2.6a.9.9,0,0,0,.7-1.066.9.9,0,0,0-1.066-.7C1624.212-986.688,1623.35-983.788,1623.315-983.664Z" fill="#00213d"/>
      <path id="Path_331" data-name="Path 331" d="M1627.933-981.934a.9.9,0,0,0,.274,1.246.884.884,0,0,0,.485.143.906.906,0,0,0,.763-.413,7.363,7.363,0,0,1,4.33-3.017.9.9,0,0,0,.744-1.04.9.9,0,0,0-1.04-.743A9.1,9.1,0,0,0,1627.933-981.934Z" fill="#00213d"/>
      <path id="Path_332" data-name="Path 332" d="M1806.558-1007.232a2.741,2.741,0,0,0-.232-.983l-1.757-3.963a.822.822,0,0,0,.034-.147.89.89,0,0,0-.451-.79l-.4-.9a2.6,2.6,0,0,0,.363-.16,2.71,2.71,0,0,0,1.2-2.835l-3.072-14.879a2.724,2.724,0,0,0-.385-.932l-2.368-3.63a.853.853,0,0,0,.01-.151.9.9,0,0,0-.581-.724l-2.529-3.876-2.554-12.378a2.676,2.676,0,0,0-.384-.934l-2.369-3.63a.831.831,0,0,0,.01-.149.893.893,0,0,0-.579-.724l-3.506-5.374c-.507-2.175-2.658-10.551-6.855-15.993a2.7,2.7,0,0,0-.373-2.152l-8.533-12.569a2.709,2.709,0,0,0-.714-.715l-3.578-2.447a.993.993,0,0,0-.049-.143.9.9,0,0,0-.8-.436l-5.311-3.631c-1.486-2.074-8.059-10.813-15.051-13.376a7.173,7.173,0,0,0-5.838.369c-.206.1-.4.237-.6.359l-6.478-5.073a2.689,2.689,0,0,0-.9-.464l-4.152-1.239a.878.878,0,0,0-.09-.121.891.891,0,0,0-.89-.172l-6.17-1.84c-2.047-1.522-10.975-7.838-18.414-8.149a7.14,7.14,0,0,0-5.448,2.134,8.783,8.783,0,0,0-.776.884l-10.932-4.333a2.666,2.666,0,0,0-.874-.188l-5.013-.23c-.026-.021-.042-.05-.071-.068a.9.9,0,0,0-.974.02l-7.6-.35c-2.424-.9-14.148-5.035-22.449-3.6a7.891,7.891,0,0,0-5.55,3.725,14.042,14.042,0,0,0-1.671,7.27c-2.649-.075-4.6-.079-5.68-.071-73.641.623-123.729,39.763-139.924,60.372a66.879,66.879,0,0,0-10.619,18.6c-6.835,18.428-5.27,39.873,4.528,62.012,6.429,14.532,17.7,25.831,31.494,34.655a2.692,2.692,0,0,0,1.21,1.9c.505.321,50.52,32.425,64.1,50.59,6.53,8.735,22.116,15.507,41.693,18.117a126.432,126.432,0,0,0,16.659,1.117c21.014,0,40.076-5.474,52.946-15.544a2.826,2.826,0,0,0,.3-.277c.183-.194,18.852-19.838,59.281-48.248a2.7,2.7,0,0,0,1.122-2.535q1.632-1.128,3.253-2.318c9.7-7.144,28.743-21.209,36.427-44.125a12.944,12.944,0,0,1,4.907,2.626,2.711,2.711,0,0,0,3.019.6,2.714,2.714,0,0,0,1.637-2.606Zm-57.26,3.211,1.651-3.6,2.766-6.037c.655.082,1.282.148,1.875.2l-2.093,5.613-1.714,4.6C1750.98-1003.484,1750.155-1003.737,1749.3-1004.021Zm-3.016-1.074.923-2.193,2.935-6.971c.589.119,1.164.229,1.716.321l-2.979,6.5-1.293,2.823C1747.156-1004.768,1746.723-1004.928,1746.282-1005.095Zm-2.455-.966c-.683-.285-1.325-.506-1.98-.747l-.02-.007,4.42-8.126a.869.869,0,0,0,.068-.22c.7.192,1.368.355,2.027.511l-3.176,7.545-.567,1.347C1744.337-1005.864,1744.092-1005.951,1743.827-1006.061Zm-218.061-26.179c.736-.374,1.511-.743,2.275-1.082a12.521,12.521,0,0,0,1.58-.8c2.007-1.137,4.4-2.416,7.119-3.76.959.248,1.739.421,2.314.542-3.662,1.594-6.914,3.163-9.744,4.625A25.416,25.416,0,0,1,1525.766-1032.24Zm66.417-43.749q-.957.578-1.869,1.2c.182-.324.358-.645.524-.962C1591.282-1075.845,1591.73-1075.924,1592.183-1075.989Zm44.842-.078,6.558,8.985a10.718,10.718,0,0,0-1.235,2.535.889.889,0,0,0-.14-.319l-6.9-9.856Q1636.114-1075.374,1637.025-1076.067Zm38.651-48.287.327,2.153-16.417-6.957-.081-.533.537-.863,15.122,6.184a.9.9,0,0,0,.343.067A.888.888,0,0,0,1675.676-1124.354Zm-.12,3.926a.884.884,0,0,0,.353.073.909.909,0,0,0,.358-.106l.272,1.8a.9.9,0,0,0,.366.6l3.285,2.37-.346.113c-.375.122-.8.268-1.235.429l-18.373-9.718-.332-2.188Zm1.034,6.251a3.782,3.782,0,0,0-1.534,1.782l-13.651-7.678a.865.865,0,0,0-.457-.1l-.375-2.474Zm-11.72,26.4-9.047-8.482a.887.887,0,0,0-.357-.2,13.01,13.01,0,0,0,.643-1.982l10.955,9.076c-.575.746-1.2,1.522-1.929,2.344A.891.891,0,0,0,1664.87-1087.781Zm3.27-3.041-11.568-9.584.564-2.348,12.24,10.044C1669.018-1092.121,1668.612-1091.494,1668.14-1090.822Zm2.143-3.483-12.677-10.4.464-1.927,13.522,9.207A17.4,17.4,0,0,1,1670.283-1094.305Zm-7.053-18.258,10.878,7.353c-.237.892-.5,1.795-.777,2.658l-9.076-6.639Zm11.692,2.166a13.329,13.329,0,0,1-.364,3.309l-11.471-7.754a.879.879,0,0,0-.591-.139l-.881-2.9Zm-11.968,2.493,9.78,7.154c-.2.563-.38,1.08-.55,1.539l-13.663-9.3.485-2.015Zm-8.228,13.091,8.909,8.353a.9.9,0,0,0,.617.243.91.91,0,0,0,.177-.035c-.648.707-1.351,1.436-2.117,2.19l-8.617-8.153a.881.881,0,0,0-.334-.2C1653.913-1093.291,1654.369-1094.1,1654.726-1094.813Zm-2.321,3.843a.756.756,0,0,0,.048.068l8.55,8.091q-1.031.96-2.2,1.96l-7.664-8.406Q1651.835-1090.15,1652.405-1090.97Zm-2.415,3.13,7.432,8.151c-.416.341-.848.684-1.288,1.031l-7.459-7.681C1649.14-1086.852,1649.581-1087.352,1649.99-1087.84Zm-2.547,2.827,7.251,7.466c-.231.175-.435.343-.672.519-.712.528-1.352,1.036-2,1.547l-6.115-7.74a.9.9,0,0,0-.138-.117C1646.362-1083.909,1646.914-1084.466,1647.443-1085.013Zm-2.977,2.873c.008.012.01.027.019.039l6.125,7.75c-1.009.832-1.916,1.636-2.748,2.418l-5.825-8.085Q1643.327-1081.1,1644.466-1082.14Zm-3.818,3.283,5.9,8.184c-.7.714-1.295,1.4-1.833,2.067l-6.25-8.563C1639.212-1077.736,1639.959-1078.3,1640.648-1078.857Zm69.548-42.971.6-.664,10.891,8.741.315.252a.871.871,0,0,0,.392.171l-.215,2.034-1.411-1.165-10.633-8.775Zm.674,36.467-4.483-6.877-3.681-5.647.8-1.689,4.266,5.385,4.86,6.136A18.6,18.6,0,0,1,1710.87-1085.361Zm4.487-7.408-4.372-5.936-1.589-2.159-.072-3.349,2.95,3.7,4.309,5.4C1716.19-1094.326,1715.778-1093.535,1715.357-1092.769Zm2.081-4.171-4.075-5.108-3.636-4.557a.866.866,0,0,0-.46-.288l-.062-2.862,5.514,5.8,3.751,3.945A14.4,14.4,0,0,1,1717.438-1096.94Zm1.688-5.005-3.339-3.512-6.263-6.587a.884.884,0,0,0-.345-.217l.252-2.366,7.539,7.505,3.869,3.851A3.853,3.853,0,0,0,1719.126-1101.945Zm3.726-1.873-4.82-4.8-8.356-8.318.228-2.146,9.811,8.1,1.69,1.394a.9.9,0,0,0,.569.206l-.181,1.7a.9.9,0,0,0,.175.635l2.267,3.035-.334.041C1723.592-1103.93,1723.229-1103.88,1722.852-1103.818Zm-15.071,3.81,2.1,2.854,4.5,6.111c-.274.472-.533.907-.776,1.309l-4.743-5.988-4.492-5.672.844-1.777Zm-5.985,4.039,3.464,5.315,4.4,6.748q-.627.714-1.41,1.508l-4.214-6.532-3.215-4.984Zm-1.883,3.985,2.994,4.64,4.014,6.223c-.235.217-.47.433-.723.655-.507.051-1.006.118-1.507.186l-3-5.351-2.463-4.388a.887.887,0,0,0-.273-.291A14.851,14.851,0,0,0,1699.913-1091.984Zm-2.057,3.221,2.673,4.764,2.249,4.008c-.811.145-1.607.319-2.4.5l-1.339-2.413-2.562-4.615a.883.883,0,0,0-.264-.289C1696.854-1087.513,1697.4-1088.168,1697.856-1088.763Zm-2.887,3.254,2.907,5.239.675,1.215c-.658.177-1.3.373-1.944.571-.1.032-.209.059-.311.091l-2.7-5.818C1694.089-1084.655,1694.547-1085.089,1694.969-1085.509Zm-2.789,2.533,2.39,5.161c-.485.169-.973.337-1.447.516l-2.3-4.584C1691.3-1082.253,1691.752-1082.618,1692.18-1082.976Zm-2.822,2.2,2.078,4.144c-.764.314-1.517.631-2.246.963l-1.416-3.7a.876.876,0,0,0-.123-.2C1688.253-1079.969,1688.81-1080.371,1689.358-1080.771Zm-3.219,2.189,1.411,3.689q-1.367.664-2.63,1.344l-1.192-3.56Q1684.994-1077.852,1686.139-1078.582Zm-4.008,2.394,1.182,3.532q-1.179.672-2.239,1.323l-1.076-3.721C1680.73-1075.432,1681.45-1075.811,1682.131-1076.188Zm-3.758,2.023,1.108,3.835c-.882.573-1.678,1.113-2.386,1.612l-.789-3.993a.792.792,0,0,0-.068-.164.521.521,0,0,0-.022-.054c.039-.025.072-.051.111-.075C1676.967-1073.4,1677.67-1073.784,1678.373-1074.165Zm-3.74,2.305.2,1.027.648,3.282c-1.14.855-1.838,1.432-2.043,1.606l-.4-2.281-.323-1.873a.9.9,0,0,0-.09-.227C1673.258-1070.845,1673.921-1071.357,1674.633-1071.86Zm76.327-32.148,7.706,11.646.223.337a.905.905,0,0,0,.319.289l-.822,1.864-.989-1.54-7.449-11.6.239-.542Zm-1.888,2.976,6.873,10.707,1.184,1.843a.872.872,0,0,0,.49.348l-.7,1.587a.9.9,0,0,0-.028.661l1.234,3.58c-.115-.021-.228-.043-.332-.064-.306-.058-.666-.12-1.044-.177l-3.127-6.039-5.422-10.471Zm-1.809,4.1,4.892,9.447,2.509,4.847a3.851,3.851,0,0,0-2.035.741l-2.109-4.364-3.955-8.182a.879.879,0,0,0-.262-.313Zm-1.7,4.572,3.483,7.2,2.38,4.924a14.806,14.806,0,0,1-1.925,2.6l-2.328-6.12-2.073-5.449a.869.869,0,0,0-.351-.413Zm-1.577,5.317,1.68,4.417,2.46,6.468c-.612.628-1.252,1.253-1.883,1.851l-2.354-6.988-.855-2.539Zm-2.745,3.544,1.126,3.344,2.422,7.193c-.4.366-.787.7-1.14,1.013l-2.69-7.152-2.548-6.772,1.345-1.434Zm-4.208-.9,2.42,6.43,2.756,7.326a18.541,18.541,0,0,1-2.5,2.026l-2.173-7.917-1.783-6.5Zm-2.73,2.912,1.678,6.117,2.131,7.769q-.815.489-1.8,1.006l-2.021-7.507-1.542-5.725Zm-3.008,3.22,1.436,5.331,1.925,7.151c-.731.34-1.506.679-2.358,1.017a.868.868,0,0,0,.057-.5l-1.308-6.411-1.006-4.928a.878.878,0,0,0-.173-.362A15.16,15.16,0,0,0,1731.3-1078.273Zm31.448,7.129c2.337-2.907,7.212-7.606,10.35-7.847a75.715,75.715,0,0,0-7.067,7.466c-3.7,4.4-5.979,6.177-7.1,6.878a4.116,4.116,0,0,1-.847.441.9.9,0,0,0-.738,1.042.9.9,0,0,0,.889.754.854.854,0,0,0,.152-.013c.331-.056,1.788-.475,4.829-3.393a57.839,57.839,0,0,0,4.2-4.547,70.736,70.736,0,0,1,7.483-7.8q.4.409.786.883a60.594,60.594,0,0,0-6.067,6.968.9.9,0,0,0,.153,1.269.906.906,0,0,0,.558.193.9.9,0,0,0,.712-.346,80.518,80.518,0,0,1,5.706-6.614,29.894,29.894,0,0,1,2.262,4.351l-1.915.259a.905.905,0,0,0-.5.242l-2.193,2.1-5.209,4.98-5.644,6.949.062-2.893a.9.9,0,0,0-.406-.774.908.908,0,0,0-.871-.07l-3.557,1.609a.653.653,0,0,0-.061.028l-8.665,3.92c-.081.041-8.076,4.157-25.865-.054-.049-.011-.093-.019-.143-.031-16.416-3.918-25.417,3.941-27.733,6.369-2.3-1.334-4.342-2.473-5.834-3.29l4.364-7.049c4.011-1.117,20.329-5.065,34.226.224a24.866,24.866,0,0,0,4.45,1.233l21.252-5.8A42.214,42.214,0,0,0,1762.743-1071.144Zm29.565,43.992-2.5,1.718-5.941,4.084-6.68,5.957.524-2.846a.911.911,0,0,0-.277-.83.9.9,0,0,0-.849-.206l-3.769,1.02h0l-9.24,2.5c-.086.031-8.642,2.816-25.524-4.187-.046-.02-.089-.034-.135-.054-15.578-6.486-25.721-.172-28.4,1.854-2.057-1.685-3.891-3.136-5.233-4.181l5.436-6.261c4.145-.459,20.881-1.75,33.747,5.693a24.832,24.832,0,0,0,4.2,1.928l21.9-2.325a42.119,42.119,0,0,0,9.1-6.258c2.772-2.5,8.314-6.364,11.473-6.094a76.027,76.027,0,0,0-8.17,6.24c-4.356,3.756-6.89,5.143-8.109,5.656a4.078,4.078,0,0,1-.909.3.9.9,0,0,0-.893.91.9.9,0,0,0,.9.9h.005c.336,0,1.842-.182,5.311-2.577a57.938,57.938,0,0,0,4.87-3.817,69.925,69.925,0,0,1,8.638-6.5q.33.467.63.992a60.647,60.647,0,0,0-7.1,5.909.9.9,0,0,0-.051,1.276.893.893,0,0,0,.664.292.9.9,0,0,0,.612-.24,80.3,80.3,0,0,1,6.691-5.617,30.029,30.029,0,0,1,1.538,4.656l-1.932-.049A.918.918,0,0,0,1792.308-1027.152Zm-60.252,18.007,5.861-8.9c.762.31,1.517.611,2.246.883l-5.069,8.45C1734.036-1008.91,1733.018-1009.059,1732.056-1009.145Zm-6.247.158-.222-.025,8.151-10.322a.9.9,0,0,0,.08-.157c.008-.017.018-.034.025-.051.043.013.083.021.127.034.719.228,1.466.515,2.214.8l-6.224,9.454A25.164,25.164,0,0,0,1725.809-1008.987Zm-51.535-2.218a1.1,1.1,0,0,0,.267.463l4.633,4.786.792.817c-.061.023-.116.049-.176.072a30.271,30.271,0,0,0-10.421,6.335,12.565,12.565,0,0,1-1.727-4.809,1.151,1.151,0,0,0-.124-.414c-2.043-3.842-4.546-10.1-3.718-12,.019-.041.067-.152.328-.253,1.948-.755,7.767,1.219,11.063,2.673a87.467,87.467,0,0,1,8.284,7.237c-.409.121-.816.243-1.212.37l-6.141-6.344a1.1,1.1,0,0,0-1.555-.026A1.1,1.1,0,0,0,1674.274-1011.205Zm2.131-4.166a1.051,1.051,0,0,0-.207-.121c-.952-.425-9.4-4.107-12.864-2.765a2.683,2.683,0,0,0-1.548,1.422c-.587,1.343-.315,3.422.3,5.578a47.206,47.206,0,0,0,3.4,8.159,15.738,15.738,0,0,0,2.372,5.995c-.065.078-.142.149-.2.227a19.81,19.81,0,0,0-1.524,2.16,31.623,31.623,0,0,1-2.808-4.321c-.021-.036-.043-.073-.067-.107-2.516-3.6-8.464-14.019-5.8-18.851,1.139-2.065,3.873-3.012,8.125-2.815,10.34.479,18.284,7.063,23.468,13.136-1.08.215-2.121.451-3.132.7A85.693,85.693,0,0,0,1676.405-1015.371Zm-17.8,46.586a.987.987,0,0,0,.5.553c.7.346,6.8,3.226,9.847,1.119.094.108.2.213.293.32a25.744,25.744,0,0,0,2.413,4.55,13.026,13.026,0,0,1-5.24.288c-17.474-1.973-25.425-22.1-25.917-23.389-.149-.761-1.459-8.078,2.5-11.169,3.192-2.493,9.314-1.708,17.707,2.271a23.2,23.2,0,0,1,3.77,3.017c-1.559,4.279-1.716,9.24-.389,14.857a20.377,20.377,0,0,0,1.574,4.336,22.574,22.574,0,0,0,2.039,3.336c-1.449.884-4.725-.014-6.971-.988-.254-.111-.508-.222-.731-.332a1.011,1.011,0,0,0-1.346.451A.981.981,0,0,0,1658.61-968.785Zm-14.629,14.12c-.022.1-.031.189-.05.286-.2.068-.394.141-.6.209-4.44,1.278-9.9,2.614-15.109,3.632a15.217,15.217,0,0,0-.914-2.356,115.732,115.732,0,0,0,17.813-4.612,10.084,10.084,0,0,0-1.037,2.419c-.02.075-.015.152-.031.228S1644-954.734,1643.981-954.665Zm-99.034-79.272a35.99,35.99,0,0,0-4.861,4.522c-3.146,1.159-6.31,2.376-9.51,3.717a2.743,2.743,0,0,0-1.043.775c-.238.177-1.741,1.139-6.32,1.46.736-.374,1.511-.743,2.275-1.082a12.448,12.448,0,0,0,1.584-.8A155.3,155.3,0,0,1,1544.947-1033.937Zm5.7-1.376a31.716,31.716,0,0,1,17.43-2.76,1.1,1.1,0,0,0,.127.008c4.395.037,16.329,1.22,18.725,6.19,1.024,2.125.213,4.9-2.411,8.255-11.634,14.866-35.221,11.492-36.706,11.262-.8-.262-8.46-2.911-9.191-8.093C1538.032-1024.64,1542.191-1029.779,1550.649-1035.313Zm21.041-24.363c.208-.063.413-.128.617-.194-.126.157-.259.315-.38.471C1571.849-1059.494,1571.769-1059.584,1571.69-1059.676Zm5.13-2.01a33.649,33.649,0,0,0,7.665-5.1,30.914,30.914,0,0,1,10.592-2.422,1.139,1.139,0,0,0,.131-.014c4.3-.721,16.207-1.578,19.628,3.036,1.507,2.031,1.273,5.073-.7,9.039-8.555,17.248-32.432,17.9-33.957,17.919-.847-.131-8.939-1.522-10.679-6.754C1568.213-1049.87,1570.745-1055.274,1576.82-1061.686Zm21.916-10.732c-.3.214-.59.432-.881.651-1.142.108-2.046.226-2.554.3a32.681,32.681,0,0,1,3.334-1.725A2.683,2.683,0,0,0,1598.736-1072.418Zm38.554,17.239c5.089.671,9.089,2.041,11.826,4a16.706,16.706,0,0,0-5.264,10.113,12.744,12.744,0,0,0-.209,1.542l-1.341,1.441a.226.226,0,0,0,.012.32.22.22,0,0,0,.154.06.233.233,0,0,0,.166-.072l.974-1.047a11.329,11.329,0,0,0,.408,3.293,51.733,51.733,0,0,1-13.364.236c-11.975-1.349-12.51-4.977-12.518-5.058a.433.433,0,0,0-.232-.34,8.651,8.651,0,0,1,.168-2.951,1.583,1.583,0,0,0,.037-.227,13.711,13.711,0,0,1,4.823-8.5c2.6-2.059,6.061-3.093,10.31-3.093A30.936,30.936,0,0,1,1637.29-1055.179Zm18.7,56.858a30.471,30.471,0,0,0-5.376-1.364c2.663-.783,5.468-1.484,8.442-2.067.528.935,1.021,1.751,1.42,2.385C1658.937-999.047,1657.447-998.7,1655.99-998.321Zm20.069,41.643a3.608,3.608,0,0,0-.769.461,11.807,11.807,0,0,1-1.218.815,22.05,22.05,0,0,0-6.844-1.2c-.312-.01-.629-.014-.956-.014a91,91,0,0,0-14.838,1.713,10.165,10.165,0,0,1-1.032-1.136,3.586,3.586,0,0,0-1.164-.992c2.116-2.334,5.854-4.048,10.3-4.581a26.569,26.569,0,0,0,6.649,1.633,16.6,16.6,0,0,0,5.055-.112A12.587,12.587,0,0,1,1676.059-956.678Zm-9.4,4.21a37.939,37.939,0,0,1-4.613.85,15.74,15.74,0,0,1-1.9.119,13.051,13.051,0,0,1-3.826-.564,75.969,75.969,0,0,1,8.989-.918C1665.755-952.8,1666.21-952.639,1666.662-952.468Zm-90.242-29.72a1,1,0,0,0-.378.005c-3.721.8-9.589,1.4-10.985.255-.031-.026-.112-.093-.135-.337-.169-1.82,2.886-6.242,4.9-8.667.977-.738,10.369-7.715,17.841-9.235,2.405-.49,4.1-.338,4.758.428a2.7,2.7,0,0,1,.208,2.312l-3.664,6.8a.961.961,0,0,0-.054.119,12.723,12.723,0,0,1-5.653,7.057,9.748,9.748,0,0,0-1.1-.068,10.252,10.252,0,0,0-5.079,1.408C1576.715-982.141,1576.473-982.178,1576.42-982.188Zm14.267-7.584,3.673-6.817a.983.983,0,0,0,.056-.123c.038-.1.926-2.572-.532-4.274-1.167-1.361-3.391-1.721-6.606-1.066-8.284,1.685-18.291,9.334-18.713,9.658a.993.993,0,0,0-.151.145c-.585.7-5.706,6.927-5.407,10.161a2.349,2.349,0,0,0,.827,1.644c.989.815,2.8,1.084,4.763,1.084a34.47,34.47,0,0,0,4.945-.421,17.129,17.129,0,0,1-7.27,1.3c-.716,0-1.424-.03-2.124-.074a10.128,10.128,0,0,0-2.487-.347c-.172,0-.328.042-.5.052l-.353-.046a10.145,10.145,0,0,1,.586-5.7c5.251-15.656,25.686-19.764,26.976-20.007.725-.018,7.826-.073,9.942,3.988,1.71,3.281-.217,8.733-5.575,15.767a24.011,24.011,0,0,1-4.251,3.433,12.658,12.658,0,0,0-2.708-1.432A15.211,15.211,0,0,0,1590.687-989.772Zm-40.13,8.44c-.326-.048-.655-.086-.987-.111a7.212,7.212,0,0,1-1.472-2.189c.809.635,1.632,1.236,2.47,1.8A2.755,2.755,0,0,0,1550.557-981.332Zm2.9-28.327c.63.021,1.284.037,1.985.037a56.2,56.2,0,0,0,7.851-.55,40.528,40.528,0,0,0-13.116,7.264c-.032.02-.062.041-.094.062a13.41,13.41,0,0,0-4.457-3.35A64.783,64.783,0,0,1,1553.457-1009.659Zm61.443-36.547a14.66,14.66,0,0,0-.377,1.861,12.458,12.458,0,0,0-.268,2.12q-4.6-.219-9.052-.189a10.463,10.463,0,0,0-.093-1.716,33.9,33.9,0,0,0,3.075-2.214Q1611.5-1046.343,1614.9-1046.206Zm21.894,21.613-10.651,14.281c-2.506,3.159-5.1,6.579-7.624,10.144-.957-.306-1.811-.522-2.43-.654a260.8,260.8,0,0,1,19.135-22.944,11.48,11.48,0,0,1,1.57-1.024C1636.8-1024.725,1636.8-1024.658,1636.794-1024.593Zm-6.38,35.938a2.722,2.722,0,0,0,2.187,1.259,17.168,17.168,0,0,1,5.736,1.2c.095.751.2,1.253.215,1.334a.945.945,0,0,0,.041.138c.048.132.213.574.5,1.246-.1.122-.218.23-.312.36-2.1.922-7.088,3.46-8.811,7.406-.028.063-.042.129-.068.193a5.776,5.776,0,0,0-.462,3.7c.021.147.026.294.057.441a12.66,12.66,0,0,0-1.059,4.028,6.188,6.188,0,0,1-1.211-1.825,2.718,2.718,0,0,0-1.934-1.561,12.123,12.123,0,0,1-4.833-2.012c.065-.126.137-.244.2-.372,2.069-4.171,2.214-7.505.429-9.909a9.343,9.343,0,0,0-5.188-3.118,6.691,6.691,0,0,1,.318-1.016l2.273,1.453a.887.887,0,0,0,.487.143.9.9,0,0,0,.761-.416.9.9,0,0,0-.274-1.248l-2.152-1.377-.194-.124a5.7,5.7,0,0,1,1.171-1.109l.094.059,5.009,3.142a.9.9,0,0,0,.48.138.9.9,0,0,0,.766-.424.9.9,0,0,0-.286-1.246l-4.128-2.59c.04-.011.069-.03.11-.041a.906.906,0,0,0,.659-1.1.9.9,0,0,0-1.1-.658,8.1,8.1,0,0,0-1.6.584l-3.353-2.1a5.742,5.742,0,0,1,.6-.146.9.9,0,0,0,.781-.949c1.893.553,4.182,1.507,5.12,2.8a2.7,2.7,0,0,0,2.343,1.115C1623.829-991.259,1628.664-991.418,1630.414-988.655ZM1618.052-964.9c-.013-.153-.028-.31-.046-.478.033-.658.084-1.343.156-2.06l.358-.086a18.225,18.225,0,0,0,3.747,1.6C1620.894-965.576,1619.485-965.232,1618.052-964.9Zm-3.549,1.616s-.822-.019-2.208-.147c.718-.512,1.418-1.067,2.1-1.655A14.941,14.941,0,0,1,1614.5-963.286Zm-14.712-24.41a2.686,2.686,0,0,0-1.262-2.569c2.425-4.644,2.958-8.422,1.489-11.236-.1-.194-.226-.364-.342-.544,2.225.412,4.7,1.315,5.164,2.131a2.823,2.823,0,0,0,2.495,1.373c.039,0,3.4-.12,5.351,2.034a2.694,2.694,0,0,0,1.363.78,7.259,7.259,0,0,0-1.082.417l-1.5-.939a.906.906,0,0,0-1.246.286.9.9,0,0,0,.286,1.246l.768.482a7.283,7.283,0,0,0-1.006,1.127l-1.506-.963a.9.9,0,0,0-1.248.274.9.9,0,0,0,.273,1.248l1.576,1.008a7.435,7.435,0,0,0-.582,2,.9.9,0,0,0,.788,1,.691.691,0,0,0,.111.007.905.905,0,0,0,.9-.791,6.571,6.571,0,0,1,.339-1.23l3.756,2.4a8.564,8.564,0,0,0-.537,1.607,41.012,41.012,0,0,0-12.024.1c-.016,0-.031,0-.046,0A6.969,6.969,0,0,1,1599.791-987.7Zm-23.9-21.432a2.7,2.7,0,0,0-.149-.531c.378.067.843.169,1.406.323l9.6,3.115a50.147,50.147,0,0,0-6.121,1.838C1578.374-1006.182,1576.16-1008.417,1575.892-1009.128Zm33.833,2.708,3.538-.785-2.7,3.617a15.362,15.362,0,0,0-2.028-.327c-.133-.132-.29-.244-.434-.368Q1608.909-1005.355,1609.725-1006.42Zm-10.135-1.3a18.851,18.851,0,0,0-3.349-1.4,27.578,27.578,0,0,1,2.687-1.622c8.582-4.434,18.678-7.689,26.012-9.722-.269.308-.553.64-.833.964A82.361,82.361,0,0,0,1599.59-1007.716Zm-5.872-6.226a39.6,39.6,0,0,0-3.991,2.985l-1.5-.486C1590.017-1012.326,1591.856-1013.159,1593.718-1013.942Zm4.039-13.15-5.559,1.234c.685-.3,1.367-.632,2.04-1.012C1595.416-1026.953,1596.592-1027.032,1597.757-1027.092Zm-13.455,11.538a32.377,32.377,0,0,0-3.068,1.844l-.853-.276c2.2-1.059,4.458-2.047,6.735-2.958Q1585.693-1016.269,1584.3-1015.554Zm31.28,25.843-3.412-2.182-.369-.236a5.161,5.161,0,0,1,1.093-1.092l.378.237,3.371,2.115A7.527,7.527,0,0,0,1615.582-989.711Zm-14.428-42.958a19.879,19.879,0,0,0,2.711-4.313q5.621-.079,11.508.244a11.19,11.19,0,0,0,1.161,1.88,12.65,12.65,0,0,0,2.652,2.534C1613.353-1032.721,1607.345-1032.859,1601.154-1032.669Zm-6.04.878a19.9,19.9,0,0,1-5.69,3.15,6.889,6.889,0,0,0-.286-3.583,15.414,15.414,0,0,0,3.544-2.667,34.427,34.427,0,0,0,4.359-5.3,43.761,43.761,0,0,0,4.564-1.958C1601.387-1038.841,1599.022-1034.856,1595.114-1031.791Zm-10.624-5.147c-.211-.11-.437-.2-.656-.308.336-.033.686-.07,1.058-.113Zm-25.312,35.3a46.34,46.34,0,0,0-2.842,5.28c-1.01-.838-1.923-1.664-2.7-2.408A46.84,46.84,0,0,1,1559.178-1001.642Zm11.593-5.787a8.756,8.756,0,0,0,1.2,2.12c-1.081,1.28-2.113,2.626-3.078,4.032-.7.728-1.389,1.472-2.067,2.247a33.61,33.61,0,0,0-4.635,6.7c-.458-.243-.913-.506-1.364-.781A43.87,43.87,0,0,1,1570.771-1007.429Zm22.7,31.328a19.133,19.133,0,0,0-3.386-4.038,27.828,27.828,0,0,0,2.9-2.265,27.071,27.071,0,0,1,9.266-2.119,1.133,1.133,0,0,0,.115-.012c3.76-.63,14.177-1.38,17.169,2.656,1.318,1.777,1.113,4.437-.608,7.907a24.055,24.055,0,0,1-8.291,9.275c-1.56-4.032-4.814-8.3-10.582-8.3a13.008,13.008,0,0,0-4.111.741,13.267,13.267,0,0,0-2.005-1.5A3.579,3.579,0,0,0,1593.474-976.1Zm6.586,6.72c5.317,0,7.264,5.757,7.834,8.078a44.267,44.267,0,0,1-8.891-7.432c-.1-.147-.224-.32-.357-.5A8.358,8.358,0,0,1,1600.06-969.381Zm11.608,9.527c.368.036.709.065,1.01.088.019.225.039.443.059.651q-.566-.15-1.139-.358A3.444,3.444,0,0,0,1611.668-959.854Zm18.2-.567a14.25,14.25,0,0,0,2.881.507c.125.082.279.156.416.236a93.38,93.38,0,0,1-10.451,1.958,9.788,9.788,0,0,0-1.471-.633C1623.871-958.867,1626.75-959.548,1629.87-960.421Zm15.284-8.128c.066,1.121-2.648,2.971-5.022,3.813a2.941,2.941,0,0,0-.4.18c-2.387,1.3-3.914.2-4.214-.056a2.7,2.7,0,0,0-1.616-.694l-.091-.074c.083-.166.187-.362.273-.523a7.294,7.294,0,0,0,.888-6.072c-.476-1.45-.485-1.478,4.638-4.981.621-.423,1.31-.9,2.038-1.4a47.8,47.8,0,0,0,5.053,7.24A2.683,2.683,0,0,0,1645.154-968.549Zm-6.739-23.378,0,0a23.78,23.78,0,0,0-4.29-.8c-.058-.065-.124-.114-.183-.177,1.824-.969,3.755-1.914,5.805-2.819A11.471,11.471,0,0,0,1638.415-991.927Zm-3.437-8.235,4.116-5.52a91,91,0,0,1,16.131-5.035c.039.147.072.294.114.441.225.792.493,1.581.787,2.357A96.013,96.013,0,0,0,1634.978-1000.162Zm20.549-18.893a6.92,6.92,0,0,0-.365.8c-2.8.492-5.468,1.083-8,1.754l2.73-3.661c1.437-.287,2.924-.537,4.437-.769.722.2,1.426.407,2.136.611A6.51,6.51,0,0,0,1655.527-1019.055Zm-28.445,20.408q-.929,1.012-1.781,2.026c-.142-.011-.3-.027-.429-.034a10.976,10.976,0,0,0-1.361-1.113,258.177,258.177,0,0,1,20.95-25.566c.3.064.595.127.89.192Zm5.12-33.646c-7.727-.244-11.228-2.731-12.806-4.774a7.7,7.7,0,0,1-.6-.9c1.627,1.3,4.939,2.8,11.753,3.568a53,53,0,0,0,5.921.331,52.109,52.109,0,0,0,7.825-.587,10.8,10.8,0,0,0,.636,1.384A47.377,47.377,0,0,1,1632.2-1032.293Zm-14.91-19.216c-1.326-.072-2.646-.136-3.954-.176a28.663,28.663,0,0,0,2.168-3.365q2.353.07,4.751.213A16.183,16.183,0,0,0,1617.292-1051.509Zm-47.708,9.7a12.511,12.511,0,0,0,2.122,1.735c-1.787-.154-3.081-.182-3.418-.186-1.1-.134-2.159-.2-3.191-.227.181-.112.371-.224.548-.337Q1567.58-1041.336,1569.584-1041.812Zm-30.183,27.063a18.2,18.2,0,0,0,4.157,2.942c-.936.686-1.8,1.387-2.6,2.1a28.723,28.723,0,0,0-5.737,4.455,26.086,26.086,0,0,0-6.38-1.207c.1-.2.166-.4.289-.6,1.722-2.843,5.415-5.4,10.247-7.673Zm1.894,12.088a2.574,2.574,0,0,1,1.557-.522c2.979,0,6.191,4.859,6.191,4.859s5.548,6.288,12.084,9.5a25.025,25.025,0,0,0-1.553,3.621,16.6,16.6,0,0,0-.82,3.7,36.291,36.291,0,0,1-13.439-9.887,9.251,9.251,0,0,0,.323-2.372,9.184,9.184,0,0,0-.1-1.271c0-.027-.017-.05-.022-.076,0-.041.007-.08,0-.121a11.31,11.31,0,0,0-4.6-7.11A4.392,4.392,0,0,1,1541.3-1002.661Zm4.048,26.627c.538-1.393,1.871-1.834,3.344-1.834a16.288,16.288,0,0,1,5.521,1.322,49.507,49.507,0,0,0,12.064,1.686c4.051,0,8.252-.717,11.082-3.087a7.415,7.415,0,0,1,4.8-1.958c3.724,0,6.6,3.392,7.719,4.926a6.207,6.207,0,0,0-3.621,1.219,7.135,7.135,0,0,0-2.263,2.631,50.672,50.672,0,0,1-18.813,4.031,31.633,31.633,0,0,1-16.68-4.47S1543.875-972.23,1545.343-976.034Zm19.831,12.551a52.655,52.655,0,0,0,17.7-3.336c.259.045.518.09.779.129a8.743,8.743,0,0,0,2.038,3.462,33.6,33.6,0,0,0,4.112,6.182c-.96.046-1.93.079-2.92.079-7.645,0-16.025-1.509-22.709-6.546C1564.5-963.505,1564.835-963.483,1565.174-963.483Zm23.473-1.9s-3.538-3.044-.254-5.461a2.574,2.574,0,0,1,1.557-.522c2.979,0,6.191,4.859,6.191,4.859s10.005,11.353,18.976,11.353a9.913,9.913,0,0,0,1.29-.082,10.444,10.444,0,0,1,1.33-.089c7.915,0,7.651,10.223,7.651,10.223S1598.344-945.642,1588.647-965.387Zm58.861,11.515a15.85,15.85,0,0,0,12.636,5.989,19.237,19.237,0,0,0,2.344-.146c9.6-1.177,14.476-4.894,15.071-5.373a5.519,5.519,0,0,1,.065.773c0,5.059-6.777,9.161-15.136,9.161s-15.135-4.1-15.135-9.161A5.637,5.637,0,0,1,1647.508-953.872Zm36.264-62.047a31.724,31.724,0,0,0-17.939-7.075,187.663,187.663,0,0,0-23.013-6.165,27.547,27.547,0,0,0,4.581-1.054c2.189,1.915,5.83,3.733,11.9,3.94q1.3.045,2.512.046c1.256,0,2.411-.051,3.521-.124a227.537,227.537,0,0,1,38.143,16.973c-1.991.109-3.9.26-5.736.446C1693.455-1011.3,1688.782-1013.652,1683.772-1015.919Zm75.962-34.475.238-7.231,1.791-.81-.086,4.07-.241,3.537-.246,3.616c-.507.4-1.039.808-1.6,1.207Zm18.774-19.179,1.366,7.046a11.071,11.071,0,0,0-1.434.43l-1.248-6.945.429-.411Zm-2.884,2.028,1.115,6.2a20.7,20.7,0,0,0-2.166,1.3l-.511-6.011Zm-3.239,3.093.482,5.665c-.631.505-1.225,1.024-1.785,1.538l-.3-5.17a.946.946,0,0,0-.117-.4Zm-3.321,3.572.3,5.3c-.934.961-1.648,1.78-2.084,2.3l.142-4.857a.879.879,0,0,0-.164-.518Zm-3.632,9.032-.021.738c-.6.641-1.373,1.419-2.3,2.259l.167-2.448.182-2.676,2.108-2.6Zm-7.523,1.92-.17,5.146a29.112,29.112,0,0,1-2.919,1.569l.769-6.123.841-6.687,1.7-.771Zm-4.2,1.072-.809,6.439c-.683.25-1.382.472-2.1.658l.858-6.574.768-5.88,2.072-.937Zm-3.936,1-.847,6.491a19.012,19.012,0,0,1-2.393.232l1.2-6.2.958-4.94a.888.888,0,0,0-.02-.4,15.188,15.188,0,0,0,1.814-.656Zm-3.975,1.015-1.083,5.583a.873.873,0,0,0,0,.1,18.2,18.2,0,0,1-2.353-.316l.941-4.732,1.03-5.179a.911.911,0,0,0-.014-.39c.946-.123,1.784-.271,2.518-.43Zm-4.435,1.131-.754,3.794c-.4-.123-.809-.255-1.217-.41-.383-.146-.769-.278-1.154-.412l.645-2.339,1.766-6.4c.66-.023,1.29-.058,1.882-.106Zm-4.5,1.148-.349,1.265c-.461-.138-.924-.268-1.386-.391l.111-.459,1.784-7.353c.6.023,1.184.04,1.742.042Zm-3.493.443q-1.362-.306-2.721-.532l2.421-6.9a.9.9,0,0,0,.032-.23c.723.078,1.407.131,2.083.18Zm-4.543-.8q-1.6-.207-3.179-.32l2.877-7.2q1.445.252,2.79.435Zm-5.084-.425q-1.488-.06-2.933-.05l3.538-7.892c.8.184,1.6.362,2.362.514Zm-4.933-.006c-1.261.046-2.489.121-3.667.226l4.875-8.761a.848.848,0,0,0,.054-.168c.005-.018.012-.035.017-.052.043.006.083.007.126.013.749.108,1.534.272,2.319.436Zm-1.129-8.051-4.734,8.506c-1.078.128-2.111.271-3.082.426l4.766-8.1.963-1.637a.888.888,0,0,0,.074-.214c.813.005,1.65.04,2.517.113Zm-5.548,1.513-4.606,7.829c-.927.178-1.77.358-2.534.532q-.4-.256-.794-.51l4-6.779,1.8-3.05c.011-.019.011-.041.021-.06a28.157,28.157,0,0,1,3.564-.439Zm-6.432,1.755-3.03,5.128q-.971-.606-1.93-1.191l2.182-3.18,1.756-2.558a.886.886,0,0,0,.141-.409,25.168,25.168,0,0,1,2.78-1Zm-5.475,1.493-1.035,1.507c-.429-.257-.85-.506-1.268-.753.062-.06.112-.11.181-.175a22,22,0,0,1,3.553-2.665Zm-4.643,5.676c.76.451,1.536.916,2.321,1.394-.663.638-1.315,1.234-1.946,1.79-.808-.378-1.64-.753-2.47-1.129C1694.176-1041.549,1694.877-1042.237,1695.582-1042.961Zm-.7,8.679-1.61,2.6c-3.921-1.91-8.073-3.779-12.469-5.553a16.432,16.432,0,0,0,.188-2.346c.02-.153.04-.416.052-.723C1686-1038.33,1690.6-1036.315,1694.881-1034.282Zm2.917,11.463a2.716,2.716,0,0,0-.145,1.182,2.705,2.705,0,0,0,1.067,1.882c.055.041,1.838,1.387,4.432,3.453a197.662,197.662,0,0,0-27.186-13.043,11.815,11.815,0,0,0,1.578-1.255,10.6,10.6,0,0,0,.869-.957C1685.585-1028.708,1692.024-1025.77,1697.8-1022.819Zm29.69,1.959-1.855,2.237-6.969,8.406c-.7-.646-1.4-1.287-2.116-1.924l5.035-6.052,2.265-2.722a.836.836,0,0,0,.055-.1A28.366,28.366,0,0,1,1727.488-1020.86Zm-8.484,2.941-3.81,4.579q-.862-.756-1.717-1.486l2.662-2.789,2.143-2.246a.868.868,0,0,0,.215-.439,24.376,24.376,0,0,1,2.943-.548Zm-5.642.6L1712.1-1016c-.386-.325-.765-.641-1.142-.955l.185-.133a21.245,21.245,0,0,1,4.05-2.153Zm14.846-1.576,1.213-1.463a.847.847,0,0,0,.116-.215c.8.138,1.619.309,2.464.523l-.648.821-7.892,9.994c-1-.088-2.029-.155-3.089-.208Zm40.171-17.035,1.793-.811-.088,4.07-.2,2.921c-.547.339-1.129.68-1.744,1.017Zm21.226-7.584c.277.986.487,1.836.618,2.455l.006.014h-.145Zm-2.691-4.365,1.351,6.959a13.409,13.409,0,0,0-1.453.319l-1.213-6.748.429-.41Zm-2.883,2.028,1.05,5.844c-.732.288-1.454.614-2.158.974l-.453-5.329Zm-3.238,3.091.4,4.691c-.624.373-1.221.751-1.782,1.13l-.217-3.786a.964.964,0,0,0-.115-.4Zm-3.322,3.574.2,3.481c-.783.587-1.429,1.11-1.9,1.508l.066-2.251a.878.878,0,0,0-.164-.517Zm-3.56,6.584c-.534.434-1.254.99-2.129,1.6l.088-1.282,2.108-2.6Zm-7.6,4.367-.015.444c-.77.366-1.576.714-2.414,1.031l.111-.883.841-6.686,1.7-.771Zm-4.2,1.072-.132,1.047c-.67.2-1.355.379-2.054.527l.138-1.051.767-5.879,2.072-.937Zm-3.935,1-.115.884q-1,.126-2.025.157l.1-.52.958-4.94a.9.9,0,0,0-.02-.4,15.258,15.258,0,0,0,1.816-.656Zm-3.977,1.012a18.451,18.451,0,0,1-2.307-.3l.842-4.24a.892.892,0,0,0-.013-.389c.946-.124,1.784-.272,2.517-.43Zm-4.066-.722a18.1,18.1,0,0,1-1.962-.727l.879-3.185c.659-.024,1.289-.059,1.882-.107Zm-3.616-1.535c-.113-.063-.226-.115-.339-.18-.376-.217-.757-.421-1.138-.626l.386-1.591c.6.023,1.183.04,1.741.043Zm-3.134-1.651c-.63-.3-1.263-.6-1.9-.869a.828.828,0,0,0,.022-.155c.724.077,1.409.131,2.085.18Zm42.108-20.455a.9.9,0,0,0-.5.242l-2.193,2.1-5.209,4.98-5.643,6.947.062-2.892a.9.9,0,0,0-.406-.773.906.906,0,0,0-.87-.07l-3.562,1.611c-.021.007-.038.018-.057.026l-8.665,3.92c-.079.041-8.083,4.159-25.866-.054-.049-.011-.092-.019-.141-.031a35.177,35.177,0,0,0-12.424-.855,69.445,69.445,0,0,0-12.081.541,2.716,2.716,0,0,0-1.633.9l-3.88,4.47c-1.359-.771-2.575-1.446-3.549-1.979l4.364-7.051c4.011-1.119,20.33-5.065,34.222.224a24.863,24.863,0,0,0,4.455,1.234l21.253-5.8a42.111,42.111,0,0,0,7.981-7.632c2.337-2.908,7.214-7.61,10.352-7.85a75.928,75.928,0,0,0-7.069,7.469c-3.7,4.4-5.975,6.175-7.1,6.877a4.186,4.186,0,0,1-.849.442.9.9,0,0,0-.739,1.042.9.9,0,0,0,.89.754.864.864,0,0,0,.152-.013c.331-.056,1.786-.475,4.827-3.393a58.07,58.07,0,0,0,4.2-4.548,70.937,70.937,0,0,1,7.482-7.8q.4.409.786.883a60.8,60.8,0,0,0-6.066,6.968.9.9,0,0,0,.153,1.269.907.907,0,0,0,.558.193.9.9,0,0,0,.711-.346,80.835,80.835,0,0,1,5.707-6.614,30.045,30.045,0,0,1,2.263,4.351Zm-3.811-13.185-.487-2.513c.278.987.487,1.837.619,2.456.005.021.02.039.025.06C1781.789-1062.694,1781.737-1062.7,1781.684-1062.7Zm-53.331-13.137,1.093,5.351,1.137,5.572a.893.893,0,0,0,.463.6c-.145.053-.287.106-.435.159q-1.211-.447-2.433-.815l-.793-3.977-1.032-5.179a.9.9,0,0,0-.16-.355C1727.019-1074.949,1727.736-1075.406,1728.353-1075.833Zm-3.742,2.219,1.171,5.876.444,2.231q-1.237-.313-2.476-.556l-.018-.14-.819-6.592C1723.513-1073.069,1724.082-1073.343,1724.611-1073.614Zm-3.427,1.561.7,5.66q-.792-.126-1.58-.227l-.75-4.805C1720.12-1071.633,1720.667-1071.842,1721.184-1072.053Zm-3.362,1.24.623,3.988c-.8-.075-1.6-.137-2.4-.178l-.165-2.954a.874.874,0,0,0-.057-.223C1716.525-1070.386,1717.178-1070.6,1717.822-1070.813Zm-3.733,1.1.146,2.639c-.971-.021-1.926-.018-2.865,0l-.026-1.975Q1712.775-1069.362,1714.089-1069.709Zm-4.548,1.057.022,1.647c-.832.04-1.643.1-2.437.163l.039-1.381C1707.977-1068.36,1708.778-1068.5,1709.541-1068.652Zm-4.229,1.98c-.852.092-1.672.2-2.464.308l.087-.755a.872.872,0,0,0-.015-.177c0-.019,0-.038-.005-.057.045-.012.083-.026.127-.037.731-.185,1.517-.333,2.3-.482Zm-4.318.593q-1.208.2-2.279.413l.008-.058a.9.9,0,0,0-.014-.243c.753-.3,1.539-.588,2.37-.85Zm-13.831,8.992-2.112,3.412a21.482,21.482,0,0,1,2.154-3.614Zm1.179,9.989c.687.379,1.469.815,2.328,1.3-.92.9-1.826,1.735-2.686,2.482-1.149-.485-2.326-.967-3.514-1.448a11.274,11.274,0,0,1,1.729-2.667C1686.905-1047.326,1687.621-1047.214,1688.342-1047.1Zm-8.913.353-.163-.063c-.143-.231-.267-.46-.433-.692a12.912,12.912,0,0,0-.851-1.027c.688.081,1.426.17,2.209.269A15.4,15.4,0,0,0,1679.429-1046.745Zm-8.345-22.209.5,2.864.6,3.495-1.232,7.572-.349.048-1.326-7.76-.6-3.489a.86.86,0,0,0-.043-.11A28.261,28.261,0,0,1,1671.084-1068.954Zm-3.919,4.6.642,3.756,1,5.871q-1.134.164-2.245.339l-.39-3.833-.314-3.09a.881.881,0,0,0-.194-.448A24.448,24.448,0,0,1,1667.165-1064.352Zm-2.84,5.8.269,2.636.131,1.294c-.15-.023-.287-.056-.439-.077-.168-.024-.326-.031-.492-.053-.126-.016-.247-.025-.372-.039A21.7,21.7,0,0,1,1664.325-1058.552Zm-.551,7.433c5.872.838,9.932,2.743,12.073,5.661a7.7,7.7,0,0,1,1.557,5.418,1.89,1.89,0,0,0-.03.327c0,2.86-.766,4.991-2.342,6.514-2.625,2.535-7.588,3.589-15.606,3.314-5.014-.171-8.707-1.594-10.681-4.114a7.657,7.657,0,0,1-1.336-6.418c.014-.067.025-.142.032-.211a13.053,13.053,0,0,1,4.47-8.189,13.218,13.218,0,0,1,8.413-2.562A24.411,24.411,0,0,1,1663.774-1051.119Zm-19.726-6.339c-1.121-.328-2.3-.621-3.558-.861,1.4-.123,2.829-.261,4.256-.413C1644.466-1058.236,1644.233-1057.809,1644.048-1057.458Zm-10.139-16.1,6.82,9.734c.011.016.029.021.04.035q-1.005.091-1.995.172l-7.349-7.293a.882.882,0,0,0-.218-.145Q1632.355-1072.225,1633.909-1073.562Zm-3.878,3.751a.842.842,0,0,0,.12.178l6.245,6.2c-1.642.122-3.195.224-4.633.311l-3.877-3.138a.909.909,0,0,0-.287-.15A17.49,17.49,0,0,1,1630.031-1069.811Zm-3.2,6.952a2.932,2.932,0,0,1-.093-.611,4.659,4.659,0,0,1,.175-1.252l2.166,1.752C1628.243-1062.926,1627.5-1062.89,1626.831-1062.859Zm-13.405-7.683c-.194.074-.391.145-.584.221a16.351,16.351,0,0,0-2.477-.827,45.983,45.983,0,0,1,5.151-2.307C1614.745-1072.443,1614.034-1071.46,1613.426-1070.542Zm3.4-9.128a41.41,41.41,0,0,1,6.724-2.29c-.443.384-.893.766-1.312,1.15A37.368,37.368,0,0,0,1616.822-1079.67Zm-32.625,10.1a31.7,31.7,0,0,1-15.508,8.422,1.237,1.237,0,0,0-.122.034c-4.155,1.434-15.8,4.3-19.718.418-1.675-1.66-1.837-4.549-.483-8.585,6-17.9,29.363-22.595,30.839-22.873.829-.02,8.945-.082,11.365,4.56C1592.525-1083.847,1590.321-1077.615,1584.2-1069.574Zm-28.5,13.021a48.067,48.067,0,0,0,13.529-2.465c.024-.006.046-.013.07-.018a14.2,14.2,0,0,1,1.284,1.482c-3.237,4.711-4.306,8.822-3.155,12.27.041.125.1.235.149.356a40.6,40.6,0,0,1-7.335,4.643,33.582,33.582,0,0,0-8.945,2.259,30.95,30.95,0,0,1-10.777-1.262.9.9,0,0,0-.128-.03c-4.293-.757-15.8-3.925-17.488-9.416-.741-2.418.494-5.207,3.673-8.288,5.466-5.3,12.32-7.345,18.7-7.86a7.422,7.422,0,0,0,2.029,5.744C1549.261-1057.2,1552.4-1056.553,1555.694-1056.553Zm-32.119,41.351a12.79,12.79,0,0,0,1.58-.8c2.967-1.681,6.745-3.664,11.241-5.729a8.063,8.063,0,0,0,.051,1.593c.031.217.093.419.141.628q-3.936,1.484-7.925,3.153a2.735,2.735,0,0,0-1.044.775c-.238.176-1.739,1.139-6.32,1.462C1522.035-1014.495,1522.81-1014.864,1523.575-1015.2Zm16.882,17.4a3.566,3.566,0,0,0-.768.46,11.857,11.857,0,0,1-1.218.815,22.025,22.025,0,0,0-6.845-1.2q-.467-.015-.955-.015a91.205,91.205,0,0,0-14.838,1.713,10.105,10.105,0,0,1-1.033-1.136,3.605,3.605,0,0,0-1.163-.992c2.568-2.834,7.53-4.759,13.25-4.759C1532.843-1002.918,1537.987-1000.834,1540.457-997.806Zm-14.634,5.1c-.43.036-.864.081-1.28.081a13.057,13.057,0,0,1-3.827-.565c1.421-.218,2.92-.424,4.412-.586A12.6,12.6,0,0,0,1525.823-992.708ZM1511.906-995a15.852,15.852,0,0,0,12.637,5.988,19.259,19.259,0,0,0,2.344-.146c9.6-1.176,14.476-4.893,15.071-5.373a5.683,5.683,0,0,1,.064.773c0,5.06-6.776,9.161-15.135,9.161s-15.136-4.1-15.136-9.161A5.68,5.68,0,0,1,1511.906-995Zm24.812,12.161a14.882,14.882,0,0,0,2.881,1.827,9.09,9.09,0,0,0,3.783,1.071,4.859,4.859,0,0,0,.495-.039l.014.022a6.4,6.4,0,0,0-1.921,2.622,6.449,6.449,0,0,0,.3,5.8,7.823,7.823,0,0,0,4.888,3.384,33.91,33.91,0,0,0,10.991,4.04c6.7,7.124,16.34,10.762,28.727,10.762q1.123,0,2.222-.039a9.76,9.76,0,0,0,7.322,3.471,4.386,4.386,0,0,0,.531,2.031,4.993,4.993,0,0,0,.753,1.006c-13.85-2.761-26.129-6.354-35.383-10.463-23.245-10.323-30.176-19.146-32.221-23.829A24.637,24.637,0,0,0,1536.718-982.839ZM1629-945.012c0-.029,0-.08,0-.126,6.731-1.3,12.953-3,15.531-3.738,1.512,3.468,5.089,6.262,9.8,7.779-8.836-.085-17.736-.57-26.445-1.4A3.6,3.6,0,0,0,1629-945.012Zm51.427-3.832c1.164.1,2.35.168,3.577.168a49.63,49.63,0,0,0,11.227-1.334,70.841,70.841,0,0,0,7.23.405c10.232,0,14.467-2.7,15.466-3.469,1.641-.887,13.119-7.287,21-16.489a12.234,12.234,0,0,0,5.061,4.09,132.291,132.291,0,0,1-38.877,19.427,189.531,189.531,0,0,1-33.35,4.564C1675.905-943.058,1679.033-945.67,1680.43-948.844Zm63.162-23.582a9.632,9.632,0,0,0,2.762,1.223,1.309,1.309,0,0,1-.43.7A5.581,5.581,0,0,1,1743.592-972.426Zm15.949-5.944a17.12,17.12,0,0,1-10.052,3.965,6.252,6.252,0,0,1-5.12-2.125,4.156,4.156,0,0,1-.344-.573c.044-.09.085-.182.128-.272a12.648,12.648,0,0,0,2.786.3,14.108,14.108,0,0,0,10.17-4.392,35.278,35.278,0,0,0,3.345-3.865c.125-.047,2.073-.76,5.319-1.83A17.105,17.105,0,0,1,1759.541-978.37Zm-5.624-5.07q.393-.383.787-.752c-.056.058-.1.111-.155.169C1754.343-983.816,1754.13-983.628,1753.917-983.44Zm-7.571,2.722c-.317-.018-.609-.045-.843-.08a19.325,19.325,0,0,0,.883-6.68c.028-.035.048-.072.076-.106,1.908.447,3.72.829,5.353,1.149C1749.8-984.509,1747.846-982.4,1746.346-980.718Zm-30.267,24.536a2.168,2.168,0,0,0-.313.21c-.055.044-5.847,4.528-23.755,1.928a25.813,25.813,0,0,1-13.664-5.893q1.611.824,3.365,1.521a44.564,44.564,0,0,0,16.39,3.109,39.247,39.247,0,0,0,21.474-6.034c7.975-5.248,17.955-14.006,23-22.775C1740.094-969.154,1716.349-956.327,1716.079-956.182Zm.515-9.689c-8.906,5.867-21.811,6.813-32.88,2.417-7.715-3.066-12.944-8.227-14.346-14.16-1.574-6.663-.76-11.844,2.49-15.839,6.291-7.734,21.793-11.3,46.155-10.665,12.93.35,20.8,3.171,22.158,7.941C1742.363-988.485,1729.64-974.458,1716.594-965.871Zm25.307-50.679q1.386.48,2.685.876l-4.484,8.246c-1.089-.353-2.134-.644-3.142-.885Zm13.594,8.52,1.844-4.948a.888.888,0,0,0,.049-.386c.953.03,1.8.018,2.553-.021l-1.883,5.125-1.962,5.337a.9.9,0,0,0,.075.757q-1.258-.258-2.635-.61Zm2.3,5.732,2.257-6.14,1.735-4.722a.89.89,0,0,0,.044-.4,15.2,15.2,0,0,0,1.894-.357l-1.58,5.288-2.119,7.095c-.8-.1-1.636-.214-2.537-.374A.887.887,0,0,0,1757.794-1002.3Zm6.291-6.5,1.7-5.68,2.2-.594-1.787,6.086-2.269,7.729c-.634-.009-1.32-.038-2.061-.092Zm4.039-.361,1.9-6.467,1.809-.489-1.321,6.742-1.505,7.682a18.485,18.485,0,0,1-3.194.409Zm4.259-.382,1.391-7.1,1.9-.514-.739,4.016-.8,3.442-1.72,7.392c-.536.1-1.038.185-1.5.262Zm3.648-.326.607-2.612,2.5-2.228-.892,4.642-1.306,6.8c-.85.212-1.724.408-2.575.584Zm4.084-.366,1.1-5.725a.885.885,0,0,0-.08-.537l2.136-1.907-.825,7.96-.564,5.439a14.8,14.8,0,0,1-3,1.2Zm4.165-.373.938-9.04a.885.885,0,0,0-.06-.4l1.962-1.346-.8,10.608-.413,5.44a3.847,3.847,0,0,0-2.122-.436Zm3.863-.346.891-11.758,1.777-1.22.221,12.719.038,2.191a.892.892,0,0,0,.223.561l-1.42.975a.9.9,0,0,0-.369.545l-.833,3.7c-.087-.077-.171-.155-.247-.226-.229-.21-.5-.454-.795-.7Zm4.726,1.41-.031-1.83-.24-13.785.492-.337.893.023.434,13.957.013.4a.875.875,0,0,0,.126.41Zm3.347-2.3-.277-8.908c.118,1.025.19,1.9.221,2.539a2.71,2.71,0,0,0,.229.969l1.8,4.048Zm-24.194-72.458a13.6,13.6,0,0,0-4.877,1.934,30.665,30.665,0,0,0-10.809,7.451c-3.3,3.4-6.243,6.614-8.727,9.421a20.3,20.3,0,0,1-14.157,2.225c7.541-3.065,10.3-6.355,10.378-6.474.117-.1,1.2-1,2.6-2.275l.006-.005c1.036-.944,2.237-2.082,3.364-3.266l.006-.006a18.548,18.548,0,0,0,3.459-4.576c.559-1.3,2.226-1.1,4.191-.722,1.145.223,1.97.376,2.489-.222a1.185,1.185,0,0,0,.187-1.218l-1.416-4.107,3.792-8.593,4.543,3.107Zm-15.4-14.676a2.754,2.754,0,0,0,.706.705l3.657,2.5-.964,2.185-4.918-7.433C1755.744-1100.21,1756.267-1099.5,1756.626-1098.977Zm-14.275-11.661a75.958,75.958,0,0,0-3.669,9.6c-1.73,5.483-3.158,7.995-3.925,9.071a4.113,4.113,0,0,1-.612.73.906.906,0,0,0-.286,1.245.9.9,0,0,0,.767.425.888.888,0,0,0,.478-.138c.286-.177,1.472-1.122,3.165-4.983a57.7,57.7,0,0,0,2.136-5.807,70.967,70.967,0,0,1,3.924-10.075q.531.225,1.067.517a60.456,60.456,0,0,0-2.937,8.759.9.9,0,0,0,.626,1.114.9.9,0,0,0,.244.033.9.9,0,0,0,.87-.66,80.316,80.316,0,0,1,2.739-8.3,29.916,29.916,0,0,1,3.757,3.153l-1.671.974a.891.891,0,0,0-.371.415l-1.223,2.777-1.093,2.478v0l-1.815,4.117-2.551,8.578-1.052-2.7a.9.9,0,0,0-.671-.56.9.9,0,0,0-.829.27l-9.224,9.84c-.055.069-5.767,6.918-23.91,9.85-.051.008-.1.018-.145.026-16.663,2.666-21.97,13.369-23.183,16.5-2.636-.352-4.958-.623-6.649-.806l1.333-8.186c3.271-2.569,16.8-12.459,31.7-12.893a24.777,24.777,0,0,0,4.586-.567l17.407-13.486a42.158,42.158,0,0,0,4.457-10.11C1736.841-1103.005,1739.546-1109.215,1742.351-1110.638Zm-6.934-.641a29.453,29.453,0,0,0-2.546,4.415,30.645,30.645,0,0,0-8.086,10.44c-2.311,4.659-4.283,8.981-5.873,12.632a18.256,18.256,0,0,1-9.727,3.113c-.023,0-.046.005-.068.005,3.839-3.754,5.145-6.524,5.38-7.082.19-.3.889-1.414,1.738-2.887l0,0c.7-1.211,1.49-2.668,2.2-4.132.007-.013.012-.026.019-.04a18.491,18.491,0,0,0,1.893-5.389c.134-1.411,1.787-1.725,3.769-1.965,1.156-.141,1.991-.242,2.3-.973a1.183,1.183,0,0,0-.194-1.216l-2.6-3.48.992-9.338,5.272,1.572Zm-17.691-8.148a2.717,2.717,0,0,0,.886.456l4.244,1.266-.252,2.376-6.964-5.589C1716.5-1120.338,1717.22-1119.818,1717.726-1119.427Zm-21.139,16.917a42.222,42.222,0,0,0,1.162-10.99c-.1-3.731.585-10.47,2.824-12.681a76.127,76.127,0,0,0-.566,10.267c.023,5.753-.57,8.581-.972,9.839a4.274,4.274,0,0,1-.358.879.906.906,0,0,0,.106,1.274.91.91,0,0,0,.585.214.907.907,0,0,0,.69-.319c.217-.259,1.058-1.519,1.493-5.712a58.09,58.09,0,0,0,.263-6.182,70.872,70.872,0,0,1,.666-10.792c.382.035.772.09,1.172.167a60.691,60.691,0,0,0-.127,9.238.905.905,0,0,0,.9.87h.033a.907.907,0,0,0,.871-.937,80.565,80.565,0,0,1,.077-8.737,29.932,29.932,0,0,1,4.539,1.857l-1.292,1.435a.9.9,0,0,0-.228.51l-.318,3.018-.757,7.169.185,8.948-1.821-2.247a.885.885,0,0,0-.811-.328.9.9,0,0,0-.709.508l-5.782,12.183c-.034.083-3.476,8.394-19.769,16.676-.045.023-.084.046-.129.068-13.376,6.77-16.281,16.85-16.9,21.367a20.452,20.452,0,0,0-7.006.757l-.94-6.279c2.339-3.446,12.239-17,26.26-21.947a24.972,24.972,0,0,0,4.192-1.938Zm-4.262-12.039c-.006.6,0,1.057.006,1.257.008.167.544,13.614-7.357,21.471.814-4.216,1.953-9.532,3.469-15.34a25.423,25.423,0,0,1,3.263-7.541C1691.912-1114.653,1692.12-1114.6,1692.325-1114.549Zm1.144-9.777c-3.654,2.638-8.085,7.42-10.272,15.8-2.266,8.68-3.7,16.187-4.478,20.762-.2.078-.39.163-.594.235a46.382,46.382,0,0,0-9.614,4.778c.944-.909,1.934-1.856,3.032-2.887a.9.9,0,0,0,.041-1.276.9.9,0,0,0-1.276-.041q-9.754,9.15-13.4,13.9a75.607,75.607,0,0,0-6.8,8.2c-1.945.279-3.981.525-6.036.741.666-1.86,2.725-4.85,8.272-9.327.032-.019.072-.011.1-.035a.894.894,0,0,0,.123-.146c.781-.625,1.606-1.269,2.527-1.952.444-.329.838-.647,1.261-.972a.893.893,0,0,0,.365-.205.912.912,0,0,0,.11-.16q1.281-1,2.433-1.961a.737.737,0,0,0,.077-.047c.013-.012.018-.03.031-.043,1.312-1.1,2.524-2.175,3.6-3.207l.007-.005,0-.006a53.405,53.405,0,0,0,6.017-6.726l.012-.009c.005-.006.006-.015.012-.022,3.559-4.8,4.337-7.983,4.461-8.633a70.426,70.426,0,0,0,2.532-7.849l0-.009a16.126,16.126,0,0,0,.64-5.667c-.22-1.361,1.64-2.085,3.736-2.766,1.285-.419,2.134-.7,2.263-1.515a1.18,1.18,0,0,0-.547-1.156l-3.851-2.775-1.407-9.279,6.622.3Zm-24.489-4.77a2.7,2.7,0,0,0,.863.184l5.178.238.371,2.443-10.013-4.094C1667.516-1129.659,1668.939-1129.112,1668.98-1129.1Zm-21.827-2.26a2.556,2.556,0,0,1,.652-.717,65.676,65.676,0,0,0,2.185,10.529c2.36,8.352,1.41,10.658,1.414,10.658a.9.9,0,0,0,.334,1.234.9.9,0,0,0,.45.12.9.9,0,0,0,.784-.454c.241-.42,1.32-2.98-1.241-12.048a62.517,62.517,0,0,1-2.164-10.6q.784-.1,1.619-.134a54.114,54.114,0,0,0,2.359,9.05.906.906,0,0,0,.86.625.911.911,0,0,0,.279-.044.9.9,0,0,0,.581-1.139,71.954,71.954,0,0,1-2.264-8.486,38.143,38.143,0,0,1,5.823.744l-1.031,1.658a.907.907,0,0,0-.125.613l1.551,10.167,2.664,8.8-2.955-1.963a.9.9,0,0,0-.83-.09.908.908,0,0,0-.549.63l-3.172,13.2c-.014.09-1.628,9.009-17.694,20.925l0,0,0,0h0c-7.9,5.859-11.855,10.811-11.742,14.716a4.856,4.856,0,0,0,.063.576l-1.009.038-6.015-1.059a7.325,7.325,0,0,0-.719-2.637,52.479,52.479,0,0,1,18.851-17.776c15.426-8.723,14.228-26.481,11.461-34.58C1646.856-1121.07,1645.26-1128.264,1647.153-1131.356Zm46.613,232.035c-17.763,13.787-45.407,15.862-65.39,13.2-17.89-2.383-32.475-8.509-38.066-15.989-7.732-10.341-25.907-24.449-41.171-35.357,34.509,12.775,74.082,16.088,96.171,16.879,5.017.18,10.868.388,17.345.388,19.417,0,44.451-1.88,69.447-12.077C1707.366-913.317,1695.315-900.943,1693.766-899.321Zm64.242-53.6c-40.081,29.5-87.188,27.806-112.507,26.909-37.843-1.354-128.347-10.126-151.378-62.192-9.215-20.821-10.739-40.855-4.405-57.933a61.689,61.689,0,0,1,9.8-17.133c18.174-23.126,69.312-57.738,135.7-58.3,1.144-.009,3.254-.005,6.146.084a37.693,37.693,0,0,0,1.038,4.363c.2.586,3.569,10.953-.863,19.828-21.254.57-41.865,6.172-43.153,6.529a2.71,2.71,0,0,0-1.891,3.335,2.712,2.712,0,0,0,2.611,1.99,2.786,2.786,0,0,0,.724-.1,208.692,208.692,0,0,1,37.4-6.112,21.558,21.558,0,0,1-3.8,2.711c-.378.214-.719.441-1.086.659-9.718-.586-18.907,3.637-25.089,7.454-.922.042-1.834.119-2.727.248a6.905,6.905,0,0,0-4.522-.658,28.015,28.015,0,0,0-6.915-.339,10.054,10.054,0,0,0-.578-7.051c-3.191-6.108-13.059-5.748-13.477-5.731a1.12,1.12,0,0,0-.139.015c-1.06.182-26.032,4.707-32.62,24.352a21.436,21.436,0,0,0-.729,2.8c-6.9.489-14.418,2.681-20.511,8.588-3.821,3.7-5.249,7.241-4.244,10.514.814,2.65,3.178,4.727,5.973,6.338-.409.53-.661.873-.741.984a2.707,2.707,0,0,0-.338,2.556c-10.161,4.514-9.618,7.145-9.349,8.41a3.45,3.45,0,0,0,2.386,2.568c-5.564,3.191-5.16,5.166-4.939,6.21.39,1.852,1.944,2.583,3.483,2.879-6.028,3.34-5.624,5.392-5.4,6.463.649,3.088,4.535,3.088,6.194,3.088a43.91,43.91,0,0,0,5.926-.362,11.631,11.631,0,0,0-.968,2.688c-7.373,1.006-13.122,4.853-14.543,10.05-.021.075-.016.152-.032.227s-.059.127-.075.2a9.235,9.235,0,0,0-.242,2.033c0,6.578,6.95,11.834,16.224,12.653,1.813,6.332,9.227,16.932,35.763,28.716,21.916,9.733,60.284,16.681,97.107,16.681,17.42,0,34.5-1.557,49.315-5.11,27.312-8.455,49.185-24.3,57.047-36.3,3.611-3.438,5.721-7.54,6.007-11.278,4.078-1.277,9.246-2.8,14.992-4.244a27.975,27.975,0,0,1,7.664-.908C1785.021-972.825,1767.8-960.124,1758.008-952.916Zm25.257-44.98c-12.108,3.05-21.536,6.337-24.06,7.243-3.885-.57-8.685-1.5-13.427-2.7a12.738,12.738,0,0,0-.118-3.075,23.056,23.056,0,0,1,7.559,1.757.909.909,0,0,0,.39.089.9.9,0,0,0,.815-.514.9.9,0,0,0-.425-1.206,25.728,25.728,0,0,0-8.832-1.979,11.2,11.2,0,0,0-.695-1.594c2.24.557,4.862,1.255,7.945,2.133a.888.888,0,0,0,.247.035.9.9,0,0,0,.869-.657.9.9,0,0,0-.622-1.116c-3.822-1.089-7.152-1.964-10.012-2.637a17.042,17.042,0,0,0-6.229-4.223c-.306-.13-.626-.252-.947-.373.494.1.975.192,1.491.324a43.2,43.2,0,0,1,5.917,2c.459.191.883.342,1.33.52a.915.915,0,0,0,.252.172.931.931,0,0,0,.351.07l.01,0c.88.342,1.742.665,2.575.956.011.006.018.016.03.022a.689.689,0,0,0,.1.021q2.219.771,4.215,1.323c.01.005.016.013.026.017a.747.747,0,0,0,.082.014,46.62,46.62,0,0,0,12.248,1.871,17.982,17.982,0,0,0,5.56-.663c.414-.059,10.18-1.439,13.347-3.658,1.163-.812,2.473.24,3.945,1.589.857.785,1.473,1.352,2.235,1.117a1.178,1.178,0,0,0,.8-.937l.953-4.237,7.742-5.317,2.231,5.029.409,9.514C1797.748-998.67,1791.669-1000.017,1783.265-997.9Z" fill="#00213d"/>
      <path id="Path_333" data-name="Path 333" d="M1634.331-1045.24a.438.438,0,0,0,.019-.115.452.452,0,0,0-.432-.471c-.932-.039-3.157-.039-3.676.865a.972.972,0,0,0,.087,1.055,1.347,1.347,0,0,0,1.024.645,1.4,1.4,0,0,0,.146.007c1.2,0,2.565-1.377,2.724-1.54A.451.451,0,0,0,1634.331-1045.24Zm-2.89,1.08a.447.447,0,0,1-.353-.236.406.406,0,0,1-.056-.115,3.6,3.6,0,0,1,1.993-.415A2.968,2.968,0,0,1,1631.441-1044.16Z" fill="#00213d"/>
      <path id="Path_334" data-name="Path 334" d="M1634.522-1044.852l-1.037,2.325a.454.454,0,0,0,.23.6.46.46,0,0,0,.183.039.455.455,0,0,0,.414-.269l1.036-2.325a.453.453,0,0,0-.23-.6A.454.454,0,0,0,1634.522-1044.852Z" fill="#00213d"/>
      <path id="Path_335" data-name="Path 335" d="M1639.129-1043.275a1.562,1.562,0,0,0,1.613-1.155,1.41,1.41,0,0,0-.224-1.259,2.758,2.758,0,0,0-2.334-.769,14.2,14.2,0,0,0-2.155.194.9.9,0,0,0-.73.711.906.906,0,0,0,.4.939A8.1,8.1,0,0,0,1639.129-1043.275Zm-.945-2.279c.966,0,1.88.177,1.687.886a.677.677,0,0,1-.742.489,7.8,7.8,0,0,1-2.943-1.2A13.375,13.375,0,0,1,1638.184-1045.554Z" fill="#00213d"/>
      <path id="Path_336" data-name="Path 336" d="M1635.867-1046.358a.451.451,0,0,0,.108-.012l2.174-.532a.453.453,0,0,0,.332-.547.449.449,0,0,0-.547-.332l-2.175.532a.454.454,0,0,0-.332.547A.455.455,0,0,0,1635.867-1046.358Z" fill="#00213d"/>
      <path id="Path_337" data-name="Path 337" d="M1634.188-1046.421a.433.433,0,0,0,.23.063.449.449,0,0,0,.388-.222.451.451,0,0,0-.159-.618c-.35-.208-1.368-.936-1.368-.936l-.528.735S1633.821-1046.637,1634.188-1046.421Z" fill="#00213d"/>
      <path id="Path_338" data-name="Path 338" d="M1629.321-1054.1l-6.156,6.614a.226.226,0,0,0,.012.319.222.222,0,0,0,.154.06.233.233,0,0,0,.166-.072l6.156-6.613a.227.227,0,0,0-.013-.32A.227.227,0,0,0,1629.321-1054.1Z" fill="#00213d"/>
      <path id="Path_339" data-name="Path 339" d="M1627-1053.589a.228.228,0,0,0-.32.013l-6.155,6.613a.225.225,0,0,0,.012.319.219.219,0,0,0,.153.06.23.23,0,0,0,.166-.072l6.156-6.613A.226.226,0,0,0,1627-1053.589Z" fill="#00213d"/>
      <path id="Path_340" data-name="Path 340" d="M1658.681-1040.026c.042,0,.085.006.125.006,1.049,0,2.191-1.213,2.417-1.465a.454.454,0,0,0,.1-.428.468.468,0,0,0,.018-.1.455.455,0,0,0-.431-.473c-.632-.03-2.712-.058-3.225.8a.961.961,0,0,0,.051,1.033A1.208,1.208,0,0,0,1658.681-1040.026Zm1.345-1.558c-.431.365-.909.716-1.257.658-.076-.007-.166-.035-.259-.194a.468.468,0,0,1-.05-.106A2.784,2.784,0,0,1,1660.026-1041.584Z" fill="#00213d"/>
      <path id="Path_341" data-name="Path 341" d="M1661.364-1041.545l-.9,2.18a.451.451,0,0,0,.248.589.44.44,0,0,0,.171.034.452.452,0,0,0,.418-.281l.9-2.18a.427.427,0,0,0,0-.28c.052.062.08.141.149.189a6.875,6.875,0,0,0,3.069,1.282,1.489,1.489,0,0,0,1.518-1.141,1.406,1.406,0,0,0-.238-1.238,2.486,2.486,0,0,0-2.1-.717,11.708,11.708,0,0,0-1.9.184.9.9,0,0,0-.715.7.9.9,0,0,0,.041.5c-.028-.02-.037-.056-.07-.07A.455.455,0,0,0,1661.364-1041.545Zm3.234-.66c.838,0,1.63.167,1.462.831a.588.588,0,0,1-.642.459,6.511,6.511,0,0,1-2.551-1.121A10.851,10.851,0,0,1,1664.6-1042.2Z" fill="#00213d"/>
      <path id="Path_342" data-name="Path 342" d="M1662.589-1042.93a.521.521,0,0,0,.115-.014l1.886-.5a.456.456,0,0,0,.323-.553.456.456,0,0,0-.553-.323l-1.885.5a.453.453,0,0,0-.323.552A.452.452,0,0,0,1662.589-1042.93Z" fill="#00213d"/>
      <path id="Path_343" data-name="Path 343" d="M1661.091-1043a.44.44,0,0,0,.243.072.451.451,0,0,0,.38-.208.449.449,0,0,0-.136-.623c-.3-.194-1.183-.874-1.185-.876l-.551.717S1660.771-1043.2,1661.091-1043Z" fill="#00213d"/>
      <path id="Path_344" data-name="Path 344" d="M1668.311-1034.83a.22.22,0,0,0,.171-.079l5.335-6.2a.225.225,0,0,0-.024-.318.224.224,0,0,0-.318.025l-5.335,6.2a.224.224,0,0,0,.024.317A.223.223,0,0,0,1668.311-1034.83Z" fill="#00213d"/>
      <path id="Path_345" data-name="Path 345" d="M1651.581-1043.7a.217.217,0,0,0,.146.054.219.219,0,0,0,.171-.079l5.335-6.2a.225.225,0,0,0-.024-.318.223.223,0,0,0-.318.025l-5.335,6.2A.224.224,0,0,0,1651.581-1043.7Z" fill="#00213d"/>
      <path id="Path_346" data-name="Path 346" d="M1649.441-1043.155a.223.223,0,0,0,.171-.08l5.335-6.2a.223.223,0,0,0-.025-.317.222.222,0,0,0-.317.024l-5.335,6.2a.224.224,0,0,0,.024.318A.223.223,0,0,0,1649.441-1043.155Z" fill="#00213d"/>
      <path id="Path_347" data-name="Path 347" d="M1669.916-1034.885a.218.218,0,0,0,.146.055.22.22,0,0,0,.171-.079l5.335-6.2a.224.224,0,0,0-.024-.318.224.224,0,0,0-.318.025l-5.335,6.2A.223.223,0,0,0,1669.916-1034.885Z" fill="#00213d"/>
      <path id="Path_348" data-name="Path 348" d="M1670.444-1033.417a30.128,30.128,0,0,1-12.383.8c-8.85-1.257-9.206-4.644-9.212-4.708a.465.465,0,0,0-.466-.431.453.453,0,0,0-.437.466c.005.17.241,4.184,9.988,5.567a32.05,32.05,0,0,0,4.507.321,27.237,27.237,0,0,0,11.809-2.461.454.454,0,0,0,.19-.611.451.451,0,0,0-.61-.191,19.188,19.188,0,0,1-2.823,1.076l5.133-5.969a.224.224,0,0,0-.024-.318.222.222,0,0,0-.318.025l-5.333,6.2A.208.208,0,0,0,1670.444-1033.417Z" fill="#00213d"/>
      <path id="Path_349" data-name="Path 349" d="M1549.965-1014.68a28.632,28.632,0,0,0,3.958.254c8.994,0,19.39-3.354,19.893-3.518a1.1,1.1,0,0,0,.218-.1c.9-.53,8.794-5.286,9.7-8.885a2.687,2.687,0,0,0-.263-2.086c-1.932-3.216-11.044-4.633-13.34-4.942-1.536-.777-10.954-4.957-19.157,4.743l-6.56,5.943a1.023,1.023,0,0,0-.107.111c-.081.1-1.981,2.418-1.058,4.809C1543.992-1016.438,1546.25-1015.2,1549.965-1014.68Zm-4-7.025,6.544-5.928a1.171,1.171,0,0,0,.1-.108c7.711-9.176,16.27-4.408,16.634-4.2a1.082,1.082,0,0,0,.409.138c4.314.561,10.87,2.147,11.934,3.92.024.039.086.142.017.414-.513,2.025-5.493,5.624-8.587,7.47-1.334.421-14.127,4.356-22.75,3.14-2.779-.391-4.542-1.2-4.963-2.277A3.09,3.09,0,0,1,1545.966-1021.705Z" fill="#00213d"/>
      <path id="Path_350" data-name="Path 350" d="M1551.732-1017.345a41.706,41.706,0,0,0,6.16-.558l13.561-2.068a1.1,1.1,0,0,0,.921-1.252,1.1,1.1,0,0,0-1.253-.922l-6.586,1.005-6.975,1.064c-8.311,1.267-9.25-.091-9.286-.149-.055-.089.058-.352.14-.467a1.071,1.071,0,0,0,.2-.642,1.078,1.078,0,0,0-.415-.888,1.1,1.1,0,0,0-1.541.209,2.683,2.683,0,0,0-.272,2.909C1546.871-1018.281,1547.985-1017.345,1551.732-1017.345Z" fill="#00213d"/>
      <path id="Path_351" data-name="Path 351" d="M1576.448-1023.311a3.123,3.123,0,0,0,3.119-3.118,3.123,3.123,0,0,0-3.119-3.118,3.122,3.122,0,0,0-3.118,3.118A3.122,3.122,0,0,0,1576.448-1023.311Zm0-4.038a.921.921,0,0,1,.92.92.92.92,0,0,1-.92.919.92.92,0,0,1-.919-.919A.921.921,0,0,1,1576.448-1027.349Z" fill="#00213d"/>
      <path id="Path_352" data-name="Path 352" d="M1556.868-1023.6a1.118,1.118,0,0,0,.362.061,1.1,1.1,0,0,0,1.038-.738,1.1,1.1,0,0,0-.677-1.4c-1.651-.574-1.811-1.072-1.808-1.079a.208.208,0,0,1-.039.05l-.83-.721h0l-.829-.721a2.195,2.195,0,0,0-.43,1.961C1553.945-1025.1,1555-1024.253,1556.868-1023.6Z" fill="#00213d"/>
      <path id="Path_353" data-name="Path 353" d="M1537.017-1058.814c-.807.363-7.877,3.668-7.828,7.881.024,2.106,1.747,3.9,5.12,5.323a1.1,1.1,0,0,0,.428.087,1.1,1.1,0,0,0,1.013-.672,1.1,1.1,0,0,0-.585-1.441c-.053-.022-.109-.049-.163-.073-1.678-.728-3.6-1.86-3.614-3.249-.024-1.9,3.237-4.191,5.74-5.465.272-.138.543-.274.791-.386a1.1,1.1,0,0,0,.551-1.454A1.1,1.1,0,0,0,1537.017-1058.814Z" fill="#00213d"/>
      <path id="Path_354" data-name="Path 354" d="M1577.952-1089.251c-9.47,1.926-20.91,10.67-21.392,11.041a1.125,1.125,0,0,0-.173.166c-.669.8-6.523,7.919-6.181,11.616a2.688,2.688,0,0,0,.945,1.878c1.131.933,3.2,1.24,5.446,1.24a47.338,47.338,0,0,0,8.778-1.036c1.708.221,11.981,1.013,16.474-10.868l4.2-7.792a1.049,1.049,0,0,0,.064-.14c.044-.119,1.059-2.941-.608-4.887C1584.17-1089.589,1581.628-1090,1577.952-1089.251Zm6.115,5.287-4.188,7.772a1.028,1.028,0,0,0-.062.136c-4.2,11.223-13.863,9.59-14.277,9.513a1.121,1.121,0,0,0-.432.006c-4.255.913-10.962,1.606-12.559.291-.034-.029-.128-.106-.153-.385-.193-2.081,3.3-7.136,5.6-9.908,1.116-.843,11.854-8.82,20.4-10.558,2.749-.559,4.682-.386,5.44.49A3.09,3.09,0,0,1,1584.067-1083.964Z" fill="#00213d"/>
      <path id="Path_355" data-name="Path 355" d="M1571.556-1083.567l-12.092,6.478a1.1,1.1,0,0,0-.45,1.489,1.1,1.1,0,0,0,.97.58,1.088,1.088,0,0,0,.518-.131l5.871-3.145,6.221-3.333c7.411-3.968,8.749-3,8.8-2.961.081.067.062.352.023.488a1.078,1.078,0,0,0,.029.67,1.08,1.08,0,0,0,.688.7,1.1,1.1,0,0,0,1.382-.712,2.682,2.682,0,0,0-.714-2.833C1581.766-1087.144,1579.467-1087.8,1571.556-1083.567Z" fill="#00213d"/>
      <path id="Path_356" data-name="Path 356" d="M1558.254-1072.148a3.1,3.1,0,0,0-2.383-.125,3.124,3.124,0,0,0-1.9,3.981,3.124,3.124,0,0,0,2.943,2.077,3.088,3.088,0,0,0,1.038-.179,3.121,3.121,0,0,0,1.9-3.98A3.1,3.1,0,0,0,1558.254-1072.148Zm-1.035,3.682a.921.921,0,0,1-1.174-.56.92.92,0,0,1,.56-1.174.907.907,0,0,1,.308-.053.918.918,0,0,1,.4.09.913.913,0,0,1,.471.522A.922.922,0,0,1,1557.219-1068.466Z" fill="#00213d"/>
      <path id="Path_357" data-name="Path 357" d="M1574.424-1078.537a1.1,1.1,0,0,0-1.093,1.1,1.119,1.119,0,0,0,1.106,1.094c1.732-.014,2.064.406,2.063.413a.217.217,0,0,1,.021-.06l2.045.806a2.2,2.2,0,0,0-.249-1.992C1577.68-1078.1,1576.43-1078.536,1574.424-1078.537Z" fill="#00213d"/>
      <path id="Path_358" data-name="Path 358" d="M1602.907-1063.129l.178.014c1.825.126,4.013.552,4.492,1.856.655,1.781-1.652,5.031-3.587,7.068-.209.221-.419.44-.616.629a1.1,1.1,0,0,0-.033,1.554,1.1,1.1,0,0,0,.8.339,1.1,1.1,0,0,0,.759-.305c.639-.611,6.2-6.087,4.746-10.043-.727-1.977-2.948-3.089-6.6-3.307a1.1,1.1,0,0,0-1.163,1.032A1.1,1.1,0,0,0,1602.907-1063.129Z" fill="#00213d"/>
      <path id="Path_359" data-name="Path 359" d="M1666.158-1015.145a3.123,3.123,0,0,0-1.193,3.4,3.109,3.109,0,0,0,.457.95,3.122,3.122,0,0,0,4.348.736,3.1,3.1,0,0,0,1.268-2.022,3.1,3.1,0,0,0-.532-2.326A3.122,3.122,0,0,0,1666.158-1015.145Zm2.339,3.292a.921.921,0,0,1-1.283-.217.92.92,0,0,1,.217-1.282.919.919,0,0,1,1.282.216.931.931,0,0,1,.136.282.9.9,0,0,1,.021.405A.916.916,0,0,1,1668.5-1011.853Z" fill="#00213d"/>
      <path id="Path_360" data-name="Path 360" d="M1590.292-997.974c.071.058.054.308.02.426a.94.94,0,0,0,.026.587.945.945,0,0,0,.6.611.962.962,0,0,0,1.209-.623,2.346,2.346,0,0,0-.624-2.478c-.91-.758-2.921-1.335-9.841,2.371l-10.577,5.667a.96.96,0,0,0-.394,1.3.96.96,0,0,0,.848.508.96.96,0,0,0,.453-.114l5.136-2.752,5.442-2.915C1589.073-998.856,1590.244-998.012,1590.292-997.974Z" fill="#00213d"/>
      <path id="Path_361" data-name="Path 361" d="M1570.047-987.091a2.71,2.71,0,0,0-2.085-.109,2.731,2.731,0,0,0-1.66,3.482,2.73,2.73,0,0,0,2.573,1.817,2.7,2.7,0,0,0,.909-.157,2.73,2.73,0,0,0,1.66-3.481A2.709,2.709,0,0,0,1570.047-987.091Zm-.906,3.221a.805.805,0,0,1-1.026-.49.8.8,0,0,1,.489-1.027.809.809,0,0,1,.269-.046.809.809,0,0,1,.346.078.8.8,0,0,1,.412.457A.806.806,0,0,1,1569.141-983.87Z" fill="#00213d"/>
      <path id="Path_362" data-name="Path 362" d="M1584.191-992.68a.962.962,0,0,0-.956.967.979.979,0,0,0,.968.957c1.515-.012,1.806.355,1.805.361a.159.159,0,0,1,.018-.052l1.789.705a1.921,1.921,0,0,0-.218-1.743C1587.04-992.3,1585.946-992.679,1584.191-992.68Z" fill="#00213d"/>
      <path id="Path_363" data-name="Path 363" d="M1609.107-979.2l.156.012c1.6.11,3.51.483,3.929,1.623.573,1.558-1.445,4.4-3.137,6.183-.184.193-.367.385-.539.55a.962.962,0,0,0-.029,1.36.958.958,0,0,0,.695.3.959.959,0,0,0,.664-.267c.559-.535,5.423-5.325,4.152-8.784-.636-1.73-2.579-2.7-5.777-2.894a.959.959,0,0,0-1.017.9A.961.961,0,0,0,1609.107-979.2Z" fill="#00213d"/>
      <path id="Path_364" data-name="Path 364" d="M1704.777-996.5c-6.2-4.235-16.282-3.437-22.954,1.825h0c-6.337,5-9.963,15.368-5.329,21.75a18.375,18.375,0,0,0,14.9,7.187,20.038,20.038,0,0,0,4.263-.458c10.141-2.208,15.843-7.285,16.948-15.09C1713.485-987.484,1708.556-993.914,1704.777-996.5Zm2.459,14.453c-.775,5.476-4.821,8.83-12.732,10.552-5.3,1.156-10.781-.7-13.624-4.615-2.542-3.5-.411-10.587,4.3-14.307,4.754-3.749,12.324-4.485,16.534-1.606C1704.355-990.217,1707.732-985.549,1707.236-982.047Z" fill="#00213d"/>
      <path id="Path_365" data-name="Path 365" d="M1686.674-988.729a1.813,1.813,0,0,0-1.595,1.995c.065.591.012,2.355-.715,2.493a3.1,3.1,0,0,0-2.384,1.822c-.87,2.046.705,4.717,1.208,5.485a1.8,1.8,0,0,0,1.515.819,1.8,1.8,0,0,0,.986-.295,1.806,1.806,0,0,0,.525-2.5,6.907,6.907,0,0,1-.834-1.83l-.007-.023.014-.006c2.681-.738,3.591-3.77,3.284-6.376A1.8,1.8,0,0,0,1686.674-988.729Z" fill="#00213d"/>
    </g>
  </g>
</svg>
