<svg xmlns="http://www.w3.org/2000/svg" width="164.785" height="268.691" viewBox="0 0 164.785 268.691">
  <g id="Group_126" data-name="Group 126" transform="translate(-1608.431 1313.858)">
    <g id="Group_117" data-name="Group 117">
      <path id="Path_366" data-name="Path 366" d="M1615.864-1268.916a4.462,4.462,0,0,1-3.643-1.435c-.928-1.213-.847-2.9.241-5.01a1.5,1.5,0,0,1,1.061-.788l108.636-20.082a1.511,1.511,0,0,1,1.407.494l2.755,3.182,2.966-.21-1.455-1.49a1.5,1.5,0,0,1-.364-1.476,1.5,1.5,0,0,1,1.112-1.036l7.973-1.769a1.5,1.5,0,0,1,1.249.282l4.457,3.483,3.95-.717-3.11-1.841a1.5,1.5,0,0,1-.718-1.528,1.5,1.5,0,0,1,1.156-1.228l6.448-1.429a1.5,1.5,0,0,1,1.1.178l6.35,3.81,3.09-.561-3.818-2.259a1.5,1.5,0,0,1-.717-1.528,1.5,1.5,0,0,1,1.156-1.228l6.576-1.458a1.5,1.5,0,0,1,1.084.17l7.673,4.5a1.5,1.5,0,0,1,.718,1.556,1.5,1.5,0,0,1-1.209,1.214L1617.7-1269.1A9.186,9.186,0,0,1,1615.864-1268.916Zm-1.035-4.424c-.345.86-.227,1.163-.226,1.166a3.9,3.9,0,0,0,2.516.126l106.281-19.3-1.54-1.778Zm117.034-21.083,1.277,1.308,5.166-.938-1.794-1.4Zm16.031-3.555,2.824,1.671,2.237-.406-2.9-1.743Zm13.6-3.017,3.531,2.09,2.44-.443-3.676-2.156Z" fill="#00213d"/>
    </g>
    <g id="Group_118" data-name="Group 118">
      <path id="Path_367" data-name="Path 367" d="M1655.907-1287.745s-2.083-5.537-5.5-1.187-11.282,46.521-1.774,88.678-1.444,104.1-1.444,104.1-7.791,21.758-.72,43.87c0,0,4.431,8.483,8.269,4.6s-9.225-12.3-2.544-47.03c6.552-33.84,5.069-42.346,5.616-47.714s2.433-28.527-2.977-61.305c-7.213-38.1-4.392-58.76-4.392-58.76s1.022-18.787,3.245-22.02Z" fill="#fff"/>
      <path id="Path_368" data-name="Path 368" d="M1652.561-1045.167a4.285,4.285,0,0,1-.634-.047c-3.647-.548-6.478-5.781-6.788-6.376a1.552,1.552,0,0,1-.1-.237c-6.942-21.708,0-42.7.693-44.707.527-3.072,10.573-62.887,1.437-103.39-9.731-43.142-1.66-85.2,2.057-89.935,1.33-1.69,2.764-2.428,4.245-2.2,2.493.385,3.71,3.44,3.841,3.787a1.5,1.5,0,0,1-.168,1.378l-2.223,3.233c-1.369,1.99-2.569,13.625-2.983,21.252,0,.04-.006.081-.012.12-.027.205-2.694,20.917,4.38,58.279,5.327,32.274,3.64,55.412,2.995,61.735-.111,1.1-.135,2.384-.164,4.014-.107,6-.309,17.171-5.472,43.835-4.31,22.406-.241,33.693,1.945,39.757,1.262,3.505,2.175,6.036.193,8.041A4.472,4.472,0,0,1,1652.561-1045.167Zm-4.705-7.7c1,1.85,3.009,4.463,4.518,4.688a1.426,1.426,0,0,0,1.3-.556c.595-.6.231-1.827-.883-4.915-2.283-6.335-6.534-18.126-2.067-41.344,5.113-26.41,5.312-37.41,5.418-43.32.03-1.7.055-3.042.179-4.263.634-6.231,2.3-29.036-2.965-60.909-7.045-37.207-4.605-57.63-4.406-59.144.182-3.34,1.173-19.343,3.5-22.73l1.732-2.52c-.339-.589-.805-1.159-1.168-1.213-.236-.033-.751.228-1.428,1.09-3.3,4.2-10.673,46.708-1.49,87.42,9.466,41.966-1.32,104.07-1.43,104.692a1.46,1.46,0,0,1-.065.244C1648.525-1095.436,1641.1-1074.17,1647.856-1052.869Z" fill="#00213d"/>
    </g>
    <g id="Group_119" data-name="Group 119">
      <path id="Path_369" data-name="Path 369" d="M1649.714-1288.109s-2.083-5.074-5.5-1.087-11.283,42.633-1.774,81.267-1.444,95.4-1.444,95.4-7.791,22.025-.72,42.289c0,0,4.927,7.461,5.327-.887,0,0-6.283-8.255.4-40.081,6.552-31.012,5.068-38.807,5.616-43.727s2.433-26.143-2.977-56.182c-7.213-34.918-4.392-53.85-4.392-53.85s1.021-17.218,3.244-20.18Z" fill="#fff"/>
      <path id="Path_370" data-name="Path 370" d="M1643.862-1065.671c-2.12,0-4.054-2.554-4.839-3.742a1.47,1.47,0,0,1-.164-.332c-6.979-20,.017-41.242.682-43.171.519-2.763,10.57-57.567,1.442-94.655-9.749-39.607-1.639-78.251,2.091-82.6,1.346-1.569,2.775-2.246,4.251-2.007,2.435.392,3.647,3.185,3.777,3.5a1.5,1.5,0,0,1-.188,1.47l-2.222,2.962c-1.346,1.794-2.535,12.406-2.949,19.369a1.161,1.161,0,0,1-.013.131c-.028.187-2.685,19.137,4.378,53.326,5.334,29.615,3.643,50.848,3,56.651-.112.994-.134,2.169-.163,3.657-.109,5.507-.309,15.758-5.477,40.215-6.374,30.366-.715,38.8-.656,38.883a1.578,1.578,0,0,1,.289.96c-.1,2-.464,4.717-2.555,5.291A2.569,2.569,0,0,1,1643.862-1065.671Zm-2.235-5.246a8.322,8.322,0,0,0,2.061,2.166,6.1,6.1,0,0,0,.387-1.995c-1.285-2.305-5.471-12.53.457-40.769,5.109-24.182,5.306-34.248,5.413-39.657.03-1.563.054-2.8.179-3.928.634-5.7,2.294-26.572-2.962-55.75-7.033-34.048-4.619-52.8-4.409-54.268.185-3.094,1.182-17.787,3.538-20.929l1.65-2.2c-.32-.48-.736-.918-1.1-.974-.343-.055-.91.316-1.495,1-2.574,3-11.025,41.055-1.456,79.932,9.478,38.508-1.318,95.474-1.428,96.045a1.378,1.378,0,0,1-.059.215C1642.333-1111.813,1634.929-1090.379,1641.627-1070.917Z" fill="#00213d"/>
    </g>
    <g id="Group_120" data-name="Group 120">
      <path id="Path_371" data-name="Path 371" d="M1641.548-1292.189s2.893-2.363,5.893.8,9.347,32.834-6.051,52.467-9.817,53.939-9.817,53.939.526,20.771-16.013,23.652c0,0-7.432.563-5.216-4.042s17.219-1.617,14.765-21.545c-2.435-19.43,2.392-33.847,1.288-28.62s.759-11.5,10.663-27.281c12.477-18.1,6.908-34.723,6.908-34.723s1.377-10.11-.521-12.379Z" fill="#fff"/>
      <path id="Path_372" data-name="Path 372" d="M1614.745-1159.8c-1.577,0-4.476-.268-5.735-2.113a3.9,3.9,0,0,1-.018-4.108c.915-1.9,3.084-2.747,5.38-3.643,4.826-1.881,10.829-4.222,9.248-17.068a93.176,93.176,0,0,1-.177-21.349,51.248,51.248,0,0,1,1.38-8.028,61.774,61.774,0,0,1,2.061-8.015,86.474,86.474,0,0,1,8.9-19.489c11.906-17.276,6.809-33.292,6.756-33.452a1.5,1.5,0,0,1-.063-.676c.621-4.567.694-10.163-.186-11.215l-1.9-2.269a1.5,1.5,0,0,1-.343-1.1,1.494,1.494,0,0,1,.544-1.02c1.374-1.123,4.8-2.372,7.931.931,3.888,4.1,9.7,34.458-5.959,54.425-14.821,18.9-9.573,52.435-9.518,52.772a1.528,1.528,0,0,1,.02.2c0,.221.354,22.1-17.255,25.167a1.2,1.2,0,0,1-.145.018C1615.5-1159.821,1615.169-1159.8,1614.745-1159.8Zm12.56-53.82a87.279,87.279,0,0,0-.708,26.519c1.867,15.162-5.957,18.213-11.134,20.232-1.73.675-3.365,1.312-3.767,2.149-.251.522-.33.939-.208,1.115.389.575,2.362.884,3.89.786,14.594-2.6,14.717-20.385,14.7-22.029-.4-2.534-5.206-35.435,10.135-55,14.881-18.974,8.511-48.013,6.144-50.509a3.253,3.253,0,0,0-2.314-1.194l.558.668c2.069,2.473,1.273,10.35.9,13.212.766,2.592,4.709,18.419-7.2,35.7a83.366,83.366,0,0,0-10.272,25.038,4.556,4.556,0,0,1-.158,1.7A4.093,4.093,0,0,1,1627.305-1213.622Z" fill="#00213d"/>
    </g>
    <g id="Group_121" data-name="Group 121">
      <path id="Path_373" data-name="Path 373" d="M1648.18-1293.149s3.295-4.145,8.7-.888,15.043,33.087,0,64.647,8.056,77.8,8.056,77.8,11.008,23.229-8.38,40.277c0,0-7.747,4.688-8.38-2.131,0,0,20.505-9.59,9.936-35.588-10.366-25.334-10.312-30.151-11.178-34.17s-5.616-22.516,2.943-47.055c11.412-28.524,6.949-43.989,6.949-43.989s-1.617-14.066-5.134-16.486Z" fill="#fff"/>
      <path id="Path_374" data-name="Path 374" d="M1651.652-1108.242a5.123,5.123,0,0,1-2.327-.511c-1.06-.535-2.379-1.758-2.638-4.549a1.5,1.5,0,0,1,.857-1.5c.78-.369,19.068-9.351,9.183-33.665-9.015-22.028-10.216-28.73-10.934-32.734-.109-.608-.206-1.154-.321-1.684l-.13-.591a85.322,85.322,0,0,1,3.123-47.274c11.066-27.661,6.965-42.932,6.922-43.083a1.8,1.8,0,0,1-.048-.241c-.64-5.56-2.457-14.02-4.493-15.421l-3.517-2.42a1.5,1.5,0,0,1-.632-1.014,1.5,1.5,0,0,1,.309-1.155c1.423-1.79,5.483-4.354,10.651-1.24,6.054,3.645,16.14,33.936.582,66.578-14.56,30.545,7.815,76.031,8.043,76.487.128.27,11.274,24.482-8.732,42.073a1.445,1.445,0,0,1-.214.157A12.5,12.5,0,0,1,1651.652-1108.242Zm-1.815-4.4a1.805,1.805,0,0,0,.839,1.213c1.273.644,3.839-.425,5-1.1,18.144-16.068,8.338-37.511,7.91-38.418-.942-1.885-23.236-47.235-8.053-79.089,14.584-30.6,5.295-59.878.581-62.717-2.451-1.475-4.292-1.1-5.437-.5l1.873,1.288c3.825,2.633,5.443,14.727,5.759,17.436.443,1.674,4.022,17.2-7.032,44.833a82.306,82.306,0,0,0-3,45.569l.135.612c.121.563.224,1.142.34,1.787.7,3.887,1.864,10.393,10.759,32.131C1669.074-1126.058,1654.01-1115.132,1649.837-1112.645Z" fill="#00213d"/>
    </g>
    <g id="Group_122" data-name="Group 122">
      <path id="Path_375" data-name="Path 375" d="M1655.5-1295.347s2.989-4.276,7.9-.917,13.647,34.128,0,66.68,7.309,80.249,7.309,80.249,9.986,23.958-7.6,41.543c0,0-7.028,4.835-7.6-2.2,0,0,18.6-9.892,9.014-36.707-9.4-26.131-9.355-31.1-10.14-35.245s-5.1-23.223,2.669-48.533c10.353-29.421,6.3-45.373,6.3-45.373s-1.467-14.507-4.657-17Z" fill="#fff"/>
      <path id="Path_376" data-name="Path 376" d="M1658.642-1104.674a4.545,4.545,0,0,1-1.963-.417c-1.578-.75-2.479-2.357-2.676-4.777a1.5,1.5,0,0,1,.791-1.447c.708-.381,17.319-9.675,8.307-34.878-8.171-22.7-9.26-29.6-9.91-33.725-.1-.63-.188-1.194-.292-1.744l-.119-.614a99.251,99.251,0,0,1,2.829-48.639c10.063-28.6,6.321-44.41,6.282-44.567a1.554,1.554,0,0,1-.037-.215c-.584-5.76-2.238-14.524-4.089-15.973l-3.191-2.5a1.5,1.5,0,0,1-.3-2.041c1.33-1.9,5.123-4.616,9.973-1.295,5.48,3.752,14.614,34.919.537,68.5-13.238,31.574,7.091,78.595,7.3,79.066.116.275,10.175,25.121-7.915,43.207a1.481,1.481,0,0,1-.21.175A10.728,10.728,0,0,1,1658.642-1104.674Zm-1.525-4.564a1.987,1.987,0,0,0,.847,1.436c.973.466,3.018-.394,4.18-1.154,16.507-16.637,7.269-39.573,7.175-39.8-.855-1.944-21.045-48.636-7.308-81.4,13.268-31.644,4.824-61.927.536-64.862-2.189-1.5-3.794-1.08-4.772-.445l1.838,1.439c3.471,2.715,4.932,15.178,5.214,17.931.381,1.623,3.673,17.584-6.37,46.124a96.241,96.241,0,0,0-2.733,47.125l.122.631c.109.579.2,1.173.309,1.836.633,4.017,1.694,10.741,9.769,33.18C1674.571-1123.026,1660.885-1111.784,1657.117-1109.238Z" fill="#00213d"/>
    </g>
    <g id="Group_123" data-name="Group 123">
      <path id="Path_377" data-name="Path 377" d="M1762.333-1312.358l-149.177,30.47s-4.184,5,3.816,7.214l153.831-29.292" fill="#fff"/>
      <path id="Path_378" data-name="Path 378" d="M1616.972-1273.174a1.5,1.5,0,0,1-.4-.054c-3.219-.892-5.171-2.369-5.8-4.391-.843-2.708,1.149-5.13,1.234-5.232a1.5,1.5,0,0,1,.851-.507l149.175-30.47a1.506,1.506,0,0,1,1.77,1.169,1.5,1.5,0,0,1-1.17,1.77L1614.05-1280.54a2.686,2.686,0,0,0-.411,2.04c.288.9,1.492,1.708,3.4,2.285l153.479-29.225a1.5,1.5,0,0,1,1.754,1.193,1.5,1.5,0,0,1-1.194,1.754L1617.252-1273.2A1.553,1.553,0,0,1,1616.972-1273.174Z" fill="#00213d"/>
    </g>
    <g id="Group_124" data-name="Group 124">
      <path id="Path_379" data-name="Path 379" d="M1644.162-1288.222s-2.989-4.577-7.9-.981-13.647,36.533,0,71.38-7.309,85.9-7.309,85.9-9.986,25.648,7.6,44.471c0,0,7.028,5.177,7.6-2.353,0,0-18.6-10.588-9.014-39.294,9.4-27.972,9.355-33.29,10.14-37.728s5.1-24.86-2.669-51.954c-10.353-31.494-6.3-48.571-6.3-48.571s1.467-15.529,4.657-18.2Z" fill="#fff"/>
      <path id="Path_380" data-name="Path 380" d="M1641.021-1084.216a10.393,10.393,0,0,1-5.351-2.024,1.5,1.5,0,0,1-.206-.184c-18.024-19.29-8.008-45.773-7.9-46.039.217-.53,20.577-50.938,7.309-84.814-14.045-35.861-4.951-69.133.51-73.136a7.206,7.206,0,0,1,5.633-1.571,7.128,7.128,0,0,1,4.406,2.942,1.5,1.5,0,0,1-.293,1.971l-3.19,2.671c-1.875,1.571-3.542,11-4.127,17.193a1.557,1.557,0,0,1-.033.205c-.039.165-3.8,17.128,6.269,47.757a113.294,113.294,0,0,1,2.841,52.025l-.119.658c-.106.591-.194,1.2-.294,1.874-.649,4.406-1.735,11.78-9.9,36.071-9.055,27.109,7.624,37.1,8.338,37.515a1.507,1.507,0,0,1,.75,1.415c-.2,2.62-1.136,4.331-2.785,5.087A4.4,4.4,0,0,1,1641.021-1084.216Zm-3.465-4.364c1.123.787,3.118,1.695,4.068,1.252.535-.246.8-1.021.936-1.743-3.678-2.642-17.48-14.618-8.835-40.5,8.082-24.04,9.144-31.249,9.779-35.556.1-.707.2-1.341.307-1.959l.123-.675a110.269,110.269,0,0,0-2.757-50.6c-10.04-30.539-6.709-47.58-6.347-49.222.28-2.909,1.733-16.227,5.179-19.113l1.964-1.645a3.548,3.548,0,0,0-1.522-.693,4.379,4.379,0,0,0-3.3,1.044c-4.3,3.154-12.788,35.665.509,69.623,13.709,35-6.452,84.913-7.317,87.021C1630.26-1131.128,1620.975-1106.464,1637.556-1088.58Z" fill="#00213d"/>
    </g>
    <g id="Group_125" data-name="Group 125">
      <path id="Path_381" data-name="Path 381" d="M1636.93-1290.421s-2.989-3.758-7.9-.8-13.647,30,0,58.613-7.309,70.542-7.309,70.542-9.986,21.06,7.6,36.517c0,0,7.028,4.251,7.6-1.932,0,0-18.6-8.7-9.014-32.267,9.4-22.969,9.355-27.337,10.14-30.981s5.1-20.414-2.669-42.662c-10.353-25.862-6.3-39.884-6.3-39.884s1.467-12.752,4.657-14.947Z" fill="#fff"/>
      <path id="Path_382" data-name="Path 382" d="M1633.783-1122.633a11.5,11.5,0,0,1-5.232-1.637,1.569,1.569,0,0,1-.214-.157c-18.226-16.019-8.072-38.066-7.968-38.287.22-.441,20.481-41.64,7.312-69.253-14.151-29.67-4.938-57.225.58-60.544,4.776-2.875,8.526-.5,9.843,1.156a1.5,1.5,0,0,1,.309,1.156,1.5,1.5,0,0,1-.633,1.014l-3.191,2.194c-1.62,1.115-3.346,8.074-4.015,13.882a1.69,1.69,0,0,1-.049.245c-.038.132-3.74,13.943,6.255,38.91a77.515,77.515,0,0,1,2.86,43l-.118.534c-.1.48-.192.973-.29,1.523-.653,3.636-1.744,9.722-9.928,29.709-8.913,21.912,7.559,30.008,8.265,30.342a1.5,1.5,0,0,1,.854,1.5c-.24,2.593-1.475,3.735-2.469,4.236A4.773,4.773,0,0,1,1633.783-1122.633Zm-3.572-4.141c1.038.594,3.3,1.536,4.394.983a1.434,1.434,0,0,0,.658-.909c-3.941-2.378-17.387-12.353-8.736-33.619,8.064-19.7,9.121-25.585,9.753-29.1.1-.586.2-1.113.309-1.625l.123-.555a74.5,74.5,0,0,0-2.741-41.3c-10-24.968-6.781-39.078-6.364-40.663.292-2.487,1.768-13.48,5.282-15.9l1.5-1.03a4.737,4.737,0,0,0-4.58.552c-4.255,2.56-12.616,29.013.58,56.683,13.8,28.942-6.452,70.119-7.321,71.857C1622.7-1160.612,1613.851-1141.269,1630.211-1126.774Z" fill="#00213d"/>
    </g>
  </g>
</svg>
