<svg xmlns="http://www.w3.org/2000/svg" width="362.958" height="609.5" viewBox="0 0 362.958 609.5">
  <g id="Group_316" data-name="Group 316" transform="translate(12.99 5.367)">
    <g id="Group_242" data-name="Group 242" transform="translate(54.945 185.796)">
      <path id="Path_1271" data-name="Path 1271" d="M2910.714,3895.71l-6.963-27.187-15.508-26.16-15.088-24.74.23-21.406,14.087-34.267-7.006-5.846-28.29-21.861-12.826-27.515-19.934-20.553-5.633-46.433,39.617-24.725,64.219-22.388,86.765,10.749,26.537,25.821,30.215,33.8L3056,3692.37l-19.451,13.518-7.361,12.554-8.661,18.433-20.948,17.721,12.5,5.17,15.289,15.6,9.183,25.823L3023,3826.185l-1.07,32.461-10.344,20.425-72.559,28.029Z" transform="translate(-2813.781 -3592.629)" fill="#9aafcf"/>
    </g>
    <g id="Group_243" data-name="Group 243" transform="translate(132.153 409.196)">
      <path id="Path_1272" data-name="Path 1272" d="M2907.244,3879.427s-4.865,13.461,6.982,16c0,0-14.814,11.462,2,19.223,0,0,42.342-48.227,116.853-29.93,0,0,16.106-10.936-6.362-18.106,0,0,18.446-9.545-2.406-16.126" transform="translate(-2901.837 -3846.276)" fill="#9aafcf"/>
      <path id="Path_1273" data-name="Path 1273" d="M2916.773,3919.466l-2.987-1.371c-6.421-2.965-9.959-6.961-10.518-11.877a14.489,14.489,0,0,1,3.021-9.95,12.669,12.669,0,0,1-3.212-3.782c-3.551-6.4-.886-14.245-.57-15.118l8.3,3-4.15-1.5,4.158,1.48c-.442,1.26-1.391,5.413-.01,7.874.241.427.972,1.73,3.757,2.326l9.3,1.99-7.518,5.817c-1.456,1.145-4.581,4.486-4.3,6.879.129,1.1,1.089,2.256,2.764,3.375a115.936,115.936,0,0,1,29.372-20.308c18.474-9.069,48.479-17.872,87.217-8.941,1.267-1.213,2.406-2.774,2.26-3.748s-2.181-3.221-8.868-5.354l-10.135-3.235,9.449-4.89c2.54-1.331,4.879-3.508,5.127-4.449-.2-.312-1.422-1.84-6.834-3.547l2.657-8.418c3.058.966,12.362,3.9,12.989,11.183.273,3.175-1.25,5.9-3.2,8.04,4.518,2.537,7,5.649,7.548,9.412,1.078,7.45-6.548,12.863-7.422,13.457l-1.625,1.1-1.907-.469c-29.719-7.3-57.65-4.739-83.016,7.606-19,9.248-29.37,20.84-29.472,20.956Z" transform="translate(-2901.25 -3845.717)" fill="#9aafcf"/>
    </g>
    <g id="Group_244" data-name="Group 244" transform="translate(123.262 450.45)">
      <path id="Path_1274" data-name="Path 1274" d="M2925.608,3898.966s-15.813-13.693-28.728-1.369.151,28.342.151,28.342l34.668,37.651,30.567-24.848Z" transform="translate(-2891.178 -3892.454)" fill="#9aafcf"/>
    </g>
    <g id="Group_245" data-name="Group 245" transform="translate(233.011 418.75)">
      <path id="Path_1275" data-name="Path 1275" d="M3028.534,3872.127s5.294-19.1,24.533-15.011,13.492,24.925,13.492,24.925l-12.3,49.681-38.748-7.094Z" transform="translate(-3015.512 -3856.542)" fill="#9aafcf"/>
    </g>
    <g id="Group_246" data-name="Group 246" transform="translate(109.519 356.049)">
      <path id="Path_1276" data-name="Path 1276" d="M2895.991,3789s-20.016,20.543-14.367,56.628" transform="translate(-2876.196 -3785.916)" fill="#9aafcf"/>
      <path id="Path_1277" data-name="Path 1277" d="M2876.676,3845.9c-5.923-37.833,14.686-59.488,15.566-60.391l6.333,6.15c-.754.783-18.39,19.58-13.179,52.876Z" transform="translate(-2875.608 -3785.507)" fill="#9aafcf"/>
    </g>
    <g id="Group_247" data-name="Group 247" transform="translate(235.716 340.458)">
      <path id="Path_1278" data-name="Path 1278" d="M3020.056,3772.626s27.427,8.391,39.821,42.749" transform="translate(-3018.75 -3768.406)" fill="#9aafcf"/>
      <path id="Path_1279" data-name="Path 1279" d="M3055.552,3816.312c-11.435-31.7-35.938-39.705-36.976-40.031l2.6-8.436c1.206.369,29.687,9.452,42.681,45.472Z" transform="translate(-3018.576 -3767.845)" fill="#9aafcf"/>
    </g>
    <g id="Group_248" data-name="Group 248" transform="translate(208.41 528.13)">
      <rect id="Rectangle_47" data-name="Rectangle 47" width="35.881" height="69.267" rx="17.941" transform="matrix(0.969, -0.248, 0.248, 0.969, 0, 8.903)" fill="#9aafcf"/>
    </g>
    <g id="Group_249" data-name="Group 249" transform="translate(180.506 440.076)">
      <rect id="Rectangle_48" data-name="Rectangle 48" width="42.13" height="8.585" rx="4.292" transform="translate(3.485 13.937) rotate(-14.367)" fill="#9aafcf"/>
      <path id="Path_1280" data-name="Path 1280" d="M2964.74,3906.437a8.707,8.707,0,0,1-2.162-17.14l32.5-8.323a8.706,8.706,0,1,1,4.32,16.867h0l-32.5,8.324A8.69,8.69,0,0,1,2964.74,3906.437Z" transform="translate(-2956.029 -3880.701)" fill="#9aafcf"/>
    </g>
    <g id="Group_250" data-name="Group 250" transform="translate(155.253 426.321)">
      <path id="Path_1281" data-name="Path 1281" d="M2947.911,3884.421s-15.245,2.457-15.49,18.4l1.5,71.963s.073,17.333,27.976,10.185l71.781-18.385s29.692-5.44,22.067-22.3l-33.939-63.6s-4.973-13.956-21.1-9.792Z" transform="translate(-2928.007 -3865.705)" fill="#9aafcf"/>
      <path id="Path_1282" data-name="Path 1282" d="M2949.289,3990.522c-5.8,0-10.5-1.38-14.066-4.134a16.214,16.214,0,0,1-6.3-12.172l-1.5-71.969,0-.079c.235-15.371,12.4-21.505,18.987-22.655l52.618-13.478c15.551-4.012,23.861,6.073,26.226,12.253l33.927,63.594c2.2,4.859,2.184,9.673-.041,13.921-5.454,10.414-22.468,14.01-25.1,14.507l-71.638,18.349A53.449,53.449,0,0,1,2949.289,3990.522Zm-13.04-88.295,1.5,71.878a7.53,7.53,0,0,0,2.979,5.379c2.555,1.907,8.011,3.565,19.49.624l71.929-18.424.15-.028c3.969-.736,16-4.148,19.028-9.955.592-1.135,1.218-2.993-.131-6.06l-34.021-63.75-.109-.308c-.379-1-4.141-10.021-15.836-7l-53,13.576-.179.028C2946.812,3888.406,2936.471,3890.583,2936.249,3902.227Z" transform="translate(-2927.42 -3865.118)" fill="#9aafcf"/>
    </g>
    <g id="Group_283" data-name="Group 283" transform="translate(0)">
      <g id="Group_274" data-name="Group 274">
        <g id="Group_252" data-name="Group 252" transform="translate(117.823 230.859)">
          <g id="Group_251" data-name="Group 251">
            <path id="Path_1283" data-name="Path 1283" d="M2915.585,3661.936a5.078,5.078,0,0,0,3.3-2.459,7.694,7.694,0,0,0,.439-4.164,4.513,4.513,0,0,0-.712-2.421,2.486,2.486,0,0,0-.182-.2,4.535,4.535,0,0,0-.9-.659c-3.429-2.058-7.368-2.418-11.077-3.675l-6.38-2.161c-2.582-.876-5.1-2.243-7.844-2.482a7.469,7.469,0,0,0-4.021.749c-.886.425-2.877,1.1-3.163,2.163-.357,1.339,2.427,2.679,3.333,3.27l3.616,2.358c3.072,2,6.145,4.008,9.317,5.834C2905.54,3660.519,2910.57,3663.265,2915.585,3661.936Z" transform="translate(-2885.015 -3643.68)" fill="#9aafcf"/>
          </g>
        </g>
        <g id="Group_254" data-name="Group 254" transform="translate(199.19 224.96)">
          <g id="Group_253" data-name="Group 253">
            <path id="Path_1284" data-name="Path 1284" d="M3007.167,3642.807c.821-.705,3.4-2.4,2.873-3.681-.424-1.021-2.487-1.422-3.42-1.727a7.466,7.466,0,0,0-4.086-.213c-2.691.6-5,2.287-7.447,3.495q-3.019,1.494-6.039,2.984c-3.51,1.735-7.367,2.611-10.495,5.1a4.543,4.543,0,0,0-.8.771,2.484,2.484,0,0,0-.154.227,4.512,4.512,0,0,0-.386,2.494,7.7,7.7,0,0,0,.983,4.069,5.083,5.083,0,0,0,3.594,2c5.148.656,9.771-2.73,13.641-5.7,2.9-2.228,5.685-4.62,8.466-7.01Z" transform="translate(-2977.196 -3636.997)" fill="#9aafcf"/>
          </g>
        </g>
        <g id="Group_256" data-name="Group 256">
          <g id="Group_255" data-name="Group 255">
            <path id="Path_1285" data-name="Path 1285" d="M2796.417,3631.767l-9.945-5.856a29.882,29.882,0,0,1-3.248-3.685,22.594,22.594,0,0,1-2.718-4.585l0,0c-1.7-2.867-1.123-4.212-2.528-7.194a13.44,13.44,0,0,1-3.639.226c-6.428-.2-22.414-15.23-22.8-30.375-.229-9.124,5.071-7.65,2.844-15.609s1.063-6.9,4.678-12.963a7.717,7.717,0,0,0,.986-5.2,39,39,0,0,1,4.8-31.553,57.63,57.63,0,0,1,6.85-8.841,21.751,21.751,0,0,1,6.008-4.226,2.89,2.89,0,0,0,1.863-3.207c-.287-8.62-9.853-12.192-5.716-19.7q1.168-2.12,2.5-4.083a39.665,39.665,0,0,1,9.641-10.168,5.672,5.672,0,0,0,1.143-1.107,10.9,10.9,0,0,0,1.546-4.2,34.031,34.031,0,0,1,5.289-12.79,27.963,27.963,0,0,1,10.209-9.027c3.891-2.05,8.287-3.035,12.176-5.088a15.994,15.994,0,0,0,5.831-5.437c7.392-11.841,18.831-15.818,31.1-18.341a10.042,10.042,0,0,1,3.721-.409c4.427.832,7.583-.874,10.73-4.2,5.818-6.152,12.955-8.6,21.249-6.42a3.649,3.649,0,0,0,2.638-.941c5.506-4.346,11.667-7.69,18.447-7.881,6.013-.168,10.87-2.557,16.021-5.08,7.23-3.541,14.074-.9,20.607,2.636a4.9,4.9,0,0,0,4.926.231,21.06,21.06,0,0,1,19.538.559,38.569,38.569,0,0,1,6.591,4.375c2.944,2.5,6.493,2.108,9.785,2.579a22.3,22.3,0,0,1,12.9,6.4c3.065,3.044,5.742,6.519,8.679,9.711a4.853,4.853,0,0,0,2.462,1.388,39.218,39.218,0,0,1,20.961,11.952,22.528,22.528,0,0,1,3.966,6.69,13.469,13.469,0,0,0,5.637,6.577c5.021,2.991,8.109,7.555,10.176,13.131a7.127,7.127,0,0,0,3.035,3.282c4.474,2.59,3.94.619,6.917,6.119a9.151,9.151,0,0,0,2.407,2.894c8.279,6.245,6.306,3.123,7.982,13.71.506,3.2,7.295,8.583,8.766,11.176,6.593,11.617,7.9,14.749,5.133,27.861a3.389,3.389,0,0,0,1,3.69c12.981,12.623,12.18,31.341,12.18,31.341s4.233,19.541-.409,26.062a36.7,36.7,0,0,1-5.414,6.059,2.161,2.161,0,0,0-.459.643,5.671,5.671,0,0,0-.514,2.365c-.009,6.326-2.378,11.772-5.528,16.92-.044.071-.1.145-.143.217a6.732,6.732,0,0,1-2.5,2.584c-3.329,1.517-3.121,9.367-5.189,12.227-2.735,3.782-6.8,5.736-11.337,6.412-.68-.036-1.325-.015-1.978-.009-6.96.594-6.3,5.936-6.3,5.936s3.427,10.334-10.039,8.45,0,.012,0,.012c-1.84,1.765-1.365,3.15-5.206,5.728s-12.159-.537-12.159-.537l-1.3-.7c-.937-.659-.162-.183-1.044-.912-.3-.346-.643-.71-1.054-1.116-2.755-2.727-2.257-1.6-2.935-5.116-.435-2.252-1.112-3.353-3.6-3.4a20.346,20.346,0,0,1-13.584-5.779,40.171,40.171,0,0,1-12.653-21.24c-.476-2.123-1.395-3.25-3.582-3.445-9.746-.869-16.769-5.409-22.437-11.764a33.722,33.722,0,0,1-3.677.349,24,24,0,0,1-12.909,2.34c-.408.026-.815.072-1.222.083a28.165,28.165,0,0,1-5.255-.358,37.956,37.956,0,0,1-9.944,5.195,21.705,21.705,0,0,1-8.366,2.166c-1.049.177-2.094.332-3.122.443-10.588,1.141-20.983-.8-29.314-6.938-.185-.03-.364-.078-.547-.112-.068.133-.151.246-.219.376-.426.8-.881,1.567-1.35,2.315-.2.314-.384.642-.588.947a33.972,33.972,0,0,1-2.1,2.837,35.471,35.471,0,0,1-19.128,11.758c-2.916.752-6.136.45-9.2.255-1.84-.116-3.233.135-4.21,1.376a5.814,5.814,0,0,0-.693,1.375,51.115,51.115,0,0,1-2.591,5.025,47.373,47.373,0,0,1-2.578,4.579c-.363.575-.748,1.118-1.13,1.665-.446.637-.889,1.276-1.359,1.877-.686.875-1.383,1.731-2.119,2.531l-.267.287a44.055,44.055,0,0,1-16.783,11.013c-8.507,1.81-4.981-2.5-11.815-3.1a3.652,3.652,0,0,0-1.044-.213c-1.945-.125-3.863-.371-5.76-.683a68.736,68.736,0,0,1-16.664-5.347c-.046.123-.174.178-.35.2" transform="translate(-2751.535 -3382.141)" fill="#9aafcf"/>
          </g>
        </g>
        <g id="Group_258" data-name="Group 258" transform="translate(68.919 240.196)">
          <g id="Group_257" data-name="Group 257">
            <path id="Path_1286" data-name="Path 1286" d="M2957.672,3780.367c-34.159,6.534-69-2.514-95.673-26.811-29.124-26.53-32.262-85.782-32.381-88.291a4.341,4.341,0,0,1,8.672-.414c.028.579,3.1,58.185,29.555,82.288,24.56,22.375,56.706,30.687,88.27,24.654a118.064,118.064,0,0,0,46.028-19.943c32.412-22.963,36.918-71.789,37.35-91.715.034-1.56.129-5.7,4.233-5.872s4.543,3.905,4.7,5.439a4.321,4.321,0,0,1-.295,2.089c-.769,26.657-7.254,73.252-40.975,97.14A126.964,126.964,0,0,1,2957.672,3780.367Z" transform="translate(-2829.613 -3654.258)" fill="#9aafcf"/>
          </g>
        </g>
        <g id="Group_271" data-name="Group 271" transform="translate(134.4 293.34)">
          <g id="Group_260" data-name="Group 260">
            <g id="Group_259" data-name="Group 259">
              <path id="Path_1287" data-name="Path 1287" d="M2962.6,3757.993a62.753,62.753,0,0,1-6.994,1.208c-1.042.054-23.221,1.043-35.758-6.774-12.757-7.954-14.985-15.645-15.5-21.456h0c-.6-6.822,4.752-9.445,9.488-10.969,4.615-1.471,8.57.544,13.155,2.888a52.823,52.823,0,0,0,11.2,4.586c10.8,2.8,20.631,1.788,29.213-3.018a51.176,51.176,0,0,0,5.973-4.067c3.5-2.644,6.81-5.149,11.575-5.4,5.363-.291,12.047,2.152,14.448,7.385,3.334,7.265-3.474,15.681-5.712,18.447C2985.049,3751.491,2971.011,3756.1,2962.6,3757.993Zm-54.168-27.4c.46,5.188,2.438,11.431,13.616,18.4,11.44,7.133,33.055,6.174,33.271,6.163.13-.014,23.576-2.531,35.167-16.86,1.848-2.285,7.471-9.235,5.175-14.239-1.569-3.419-6.575-5.24-10.509-5.028-3.5.19-6.059,2.123-9.3,4.572a55.623,55.623,0,0,1-6.443,4.376c-9.55,5.339-20.41,6.491-32.28,3.412a57.088,57.088,0,0,1-12.037-4.9c-4.08-2.086-7.022-3.6-10.005-2.636-5.9,1.9-6.907,3.909-6.655,6.742Z" transform="translate(-2903.855 -3714.524)" fill="#9aafcf"/>
              <path id="Path_1288" data-name="Path 1288" d="M2952,3759.656c-7,0-22.567-.75-32.451-6.914-12.924-8.057-15.183-15.878-15.707-21.791-.632-7.132,4.9-9.854,9.792-11.428,4.8-1.531,8.828.53,13.492,2.916a52.41,52.41,0,0,0,11.108,4.551c10.685,2.774,20.405,1.773,28.887-2.975a50.9,50.9,0,0,0,5.9-4.021c3.594-2.715,6.948-5.247,11.835-5.5,5.509-.311,12.389,2.23,14.872,7.641,3.449,7.513-3.49,16.09-5.769,18.907-8.853,10.942-23.431,15.551-31.333,17.326a63.071,63.071,0,0,1-7.047,1.215C2955.368,3759.592,2954.054,3759.656,2952,3759.656Zm-35.061-39.77a9.9,9.9,0,0,0-3.036.477c-4.578,1.473-9.759,4-9.182,10.51.506,5.708,2.7,13.269,15.295,21.12,12.549,7.824,35.275,6.719,35.5,6.707a62.643,62.643,0,0,0,6.919-1.2h0c7.791-1.75,22.156-6.286,30.84-17.019,2.194-2.713,8.874-10.969,5.653-17.984-2.32-5.053-8.816-7.393-14.023-7.129-4.618.244-7.866,2.7-11.305,5.293a51.849,51.849,0,0,1-6.05,4.121c-8.687,4.863-18.627,5.891-29.54,3.06a53.149,53.149,0,0,1-11.28-4.616C2923.287,3721.465,2920.2,3719.886,2916.943,3719.886Zm35.327,35.711c-6.414,0-21.475-.646-30.517-6.285-11.343-7.071-13.353-13.44-13.823-18.736-.265-2.978.808-5.221,6.96-7.2,3.142-1.02,6.134.512,10.276,2.629a56.935,56.935,0,0,0,12.011,4.9c11.75,3.049,22.5,1.916,31.953-3.37a55.159,55.159,0,0,0,6.394-4.343c3.3-2.494,5.909-4.464,9.543-4.661,4.094-.228,9.287,1.695,10.933,5.284,2.411,5.254-3.342,12.363-5.233,14.7-11.516,14.237-34.486,16.914-35.458,17.021C2955.255,3755.543,2954.123,3755.6,2952.27,3755.6Zm-35.353-31.655a5.633,5.633,0,0,0-1.755.274c-5.649,1.817-6.59,3.61-6.353,6.283h0c.45,5.08,2.4,11.2,13.411,18.066,11.239,7.007,32.8,6.1,33.015,6.1.936-.1,23.556-2.741,34.847-16.7,1.8-2.231,7.3-9.021,5.117-13.777-1.491-3.247-6.3-4.968-10.083-4.771-3.366.183-5.878,2.081-9.059,4.484a55.95,55.95,0,0,1-6.495,4.409c-9.656,5.4-20.626,6.56-32.607,3.455a57.461,57.461,0,0,1-12.125-4.94C2921.645,3725.2,2919.189,3723.942,2916.917,3723.942Z" transform="translate(-2903.796 -3714.465)" fill="#9aafcf"/>
            </g>
          </g>
          <g id="Group_262" data-name="Group 262" transform="translate(7.296 9.748)">
            <g id="Group_261" data-name="Group 261">
              <path id="Path_1289" data-name="Path 1289" d="M2916.066,3746.172l-3.3-2.384L2925.8,3726.2l3.3,2.385Z" transform="translate(-2912.144 -3725.59)" fill="#9aafcf"/>
              <path id="Path_1290" data-name="Path 1290" d="M2916.078,3746.7l-4.017-2.9,13.563-18.294,4.018,2.9Zm-2.776-3.094,2.586,1.868L2928.4,3728.6l-2.587-1.869Z" transform="translate(-2912.061 -3725.509)" fill="#9aafcf"/>
            </g>
          </g>
          <g id="Group_264" data-name="Group 264" transform="translate(22.843 13.708)">
            <g id="Group_263" data-name="Group 263">
              <path id="Path_1291" data-name="Path 1291" d="M2934.191,3756.357l-3.878-1.293,8.455-24.438,3.878,1.293Z" transform="translate(-2929.75 -3730.069)" fill="#9aafcf"/>
              <path id="Path_1292" data-name="Path 1292" d="M2934.391,3756.839l-4.716-1.572,8.744-25.272,4.715,1.572Zm-3.591-2.127,3.042,1.014,8.166-23.6-3.041-1.013Z" transform="translate(-2929.675 -3729.995)" fill="#9aafcf"/>
            </g>
          </g>
          <g id="Group_266" data-name="Group 266" transform="translate(43.683 15.727)">
            <g id="Group_265" data-name="Group 265">
              <path id="Path_1293" data-name="Path 1293" d="M2957.889,3759.549l-4.1-.022.287-26.742,4.1.022Z" transform="translate(-2953.344 -3732.341)" fill="#9aafcf"/>
              <path id="Path_1294" data-name="Path 1294" d="M2958.267,3759.933l-4.983-.027.3-27.625,4.983.028Zm-4.091-.9,3.218.017.278-25.859-3.217-.018Z" transform="translate(-2953.284 -3732.282)" fill="#9aafcf"/>
            </g>
          </g>
          <g id="Group_268" data-name="Group 268" transform="translate(55.949 13.237)">
            <g id="Group_267" data-name="Group 267">
              <path id="Path_1295" data-name="Path 1295" d="M2977.421,3755.96l-9.592-24.368,3.822-1.485,9.592,24.367Z" transform="translate(-2967.256 -3729.537)" fill="#9aafcf"/>
              <path id="Path_1296" data-name="Path 1296" d="M2977.095,3756.455l-9.915-25.188,4.645-1.805,9.916,25.189Zm-8.768-24.687,9.268,23.546,3-1.165-9.268-23.546Z" transform="translate(-2967.18 -3729.461)" fill="#9aafcf"/>
            </g>
          </g>
          <g id="Group_270" data-name="Group 270" transform="translate(66.063 5.935)">
            <g id="Group_269" data-name="Group 269">
              <path id="Path_1297" data-name="Path 1297" d="M2996.961,3744.361l-17.612-19.786,3.084-2.684,17.612,19.786Z" transform="translate(-2978.722 -3721.271)" fill="#9aafcf"/>
              <path id="Path_1298" data-name="Path 1298" d="M2996.839,3744.9l-.29-.327-17.91-20.118,3.75-3.265.29.328,17.91,20.118Zm-16.946-20.365,17.025,19.126,2.417-2.1-17.025-19.126Z" transform="translate(-2978.639 -3721.189)" fill="#9aafcf"/>
            </g>
          </g>
        </g>
        <g id="Group_272" data-name="Group 272" transform="translate(130.238 261.157)">
          <ellipse id="Ellipse_77" data-name="Ellipse 77" cx="8.259" cy="8.259" rx="8.259" ry="8.259" transform="translate(0.442 0.442)" fill="#9aafcf"/>
          <path id="Path_1299" data-name="Path 1299" d="M2907.782,3695.406a8.7,8.7,0,1,1,8.7-8.7A8.711,8.711,0,0,1,2907.782,3695.406Zm0-16.518a7.818,7.818,0,1,0,7.817,7.817A7.827,7.827,0,0,0,2907.782,3678.887Z" transform="translate(-2899.081 -3678.005)" fill="#9aafcf"/>
        </g>
        <g id="Group_273" data-name="Group 273" transform="translate(206.946 257.189)">
          <ellipse id="Ellipse_78" data-name="Ellipse 78" cx="8.259" cy="8.259" rx="8.259" ry="8.259" transform="translate(0.442 0.441)" fill="#9aafcf"/>
          <path id="Path_1300" data-name="Path 1300" d="M2994.684,3690.909a8.7,8.7,0,1,1,8.7-8.7A8.711,8.711,0,0,1,2994.684,3690.909Zm0-16.518a7.818,7.818,0,1,0,7.817,7.817A7.826,7.826,0,0,0,2994.684,3674.392Z" transform="translate(-2985.983 -3673.509)" fill="#9aafcf"/>
        </g>
      </g>
      <g id="Group_276" data-name="Group 276" transform="translate(55.34 250.933)">
        <g id="Group_275" data-name="Group 275">
          <path id="Path_1301" data-name="Path 1301" d="M2840.7,3719.29a4.319,4.319,0,0,1-2.14-.134c-28.353-9.122-24.2-47.281-24.008-48.9a4.341,4.341,0,0,1,8.623,1.011c-.051.454-3.461,32.708,18.044,39.626a4.342,4.342,0,0,1-.518,8.4Z" transform="translate(-2814.229 -3666.421)" fill="#9aafcf"/>
        </g>
      </g>
      <g id="Group_278" data-name="Group 278" transform="translate(274.022 253.034)">
        <g id="Group_277" data-name="Group 277">
          <path id="Path_1302" data-name="Path 1302" d="M3067.126,3720.688a4.341,4.341,0,0,1-1.955-8.453c21.92-5.987,19.818-38.451,19.794-38.778a4.34,4.34,0,1,1,8.658-.63c.119,1.627,2.567,39.935-26.164,47.784Q3067.292,3720.656,3067.126,3720.688Z" transform="translate(-3061.973 -3668.802)" fill="#9aafcf"/>
        </g>
      </g>
      <g id="Group_280" data-name="Group 280" transform="translate(14.816 218.52)">
        <g id="Group_279" data-name="Group 279">
          <path id="Path_1303" data-name="Path 1303" d="M2769.23,3629.7s-4.2,6.189,5.428,15.037c0,0,2.565,18.065,16.3,21.879,0,0,4.139,16.508,23.549,12.961,0,0-6.225-17.064-6.127-16.972s-1.848-25.127-1.848-25.127Z" transform="translate(-2768.32 -3629.701)" fill="#9aafcf"/>
        </g>
      </g>
      <g id="Group_282" data-name="Group 282" transform="translate(298.777 210.555)">
        <g id="Group_281" data-name="Group 281">
          <path id="Path_1304" data-name="Path 1304" d="M3129.006,3620.678s5.738,5.58-2.892,16c0,0,.788,18.6-13.268,24.594,0,0-1.214,17.281-22.828,16.737,0,0,3.352-18.167,3.264-18.059s-2.95-25.609-2.95-25.609Z" transform="translate(-3090.018 -3620.678)" fill="#9aafcf"/>
        </g>
      </g>
    </g>
    <g id="Group_284" data-name="Group 284" transform="translate(145.01 384.794)">
      <path id="Path_1305" data-name="Path 1305" d="M2926.332,3872.247s-10.328-10.964-2.8-23.163,21.927-18.839,36.41-22.548,36.17-7.575,47.424,6.4c5.248,7.814,1,18.482,1,18.482a55.305,55.305,0,0,1-35.107,27.122C2947.821,3885.061,2926.332,3872.247,2926.332,3872.247Z" transform="translate(-2916.398 -3818.658)" fill="#9aafcf"/>
      <path id="Path_1306" data-name="Path 1306" d="M2957.774,3884.231a72.387,72.387,0,0,1-34.286-8.779l-.531-.316-.422-.449c-4.375-4.644-10.7-16.578-3.345-28.506,7.049-11.427,20.2-19.671,39.072-24.507,16.222-4.155,39.264-7.858,51.957,7.912l.226.307c6.47,9.635,1.65,22.051,1.44,22.574l-.1.244c-.43.918-10.862,22.57-38.007,29.522A64.363,64.363,0,0,1,2957.774,3884.231Zm-29.2-16.047c3.455,1.846,21.944,10.894,43.006,5.5a51.075,51.075,0,0,0,32.144-24.593c.372-1.035,2.951-8.753-.509-14.122-9.548-11.621-28.966-8.278-42.765-4.742-16.587,4.248-27.942,11.176-33.75,20.59C2921.771,3858.812,2927.014,3866.257,2928.577,3868.184Z" transform="translate(-2915.816 -3818.072)" fill="#9aafcf"/>
    </g>
    <g id="Group_285" data-name="Group 285" transform="translate(82.606 418.014)">
      <path id="Path_1307" data-name="Path 1307" d="M2851.405,3880.191s-5.347,10.617,5.762,13.28l58.24-16.885L2911.671,3862Z" transform="translate(-2845.706 -3856.445)" fill="#9aafcf"/>
      <path id="Path_1308" data-name="Path 1308" d="M2856.688,3897.3l-1.136-.272c-5.7-1.367-8.225-4.51-9.337-6.906-2.661-5.735.314-11.959.661-12.651l.853-1.692,66.488-20.069,5.94,23.19Zm-2.483-14.255a5.409,5.409,0,0,0,.024,3.379,3.8,3.8,0,0,0,2.343,1.719l52.912-15.339-1.532-5.982Z" transform="translate(-2845.119 -3855.707)" fill="#9aafcf"/>
    </g>
    <g id="Group_286" data-name="Group 286" transform="translate(231.239 383.277)">
      <path id="Path_1309" data-name="Path 1309" d="M3081.232,3821.69s9.793,6.739,1.331,14.415l-59.186,13.192-3.736-14.586Z" transform="translate(-3014.224 -3816.98)" fill="#9aafcf"/>
      <path id="Path_1310" data-name="Path 1310" d="M3019.443,3853.908l-5.939-23.188,67.949-14.366,1.562,1.073c.637.438,6.237,4.467,6.662,10.776.177,2.636-.524,6.6-4.868,10.545l-.865.785Zm4.9-16.458,1.533,5.981,53.77-11.985a3.785,3.785,0,0,0,1.226-2.652,5.459,5.459,0,0,0-1.6-2.957Z" transform="translate(-3013.504 -3816.354)" fill="#9aafcf"/>
    </g>
    <g id="Group_287" data-name="Group 287" transform="translate(185.635 434.851)">
      <path id="Path_1311" data-name="Path 1311" d="M2961.839,3882.249l29.154-7.468,20.784,81.146s-13.12,14.89-29.154,7.468Z" transform="translate(-2961.839 -3874.782)" fill="#9aafcf"/>
    </g>
    <g id="Group_288" data-name="Group 288" transform="translate(196.714 507.138)">
      <path id="Path_1312" data-name="Path 1312" d="M2983.148,4009.008s-15.076-38.616,15.111-46.349,36.937,33.017,36.937,33.017Z" transform="translate(-2974.977 -3957.263)" fill="#9aafcf"/>
      <path id="Path_1313" data-name="Path 1313" d="M2979.873,4013.665l-1.421-3.64c-.355-.908-8.595-22.432-.541-38.133,3.649-7.115,9.929-11.857,18.667-14.1s16.591-1.124,23.379,3.3c14.96,9.756,18.849,32.313,19.007,33.268l.661,3.992Zm25.149-48.163a25.18,25.18,0,0,0-6.254.845c-6.27,1.605-10.524,4.737-13,9.573-4.262,8.312-2.273,20.313-.308,27.2l43.9-11.243c-1.646-6.146-5.77-17.894-14.239-23.4A18.047,18.047,0,0,0,3005.021,3965.5Z" transform="translate(-2974.391 -3956.675)" fill="#9aafcf"/>
    </g>
    <g id="Group_289" data-name="Group 289" transform="translate(91.186 412.01)">
      <path id="Path_1314" data-name="Path 1314" d="M2866.759,3881.988s-17-13.354-2.692-22.034,24.709-10.756,28.081-1.586a32.707,32.707,0,0,1,1.752,16.668S2887.207,3892.687,2866.759,3881.988Z" transform="translate(-2855.25 -3849.315)" fill="#9aafcf"/>
      <path id="Path_1315" data-name="Path 1315" d="M2878.468,3888.118a29.512,29.512,0,0,1-13.552-3.8l-.251-.132-.224-.176c-1.035-.813-10.092-8.186-9.58-16.683.251-4.17,2.673-7.677,7.194-10.421,11.428-6.938,19.8-9.329,25.591-7.3a11.377,11.377,0,0,1,6.993,7.289,35.746,35.746,0,0,1,1.872,18.387l-.132.443c-.124.33-3.164,8.133-11.214,11.193A18.7,18.7,0,0,1,2878.468,3888.118Zm-10.422-9.139c5.788,2.972,10.788,3.706,14.865,2.181,4.825-1.8,7.126-6.37,7.6-7.425a30.557,30.557,0,0,0-1.674-14.71c-.929-2.529-2.29-3.259-3.232-3.589-2.671-.933-8.368-.521-20.346,6.75-2.719,1.65-4.1,3.45-4.23,5.5C2860.76,3872.032,2865.81,3877.142,2868.046,3878.979Z" transform="translate(-2854.839 -3848.906)" fill="#9aafcf"/>
    </g>
    <g id="Group_290" data-name="Group 290" transform="translate(125.354 409.814)">
      <path id="Path_1316" data-name="Path 1316" d="M2897.152,3853.535s1.725-6.64,7.561-1.937.628,12.021.628,12.021S2900.209,3866.622,2897.152,3853.535Z" transform="translate(-2893.971 -3846.828)" fill="#9aafcf"/>
      <path id="Path_1317" data-name="Path 1317" d="M2903.613,3866.6a6.45,6.45,0,0,1-2.562-.543c-3.346-1.438-5.744-5.438-7.33-12.229l-.173-.742.191-.737c.117-.451,1.248-4.44,4.83-5.624,1.652-.545,4.323-.631,7.659,2.058,6.41,5.164,3.592,12.866,1.207,16.217l-.384.54-.573.334A5.865,5.865,0,0,1,2903.613,3866.6Zm-3.654-13.279c1.152,4.487,2.454,6.248,3.168,6.839.812-1.669,1.683-4.586-.774-6.565a3.659,3.659,0,0,0-1.855-1A1.9,1.9,0,0,0,2899.959,3853.32Z" transform="translate(-2893.548 -3846.418)" fill="#9aafcf"/>
    </g>
    <g id="Group_291" data-name="Group 291" transform="translate(250.187 373.663)">
      <path id="Path_1318" data-name="Path 1318" d="M3072.228,3829.677s8.483-19.88-8.232-20.615-26.836,2.447-25.385,12.109a32.7,32.7,0,0,0,6.477,15.458S3059.441,3848.888,3072.228,3829.677Z" transform="translate(-3035.382 -3805.872)" fill="#9aafcf"/>
      <path id="Path_1319" data-name="Path 1319" d="M3055.412,3843.162a21.238,21.238,0,0,1-12.742-4.594l-.328-.325a35.731,35.731,0,0,1-7.2-17.024,11.374,11.374,0,0,1,2.628-9.752c4.1-4.559,12.586-6.49,25.949-5.9,5.282.233,9.09,2.144,11.316,5.681,4.534,7.2.137,18.024-.38,19.234l-.111.262-.158.236c-4.729,7.1-10.282,11.146-16.506,12.013A17.963,17.963,0,0,1,3055.412,3843.162Zm-8.551-9.154c.9.68,5.115,3.592,10.232,2.854,4.308-.624,8.34-3.672,11.985-9.06,1.078-2.685,3.05-9.592.726-13.273-1.1-1.738-3.177-2.652-6.355-2.791-13.993-.623-19.193,1.759-21.084,3.862-.668.742-1.51,2.037-1.11,4.7A30.57,30.57,0,0,0,3046.862,3834.008Z" transform="translate(-3034.971 -3805.462)" fill="#9aafcf"/>
    </g>
    <g id="Group_292" data-name="Group 292" transform="translate(239.559 380.365)">
      <path id="Path_1320" data-name="Path 1320" d="M3034.621,3818.3s-4.7-4.993-7.561,1.937,5.227,10.842,5.227,10.842S3038.232,3831.241,3034.621,3818.3Z" transform="translate(-3023.342 -3813.466)" fill="#9aafcf"/>
      <path id="Path_1321" data-name="Path 1321" d="M3031.88,3833.753h-.091l-.663-.02-.6-.289c-3.7-1.792-9.876-7.19-6.739-14.8,1.635-3.964,4.017-5.171,5.728-5.487,3.713-.683,6.619,2.269,6.938,2.608l.524.554.2.734c1.874,6.718,1.695,11.379-.548,14.249A6.134,6.134,0,0,1,3031.88,3833.753Zm-1.23-14.519h-.017A3.744,3.744,0,0,0,3029.5,3821c-1.206,2.925.974,5.067,2.477,6.132.343-.86.638-3.03-.507-7.521A2.032,2.032,0,0,0,3030.65,3819.234Z" transform="translate(-3022.93 -3813.055)" fill="#9aafcf"/>
    </g>
    <g id="Group_293" data-name="Group 293" transform="translate(95.454 429.716)">
      <rect id="Rectangle_49" data-name="Rectangle 49" width="56.599" height="8.862" rx="4.431" transform="translate(1.035 18.923) rotate(-18.425)" fill="#9aafcf"/>
      <path id="Path_1322" data-name="Path 1322" d="M2866.318,3897.329a6.64,6.64,0,0,1-2.1-12.937L2909.5,3869.3a6.639,6.639,0,0,1,4.2,12.6h0l-45.29,15.088A6.6,6.6,0,0,1,2866.318,3897.329Zm45.277-23.95a2.2,2.2,0,0,0-.7.113l-45.289,15.089a2.236,2.236,0,0,0-1.407,2.814,2.229,2.229,0,0,0,2.812,1.406l45.291-15.088a2.22,2.22,0,0,0,.29-4.1A2.243,2.243,0,0,0,2911.6,3873.379Z" transform="translate(-2859.674 -3868.964)" fill="#9aafcf"/>
    </g>
    <g id="Group_294" data-name="Group 294" transform="translate(237.358 395.966)">
      <rect id="Rectangle_50" data-name="Rectangle 50" width="56.599" height="8.862" rx="4.431" transform="translate(1.45 12.152) rotate(-10.899)" fill="#9aafcf"/>
      <path id="Path_1323" data-name="Path 1323" d="M3027.069,3853.033a6.639,6.639,0,0,1-1.248-13.157l46.876-9.026a6.638,6.638,0,0,1,2.509,13.037l-46.875,9.026A6.669,6.669,0,0,1,3027.069,3853.033Zm46.881-17.89a2.252,2.252,0,0,0-.418.041l-46.876,9.026a2.228,2.228,0,0,0-1.764,2.6,2.236,2.236,0,0,0,2.606,1.764l46.875-9.025a2.226,2.226,0,0,0-.423-4.409Z" transform="translate(-3020.436 -3830.729)" fill="#9aafcf"/>
    </g>
    <g id="Group_295" data-name="Group 295" transform="translate(136.41 389.799)">
      <rect id="Rectangle_51" data-name="Rectangle 51" width="12.268" height="16.295" rx="3.981" transform="translate(2.972 12.331) rotate(-49.735)" fill="#9aafcf"/>
      <path id="Path_1324" data-name="Path 1324" d="M2921.064,3849.578a7.894,7.894,0,0,1-5.118-1.875l-7.072-5.99a7.936,7.936,0,0,1-.925-11.174l3.386-4a7.935,7.935,0,0,1,11.173-.925l7.071,5.989a7.938,7.938,0,0,1,.926,11.173l-3.387,4A7.911,7.911,0,0,1,2921.064,3849.578Zm-5.8-14.019,5.7,4.827,2.223-2.626-5.7-4.827Z" transform="translate(-2906.073 -3823.743)" fill="#9aafcf"/>
    </g>
    <g id="Group_296" data-name="Group 296" transform="translate(215.104 370.027)">
      <rect id="Rectangle_52" data-name="Rectangle 52" width="12.268" height="16.295" rx="3.981" transform="matrix(-0.934, -0.358, 0.358, -0.934, 14.841, 22.999)" fill="#9aafcf"/>
      <path id="Path_1325" data-name="Path 1325" d="M3008.039,3827.732a7.908,7.908,0,0,1-2.834-.528l-4.895-1.879a7.937,7.937,0,0,1-4.559-10.24l3.322-8.654a7.936,7.936,0,0,1,10.242-4.558l4.892,1.877a7.938,7.938,0,0,1,4.56,10.243l-3.322,8.651a7.958,7.958,0,0,1-7.407,5.088Zm-3.725-10.325,3.213,1.233,2.676-6.971-3.211-1.233Zm-.839-.321h0Z" transform="translate(-2995.225 -3801.344)" fill="#9aafcf"/>
    </g>
    <g id="Group_297" data-name="Group 297" transform="translate(93.905 382.992)">
      <path id="Path_1326" data-name="Path 1326" d="M2904.865,3834.558l-16.056-9.572-30.428,1.6-.462-8.815,33.107-1.736,18.359,10.945Z" transform="translate(-2857.919 -3816.031)" fill="#9aafcf"/>
    </g>
    <g id="Group_298" data-name="Group 298" transform="translate(226.901 340.238)">
      <path id="Path_1327" data-name="Path 1327" d="M3016.2,3804.888l-7.608-4.476,10.836-18.424,29.865-14.393,3.833,7.951-27.45,13.229Z" transform="translate(-3008.59 -3767.596)" fill="#9aafcf"/>
    </g>
    <g id="Group_299" data-name="Group 299" transform="translate(54.273 374.46)">
      <rect id="Rectangle_53" data-name="Rectangle 53" width="36.843" height="21.98" rx="8" transform="translate(2.885 12.026) rotate(-14.367)" fill="#9aafcf"/>
      <path id="Path_1328" data-name="Path 1328" d="M2826.442,3842.569a11.515,11.515,0,0,1-11.111-8.631l-1.95-7.612a11.5,11.5,0,0,1,8.269-13.963l22.009-5.638a11.49,11.49,0,0,1,13.964,8.27l1.949,7.611a11.488,11.488,0,0,1-8.269,13.963l-22.01,5.638A11.525,11.525,0,0,1,2826.442,3842.569Zm20.041-27.372a2.507,2.507,0,0,0-.634.08l-22.01,5.638a2.668,2.668,0,0,0-1.908,3.221l1.95,7.612a2.669,2.669,0,0,0,3.223,1.909l22.009-5.638a2.683,2.683,0,0,0,1.908-3.223l-1.949-7.612A2.692,2.692,0,0,0,2846.484,3815.2Z" transform="translate(-2813.02 -3806.365)" fill="#9aafcf"/>
    </g>
    <g id="Group_300" data-name="Group 300" transform="translate(261.705 321.331)">
      <rect id="Rectangle_54" data-name="Rectangle 54" width="36.843" height="21.98" rx="8" transform="translate(2.884 12.024) rotate(-14.367)" fill="#9aafcf"/>
      <path id="Path_1329" data-name="Path 1329" d="M3061.441,3782.377a11.517,11.517,0,0,1-11.111-8.631l-1.949-7.611a11.495,11.495,0,0,1,8.269-13.962l22.009-5.638a11.492,11.492,0,0,1,13.963,8.268l1.95,7.612a11.491,11.491,0,0,1-8.268,13.965h0l-22.01,5.637A11.47,11.47,0,0,1,3061.441,3782.377Zm20.042-27.372a2.486,2.486,0,0,0-.633.081l-22.01,5.637a2.669,2.669,0,0,0-1.908,3.222l1.949,7.612a2.682,2.682,0,0,0,3.224,1.909l22.009-5.638h0a2.683,2.683,0,0,0,1.908-3.223l-1.95-7.61A2.692,2.692,0,0,0,3081.483,3755.005Z" transform="translate(-3048.019 -3746.175)" fill="#9aafcf"/>
    </g>
    <g id="Group_301" data-name="Group 301" transform="translate(179.915 447.91)">
      <ellipse id="Ellipse_79" data-name="Ellipse 79" cx="26.151" cy="20.932" rx="26.151" ry="20.932" transform="translate(0 12.977) rotate(-14.367)" fill="#9aafcf"/>
      <path id="Path_1330" data-name="Path 1330" d="M2983.118,3942.2a32.179,32.179,0,0,1-13.257-2.765c-7.012-3.166-11.825-8.623-13.552-15.363s-.13-13.84,4.5-19.988a34,34,0,0,1,18.824-12.149c16.332-4.178,32.43,3.432,35.9,16.969h0c3.467,13.538-6.994,27.954-23.321,32.135A36.642,36.642,0,0,1,2983.118,3942.2Zm5.625-42.6a27.971,27.971,0,0,0-6.924.885,25.164,25.164,0,0,0-13.961,8.906c-2.982,3.963-4.046,8.4-3,12.49s4.114,7.469,8.634,9.51a25.139,25.139,0,0,0,16.521,1.1c11.612-2.974,19.219-12.572,16.96-21.395h0C3005.172,3904.05,2997.62,3899.6,2988.743,3899.6Z" transform="translate(-2955.391 -3889.718)" fill="#9aafcf"/>
    </g>
    <g id="Group_302" data-name="Group 302" transform="translate(56.815 22.406)">
      <path id="Path_1331" data-name="Path 1331" d="M2821.538,3520.54s9.088-108.014,113.311-108.014,112.282,108.218,112.282,108.218S2944.279,3475.96,2821.538,3520.54Z" transform="translate(-2816.561 -3408.112)" fill="#9aafcf"/>
      <path id="Path_1332" data-name="Path 1332" d="M3051.415,3527.124l-6.707-2.921c-.251-.109-25.858-11.088-65.927-16.536-36.894-5.016-93.974-6.239-156.4,16.434l-6.484,2.355.579-6.873a150.412,150.412,0,0,1,18.13-55.813c14.537-25.659,43.615-56.245,99.579-56.245,55.984,0,84.783,30.659,99.082,56.379a149.8,149.8,0,0,1,17.6,55.926Zm-117.228-110.772c-41.517,0-72.436,17.418-91.9,51.769a145.6,145.6,0,0,0-16.023,45.264c61.543-20.819,117.444-19.433,154.034-14.421a306.064,306.064,0,0,1,60.807,14.388,145.029,145.029,0,0,0-15.694-45.416C3006.272,3433.708,2975.58,3416.352,2934.187,3416.352Z" transform="translate(-2815.9 -3407.525)" fill="#9aafcf"/>
    </g>
    <g id="Group_303" data-name="Group 303" transform="translate(69.092 77.425)">
      <path id="Path_1333" data-name="Path 1333" d="M2831.912,3496.648s106.686-49.5,209.3.5" transform="translate(-2830.055 -3470.435)" fill="#9aafcf"/>
      <path id="Path_1334" data-name="Path 1334" d="M3039.031,3500.536c-51.979-25.328-105.1-24.1-140.519-18.605-38.438,5.961-64.727,18.022-64.988,18.143l-3.715-8.006c1.111-.516,27.693-12.709,67.35-18.86,36.661-5.687,91.7-6.936,145.739,19.393Z" transform="translate(-2829.808 -3469.856)" fill="#9aafcf"/>
    </g>
    <g id="Group_304" data-name="Group 304" transform="translate(152.051 361.641)">
      <rect id="Rectangle_55" data-name="Rectangle 55" width="22.921" height="11.067" rx="5.533" transform="translate(4.414 4.413)" fill="#9aafcf"/>
      <path id="Path_1335" data-name="Path 1335" d="M2945.594,3811.735H2933.74a9.947,9.947,0,1,1,0-19.893h11.854a9.947,9.947,0,1,1,0,19.893Zm-11.854-11.066a1.12,1.12,0,1,0,0,2.239h11.854a1.12,1.12,0,1,0,0-2.239Z" transform="translate(-2923.793 -3791.842)" fill="#9aafcf"/>
    </g>
    <g id="Group_305" data-name="Group 305" transform="translate(174.469 361.641)">
      <rect id="Rectangle_56" data-name="Rectangle 56" width="22.921" height="11.067" rx="5.533" transform="translate(4.414 4.413)" fill="#9aafcf"/>
      <path id="Path_1336" data-name="Path 1336" d="M2970.992,3811.735h-11.854a9.947,9.947,0,1,1,0-19.893h11.854a9.947,9.947,0,0,1,0,19.893Zm-11.854-11.066a1.12,1.12,0,1,0,0,2.239h11.854a1.12,1.12,0,0,0,0-2.239Z" transform="translate(-2949.19 -3791.842)" fill="#9aafcf"/>
    </g>
    <g id="Group_306" data-name="Group 306" transform="translate(81.07 306.48)">
      <path id="Path_1337" data-name="Path 1337" d="M2917.033,3798.868c-.584-.021-14.5-.616-30.563-9.239-14.768-7.93-34.231-24.434-43.092-58.027l8.536-2.251c15.355,58.223,64.939,60.678,65.438,60.7Z" transform="translate(-2843.378 -3729.351)" fill="#9aafcf"/>
    </g>
    <g id="Group_307" data-name="Group 307" transform="translate(200.635 306.48)">
      <path id="Path_1338" data-name="Path 1338" d="M2979.162,3798.868l-.319-8.822.159,4.411-.169-4.41a69.089,69.089,0,0,0,27.071-8.386c19.044-10.361,31.956-27.961,38.378-52.31l8.536,2.251c-8.86,33.594-28.323,50.1-43.091,58.027C2993.667,3798.252,2979.747,3798.847,2979.162,3798.868Z" transform="translate(-2978.833 -3729.351)" fill="#9aafcf"/>
    </g>
    <g id="Group_308" data-name="Group 308" transform="translate(167.001 398.669)">
      <rect id="Rectangle_57" data-name="Rectangle 57" width="48.276" height="40.94" rx="8" transform="translate(1.559 13.539) rotate(-14.367)" fill="#9aafcf"/>
      <path id="Path_1339" data-name="Path 1339" d="M2957.537,3888.549a10.17,10.17,0,0,1-9.836-7.634l-6.654-25.978a10.163,10.163,0,0,1,7.315-12.353l33.085-8.474a10.174,10.174,0,0,1,12.353,7.315l6.654,25.978a10.172,10.172,0,0,1-7.315,12.352l-33.085,8.475A10.143,10.143,0,0,1,2957.537,3888.549Zm26.422-48.576a3.936,3.936,0,0,0-.978.125l-33.086,8.473a3.977,3.977,0,0,0-2.862,4.834l6.654,25.977a3.993,3.993,0,0,0,4.835,2.864l33.084-8.475a3.992,3.992,0,0,0,2.862-4.835l-6.654-25.977a4,4,0,0,0-3.855-2.986Z" transform="translate(-2940.729 -3833.791)" fill="#9aafcf"/>
    </g>
    <g id="Group_309" data-name="Group 309" transform="translate(266.167 242.551)">
      <path id="Path_1340" data-name="Path 1340" d="M3057.781,3656.926s0,31.384-4.707,36.615l12.031-3.138,9.538-30.388Z" transform="translate(-3053.074 -3656.926)" fill="#9aafcf"/>
    </g>
    <g id="Group_310" data-name="Group 310" transform="translate(69.09 242.551)">
      <path id="Path_1341" data-name="Path 1341" d="M2846.668,3656.926s0,31.384,4.708,36.615l-12.031-3.138-9.54-30.388Z" transform="translate(-2829.806 -3656.926)" fill="#9aafcf"/>
    </g>
    <g id="Group_311" data-name="Group 311" transform="translate(76.174 278.953)">
      <path id="Path_1342" data-name="Path 1342" d="M2852.4,3705.72a2.227,2.227,0,0,1-.545-.069l-12.358-3.139a2.207,2.207,0,0,1,1.086-4.278l12.358,3.139a2.207,2.207,0,0,1-.541,4.346Z" transform="translate(-2837.833 -3698.166)" fill="#9aafcf"/>
    </g>
    <g id="Group_312" data-name="Group 312" transform="translate(77.548 286.7)">
      <path id="Path_1343" data-name="Path 1343" d="M2853.955,3714.5a2.2,2.2,0,0,1-.546-.069l-12.358-3.139a2.207,2.207,0,0,1,1.086-4.278l12.358,3.139a2.207,2.207,0,0,1-.541,4.346Z" transform="translate(-2839.388 -3706.942)" fill="#9aafcf"/>
    </g>
    <g id="Group_313" data-name="Group 313" transform="translate(264.254 278.953)">
      <path id="Path_1344" data-name="Path 1344" d="M3053.112,3705.72a2.207,2.207,0,0,1-.541-4.347l12.358-3.139a2.207,2.207,0,1,1,1.086,4.278l-12.358,3.139A2.225,2.225,0,0,1,3053.112,3705.72Z" transform="translate(-3050.907 -3698.165)" fill="#9aafcf"/>
    </g>
    <g id="Group_314" data-name="Group 314" transform="translate(262.881 286.7)">
      <path id="Path_1345" data-name="Path 1345" d="M3051.557,3714.5a2.207,2.207,0,0,1-.542-4.346l12.358-3.139a2.207,2.207,0,0,1,1.087,4.278l-12.358,3.139A2.189,2.189,0,0,1,3051.557,3714.5Z" transform="translate(-3049.351 -3706.942)" fill="#9aafcf"/>
    </g>
  </g>
  <g id="Group_315" data-name="Group 315">
    <g id="Group_242-2" data-name="Group 242" transform="translate(54.945 185.796)">
      <path id="Path_1271-2" data-name="Path 1271" d="M2910.714,3895.71l-6.963-27.187-15.508-26.16-15.088-24.74.23-21.406,14.087-34.267-7.006-5.846-28.29-21.861-12.826-27.515-19.934-20.553-5.633-46.433,39.617-24.725,64.219-22.388,86.765,10.749,26.537,25.821,30.215,33.8L3056,3692.37l-19.451,13.518-7.361,12.554-8.661,18.433-20.948,17.721,12.5,5.17,15.289,15.6,9.183,25.823L3023,3826.185l-1.07,32.461-10.344,20.425-72.559,28.029Z" transform="translate(-2813.781 -3592.629)" fill="#fff"/>
    </g>
    <g id="Group_243-2" data-name="Group 243" transform="translate(132.153 409.196)">
      <path id="Path_1272-2" data-name="Path 1272" d="M2907.244,3879.427s-4.865,13.461,6.982,16c0,0-14.814,11.462,2,19.223,0,0,42.342-48.227,116.853-29.93,0,0,16.106-10.936-6.362-18.106,0,0,18.446-9.545-2.406-16.126" transform="translate(-2901.837 -3846.276)" fill="#fff"/>
      <path id="Path_1273-2" data-name="Path 1273" d="M2916.773,3919.466l-2.987-1.371c-6.421-2.965-9.959-6.961-10.518-11.877a14.489,14.489,0,0,1,3.021-9.95,12.669,12.669,0,0,1-3.212-3.782c-3.551-6.4-.886-14.245-.57-15.118l8.3,3-4.15-1.5,4.158,1.48c-.442,1.26-1.391,5.413-.01,7.874.241.427.972,1.73,3.757,2.326l9.3,1.99-7.518,5.817c-1.456,1.145-4.581,4.486-4.3,6.879.129,1.1,1.089,2.256,2.764,3.375a115.936,115.936,0,0,1,29.372-20.308c18.474-9.069,48.479-17.872,87.217-8.941,1.267-1.213,2.406-2.774,2.26-3.748s-2.181-3.221-8.868-5.354l-10.135-3.235,9.449-4.89c2.54-1.331,4.879-3.508,5.127-4.449-.2-.312-1.422-1.84-6.834-3.547l2.657-8.418c3.058.966,12.362,3.9,12.989,11.183.273,3.175-1.25,5.9-3.2,8.04,4.518,2.537,7,5.649,7.548,9.412,1.078,7.45-6.548,12.863-7.422,13.457l-1.625,1.1-1.907-.469c-29.719-7.3-57.65-4.739-83.016,7.606-19,9.248-29.37,20.84-29.472,20.956Z" transform="translate(-2901.25 -3845.717)" fill="#002140"/>
    </g>
    <g id="Group_244-2" data-name="Group 244" transform="translate(123.262 450.45)">
      <path id="Path_1274-2" data-name="Path 1274" d="M2925.608,3898.966s-15.813-13.693-28.728-1.369.151,28.342.151,28.342l34.668,37.651,30.567-24.848Z" transform="translate(-2891.178 -3892.454)" fill="#002140"/>
    </g>
    <g id="Group_245-2" data-name="Group 245" transform="translate(233.011 418.75)">
      <path id="Path_1275-2" data-name="Path 1275" d="M3028.534,3872.127s5.294-19.1,24.533-15.011,13.492,24.925,13.492,24.925l-12.3,49.681-38.748-7.094Z" transform="translate(-3015.512 -3856.542)" fill="#002140"/>
    </g>
    <g id="Group_246-2" data-name="Group 246" transform="translate(109.519 356.049)">
      <path id="Path_1276-2" data-name="Path 1276" d="M2895.991,3789s-20.016,20.543-14.367,56.628" transform="translate(-2876.196 -3785.916)" fill="#fff"/>
      <path id="Path_1277-2" data-name="Path 1277" d="M2876.676,3845.9c-5.923-37.833,14.686-59.488,15.566-60.391l6.333,6.15c-.754.783-18.39,19.58-13.179,52.876Z" transform="translate(-2875.608 -3785.507)" fill="#002140"/>
    </g>
    <g id="Group_247-2" data-name="Group 247" transform="translate(235.716 340.458)">
      <path id="Path_1278-2" data-name="Path 1278" d="M3020.056,3772.626s27.427,8.391,39.821,42.749" transform="translate(-3018.75 -3768.406)" fill="#fff"/>
      <path id="Path_1279-2" data-name="Path 1279" d="M3055.552,3816.312c-11.435-31.7-35.938-39.705-36.976-40.031l2.6-8.436c1.206.369,29.687,9.452,42.681,45.472Z" transform="translate(-3018.576 -3767.845)" fill="#002140"/>
    </g>
    <g id="Group_248-2" data-name="Group 248" transform="translate(208.41 528.13)">
      <rect id="Rectangle_47-2" data-name="Rectangle 47" width="35.881" height="69.267" rx="17.941" transform="matrix(0.969, -0.248, 0.248, 0.969, 0, 8.903)" fill="#002140"/>
    </g>
    <g id="Group_249-2" data-name="Group 249" transform="translate(180.506 440.076)">
      <rect id="Rectangle_48-2" data-name="Rectangle 48" width="42.13" height="8.585" rx="4.292" transform="translate(3.485 13.937) rotate(-14.367)" fill="#fff"/>
      <path id="Path_1280-2" data-name="Path 1280" d="M2964.74,3906.437a8.707,8.707,0,0,1-2.162-17.14l32.5-8.323a8.706,8.706,0,1,1,4.32,16.867h0l-32.5,8.324A8.69,8.69,0,0,1,2964.74,3906.437Z" transform="translate(-2956.029 -3880.701)" fill="#002140"/>
    </g>
    <g id="Group_250-2" data-name="Group 250" transform="translate(155.253 426.321)">
      <path id="Path_1281-2" data-name="Path 1281" d="M2947.911,3884.421s-15.245,2.457-15.49,18.4l1.5,71.963s.073,17.333,27.976,10.185l71.781-18.385s29.692-5.44,22.067-22.3l-33.939-63.6s-4.973-13.956-21.1-9.792Z" transform="translate(-2928.007 -3865.705)" fill="#fff"/>
      <path id="Path_1282-2" data-name="Path 1282" d="M2949.289,3990.522c-5.8,0-10.5-1.38-14.066-4.134a16.214,16.214,0,0,1-6.3-12.172l-1.5-71.969,0-.079c.235-15.371,12.4-21.505,18.987-22.655l52.618-13.478c15.551-4.012,23.861,6.073,26.226,12.253l33.927,63.594c2.2,4.859,2.184,9.673-.041,13.921-5.454,10.414-22.468,14.01-25.1,14.507l-71.638,18.349A53.449,53.449,0,0,1,2949.289,3990.522Zm-13.04-88.295,1.5,71.878a7.53,7.53,0,0,0,2.979,5.379c2.555,1.907,8.011,3.565,19.49.624l71.929-18.424.15-.028c3.969-.736,16-4.148,19.028-9.955.592-1.135,1.218-2.993-.131-6.06l-34.021-63.75-.109-.308c-.379-1-4.141-10.021-15.836-7l-53,13.576-.179.028C2946.812,3888.406,2936.471,3890.583,2936.249,3902.227Z" transform="translate(-2927.42 -3865.118)" fill="#002140"/>
    </g>
    <g id="Group_283-2" data-name="Group 283" transform="translate(0)">
      <g id="Group_274-2" data-name="Group 274">
        <g id="Group_252-2" data-name="Group 252" transform="translate(117.823 230.859)">
          <g id="Group_251-2" data-name="Group 251">
            <path id="Path_1283-2" data-name="Path 1283" d="M2915.585,3661.936a5.078,5.078,0,0,0,3.3-2.459,7.694,7.694,0,0,0,.439-4.164,4.513,4.513,0,0,0-.712-2.421,2.486,2.486,0,0,0-.182-.2,4.535,4.535,0,0,0-.9-.659c-3.429-2.058-7.368-2.418-11.077-3.675l-6.38-2.161c-2.582-.876-5.1-2.243-7.844-2.482a7.469,7.469,0,0,0-4.021.749c-.886.425-2.877,1.1-3.163,2.163-.357,1.339,2.427,2.679,3.333,3.27l3.616,2.358c3.072,2,6.145,4.008,9.317,5.834C2905.54,3660.519,2910.57,3663.265,2915.585,3661.936Z" transform="translate(-2885.015 -3643.68)" fill="#002141"/>
          </g>
        </g>
        <g id="Group_254-2" data-name="Group 254" transform="translate(199.19 224.96)">
          <g id="Group_253-2" data-name="Group 253">
            <path id="Path_1284-2" data-name="Path 1284" d="M3007.167,3642.807c.821-.705,3.4-2.4,2.873-3.681-.424-1.021-2.487-1.422-3.42-1.727a7.466,7.466,0,0,0-4.086-.213c-2.691.6-5,2.287-7.447,3.495q-3.019,1.494-6.039,2.984c-3.51,1.735-7.367,2.611-10.495,5.1a4.543,4.543,0,0,0-.8.771,2.484,2.484,0,0,0-.154.227,4.512,4.512,0,0,0-.386,2.494,7.7,7.7,0,0,0,.983,4.069,5.083,5.083,0,0,0,3.594,2c5.148.656,9.771-2.73,13.641-5.7,2.9-2.228,5.685-4.62,8.466-7.01Z" transform="translate(-2977.196 -3636.997)" fill="#002141"/>
          </g>
        </g>
        <g id="Group_256-2" data-name="Group 256">
          <g id="Group_255-2" data-name="Group 255">
            <path id="Path_1285-2" data-name="Path 1285" d="M2796.417,3631.767l-9.945-5.856a29.882,29.882,0,0,1-3.248-3.685,22.594,22.594,0,0,1-2.718-4.585l0,0c-1.7-2.867-1.123-4.212-2.528-7.194a13.44,13.44,0,0,1-3.639.226c-6.428-.2-22.414-15.23-22.8-30.375-.229-9.124,5.071-7.65,2.844-15.609s1.063-6.9,4.678-12.963a7.717,7.717,0,0,0,.986-5.2,39,39,0,0,1,4.8-31.553,57.63,57.63,0,0,1,6.85-8.841,21.751,21.751,0,0,1,6.008-4.226,2.89,2.89,0,0,0,1.863-3.207c-.287-8.62-9.853-12.192-5.716-19.7q1.168-2.12,2.5-4.083a39.665,39.665,0,0,1,9.641-10.168,5.672,5.672,0,0,0,1.143-1.107,10.9,10.9,0,0,0,1.546-4.2,34.031,34.031,0,0,1,5.289-12.79,27.963,27.963,0,0,1,10.209-9.027c3.891-2.05,8.287-3.035,12.176-5.088a15.994,15.994,0,0,0,5.831-5.437c7.392-11.841,18.831-15.818,31.1-18.341a10.042,10.042,0,0,1,3.721-.409c4.427.832,7.583-.874,10.73-4.2,5.818-6.152,12.955-8.6,21.249-6.42a3.649,3.649,0,0,0,2.638-.941c5.506-4.346,11.667-7.69,18.447-7.881,6.013-.168,10.87-2.557,16.021-5.08,7.23-3.541,14.074-.9,20.607,2.636a4.9,4.9,0,0,0,4.926.231,21.06,21.06,0,0,1,19.538.559,38.569,38.569,0,0,1,6.591,4.375c2.944,2.5,6.493,2.108,9.785,2.579a22.3,22.3,0,0,1,12.9,6.4c3.065,3.044,5.742,6.519,8.679,9.711a4.853,4.853,0,0,0,2.462,1.388,39.218,39.218,0,0,1,20.961,11.952,22.528,22.528,0,0,1,3.966,6.69,13.469,13.469,0,0,0,5.637,6.577c5.021,2.991,8.109,7.555,10.176,13.131a7.127,7.127,0,0,0,3.035,3.282c4.474,2.59,3.94.619,6.917,6.119a9.151,9.151,0,0,0,2.407,2.894c8.279,6.245,6.306,3.123,7.982,13.71.506,3.2,7.295,8.583,8.766,11.176,6.593,11.617,7.9,14.749,5.133,27.861a3.389,3.389,0,0,0,1,3.69c12.981,12.623,12.18,31.341,12.18,31.341s4.233,19.541-.409,26.062a36.7,36.7,0,0,1-5.414,6.059,2.161,2.161,0,0,0-.459.643,5.671,5.671,0,0,0-.514,2.365c-.009,6.326-2.378,11.772-5.528,16.92-.044.071-.1.145-.143.217a6.732,6.732,0,0,1-2.5,2.584c-3.329,1.517-3.121,9.367-5.189,12.227-2.735,3.782-6.8,5.736-11.337,6.412-.68-.036-1.325-.015-1.978-.009-6.96.594-6.3,5.936-6.3,5.936s3.427,10.334-10.039,8.45,0,.012,0,.012c-1.84,1.765-1.365,3.15-5.206,5.728s-12.159-.537-12.159-.537l-1.3-.7c-.937-.659-.162-.183-1.044-.912-.3-.346-.643-.71-1.054-1.116-2.755-2.727-2.257-1.6-2.935-5.116-.435-2.252-1.112-3.353-3.6-3.4a20.346,20.346,0,0,1-13.584-5.779,40.171,40.171,0,0,1-12.653-21.24c-.476-2.123-1.395-3.25-3.582-3.445-9.746-.869-16.769-5.409-22.437-11.764a33.722,33.722,0,0,1-3.677.349,24,24,0,0,1-12.909,2.34c-.408.026-.815.072-1.222.083a28.165,28.165,0,0,1-5.255-.358,37.956,37.956,0,0,1-9.944,5.195,21.705,21.705,0,0,1-8.366,2.166c-1.049.177-2.094.332-3.122.443-10.588,1.141-20.983-.8-29.314-6.938-.185-.03-.364-.078-.547-.112-.068.133-.151.246-.219.376-.426.8-.881,1.567-1.35,2.315-.2.314-.384.642-.588.947a33.972,33.972,0,0,1-2.1,2.837,35.471,35.471,0,0,1-19.128,11.758c-2.916.752-6.136.45-9.2.255-1.84-.116-3.233.135-4.21,1.376a5.814,5.814,0,0,0-.693,1.375,51.115,51.115,0,0,1-2.591,5.025,47.373,47.373,0,0,1-2.578,4.579c-.363.575-.748,1.118-1.13,1.665-.446.637-.889,1.276-1.359,1.877-.686.875-1.383,1.731-2.119,2.531l-.267.287a44.055,44.055,0,0,1-16.783,11.013c-8.507,1.81-4.981-2.5-11.815-3.1a3.652,3.652,0,0,0-1.044-.213c-1.945-.125-3.863-.371-5.76-.683a68.736,68.736,0,0,1-16.664-5.347c-.046.123-.174.178-.35.2" transform="translate(-2751.535 -3382.141)" fill="#002141"/>
          </g>
        </g>
        <g id="Group_258-2" data-name="Group 258" transform="translate(68.919 240.196)">
          <g id="Group_257-2" data-name="Group 257">
            <path id="Path_1286-2" data-name="Path 1286" d="M2957.672,3780.367c-34.159,6.534-69-2.514-95.673-26.811-29.124-26.53-32.262-85.782-32.381-88.291a4.341,4.341,0,0,1,8.672-.414c.028.579,3.1,58.185,29.555,82.288,24.56,22.375,56.706,30.687,88.27,24.654a118.064,118.064,0,0,0,46.028-19.943c32.412-22.963,36.918-71.789,37.35-91.715.034-1.56.129-5.7,4.233-5.872s4.543,3.905,4.7,5.439a4.321,4.321,0,0,1-.295,2.089c-.769,26.657-7.254,73.252-40.975,97.14A126.964,126.964,0,0,1,2957.672,3780.367Z" transform="translate(-2829.613 -3654.258)" fill="#002141"/>
          </g>
        </g>
        <g id="Group_271-2" data-name="Group 271" transform="translate(134.4 293.34)">
          <g id="Group_260-2" data-name="Group 260">
            <g id="Group_259-2" data-name="Group 259">
              <path id="Path_1287-2" data-name="Path 1287" d="M2962.6,3757.993a62.753,62.753,0,0,1-6.994,1.208c-1.042.054-23.221,1.043-35.758-6.774-12.757-7.954-14.985-15.645-15.5-21.456h0c-.6-6.822,4.752-9.445,9.488-10.969,4.615-1.471,8.57.544,13.155,2.888a52.823,52.823,0,0,0,11.2,4.586c10.8,2.8,20.631,1.788,29.213-3.018a51.176,51.176,0,0,0,5.973-4.067c3.5-2.644,6.81-5.149,11.575-5.4,5.363-.291,12.047,2.152,14.448,7.385,3.334,7.265-3.474,15.681-5.712,18.447C2985.049,3751.491,2971.011,3756.1,2962.6,3757.993Zm-54.168-27.4c.46,5.188,2.438,11.431,13.616,18.4,11.44,7.133,33.055,6.174,33.271,6.163.13-.014,23.576-2.531,35.167-16.86,1.848-2.285,7.471-9.235,5.175-14.239-1.569-3.419-6.575-5.24-10.509-5.028-3.5.19-6.059,2.123-9.3,4.572a55.623,55.623,0,0,1-6.443,4.376c-9.55,5.339-20.41,6.491-32.28,3.412a57.088,57.088,0,0,1-12.037-4.9c-4.08-2.086-7.022-3.6-10.005-2.636-5.9,1.9-6.907,3.909-6.655,6.742Z" transform="translate(-2903.855 -3714.524)" fill="#002141"/>
              <path id="Path_1288-2" data-name="Path 1288" d="M2952,3759.656c-7,0-22.567-.75-32.451-6.914-12.924-8.057-15.183-15.878-15.707-21.791-.632-7.132,4.9-9.854,9.792-11.428,4.8-1.531,8.828.53,13.492,2.916a52.41,52.41,0,0,0,11.108,4.551c10.685,2.774,20.405,1.773,28.887-2.975a50.9,50.9,0,0,0,5.9-4.021c3.594-2.715,6.948-5.247,11.835-5.5,5.509-.311,12.389,2.23,14.872,7.641,3.449,7.513-3.49,16.09-5.769,18.907-8.853,10.942-23.431,15.551-31.333,17.326a63.071,63.071,0,0,1-7.047,1.215C2955.368,3759.592,2954.054,3759.656,2952,3759.656Zm-35.061-39.77a9.9,9.9,0,0,0-3.036.477c-4.578,1.473-9.759,4-9.182,10.51.506,5.708,2.7,13.269,15.295,21.12,12.549,7.824,35.275,6.719,35.5,6.707a62.643,62.643,0,0,0,6.919-1.2h0c7.791-1.75,22.156-6.286,30.84-17.019,2.194-2.713,8.874-10.969,5.653-17.984-2.32-5.053-8.816-7.393-14.023-7.129-4.618.244-7.866,2.7-11.305,5.293a51.849,51.849,0,0,1-6.05,4.121c-8.687,4.863-18.627,5.891-29.54,3.06a53.149,53.149,0,0,1-11.28-4.616C2923.287,3721.465,2920.2,3719.886,2916.943,3719.886Zm35.327,35.711c-6.414,0-21.475-.646-30.517-6.285-11.343-7.071-13.353-13.44-13.823-18.736-.265-2.978.808-5.221,6.96-7.2,3.142-1.02,6.134.512,10.276,2.629a56.935,56.935,0,0,0,12.011,4.9c11.75,3.049,22.5,1.916,31.953-3.37a55.159,55.159,0,0,0,6.394-4.343c3.3-2.494,5.909-4.464,9.543-4.661,4.094-.228,9.287,1.695,10.933,5.284,2.411,5.254-3.342,12.363-5.233,14.7-11.516,14.237-34.486,16.914-35.458,17.021C2955.255,3755.543,2954.123,3755.6,2952.27,3755.6Zm-35.353-31.655a5.633,5.633,0,0,0-1.755.274c-5.649,1.817-6.59,3.61-6.353,6.283h0c.45,5.08,2.4,11.2,13.411,18.066,11.239,7.007,32.8,6.1,33.015,6.1.936-.1,23.556-2.741,34.847-16.7,1.8-2.231,7.3-9.021,5.117-13.777-1.491-3.247-6.3-4.968-10.083-4.771-3.366.183-5.878,2.081-9.059,4.484a55.95,55.95,0,0,1-6.495,4.409c-9.656,5.4-20.626,6.56-32.607,3.455a57.461,57.461,0,0,1-12.125-4.94C2921.645,3725.2,2919.189,3723.942,2916.917,3723.942Z" transform="translate(-2903.796 -3714.465)" fill="#002140"/>
            </g>
          </g>
          <g id="Group_262-2" data-name="Group 262" transform="translate(7.296 9.748)">
            <g id="Group_261-2" data-name="Group 261">
              <path id="Path_1289-2" data-name="Path 1289" d="M2916.066,3746.172l-3.3-2.384L2925.8,3726.2l3.3,2.385Z" transform="translate(-2912.144 -3725.59)" fill="#002141"/>
              <path id="Path_1290-2" data-name="Path 1290" d="M2916.078,3746.7l-4.017-2.9,13.563-18.294,4.018,2.9Zm-2.776-3.094,2.586,1.868L2928.4,3728.6l-2.587-1.869Z" transform="translate(-2912.061 -3725.509)" fill="#002140"/>
            </g>
          </g>
          <g id="Group_264-2" data-name="Group 264" transform="translate(22.843 13.708)">
            <g id="Group_263-2" data-name="Group 263">
              <path id="Path_1291-2" data-name="Path 1291" d="M2934.191,3756.357l-3.878-1.293,8.455-24.438,3.878,1.293Z" transform="translate(-2929.75 -3730.069)" fill="#002141"/>
              <path id="Path_1292-2" data-name="Path 1292" d="M2934.391,3756.839l-4.716-1.572,8.744-25.272,4.715,1.572Zm-3.591-2.127,3.042,1.014,8.166-23.6-3.041-1.013Z" transform="translate(-2929.675 -3729.995)" fill="#002140"/>
            </g>
          </g>
          <g id="Group_266-2" data-name="Group 266" transform="translate(43.683 15.727)">
            <g id="Group_265-2" data-name="Group 265">
              <path id="Path_1293-2" data-name="Path 1293" d="M2957.889,3759.549l-4.1-.022.287-26.742,4.1.022Z" transform="translate(-2953.344 -3732.341)" fill="#002141"/>
              <path id="Path_1294-2" data-name="Path 1294" d="M2958.267,3759.933l-4.983-.027.3-27.625,4.983.028Zm-4.091-.9,3.218.017.278-25.859-3.217-.018Z" transform="translate(-2953.284 -3732.282)" fill="#002140"/>
            </g>
          </g>
          <g id="Group_268-2" data-name="Group 268" transform="translate(55.949 13.237)">
            <g id="Group_267-2" data-name="Group 267">
              <path id="Path_1295-2" data-name="Path 1295" d="M2977.421,3755.96l-9.592-24.368,3.822-1.485,9.592,24.367Z" transform="translate(-2967.256 -3729.537)" fill="#002141"/>
              <path id="Path_1296-2" data-name="Path 1296" d="M2977.095,3756.455l-9.915-25.188,4.645-1.805,9.916,25.189Zm-8.768-24.687,9.268,23.546,3-1.165-9.268-23.546Z" transform="translate(-2967.18 -3729.461)" fill="#002140"/>
            </g>
          </g>
          <g id="Group_270-2" data-name="Group 270" transform="translate(66.063 5.935)">
            <g id="Group_269-2" data-name="Group 269">
              <path id="Path_1297-2" data-name="Path 1297" d="M2996.961,3744.361l-17.612-19.786,3.084-2.684,17.612,19.786Z" transform="translate(-2978.722 -3721.271)" fill="#002141"/>
              <path id="Path_1298-2" data-name="Path 1298" d="M2996.839,3744.9l-.29-.327-17.91-20.118,3.75-3.265.29.328,17.91,20.118Zm-16.946-20.365,17.025,19.126,2.417-2.1-17.025-19.126Z" transform="translate(-2978.639 -3721.189)" fill="#002140"/>
            </g>
          </g>
        </g>
        <g id="Group_272-2" data-name="Group 272" transform="translate(130.238 261.157)">
          <ellipse id="Ellipse_77-2" data-name="Ellipse 77" cx="8.259" cy="8.259" rx="8.259" ry="8.259" transform="translate(0.442 0.442)" fill="#002140"/>
          <path id="Path_1299-2" data-name="Path 1299" d="M2907.782,3695.406a8.7,8.7,0,1,1,8.7-8.7A8.711,8.711,0,0,1,2907.782,3695.406Zm0-16.518a7.818,7.818,0,1,0,7.817,7.817A7.827,7.827,0,0,0,2907.782,3678.887Z" transform="translate(-2899.081 -3678.005)" fill="#002140"/>
        </g>
        <g id="Group_273-2" data-name="Group 273" transform="translate(206.946 257.189)">
          <ellipse id="Ellipse_78-2" data-name="Ellipse 78" cx="8.259" cy="8.259" rx="8.259" ry="8.259" transform="translate(0.442 0.441)" fill="#002140"/>
          <path id="Path_1300-2" data-name="Path 1300" d="M2994.684,3690.909a8.7,8.7,0,1,1,8.7-8.7A8.711,8.711,0,0,1,2994.684,3690.909Zm0-16.518a7.818,7.818,0,1,0,7.817,7.817A7.826,7.826,0,0,0,2994.684,3674.392Z" transform="translate(-2985.983 -3673.509)" fill="#002140"/>
        </g>
      </g>
      <g id="Group_276-2" data-name="Group 276" transform="translate(55.34 250.933)">
        <g id="Group_275-2" data-name="Group 275">
          <path id="Path_1301-2" data-name="Path 1301" d="M2840.7,3719.29a4.319,4.319,0,0,1-2.14-.134c-28.353-9.122-24.2-47.281-24.008-48.9a4.341,4.341,0,0,1,8.623,1.011c-.051.454-3.461,32.708,18.044,39.626a4.342,4.342,0,0,1-.518,8.4Z" transform="translate(-2814.229 -3666.421)" fill="#002141"/>
        </g>
      </g>
      <g id="Group_278-2" data-name="Group 278" transform="translate(274.022 253.034)">
        <g id="Group_277-2" data-name="Group 277">
          <path id="Path_1302-2" data-name="Path 1302" d="M3067.126,3720.688a4.341,4.341,0,0,1-1.955-8.453c21.92-5.987,19.818-38.451,19.794-38.778a4.34,4.34,0,1,1,8.658-.63c.119,1.627,2.567,39.935-26.164,47.784Q3067.292,3720.656,3067.126,3720.688Z" transform="translate(-3061.973 -3668.802)" fill="#002141"/>
        </g>
      </g>
      <g id="Group_280-2" data-name="Group 280" transform="translate(14.816 218.52)">
        <g id="Group_279-2" data-name="Group 279">
          <path id="Path_1303-2" data-name="Path 1303" d="M2769.23,3629.7s-4.2,6.189,5.428,15.037c0,0,2.565,18.065,16.3,21.879,0,0,4.139,16.508,23.549,12.961,0,0-6.225-17.064-6.127-16.972s-1.848-25.127-1.848-25.127Z" transform="translate(-2768.32 -3629.701)" fill="#002141"/>
        </g>
      </g>
      <g id="Group_282-2" data-name="Group 282" transform="translate(298.777 210.555)">
        <g id="Group_281-2" data-name="Group 281">
          <path id="Path_1304-2" data-name="Path 1304" d="M3129.006,3620.678s5.738,5.58-2.892,16c0,0,.788,18.6-13.268,24.594,0,0-1.214,17.281-22.828,16.737,0,0,3.352-18.167,3.264-18.059s-2.95-25.609-2.95-25.609Z" transform="translate(-3090.018 -3620.678)" fill="#002141"/>
        </g>
      </g>
    </g>
    <g id="Group_284-2" data-name="Group 284" transform="translate(145.01 384.794)">
      <path id="Path_1305-2" data-name="Path 1305" d="M2926.332,3872.247s-10.328-10.964-2.8-23.163,21.927-18.839,36.41-22.548,36.17-7.575,47.424,6.4c5.248,7.814,1,18.482,1,18.482a55.305,55.305,0,0,1-35.107,27.122C2947.821,3885.061,2926.332,3872.247,2926.332,3872.247Z" transform="translate(-2916.398 -3818.658)" fill="#fff"/>
      <path id="Path_1306-2" data-name="Path 1306" d="M2957.774,3884.231a72.387,72.387,0,0,1-34.286-8.779l-.531-.316-.422-.449c-4.375-4.644-10.7-16.578-3.345-28.506,7.049-11.427,20.2-19.671,39.072-24.507,16.222-4.155,39.264-7.858,51.957,7.912l.226.307c6.47,9.635,1.65,22.051,1.44,22.574l-.1.244c-.43.918-10.862,22.57-38.007,29.522A64.363,64.363,0,0,1,2957.774,3884.231Zm-29.2-16.047c3.455,1.846,21.944,10.894,43.006,5.5a51.075,51.075,0,0,0,32.144-24.593c.372-1.035,2.951-8.753-.509-14.122-9.548-11.621-28.966-8.278-42.765-4.742-16.587,4.248-27.942,11.176-33.75,20.59C2921.771,3858.812,2927.014,3866.257,2928.577,3868.184Z" transform="translate(-2915.816 -3818.072)" fill="#002140"/>
    </g>
    <g id="Group_285-2" data-name="Group 285" transform="translate(82.606 418.014)">
      <path id="Path_1307-2" data-name="Path 1307" d="M2851.405,3880.191s-5.347,10.617,5.762,13.28l58.24-16.885L2911.671,3862Z" transform="translate(-2845.706 -3856.445)" fill="#fff"/>
      <path id="Path_1308-2" data-name="Path 1308" d="M2856.688,3897.3l-1.136-.272c-5.7-1.367-8.225-4.51-9.337-6.906-2.661-5.735.314-11.959.661-12.651l.853-1.692,66.488-20.069,5.94,23.19Zm-2.483-14.255a5.409,5.409,0,0,0,.024,3.379,3.8,3.8,0,0,0,2.343,1.719l52.912-15.339-1.532-5.982Z" transform="translate(-2845.119 -3855.707)" fill="#002140"/>
    </g>
    <g id="Group_286-2" data-name="Group 286" transform="translate(231.239 383.277)">
      <path id="Path_1309-2" data-name="Path 1309" d="M3081.232,3821.69s9.793,6.739,1.331,14.415l-59.186,13.192-3.736-14.586Z" transform="translate(-3014.224 -3816.98)" fill="#fff"/>
      <path id="Path_1310-2" data-name="Path 1310" d="M3019.443,3853.908l-5.939-23.188,67.949-14.366,1.562,1.073c.637.438,6.237,4.467,6.662,10.776.177,2.636-.524,6.6-4.868,10.545l-.865.785Zm4.9-16.458,1.533,5.981,53.77-11.985a3.785,3.785,0,0,0,1.226-2.652,5.459,5.459,0,0,0-1.6-2.957Z" transform="translate(-3013.504 -3816.354)" fill="#002140"/>
    </g>
    <g id="Group_287-2" data-name="Group 287" transform="translate(185.635 434.851)">
      <path id="Path_1311-2" data-name="Path 1311" d="M2961.839,3882.249l29.154-7.468,20.784,81.146s-13.12,14.89-29.154,7.468Z" transform="translate(-2961.839 -3874.782)" fill="#002140"/>
    </g>
    <g id="Group_288-2" data-name="Group 288" transform="translate(196.714 507.138)">
      <path id="Path_1312-2" data-name="Path 1312" d="M2983.148,4009.008s-15.076-38.616,15.111-46.349,36.937,33.017,36.937,33.017Z" transform="translate(-2974.977 -3957.263)" fill="#fff"/>
      <path id="Path_1313-2" data-name="Path 1313" d="M2979.873,4013.665l-1.421-3.64c-.355-.908-8.595-22.432-.541-38.133,3.649-7.115,9.929-11.857,18.667-14.1s16.591-1.124,23.379,3.3c14.96,9.756,18.849,32.313,19.007,33.268l.661,3.992Zm25.149-48.163a25.18,25.18,0,0,0-6.254.845c-6.27,1.605-10.524,4.737-13,9.573-4.262,8.312-2.273,20.313-.308,27.2l43.9-11.243c-1.646-6.146-5.77-17.894-14.239-23.4A18.047,18.047,0,0,0,3005.021,3965.5Z" transform="translate(-2974.391 -3956.675)" fill="#002140"/>
    </g>
    <g id="Group_289-2" data-name="Group 289" transform="translate(91.186 412.01)">
      <path id="Path_1314-2" data-name="Path 1314" d="M2866.759,3881.988s-17-13.354-2.692-22.034,24.709-10.756,28.081-1.586a32.707,32.707,0,0,1,1.752,16.668S2887.207,3892.687,2866.759,3881.988Z" transform="translate(-2855.25 -3849.315)" fill="#fff"/>
      <path id="Path_1315-2" data-name="Path 1315" d="M2878.468,3888.118a29.512,29.512,0,0,1-13.552-3.8l-.251-.132-.224-.176c-1.035-.813-10.092-8.186-9.58-16.683.251-4.17,2.673-7.677,7.194-10.421,11.428-6.938,19.8-9.329,25.591-7.3a11.377,11.377,0,0,1,6.993,7.289,35.746,35.746,0,0,1,1.872,18.387l-.132.443c-.124.33-3.164,8.133-11.214,11.193A18.7,18.7,0,0,1,2878.468,3888.118Zm-10.422-9.139c5.788,2.972,10.788,3.706,14.865,2.181,4.825-1.8,7.126-6.37,7.6-7.425a30.557,30.557,0,0,0-1.674-14.71c-.929-2.529-2.29-3.259-3.232-3.589-2.671-.933-8.368-.521-20.346,6.75-2.719,1.65-4.1,3.45-4.23,5.5C2860.76,3872.032,2865.81,3877.142,2868.046,3878.979Z" transform="translate(-2854.839 -3848.906)" fill="#002140"/>
    </g>
    <g id="Group_290-2" data-name="Group 290" transform="translate(125.354 409.814)">
      <path id="Path_1316-2" data-name="Path 1316" d="M2897.152,3853.535s1.725-6.64,7.561-1.937.628,12.021.628,12.021S2900.209,3866.622,2897.152,3853.535Z" transform="translate(-2893.971 -3846.828)" fill="#fff"/>
      <path id="Path_1317-2" data-name="Path 1317" d="M2903.613,3866.6a6.45,6.45,0,0,1-2.562-.543c-3.346-1.438-5.744-5.438-7.33-12.229l-.173-.742.191-.737c.117-.451,1.248-4.44,4.83-5.624,1.652-.545,4.323-.631,7.659,2.058,6.41,5.164,3.592,12.866,1.207,16.217l-.384.54-.573.334A5.865,5.865,0,0,1,2903.613,3866.6Zm-3.654-13.279c1.152,4.487,2.454,6.248,3.168,6.839.812-1.669,1.683-4.586-.774-6.565a3.659,3.659,0,0,0-1.855-1A1.9,1.9,0,0,0,2899.959,3853.32Z" transform="translate(-2893.548 -3846.418)" fill="#002140"/>
    </g>
    <g id="Group_291-2" data-name="Group 291" transform="translate(250.187 373.663)">
      <path id="Path_1318-2" data-name="Path 1318" d="M3072.228,3829.677s8.483-19.88-8.232-20.615-26.836,2.447-25.385,12.109a32.7,32.7,0,0,0,6.477,15.458S3059.441,3848.888,3072.228,3829.677Z" transform="translate(-3035.382 -3805.872)" fill="#fff"/>
      <path id="Path_1319-2" data-name="Path 1319" d="M3055.412,3843.162a21.238,21.238,0,0,1-12.742-4.594l-.328-.325a35.731,35.731,0,0,1-7.2-17.024,11.374,11.374,0,0,1,2.628-9.752c4.1-4.559,12.586-6.49,25.949-5.9,5.282.233,9.09,2.144,11.316,5.681,4.534,7.2.137,18.024-.38,19.234l-.111.262-.158.236c-4.729,7.1-10.282,11.146-16.506,12.013A17.963,17.963,0,0,1,3055.412,3843.162Zm-8.551-9.154c.9.68,5.115,3.592,10.232,2.854,4.308-.624,8.34-3.672,11.985-9.06,1.078-2.685,3.05-9.592.726-13.273-1.1-1.738-3.177-2.652-6.355-2.791-13.993-.623-19.193,1.759-21.084,3.862-.668.742-1.51,2.037-1.11,4.7A30.57,30.57,0,0,0,3046.862,3834.008Z" transform="translate(-3034.971 -3805.462)" fill="#002140"/>
    </g>
    <g id="Group_292-2" data-name="Group 292" transform="translate(239.559 380.365)">
      <path id="Path_1320-2" data-name="Path 1320" d="M3034.621,3818.3s-4.7-4.993-7.561,1.937,5.227,10.842,5.227,10.842S3038.232,3831.241,3034.621,3818.3Z" transform="translate(-3023.342 -3813.466)" fill="#fff"/>
      <path id="Path_1321-2" data-name="Path 1321" d="M3031.88,3833.753h-.091l-.663-.02-.6-.289c-3.7-1.792-9.876-7.19-6.739-14.8,1.635-3.964,4.017-5.171,5.728-5.487,3.713-.683,6.619,2.269,6.938,2.608l.524.554.2.734c1.874,6.718,1.695,11.379-.548,14.249A6.134,6.134,0,0,1,3031.88,3833.753Zm-1.23-14.519h-.017A3.744,3.744,0,0,0,3029.5,3821c-1.206,2.925.974,5.067,2.477,6.132.343-.86.638-3.03-.507-7.521A2.032,2.032,0,0,0,3030.65,3819.234Z" transform="translate(-3022.93 -3813.055)" fill="#002140"/>
    </g>
    <g id="Group_293-2" data-name="Group 293" transform="translate(95.454 429.716)">
      <rect id="Rectangle_49-2" data-name="Rectangle 49" width="56.599" height="8.862" rx="4.431" transform="translate(1.035 18.923) rotate(-18.425)" fill="#fff"/>
      <path id="Path_1322-2" data-name="Path 1322" d="M2866.318,3897.329a6.64,6.64,0,0,1-2.1-12.937L2909.5,3869.3a6.639,6.639,0,0,1,4.2,12.6h0l-45.29,15.088A6.6,6.6,0,0,1,2866.318,3897.329Zm45.277-23.95a2.2,2.2,0,0,0-.7.113l-45.289,15.089a2.236,2.236,0,0,0-1.407,2.814,2.229,2.229,0,0,0,2.812,1.406l45.291-15.088a2.22,2.22,0,0,0,.29-4.1A2.243,2.243,0,0,0,2911.6,3873.379Z" transform="translate(-2859.674 -3868.964)" fill="#002140"/>
    </g>
    <g id="Group_294-2" data-name="Group 294" transform="translate(237.358 395.966)">
      <rect id="Rectangle_50-2" data-name="Rectangle 50" width="56.599" height="8.862" rx="4.431" transform="translate(1.45 12.152) rotate(-10.899)" fill="#fff"/>
      <path id="Path_1323-2" data-name="Path 1323" d="M3027.069,3853.033a6.639,6.639,0,0,1-1.248-13.157l46.876-9.026a6.638,6.638,0,0,1,2.509,13.037l-46.875,9.026A6.669,6.669,0,0,1,3027.069,3853.033Zm46.881-17.89a2.252,2.252,0,0,0-.418.041l-46.876,9.026a2.228,2.228,0,0,0-1.764,2.6,2.236,2.236,0,0,0,2.606,1.764l46.875-9.025a2.226,2.226,0,0,0-.423-4.409Z" transform="translate(-3020.436 -3830.729)" fill="#002140"/>
    </g>
    <g id="Group_295-2" data-name="Group 295" transform="translate(136.41 389.799)">
      <rect id="Rectangle_51-2" data-name="Rectangle 51" width="12.268" height="16.295" rx="3.981" transform="translate(2.972 12.331) rotate(-49.735)" fill="#fff"/>
      <path id="Path_1324-2" data-name="Path 1324" d="M2921.064,3849.578a7.894,7.894,0,0,1-5.118-1.875l-7.072-5.99a7.936,7.936,0,0,1-.925-11.174l3.386-4a7.935,7.935,0,0,1,11.173-.925l7.071,5.989a7.938,7.938,0,0,1,.926,11.173l-3.387,4A7.911,7.911,0,0,1,2921.064,3849.578Zm-5.8-14.019,5.7,4.827,2.223-2.626-5.7-4.827Z" transform="translate(-2906.073 -3823.743)" fill="#002140"/>
    </g>
    <g id="Group_296-2" data-name="Group 296" transform="translate(215.104 370.027)">
      <rect id="Rectangle_52-2" data-name="Rectangle 52" width="12.268" height="16.295" rx="3.981" transform="matrix(-0.934, -0.358, 0.358, -0.934, 14.841, 22.999)" fill="#fff"/>
      <path id="Path_1325-2" data-name="Path 1325" d="M3008.039,3827.732a7.908,7.908,0,0,1-2.834-.528l-4.895-1.879a7.937,7.937,0,0,1-4.559-10.24l3.322-8.654a7.936,7.936,0,0,1,10.242-4.558l4.892,1.877a7.938,7.938,0,0,1,4.56,10.243l-3.322,8.651a7.958,7.958,0,0,1-7.407,5.088Zm-3.725-10.325,3.213,1.233,2.676-6.971-3.211-1.233Zm-.839-.321h0Z" transform="translate(-2995.225 -3801.344)" fill="#002140"/>
    </g>
    <g id="Group_297-2" data-name="Group 297" transform="translate(93.905 382.992)">
      <path id="Path_1326-2" data-name="Path 1326" d="M2904.865,3834.558l-16.056-9.572-30.428,1.6-.462-8.815,33.107-1.736,18.359,10.945Z" transform="translate(-2857.919 -3816.031)" fill="#002140"/>
    </g>
    <g id="Group_298-2" data-name="Group 298" transform="translate(226.901 340.238)">
      <path id="Path_1327-2" data-name="Path 1327" d="M3016.2,3804.888l-7.608-4.476,10.836-18.424,29.865-14.393,3.833,7.951-27.45,13.229Z" transform="translate(-3008.59 -3767.596)" fill="#002140"/>
    </g>
    <g id="Group_299-2" data-name="Group 299" transform="translate(54.273 374.46)">
      <rect id="Rectangle_53-2" data-name="Rectangle 53" width="36.843" height="21.98" rx="8" transform="translate(2.885 12.026) rotate(-14.367)" fill="#fff"/>
      <path id="Path_1328-2" data-name="Path 1328" d="M2826.442,3842.569a11.515,11.515,0,0,1-11.111-8.631l-1.95-7.612a11.5,11.5,0,0,1,8.269-13.963l22.009-5.638a11.49,11.49,0,0,1,13.964,8.27l1.949,7.611a11.488,11.488,0,0,1-8.269,13.963l-22.01,5.638A11.525,11.525,0,0,1,2826.442,3842.569Zm20.041-27.372a2.507,2.507,0,0,0-.634.08l-22.01,5.638a2.668,2.668,0,0,0-1.908,3.221l1.95,7.612a2.669,2.669,0,0,0,3.223,1.909l22.009-5.638a2.683,2.683,0,0,0,1.908-3.223l-1.949-7.612A2.692,2.692,0,0,0,2846.484,3815.2Z" transform="translate(-2813.02 -3806.365)" fill="#002140"/>
    </g>
    <g id="Group_300-2" data-name="Group 300" transform="translate(261.705 321.331)">
      <rect id="Rectangle_54-2" data-name="Rectangle 54" width="36.843" height="21.98" rx="8" transform="translate(2.884 12.024) rotate(-14.367)" fill="#fff"/>
      <path id="Path_1329-2" data-name="Path 1329" d="M3061.441,3782.377a11.517,11.517,0,0,1-11.111-8.631l-1.949-7.611a11.495,11.495,0,0,1,8.269-13.962l22.009-5.638a11.492,11.492,0,0,1,13.963,8.268l1.95,7.612a11.491,11.491,0,0,1-8.268,13.965h0l-22.01,5.637A11.47,11.47,0,0,1,3061.441,3782.377Zm20.042-27.372a2.486,2.486,0,0,0-.633.081l-22.01,5.637a2.669,2.669,0,0,0-1.908,3.222l1.949,7.612a2.682,2.682,0,0,0,3.224,1.909l22.009-5.638h0a2.683,2.683,0,0,0,1.908-3.223l-1.95-7.61A2.692,2.692,0,0,0,3081.483,3755.005Z" transform="translate(-3048.019 -3746.175)" fill="#002140"/>
    </g>
    <g id="Group_301-2" data-name="Group 301" transform="translate(179.915 447.91)">
      <ellipse id="Ellipse_79-2" data-name="Ellipse 79" cx="26.151" cy="20.932" rx="26.151" ry="20.932" transform="translate(0 12.977) rotate(-14.367)" fill="#fff"/>
      <path id="Path_1330-2" data-name="Path 1330" d="M2983.118,3942.2a32.179,32.179,0,0,1-13.257-2.765c-7.012-3.166-11.825-8.623-13.552-15.363s-.13-13.84,4.5-19.988a34,34,0,0,1,18.824-12.149c16.332-4.178,32.43,3.432,35.9,16.969h0c3.467,13.538-6.994,27.954-23.321,32.135A36.642,36.642,0,0,1,2983.118,3942.2Zm5.625-42.6a27.971,27.971,0,0,0-6.924.885,25.164,25.164,0,0,0-13.961,8.906c-2.982,3.963-4.046,8.4-3,12.49s4.114,7.469,8.634,9.51a25.139,25.139,0,0,0,16.521,1.1c11.612-2.974,19.219-12.572,16.96-21.395h0C3005.172,3904.05,2997.62,3899.6,2988.743,3899.6Z" transform="translate(-2955.391 -3889.718)" fill="#002140"/>
    </g>
    <g id="Group_302-2" data-name="Group 302" transform="translate(56.815 22.406)">
      <path id="Path_1331-2" data-name="Path 1331" d="M2821.538,3520.54s9.088-108.014,113.311-108.014,112.282,108.218,112.282,108.218S2944.279,3475.96,2821.538,3520.54Z" transform="translate(-2816.561 -3408.112)" fill="#fff"/>
      <path id="Path_1332-2" data-name="Path 1332" d="M3051.415,3527.124l-6.707-2.921c-.251-.109-25.858-11.088-65.927-16.536-36.894-5.016-93.974-6.239-156.4,16.434l-6.484,2.355.579-6.873a150.412,150.412,0,0,1,18.13-55.813c14.537-25.659,43.615-56.245,99.579-56.245,55.984,0,84.783,30.659,99.082,56.379a149.8,149.8,0,0,1,17.6,55.926Zm-117.228-110.772c-41.517,0-72.436,17.418-91.9,51.769a145.6,145.6,0,0,0-16.023,45.264c61.543-20.819,117.444-19.433,154.034-14.421a306.064,306.064,0,0,1,60.807,14.388,145.029,145.029,0,0,0-15.694-45.416C3006.272,3433.708,2975.58,3416.352,2934.187,3416.352Z" transform="translate(-2815.9 -3407.525)" fill="#002140"/>
    </g>
    <g id="Group_303-2" data-name="Group 303" transform="translate(69.092 77.425)">
      <path id="Path_1333-2" data-name="Path 1333" d="M2831.912,3496.648s106.686-49.5,209.3.5" transform="translate(-2830.055 -3470.435)" fill="#fff"/>
      <path id="Path_1334-2" data-name="Path 1334" d="M3039.031,3500.536c-51.979-25.328-105.1-24.1-140.519-18.605-38.438,5.961-64.727,18.022-64.988,18.143l-3.715-8.006c1.111-.516,27.693-12.709,67.35-18.86,36.661-5.687,91.7-6.936,145.739,19.393Z" transform="translate(-2829.808 -3469.856)" fill="#002140"/>
    </g>
    <g id="Group_304-2" data-name="Group 304" transform="translate(152.051 361.641)">
      <rect id="Rectangle_55-2" data-name="Rectangle 55" width="22.921" height="11.067" rx="5.533" transform="translate(4.414 4.413)" fill="#fff"/>
      <path id="Path_1335-2" data-name="Path 1335" d="M2945.594,3811.735H2933.74a9.947,9.947,0,1,1,0-19.893h11.854a9.947,9.947,0,1,1,0,19.893Zm-11.854-11.066a1.12,1.12,0,1,0,0,2.239h11.854a1.12,1.12,0,1,0,0-2.239Z" transform="translate(-2923.793 -3791.842)" fill="#002140"/>
    </g>
    <g id="Group_305-2" data-name="Group 305" transform="translate(174.469 361.641)">
      <rect id="Rectangle_56-2" data-name="Rectangle 56" width="22.921" height="11.067" rx="5.533" transform="translate(4.414 4.413)" fill="#fff"/>
      <path id="Path_1336-2" data-name="Path 1336" d="M2970.992,3811.735h-11.854a9.947,9.947,0,1,1,0-19.893h11.854a9.947,9.947,0,0,1,0,19.893Zm-11.854-11.066a1.12,1.12,0,1,0,0,2.239h11.854a1.12,1.12,0,0,0,0-2.239Z" transform="translate(-2949.19 -3791.842)" fill="#002140"/>
    </g>
    <g id="Group_306-2" data-name="Group 306" transform="translate(81.07 306.48)">
      <path id="Path_1337-2" data-name="Path 1337" d="M2917.033,3798.868c-.584-.021-14.5-.616-30.563-9.239-14.768-7.93-34.231-24.434-43.092-58.027l8.536-2.251c15.355,58.223,64.939,60.678,65.438,60.7Z" transform="translate(-2843.378 -3729.351)" fill="#002140"/>
    </g>
    <g id="Group_307-2" data-name="Group 307" transform="translate(200.635 306.48)">
      <path id="Path_1338-2" data-name="Path 1338" d="M2979.162,3798.868l-.319-8.822.159,4.411-.169-4.41a69.089,69.089,0,0,0,27.071-8.386c19.044-10.361,31.956-27.961,38.378-52.31l8.536,2.251c-8.86,33.594-28.323,50.1-43.091,58.027C2993.667,3798.252,2979.747,3798.847,2979.162,3798.868Z" transform="translate(-2978.833 -3729.351)" fill="#002140"/>
    </g>
    <g id="Group_308-2" data-name="Group 308" transform="translate(167.001 398.669)">
      <rect id="Rectangle_57-2" data-name="Rectangle 57" width="48.276" height="40.94" rx="8" transform="translate(1.559 13.539) rotate(-14.367)" fill="#fff"/>
      <path id="Path_1339-2" data-name="Path 1339" d="M2957.537,3888.549a10.17,10.17,0,0,1-9.836-7.634l-6.654-25.978a10.163,10.163,0,0,1,7.315-12.353l33.085-8.474a10.174,10.174,0,0,1,12.353,7.315l6.654,25.978a10.172,10.172,0,0,1-7.315,12.352l-33.085,8.475A10.143,10.143,0,0,1,2957.537,3888.549Zm26.422-48.576a3.936,3.936,0,0,0-.978.125l-33.086,8.473a3.977,3.977,0,0,0-2.862,4.834l6.654,25.977a3.993,3.993,0,0,0,4.835,2.864l33.084-8.475a3.992,3.992,0,0,0,2.862-4.835l-6.654-25.977a4,4,0,0,0-3.855-2.986Z" transform="translate(-2940.729 -3833.791)" fill="#002140"/>
    </g>
    <g id="Group_309-2" data-name="Group 309" transform="translate(266.167 242.551)">
      <path id="Path_1340-2" data-name="Path 1340" d="M3057.781,3656.926s0,31.384-4.707,36.615l12.031-3.138,9.538-30.388Z" transform="translate(-3053.074 -3656.926)" fill="#002141"/>
    </g>
    <g id="Group_310-2" data-name="Group 310" transform="translate(69.09 242.551)">
      <path id="Path_1341-2" data-name="Path 1341" d="M2846.668,3656.926s0,31.384,4.708,36.615l-12.031-3.138-9.54-30.388Z" transform="translate(-2829.806 -3656.926)" fill="#002141"/>
    </g>
    <g id="Group_311-2" data-name="Group 311" transform="translate(76.174 278.953)">
      <path id="Path_1342-2" data-name="Path 1342" d="M2852.4,3705.72a2.227,2.227,0,0,1-.545-.069l-12.358-3.139a2.207,2.207,0,0,1,1.086-4.278l12.358,3.139a2.207,2.207,0,0,1-.541,4.346Z" transform="translate(-2837.833 -3698.166)" fill="#032242"/>
    </g>
    <g id="Group_312-2" data-name="Group 312" transform="translate(77.548 286.7)">
      <path id="Path_1343-2" data-name="Path 1343" d="M2853.955,3714.5a2.2,2.2,0,0,1-.546-.069l-12.358-3.139a2.207,2.207,0,0,1,1.086-4.278l12.358,3.139a2.207,2.207,0,0,1-.541,4.346Z" transform="translate(-2839.388 -3706.942)" fill="#032242"/>
    </g>
    <g id="Group_313-2" data-name="Group 313" transform="translate(264.254 278.953)">
      <path id="Path_1344-2" data-name="Path 1344" d="M3053.112,3705.72a2.207,2.207,0,0,1-.541-4.347l12.358-3.139a2.207,2.207,0,1,1,1.086,4.278l-12.358,3.139A2.225,2.225,0,0,1,3053.112,3705.72Z" transform="translate(-3050.907 -3698.165)" fill="#032242"/>
    </g>
    <g id="Group_314-2" data-name="Group 314" transform="translate(262.881 286.7)">
      <path id="Path_1345-2" data-name="Path 1345" d="M3051.557,3714.5a2.207,2.207,0,0,1-.542-4.346l12.358-3.139a2.207,2.207,0,0,1,1.087,4.278l-12.358,3.139A2.189,2.189,0,0,1,3051.557,3714.5Z" transform="translate(-3049.351 -3706.942)" fill="#032242"/>
    </g>
  </g>
</svg>
