<svg xmlns="http://www.w3.org/2000/svg" width="78.137" height="100.181" viewBox="0 0 78.137 100.181">
  <g id="Group_204" data-name="Group 204" transform="translate(-1828.366 -1900.16)">
    <g id="Group_161" data-name="Group 161" transform="translate(1842.621 1936.808)">
      <path id="Path_407" data-name="Path 407" d="M1922.919,2095.46a10,10,0,0,0-6.871-3.122l-1.691-.146.194-1.083,8.866-2.584,8.053-7.03,2.233-5.823,1.486-1.3,3.026-8.669s-6.652-8.346-6.745-8.458-26.721-10.426-26.721-10.426l-16.161,14.574-3.176,11.547,1.925,4.233,3.568,2.738,2.8,1.154,3.067,4.431,7.263,3.812,1.7.784V2092l-1.7-.53s-4.821.049-6.519,2.839,1.213,15.434,1.213,15.434l25.643.2h1.116l-1.533-12.8-1.04-1.688" transform="translate(-1885.412 -2046.82)" fill="#fff"/>
    </g>
    <g id="Group_164" data-name="Group 164" transform="translate(1845.797 1951.916)">
      <g id="Group_163" data-name="Group 163">
        <g id="Group_162" data-name="Group 162">
          <path id="Path_408" data-name="Path 408" d="M1921.568,2136.813a23.361,23.361,0,0,0,19.223-9.073c5.2-6.653,3.768-19.425,3.7-19.966a.568.568,0,0,0-1.129.129c.015.128,1.438,12.861-3.476,19.151a22.246,22.246,0,0,1-18.307,8.631,25.875,25.875,0,0,1-10.768-2.711c-7.927-3.888-10.681-14.436-11.5-18.791-.073-.387-.163-.87-.7-.8s-.509.567-.488.934a.558.558,0,0,0,.115.307c1.09,5.655,4.091,15.447,12.064,19.359A27.063,27.063,0,0,0,1921.568,2136.813Z" transform="translate(-1898.12 -2107.278)" fill="#002141"/>
        </g>
      </g>
    </g>
    <g id="Group_165" data-name="Group 165" transform="translate(1876.899 1974.188)">
      <path id="Path_409" data-name="Path 409" d="M2022.588,2222.066h0l4.919-9.41a17.865,17.865,0,0,1,.441-7.685c1.191-3.318,0-8.267,0-8.267l2.029-.3,2.1,3.263.279,4.008,4.767-.656.856,7.849-.856.92-1.019,1.792-4.409,1.061-2.558,7.418Z" transform="translate(-2022.588 -2196.405)" fill="#fff"/>
    </g>
    <g id="Group_168" data-name="Group 168" transform="translate(1891.207 1954.592)">
      <g id="Group_167" data-name="Group 167" transform="translate(0 0)">
        <g id="Group_166" data-name="Group 166">
          <path id="Path_410" data-name="Path 410" d="M2080.157,2129.038a.217.217,0,0,0,.139-.051c3.3-2.554,2.618-10.219,2.588-10.544-.029-.3-.2-.5-.373-.445s-.3.352-.269.656h0c.007.071.628,7.124-2.2,9.312a.779.779,0,0,0-.174.743C2079.921,2128.913,2080.035,2129.035,2080.157,2129.038Z" transform="translate(-2079.845 -2117.987)" fill="#002141"/>
        </g>
      </g>
    </g>
    <g id="Group_171" data-name="Group 171" transform="translate(1842.314 1961.417)">
      <g id="Group_170" data-name="Group 170">
        <g id="Group_169" data-name="Group 169">
          <path id="Path_411" data-name="Path 411" d="M1891.33,2154.937a.561.561,0,0,0,.072-1.119c-5.313-.538-6.076-7.934-6.083-8.009a.568.568,0,0,0-1.132.1c.032.342.853,8.389,7.1,9.022Z" transform="translate(-1884.185 -2145.3)" fill="#002141"/>
        </g>
      </g>
    </g>
    <g id="Group_174" data-name="Group 174" transform="translate(1889.126 1963.759)">
      <g id="Group_173" data-name="Group 173" transform="translate(0 0)">
        <g id="Group_172" data-name="Group 172">
          <path id="Path_412" data-name="Path 412" d="M2071.777,2156.206a.212.212,0,0,0,.1-.022l1.777-.862a.373.373,0,0,0,.157-.435.25.25,0,0,0-.341-.193l-1.777.862a.373.373,0,0,0-.157.435A.273.273,0,0,0,2071.777,2156.206Z" transform="translate(-2071.52 -2154.67)" fill="#002141"/>
        </g>
      </g>
    </g>
    <g id="Group_177" data-name="Group 177" transform="translate(1889.024 1964.875)">
      <g id="Group_176" data-name="Group 176">
        <g id="Group_175" data-name="Group 175">
          <path id="Path_413" data-name="Path 413" d="M2071.366,2160.672a.219.219,0,0,0,.1-.023l1.777-.862a.372.372,0,0,0,.157-.435.25.25,0,0,0-.341-.194l-1.778.862a.374.374,0,0,0-.157.435A.273.273,0,0,0,2071.366,2160.672Z" transform="translate(-2071.109 -2159.136)" fill="#002141"/>
        </g>
      </g>
    </g>
    <g id="Group_180" data-name="Group 180" transform="translate(1849.575 1967.846)">
      <g id="Group_179" data-name="Group 179" transform="translate(0 0)">
        <g id="Group_178" data-name="Group 178">
          <path id="Path_414" data-name="Path 414" d="M1916.806,2171.745a.408.408,0,0,0,.408-.382.4.4,0,0,0-.45-.333l-3.1.182a.408.408,0,0,0-.419.384.4.4,0,0,0,.45.332l3.1-.182Z" transform="translate(-1913.243 -2171.029)" fill="#002141"/>
        </g>
      </g>
    </g>
    <g id="Group_183" data-name="Group 183" transform="translate(1850.012 1969)">
      <g id="Group_182" data-name="Group 182">
        <g id="Group_181" data-name="Group 181">
          <path id="Path_415" data-name="Path 415" d="M1918.554,2176.362a.408.408,0,0,0,.408-.382.4.4,0,0,0-.45-.333l-3.1.182a.406.406,0,0,0-.419.384.4.4,0,0,0,.45.332l3.1-.182Z" transform="translate(-1914.99 -2175.646)" fill="#002141"/>
        </g>
      </g>
    </g>
    <g id="Group_184" data-name="Group 184" transform="translate(1857.763 1956.641)">
      <path id="Path_416" data-name="Path 416" d="M1953.688,2128.417a.373.373,0,0,1-.249-.095h0a5.933,5.933,0,0,0-6.865-.534.375.375,0,0,1-.377-.648,6.787,6.787,0,0,1,7.741.623.375.375,0,0,1-.25.654Z" transform="translate(-1946.01 -2126.185)" fill="#002141"/>
    </g>
    <g id="Group_185" data-name="Group 185" transform="translate(1852.155 1981.774)">
      <path id="Path_417" data-name="Path 417" d="M1925.377,2228.4c4.653-3.05,10.421-3.9,14.736,16.429l-13.6-.056S1920.724,2231.453,1925.377,2228.4Z" transform="translate(-1923.568 -2226.765)" fill="#002141"/>
    </g>
    <g id="Group_186" data-name="Group 186" transform="translate(1861.247 1981.459)">
      <path id="Path_418" data-name="Path 418" d="M1966.837,2226.435l.44,4.747-7.326-5.678Z" transform="translate(-1959.951 -2225.504)" fill="#002141"/>
    </g>
    <g id="Group_187" data-name="Group 187" transform="translate(1871.321 1982.144)">
      <path id="Path_419" data-name="Path 419" d="M2000.266,2228.247l3.29.307,1.541,3.948-3.109-2.91Z" transform="translate(-2000.266 -2228.247)" fill="#002141"/>
    </g>
    <g id="Group_188" data-name="Group 188" transform="translate(1868.663 1983.072)">
      <path id="Path_420" data-name="Path 420" d="M1989.628,2231.961l6.429,7.858-5.751-2.845Z" transform="translate(-1989.628 -2231.961)" fill="#002141"/>
    </g>
    <g id="Group_189" data-name="Group 189" transform="translate(1871.941 1983.048)">
      <path id="Path_421" data-name="Path 421" d="M2002.745,2231.864l3.946,3.747-.364,4Z" transform="translate(-2002.745 -2231.864)" fill="#002141"/>
    </g>
    <g id="Group_190" data-name="Group 190" transform="translate(1865.214 1982.753)">
      <path id="Path_422" data-name="Path 422" d="M1985.957,2230.684s4.079,7.449,3.7,8.669-9.628.983-9.628.983l-4.207-7.317,3.449,2.693v.66l7.2,3.383.541-4.867.474.045Z" transform="translate(-1975.826 -2230.684)" fill="#002141"/>
    </g>
    <g id="Group_191" data-name="Group 191" transform="translate(1876.764 1983.072)">
      <path id="Path_423" data-name="Path 423" d="M2026.28,2235.679s-.457-2.857-4.234-3.719l2.949,6.381Z" transform="translate(-2022.046 -2231.961)" fill="#002141"/>
    </g>
    <g id="Group_192" data-name="Group 192" transform="translate(1857.988 1958.912)">
      <circle id="Ellipse_2" data-name="Ellipse 2" cx="2.44" cy="2.44" r="2.44" fill="#002141"/>
    </g>
    <g id="Group_193" data-name="Group 193" transform="translate(1862.226 1979.707)">
      <path id="Path_424" data-name="Path 424" d="M1964.244,2221.15a.386.386,0,0,1-.067-.006.375.375,0,0,1-.3-.436l.344-1.907a.375.375,0,0,1,.738.133l-.344,1.907A.375.375,0,0,1,1964.244,2221.15Z" transform="translate(-1963.869 -2218.494)" fill="#002141"/>
    </g>
    <g id="Group_194" data-name="Group 194" transform="translate(1871.385 1980.358)">
      <path id="Path_425" data-name="Path 425" d="M2000.9,2223.343l-.043,0a.375.375,0,0,1-.33-.415l.172-1.494a.375.375,0,1,1,.745.086l-.172,1.494A.374.374,0,0,1,2000.9,2223.343Z" transform="translate(-2000.521 -2221.1)" fill="#002141"/>
    </g>
    <g id="Group_196" data-name="Group 196" transform="translate(1859.368 1952.498)">
      <g id="Group_195" data-name="Group 195">
        <path id="Path_426" data-name="Path 426" d="M1959.548,2112.568a1.11,1.11,0,0,0,.614-.648,1.641,1.641,0,0,0-.063-.9.959.959,0,0,0-.244-.485.591.591,0,0,0-.047-.036.975.975,0,0,0-.217-.1,11.723,11.723,0,0,0-2.51-.348l-1.448-.21a7.541,7.541,0,0,0-1.772-.221,1.647,1.647,0,0,0-.833.315c-.174.124-.575.343-.6.58-.026.3.62.473.837.563l.863.359c.733.3,1.466.61,2.214.873A4.315,4.315,0,0,0,1959.548,2112.568Z" transform="translate(-1952.433 -2109.607)" fill="#002141"/>
      </g>
    </g>
    <g id="Group_198" data-name="Group 198" transform="translate(1876.306 1951.916)">
      <g id="Group_197" data-name="Group 197">
        <path id="Path_427" data-name="Path 427" d="M2020.868,2110.24a1.109,1.109,0,0,1-.614-.648,1.636,1.636,0,0,1,.063-.9.956.956,0,0,1,.244-.485.476.476,0,0,1,.047-.036.986.986,0,0,1,.217-.1,11.736,11.736,0,0,1,2.51-.348l1.447-.21a7.556,7.556,0,0,1,1.772-.221,1.642,1.642,0,0,1,.833.314c.174.125.575.343.6.58.026.3-.62.473-.836.563l-.863.359c-.733.3-1.466.61-2.214.873A4.316,4.316,0,0,1,2020.868,2110.24Z" transform="translate(-2020.213 -2107.279)" fill="#002141"/>
      </g>
    </g>
    <g id="Group_199" data-name="Group 199" transform="translate(1828.366 1900.161)">
      <path id="Path_428" data-name="Path 428" d="M1906.453,1937.5c-.282-2.034-1.4-1.511-1.2-3.361s-.487-1.493-1.505-2.706a1.743,1.743,0,0,1-.407-1.119,8.808,8.808,0,0,0-2.21-6.83,12.89,12.89,0,0,0-1.834-1.71,4.839,4.839,0,0,0-1.48-.717.649.649,0,0,1-.528-.643c-.251-1.925,1.729-3.071.542-4.587q-.335-.427-.7-.814a8.878,8.878,0,0,0-2.5-1.9,1.265,1.265,0,0,1-.292-.2,2.452,2.452,0,0,1-.495-.876,7.664,7.664,0,0,0-1.634-2.645,6.24,6.24,0,0,0-2.582-1.627c-.933-.312-1.939-.368-2.872-.68a3.575,3.575,0,0,1-1.485-.992c-2.063-2.356-4.733-2.817-7.531-2.924a2.239,2.239,0,0,0-.836.047,2.449,2.449,0,0,1-2.521-.536,4.567,4.567,0,0,0-4.924-.641.811.811,0,0,1-.616-.111,7.079,7.079,0,0,0-4.358-1.068,8.466,8.466,0,0,1-3.721-.536c-1.725-.52-3.138.321-4.451,1.347a1.09,1.09,0,0,1-1.078.233,4.688,4.688,0,0,0-4.291.846,8.651,8.651,0,0,0-1.295,1.215,3.808,3.808,0,0,1-2.065.934,5,5,0,0,0-2.613,1.9c-.565.789-1.029,1.66-1.561,2.477a1.089,1.089,0,0,1-.493.4,8.794,8.794,0,0,0-4.189,3.428,5.086,5.086,0,0,0-.631,1.632,3.041,3.041,0,0,1-1,1.669,5.466,5.466,0,0,0-1.766,3.292,1.608,1.608,0,0,1-.55.841c-.3-.575-.8.116-.8.116s-.042.167-.5,1.5a2.063,2.063,0,0,1-.425.732c-1.6,1.693-1.278.926-1.261,3.339.005.729-1.3,2.176-1.526,2.806-1.031,2.823-1.2,3.567-.116,6.376a.767.767,0,0,1-.085.856,10.225,10.225,0,0,0-1.544,7.41s-.221,4.5,1.041,5.772a8.212,8.212,0,0,0,1.416,1.146.482.482,0,0,1,.125.126,1.279,1.279,0,0,1,.2.506,6.855,6.855,0,0,0,1.529,3.181,4.823,4.823,0,0,0,1.706,3.4,8.532,8.532,0,0,0,4.655,3.549,4.739,4.739,0,0,0,4.22,2.721s-.334-.934-.309-.907c.006.006-.035-.4-.1-1.012,1.013.714,2.329.963,3.673,2.03,2.51,1.991,2.9,3.234,2.9,3.234l3.856-.193-.8-2.163a18.153,18.153,0,0,1-.853-8.5,8.9,8.9,0,0,0,1.545-4.531c.028-.489.316,1.253,2.924,1.428s3.5-1.82,4.522-3.441a7.506,7.506,0,0,0,.824-.058,5.335,5.335,0,0,0,2.934.043c.091-.01.182-.014.272-.027a6.3,6.3,0,0,0,1.147-.273,8.444,8.444,0,0,0,2.384.786,4.83,4.83,0,0,0,1.925.172c.238,0,.474,0,.705-.017a9.2,9.2,0,0,0,6.215-2.624c.04-.013.077-.031.117-.045.02.027.042.049.062.075.123.163.252.315.382.464.055.063.108.128.164.189a7.594,7.594,0,0,0,.568.552,7.9,7.9,0,0,0,4.65,1.9,6.641,6.641,0,0,0,2.038-.283,1,1,0,0,1,.98.15,1.315,1.315,0,0,1,.2.28,11.423,11.423,0,0,0,.755,1.02,10.587,10.587,0,0,0,.736.922c.1.114.206.221.31.328.122.125.243.25.369.367.183.169.368.333.56.484l.069.054a1.8,1.8,0,0,0,.383.241l-.232,9.395,2.23-1.081a14.761,14.761,0,0,1,.946-5.1,13.277,13.277,0,0,1,1.345-2.3c.1.33.159.53.162.524.02-.033-.126,5.041-.126,5.041,6.174-.759,5.751-5.5,5.751-5.5,3.733-2.216,2.681-7.235,2.681-7.235,1.064-1.705,1.023-2.863.754-3.571C1904.541,1943.971,1906.872,1940.518,1906.453,1937.5Z" transform="translate(-1828.366 -1900.16)" fill="#002141"/>
    </g>
    <g id="Group_200" data-name="Group 200" transform="translate(1877.036 1959.676)">
      <path id="Path_429" data-name="Path 429" d="M2023.76,2141.814a.625.625,0,0,1-.441-1.068c.1-.1,2.454-2.415,4.7-2.415h.031a2.851,2.851,0,0,1,2.091.9.625.625,0,0,1-.9.869,1.621,1.621,0,0,0-1.2-.517h-.021c-1.438,0-3.246,1.479-3.823,2.052A.625.625,0,0,1,2023.76,2141.814Z" transform="translate(-2023.136 -2138.331)" fill="#002141"/>
    </g>
    <g id="Group_201" data-name="Group 201" transform="translate(1864.386 1968.5)">
      <path id="Path_430" data-name="Path 430" d="M1979.2,2181.231a6.533,6.533,0,0,1-5.115-1.956,7.249,7.249,0,0,1-1.545-5.185.5.5,0,0,1,.5-.444h12.75a.5.5,0,0,1,.5.476,7.588,7.588,0,0,1-1.856,5.154A6.906,6.906,0,0,1,1979.2,2181.231Zm-5.686-6.585a6.051,6.051,0,0,0,1.321,3.969,5.59,5.59,0,0,0,4.365,1.617,5.954,5.954,0,0,0,4.506-1.645,6.4,6.4,0,0,0,1.571-3.941Z" transform="translate(-1972.512 -2173.646)" fill="#002141"/>
    </g>
    <g id="Group_202" data-name="Group 202" transform="translate(1876.386 1973.986)">
      <path id="Path_431" data-name="Path 431" d="M2021.035,2221.955a.5.5,0,0,1-.442-.731l4.67-8.908c-.1-.875-.486-4.963.948-7.852,1.423-2.865-.017-7.839-.032-7.889a.5.5,0,0,1,.2-.553,2.468,2.468,0,0,1,2.381-.185c1.412.719,2.179,3.007,2.282,6.8a.5.5,0,1,1-1,.027c-.12-4.444-1.134-5.624-1.728-5.932a1.309,1.309,0,0,0-1.064-.034c.334,1.313,1.219,5.473-.141,8.212-1.443,2.907-.839,7.386-.833,7.431a.5.5,0,0,1-.052.3l-4.743,9.047A.5.5,0,0,1,2021.035,2221.955Z" transform="translate(-2020.535 -2195.601)" fill="#002141"/>
    </g>
    <g id="Group_203" data-name="Group 203" transform="translate(1882.714 1980.535)">
      <path id="Path_432" data-name="Path 432" d="M2046.36,2241.614a.5.5,0,0,1-.474-.659l2.587-7.736a.5.5,0,0,1,.406-.336l4.243-.577c.562-.286.9-.618.98-.962a1,1,0,0,0-.178-.754.5.5,0,0,1,.277-.8c.542-.127.645-.37.679-.449a1.97,1.97,0,0,0-.277-1.416.5.5,0,0,1,.015-.535c.648-.964-.468-1.943-.516-1.985a.5.5,0,0,1,.019-.775.964.964,0,0,0,.406-.666,1.956,1.956,0,0,0-.341-1.135l-5.916.576a.5.5,0,1,1-.1-.995l6.205-.6a.5.5,0,0,1,.435.181,3.124,3.124,0,0,1,.707,2.089,1.877,1.877,0,0,1-.392.953,2.432,2.432,0,0,1,.475,2.651,2.634,2.634,0,0,1,.2,2.047,1.644,1.644,0,0,1-.783.822,1.837,1.837,0,0,1,.063,1,2.621,2.621,0,0,1-1.59,1.688.512.512,0,0,1-.152.046l-4.017.546-2.488,7.441A.5.5,0,0,1,2046.36,2241.614Z" transform="translate(-2045.859 -2221.808)" fill="#002141"/>
    </g>
  </g>
</svg>
