<svg xmlns="http://www.w3.org/2000/svg" width="113.32" height="100.181" viewBox="0 0 113.32 100.181">
  <g id="Group_160" data-name="Group 160" transform="translate(644.945 -2055.221)">
    <g id="Group_130" data-name="Group 130" transform="translate(-629.776 2080.34)">
      <path id="Path_387" data-name="Path 387" d="M-593.4,2116.455l-14.171,11.49-2.17,20.172,9.32,13.533,4.979,4.086,4.341,1.915-3.7,2.809-3.447,3.191-1.277,3.064-5.234,7.022-1.277,4.213h55.025l1.277-10.086-.894-7.15.383-2.426,6.511-4.979,3.83-2.043,1.66-2.425.894-3.447,16.342-18,6.894-3.192,1.66-5.362-2.681-5.617-3.447-2.553-6.384-.574-3.192,1.6-1.788,3.958-.255,4.085.83,2.617-3.766,3.894-10.724,10.214-1.787.511-3.575-2.937-6.128-8.171-10.724-18.895s-7.533-3.447-8.171-3.447S-593.4,2116.455-593.4,2116.455Z" transform="translate(609.741 -2113.519)" fill="#fff"/>
    </g>
    <g id="Group_133" data-name="Group 133" transform="translate(-592.579 2100.316)">
      <g id="Group_132" data-name="Group 132" transform="translate(0 0)">
        <g id="Group_131" data-name="Group 131">
          <path id="Path_388" data-name="Path 388" d="M-518.509,2160.33a.848.848,0,0,0-.727-.451,1.915,1.915,0,0,0-1.025.332l-2,1.17c-.007,0-.01.012-.017.017l-.258.152a1.711,1.711,0,0,0-.453.434,1.542,1.542,0,0,0-.314.5,1.21,1.21,0,0,0-.027.952.847.847,0,0,0,.727.451,1.9,1.9,0,0,0,1.025-.332l2.271-1.339a1.71,1.71,0,0,0,.453-.433,1.551,1.551,0,0,0,.314-.5A1.21,1.21,0,0,0-518.509,2160.33Z" transform="translate(523.414 -2159.879)" fill="#052242"/>
        </g>
      </g>
    </g>
    <g id="Group_136" data-name="Group 136" transform="translate(-614.989 2102.562)">
      <g id="Group_135" data-name="Group 135" transform="translate(0 0)">
        <g id="Group_134" data-name="Group 134">
          <path id="Path_389" data-name="Path 389" d="M-570.768,2168.3a1.292,1.292,0,0,0,.838-.5.784.784,0,0,0-.017-.83,1.9,1.9,0,0,0-.861-.642l-2.128-.966c-.008,0-.016,0-.024,0l-.276-.125a1.82,1.82,0,0,0-.627-.127,1.682,1.682,0,0,0-.61.022,1.292,1.292,0,0,0-.837.5.783.783,0,0,0,.017.831,1.893,1.893,0,0,0,.861.642l2.427,1.1a1.834,1.834,0,0,0,.628.127A1.691,1.691,0,0,0-570.768,2168.3Z" transform="translate(575.422 -2165.09)" fill="#052242"/>
        </g>
      </g>
    </g>
    <g id="Group_139" data-name="Group 139" transform="translate(-644.945 2055.221)">
      <g id="Group_138" data-name="Group 138" transform="translate(0 0)">
        <g id="Group_137" data-name="Group 137">
          <path id="Path_390" data-name="Path 390" d="M-570.613,2119.452s-7.54,6.933-11.2,5.619,1.515-2.558,2.6-6.538,6.122-17.627-8.82-29.242a10.358,10.358,0,0,1,1.144,3.232c.494,1.9.84,2.922.607,3.66s-3.68.879-4.49.938c-8.931.649-12.987,1.71-21.918,2.359-.533.039-5.934.41-6.326.063-.344-.3-.486-1.554-.565-1.994a25.367,25.367,0,0,0-1.524-4.487,39.376,39.376,0,0,0-2.922,7.113,67.837,67.837,0,0,0-1.159,12.582c-.347,13.556,12.575,14.528,10.719,16.44s-12.787,4.69-20.378-4.7A46.3,46.3,0,0,1-644,2104.846c-1.422-8.382-1.736-16.982,2.578-27.377s9.6-15.259,14.741-15.869a23.894,23.894,0,0,1,5.007.461s5.667-4.845,12.311-6.29c15.69-2.646,25.647,4.586,34.951,14.374s11.114,24.213,10.3,33.178S-570.613,2119.452-570.613,2119.452Z" transform="translate(644.945 -2055.221)" fill="#052242"/>
        </g>
      </g>
    </g>
    <g id="Group_142" data-name="Group 142" transform="translate(-617.706 2108.824)">
      <g id="Group_141" data-name="Group 141" transform="translate(0 0)">
        <g id="Group_140" data-name="Group 140">
          <path id="Path_391" data-name="Path 391" d="M-580.411,2185.99a.993.993,0,0,1-.835-.687.945.945,0,0,1,.672-1.183l3.96-1.092-4.452-1.547a.956.956,0,0,1-.606-1.225,1,1,0,0,1,1.265-.575l7.351,2.555a.968.968,0,0,1,.663.933.955.955,0,0,1-.712.888l-6.909,1.9A1.018,1.018,0,0,1-580.411,2185.99Z" transform="translate(581.728 -2179.624)" fill="#052242"/>
        </g>
      </g>
    </g>
    <g id="Group_145" data-name="Group 145" transform="translate(-590.777 2105.164)">
      <g id="Group_144" data-name="Group 144" transform="translate(0)">
        <g id="Group_143" data-name="Group 143">
          <path id="Path_392" data-name="Path 392" d="M-512.718,2177.5l-.028,0-5.636-.845a.989.989,0,0,1-.818-.724.932.932,0,0,1,.378-1l5.193-3.614a1.018,1.018,0,0,1,1.386.22.933.933,0,0,1-.216,1.335l-3.234,2.25,3.236.485a.972.972,0,0,1,.837,1.093A.977.977,0,0,1-512.718,2177.5Z" transform="translate(519.23 -2171.131)" fill="#052242"/>
        </g>
      </g>
    </g>
    <g id="Group_146" data-name="Group 146" transform="translate(-624.597 2115.137)">
      <path id="Path_393" data-name="Path 393" d="M-573.917,2216.835c-13.927,0-23.106-9.952-23.526-10.416a1.077,1.077,0,0,1,.076-1.521,1.076,1.076,0,0,1,1.521.076c.126.138,10.757,11.608,25.858,9.423,15.077-2.18,21.292-19.23,21.354-19.4a1.078,1.078,0,0,1,1.375-.655,1.077,1.077,0,0,1,.655,1.375c-.267.752-6.725,18.45-23.076,20.814A29.581,29.581,0,0,1-573.917,2216.835Z" transform="translate(597.722 -2194.277)" fill="#052242"/>
    </g>
    <g id="Group_147" data-name="Group 147" transform="translate(-619.886 2133.571)">
      <path id="Path_394" data-name="Path 394" d="M-567.428,2257.132c-9.289,0-18.7-11.55-19.121-12.069a1.078,1.078,0,0,1,.139-1.495c7.849-6.711,8.435-6.6,9-6.481a1.077,1.077,0,0,1,.844,1.267,1.077,1.077,0,0,1-.878.851,74.817,74.817,0,0,0-6.749,5.3c2.372,2.687,10.5,11.195,17.685,10.421a10.478,10.478,0,0,0,2.994-8.852c-7.588-2.287-9.089-5.37-9.239-5.723a1.077,1.077,0,0,1,.572-1.412,1.076,1.076,0,0,1,1.411.571s1.369,2.666,8.482,4.678a1.077,1.077,0,0,1,.748.76,12.564,12.564,0,0,1-3.718,11.773,1.074,1.074,0,0,1-.589.291A10.686,10.686,0,0,1-567.428,2257.132Zm-9.95-17.955" transform="translate(586.788 -2237.058)" fill="#052242"/>
    </g>
    <g id="Group_148" data-name="Group 148" transform="translate(-595.963 2124.173)">
      <path id="Path_395" data-name="Path 395" d="M-520.482,2240.337c-4.336,0-9.878-6.453-10.532-7.233a1.078,1.078,0,0,1-.2-1.006,1.076,1.076,0,0,1,.731-.72c.01,0,2.78-.967,4.475-6.345a1.079,1.079,0,0,1,1.351-.7,1.077,1.077,0,0,1,.7,1.351c-1.3,4.116-3.23,6.1-4.535,7.026,2.369,2.569,6.015,5.68,8.172,5.472,3.373-2.593,5.423-8.347,5.965-12.979.432-3.7-.043-6.755-1.27-8.172a1.078,1.078,0,0,1,.109-1.52,1.077,1.077,0,0,1,1.519.109c1.641,1.895,2.291,5.479,1.781,9.833-.562,4.811-2.745,11.529-7.045,14.625a1.082,1.082,0,0,1-.408.18A3.971,3.971,0,0,1-520.482,2240.337Z" transform="translate(531.266 -2215.246)" fill="#052242"/>
    </g>
    <g id="Group_149" data-name="Group 149" transform="translate(-571.36 2112.457)">
      <path id="Path_396" data-name="Path 396" d="M-466.2,2207.637a1.072,1.072,0,0,1-.5-.126,1.076,1.076,0,0,1-.567-1.063c.034-.344.767-8.516-6.314-12.143a1.077,1.077,0,0,1-.468-1.45,1.077,1.077,0,0,1,1.45-.468,14.04,14.04,0,0,1,7.471,11.869l2.735-2.3c1.379-7.787-7.128-11.676-7.5-11.84a1.078,1.078,0,0,1-.546-1.422,1.076,1.076,0,0,1,1.419-.548c.108.047,10.734,4.87,8.661,14.615a1.079,1.079,0,0,1-.361.6l-4.788,4.021A1.076,1.076,0,0,1-466.2,2207.637Zm4.788-5.1h0Z" transform="translate(474.167 -2188.055)" fill="#052242"/>
    </g>
    <g id="Group_150" data-name="Group 150" transform="translate(-565.615 2085.386)">
      <path id="Path_397" data-name="Path 397" d="M-459.756,2154.262a1.073,1.073,0,0,1-.786-.341,1.076,1.076,0,0,1,.05-1.522l14.663-13.735c-.945-4.031-.916-11.14,5.308-12.942,8.288-2.4,11.654,4.59,12.76,6.887a9.98,9.98,0,0,1,.3,7.591,4.189,4.189,0,0,1-2.7,2.436,7.292,7.292,0,0,1-7.408-1.749,2.65,2.65,0,0,1-.818-1.99,3.5,3.5,0,0,1,1.5-2.307,1.077,1.077,0,0,1,1.517.138,1.077,1.077,0,0,1-.138,1.517c-.694.578-.729.792-.73.8h0a.969.969,0,0,0,.263.391,5.193,5.193,0,0,0,5.231,1.124,2.052,2.052,0,0,0,1.32-1.248,7.843,7.843,0,0,0-.275-5.77c-1.714-3.559-4.424-7.431-10.22-5.752-6.157,1.782-3.772,10.557-3.667,10.93a1.079,1.079,0,0,1-.3,1.078l-15.129,14.171A1.072,1.072,0,0,1-459.756,2154.262Z" transform="translate(460.833 -2125.228)" fill="#052242"/>
    </g>
    <g id="Group_151" data-name="Group 151" transform="translate(-546.72 2089.221)">
      <path id="Path_398" data-name="Path 398" d="M-411.5,2143.3a3.221,3.221,0,0,1-1.014-.168c-2.436-.806-4.178-4.378-4.369-4.782a1.077,1.077,0,0,1,.515-1.434,1.076,1.076,0,0,1,1.434.515c.572,1.207,1.918,3.267,3.1,3.656a.931.931,0,0,0,.781-.061.56.56,0,0,0,.328-.423c.224-1.1-1.146-3.42-2.191-4.718a1.077,1.077,0,0,1,.163-1.514,1.076,1.076,0,0,1,1.514.162c.526.652,3.126,4.029,2.625,6.5a2.7,2.7,0,0,1-1.423,1.894A3.078,3.078,0,0,1-411.5,2143.3Z" transform="translate(416.982 -2134.13)" fill="#052242"/>
    </g>
    <g id="Group_152" data-name="Group 152" transform="translate(-559.295 2101.542)">
      <path id="Path_399" data-name="Path 399" d="M-445.089,2185.368a1.073,1.073,0,0,1-.714-.271,1.077,1.077,0,0,1-.091-1.521L-429.426,2165a1.077,1.077,0,0,1,.642-.35,8.068,8.068,0,0,0,3.662-1.656,1.077,1.077,0,0,1,1.521.09,1.077,1.077,0,0,1-.09,1.521,10.167,10.167,0,0,1-4.371,2.1l-16.221,18.3A1.074,1.074,0,0,1-445.089,2185.368Z" transform="translate(446.166 -2162.723)" fill="#052242"/>
    </g>
    <g id="Group_153" data-name="Group 153" transform="translate(-613.299 2134.863)">
      <path id="Path_400" data-name="Path 400" d="M-554.569,2251.6c-8.18,0-16.324-9.359-16.67-9.761a1.077,1.077,0,0,1,.115-1.519,1.077,1.077,0,0,1,1.519.114c.079.092,7.984,9.2,15.243,9.009a1.062,1.062,0,0,1,1.1,1.051,1.077,1.077,0,0,1-1.05,1.1C-554.4,2251.6-554.483,2251.6-554.569,2251.6Z" transform="translate(571.5 -2240.056)" fill="#052242"/>
    </g>
    <g id="Group_154" data-name="Group 154" transform="translate(-616.937 2137.352)">
      <path id="Path_401" data-name="Path 401" d="M-560.5,2258.523c-8.187,0-18.685-10.4-19.132-10.851a1.078,1.078,0,0,1,0-1.523,1.078,1.078,0,0,1,1.523,0c.1.1,10.313,10.22,17.6,10.22l.189,0a1.072,1.072,0,0,1,1.1,1.051,1.077,1.077,0,0,1-1.05,1.1Z" transform="translate(579.944 -2245.833)" fill="#052242"/>
    </g>
    <g id="Group_155" data-name="Group 155" transform="translate(-592.808 2130.458)">
      <path id="Path_402" data-name="Path 402" d="M-522.867,2244.436a1.077,1.077,0,0,1-1.077-1.077,1.078,1.078,0,0,1,.84-1.052c1.415-.888,6.712-8.655,5.752-10.987a1.077,1.077,0,0,1,.586-1.406,1.078,1.078,0,0,1,1.406.586c1.125,2.731-1.831,7.621-3.154,9.6C-520.442,2242.976-521.906,2244.436-522.867,2244.436Zm0-2.155h0Z" transform="translate(523.944 -2229.833)" fill="#052242"/>
    </g>
    <g id="Group_156" data-name="Group 156" transform="translate(-589.552 2127.202)">
      <path id="Path_403" data-name="Path 403" d="M-515.311,2242.815a1.074,1.074,0,0,1-.86-.428,1.077,1.077,0,0,1,.208-1.507c.305-.234,7.369-5.78,6.472-17.445a1.078,1.078,0,0,1,.991-1.156,1.071,1.071,0,0,1,1.157.991c.991,12.887-6.979,19.07-7.318,19.326A1.073,1.073,0,0,1-515.311,2242.815Z" transform="translate(516.389 -2222.276)" fill="#052242"/>
    </g>
    <g id="Group_157" data-name="Group 157" transform="translate(-626.704 2141.547)">
      <path id="Path_404" data-name="Path 404" d="M-601.533,2269.423l-.066,0a1.078,1.078,0,0,1-1.01-1.141c.407-6.715,7.12-12.239,7.406-12.471a1.077,1.077,0,0,1,1.515.157,1.077,1.077,0,0,1-.157,1.515h0c-.062.051-6.265,5.167-6.614,10.93A1.077,1.077,0,0,1-601.533,2269.423Z" transform="translate(602.612 -2255.568)" fill="#052242"/>
    </g>
    <g id="Group_158" data-name="Group 158" transform="translate(-571.934 2128.352)">
      <path id="Path_405" data-name="Path 405" d="M-474.231,2250.271a1.076,1.076,0,0,1-.31-.046,1.077,1.077,0,0,1-.722-1.341c1.63-5.433-.2-16.059-.221-16.166a1.078,1.078,0,0,1,.343-.989l7.277-6.511a1.077,1.077,0,0,1,1.521.084,1.078,1.078,0,0,1-.084,1.521l-6.836,6.117c.38,2.405,1.625,11.358.064,16.562A1.079,1.079,0,0,1-474.231,2250.271Z" transform="translate(475.5 -2224.944)" fill="#052242"/>
    </g>
    <g id="Group_159" data-name="Group 159" transform="translate(-609.182 2116.145)">
      <path id="Path_406" data-name="Path 406" d="M-552.328,2209.195a8.983,8.983,0,0,1-5.33-1.626,11.75,11.75,0,0,1-4.271-7.032,1.075,1.075,0,0,1,.192-.811,1.075,1.075,0,0,1,.713-.431l18-2.667a1.078,1.078,0,0,1,1.219.88,11.08,11.08,0,0,1-1.649,7.61,9.85,9.85,0,0,1-6.71,3.885A12.763,12.763,0,0,1-552.328,2209.195Zm-7.194-7.945a10.406,10.406,0,0,0,1.454,2.9c1.735,2.368,4.273,3.284,7.539,2.725a7.788,7.788,0,0,0,5.314-3,8.44,8.44,0,0,0,1.369-4.949Zm-1.344-.89h0Z" transform="translate(561.944 -2196.616)" fill="#052242"/>
    </g>
  </g>
</svg>
