<svg xmlns="http://www.w3.org/2000/svg" width="246.879" height="45.091" viewBox="0 0 246.879 45.091">
  <g id="Group_330" data-name="Group 330" transform="translate(-340.215 -10.386)">
    <g id="Group_329" data-name="Group 329" transform="translate(340.215 10.386)">
      <g id="Group_321" data-name="Group 321">
        <g id="Group_318" data-name="Group 318" transform="translate(114.226 2.29)">
          <path id="Path_1348" data-name="Path 1348" d="M339.106,297.772a.418.418,0,0,0,.069-.081c.407-.842.273-.778,1.2-1.171a12.785,12.785,0,0,1,2.6-.9,2.583,2.583,0,0,0,.311-.116c.489-.159.972-.349,1.472-.466.79-.185,1.573-.39,2.35-.624a3.469,3.469,0,0,1,.654-.1,6.667,6.667,0,0,0,1.421-.176,2.383,2.383,0,0,1,.661-.036,8.924,8.924,0,0,0,2.089-.15,13.24,13.24,0,0,1,2.646.069,3.331,3.331,0,0,0,.549.049c1.292.013,2.583.03,3.875.027a7.9,7.9,0,0,0,1.98-.157,8.577,8.577,0,0,1,2.531.077,5.037,5.037,0,0,0,1.319.092,4.79,4.79,0,0,1,1.419.173,6.528,6.528,0,0,0,.756.169.918.918,0,0,1,.86.731c.03.126.184.219.273.333a.381.381,0,0,1,.1.192c.01.365.012.73,0,1.1,0,.051-.088.113-.149.146-.1.052-.236.056-.3.129a2.97,2.97,0,0,0-.625.763,1.264,1.264,0,0,1-.1.194.457.457,0,0,1-.345.251,1.2,1.2,0,0,0-.77.382.864.864,0,0,1-.821.2,8.618,8.618,0,0,0-1.1-.146,2.458,2.458,0,0,1-.977-.146,4.682,4.682,0,0,0-1.759.006c-.254.064-.508.034-.759.1a.975.975,0,0,1-.544-.024,4.246,4.246,0,0,0-1.531-.162c-.332.008-.664.009-1-.005a2.519,2.519,0,0,1-1.166-.288.708.708,0,0,0-.539-.026,1.464,1.464,0,0,1-.535.121,1.084,1.084,0,0,0-.536.108,1.078,1.078,0,0,1-.535.1c-.369,0-.738-.012-1.107,0a1.445,1.445,0,0,0-.537.1,1.5,1.5,0,0,1-.751.133,1.862,1.862,0,0,0-1.173.215,4.984,4.984,0,0,1-1.52.242,1.042,1.042,0,0,0-.421.1c-.174.059-.346.127-.514.2a1.347,1.347,0,0,1-.753.125c-.291-.045-.555.185-.85.071a.139.139,0,0,0-.107.009,1.345,1.345,0,0,1-1.27,0,1.858,1.858,0,0,0-.542-.064.618.618,0,0,0-.506.182c-.213.231-.421.194-.682.079a8.529,8.529,0,0,0-1.543-.581c-.071-.016-.141-.072-.207-.068a2.313,2.313,0,0,1-1.116-.429c-.082-.039-.14-.026-.178.063a.181.181,0,0,0-.019.1.607.607,0,0,0,.064.208,4,4,0,0,0,.266.353,4.976,4.976,0,0,0,.681.721c.077.314.355.453.563.655.076.074.167.18.121.293a1,1,0,0,0,.052.746.457.457,0,0,1-.146.588.535.535,0,0,0-.248.463c0,.59,0,1.18.005,1.77a.64.64,0,0,1-.322.648.245.245,0,0,0-.088.292c.125.5.324.973.44,1.478a5.539,5.539,0,0,1,.369,1.374,4.956,4.956,0,0,1,.246,1.3,3.05,3.05,0,0,0,.093.433,5.225,5.225,0,0,1,.146,1.537,7.392,7.392,0,0,0-.007.773,1.356,1.356,0,0,1-.126.753,1.23,1.23,0,0,0-.025,1.065.866.866,0,0,1,.087.528,1.944,1.944,0,0,0-.015,1.088,2.035,2.035,0,0,1,.051.549c.021.406,0,.815.062,1.215a9.761,9.761,0,0,0,.286,1.062,1.461,1.461,0,0,1,.056.323c.015.551.02,1.1.033,1.655,0,.184.03.368.03.553,0,.255.21.485.09.752-.1.228.056.429.061.647a6.821,6.821,0,0,1-.112,1.979,1.328,1.328,0,0,0,.026.76c.041.134.008.289.037.428.011.052.109.131.156.124.989-.159,1.989-.044,2.981-.125a9.065,9.065,0,0,1,1.325.035,10.559,10.559,0,0,0,2.534-.123c.289-.051.585-.07.879-.093.477-.04.953-.061,1.429-.141a9.432,9.432,0,0,1,1.543-.093c.883,0,1.77-.006,2.649.061.66.051,1.319.135,1.98.174a5.432,5.432,0,0,1,2.053.364.312.312,0,0,0,.107.027,5.129,5.129,0,0,1,1.1.087,4.368,4.368,0,0,0,1.086.162,4.164,4.164,0,0,1,1.525.185,1.943,1.943,0,0,0,.658.045,2.635,2.635,0,0,1,.66.023c.783.244,1.624.074,2.4.347.441.034.882.066,1.323.1a5.194,5.194,0,0,1,1.1.128,2.755,2.755,0,0,0,.66.061,2.089,2.089,0,0,0,.974-.155,5.869,5.869,0,0,1,2.494-.309.681.681,0,0,1,.672.475,2.067,2.067,0,0,1,.156.411.8.8,0,0,1-.012.433,5.134,5.134,0,0,0-.316,1.054,1.384,1.384,0,0,1-.151.29,1.173,1.173,0,0,0-.167.4,3.651,3.651,0,0,1-.438,1.58,3.047,3.047,0,0,1-.522,1.2.848.848,0,0,1-.487.425,4.159,4.159,0,0,0-.517.2c-.167.075-.325.169-.487.254-.222.379-.6.385-.966.381a4.9,4.9,0,0,0-.769.013.528.528,0,0,0-.519.468.246.246,0,0,1-.359.134,1.77,1.77,0,0,1-.193-.1.91.91,0,0,0-.61-.193,4.427,4.427,0,0,1-.87-.1,1.857,1.857,0,0,1-.218-.034.7.7,0,0,1-.206-.077c-.436-.291-.991-.273-1.429-.553a1.117,1.117,0,0,0-.628-.18c-.294,0-.588.017-.884.016a.776.776,0,0,1-.608-.208.926.926,0,0,0-.595-.261,7.56,7.56,0,0,1-1.309-.2,11.054,11.054,0,0,1-1.188-.234,4.59,4.59,0,0,1-1.374-.367,10.012,10.012,0,0,0-1.508-.319,7.477,7.477,0,0,0-1.192-.21c-.4,0-.81-.066-1.213-.056a4.767,4.767,0,0,0-.871-.072,6.272,6.272,0,0,0-.752.178,2.665,2.665,0,0,1-.985.1,4.3,4.3,0,0,1-.542-.088,1.238,1.238,0,0,0-.961.09,3.5,3.5,0,0,0-1.341.47.255.255,0,0,1-.3-.071.548.548,0,0,0-.4-.152,8.228,8.228,0,0,0-1.311-.06,3.437,3.437,0,0,0-1.423-.038c-.061.013-.136-.033-.205-.051-.107-.026-.224-.1-.318-.072a3.136,3.136,0,0,1-1.505-.223.535.535,0,0,1-.289-.141c-.312-.4-.716-.281-1.11-.215-.107.018-.2.1-.311.11a.912.912,0,0,1-.435-.006,7.83,7.83,0,0,1-2.232-1.186,1.175,1.175,0,0,0-.8-.327,3.318,3.318,0,0,1-.549-.011c-.252-.043-.483-.158-.739-.21a1.23,1.23,0,0,1-.949-.841,3.844,3.844,0,0,0-.268-.723,5.653,5.653,0,0,1-.635-2.1,18,18,0,0,1-.252-2.639,7.036,7.036,0,0,0-.151-1.76c.033-.551-.108-1.1-.029-1.654a3.028,3.028,0,0,0-.031-.549c-.015-.332-.023-.664-.039-1a3.941,3.941,0,0,0-.063-.768,5.282,5.282,0,0,1-.125-.984,1.528,1.528,0,0,0-.016-.331,9.881,9.881,0,0,1-.179-2.418c-.043-.773-.013-1.55-.007-2.325a1.687,1.687,0,0,1,.062-.547,4.341,4.341,0,0,0,.144-.981,2.219,2.219,0,0,1,.061-.547,4.2,4.2,0,0,0,.158-1.748c-.018-.812.008-1.623-.011-2.435-.007-.295.01-.589,0-.884a5.767,5.767,0,0,1,.41-2.592,1.991,1.991,0,0,0,.173-.751,7.642,7.642,0,0,1,.514-2.248,1.552,1.552,0,0,1,.053-.214c.031-.062.092-.157.139-.157.45,0,.694-.4,1.072-.544A.642.642,0,0,1,339.106,297.772Z" transform="translate(-335.691 -293.883)" fill="#fff" fill-rule="evenodd"/>
          <path id="Path_1349" data-name="Path 1349" d="M357.88,307.34c-.083-.038-.144-.093-.2-.087a4.405,4.405,0,0,0-.543.093,1.776,1.776,0,0,1-.767.015,13.316,13.316,0,0,0-2.418-.2,3.779,3.779,0,0,1-.988-.081.759.759,0,0,0-.435.017.783.783,0,0,1-.215.049,2.918,2.918,0,0,1-1.308-.059,4.736,4.736,0,0,1-1.2-.549,7.57,7.57,0,0,0-.961-.532.667.667,0,0,1-.221-.236.484.484,0,0,1,.122-.6,2.471,2.471,0,0,1,.273-.183,10.9,10.9,0,0,1,1.628-.677,3.533,3.533,0,0,1,.645-.143,5.943,5.943,0,0,1,.773-.056q1.77-.006,3.541.005c.664.005,1.327.022,1.99.044a4.23,4.23,0,0,1,.767.077,3.964,3.964,0,0,0,1.75,0,6.914,6.914,0,0,1,.876-.109,6.713,6.713,0,0,0,1.09-.146,4.913,4.913,0,0,1,1.1-.04,1.924,1.924,0,0,1,.762.086,1.091,1.091,0,0,0,.433.071,7.182,7.182,0,0,1,1.634.248.937.937,0,0,1,.682.51.384.384,0,0,1-.243.6,1.208,1.208,0,0,1-.328.027.841.841,0,0,0-.854.4,4.223,4.223,0,0,1-.606.637.756.756,0,0,1-.6.231c-.332-.007-.664-.019-.995,0-.228.011-.437-.136-.639-.1a.864.864,0,0,1-.633-.04.213.213,0,0,0-.105-.027,2.592,2.592,0,0,0-1.034.3c.265.152.523.289.77.446a1.091,1.091,0,0,1,.332.289c.18.268.395.53.23.906-.086.2-.077.434-.156.637-.106.279.084.56-.064.851a1.732,1.732,0,0,0-.1.87.349.349,0,0,0,.234.332,3.317,3.317,0,0,0,.863.163,6.525,6.525,0,0,1,1.835.327c.07.015.133.066.2.087a8.321,8.321,0,0,1,1.763.818c.123.079.26.138.381.22a.441.441,0,0,1,.132.17,1.186,1.186,0,0,1,.023,1.066.649.649,0,0,1-.7.427,2.2,2.2,0,0,0-.975.04c-.468.093-.943.162-1.4.29-.741.208-1.47.46-2.214.661a.4.4,0,0,0-.278.321c-.057.325-.083.656-.132.984a1.9,1.9,0,0,1-.12.534,14.876,14.876,0,0,0-.575,2.119.284.284,0,0,0,.207.332,2.092,2.092,0,0,0,.323.066c.184.013.369.014.554.012a5.4,5.4,0,0,1,1.633.234,4.845,4.845,0,0,0,.964.223,8.37,8.37,0,0,1,.857.191,1.175,1.175,0,0,1,.662.366,9.637,9.637,0,0,0,.774.788,4.984,4.984,0,0,1,.744.955.432.432,0,0,1-.043.417c-.07.086-.147.166-.212.255-.2.269-.564.344-.74.645a.308.308,0,0,1-.184.109,3.453,3.453,0,0,1-1.081.2,2.464,2.464,0,0,0-1.282.24,8.806,8.806,0,0,1-1.383.355c-.069.02-.158.053-.213.027-.516-.251-1.106-.029-1.623-.264a.315.315,0,0,0-.215.013.5.5,0,0,1-.422-.019.524.524,0,0,0-.528-.005,1.087,1.087,0,0,1-.635.151,9.03,9.03,0,0,1-1.973-.132c-.125-.034-.28.027-.426-.03a14.862,14.862,0,0,0-1.706-.435,2.655,2.655,0,0,0-1.524.065,1.1,1.1,0,0,1-.65.029c-.25-.064-.495-.147-.745-.211a5.1,5.1,0,0,1-1.882-.876c-.466-.353-.985-.642-1.46-.993a5.663,5.663,0,0,1-1.144-1.177.11.11,0,0,1,.005-.1.142.142,0,0,1,.088-.062,5.748,5.748,0,0,0,1.19-.569c.116-.053.169-.232.272-.334a.375.375,0,0,1,.392-.137c.035.011.073.013.108.023a3.646,3.646,0,0,0,1.316.09c.33-.031.663-.008,1-.022a2.352,2.352,0,0,0,.656-.068,3.609,3.609,0,0,1,1.2-.141c.626,0,1.253-.008,1.88-.011.252,0,.421-.056.478-.334a4.921,4.921,0,0,0,.226-1.076.909.909,0,0,1,.076-.318,2.241,2.241,0,0,0,.181-1.28,1.166,1.166,0,0,0,.062-.753c-.023-.061-.092-.151-.141-.151a12.588,12.588,0,0,0-1.742-.093.927.927,0,0,0-.39.189,1.384,1.384,0,0,1-1.371.144c-.584-.235-1.209-.311-1.793-.532-.308-.116-.633-.189-.943-.3a1.52,1.52,0,0,1-.919-.748.646.646,0,0,0-.317-.3c-.2-.093-.066-.233-.047-.361a.206.206,0,0,0-.161-.247.846.846,0,0,1-.4-.176.319.319,0,0,1-.013-.4c.2-.162.394-.38.656-.37a7.092,7.092,0,0,0,1.075-.223,1.077,1.077,0,0,0,.411-.145,6.531,6.531,0,0,1,2.045-.789c.179-.037.353-.106.528-.161a4.716,4.716,0,0,1,1.738-.241,12.2,12.2,0,0,0,1.84-.3.72.72,0,0,0,.1-.053.364.364,0,0,0,.172-.373c-.049-.139-.1-.277-.156-.411-.151-.337-.324-.664-.454-1.007a.762.762,0,0,1,.055-.642.562.562,0,0,1,.309-.3,4.163,4.163,0,0,0,.423-.108C357.285,307.649,357.574,307.493,357.88,307.34Z" transform="translate(-337.538 -295.476)" fill="#fff" fill-rule="evenodd"/>
        </g>
        <path id="Path_1350" data-name="Path 1350" d="M287.949,340.755a.5.5,0,0,1-.068.17.331.331,0,0,1-.167.066c-.012,0-.043-.052-.055-.085-.029-.086,0-.157.087-.174A.7.7,0,0,1,287.949,340.755Z" transform="translate(-213.852 -299.017)" fill="#fff" fill-rule="evenodd"/>
        <g id="Group_319" data-name="Group 319" transform="translate(68.714)">
          <path id="Path_1351" data-name="Path 1351" d="M291.7,333.358a2.834,2.834,0,0,0-.424-.212,1.373,1.373,0,0,0-.43-.059c-.107,0-.213.075-.32.078-.263.008-.472.2-.732.2s-.506-.031-.787-.049c-.107.13-.22.275-.34.413s-.321.125-.473-.04a.757.757,0,0,1-.228-.487.446.446,0,0,0-.2-.369,1.021,1.021,0,0,0-.481-.255,1.814,1.814,0,0,0-.331-.005,1.37,1.37,0,0,1-.733-.21c-.061-.029-.152-.093-.152-.141,0-.47-.434-.555-.7-.787a7.624,7.624,0,0,1-.681-.56,1.568,1.568,0,0,0-.87-.626.518.518,0,0,1-.32-.289,5.33,5.33,0,0,1-.744-2.292,1.327,1.327,0,0,1,.054-.543,1.41,1.41,0,0,0-.065-1.275.529.529,0,0,1-.059-.209c-.035-.292-.062-.584-.093-.878-.2-.251-.074-.579-.2-.848a.281.281,0,0,1,.038-.311.756.756,0,0,0,.184-.715,3.737,3.737,0,0,0-.11-.643.8.8,0,0,1-.023-.434,2.5,2.5,0,0,0,.087-1.194c.211-.413.092-.873.182-1.3a4.462,4.462,0,0,0,.011-1.423,7.948,7.948,0,0,1-.134-1.973,6.2,6.2,0,0,1-.1-1.65,5.6,5.6,0,0,0-.369-2.164c-.175-.417-.128-.876-.318-1.283a.688.688,0,0,1-.03-.328,2.778,2.778,0,0,0-.141-1.194,1.894,1.894,0,0,1-.053-.658c0-.959.013-1.918.02-2.876a1.923,1.923,0,0,1,.021-.442,12.068,12.068,0,0,0,.2-2.307,1.216,1.216,0,0,1,.017-.33c.155-.421.114-.878.251-1.3a6.625,6.625,0,0,0,.106-1.649.814.814,0,0,0-.092-.315c-.1-.274-.219-.545-.319-.82a.583.583,0,0,1,.331-.73,2.147,2.147,0,0,1,.321-.075.828.828,0,0,0,.447-.305c.046-.053.106-.144.09-.2-.1-.309.109-.566.124-.852a.83.83,0,0,1,.322-.562,7.148,7.148,0,0,1,.753-.65,2.9,2.9,0,0,0,.564-.523.6.6,0,0,1,.37-.223,2.7,2.7,0,0,0,1.15-.629c.3-.215.612-.412.9-.635a3.9,3.9,0,0,1,1.92-.757c.469-.066.945-.143,1.405-.251a6.924,6.924,0,0,1,1.643-.175,8.736,8.736,0,0,0,1.955-.314,9.487,9.487,0,0,1,1.936-.4,2.855,2.855,0,0,1,1.306-.161q2.658-.016,5.315-.006a3.878,3.878,0,0,1,1.311.147,2.033,2.033,0,0,0,.659.039,7.174,7.174,0,0,1,1.974.189c.458.128.953.09,1.421.209a1.009,1.009,0,0,0,.431-.044.906.906,0,0,1,.541.029c.724.275,1.451.535,2.189.768a.772.772,0,0,1,.3.137c.381.364.919.475,1.309.818a1.631,1.631,0,0,1,.351.424,1.818,1.818,0,0,0,.556.67.6.6,0,0,1,.211.379.6.6,0,0,0,.194.385c.277.2.226.437.1.682a11.04,11.04,0,0,1-.989,1.323.9.9,0,0,1-.269.184c-.093.057-.221.085-.277.166a5,5,0,0,1-2.535,1.449,2.315,2.315,0,0,1-.533.142,1.016,1.016,0,0,1-.433,0,1.742,1.742,0,0,0-.982-.023,1.008,1.008,0,0,1-.543-.008.55.55,0,0,0-.321.007,2.509,2.509,0,0,1-.98.135,1.783,1.783,0,0,0-.75.152,1.073,1.073,0,0,1-.962-.032.77.77,0,0,0-.737-.019,1.275,1.275,0,0,1-.206.072.318.318,0,0,1-.386-.134c-.162-.33-.477-.3-.755-.375a1.249,1.249,0,0,1-.849-.068,4.183,4.183,0,0,0-.88-.067c-.7-.028-1.4.063-2.1.005a2.107,2.107,0,0,1-.65-.111c-.426-.175-.877-.018-1.311-.088a.4.4,0,0,0-.213.047,3.542,3.542,0,0,1-1.521.154c-.364.005-.734-.052-1.1-.014a.912.912,0,0,1-.531-.11.529.529,0,0,0-.429,0,.452.452,0,0,1-.5-.147.42.42,0,0,0-.5-.106c-.295.153-.575,0-.855.019a.978.978,0,0,1-.721-.131c-.141-.1-.363-.1-.507-.2a.894.894,0,0,0-.842-.1.738.738,0,0,1-.635.016c-.067-.036-.128-.005-.189.06a1.089,1.089,0,0,1-.243.223c-.125.069-.278.152-.417.066-.356-.219-.785-.183-1.155-.362s-.751-.3-1.128-.443c-.208-.081-.388.013-.384.216q.016,1.049.05,2.1c.008.25.185.467.082.752a3.793,3.793,0,0,0-.1.642c-.079.47-.118.948-.163,1.423a.527.527,0,0,0,.066.21.752.752,0,0,1-.008.642,1.16,1.16,0,0,0-.158.525,3.261,3.261,0,0,1-.266,1.18,1.312,1.312,0,0,0-.026.969.556.556,0,0,1,.049.214,7.465,7.465,0,0,0,.628,2.558,5.534,5.534,0,0,0,.439,1.01,2.149,2.149,0,0,1,.332.929.757.757,0,0,0,.108.305,6.805,6.805,0,0,1,.344.928,2.943,2.943,0,0,1,.2.853c.019.335.22.625.2.97-.018.33.013.663,0,.995a9.277,9.277,0,0,0,.273,1.851c.029.181.1.356.123.537.038.366.054.734.077,1.1s.23.686.24,1.07a3.071,3.071,0,0,0,.27,1.064c.133.318.082.661.2.97a3.465,3.465,0,0,1,.152.98.881.881,0,0,0,.064.321,1.258,1.258,0,0,1,.11.64c-.016.441.02.884.018,1.326a1.6,1.6,0,0,0,.175.854,1.547,1.547,0,0,0,1.262,1.231,1.462,1.462,0,0,0,1.076.046c.331.005.662.019.994.012a3.415,3.415,0,0,0,.879-.067,5.37,5.37,0,0,1,1.535-.138c.221,0,.445.014.664-.009a18.986,18.986,0,0,1,2.983-.007,13,13,0,0,0,1.991-.029,17.969,17.969,0,0,1,2.212,0,3.714,3.714,0,0,1,.544.093.776.776,0,0,0,.321.044,3.293,3.293,0,0,1,1.09-.028,1.818,1.818,0,0,1,.432.011,4.889,4.889,0,0,0,1.525.18,7.775,7.775,0,0,1,.874.084,5.142,5.142,0,0,0,1.429-.089,6.18,6.18,0,0,1,1.873-.085,8.921,8.921,0,0,0,2.748-.137,4.589,4.589,0,0,1,.879-.092c.374-.009.691-.245,1.076-.227a1.961,1.961,0,0,0,.978-.13c.313.1.643-.077.966.08a3.027,3.027,0,0,0,.645.117.284.284,0,0,1,.159.139,5.467,5.467,0,0,1,.336,1.158.234.234,0,0,1,0,.11c-.1.392-.174.79-.3,1.175a2.067,2.067,0,0,1-.9,1.216.289.289,0,0,0-.087.067,4.18,4.18,0,0,1-1.722,1.164,1.647,1.647,0,0,1-.631.19c-.378.019-.676.278-1.034.362-.087.02-.149.151-.22.232a.159.159,0,0,1-.2.056,1.915,1.915,0,0,0-1.178-.175,2.984,2.984,0,0,0-.972.167,1.344,1.344,0,0,1-.544.051c-.517.01-1.033.019-1.55.015a1.221,1.221,0,0,0-.633.161.545.545,0,0,1-.622-.029.439.439,0,0,0-.413-.089,5.212,5.212,0,0,1-1.861.183c-.774-.005-1.546-.039-2.321.016a12.468,12.468,0,0,1-1.436-.057,2.092,2.092,0,0,0-.759.117,1.664,1.664,0,0,0-.851.662c-.028.038-.129.043-.19.032a.139.139,0,0,1-.106-.173c.013-.072.048-.14.06-.211s-.142-.184-.226-.154c-.034.013-.082.019-.1.045a3.029,3.029,0,0,0-.162.277.907.907,0,0,1-.9.507,2.789,2.789,0,0,1-1.046-.325.482.482,0,0,0-.427-.035,1.154,1.154,0,0,1-.96.053c-.1-.04-.194.057-.262.157a.2.2,0,0,1-.285.052c-.129-.07-.257-.141-.383-.215a.2.2,0,0,0-.207.007,1.8,1.8,0,0,1-1.4,0,.759.759,0,0,0-.64-.044,1.743,1.743,0,0,1-.967.151c-.094,0-.147-.038-.133-.09.008-.029.047-.054.077-.069C291.469,333.464,291.567,333.42,291.7,333.358Zm6.375-.024c.029.02.058.058.085.056.143-.008.19-.054.192-.192,0-.027-.056-.079-.061-.077a.982.982,0,0,0-.168.119A.3.3,0,0,0,298.078,333.334Z" transform="translate(-281.609 -291.162)" fill="#fff" fill-rule="evenodd"/>
          <path id="Path_1352" data-name="Path 1352" d="M303.08,325.663c-.179.063-.22.1-.19.189a1.8,1.8,0,0,0,.092.2c.045.093.15.188.037.289a.61.61,0,0,1-.273.164.713.713,0,0,1-.626-.109,1.873,1.873,0,0,0-1.273-.518c-.147-.006-.295-.008-.442-.011l.023.026c-.069-.081-.13-.222-.208-.233-.436-.059-.867-.146-1.3-.2a1.342,1.342,0,0,0-.762.08.385.385,0,0,1-.413-.057,1.192,1.192,0,0,0-.713-.251,2.138,2.138,0,0,1-.86-.171,1.124,1.124,0,0,0-.864.016.193.193,0,0,1-.175-.065c-.1-.253-.351-.267-.547-.322a2.978,2.978,0,0,0-.762-.077,2.76,2.76,0,0,1-.959-.213,1.742,1.742,0,0,1-.892-.6,2.726,2.726,0,0,0-.44-.492.762.762,0,0,1-.188-.265c-.185-.438-.273-.908-.449-1.351a.434.434,0,0,1,.145-.5.408.408,0,0,0,.151-.476.512.512,0,0,1,.393-.574,10.758,10.758,0,0,1,1.655-.008.234.234,0,0,1,.109.018,4.474,4.474,0,0,0,1.383.311,3.811,3.811,0,0,0,1.426.056,13.983,13.983,0,0,1,2.2-.147,1.823,1.823,0,0,0,.326-.047.171.171,0,0,0,.1-.257,7.336,7.336,0,0,1-.535-1.089.844.844,0,0,1-.018-.751,2.042,2.042,0,0,0,.191-.631c.028-.282-.016-.48-.346-.59a10.878,10.878,0,0,1-1.55-.586.64.64,0,0,0-.321-.05c-.217.012-.437.072-.652.063a2.783,2.783,0,0,0-.544.047,4.534,4.534,0,0,1-1.971-.094,2.056,2.056,0,0,1-.31-.109c-.4-.194-.792-.39-1.185-.592-.062-.032-.14-.087-.156-.146a.926.926,0,0,0-.423-.613c-.1-.236-.217-.466-.292-.709-.107-.352-.191-.71-.265-1.07a1.183,1.183,0,0,0-.235-.492c-.325-.417-.142-.749.146-1.075.04-.045.132-.049.2-.06a.245.245,0,0,1,.105.029.562.562,0,0,1,.1.044,3,3,0,0,0,2.3.611,2.192,2.192,0,0,0,.332,0,7.073,7.073,0,0,1,2.616.3,5.131,5.131,0,0,0,1.861.055.293.293,0,0,0,.166-.132.922.922,0,0,0,.146-.294,4.749,4.749,0,0,1,1.068-2.034,4.437,4.437,0,0,0,.417-.648.394.394,0,0,0-.267-.589c-.106-.025-.217-.03-.326-.051-.36-.07-.724-.124-1.077-.221a2.765,2.765,0,0,1-.6-.285,1.012,1.012,0,0,0-.523-.151,2.99,2.99,0,0,1-1.305-.141.32.32,0,0,0-.215.019.851.851,0,0,1-.534-.017,5.5,5.5,0,0,0-.767-.072.772.772,0,0,0-.518.153,1.656,1.656,0,0,1-.279.178,2.683,2.683,0,0,1-.42.128.538.538,0,0,1-.432-.032c-.334-.228-.808-.169-1.072-.527a.961.961,0,0,1-.167-.283,2.768,2.768,0,0,1,.037-1.416.245.245,0,0,1,.156-.142c.712-.179,1.391-.47,2.122-.591a17.278,17.278,0,0,0,1.808-.469c.287-.081.587-.062.863-.169a6.426,6.426,0,0,1,.751-.167c.927-.236,1.89-.285,2.8-.576a6.459,6.459,0,0,0,1.177-.267,5.193,5.193,0,0,1,1.752.114,3.881,3.881,0,0,0,1.426.105.412.412,0,0,0,.212-.054,1.8,1.8,0,0,1,.734-.21,1.429,1.429,0,0,0,.519-.181,1.015,1.015,0,0,1,1.133-.052c.49.253,1.015.433,1.518.659.369.167.73.352,1.087.542a.773.773,0,0,1,.34.268,1.274,1.274,0,0,0,.722.643,1.274,1.274,0,0,1,.652.567,2.582,2.582,0,0,0,.208.256.23.23,0,0,1-.02.3,3.3,3.3,0,0,0-.275.342.389.389,0,0,1-.245.2,5.327,5.327,0,0,1-1.183.264,1,1,0,0,0-.325.055c-.56.179-1.093.433-1.657.6a2.162,2.162,0,0,0-.494.245.865.865,0,0,1-.524.136,4.6,4.6,0,0,1-.657-.042,1.041,1.041,0,0,0-.538-.012,1.755,1.755,0,0,1-1.087-.047,1.753,1.753,0,0,0-.428-.1,1.1,1.1,0,0,0-.943.3l.34.358c.125.132.249.265.383.407a6.742,6.742,0,0,0,.387,2.159c.089.256.22.331.5.289a1.87,1.87,0,0,0,.22-.026,2.582,2.582,0,0,0,.313-.106,4.9,4.9,0,0,1,2.28-.286,1.871,1.871,0,0,1,.643.142,4.017,4.017,0,0,1,1.088.527,1.066,1.066,0,0,0,.4.182,1.026,1.026,0,0,1,.465.273,4.738,4.738,0,0,0,.528.394.711.711,0,0,1,.167.89c-.137.215-.3.412-.454.616.038.183-.055.236-.221.291a2.509,2.509,0,0,1-1.062.257,1.752,1.752,0,0,0-.751.13,3.12,3.12,0,0,1-1.169.3,2.238,2.238,0,0,1-.831.259,4.231,4.231,0,0,0-.7.306c-.344.13-.7.226-1.045.353a.886.886,0,0,0-.512.789,2.181,2.181,0,0,0,.061.547c.072.228-.03.437-.015.652s.093.433.1.65a4.714,4.714,0,0,1-.079.656.269.269,0,0,0,.192.238,3.6,3.6,0,0,0,1.086.185c.479.008.959.006,1.436.041a4.8,4.8,0,0,1,1.423.159,10.265,10.265,0,0,0,2.754-.028,6.881,6.881,0,0,1,1.428-.1,1.121,1.121,0,0,1,.7.289.311.311,0,0,1-.034.528c-.365.23-.427.361-.327.706a1.484,1.484,0,0,1,.107.311.4.4,0,0,1-.089.3,1.263,1.263,0,0,0-.39.523,2.226,2.226,0,0,1-.238.5.885.885,0,0,0-.135.626c.019.226-.129.354-.34.293a.743.743,0,0,0-.862.32,1.559,1.559,0,0,0-.2.387c-.041.11-.1.215-.21.227a5.829,5.829,0,0,1-1.508.264,1.069,1.069,0,0,0-.524.141,11.917,11.917,0,0,0-1.033.636.443.443,0,0,1-.419.057,11.159,11.159,0,0,0-1.165-.325,1.991,1.991,0,0,1-.4-.163,1.156,1.156,0,0,0-1.252-.023.951.951,0,0,1-.2.1.418.418,0,0,1-.555-.21c.056-.025.135-.037.162-.08s-.029-.1-.093-.071S303.056,325.588,303.08,325.663Z" transform="translate(-282.939 -293.091)" fill="#fff" fill-rule="evenodd"/>
          <path id="Path_1353" data-name="Path 1353" d="M302.272,330.106c-.137.24-.146.245-.389.2a.157.157,0,0,1-.085-.051c-.037-.044-.006-.1.086-.111.135-.017.274-.011.411-.014Z" transform="translate(-284.806 -297.333)" fill="#fff" fill-rule="evenodd"/>
        </g>
        <g id="Group_320" data-name="Group 320" transform="translate(0 0.61)">
          <path id="Path_1354" data-name="Path 1354" d="M239.5,301.5a1.108,1.108,0,0,1-.167-.173c-.151-.248-.183-.251-.384,0l.019-.02a4.154,4.154,0,0,0-.818.144.208.208,0,0,1-.264-.134l.067-.038-.046.058c-.236,0-.471,0-.706-.008a1.016,1.016,0,0,1-.432-.056,1.3,1.3,0,0,0-.768-.111,6.785,6.785,0,0,1-.8-.018.694.694,0,0,1-.258-.049,1.22,1.22,0,0,0-.6-.106.988.988,0,0,1-.892-.475,1.468,1.468,0,0,1-.376-.681.205.205,0,0,0-.093-.141c-.227-.119-.079-.466-.348-.553a.392.392,0,0,1-.013-.419,3.318,3.318,0,0,1,.436-.544.36.36,0,0,1,.4-.109,4.87,4.87,0,0,0,1.736.253,7.074,7.074,0,0,1,1.494.118,2.014,2.014,0,0,0,.527-.007,5.632,5.632,0,0,1,1.027-.231,2.485,2.485,0,0,1,.86-.137,1.048,1.048,0,0,0,.735-.227,1.764,1.764,0,0,1,.635-.295,1.036,1.036,0,0,1,.607-.028,1.476,1.476,0,0,0,.431.081,13.732,13.732,0,0,1,1.4.189,1.332,1.332,0,0,1,.337.094,4.533,4.533,0,0,0,1.648.258,1.358,1.358,0,0,0,.682-.127.242.242,0,0,1,.249.029.562.562,0,0,0,.423.086,1.421,1.421,0,0,1,.993.281,8.79,8.79,0,0,1,1.035.673,6.657,6.657,0,0,0,.576.4.51.51,0,0,1,.231.256,5.163,5.163,0,0,0,.22.481c.08.153.173.3.258.444a2.851,2.851,0,0,1-.932.68,3.714,3.714,0,0,1-.586.168,9.065,9.065,0,0,1-1.838.188,2.028,2.028,0,0,0-.521.07,1.4,1.4,0,0,1-.869-.007,2.57,2.57,0,0,0-.871-.1c-.619.005-1.239-.024-1.856,0-.247.008-.458-.184-.682-.111a3.082,3.082,0,0,1-.686.138c0-.068-.031-.116-.088-.128a.394.394,0,0,0-.325.04l.434.063c.085.08.172.159.256.241a.8.8,0,0,1,.241.363c.038.141.092.279.139.418a.649.649,0,0,1-.038.513c-.04.08-.081.158-.125.235a1.107,1.107,0,0,0-.141.5,2.023,2.023,0,0,1-.486,1.291.6.6,0,0,0-.146.215,2.4,2.4,0,0,1-.327.624c-.059.093-.022.2.067.2.441,0,.883,0,1.325-.005a10.8,10.8,0,0,1,2.726-.139c.3-.013.57.144.869.146s.59.023.884.047a1.838,1.838,0,0,1,.251.08c.344.08.676.2,1.024.273.315.065.608.233.923.3s.635.12.946.214a2.229,2.229,0,0,0,.764.2.609.609,0,0,1,.251.074,5.5,5.5,0,0,0,.892.376.561.561,0,0,1,.227.13c.175.157.343.321.509.488a.228.228,0,0,1,.043.245c-.019.056-.041.11-.063.169a4.744,4.744,0,0,1,.6.976.823.823,0,0,1,.088.338c.017.295.029.591.019.884-.028.8-.029,1.594-.007,2.392.011.383,0,.767,0,1.15.151.29-.065.579-.009.863s-.1.514-.094.777c0,.029.013.066,0,.086-.259.379-.189.863-.4,1.256a.488.488,0,0,0-.045.171c-.037.289-.024.588-.087.866s-.252.529-.312.823c-.029.143-.087.281-.125.422-.031.114-.019.257-.085.339-.249.312-.26.72-.453,1.051a1.21,1.21,0,0,1-.292.328,1.33,1.33,0,0,0-.445.639,2.862,2.862,0,0,1-.419.771c-.242.334-.479.672-.7,1.022-.03.05-.07.114-.118.127-.438.115-.711.524-1.15.635a.325.325,0,0,1-.254-.016c-.051-.03-.1-.06-.15-.094-.1-.068-.188-.139-.276-.205-.088.056-.161.108-.236.152-.093.056-.12.049-.211-.05-.038-.042-.06-.109-.105-.133-.181-.1-.373-.167-.549-.27a.386.386,0,0,1-.151-.206,1.757,1.757,0,0,1-.087-.43c-.013-.235,0-.472,0-.708a.244.244,0,0,0-.136-.2,3.827,3.827,0,0,0-.516-.108c-.144-.012-.3.054-.437.032a10.529,10.529,0,0,1-1.034-.214.811.811,0,0,0-.515.019,4.693,4.693,0,0,1-.595.165,1.97,1.97,0,0,1-.435.064c-.414,0-.829,0-1.24-.035-.2-.019-.4-.019-.6-.019a3.3,3.3,0,0,0-.523.026.719.719,0,0,1-.352-.005,4.246,4.246,0,0,0-1.314-.124,2.6,2.6,0,0,0-.443,0c-.308.04-.57-.139-.861-.167-.263-.025-.532-.021-.791-.063a4.582,4.582,0,0,1-.681-.187.367.367,0,0,0-.255-.024.79.79,0,0,1-.6-.043c-.137-.052-.281-.089-.417-.145a1.376,1.376,0,0,0-.676-.071c-.235.162-.449.321-.672.462a1.372,1.372,0,0,0-.379.365.532.532,0,0,1-.459.22,2.756,2.756,0,0,1-1.05-.105,1.108,1.108,0,0,1-.523-.311.411.411,0,0,0-.234-.106.293.293,0,0,1-.216-.131c-.072-.128-.125-.267-.193-.4a1.3,1.3,0,0,0-.182-.3,1.962,1.962,0,0,1-.5-1.373c-.005-.176-.021-.353-.031-.528-.2-.279-.085-.641-.246-.932a.441.441,0,0,1-.078-.247,1.009,1.009,0,0,0-.26-.891.34.34,0,0,1-.034-.252.925.925,0,0,1,.337-.6.8.8,0,0,0,.283-.794c-.015-.163-.143-.3-.284-.264a1.3,1.3,0,0,1-.777.016c-.5-.013-1-.063-1.5-.029a2.205,2.205,0,0,1-1.276-.27,2.113,2.113,0,0,0-1.182-.276,6.531,6.531,0,0,1-1.652-.261c-.4-.085-.8-.191-1.2-.3a5.6,5.6,0,0,0-1.042-.184c-.407-.036-.81-.139-1.214-.209-.232-.04-.467-.061-.7-.113a2.569,2.569,0,0,0-.593-.162.617.617,0,0,1-.5-.324,3.038,3.038,0,0,1-.167-.311c-.056-.1-.115-.2-.178-.314-.194.044-.188.261-.321.358s-.258.239-.391.355a.973.973,0,0,1-.279.212.755.755,0,0,0-.452.394,1.8,1.8,0,0,1-.518.6c-.161.13-.316.267-.484.386a8.38,8.38,0,0,0-1.151.967,1.221,1.221,0,0,1-.6.35c-.114.026-.221.084-.336.112a1.24,1.24,0,0,0-.539.295,4.685,4.685,0,0,1-1.379.767c-.16.067-.344.074-.51.13-.306.1-.607.225-.911.335a3.822,3.822,0,0,1-1.107.278,1.9,1.9,0,0,0-.779.141,2.963,2.963,0,0,1-1.65-.074.716.716,0,0,0-.522,0,2.889,2.889,0,0,1-.69.125c-.29.034-.569.148-.858.2-.26.045-.531.032-.79.076-.173.029-.341.082-.518.105a1.806,1.806,0,0,1-1.1-.259.424.424,0,0,1-.166-.2,1.754,1.754,0,0,0-.257-.46.71.71,0,0,1-.141-.321c-.038-.171-.105-.337-.134-.51a1.283,1.283,0,0,1-.031-.524,7.934,7.934,0,0,0,.186-1.488.3.3,0,0,1,.179-.173c.029,0,.057-.018.086-.019a2.541,2.541,0,0,0,.7-.052.917.917,0,0,1,.344.034,7.5,7.5,0,0,0,1.853-.012,6.451,6.451,0,0,1,.965-.1,2.63,2.63,0,0,0,1.2-.251.846.846,0,0,1,.685-.043,2.961,2.961,0,0,0,1.57.019,6.49,6.49,0,0,0,1.18-.353,2.21,2.21,0,0,0,.549-.277,5.5,5.5,0,0,1,1.544-.848.329.329,0,0,0,.082-.031,13.386,13.386,0,0,0,2.692-1.841c.22-.235.529-.4.663-.7.125-.276.348-.477.471-.746a.946.946,0,0,0,.114-.236,5.144,5.144,0,0,0,.2-.951,1.155,1.155,0,0,1,.114-.515,2.327,2.327,0,0,0,.229-.938.879.879,0,0,1,.089-.338,13.9,13.9,0,0,0,.585-1.942c.179-.619.265-1.265.5-1.871a5.857,5.857,0,0,1,.192-.856c.037-.3.157-.568.219-.856a.252.252,0,0,0-.12-.217.515.515,0,0,0-.167-.05,2.146,2.146,0,0,1-1.1-.279c-.188-.084-.383-.155-.564-.251a.531.531,0,0,0-.711.115c-.092.1-.107.084-.419-.009-.02-.006-.06-.005-.066.005-.14.282-.39.219-.619.191-.144-.018-.28-.1-.423-.119a.427.427,0,0,0-.465.178c-.047.075-.085.157-.137.227a.284.284,0,0,1-.135.107c-.14.034-.3-.016-.422.093a.537.537,0,0,1-.328.112,1.25,1.25,0,0,0-.088-.136.1.1,0,0,0-.137.018c-.02.038.012.072.083.084.054.008.109.008.163.011a.42.42,0,0,0,.094.41,2.3,2.3,0,0,1,.434.556.488.488,0,0,1,.035.5.317.317,0,0,0,.056.4.236.236,0,0,1,.071.154,3.082,3.082,0,0,0-.038.951c-.163.14-.077.327-.1.5a2.649,2.649,0,0,1-.231,1.023c-.119.2-.018.4-.086.594a.178.178,0,0,0,.034.16c.2.157.215.419.366.6.191.223.4.433.6.645.407.425.82.846,1.226,1.273a1.721,1.721,0,0,1,.353.608.364.364,0,0,1-.056.337c-.1.141-.254.234-.316.416a.3.3,0,0,1-.386.109,2.633,2.633,0,0,0-.834-.27.464.464,0,0,0-.259.024.678.678,0,0,1-.652-.187c-.383-.323-.751-.663-1.129-.992a1.294,1.294,0,0,0-.218-.146.094.094,0,0,0-.085,0c-.247.161-.5.321-.5.667,0,.128-.034.259-.144.3-.209.077-.373.161-.374.419a.487.487,0,0,1-.176.3.687.687,0,0,0-.178.4c-.022.177-.133.244-.3.247a1.349,1.349,0,0,0-.345.04,10.081,10.081,0,0,0-1.965.751c-.332-.051-.591-.274-.916-.332a1.077,1.077,0,0,1-.382-.212c-.194-.134-.364-.308-.631-.265-.2-.114-.415-.219-.609-.348a.346.346,0,0,1-.117-.226,5.062,5.062,0,0,1-.018-.53.525.525,0,0,0-.216-.461.458.458,0,0,1-.13-.56,1.063,1.063,0,0,1,.54-.767.306.306,0,0,0,.13-.116,1.122,1.122,0,0,1,.787-.518,1.891,1.891,0,0,0,.713-.328,1.64,1.64,0,0,1,.231-.132,4.069,4.069,0,0,0,1.775-2.022c.086-.187.168-.372.267-.554a2.278,2.278,0,0,0,.316-1.091,3.4,3.4,0,0,1,.491-1.49c.132-.2.188-.432.309-.634a.233.233,0,0,0-.125-.29,1.594,1.594,0,0,0-1.119.043.368.368,0,0,1-.251.041c-.2-.056-.406-.087-.592-.159a5.173,5.173,0,0,0-.738-.265c-.046-.011-.088-.076-.117-.124-.045-.073-.057-.19-.119-.225a.419.419,0,0,1-.214-.518c.067-.316.1-.64.175-.957a3.167,3.167,0,0,1,.212-.67c.192-.4.247-.842.4-1.254a1.02,1.02,0,0,0,.035-.349c0-.428.221-.473.586-.332.192.074.386.139.583.209a5.9,5.9,0,0,1,1.723-.406.917.917,0,0,1,.436.032,1.153,1.153,0,0,0,.7,0,.539.539,0,0,1,.558.136,1.7,1.7,0,0,0,1.428.262,2.2,2.2,0,0,1,.431-.081c.855-.011,1.712-.054,2.567-.005a1.2,1.2,0,0,1,.265.016,7.372,7.372,0,0,0,2.111.1.282.282,0,0,0,.259-.21c.1-.275.179-.557.289-.828.1-.246.242-.473.337-.72a5.3,5.3,0,0,0,.39-1.628,1.217,1.217,0,0,1,.163-.5.913.913,0,0,1,.279-.336c.143-.1.284-.209.421-.32a1.1,1.1,0,0,1,.907-.255c.144.024.29.043.433.074a.32.32,0,0,1,.175.433.6.6,0,0,1-.087.153,7.674,7.674,0,0,0-.717,1,.831.831,0,0,0-.183.395,3.012,3.012,0,0,1-.27.836,8.14,8.14,0,0,0-.342.908,4.536,4.536,0,0,0-.113.605c-.011.061.086.194.14.2.324.013.649.023.973.036a3.115,3.115,0,0,1,.964.118,1.1,1.1,0,0,0,.348.051c.472.007.944.005,1.417.005a.882.882,0,0,0,.431-.08.28.28,0,0,1,.251-.029,9.654,9.654,0,0,0,1.516.468,1.14,1.14,0,0,1,.7.5c.03.047.064.11.11.126a.611.611,0,0,1,.408.7,1.982,1.982,0,0,0,.139.864c-.1.132-.295.2-.284.416,0,.029-.018.056-.022.086a1.2,1.2,0,0,1-.5.809,1.129,1.129,0,0,1-.826.247,1.832,1.832,0,0,0-1.03.2,1.451,1.451,0,0,1-1.033.077,5.045,5.045,0,0,0-.517-.066,2.136,2.136,0,0,0-.35-.04q-1.683,0-3.364,0a1.65,1.65,0,0,0-.352.039.2.2,0,0,0-.135.1c-.049.137-.075.284-.113.426a1.454,1.454,0,0,0-.114.424c.036.511-.216.98-.194,1.486a1.242,1.242,0,0,1-.053.435,2.663,2.663,0,0,0-.129.782,1.778,1.778,0,0,1-.065.343,1.16,1.16,0,0,0-.069.253,13.907,13.907,0,0,1-.173,1.4,4.676,4.676,0,0,1-.2.946,5.843,5.843,0,0,0-.215.856,6.846,6.846,0,0,1-.232.85,1.12,1.12,0,0,0-.078.337c.016.326-.036.65-.019.972.04.757-.148.563.588,1.018a6.314,6.314,0,0,0,2.486.846c.348.05.691.135,1.033.211.746.166,1.491.344,2.241.5a1.757,1.757,0,0,1,.172.04c.279.092.554.208.839.271.258.056.528.045.789.085a3.682,3.682,0,0,1,.518.071,5.988,5.988,0,0,0,.867.154c.283.04.565-.139.867-.121a.5.5,0,0,0,.243-.086,2.994,2.994,0,0,0,.448-.282.554.554,0,0,1,.58-.072.132.132,0,0,0,.178-.125,2.272,2.272,0,0,1,.2-.852,1.674,1.674,0,0,0,.047-.348.392.392,0,0,1,.113-.231.8.8,0,0,0,.3-.515.914.914,0,0,1,.065-.256,1.946,1.946,0,0,0,.206-1.023.839.839,0,0,0-.161-.491c-.09-.144-.061-.234.124-.347.108-.066.208-.137.2-.261a2.56,2.56,0,0,1,.349-1.173,7.787,7.787,0,0,1,.4-.688.235.235,0,0,1,.236-.077,2.58,2.58,0,0,0,1.447.311.283.283,0,0,1,.188.165c.006.029.014.057.02.086a1.629,1.629,0,0,1-.156,1.115.326.326,0,0,0-.024.085,1.319,1.319,0,0,0,.057.165.368.368,0,0,1,.045.332,1.5,1.5,0,0,0-.094.7.535.535,0,0,0,.387.53.93.93,0,0,1,.164.066.26.26,0,0,1,.129.3c-.086.188-.18.372-.256.563a.524.524,0,0,0-.035.258c.029.228.154.453.005.682-.007.205,0,.412-.024.615-.013.114-.086.219-.109.333a1.175,1.175,0,0,0,.023.778.64.64,0,0,1-.007.6c-.061.12.01.221.018.332a2.162,2.162,0,0,0,.046.682,3.263,3.263,0,0,1-.119.33,2.611,2.611,0,0,0-.234,1.116c0,.207.01.414.008.62a1.014,1.014,0,0,1-.2.665.647.647,0,0,0-.131.413c0,.293-.05.583-.034.878.013.263-.109.516-.032.788.027.1-.045.218-.063.33,0,.018.045.066.053.063a4.352,4.352,0,0,0,.473-.237,4.927,4.927,0,0,1,1.831-.612c.4-.069.806-.155,1.208-.237a.808.808,0,0,0,.162-.072.218.218,0,0,0,.093-.225,5.461,5.461,0,0,1-.262-1.205,1.722,1.722,0,0,1,0-.616,10.946,10.946,0,0,0,.049-2.472,1.53,1.53,0,0,1,.009-.522.823.823,0,0,0,.029-.263,3.607,3.607,0,0,1,.289-1.46c.076-.223.155-.445.22-.672a.389.389,0,0,0,0-.26,1.526,1.526,0,0,1-.109-.864c.009-.117,0-.236,0-.356a3.255,3.255,0,0,0,.563-.77.838.838,0,0,1,.5-.47c.03-.012.04-.083.05-.13,0-.008-.049-.038-.075-.039-.412,0-.826,0-1.239-.007a2.749,2.749,0,0,1-1.049-.106.3.3,0,0,0-.174,0,.46.46,0,0,1-.417-.084.952.952,0,0,0-.489-.188c-.027,0-.073-.03-.072-.042a.265.265,0,0,1,.042-.146,1.343,1.343,0,0,1,.213-.153.239.239,0,0,0,.1-.3.5.5,0,0,1-.013-.088,6.9,6.9,0,0,0,.628-.728.262.262,0,0,1,.146-.092c.132-.043.3-.043.257-.26a.076.076,0,0,1,.043-.058,5.191,5.191,0,0,1,.854-.219c.383-.024.743-.194,1.134-.183.3.008.4-.2.486-.429a.526.526,0,0,0,.031-.083c.058-.281-.027-.6.237-.825l.4-.788A3.927,3.927,0,0,0,239,303.39a.543.543,0,0,0,.044-.507.785.785,0,0,1-.052-.258.631.631,0,0,1,.2-.562c.088-.079.178-.155.258-.241a.313.313,0,0,0,.045-.331.107.107,0,0,0,.149-.053c0-.011-.033-.06-.049-.059C239.523,301.385,239.494,301.431,239.5,301.5Zm8.868,10.584h-.013c0-.383,0-.766,0-1.149a.236.236,0,0,0-.137-.209,1.321,1.321,0,0,0-.492-.183,2.025,2.025,0,0,1-.523-.058c-.229-.078-.468-.066-.691-.128a5.2,5.2,0,0,0-.683-.136,8.679,8.679,0,0,1-1.46-.327,1.958,1.958,0,0,0-.345-.061,1.251,1.251,0,0,0-.177,0,.278.278,0,0,0-.28.278c-.013.442-.021.883-.033,1.325a1,1,0,0,1-.026.351,2.9,2.9,0,0,0-.106,1.221c0,.206,0,.413,0,.619a2.059,2.059,0,0,1-.181.858c-.037.076-.1.183-.074.24.1.226-.053.395-.092.589a6.331,6.331,0,0,1-.141.779.505.505,0,0,0,.035.255c.012.057.05.109.061.165a.665.665,0,0,1-.137.66.543.543,0,0,0-.148.4c0,.118,0,.236,0,.353a2.116,2.116,0,0,1-.185.943,4.217,4.217,0,0,0-.2.672.3.3,0,0,0,.22.333.493.493,0,0,0,.086.021,2.227,2.227,0,0,1,1.153.391,2.86,2.86,0,0,0,.475.232,4.571,4.571,0,0,1,1.093.561,2.108,2.108,0,0,0,.476.227.236.236,0,0,0,.343-.154c.039-.262.034-.536.289-.713a.218.218,0,0,0,.071-.156,1.424,1.424,0,0,1,.188-.487,1.472,1.472,0,0,0,.209-.667c.173-.381.151-.808.295-1.2.245-.664.308-1.378.554-2.042a.4.4,0,0,0,.031-.173c-.025-.333.188-.624.176-.948a4.912,4.912,0,0,1,.219-.943,5.69,5.69,0,0,0,.119-.872C248.333,312.676,248.358,312.382,248.373,312.088Zm-10.392.508a.87.87,0,0,1,.456-.626c.128-.071.253-.147.379-.224a.966.966,0,0,1,.592-.144,3.773,3.773,0,0,1,.525.063,2.656,2.656,0,0,1,.821.307,1.647,1.647,0,0,1,.9.514c.072.073.137.042.184-.045.118-.216.076-.466.156-.687a6.9,6.9,0,0,0,.272-.652,6.246,6.246,0,0,1,.192-.677,1.46,1.46,0,0,0,.041-.437.333.333,0,0,0-.234-.337.678.678,0,0,0-.253-.074c-.266.02-.51-.1-.773-.1a2.557,2.557,0,0,1-.618-.018,1.738,1.738,0,0,0-.688.007.477.477,0,0,1-.252-.061.476.476,0,0,0-.337-.072,1.44,1.44,0,0,1-.523.007c-.293-.028-.589-.021-.884-.027-.028,0-.056.015-.084.017a.145.145,0,0,0-.088.2c.074.16.163.315.222.481s-.07.341-.072.517-.015.354-.019.532a3.211,3.211,0,0,1-.111.87,11.4,11.4,0,0,0-.215,1.218c-.078.435-.057.88-.143,1.317a3.805,3.805,0,0,0,0,.8.792.792,0,0,0,.042.171c.028.11.164.217.261.19a2.7,2.7,0,0,1,.691-.13.843.843,0,0,0,.339-.081,1.207,1.207,0,0,1,.78-.047,2.592,2.592,0,0,0,.427.1c.2,0,.408-.078.61-.072a6.444,6.444,0,0,1,.7.105.315.315,0,0,0,.171-.03c.048-.024.109-.072.119-.119a3.28,3.28,0,0,0,.023-1.139.107.107,0,0,0-.125-.093c-.263.024-.525.01-.787.019a1.384,1.384,0,0,1-.424-.023,1.492,1.492,0,0,1-.619-.329,2.912,2.912,0,0,0-1.08-.577A.812.812,0,0,1,237.981,312.6Zm1.722,7.234a.47.47,0,0,1,.337.026c.5.151.636-.067.825-.43a.824.824,0,0,0,.077-.341,1.658,1.658,0,0,1,.1-.508,6.946,6.946,0,0,0,.2-.856c.028-.127-.147-.28-.288-.252-.086.016-.167.043-.252.065a1.558,1.558,0,0,1-.337.086c-.644.018-1.289.02-1.933.037a.756.756,0,0,1-.416-.106,1.238,1.238,0,0,0-.245-.086c-.059-.019-.22.05-.229.1a8.879,8.879,0,0,1-.5,1.771.2.2,0,0,0,.224.278,6.676,6.676,0,0,1,1.138.1,4.169,4.169,0,0,1,1.129.143C239.581,319.869,239.645,319.839,239.7,319.83Z" transform="translate(-199.954 -291.886)" fill="#fff" fill-rule="evenodd"/>
          <path id="Path_1355" data-name="Path 1355" d="M214.966,333.006a.248.248,0,0,0-.088,0,.591.591,0,0,1-.5.056,4.531,4.531,0,0,0-.671-.221,7.5,7.5,0,0,1-.958-.162.483.483,0,0,0-.257.023,3.062,3.062,0,0,0-.741.268,6.906,6.906,0,0,0-1.255.805c-.072.063-.123.054-.231-.038-.067-.056-.129-.117-.186-.168a4.253,4.253,0,0,0-.426.153.925.925,0,0,0-.193.173.84.84,0,0,1-.133.114c-.384.221-.384.221-.552.472-.014.021-.05.029-.077.038a.092.092,0,0,1-.121-.081,2.523,2.523,0,0,0-.18-.589.55.55,0,0,0-.081-.157c-.059-.061-.136-.156-.2-.154a2.978,2.978,0,0,1-.762-.206c-.049-.012-.088-.066-.126-.1.028-.148.057-.293.083-.438a1.182,1.182,0,0,1,.042-.261c.3-.644.367-1.367.719-1.988.086-.151.2-.284.3-.43.048-.073.058-.178.117-.235.325-.309.492-.732.793-1.058a2,2,0,0,1,.778-.569,5.19,5.19,0,0,0,.482-.222c.2-.094.21-.162.091-.424a.384.384,0,0,1-.06-.162.155.155,0,0,1,.092-.118.759.759,0,0,1,.652.2.266.266,0,0,0,.324.048,10.756,10.756,0,0,0,2.376-1.681,1.03,1.03,0,0,0,.242-.363,2.681,2.681,0,0,1,.294-.54,9.034,9.034,0,0,1,.73-1.1,3.925,3.925,0,0,0,.589-1.549c.006-.06.15-.131.218-.109.083.028.162.073.246.1a.28.28,0,0,0,.295-.146c.06-.133.11-.27.17-.4a.166.166,0,0,1,.229-.061.547.547,0,0,0,.41.116,1.076,1.076,0,0,1,.6.083,5.694,5.694,0,0,0,.831.295.8.8,0,0,1,.512.46.428.428,0,0,0,.244.231c.075.03.087.068.055.141a.2.2,0,0,0-.018.158c.047.07.114.155.187.172.6.141,1.207.257,1.806.4.571.141,1.137.312,1.7.467a2.92,2.92,0,0,1,.649.277,10.089,10.089,0,0,0,1.1.562,2.851,2.851,0,0,1,.889.572.877.877,0,0,1,.337.6c.006.114.09.221.1.335a.841.841,0,0,1-.016.433,1.706,1.706,0,0,0-.163.858,1,1,0,0,1-.23.741.547.547,0,0,0-.092.15c-.168.439-.338.879-.493,1.324a1.274,1.274,0,0,0-.029.348.311.311,0,0,0,.158.2,8.475,8.475,0,0,1,1.356.377,2.389,2.389,0,0,0,.517.115c.56.037,1.09.252,1.652.273a.544.544,0,0,1,.176.013,3.841,3.841,0,0,0,1.4.161,1.129,1.129,0,0,1,.35.043,3.668,3.668,0,0,0,1.224.141.548.548,0,0,1,.261.024c.225.136.456.051.685.06.2.008.408.054.613.067.235.016.472.02.709.021.708,0,1.415,0,2.125,0a1.753,1.753,0,0,1,.783.1.753.753,0,0,0,.261.034,1.847,1.847,0,0,1,.265.009c.81.175,1.639.182,2.455.3a5.469,5.469,0,0,0,.705.042c.471.009.945,0,1.416.015a3.06,3.06,0,0,1,.873.122,2.245,2.245,0,0,0,.522.064,9.528,9.528,0,0,1,1.315.146c.4.083.815.093,1.22.183a3.426,3.426,0,0,0,.618.009c.411.014.825.034,1.237.051a6.675,6.675,0,0,0,1.125.218,8.781,8.781,0,0,0,1.408.109.336.336,0,0,0,.173-.029,2.538,2.538,0,0,0,.892-.555,1.536,1.536,0,0,1,1.165-.526c.059,0,.118-.008.176-.005a.446.446,0,0,1,.306.156.526.526,0,0,1,.1.146,6.946,6.946,0,0,0,.429.769.668.668,0,0,1,.092.51,3.228,3.228,0,0,1-.512,1.3c-.3.4-.569.825-.836,1.247a2.041,2.041,0,0,0-.264.554c-.083.317-.348.554-.375.89a4.34,4.34,0,0,1-.288.331,1.031,1.031,0,0,0-.285.433.628.628,0,0,1-.519.433c-.2.029-.369.2-.592.109-.037-.015-.116.026-.152.064-.1.107-.2.213-.371.194-.213-.023-.4.109-.592.131a2.449,2.449,0,0,1-.6-.1,2.114,2.114,0,0,0-1.195.229c-.268.12-.519.278-.785.4a1.087,1.087,0,0,1-.762.107,7.351,7.351,0,0,0-.966-.112,1.655,1.655,0,0,0-.688-.117,2.257,2.257,0,0,0-.706,0,.97.97,0,0,1-.683-.107.36.36,0,0,0-.338-.018.173.173,0,0,1-.226-.05c-.036-.046-.057-.1-.1-.148a.5.5,0,0,0-.55-.183c-.029.008-.056.019-.084.029a.438.438,0,0,1-.332-.078c-.144-.066-.065-.194-.059-.3.005-.087-.094-.184-.166-.167a1.526,1.526,0,0,0-.162.055.866.866,0,0,1-.605.009,4.814,4.814,0,0,1-1.216-.511.787.787,0,0,0-.5-.13,5.336,5.336,0,0,0-1.056,0,.655.655,0,0,1-.348-.039.646.646,0,0,0-.423.024.283.283,0,0,1-.323-.084c-.14-.2-.291-.271-.513-.133a.265.265,0,0,1-.172.024,2.574,2.574,0,0,0-1.291-.051.339.339,0,0,1-.248-.051.438.438,0,0,0-.475-.135,1.89,1.89,0,0,0-.693-.119.415.415,0,0,1-.285-.186c-.049-.059-.09-.058-.155-.023a.242.242,0,0,1-.17.023c-.867-.278-1.771-.41-2.639-.672a7.449,7.449,0,0,1-1.513-.463.424.424,0,0,0-.17-.04,9.439,9.439,0,0,1-1.713-.422,11.252,11.252,0,0,0-1.456-.353.947.947,0,0,1-.257-.062,3.073,3.073,0,0,0-1.29-.252,1.719,1.719,0,0,1-.347-.06.456.456,0,0,0-.523.22c-.029.049-.052.119-.1.139-.148.066-.248.141-.16.321-.05.069-.084.171-.152.2a.511.511,0,0,0-.3.493.633.633,0,0,1-.093.245c-.027.051-.067.116-.114.13a1.693,1.693,0,0,0-.742.6c-.179.19-.483.247-.564.538-.148.1-.3.189-.443.285a.435.435,0,0,0-.214.26c-.032.123-.067.114-.145-.013-.029-.048-.061-.094-.1-.152a2.832,2.832,0,0,0-.8.509l.011-.01a2,2,0,0,0-.4.578.225.225,0,0,1-.2.153.446.446,0,0,0-.42.268.432.432,0,0,1-.422.258c-.088,0-.176,0-.265,0a.61.61,0,0,0-.469.2,1.163,1.163,0,0,1-.275.215c-.151.088-.346-.043-.5.1a.678.678,0,0,1-.4.167,4.292,4.292,0,0,0-.607.106.765.765,0,0,1-.8-.237c-.019-.021-.028-.053-.047-.074-.133-.133-.165-.141-.3-.08s-.268.118-.4.178a.2.2,0,0,1-.234-.053,8.508,8.508,0,0,0-.518-.7,1.212,1.212,0,0,0-.509-.464.275.275,0,0,1-.1-.311.748.748,0,0,0,.1-.5.432.432,0,0,1,.242-.512c.087-.05.115-.191.077-.231s-.083-.094-.134-.107c-.255-.063-.513-.114-.77-.17-.293-.066-.371-.232-.236-.511a1.991,1.991,0,0,1,.173-.306.57.57,0,0,1,.361-.234c.144-.026.294-.018.438-.045a2.935,2.935,0,0,0,.509-.129,4.024,4.024,0,0,1,.838-.263,1.044,1.044,0,0,0,.544-.279,4.274,4.274,0,0,1,.807-.526,18.914,18.914,0,0,0,1.6-1.087,1.468,1.468,0,0,0,.5-.491c.082-.16.3-.194.333-.385,0-.02-.024-.066-.039-.066-.141,0-.281,0-.421.005a.255.255,0,0,1-.088-.008c-.246-.078-.458-.27-.744-.215-.02,0-.052-.026-.075-.044-.046-.035-.09-.076-.137-.11a.214.214,0,0,0-.237-.032.94.94,0,0,1-.338.068.179.179,0,0,1-.181-.154c.082-.043.1-.068.044-.059C214.976,332.928,214.972,332.979,214.966,333.006Zm3.262-6.707c-.046.037-.107.065-.134.111a1.141,1.141,0,0,1-.35.486.9.9,0,0,0-.227.267c-.163.245-.327.491-.475.744a3.787,3.787,0,0,1-.256.559.154.154,0,0,0,.084.214,3.062,3.062,0,0,1,.425.1,6.806,6.806,0,0,0,1.1.318c.374.079.741.173,1.123.221a8.979,8.979,0,0,1,1.119.236c.272.072.382.011.495-.219.22-.448.436-.9.65-1.35a1.13,1.13,0,0,0,.05-.167.265.265,0,0,0-.158-.354,16.38,16.38,0,0,0-2.015-.619.588.588,0,0,0-.258.013c-.085.019-.165.064-.248.089a.485.485,0,0,1-.557-.158C218.464,326.63,218.348,326.463,218.227,326.3Z" transform="translate(-201.106 -296.61)" fill="#fff" fill-rule="evenodd"/>
          <path id="Path_1356" data-name="Path 1356" d="M230.194,311.51c-.057-.006-.164.015-.229-.028a3.235,3.235,0,0,0-.76-.222,2.617,2.617,0,0,1-1.115-.685c-.256-.285-.537-.546-.805-.819-.167-.17-.253-.167-.423.035q-.283.336-.56.677a1.715,1.715,0,0,1-.8.518,4.721,4.721,0,0,1-1.131.161,2.066,2.066,0,0,1-1.257-.319.87.87,0,0,0-.077-.043c-.18-.076-.3-.3-.543-.22-.185-.087-.337.044-.5.077a.222.222,0,0,1-.237-.281,1.754,1.754,0,0,1,.433-.851,1.407,1.407,0,0,0,.286-.442,3.5,3.5,0,0,1,.734-.986,7.753,7.753,0,0,0,.907-.958,1.312,1.312,0,0,0,.407-.454,3.531,3.531,0,0,1,.483-.629,4.685,4.685,0,0,0,.716-1.21.751.751,0,0,0,.064-.342,1.06,1.06,0,0,1,.117-.511.408.408,0,0,1,.247-.233,2.535,2.535,0,0,0,.333-.11.2.2,0,0,1,.165,0,1.1,1.1,0,0,0,.428.082,5.929,5.929,0,0,1,1.476.193,1.312,1.312,0,0,1,.745.443,2.678,2.678,0,0,1,.263.353.626.626,0,0,1,.114.417c-.014.2-.048.409-.053.614a1.574,1.574,0,0,1-.224.84.748.748,0,0,0-.062.25.532.532,0,0,1-.162.3,1.576,1.576,0,0,0-.456.642c-.08.228-.277.374-.392.577a.091.091,0,0,0,.006.075.168.168,0,0,0,.063.061c.736.435,1.37,1.014,2.081,1.484a4.853,4.853,0,0,1,.654.591.519.519,0,0,1,.047.58.172.172,0,0,1-.052.07A1.6,1.6,0,0,1,230.194,311.51Z" transform="translate(-203.408 -293.745)" fill="#fff" fill-rule="evenodd"/>
          <path id="Path_1357" data-name="Path 1357" d="M252.089,303.84a.723.723,0,0,1-.136.035c-.016,0-.035-.032-.054-.05a.934.934,0,0,1,.139-.036C252.053,303.788,252.072,303.823,252.089,303.84Z" transform="translate(-208.186 -293.772)" fill="#fff" fill-rule="evenodd"/>
          <path id="Path_1358" data-name="Path 1358" d="M246.3,303.1l.077.041-.058-.061Z" transform="translate(-207.299 -293.66)" fill="#fff" fill-rule="evenodd"/>
        </g>
      </g>
      <g id="Group_322" data-name="Group 322" transform="translate(155.85 33.399)">
        <path id="Path_1359" data-name="Path 1359" d="M389.2,339.934l.008-.005,0-.009-.01,0Z" transform="translate(-385.794 -332.288)" fill="#b40019" fill-rule="evenodd"/>
        <path id="Path_1360" data-name="Path 1360" d="M393.4,338.573a.446.446,0,0,0-.2,0,.566.566,0,0,1-.26.034.4.4,0,0,0-.22.072.264.264,0,0,0-.154.238c0,.129-.018.258-.016.386,0,.151.063.214.217.229a1.868,1.868,0,0,0,.238,0,1.62,1.62,0,0,1,.531.054c.122.037.251.051.376.08a.393.393,0,0,1,.131.05.6.6,0,0,1,.025-.122.548.548,0,0,0,.015-.261,4.311,4.311,0,0,0-.116-.619.5.5,0,0,1-.026-.118A1.467,1.467,0,0,1,393.4,338.573Z" transform="translate(-386.325 -332.072)" fill="#b40019" fill-rule="evenodd"/>
        <path id="Path_1361" data-name="Path 1361" d="M389.177,340.111c0-.07.007-.123.009-.174C389.115,339.977,389.124,340.032,389.177,340.111Z" transform="translate(-385.785 -332.291)" fill="#b40019" fill-rule="evenodd"/>
        <path id="Path_1362" data-name="Path 1362" d="M391.585,335.14l-.012.017,0,0,.008,0Z" transform="translate(-386.171 -331.53)" fill="#b40019" fill-rule="evenodd"/>
        <path id="Path_1363" data-name="Path 1363" d="M390.233,333.522l-.018.017v.007h.007Z" transform="translate(-385.956 -331.274)" fill="#b40019" fill-rule="evenodd"/>
        <path id="Path_1364" data-name="Path 1364" d="M392.885,339.333c0-.048,0-.1,0-.142,0-.022,0-.045-.006-.066a.274.274,0,0,0-.115.035c-.017.01-.045.022-.056.015-.1-.077-.194.075-.28.024s-.177.049-.259-.037l.163-.236c-.125-.115-.141-.132-.253-.139a2.349,2.349,0,0,1-.441-.052.093.093,0,0,0-.113.1c.057.233,0,.475.073.709a1.2,1.2,0,0,1,.023.385.224.224,0,0,1-.347.178,1.241,1.241,0,0,0-.158-.076.861.861,0,0,1-.536-.475,1.114,1.114,0,0,0-.126-.151,1.632,1.632,0,0,1-.7.6c-.141.05-.186.034-.261-.1l-.07-.127a.614.614,0,0,1,.361-.509.843.843,0,0,0,.266-.276c.093-.127.185-.256.269-.39.051-.083.08-.18.13-.264.072-.117.156-.225.231-.341a1.557,1.557,0,0,0,.086-.175.646.646,0,0,0-.383.118.622.622,0,0,0-.322.244.489.489,0,0,1-.284-.107.318.318,0,0,1,.067-.216,2.937,2.937,0,0,0,.953-.39c.091-.137.018-.291.049-.434.008-.034-.039-.093-.075-.116-.084-.051-.177-.087-.265-.13a.077.077,0,0,1-.014-.125.4.4,0,0,1,.122-.072c.054-.021.115-.026.169-.048a.229.229,0,0,0,.167-.251,2.262,2.262,0,0,1,0-.239.134.134,0,0,0-.088-.139.067.067,0,0,1-.031-.1.152.152,0,0,1,.087-.067,1.46,1.46,0,0,1,.3,0,.3.3,0,0,1,.275.331c0,.04-.013.079-.017.118a.941.941,0,0,0,0,.1c.077.022.151.039.224.064a.125.125,0,0,1,.055.214.514.514,0,0,1-.169.114.222.222,0,0,0-.148.17c-.026.113-.1.219-.045.353a1.366,1.366,0,0,0,.192-.04c.065-.023.121-.069.186-.089s.13.024.2-.012a.808.808,0,0,1,.577.012c.086.021.168.05.252.079a.422.422,0,0,1,.034-.064.419.419,0,0,0,.077-.249.889.889,0,0,1,.127-.486,1.13,1.13,0,0,0,.107-.346c.028-.134.038-.272.061-.407.013-.087.041-.173.053-.259a7.567,7.567,0,0,0,.087-.984,1.6,1.6,0,0,0-.07-.525,3.2,3.2,0,0,1-.183-.628.625.625,0,0,0-.1-.217.828.828,0,0,0-.283-.263.338.338,0,0,1-.157-.3.135.135,0,0,0-.01-.067,3.448,3.448,0,0,1-.257-.463.192.192,0,0,0-.06-.075,3.186,3.186,0,0,0-.319-.214,2.744,2.744,0,0,1-.7-.5.6.6,0,0,0-.152-.118,1.272,1.272,0,0,0-.608-.141,3.479,3.479,0,0,0-.577.064,2.156,2.156,0,0,1-.7.071,1.18,1.18,0,0,0-.122,0,.837.837,0,0,1-.311-.041.679.679,0,0,0-.234-.045.751.751,0,0,0-.472.066c-.036.025-.076.006-.116,0a.734.734,0,0,0-.51.067.788.788,0,0,0-.358.275,1.007,1.007,0,0,0-.091.171,4.438,4.438,0,0,1-.3.551c-.069.11-.155.206-.222.314a2.17,2.17,0,0,1-.449.5.944.944,0,0,0-.262.316c-.076.161-.15.323-.219.487a.842.842,0,0,0-.052.187,2.053,2.053,0,0,0-.055.481.8.8,0,0,1-.029.216c-.053.236-.106.474-.165.709a1.512,1.512,0,0,0-.04.245.26.26,0,0,1,.178-.143.521.521,0,0,0,.147-.064c.3-.186.593-.38.9-.558a1.329,1.329,0,0,1,.351-.137.379.379,0,0,0,.287-.258,8.153,8.153,0,0,0,.319-1.031.68.68,0,0,0-.032-.426c-.019-.043-.031-.09.019-.118a.123.123,0,0,1,.151.012.3.3,0,0,1,.09.159,3.727,3.727,0,0,1-.014.54,3.548,3.548,0,0,1-.1.476c-.028.113-.071.221-.109.335a.323.323,0,0,0,.288.078,1.447,1.447,0,0,0,.048-.316c0-.014.02-.04.03-.039s.06.009.068.025a2.07,2.07,0,0,1,.109.247c.037.1.066.2.1.3-.039.139-.072.279-.118.414s-.108.268-.165.406a.117.117,0,0,0,.093.111.38.38,0,0,1,.259.213,1.814,1.814,0,0,0,.181.234.683.683,0,0,1,.052.114.253.253,0,0,1-.281.082c-.121-.033-.24-.072-.363-.1a.778.778,0,0,1-.215-.138,3.055,3.055,0,0,1-.4.169c-.146.04-.3.065-.443.109-.051.016-.119-.019-.185-.032a1.039,1.039,0,0,1,.439-.3.718.718,0,0,0,.288-.215c-.049-.026-.1-.072-.14-.071-.1.005-.188-.065-.289-.017-.035.016-.109-.052-.113-.1a.436.436,0,0,1,.082-.383.386.386,0,0,0,.072-.113.953.953,0,0,0,.04-.123.417.417,0,0,0-.406.147,4.018,4.018,0,0,1-.534.412c-.055.047-.119.084-.17.134a.41.41,0,0,1-.518.082c0,.032,0,.063,0,.1,0,.167.024.332.009.5a1.026,1.026,0,0,0,.051.47.766.766,0,0,1,.027.119,4.8,4.8,0,0,0,.273.9,1.771,1.771,0,0,1,.125.517c.016.136.013.273.025.409a2.089,2.089,0,0,0,.162.647,3.375,3.375,0,0,0,.267.434,2.227,2.227,0,0,1,.187.284,1,1,0,0,0,.325.355,2.622,2.622,0,0,0,.581.3c.135.052.27.108.4.173a1.122,1.122,0,0,1,.409.3,2.411,2.411,0,0,0,.823.539c.107-.011.169.092.267.106a1.548,1.548,0,0,1,.491.229l.03.146a.628.628,0,0,0,.332-.006.3.3,0,0,1,.213.005.4.4,0,0,0,.19.021,1.379,1.379,0,0,0,.639-.205c.057-.043.129-.06.178-.121s.147-.029.223-.036c.015,0,.029-.014.045-.02a.856.856,0,0,0,.261-.175,1.322,1.322,0,0,0,.332-.473.17.17,0,0,1,.068-.093,2.555,2.555,0,0,0,.662-.662.441.441,0,0,0,.114-.359.284.284,0,0,1,.014-.12.989.989,0,0,0,.008-.41A.8.8,0,0,1,392.885,339.333Zm-4.426-4.767,1.065-.282a.258.258,0,0,0-.029-.087c-.049-.062-.139-.08-.177-.162-.009-.021-.06-.024-.092-.034s-.083-.02-.139-.035a1.209,1.209,0,0,1,.052-.191,1.2,1.2,0,0,1,.121-.211.736.736,0,0,0,.152-.443.359.359,0,0,0-.1.018c-.048.024-.089.061-.136.088a.692.692,0,0,1-.72.018c0-.043.019-.064.059-.072a1.377,1.377,0,0,0,.472-.2c.144-.091.3-.162.443-.256a.46.46,0,0,1,.512-.04c.077.045.165.073.247.111a.174.174,0,0,1,.108.173.362.362,0,0,1-.071.227c-.128.163-.246.335-.374.5-.076.1-.163.185-.25.282l.274.217a1.075,1.075,0,0,1,.5.006.172.172,0,0,0,.106-.008.671.671,0,0,1,.677.146c.077.063.168.108.194.218a.14.14,0,0,1-.164.106.918.918,0,0,0-.57.105.229.229,0,0,1-.252-.036l.183-.248a.6.6,0,0,0-.457-.032c-.055.088-.012.159.018.235a3.042,3.042,0,0,1,.174,1,.769.769,0,0,1-.22.534c-.016.019-.056.041-.068.034-.087-.051-.152.025-.227.035a1.045,1.045,0,0,1-.154,0,.679.679,0,0,0-.284.018c-.183.081-.323-.045-.47-.125a.077.077,0,0,1-.028-.045c-.031-.109-.06-.218-.094-.345a.8.8,0,0,1,.135.021.377.377,0,0,0,.312-.039,1.345,1.345,0,0,0,.4-.316.464.464,0,0,0,.139-.341c-.008-.134.009-.269.01-.4a.344.344,0,0,0-.038-.1,5.122,5.122,0,0,0-.552.111,1.552,1.552,0,0,0-.491.183.427.427,0,0,1-.258-.181C388.419,334.676,388.437,334.626,388.459,334.565Zm.353,4.57-.28-.33c-.008.1.055.184-.031.254a1.532,1.532,0,0,0-.18.208,2.528,2.528,0,0,0-.316-.206c-.047-.023-.116,0-.128-.08a3.05,3.05,0,0,0-.257-.669,5.053,5.053,0,0,1,.673-1.1.249.249,0,0,1,.108.227.326.326,0,0,0,.1.255c.067,0,.146.005.222.015a.6.6,0,0,1,.325.126c.1.083.146.075.22-.02.035-.045.047-.114.126-.1s.124.077.151.161a.646.646,0,0,1-.1.59c-.072.106-.154.207-.215.319A.774.774,0,0,1,388.811,339.136Z" transform="translate(-385.154 -330.851)" fill="#b40019" fill-rule="evenodd"/>
        <path id="Path_1365" data-name="Path 1365" d="M389.209,339.913c.02,0,.046,0,.014-.037Z" transform="translate(-385.797 -332.281)" fill="#b40019" fill-rule="evenodd"/>
        <path id="Path_1366" data-name="Path 1366" d="M391.834,339.939a5.994,5.994,0,0,0-.246.714c.247.115.247.115.4.094a.471.471,0,0,0,.019-.109c-.013-.167-.024-.335-.048-.5C391.954,340.087,391.9,340.044,391.834,339.939Z" transform="translate(-386.174 -332.291)" fill="#b40019" fill-rule="evenodd"/>
        <path id="Path_1367" data-name="Path 1367" d="M387.794,335.888c.045-.108.082-.218.116-.328a.107.107,0,0,0-.031-.131h-.218a.9.9,0,0,0-.3.433.929.929,0,0,0,.274.107A.136.136,0,0,0,387.794,335.888Z" transform="translate(-385.504 -331.576)" fill="#b40019" fill-rule="evenodd"/>
      </g>
      <g id="Group_327" data-name="Group 327" transform="translate(172.025 22.114)">
        <g id="Group_323" data-name="Group 323" transform="translate(0 0.183)">
          <path id="Path_1368" data-name="Path 1368" d="M406.179,323.087c-.292.132-.605.264-.961.417,0,.325-.076.406-.183.406-.141,0-.27-.234-.659-.863l.044-.071a5.348,5.348,0,0,0,1.1-.224c.205-.061.422-.121.659-.193v-2.091h-.842l-.756.061-.13-.467.885.061h.842v-1.553a1.641,1.641,0,0,0-.173-.853l.054-.061c1.091.173,1.274.233,1.274.406,0,.132-.1.183-.5.284v1.776h.248l.421-.507h.151l.637.609v.243h-1.458v1.868c.411-.142.9-.315,1.49-.538l.065.233c-.605.315-1.069.538-1.555.762v.66l.043,2.589c0,.762-.5,1.015-1.3,1.045-.021-.335-.151-.487-.852-.7l.043-.244a11.271,11.271,0,0,0,1.166.112c.194,0,.237-.081.237-.263Zm5.095,3.188a40.651,40.651,0,0,0,.939-4.314,7.012,7.012,0,0,0,.065-1.127l.076-.04c1.015.314,1.2.416,1.2.558,0,.112-.1.173-.486.233a34.881,34.881,0,0,1-1.425,4.69h1.586l.529-.629h.151l.746.731v.243h-5.96l-.755.061-.13-.467.884.061Zm-.345-7.644a1.638,1.638,0,0,0-.173-.852l.054-.061c1.1.172,1.306.234,1.306.406,0,.112-.1.162-.475.263v1.553h1.447l.475-.569h.151l.691.671v.243h-5.031l-.756.061-.13-.467.885.061h1.554Zm-1.619,2.223a9.236,9.236,0,0,1,1.263,4.131c0,.548-.172.711-.421.711-.216,0-.346-.1-.368-.741a14.176,14.176,0,0,0-.713-4.01Z" transform="translate(-404.376 -317.657)" fill="#fff"/>
        </g>
        <g id="Group_324" data-name="Group 324" transform="translate(21.623 0.183)">
          <path id="Path_1369" data-name="Path 1369" d="M435.565,325.158v.487l-.108.1-.539.02.054-2.375v-2.742a2.569,2.569,0,0,0-.119-1.015l.065-.061a7.081,7.081,0,0,1,.745.4h.96a10.19,10.19,0,0,0,.335-1.4h-1.414l-.734.061.2.193v.244h-2.159v2.294c1.285.365,1.782.8,1.782,1.137,0,.213-.1.325-.269.325-.12,0-.249-.092-.4-.295a2.953,2.953,0,0,0-1.1-.9l.044.873-.109.1-.55.02.087-1.075a5.874,5.874,0,0,1-2.159,1.614l-.108-.213a6.789,6.789,0,0,0,2.224-2.132v-1.746h-1.22l-.756.061-.13-.467.885.061h1.22v-.192a1.881,1.881,0,0,0-.109-.762l.054-.061c.863.152,1.1.224,1.1.356,0,.081-.109.173-.486.233v.426h.961l.443-.476h.151l.367.355-.119-.437.885.061h3.336l.475-.568h.151l.691.67v.244h-2.419a9.872,9.872,0,0,1-.767,1.4h1.944l.323-.335h.151c.378.264.6.437.6.559,0,.1-.13.162-.356.253v3.116l.054,1.909-.108.1-.551.02v-.437Zm-1.738-1.929c.561.427.583.507.583.6s-.087.152-.4.244a6.19,6.19,0,0,1-.96,1.3c.82.64,1.943.842,3.735.842a28.135,28.135,0,0,0,3.551-.2l.011.223c-.345.081-.583.254-.615.578-.939.051-1.749.061-2.483.061-2.3,0-3.627-.295-4.523-1.177a6.8,6.8,0,0,1-2.439,1.36l-.119-.213a7.4,7.4,0,0,0,2.224-1.523,6.221,6.221,0,0,1-.648-1.167,5.677,5.677,0,0,1-1.349,1.076l-.162-.2a5.378,5.378,0,0,0,1.447-1.655,2.109,2.109,0,0,0,.281-.7l.076-.02c.788.2.9.274.9.4,0,.092-.119.142-.464.162l-.227.335h1.166l.27-.315Zm-2.785-3.938c.7.213.82.3.82.4s-.1.163-.41.183a3.056,3.056,0,0,1-.237.5c.593.173.8.406.8.578a.264.264,0,0,1-.248.284c-.13,0-.183-.061-.292-.244a1.337,1.337,0,0,0-.378-.416,4.465,4.465,0,0,1-.712.863l-.194-.162a4.13,4.13,0,0,0,.669-1.33,2.569,2.569,0,0,0,.109-.619Zm.9,4.639a4.76,4.76,0,0,0,.735,1.086,5.249,5.249,0,0,0,.723-1.126h-1.425Zm1.771-4.67c.7.213.81.3.81.4s-.1.162-.41.183a4.153,4.153,0,0,1-.259.477c.6.214.885.467.885.731a.276.276,0,0,1-.281.284c-.151,0-.205-.061-.291-.244a1.556,1.556,0,0,0-.432-.578,4.155,4.155,0,0,1-.659.741l-.194-.162a3.487,3.487,0,0,0,.626-1.177,3.267,3.267,0,0,0,.13-.619Zm2.612,1.055h-.756v4.5h.756Zm1.382,1.128v-1.128h-.81v1.128Zm-.81.344v1.279h.81v-1.279Zm0,1.625v1.4h.81v-1.4Zm2.18,1.4v-4.5h-.8v4.5Z" transform="translate(-430.071 -317.657)" fill="#fff"/>
        </g>
        <g id="Group_325" data-name="Group 325" transform="translate(43.202)">
          <path id="Path_1370" data-name="Path 1370" d="M460.443,320.445a1.778,1.778,0,0,0-.151-.813l.054-.061c.994.122,1.2.193,1.2.335,0,.112-.108.172-.432.254v.67h1.533l.334-.3h.151c.454.325.669.467.669.589,0,.1-.054.131-.367.233v1.2l.054,1.33-.108.1-.615.02v-.263h-2.127a5.639,5.639,0,0,0,1.436,1.472,7.752,7.752,0,0,0,1.511-1.117,1.331,1.331,0,0,0,.313-.416l.075-.021c.7.457.842.579.842.711,0,.081-.065.131-.162.131a3.172,3.172,0,0,1-.454-.051,15.758,15.758,0,0,1-1.835.944,7.232,7.232,0,0,0,3.066.852l-.043.223a.77.77,0,0,0-.745.488,6.471,6.471,0,0,1-2.774-1.269,5.982,5.982,0,0,1-1.608-1.949h-1.544v2.243c.778-.092,1.565-.214,2.526-.417l.065.233a29.257,29.257,0,0,1-3.5.944c-.033.3-.087.4-.216.4-.162,0-.226-.091-.691-.943l.044-.072a6.964,6.964,0,0,0,.906-.04c.065-.01.13-.01.194-.02V321.51a2.211,2.211,0,0,0-.13-.874,15.117,15.117,0,0,1-2.084.874l-.119-.213a10.485,10.485,0,0,0,4.232-3.035,1.643,1.643,0,0,0,.41-.782l.076-.04c.939.335,1.144.467,1.144.609,0,.1-.065.152-.389.141a9.055,9.055,0,0,0,4.75,2.446l-.01.224a.7.7,0,0,0-.691.538,9.846,9.846,0,0,1-4.341-3.106,9.141,9.141,0,0,1-2.785,2.254,5.788,5.788,0,0,1,.691.284h1.641Zm-1.728,1.634h4.049v-.9h-4.049Zm0,.345v.964h4.049v-.964Z" transform="translate(-455.714 -317.44)" fill="#fff"/>
        </g>
        <g id="Group_326" data-name="Group 326" transform="translate(65.105 0.193)">
          <path id="Path_1371" data-name="Path 1371" d="M482.9,320.177c0,.791-.237,1.289-.745,1.289a.375.375,0,0,1-.411-.356c0-.172.076-.253.357-.518a1.821,1.821,0,0,0,.431-1.33l.26.01a4.176,4.176,0,0,1,.1.559h3.3v-1.269a1.564,1.564,0,0,0-.173-.833l.054-.061c1.113.173,1.274.234,1.274.4,0,.121-.1.173-.5.263v1.5h.885a8.993,8.993,0,0,0,.658-1.046,2.02,2.02,0,0,0,.27-.7l.076-.031c.68.274.982.437.982.549,0,.142-.1.173-.5.142a11.1,11.1,0,0,1-1.091,1.086h2l.4-.427h.151c.658.518.81.68.81.8,0,.142-.119.173-.583.233a7.478,7.478,0,0,1-1.036.964l-.205-.152a5.651,5.651,0,0,0,.55-1.076Zm5.246.9.335-.385h.151c.593.426.712.507.712.629,0,.092-.1.163-.389.254v.894l.065,1.248-.108.1-.648.02v-.417H486.87v1.259h2.212l.475-.568h.151l.691.67v.244H486.87v1.41h3.077l.528-.629h.151l.745.731v.243h-8.69l-.756.061-.13-.467.885.061H486.2v-1.41h-2.407l-.756.061-.13-.467.885.061H486.2v-1.259h-1.414v.346l-.109.1-.636.021.065-1.31v-.873a2.916,2.916,0,0,0-.151-1l.065-.061a8.763,8.763,0,0,1,.885.437Zm-4.394-3.025c.928.386,1.371.884,1.371,1.219s-.205.427-.4.427c-.162,0-.281-.082-.378-.376a2.22,2.22,0,0,0-.756-1.076Zm1.037,5.026h3.475v-1.655h-3.475Z" transform="translate(-481.742 -317.669)" fill="#fff"/>
        </g>
      </g>
      <g id="Group_328" data-name="Group 328" transform="translate(172.087 35.529)">
        <path id="Path_1372" data-name="Path 1372" d="M404.449,339.107l.752-5.56h.084l2.132,4.563,2.113-4.563h.084l.754,5.56h-.513l-.518-3.975-1.855,3.975h-.135l-1.877-4.006-.515,4.006Z" transform="translate(-404.449 -333.407)" fill="#fff"/>
        <path id="Path_1373" data-name="Path 1373" d="M412.926,333.547h.534v2.086l2.1-2.086h.7l-2.52,2.5,2.716,3.065h-.7l-2.3-2.589v2.589h-.534Z" transform="translate(-405.792 -333.407)" fill="#fff"/>
        <path id="Path_1374" data-name="Path 1374" d="M418.27,333.547h.535v2.086l2.1-2.086h.7l-2.52,2.5,2.716,3.065h-.7l-2.3-2.589v2.589h-.535Z" transform="translate(-406.639 -333.407)" fill="#fff"/>
        <path id="Path_1375" data-name="Path 1375" d="M426.269,333.547h1.045a5.888,5.888,0,0,1,1.184.077,1.334,1.334,0,0,1,.759.486,1.441,1.441,0,0,1,.293.918,1.559,1.559,0,0,1-.2.8,1.292,1.292,0,0,1-.576.52,2.5,2.5,0,0,1-1.034.18l1.887,2.581h-.649l-1.887-2.581h-.3v2.581h-.524Zm.524.544v1.889l.9.008a2.126,2.126,0,0,0,.777-.106.82.82,0,0,0,.393-.338.98.98,0,0,0,.141-.519.938.938,0,0,0-.143-.509.81.81,0,0,0-.375-.327,2.177,2.177,0,0,0-.772-.1Z" transform="translate(-407.907 -333.407)" fill="#fff"/>
        <path id="Path_1376" data-name="Path 1376" d="M433.775,333.547l2.447,5.56h-.566l-.826-1.829h-2.259l-.817,1.829h-.585l2.478-5.56Zm-.066,1.181-.9,2.013H434.6Z" transform="translate(-408.684 -333.407)" fill="#fff"/>
        <path id="Path_1377" data-name="Path 1377" d="M438.073,339.107l.751-5.56h.084l2.132,4.563,2.113-4.563h.084l.754,5.56h-.513l-.518-3.975-1.855,3.975h-.135l-1.877-4.006-.515,4.006Z" transform="translate(-409.778 -333.407)" fill="#fff"/>
        <path id="Path_1378" data-name="Path 1378" d="M446.554,333.547h3.007v.544h-2.483v1.743h2.461v.544h-2.461v2.185h2.461v.544h-2.985Z" transform="translate(-411.122 -333.407)" fill="#fff"/>
        <path id="Path_1379" data-name="Path 1379" d="M451.424,339.107v-5.56h.114l3.492,4.262v-4.262h.517v5.56h-.118l-3.463-4.21v4.21Z" transform="translate(-411.893 -333.407)" fill="#fff"/>
        <path id="Path_1380" data-name="Path 1380" d="M462.652,338.046l.446-.284q.471.918,1.087.919a.991.991,0,0,0,.5-.131.891.891,0,0,0,.353-.349.939.939,0,0,0,.122-.465.99.99,0,0,0-.178-.549,4.383,4.383,0,0,0-.9-.892,4.724,4.724,0,0,1-.816-.76,1.443,1.443,0,0,1-.278-.85,1.353,1.353,0,0,1,.164-.662,1.2,1.2,0,0,1,.462-.47,1.263,1.263,0,0,1,.646-.173,1.324,1.324,0,0,1,.694.194,2.457,2.457,0,0,1,.682.717l-.427.343a2.123,2.123,0,0,0-.5-.548.83.83,0,0,0-.454-.133.7.7,0,0,0-.519.205.683.683,0,0,0-.2.5.906.906,0,0,0,.071.352,1.317,1.317,0,0,0,.261.371c.069.071.295.255.677.555a3.937,3.937,0,0,1,.935.949,1.6,1.6,0,0,1,.253.835,1.461,1.461,0,0,1-.433,1.051,1.416,1.416,0,0,1-1.054.445,1.479,1.479,0,0,1-.866-.269A2.449,2.449,0,0,1,462.652,338.046Z" transform="translate(-413.673 -333.381)" fill="#fff"/>
        <path id="Path_1381" data-name="Path 1381" d="M467.218,334.091v-.544h2.875v.544h-1.17v5.016h-.535v-5.016Z" transform="translate(-414.396 -333.407)" fill="#fff"/>
        <path id="Path_1382" data-name="Path 1382" d="M471.77,333.547h.524V336.9a7.016,7.016,0,0,0,.022.745,1.255,1.255,0,0,0,.182.55,1.1,1.1,0,0,0,.438.371,1.311,1.311,0,0,0,.595.149,1.14,1.14,0,0,0,.9-.443,1.348,1.348,0,0,0,.236-.5,4.353,4.353,0,0,0,.054-.869v-3.357h.523V336.9a4.286,4.286,0,0,1-.137,1.2,1.632,1.632,0,0,1-.549.8,1.516,1.516,0,0,1-1,.34,1.827,1.827,0,0,1-1.087-.321,1.534,1.534,0,0,1-.606-.849,4.736,4.736,0,0,1-.1-1.172Z" transform="translate(-415.118 -333.407)" fill="#fff"/>
        <path id="Path_1383" data-name="Path 1383" d="M477.649,339.107v-5.56h1.087a5.271,5.271,0,0,1,1.708.2,2.3,2.3,0,0,1,1.192.983,3.116,3.116,0,0,1,.43,1.666,3.077,3.077,0,0,1-.34,1.472,2.252,2.252,0,0,1-.884.937,3.169,3.169,0,0,1-1.525.3Zm.5-.525h.607a5.308,5.308,0,0,0,1.509-.144,1.748,1.748,0,0,0,.93-.735,2.354,2.354,0,0,0,.339-1.3,2.489,2.489,0,0,0-.367-1.375,1.855,1.855,0,0,0-1.024-.781,5.835,5.835,0,0,0-1.622-.159h-.371Z" transform="translate(-416.049 -333.407)" fill="#fff"/>
        <path id="Path_1384" data-name="Path 1384" d="M484.235,333.547h.524v5.56h-.524Z" transform="translate(-417.093 -333.407)" fill="#fff"/>
        <path id="Path_1385" data-name="Path 1385" d="M488.957,333.381a2.646,2.646,0,0,1,2,.843,3.08,3.08,0,0,1,0,4.146,2.694,2.694,0,0,1-3.925,0,2.873,2.873,0,0,1-.8-2.048,3.1,3.1,0,0,1,.367-1.485,2.739,2.739,0,0,1,1-1.071A2.561,2.561,0,0,1,488.957,333.381Zm.024.54a2.066,2.066,0,0,0-1.1.321,2.257,2.257,0,0,0-.815.866,2.529,2.529,0,0,0-.293,1.215,2.342,2.342,0,0,0,.648,1.674,2.079,2.079,0,0,0,1.564.683,2.153,2.153,0,0,0,1.13-.314,2.183,2.183,0,0,0,.81-.859,2.525,2.525,0,0,0,.291-1.21,2.461,2.461,0,0,0-.291-1.2,2.24,2.24,0,0,0-.82-.858A2.117,2.117,0,0,0,488.981,333.921Z" transform="translate(-417.409 -333.381)" fill="#fff"/>
      </g>
    </g>
  </g>
</svg>
