<svg xmlns="http://www.w3.org/2000/svg" width="110.569" height="100.181" viewBox="0 0 110.569 100.181">
  <g id="Group_234" data-name="Group 234" transform="translate(-5429.757 -1300.25)">
    <g id="Group_205" data-name="Group 205" transform="translate(5430.262 1311.449)">
      <path id="Path_433" data-name="Path 433" d="M5447.921,1362.392l2.044-4.956,4.211-2.057,7.878-28.04,23.253-6.62,18.773,4.892,10.3,11.814,2.463,17.954,4.344,3.645.1,7.2-1.969,6.592,8.221,3.729,7.916,10.666,3.616,13.673v7.841l-108.394-.932,4.893-19.145,9.212-13.238,6.467-5.469Z" transform="translate(-5430.679 -1320.718)" fill="#fff"/>
    </g>
    <g id="Group_206" data-name="Group 206" transform="translate(5451.708 1309.808)">
      <path id="Path_434" data-name="Path 434" d="M5503.618,1397.611c-13.438,0-23.543-8.883-29.224-25.688a94.08,94.08,0,0,1-4.519-25.061,32.009,32.009,0,0,1,4.16-14.588c3.813-6.64,11.943-14.556,29.022-14.556s25.209,7.916,29.022,14.556a32.022,32.022,0,0,1,4.16,14.55,93.13,93.13,0,0,1-3.948,25.066C5526.988,1388.718,5517.073,1397.611,5503.618,1397.611Zm-.56-76.61c-12.45,0-21.256,4.343-26.174,12.909a28.969,28.969,0,0,0-3.726,12.915c.011.438,1.445,47.5,30.46,47.5,28.978,0,29.34-47.029,29.34-47.5C5532.953,1345.725,5532.5,1321,5503.058,1321Zm31.541,25.824h0Z" transform="translate(-5469.876 -1317.718)" fill="#002141"/>
    </g>
    <g id="Group_207" data-name="Group 207" transform="translate(5446.143 1346.805)">
      <path id="Path_435" data-name="Path 435" d="M5471.229,1409.17a1.291,1.291,0,0,1-.157-.009c-.3-.035-7.4-.983-10.688-13.322-1.169-4.389-.83-7.478,1.011-9.18,2.5-2.306,6.566-.908,6.738-.848a1.368,1.368,0,0,1-.906,2.582c-.748-.259-2.917-.709-3.979.28-1,.934-1.081,3.229-.219,6.461,2.77,10.389,8.3,11.3,8.355,11.31a1.368,1.368,0,0,1-.154,2.726Z" transform="translate(-5459.704 -1385.337)" fill="#002141"/>
    </g>
    <g id="Group_208" data-name="Group 208" transform="translate(5509.982 1346.805)">
      <path id="Path_436" data-name="Path 436" d="M5577.746,1409.17a1.368,1.368,0,0,1-.153-2.726c.208-.031,5.583-.915,8.354-11.31.862-3.233.784-5.527-.22-6.461-1.062-.989-3.232-.537-3.98-.28a1.368,1.368,0,0,1-.9-2.581c.172-.061,4.242-1.46,6.738.848,1.841,1.7,2.18,4.791,1.01,9.18-3.29,12.339-10.388,13.288-10.687,13.322A1.273,1.273,0,0,1,5577.746,1409.17Z" transform="translate(-5576.38 -1385.336)" fill="#002141"/>
    </g>
    <g id="Group_209" data-name="Group 209" transform="translate(5453.759 1316.341)">
      <path id="Path_437" data-name="Path 437" d="M5474.93,1366.44s6.5-2.623,5.709-17.206,4.9-19.576,4.9-19.576S5468.933,1340.756,5474.93,1366.44Z" transform="translate(-5473.624 -1329.658)" fill="#002141"/>
    </g>
    <g id="Group_210" data-name="Group 210" transform="translate(5503.664 1316.341)">
      <path id="Path_438" data-name="Path 438" d="M5575.444,1366.44s-6.5-2.623-5.709-17.206-4.9-19.576-4.9-19.576S5581.441,1340.756,5575.444,1366.44Z" transform="translate(-5564.832 -1329.658)" fill="#002141"/>
    </g>
    <g id="Group_211" data-name="Group 211" transform="translate(5463.695 1313.149)">
      <path id="Path_439" data-name="Path 439" d="M5492.6,1336.473a.828.828,0,0,1-.3-.057.819.819,0,0,1-.462-1.061c.245-.627,6.379-15.286,37.88-10.612a.821.821,0,0,1-.24,1.623c-30.1-4.465-36.057,9.45-36.112,9.59A.824.824,0,0,1,5492.6,1336.473Z" transform="translate(-5491.784 -1323.824)" fill="#002141"/>
    </g>
    <g id="Group_212" data-name="Group 212" transform="translate(5463.695 1318.649)">
      <path id="Path_440" data-name="Path 440" d="M5492.6,1346.526a.82.82,0,0,1-.764-1.118c.245-.626,6.379-15.285,37.88-10.612a.82.82,0,1,1-.24,1.623c-30.1-4.464-36.057,9.45-36.112,9.591A.824.824,0,0,1,5492.6,1346.526Z" transform="translate(-5491.784 -1333.877)" fill="#002141"/>
    </g>
    <g id="Group_213" data-name="Group 213" transform="translate(5463.906 1322.905)">
      <path id="Path_441" data-name="Path 441" d="M5492.989,1354.3a.812.812,0,0,1-.355-.082.821.821,0,0,1-.384-1.1c.3-.623,7.8-15.2,46.333-10.559a.821.821,0,1,1-.2,1.63c-37.385-4.507-44.588,9.5-44.657,9.642A.822.822,0,0,1,5492.989,1354.3Z" transform="translate(-5492.168 -1341.655)" fill="#002141"/>
    </g>
    <g id="Group_214" data-name="Group 214" transform="translate(5460.817 1348.934)">
      <ellipse id="Ellipse_3" data-name="Ellipse 3" cx="9.211" cy="5.459" rx="9.211" ry="5.459" transform="translate(0.821 0.821)" fill="#fff"/>
      <path id="Path_442" data-name="Path 442" d="M5496.555,1401.786c-5.625,0-10.032-2.758-10.032-6.28s4.407-6.279,10.032-6.279,10.032,2.758,10.032,6.279S5502.181,1401.786,5496.555,1401.786Zm0-10.917c-4.548,0-8.39,2.123-8.39,4.637s3.842,4.638,8.39,4.638,8.391-2.124,8.391-4.638S5501.1,1390.869,5496.555,1390.869Z" transform="translate(-5486.523 -1389.227)" fill="#002141"/>
    </g>
    <g id="Group_215" data-name="Group 215" transform="translate(5489.026 1348.934)">
      <ellipse id="Ellipse_4" data-name="Ellipse 4" cx="9.211" cy="5.459" rx="9.211" ry="5.459" transform="translate(0.82 0.821)" fill="#fff"/>
      <path id="Path_443" data-name="Path 443" d="M5548.112,1401.786c-5.625,0-10.032-2.758-10.032-6.28s4.407-6.279,10.032-6.279,10.031,2.758,10.031,6.279S5553.737,1401.786,5548.112,1401.786Zm0-10.917c-4.548,0-8.391,2.123-8.391,4.637s3.843,4.638,8.391,4.638,8.39-2.124,8.39-4.638S5552.66,1390.869,5548.112,1390.869Z" transform="translate(-5538.08 -1389.227)" fill="#002141"/>
    </g>
    <g id="Group_216" data-name="Group 216" transform="translate(5484.986 1365.907)">
      <path id="Path_444" data-name="Path 444" d="M5533.188,1423.459s6.664-3,17.313,3.338a54.94,54.94,0,0,0,9.614,7.8l25.681,19.292" transform="translate(-5531.825 -1421.382)" fill="#fff"/>
      <path id="Path_445" data-name="Path 445" d="M5584.667,1454.124a1.36,1.36,0,0,1-.82-.274l-25.631-19.254a56.108,56.108,0,0,1-9.7-7.848c-9.726-5.719-15.848-3.2-15.909-3.17a1.368,1.368,0,0,1-1.112-2.5c.3-.134,7.441-3.211,18.574,3.409a1.343,1.343,0,0,1,.283.223,54.018,54.018,0,0,0,9.344,7.586c.037.023.074.048.109.074l25.682,19.292a1.368,1.368,0,0,1-.823,2.462Z" transform="translate(-5530.695 -1420.249)" fill="#002141"/>
    </g>
    <g id="Group_217" data-name="Group 217" transform="translate(5433.788 1366.61)">
      <path id="Path_446" data-name="Path 446" d="M5457.817,1452.426l12.352-10.684c11.318-.974,13.636-5.292,13.636-5.292l11.518-.411s11.865,1.06,5.325-1.748-19.574-1.47-19.574-1.47l-1.74.318,6.634-3.828c21.349,3.787,17.56-1.066,17.56-1.066a32.046,32.046,0,0,0-19-4.03l-16.221,6.672-28.684,21.537" transform="translate(-5438.255 -1422.67)" fill="#fff"/>
      <path id="Path_447" data-name="Path 447" d="M5438.492,1452.655a1.368,1.368,0,0,1-.822-2.462l28.684-21.537a1.388,1.388,0,0,1,.3-.172l16.22-6.672a1.374,1.374,0,0,1,.315-.087,33.185,33.185,0,0,1,19.886,4.2,1.379,1.379,0,0,1,.4.344,2.518,2.518,0,0,1,.21,2.816c-.595.988-1.966,1.932-6.448,1.9a17.726,17.726,0,0,1,2.819.912c1.181.506,3.156,1.354,2.746,2.975-.225.893-.535,2.114-8.647,1.4l-10.764.385c-1.173,1.408-4.689,4.4-13.791,5.271l-12.019,10.4a1.368,1.368,0,0,1-1.791-2.069l12.352-10.684a1.373,1.373,0,0,1,.778-.329c10.222-.879,12.542-4.565,12.563-4.6a1.317,1.317,0,0,1,1.142-.692l11.518-.411a1.614,1.614,0,0,1,.17,0c.809.072,1.683.127,2.518.159-6.293-1.611-15.91-.734-16.7-.658l-1.685.308a1.368,1.368,0,0,1-.929-2.53l6.634-3.828a1.368,1.368,0,0,1,.922-.162c11.246,1.995,14.808,1.425,15.869,1.039a30.993,30.993,0,0,0-17.192-3.455l-15.894,6.537-28.544,21.432A1.363,1.363,0,0,1,5438.492,1452.655Zm46.6-23.048-.746.43c.936-.031,1.976-.052,3.067-.043Q5486.3,1429.819,5485.088,1429.608Z" transform="translate(-5437.123 -1421.532)" fill="#002141"/>
    </g>
    <g id="Group_218" data-name="Group 218" transform="translate(5499.318 1375.208)">
      <path id="Path_448" data-name="Path 448" d="M5559.084,1444.6l-2.194-5.484,5.353-1.871,4.952,6.189-2.649,3.992Z" transform="translate(-5556.89 -1437.247)" fill="#fff"/>
    </g>
    <g id="Group_219" data-name="Group 219" transform="translate(5471.375 1369.954)">
      <path id="Path_449" data-name="Path 449" d="M5557.409,1456.871l-13.057-11.623a20.843,20.843,0,0,1-16.515-6.576l-9.229-3.193c-17.771,4.318-7.116-2.645-7.116-2.645l7.1-2.688,13.93,4.1" transform="translate(-5506.955 -1428.777)" fill="#fff"/>
      <path id="Path_450" data-name="Path 450" d="M5556.274,1457.106a1.362,1.362,0,0,1-.909-.346l-12.649-11.261a22.165,22.165,0,0,1-16.8-6.786l-8.507-2.944c-8.63,2.068-10.735,1.548-11.425-.047-.626-1.445.6-3.184,3.63-5.167a1.34,1.34,0,0,1,.264-.134l7.1-2.688a1.37,1.37,0,0,1,.87-.033l13.93,4.1a1.368,1.368,0,1,1-.772,2.625l-13.489-3.972-6.527,2.471a14.5,14.5,0,0,0-1.849,1.466,38.857,38.857,0,0,0,8.013-1.376,1.383,1.383,0,0,1,.771.037l9.229,3.194a1.379,1.379,0,0,1,.614.43,19.287,19.287,0,0,0,15.394,6.071,1.384,1.384,0,0,1,.969.345l13.056,11.624a1.368,1.368,0,0,1-.91,2.389Z" transform="translate(-5505.821 -1427.645)" fill="#002141"/>
    </g>
    <g id="Group_220" data-name="Group 220" transform="translate(5472.637 1361.715)">
      <path id="Path_451" data-name="Path 451" d="M5508.948,1422.72a.82.82,0,0,1-.8-1.018c.051-.2,1.3-5.027,6.867-8.966a.821.821,0,1,1,.948,1.341,15.888,15.888,0,0,0-6.223,8.024A.822.822,0,0,1,5508.948,1422.72Z" transform="translate(-5508.126 -1412.586)" fill="#002141"/>
    </g>
    <g id="Group_221" data-name="Group 221" transform="translate(5478.693 1351.779)">
      <path id="Path_452" data-name="Path 452" d="M5530.348,1399.229a1.363,1.363,0,0,1-.995-.429c-3.361-3.562-7.45-.284-7.905.1a1.368,1.368,0,0,1-1.779-2.078c2.212-1.9,7.5-4.324,11.673.1a1.368,1.368,0,0,1-.995,2.307Z" transform="translate(-5519.194 -1394.427)" fill="#002141"/>
    </g>
    <g id="Group_222" data-name="Group 222" transform="translate(5506.901 1351.754)">
      <path id="Path_453" data-name="Path 453" d="M5572.117,1399.208a1.368,1.368,0,0,1-.45-2.66l6.007-2.091a1.368,1.368,0,1,1,.9,2.584l-6.007,2.091A1.357,1.357,0,0,1,5572.117,1399.208Z" transform="translate(-5570.749 -1394.38)" fill="#002141"/>
    </g>
    <g id="Group_223" data-name="Group 223" transform="translate(5453.696 1351.754)">
      <path id="Path_454" data-name="Path 454" d="M5481.451,1399.209a1.366,1.366,0,0,1-.415-.065l-6.573-2.091a1.368,1.368,0,0,1,.829-2.608l6.573,2.091a1.368,1.368,0,0,1-.414,2.672Z" transform="translate(-5473.509 -1394.381)" fill="#002141"/>
    </g>
    <g id="Group_224" data-name="Group 224" transform="translate(5487.378 1341.566)">
      <path id="Path_455" data-name="Path 455" d="M5538.4,1383.723a3.163,3.163,0,0,1-2.407-.929c-1.523-1.61-.734-4.569-.639-4.9a.821.821,0,0,1,1.579.45h0c-.173.612-.5,2.535.255,3.326.412.435,1.187.528,2.3.277,1.686-.382,3.269-1.693,4.8-2.962,2.863-2.372,6.107-5.061,10.306-1.489a.821.821,0,0,1-1.064,1.25c-2.993-2.549-5.063-1.089-8.194,1.5-1.68,1.391-3.416,2.83-5.484,3.3A6.6,6.6,0,0,1,5538.4,1383.723Z" transform="translate(-5535.067 -1375.761)" fill="#002141"/>
    </g>
    <g id="Group_225" data-name="Group 225" transform="translate(5462.256 1343.233)">
      <path id="Path_456" data-name="Path 456" d="M5505.661,1384.562a.811.811,0,0,1-.4-.1c-3.113-1.732-11.833-5.693-14.763-3.242a.821.821,0,0,1-1.053-1.26c4.315-3.606,15.367,2.374,16.614,3.068a.82.82,0,0,1-.4,1.537Z" transform="translate(-5489.153 -1378.808)" fill="#002141"/>
    </g>
    <g id="Group_226" data-name="Group 226" transform="translate(5429.757 1362.223)">
      <path id="Path_457" data-name="Path 457" d="M5431.128,1449.025a1.352,1.352,0,0,1-.163-.01,1.368,1.368,0,0,1-1.2-1.518c3.831-32.416,20.274-33.929,20.972-33.978a1.368,1.368,0,0,1,.2,2.729c-.21.019-14.918,1.658-18.453,31.57A1.368,1.368,0,0,1,5431.128,1449.025Z" transform="translate(-5429.757 -1413.516)" fill="#002141"/>
    </g>
    <g id="Group_227" data-name="Group 227" transform="translate(5517.579 1362.223)">
      <path id="Path_458" data-name="Path 458" d="M5611.34,1449.024a1.367,1.367,0,0,1-1.356-1.208c-3.569-30.188-18.3-31.559-18.446-31.569a1.368,1.368,0,0,1,.19-2.73c.7.049,17.141,1.562,20.972,33.978a1.367,1.367,0,0,1-1.2,1.518A1.341,1.341,0,0,1,5611.34,1449.024Z" transform="translate(-5590.265 -1413.515)" fill="#002141"/>
    </g>
    <g id="Group_228" data-name="Group 228" transform="translate(5462.256 1316.028)">
      <path id="Path_459" data-name="Path 459" d="M5535.166,1336.384a.824.824,0,0,1-.477-.152c-16.494-11.762-44.13-.793-44.408-.68a.821.821,0,0,1-.616-1.522c1.167-.472,28.745-11.421,45.977.865a.821.821,0,0,1-.477,1.489Z" transform="translate(-5489.153 -1329.087)" fill="#002141"/>
    </g>
    <g id="Group_229" data-name="Group 229" transform="translate(5469.061 1338.279)">
      <path id="Path_460" data-name="Path 460" d="M5513.684,1373.049a10.375,10.375,0,0,1-4.33-1.094c-2.445-1.155-7.159-1.109-7.209-1.106a.542.542,0,0,1-.555-.54.547.547,0,0,1,.54-.554c.2,0,5.018-.052,7.691,1.211a9.174,9.174,0,0,0,3.913.988c.552-.559,2.36-2.129,4.313-1.029a8.8,8.8,0,0,0,3.646,1.024,10.694,10.694,0,0,1,4.582-1.486c1.947,0,5.894-.38,5.934-.384a.547.547,0,1,1,.106,1.089c-.164.016-4.041.389-6.04.389a10.112,10.112,0,0,0-4.157,1.412.612.612,0,0,1-.287.079,9.833,9.833,0,0,1-4.321-1.17c-1.513-.854-3.051.9-3.115.969a.547.547,0,0,1-.356.187A3.529,3.529,0,0,1,5513.684,1373.049Z" transform="translate(-5501.59 -1369.754)" fill="#002141"/>
    </g>
    <g id="Group_230" data-name="Group 230" transform="translate(5469.061 1334.709)">
      <path id="Path_461" data-name="Path 461" d="M5521.834,1366.524h0a9.832,9.832,0,0,1-4.321-1.171c-1.522-.859-3.1.95-3.115.969a.545.545,0,0,1-.357.188,9.542,9.542,0,0,1-4.685-1.079c-2.446-1.155-7.159-1.1-7.209-1.107h-.008a.547.547,0,0,1-.007-1.094c.211,0,5.017-.051,7.691,1.211a9.276,9.276,0,0,0,3.913.988c.552-.558,2.362-2.128,4.313-1.029a8.8,8.8,0,0,0,3.646,1.024,10.7,10.7,0,0,1,4.582-1.486c1.947,0,5.894-.38,5.934-.384a.547.547,0,1,1,.106,1.089c-.164.016-4.041.389-6.04.389a10.112,10.112,0,0,0-4.157,1.412A.552.552,0,0,1,5521.834,1366.524Z" transform="translate(-5501.59 -1363.229)" fill="#002141"/>
    </g>
    <g id="Group_231" data-name="Group 231" transform="translate(5471.377 1384.021)">
      <path id="Path_462" data-name="Path 462" d="M5514.508,1469.116a1.366,1.366,0,0,1-1.193-.7L5506,1455.392a1.367,1.367,0,0,1,2.385-1.339l7.314,13.026a1.368,1.368,0,0,1-1.191,2.037Z" transform="translate(-5505.824 -1453.354)" fill="#002141"/>
    </g>
    <g id="Group_232" data-name="Group 232" transform="translate(5491.521 1383.317)">
      <path id="Path_463" data-name="Path 463" d="M5544.007,1469.181a1.37,1.37,0,0,1-1.288-1.832l5.175-14.378a1.368,1.368,0,0,1,2.574.926l-5.175,14.378A1.368,1.368,0,0,1,5544.007,1469.181Z" transform="translate(-5542.639 -1452.067)" fill="#002141"/>
    </g>
    <g id="Group_233" data-name="Group 233" transform="translate(5474.753 1300.25)">
      <path id="Path_464" data-name="Path 464" d="M5512.815,1313.2a.821.821,0,0,1-.767-1.112c.03-.082,3.2-8.112,12.4-5.628,6.8,1.835,9.371-1.494,9.965-2.479a2.162,2.162,0,0,1,.33-2,2.275,2.275,0,0,1,2.458-.341,2.145,2.145,0,0,0,.855.129,1.214,1.214,0,0,0-.074-.4.821.821,0,0,1,1.529-.6,2.168,2.168,0,0,1-.225,2.121c-.513.561-1.37.667-2.55.32a1.79,1.79,0,0,0-.779-.11,1.6,1.6,0,0,0,.1.664.818.818,0,0,1-.015.636c-.027.062-2.862,6.116-12.028,3.643-7.787-2.1-10.339,4.35-10.442,4.626A.821.821,0,0,1,5512.815,1313.2Z" transform="translate(-5511.995 -1300.25)" fill="#002141"/>
    </g>
  </g>
</svg>
