<svg xmlns="http://www.w3.org/2000/svg" xmlns:xlink="http://www.w3.org/1999/xlink" width="284" height="83.448" viewBox="0 0 284 83.448">
  <defs>
    <clipPath id="clip-path">
      <rect id="Rectangle_101" data-name="Rectangle 101" width="284" height="83.448" fill="none"/>
    </clipPath>
  </defs>
  <g id="Group_474" data-name="Group 474" transform="translate(0 0)">
    <g id="Group_473" data-name="Group 473" transform="translate(0 0)" clip-path="url(#clip-path)">
      <path id="Path_1662" data-name="Path 1662" d="M193.556,6.991a.55.55,0,0,0,.084-.1c.489-1.009.327-.933,1.438-1.4a15.279,15.279,0,0,1,3.116-1.082,3.153,3.153,0,0,0,.373-.14c.588-.192,1.167-.419,1.767-.56.949-.221,1.888-.469,2.82-.749a4.245,4.245,0,0,1,.785-.12,7.94,7.94,0,0,0,1.707-.211,2.871,2.871,0,0,1,.792-.044,10.676,10.676,0,0,0,2.509-.18,15.908,15.908,0,0,1,3.175.083,4.1,4.1,0,0,0,.659.059c1.55.015,3.1.036,4.651.032a9.484,9.484,0,0,0,2.376-.187,10.267,10.267,0,0,1,3.038.091,6.042,6.042,0,0,0,1.583.11,5.726,5.726,0,0,1,1.7.208,7.972,7.972,0,0,0,.908.2,1.1,1.1,0,0,1,1.031.878c.038.151.221.263.329.4a.464.464,0,0,1,.117.23c.013.439.014.877,0,1.315,0,.062-.105.136-.179.175-.114.063-.283.066-.356.155a3.541,3.541,0,0,0-.75.916,1.461,1.461,0,0,1-.123.233.553.553,0,0,1-.414.3,1.438,1.438,0,0,0-.924.458,1.035,1.035,0,0,1-.986.237,10.6,10.6,0,0,0-1.315-.175,2.98,2.98,0,0,1-1.174-.174,5.623,5.623,0,0,0-2.11.006c-.305.077-.611.04-.911.123a1.17,1.17,0,0,1-.653-.03,5.082,5.082,0,0,0-1.837-.194c-.4.009-.8.012-1.2-.006a4.144,4.144,0,0,1-.782-.1,4.023,4.023,0,0,1-.618-.241.845.845,0,0,0-.646-.031,1.765,1.765,0,0,1-.643.144,1.3,1.3,0,0,0-.644.129,1.267,1.267,0,0,1-.643.124c-.443,0-.885-.013-1.328,0a1.735,1.735,0,0,0-.644.123,1.8,1.8,0,0,1-.9.159,2.24,2.24,0,0,0-1.407.258,5.976,5.976,0,0,1-1.824.292,1.24,1.24,0,0,0-.507.122c-.209.071-.414.153-.617.243a1.611,1.611,0,0,1-.9.149c-.349-.052-.666.224-1.02.085a.167.167,0,0,0-.128.012,1.614,1.614,0,0,1-1.524,0,2.227,2.227,0,0,0-.651-.077.74.74,0,0,0-.607.218c-.254.277-.505.233-.818.1a10.271,10.271,0,0,0-1.852-.7c-.085-.019-.168-.086-.249-.082a2.769,2.769,0,0,1-1.34-.515.136.136,0,0,0-.213.076.216.216,0,0,0-.024.12.733.733,0,0,0,.077.25,4.4,4.4,0,0,0,.32.422,5.891,5.891,0,0,0,.817.866c.092.376.426.543.676.785.091.09.2.217.146.353a1.2,1.2,0,0,0,.063.895.549.549,0,0,1-.176.707.644.644,0,0,0-.3.555c0,.708,0,1.417.007,2.124a.772.772,0,0,1-.388.778.3.3,0,0,0-.107.35c.15.6.389,1.168.529,1.774a6.614,6.614,0,0,1,.443,1.65,5.969,5.969,0,0,1,.295,1.559,3.533,3.533,0,0,0,.112.52,6.29,6.29,0,0,1,.174,1.845,8.99,8.99,0,0,0-.007.928,1.626,1.626,0,0,1-.151.9A1.48,1.48,0,0,0,197.556,27a1.043,1.043,0,0,1,.1.633,2.335,2.335,0,0,0-.018,1.307,2.511,2.511,0,0,1,.062.658c.025.486,0,.979.075,1.458a11.355,11.355,0,0,0,.343,1.276,1.735,1.735,0,0,1,.067.387c.018.662.025,1.324.039,1.987.006.221.037.441.037.663,0,.308.252.583.109.9-.124.273.066.515.073.776a8.16,8.16,0,0,1-.135,2.375,1.6,1.6,0,0,0,.031.912c.05.161.011.347.045.514a.247.247,0,0,0,.187.149c1.187-.191,2.387-.052,3.578-.15a11.173,11.173,0,0,1,1.591.043,12.645,12.645,0,0,0,3.041-.147c.348-.062.7-.084,1.054-.112.573-.047,1.143-.073,1.715-.169a11.376,11.376,0,0,1,1.852-.112c1.06,0,2.124-.007,3.18.073.792.06,1.582.162,2.376.209a6.544,6.544,0,0,1,2.465.437.364.364,0,0,0,.129.033,6.11,6.11,0,0,1,1.316.1,5.235,5.235,0,0,0,1.3.193,5.025,5.025,0,0,1,1.831.222,2.306,2.306,0,0,0,.789.054,3.136,3.136,0,0,1,.792.027c.941.292,1.949.088,2.88.415.529.04,1.058.079,1.587.123a6.193,6.193,0,0,1,1.316.153,3.367,3.367,0,0,0,.792.075,2.512,2.512,0,0,0,1.169-.187,7.045,7.045,0,0,1,2.993-.37.818.818,0,0,1,.807.572,2.416,2.416,0,0,1,.187.492.967.967,0,0,1-.014.521,6.122,6.122,0,0,0-.379,1.264,1.635,1.635,0,0,1-.181.349,1.415,1.415,0,0,0-.2.479,4.378,4.378,0,0,1-.527,1.9,3.629,3.629,0,0,1-.626,1.441,1.013,1.013,0,0,1-.585.51,5.007,5.007,0,0,0-.619.236c-.2.09-.391.2-.585.3-.269.456-.717.462-1.16.458a5.746,5.746,0,0,0-.924.015.632.632,0,0,0-.622.561.3.3,0,0,1-.432.161,2.067,2.067,0,0,1-.231-.125,1.087,1.087,0,0,0-.733-.231,5.371,5.371,0,0,1-1.044-.125,2.129,2.129,0,0,1-.263-.039.856.856,0,0,1-.246-.093c-.524-.349-1.191-.327-1.715-.664a1.345,1.345,0,0,0-.754-.215c-.353,0-.707.02-1.06.018a.928.928,0,0,1-.73-.249,1.11,1.11,0,0,0-.714-.314,9.048,9.048,0,0,1-1.572-.233,13.412,13.412,0,0,1-1.425-.282,5.512,5.512,0,0,1-1.65-.44,11.946,11.946,0,0,0-1.811-.382,8.938,8.938,0,0,0-1.431-.252c-.485,0-.972-.078-1.456-.067a5.8,5.8,0,0,0-1.046-.085,7.762,7.762,0,0,0-.9.213,3.158,3.158,0,0,1-1.182.115,5.139,5.139,0,0,1-.651-.105,1.488,1.488,0,0,0-1.153.108,4.22,4.22,0,0,0-1.611.563.3.3,0,0,1-.356-.084.652.652,0,0,0-.485-.182,10.009,10.009,0,0,0-1.574-.073,4.137,4.137,0,0,0-1.709-.045c-.073.017-.163-.039-.246-.06-.128-.032-.269-.116-.381-.088a3.763,3.763,0,0,1-1.807-.267.645.645,0,0,1-.347-.169c-.375-.482-.859-.337-1.333-.258-.128.022-.245.116-.372.133a1.082,1.082,0,0,1-.523-.007,9.384,9.384,0,0,1-2.678-1.422,1.411,1.411,0,0,0-.957-.393,4.09,4.09,0,0,1-.66-.013c-.3-.051-.579-.191-.886-.253a1.474,1.474,0,0,1-1.14-1.008,4.522,4.522,0,0,0-.322-.867,6.8,6.8,0,0,1-.763-2.52,21.819,21.819,0,0,1-.3-3.168,8.4,8.4,0,0,0-.181-2.111c.039-.662-.129-1.318-.035-1.986a3.645,3.645,0,0,0-.037-.658c-.019-.4-.027-.8-.047-1.2a4.67,4.67,0,0,0-.076-.922,6.254,6.254,0,0,1-.149-1.181,1.765,1.765,0,0,0-.019-.4,11.818,11.818,0,0,1-.215-2.9c-.052-.928-.015-1.86-.008-2.791a2.053,2.053,0,0,1,.075-.657,5.193,5.193,0,0,0,.173-1.179,2.627,2.627,0,0,1,.073-.656,5.04,5.04,0,0,0,.189-2.1c-.022-.974.009-1.948-.013-2.922-.008-.353.012-.707,0-1.06a6.893,6.893,0,0,1,.491-3.11,2.389,2.389,0,0,0,.208-.9,9.11,9.11,0,0,1,.618-2.7,1.765,1.765,0,0,1,.063-.257c.038-.075.11-.188.167-.188.54,0,.833-.479,1.286-.652a.77.77,0,0,1,.75-.027" transform="translate(34.754 0.427)" fill="#fff" fill-rule="evenodd"/>
      <path id="Path_1663" data-name="Path 1663" d="M212.049,14.988c-.1-.046-.173-.111-.239-.105a5.269,5.269,0,0,0-.651.112,2.127,2.127,0,0,1-.922.019,15.911,15.911,0,0,0-2.9-.24,4.532,4.532,0,0,1-1.186-.1.9.9,0,0,0-.522.02.954.954,0,0,1-.259.058,3.508,3.508,0,0,1-1.569-.07,5.737,5.737,0,0,1-1.436-.658,8.756,8.756,0,0,0-1.154-.639.809.809,0,0,1-.264-.283.581.581,0,0,1,.147-.717,2.886,2.886,0,0,1,.328-.22,13.213,13.213,0,0,1,1.954-.813,4.3,4.3,0,0,1,.774-.172,7.147,7.147,0,0,1,.927-.067q2.125-.007,4.25.007c.8,0,1.593.025,2.389.052a5.091,5.091,0,0,1,.921.092,4.731,4.731,0,0,0,2.1,0,8.413,8.413,0,0,1,1.051-.13,8.121,8.121,0,0,0,1.308-.174,5.818,5.818,0,0,1,1.32-.047,2.291,2.291,0,0,1,.915.1,1.309,1.309,0,0,0,.521.085,8.628,8.628,0,0,1,1.961.3,1.127,1.127,0,0,1,.82.612.462.462,0,0,1-.293.722,1.478,1.478,0,0,1-.393.032,1.009,1.009,0,0,0-1.025.475,5.082,5.082,0,0,1-.728.766.912.912,0,0,1-.715.277c-.4-.008-.8-.024-1.194,0-.275.013-.524-.164-.767-.125a1.03,1.03,0,0,1-.759-.049.271.271,0,0,0-.127-.032,3.106,3.106,0,0,0-1.241.356c.317.182.627.347.923.534a1.317,1.317,0,0,1,.4.348c.215.323.475.637.276,1.088-.1.237-.093.521-.187.765-.127.335.1.672-.077,1.021a2.071,2.071,0,0,0-.12,1.044.418.418,0,0,0,.28.4,3.887,3.887,0,0,0,1.036.2,7.9,7.9,0,0,1,2.2.393c.085.018.16.079.243.1a9.937,9.937,0,0,1,2.116.982c.148.095.312.164.458.263a.546.546,0,0,1,.159.2,1.424,1.424,0,0,1,.027,1.279.777.777,0,0,1-.84.512,2.616,2.616,0,0,0-1.17.05c-.562.112-1.134.194-1.683.348-.89.25-1.765.553-2.658.793a.476.476,0,0,0-.333.385c-.07.391-.1.788-.16,1.181a2.221,2.221,0,0,1-.144.641,17.909,17.909,0,0,0-.69,2.543.342.342,0,0,0,.25.4,2.638,2.638,0,0,0,.387.078c.221.017.444.018.665.014a6.513,6.513,0,0,1,1.961.28,5.682,5.682,0,0,0,1.156.267,9.89,9.89,0,0,1,1.028.231,1.4,1.4,0,0,1,.8.439,11.662,11.662,0,0,0,.929.944,5.991,5.991,0,0,1,.893,1.147.522.522,0,0,1-.052.5c-.083.1-.176.2-.254.305-.238.323-.677.414-.888.774a.373.373,0,0,1-.221.131,4.178,4.178,0,0,1-1.3.239,2.962,2.962,0,0,0-1.54.286,10.494,10.494,0,0,1-1.659.427c-.083.024-.189.063-.256.032-.619-.3-1.328-.036-1.948-.317a.376.376,0,0,0-.258.015.607.607,0,0,1-.507-.022.628.628,0,0,0-.633-.006,1.3,1.3,0,0,1-.763.181,10.819,10.819,0,0,1-2.368-.157c-.15-.041-.336.032-.511-.037a17.9,17.9,0,0,0-2.047-.523,3.2,3.2,0,0,0-1.83.078,1.322,1.322,0,0,1-.78.034c-.3-.077-.594-.178-.894-.253a6.127,6.127,0,0,1-2.259-1.051c-.56-.425-1.183-.772-1.753-1.193a6.791,6.791,0,0,1-1.374-1.413.137.137,0,0,1,.007-.121.173.173,0,0,1,.107-.075,6.966,6.966,0,0,0,1.427-.683c.14-.063.2-.279.327-.4a.452.452,0,0,1,.471-.164c.041.013.088.015.129.027a4.38,4.38,0,0,0,1.58.108c.4-.037.8-.009,1.194-.026a2.8,2.8,0,0,0,.788-.082,4.379,4.379,0,0,1,1.44-.17c.751,0,1.5-.009,2.257-.013.3,0,.505-.066.574-.4a5.991,5.991,0,0,0,.27-1.292,1.094,1.094,0,0,1,.091-.381,2.7,2.7,0,0,0,.218-1.537,1.407,1.407,0,0,0,.075-.9c-.027-.073-.11-.18-.17-.181a15.27,15.27,0,0,0-2.091-.112,1.106,1.106,0,0,0-.466.227,1.661,1.661,0,0,1-1.646.172c-.7-.282-1.451-.373-2.151-.638-.37-.14-.761-.227-1.133-.362a1.828,1.828,0,0,1-1.1-.9.785.785,0,0,0-.381-.355c-.239-.112-.079-.279-.057-.433a.246.246,0,0,0-.193-.3,1.021,1.021,0,0,1-.475-.212.385.385,0,0,1-.015-.476c.239-.194.472-.457.788-.445a8.483,8.483,0,0,0,1.29-.267,1.279,1.279,0,0,0,.492-.174,7.859,7.859,0,0,1,2.454-.947c.215-.044.424-.128.634-.193a5.686,5.686,0,0,1,2.085-.29,14.559,14.559,0,0,0,2.209-.354.9.9,0,0,0,.114-.063.436.436,0,0,0,.206-.449c-.058-.166-.117-.333-.188-.492-.18-.4-.388-.8-.543-1.209A.913.913,0,0,1,210.1,16a.678.678,0,0,1,.37-.359,4.686,4.686,0,0,0,.508-.129c.357-.159.7-.346,1.072-.529" transform="translate(36.58 2.001)" fill="#fff" fill-rule="evenodd"/>
      <path id="Path_1664" data-name="Path 1664" d="M148.817,42.335a.611.611,0,0,1-.082.2.392.392,0,0,1-.2.08c-.014,0-.052-.064-.066-.1-.034-.1,0-.188.105-.208a.86.86,0,0,1,.244.027" transform="translate(27.233 7.761)" fill="#fff" fill-rule="evenodd"/>
      <path id="Path_1665" data-name="Path 1665" d="M155.417,50.645a3.51,3.51,0,0,0-.51-.254,1.648,1.648,0,0,0-.516-.071c-.129,0-.256.09-.383.095-.316.008-.567.244-.879.233s-.607-.037-.944-.058c-.129.156-.264.33-.408.5s-.383.151-.567-.049a.9.9,0,0,1-.273-.585.537.537,0,0,0-.245-.444,1.222,1.222,0,0,0-.578-.305,2.236,2.236,0,0,0-.4-.007,1.641,1.641,0,0,1-.879-.251c-.073-.034-.183-.111-.183-.169,0-.565-.521-.666-.834-.944A9.449,9.449,0,0,1,147,47.66a1.874,1.874,0,0,0-1.044-.751.625.625,0,0,1-.385-.347,6.389,6.389,0,0,1-.892-2.752,1.613,1.613,0,0,1,.064-.651,1.69,1.69,0,0,0-.077-1.53.635.635,0,0,1-.071-.25c-.043-.35-.075-.7-.112-1.053-.237-.3-.089-.7-.244-1.019a.336.336,0,0,1,.045-.373.909.909,0,0,0,.221-.859,4.286,4.286,0,0,0-.133-.77.959.959,0,0,1-.027-.522,3.018,3.018,0,0,0,.105-1.433c.253-.5.11-1.047.218-1.555a5.3,5.3,0,0,0,.013-1.708,9.572,9.572,0,0,1-.161-2.368,7.509,7.509,0,0,1-.123-1.98,6.715,6.715,0,0,0-.443-2.6c-.209-.5-.154-1.051-.382-1.541a.835.835,0,0,1-.037-.393,3.332,3.332,0,0,0-.168-1.434,2.293,2.293,0,0,1-.064-.789c0-1.15.015-2.3.025-3.452a2.252,2.252,0,0,1,.025-.53,14.4,14.4,0,0,0,.245-2.769,1.462,1.462,0,0,1,.02-.4c.187-.5.138-1.053.3-1.556a7.941,7.941,0,0,0,.127-1.979.959.959,0,0,0-.11-.379c-.125-.329-.263-.654-.382-.985a.7.7,0,0,1,.4-.876,2.6,2.6,0,0,1,.385-.09,1,1,0,0,0,.537-.367c.056-.063.127-.173.108-.233-.123-.372.13-.679.148-1.024a1,1,0,0,1,.387-.675,8.663,8.663,0,0,1,.9-.78,3.519,3.519,0,0,0,.677-.627A.72.72,0,0,1,147.543,4a3.235,3.235,0,0,0,1.381-.755c.357-.258.735-.495,1.082-.762a4.7,4.7,0,0,1,2.3-.909c.563-.079,1.135-.172,1.688-.3a8.306,8.306,0,0,1,1.972-.209,10.522,10.522,0,0,0,2.347-.378A11.4,11.4,0,0,1,160.638.2a3.44,3.44,0,0,1,1.568-.193q3.19-.02,6.38-.007a4.644,4.644,0,0,1,1.573.178,2.465,2.465,0,0,0,.791.046,8.619,8.619,0,0,1,2.37.227c.549.154,1.142.109,1.705.251a1.208,1.208,0,0,0,.517-.053,1.1,1.1,0,0,1,.65.034c.867.331,1.742.643,2.627.923a.913.913,0,0,1,.356.164c.458.437,1.1.569,1.572.981a1.959,1.959,0,0,1,.421.51,2.171,2.171,0,0,0,.667.8.725.725,0,0,1,.253.456.72.72,0,0,0,.233.463c.331.237.271.524.124.819a13.138,13.138,0,0,1-1.188,1.587,1.022,1.022,0,0,1-.323.221c-.11.069-.265.1-.331.2-.742,1.06-1.959,1.285-3.043,1.738a2.77,2.77,0,0,1-.639.17,1.225,1.225,0,0,1-.521,0,2.079,2.079,0,0,0-1.178-.027,1.209,1.209,0,0,1-.652-.009.668.668,0,0,0-.386.008,3.014,3.014,0,0,1-1.175.162,2.134,2.134,0,0,0-.9.182A1.28,1.28,0,0,1,170.957,10a.926.926,0,0,0-.885-.021,1.505,1.505,0,0,1-.249.086.38.38,0,0,1-.463-.161c-.194-.4-.573-.366-.907-.45a1.494,1.494,0,0,1-1.019-.083,5.121,5.121,0,0,0-1.056-.08c-.839-.033-1.677.076-2.517.006a2.5,2.5,0,0,1-.78-.133c-.511-.211-1.052-.021-1.573-.105a.49.49,0,0,0-.257.057,4.255,4.255,0,0,1-1.826.186c-.437,0-.88-.063-1.322-.018a1.1,1.1,0,0,1-.637-.133.632.632,0,0,0-.516,0,.543.543,0,0,1-.6-.178.5.5,0,0,0-.6-.127c-.354.183-.69,0-1.026.022a1.179,1.179,0,0,1-.866-.159c-.169-.124-.434-.115-.608-.236a1.076,1.076,0,0,0-1.011-.125.89.89,0,0,1-.763.019c-.079-.044-.153-.006-.225.071a1.3,1.3,0,0,1-.292.267c-.15.084-.334.183-.5.08-.427-.263-.942-.219-1.386-.434s-.9-.356-1.354-.531c-.249-.1-.465.015-.46.258q.02,1.26.06,2.517c.009.3.222.561.1.9a4.552,4.552,0,0,0-.123.772c-.095.565-.141,1.137-.2,1.708a.628.628,0,0,0,.078.252.907.907,0,0,1-.008.772,1.378,1.378,0,0,0-.189.63,3.934,3.934,0,0,1-.32,1.417,1.573,1.573,0,0,0-.032,1.162.666.666,0,0,1,.059.257,8.941,8.941,0,0,0,.754,3.07,6.556,6.556,0,0,0,.527,1.213,2.572,2.572,0,0,1,.4,1.115.911.911,0,0,0,.129.367,8.28,8.28,0,0,1,.414,1.112,3.536,3.536,0,0,1,.244,1.025c.021.4.264.75.24,1.165-.021.4.015.8,0,1.194a11.073,11.073,0,0,0,.327,2.221c.034.218.124.427.147.645.046.438.065.879.093,1.32s.275.822.286,1.283a3.722,3.722,0,0,0,.324,1.277c.161.382.1.794.244,1.166A4.136,4.136,0,0,1,151,37.807a1.042,1.042,0,0,0,.077.385,1.518,1.518,0,0,1,.133.767c-.02.53.024,1.062.02,1.592a1.924,1.924,0,0,0,.211,1.026,1.858,1.858,0,0,0,1.515,1.478,1.755,1.755,0,0,0,1.291.054c.4.007.8.024,1.193.015a4.092,4.092,0,0,0,1.054-.082,6.459,6.459,0,0,1,1.843-.166,7.762,7.762,0,0,0,.8-.011,22.612,22.612,0,0,1,3.581-.008,15.505,15.505,0,0,0,2.391-.036,21.591,21.591,0,0,1,2.654,0,4.475,4.475,0,0,1,.652.112.947.947,0,0,0,.386.053,3.954,3.954,0,0,1,1.309-.034,2.126,2.126,0,0,1,.518.014,5.868,5.868,0,0,0,1.83.215,9.1,9.1,0,0,1,1.05.1,6.19,6.19,0,0,0,1.714-.108,7.424,7.424,0,0,1,2.25-.1,10.684,10.684,0,0,0,3.3-.166,5.539,5.539,0,0,1,1.056-.11c.45-.011.828-.292,1.292-.272a2.362,2.362,0,0,0,1.173-.156c.376.123.773-.092,1.16.1a3.658,3.658,0,0,0,.774.141.338.338,0,0,1,.191.166,6.588,6.588,0,0,1,.4,1.391.261.261,0,0,1,0,.131c-.115.471-.208.949-.354,1.411a2.477,2.477,0,0,1-1.083,1.459.371.371,0,0,0-.1.082,5.032,5.032,0,0,1-2.066,1.4,1.99,1.99,0,0,1-.757.228c-.453.022-.811.334-1.243.434-.1.024-.178.18-.263.278a.192.192,0,0,1-.24.069,2.29,2.29,0,0,0-1.413-.211,3.54,3.54,0,0,0-1.166.2,1.627,1.627,0,0,1-.654.062c-.62.012-1.24.024-1.86.018a1.466,1.466,0,0,0-.76.194.659.659,0,0,1-.747-.036.525.525,0,0,0-.495-.107,6.259,6.259,0,0,1-2.234.219c-.929-.006-1.854-.046-2.785.019a14.77,14.77,0,0,1-1.724-.069,2.522,2.522,0,0,0-.911.14,2,2,0,0,0-1.021.8c-.033.045-.155.051-.228.038a.166.166,0,0,1-.127-.207c.014-.088.058-.168.071-.254s-.17-.221-.271-.185c-.041.015-.1.022-.12.053a3.582,3.582,0,0,0-.2.331,1.086,1.086,0,0,1-1.075.609,3.35,3.35,0,0,1-1.256-.389.579.579,0,0,0-.512-.043,1.387,1.387,0,0,1-1.153.064c-.12-.047-.234.069-.315.188a.243.243,0,0,1-.342.063c-.155-.084-.308-.169-.459-.259a.246.246,0,0,0-.249.008,2.158,2.158,0,0,1-1.677,0,.914.914,0,0,0-.769-.052,2.1,2.1,0,0,1-1.16.181c-.112,0-.177-.046-.16-.109a.181.181,0,0,1,.094-.083c.115-.058.232-.11.4-.185m7.651-.028c.034.024.07.07.1.067.172-.008.23-.065.231-.231,0-.031-.067-.095-.073-.091a1.157,1.157,0,0,0-.2.143.352.352,0,0,0-.057.111" transform="translate(26.288 0.001)" fill="#fff" fill-rule="evenodd"/>
      <path id="Path_1666" data-name="Path 1666" d="M166.163,37.188c-.215.076-.265.121-.23.227.03.082.073.157.11.236.056.112.18.225.046.348a.726.726,0,0,1-.329.2.852.852,0,0,1-.75-.131,2.26,2.26,0,0,0-1.528-.622c-.178-.006-.354-.009-.53-.013l.027.032c-.083-.1-.156-.266-.25-.279-.523-.071-1.041-.176-1.563-.243a1.6,1.6,0,0,0-.914.1.463.463,0,0,1-.5-.07,1.44,1.44,0,0,0-.856-.3,2.562,2.562,0,0,1-1.032-.2,1.347,1.347,0,0,0-1.037.019.23.23,0,0,1-.211-.078c-.121-.3-.421-.32-.657-.386a3.561,3.561,0,0,0-.914-.092,3.326,3.326,0,0,1-1.151-.256,2.092,2.092,0,0,1-1.071-.725,3.343,3.343,0,0,0-.528-.591.916.916,0,0,1-.226-.318c-.221-.525-.328-1.09-.537-1.621a.52.52,0,0,1,.173-.6.489.489,0,0,0,.182-.572.616.616,0,0,1,.471-.689,13.1,13.1,0,0,1,1.987-.009.3.3,0,0,1,.131.021,5.343,5.343,0,0,0,1.662.374,4.561,4.561,0,0,0,1.71.067,16.9,16.9,0,0,1,2.644-.176,2.234,2.234,0,0,0,.391-.056.206.206,0,0,0,.118-.31,8.673,8.673,0,0,1-.643-1.305,1.011,1.011,0,0,1-.021-.9,2.416,2.416,0,0,0,.228-.757c.034-.337-.018-.576-.414-.708a13.221,13.221,0,0,1-1.86-.7.777.777,0,0,0-.385-.06c-.262.014-.524.088-.783.076a3.417,3.417,0,0,0-.652.057,5.453,5.453,0,0,1-2.366-.112,2.484,2.484,0,0,1-.373-.131q-.715-.348-1.422-.709c-.073-.039-.167-.1-.187-.175a1.111,1.111,0,0,0-.507-.735,8.959,8.959,0,0,1-.35-.852c-.129-.421-.23-.852-.318-1.284a1.426,1.426,0,0,0-.283-.591c-.389-.5-.17-.9.175-1.291.049-.053.159-.058.244-.071a.29.29,0,0,1,.125.034.688.688,0,0,1,.121.052,3.608,3.608,0,0,0,2.759.734,2.654,2.654,0,0,0,.4,0,8.511,8.511,0,0,1,3.14.36,6.145,6.145,0,0,0,2.234.066.344.344,0,0,0,.2-.159,1.118,1.118,0,0,0,.175-.353,5.7,5.7,0,0,1,1.282-2.44,5.36,5.36,0,0,0,.5-.779.472.472,0,0,0-.32-.707c-.128-.031-.262-.036-.392-.062-.432-.084-.869-.149-1.292-.266a3.247,3.247,0,0,1-.715-.342,1.209,1.209,0,0,0-.627-.18A3.6,3.6,0,0,1,157.11,16a.383.383,0,0,0-.257.022,1.031,1.031,0,0,1-.64-.02,6.4,6.4,0,0,0-.921-.086.926.926,0,0,0-.621.183,1.987,1.987,0,0,1-.335.215,3.349,3.349,0,0,1-.5.153.645.645,0,0,1-.517-.038c-.4-.273-.969-.2-1.288-.633a1.164,1.164,0,0,1-.2-.338,3.324,3.324,0,0,1,.045-1.7.291.291,0,0,1,.188-.172c.854-.215,1.669-.563,2.547-.709a21.078,21.078,0,0,0,2.169-.562c.346-.1.705-.076,1.037-.2a7.8,7.8,0,0,1,.9-.2c1.112-.283,2.267-.342,3.366-.69a7.842,7.842,0,0,0,1.412-.322,6.22,6.22,0,0,1,2.1.138,4.668,4.668,0,0,0,1.712.127.5.5,0,0,0,.253-.065,2.156,2.156,0,0,1,.882-.252,1.711,1.711,0,0,0,.622-.217,1.219,1.219,0,0,1,1.36-.063c.587.3,1.219.518,1.822.791.443.2.876.422,1.3.65a.934.934,0,0,1,.408.323,1.529,1.529,0,0,0,.867.772,1.522,1.522,0,0,1,.782.682,3.176,3.176,0,0,0,.25.307.278.278,0,0,1-.025.365,3.89,3.89,0,0,0-.33.411.467.467,0,0,1-.293.245,6.485,6.485,0,0,1-1.421.317,1.19,1.19,0,0,0-.389.065c-.671.215-1.311.52-1.989.721a2.578,2.578,0,0,0-.592.293,1.043,1.043,0,0,1-.63.163,5.286,5.286,0,0,1-.789-.051,1.268,1.268,0,0,0-.645-.014,2.107,2.107,0,0,1-1.305-.056,2.136,2.136,0,0,0-.514-.115,1.322,1.322,0,0,0-1.131.365c.134.142.272.285.407.428l.46.489a8.1,8.1,0,0,0,.464,2.592c.107.307.264.4.606.346a2.169,2.169,0,0,0,.264-.031,3.044,3.044,0,0,0,.375-.128,5.89,5.89,0,0,1,2.736-.343,2.267,2.267,0,0,1,.773.17,4.811,4.811,0,0,1,1.305.633,1.274,1.274,0,0,0,.479.218,1.23,1.23,0,0,1,.557.328,5.607,5.607,0,0,0,.636.473.852.852,0,0,1,.2,1.069c-.164.257-.361.493-.544.74.046.22-.065.283-.265.349a3,3,0,0,1-1.275.308,2.076,2.076,0,0,0-.9.156,3.767,3.767,0,0,1-1.4.354,2.666,2.666,0,0,1-1,.311,5.042,5.042,0,0,0-.844.368c-.413.155-.84.27-1.254.424a1.066,1.066,0,0,0-.614.948,2.631,2.631,0,0,0,.073.657c.085.273-.037.524-.019.782s.111.52.115.781a5.741,5.741,0,0,1-.095.786.321.321,0,0,0,.23.286,4.27,4.27,0,0,0,1.3.221c.575.009,1.151.008,1.724.051a5.691,5.691,0,0,1,1.708.191,12.321,12.321,0,0,0,3.307-.034,8.294,8.294,0,0,1,1.714-.124,1.349,1.349,0,0,1,.844.348.374.374,0,0,1-.041.634c-.438.275-.512.432-.392.847a1.808,1.808,0,0,1,.128.373.484.484,0,0,1-.107.356,1.525,1.525,0,0,0-.467.628,2.732,2.732,0,0,1-.285.6,1.062,1.062,0,0,0-.163.751c.024.271-.155.426-.408.351a.892.892,0,0,0-1.034.383,1.875,1.875,0,0,0-.244.465c-.05.133-.118.258-.252.272a6.937,6.937,0,0,1-1.809.317,1.282,1.282,0,0,0-.63.17,14.189,14.189,0,0,0-1.239.763.531.531,0,0,1-.5.069,13.376,13.376,0,0,0-1.4-.391,2.363,2.363,0,0,1-.478-.2,1.386,1.386,0,0,0-1.5-.027,1.127,1.127,0,0,1-.238.115.5.5,0,0,1-.667-.252c.067-.031.163-.044.194-.1s-.035-.116-.111-.085-.092.109-.064.2" transform="translate(27.601 1.906)" fill="#fff" fill-rule="evenodd"/>
      <path id="Path_1667" data-name="Path 1667" d="M161.106,33.237c-.166.288-.175.295-.467.244a.186.186,0,0,1-.1-.062c-.044-.053-.007-.121.1-.134a4.887,4.887,0,0,1,.493-.017Z" transform="translate(29.446 6.098)" fill="#fff" fill-rule="evenodd"/>
      <path id="Path_1668" data-name="Path 1668" d="M121.082,12.162a1.38,1.38,0,0,1-.2-.208c-.181-.3-.22-.3-.46,0l.024-.025a4.94,4.94,0,0,0-.982.174.251.251,0,0,1-.317-.162c.027-.014.053-.03.08-.045l-.054.07c-.283,0-.567,0-.849-.008a1.208,1.208,0,0,1-.517-.067,1.566,1.566,0,0,0-.923-.133,8.034,8.034,0,0,1-.954-.022.843.843,0,0,1-.309-.058,1.469,1.469,0,0,0-.721-.128,1.184,1.184,0,0,1-1.071-.572,1.741,1.741,0,0,1-.451-.817.253.253,0,0,0-.114-.169c-.272-.141-.095-.559-.417-.663a.47.47,0,0,1-.015-.5,3.986,3.986,0,0,1,.524-.654.434.434,0,0,1,.482-.13,5.861,5.861,0,0,0,2.084.305,8.454,8.454,0,0,1,1.793.141,2.362,2.362,0,0,0,.632-.008A6.872,6.872,0,0,1,119.58,8.2a2.981,2.981,0,0,1,1.031-.164,1.255,1.255,0,0,0,.883-.272,2.135,2.135,0,0,1,.762-.354,1.242,1.242,0,0,1,.728-.033,1.79,1.79,0,0,0,.517.1,16.264,16.264,0,0,1,1.679.227,1.589,1.589,0,0,1,.4.114,5.456,5.456,0,0,0,1.978.31,1.627,1.627,0,0,0,.82-.154.291.291,0,0,1,.3.036.675.675,0,0,0,.508.1,1.709,1.709,0,0,1,1.193.337,10.513,10.513,0,0,1,1.241.807,7.551,7.551,0,0,0,.692.484.613.613,0,0,1,.277.308c.078.2.168.389.265.578s.207.36.309.533a3.409,3.409,0,0,1-1.117.817,4.5,4.5,0,0,1-.7.2,10.971,10.971,0,0,1-2.206.226,2.4,2.4,0,0,0-.625.083,1.669,1.669,0,0,1-1.043-.007,3.047,3.047,0,0,0-1.046-.115c-.743.006-1.486-.03-2.227,0-.3.009-.55-.221-.819-.134a3.675,3.675,0,0,1-.822.166c0-.082-.038-.14-.105-.154a.474.474,0,0,0-.389.049l.52.077c.1.095.207.189.308.288a.97.97,0,0,1,.29.436c.045.17.11.335.166.5a.782.782,0,0,1-.045.617c-.049.1-.1.189-.15.282a1.345,1.345,0,0,0-.169.606,2.432,2.432,0,0,1-.583,1.549.723.723,0,0,0-.176.258,2.866,2.866,0,0,1-.393.749c-.07.111-.026.234.08.234q.8,0,1.591-.006a12.953,12.953,0,0,1,3.271-.167c.362-.017.684.173,1.044.175s.708.027,1.06.057a2.4,2.4,0,0,1,.3.095c.412.1.811.244,1.228.329.378.078.73.28,1.108.355a11.573,11.573,0,0,1,1.135.257,2.713,2.713,0,0,0,.918.238.737.737,0,0,1,.3.089,6.546,6.546,0,0,0,1.07.452.668.668,0,0,1,.273.156c.211.187.412.385.611.586a.271.271,0,0,1,.051.293c-.022.067-.049.133-.076.2a5.62,5.62,0,0,1,.716,1.172,1,1,0,0,1,.105.406c.02.354.036.709.022,1.062-.033.957-.033,1.912-.007,2.87.013.46,0,.921,0,1.381.182.349-.077.695-.011,1.034s-.121.618-.114.934c0,.034.018.079,0,.1-.312.454-.227,1.036-.485,1.508a.594.594,0,0,0-.053.2c-.044.347-.027.707-.1,1.04s-.3.634-.375.987c-.034.172-.1.337-.149.507-.038.136-.024.308-.1.406-.3.375-.312.864-.544,1.262a1.45,1.45,0,0,1-.349.4,1.581,1.581,0,0,0-.535.766,3.467,3.467,0,0,1-.5.925c-.291.4-.575.806-.837,1.227-.035.059-.084.136-.141.153-.527.138-.853.63-1.381.762a.384.384,0,0,1-.3-.019,2,2,0,0,1-.18-.114c-.114-.082-.225-.167-.331-.246-.105.067-.193.129-.283.182-.114.067-.146.059-.254-.06-.046-.05-.071-.13-.125-.159-.218-.115-.449-.2-.659-.324a.47.47,0,0,1-.182-.249,2.08,2.08,0,0,1-.1-.516c-.017-.282,0-.566,0-.849a.293.293,0,0,0-.163-.246,4.511,4.511,0,0,0-.62-.129c-.173-.014-.355.064-.524.039-.417-.065-.832-.151-1.24-.258a.988.988,0,0,0-.619.022,5.5,5.5,0,0,1-.714.2,2.4,2.4,0,0,1-.523.076c-.5,0-.994,0-1.486-.043-.244-.022-.48-.021-.722-.022a3.988,3.988,0,0,0-.628.033.872.872,0,0,1-.421-.007,5.1,5.1,0,0,0-1.578-.148,2.954,2.954,0,0,0-.531,0c-.37.046-.684-.167-1.034-.2-.316-.031-.638-.026-.949-.077a5.313,5.313,0,0,1-.817-.224.443.443,0,0,0-.307-.03.949.949,0,0,1-.722-.051c-.165-.063-.337-.108-.5-.174a1.648,1.648,0,0,0-.811-.085c-.282.2-.537.385-.806.555a1.646,1.646,0,0,0-.453.438.644.644,0,0,1-.551.265,3.294,3.294,0,0,1-1.26-.127,1.325,1.325,0,0,1-.627-.373.489.489,0,0,0-.28-.127.357.357,0,0,1-.26-.157c-.086-.154-.149-.321-.231-.478a1.592,1.592,0,0,0-.218-.36,2.353,2.353,0,0,1-.6-1.647c-.006-.211-.026-.424-.038-.634-.241-.335-.1-.769-.295-1.12a.533.533,0,0,1-.095-.3,1.207,1.207,0,0,0-.311-1.069.41.41,0,0,1-.04-.3,1.11,1.11,0,0,1,.406-.722.963.963,0,0,0,.338-.951c-.018-.2-.172-.36-.342-.317a1.567,1.567,0,0,1-.933.019c-.6-.017-1.2-.077-1.8-.036a2.649,2.649,0,0,1-1.531-.324,2.527,2.527,0,0,0-1.419-.331A7.855,7.855,0,0,1,100.283,28c-.483-.1-.963-.231-1.438-.367a6.674,6.674,0,0,0-1.251-.22c-.489-.045-.972-.167-1.457-.251-.279-.049-.561-.073-.836-.136a3.138,3.138,0,0,0-.712-.194.74.74,0,0,1-.6-.389,3.5,3.5,0,0,1-.2-.372c-.067-.124-.14-.246-.213-.378-.234.052-.225.314-.385.43s-.311.286-.471.426a1.149,1.149,0,0,1-.334.254.9.9,0,0,0-.542.473,2.167,2.167,0,0,1-.622.716c-.193.156-.38.321-.581.464a10.121,10.121,0,0,0-1.382,1.16,1.448,1.448,0,0,1-.724.421c-.137.031-.266.1-.4.134a1.483,1.483,0,0,0-.645.354,5.633,5.633,0,0,1-1.656.921c-.192.08-.414.089-.613.156-.368.124-.728.269-1.093.4a4.57,4.57,0,0,1-1.328.334,2.294,2.294,0,0,0-.936.168,3.537,3.537,0,0,1-1.98-.089.866.866,0,0,0-.626,0,3.486,3.486,0,0,1-.828.151c-.349.04-.683.178-1.031.237-.312.054-.637.039-.949.091-.207.036-.408.1-.621.125a2.163,2.163,0,0,1-1.318-.311.512.512,0,0,1-.2-.236A2.129,2.129,0,0,0,74,31.918a.851.851,0,0,1-.169-.385c-.046-.206-.127-.4-.161-.613a1.542,1.542,0,0,1-.038-.628,9.487,9.487,0,0,0,.224-1.786.362.362,0,0,1,.214-.208c.035,0,.07-.021.1-.022a3.034,3.034,0,0,0,.844-.064,1.129,1.129,0,0,1,.413.04,8.906,8.906,0,0,0,2.224-.013,7.515,7.515,0,0,1,1.157-.121,3.174,3.174,0,0,0,1.44-.3,1.017,1.017,0,0,1,.822-.052,3.541,3.541,0,0,0,1.885.024,7.763,7.763,0,0,0,1.417-.424,2.666,2.666,0,0,0,.658-.333,6.6,6.6,0,0,1,1.853-1.019.391.391,0,0,0,.1-.037,15.958,15.958,0,0,0,3.231-2.211c.265-.28.636-.48.8-.838.149-.33.417-.573.566-.895a1.134,1.134,0,0,0,.136-.284,6.222,6.222,0,0,0,.237-1.141,1.352,1.352,0,0,1,.137-.618,2.8,2.8,0,0,0,.275-1.127,1.049,1.049,0,0,1,.107-.406,16.561,16.561,0,0,0,.7-2.331c.215-.743.318-1.518.6-2.245A7.093,7.093,0,0,1,94,12.854c.046-.357.191-.682.263-1.027a.3.3,0,0,0-.143-.26.6.6,0,0,0-.2-.06,2.561,2.561,0,0,1-1.316-.334c-.226-.1-.459-.186-.678-.3a.636.636,0,0,0-.853.14c-.109.118-.127.1-.5-.012-.025-.007-.072-.006-.079.006-.167.338-.469.263-.742.23-.173-.021-.336-.115-.509-.143a.514.514,0,0,0-.559.215c-.056.09-.1.188-.164.272a.342.342,0,0,1-.161.128c-.168.041-.357-.019-.507.111a.64.64,0,0,1-.393.135,1.751,1.751,0,0,0-.105-.163.113.113,0,0,0-.088-.022.112.112,0,0,0-.077.043c-.025.046.013.088.1.1.064.009.13.009.2.013a.507.507,0,0,0,.114.492,2.771,2.771,0,0,1,.522.667.588.588,0,0,1,.043.6.379.379,0,0,0,.066.48.287.287,0,0,1,.084.186,3.691,3.691,0,0,0-.045,1.141c-.2.168-.092.393-.121.6a3.189,3.189,0,0,1-.278,1.227c-.143.238-.021.482-.1.714a.215.215,0,0,0,.041.192c.234.188.258.5.439.716.23.267.478.518.723.773.489.51.985,1.015,1.471,1.528a2.073,2.073,0,0,1,.425.729.438.438,0,0,1-.066.4c-.12.169-.305.28-.379.5a.355.355,0,0,1-.464.131,3.175,3.175,0,0,0-1-.325.574.574,0,0,0-.311.028.814.814,0,0,1-.782-.224c-.459-.388-.9-.8-1.355-1.192a1.647,1.647,0,0,0-.262-.174.121.121,0,0,0-.1,0c-.3.194-.6.386-.6.8a.35.35,0,0,1-.174.36c-.25.092-.446.193-.45.5a.572.572,0,0,1-.211.357.836.836,0,0,0-.213.476c-.026.212-.16.292-.363.3a1.577,1.577,0,0,0-.415.049,12.127,12.127,0,0,0-2.357.9c-.4-.062-.71-.329-1.1-.4a1.283,1.283,0,0,1-.459-.254c-.231-.16-.437-.369-.756-.317-.246-.137-.5-.263-.731-.418a.41.41,0,0,1-.141-.271,5.712,5.712,0,0,1-.021-.637.633.633,0,0,0-.259-.554.55.55,0,0,1-.156-.672,1.28,1.28,0,0,1,.649-.921.356.356,0,0,0,.156-.138,1.35,1.35,0,0,1,.944-.622,2.255,2.255,0,0,0,.856-.394,2,2,0,0,1,.277-.159,4.889,4.889,0,0,0,2.131-2.426c.1-.225.2-.447.32-.665a2.761,2.761,0,0,0,.379-1.309,4.072,4.072,0,0,1,.588-1.789c.159-.241.226-.518.37-.761a.277.277,0,0,0-.149-.348,1.918,1.918,0,0,0-1.343.051.438.438,0,0,1-.3.05c-.237-.067-.489-.1-.711-.191a6.325,6.325,0,0,0-.886-.318c-.056-.013-.1-.09-.14-.148-.053-.089-.069-.228-.144-.27a.5.5,0,0,1-.256-.621c.08-.38.124-.769.209-1.148a3.908,3.908,0,0,1,.254-.8c.231-.482.3-1.011.485-1.5a1.233,1.233,0,0,0,.041-.42c0-.514.265-.568.7-.4.231.089.464.167.7.251a7.132,7.132,0,0,1,2.069-.488,1.113,1.113,0,0,1,.523.039A1.373,1.373,0,0,0,86.3,5.88a.649.649,0,0,1,.67.164,2.042,2.042,0,0,0,1.714.314,2.725,2.725,0,0,1,.517-.1c1.026-.013,2.054-.064,3.081,0a1.341,1.341,0,0,1,.318.019,8.841,8.841,0,0,0,2.535.118.337.337,0,0,0,.31-.251c.117-.33.215-.67.347-.994.117-.295.291-.568.4-.864a6.331,6.331,0,0,0,.467-1.954,1.467,1.467,0,0,1,.2-.6,1.107,1.107,0,0,1,.336-.4c.17-.124.341-.251.5-.383A1.317,1.317,0,0,1,98.786.637c.173.03.349.051.521.089a.386.386,0,0,1,.209.521.769.769,0,0,1-.1.185,9.12,9.12,0,0,0-.862,1.2,1,1,0,0,0-.22.473,3.6,3.6,0,0,1-.324,1A9.668,9.668,0,0,0,97.6,5.2a5.3,5.3,0,0,0-.135.725c-.014.072.1.234.167.237.389.015.779.027,1.168.043a3.785,3.785,0,0,1,1.156.142,1.335,1.335,0,0,0,.419.062c.566.008,1.133.006,1.7.006a1.064,1.064,0,0,0,.517-.095.334.334,0,0,1,.3-.036,11.626,11.626,0,0,0,1.819.561,1.369,1.369,0,0,1,.84.6c.036.056.077.133.131.15a.735.735,0,0,1,.491.84,2.375,2.375,0,0,0,.167,1.038c-.122.159-.354.244-.342.5a.692.692,0,0,1-.026.1,1.438,1.438,0,0,1-.6.97,1.351,1.351,0,0,1-.992.3,2.2,2.2,0,0,0-1.237.239,1.734,1.734,0,0,1-1.239.091c-.209-.054-.415-.046-.621-.079a2.641,2.641,0,0,0-.42-.049q-2.018,0-4.038,0a2.035,2.035,0,0,0-.422.046.25.25,0,0,0-.161.123c-.059.166-.09.341-.136.511a1.77,1.77,0,0,0-.136.509c.044.613-.259,1.175-.233,1.785a1.465,1.465,0,0,1-.064.522,3.247,3.247,0,0,0-.155.938,2.069,2.069,0,0,1-.077.412,1.339,1.339,0,0,0-.083.3,16.267,16.267,0,0,1-.208,1.679,5.511,5.511,0,0,1-.236,1.135,7.127,7.127,0,0,0-.258,1.027,8.244,8.244,0,0,1-.278,1.02,1.338,1.338,0,0,0-.095.406c.019.391-.044.78-.022,1.166.049.91-.178.676.707,1.221a7.551,7.551,0,0,0,2.983,1.017c.417.059.828.162,1.24.253.9.2,1.789.413,2.689.6a2,2,0,0,1,.206.047c.336.11.665.25,1.008.325.309.067.633.053.947.1a4.345,4.345,0,0,1,.622.085,7.334,7.334,0,0,0,1.04.185c.34.049.678-.167,1.04-.146a.594.594,0,0,0,.292-.1,3.6,3.6,0,0,0,.537-.338.665.665,0,0,1,.7-.085.159.159,0,0,0,.213-.151,2.716,2.716,0,0,1,.237-1.021,2.023,2.023,0,0,0,.056-.418.484.484,0,0,1,.136-.278.96.96,0,0,0,.366-.617,1.087,1.087,0,0,1,.077-.308,2.331,2.331,0,0,0,.249-1.228,1.013,1.013,0,0,0-.194-.591c-.107-.172-.073-.279.149-.417.13-.078.249-.163.244-.312a3.082,3.082,0,0,1,.419-1.408,9.27,9.27,0,0,1,.478-.825.285.285,0,0,1,.283-.093,3.092,3.092,0,0,0,1.737.374.334.334,0,0,1,.225.2c.007.034.018.069.026.1a1.962,1.962,0,0,1-.188,1.338.371.371,0,0,0-.028.1,1.785,1.785,0,0,0,.069.2.442.442,0,0,1,.056.4,1.784,1.784,0,0,0-.114.836.642.642,0,0,0,.465.637,1.136,1.136,0,0,1,.2.079.315.315,0,0,1,.155.355c-.1.225-.217.446-.308.676a.621.621,0,0,0-.043.31c.035.273.186.543.006.818-.007.246,0,.495-.027.738-.017.136-.1.263-.131.4a1.413,1.413,0,0,0,.026.934.767.767,0,0,1-.007.715c-.073.144.012.266.021.4a2.614,2.614,0,0,0,.054.819,3.406,3.406,0,0,1-.142.4,3.141,3.141,0,0,0-.28,1.34c0,.247.012.5.011.744a1.22,1.22,0,0,1-.236.8.77.77,0,0,0-.157.5c0,.351-.06.7-.04,1.054.014.314-.131.618-.039.944.033.115-.053.262-.076.4,0,.022.054.08.063.077a5.215,5.215,0,0,0,.569-.285,5.874,5.874,0,0,1,2.2-.734c.485-.084.967-.187,1.45-.285a.943.943,0,0,0,.194-.088.258.258,0,0,0,.111-.269,6.588,6.588,0,0,1-.315-1.446,2.1,2.1,0,0,1,0-.74,13.175,13.175,0,0,0,.058-2.968,1.824,1.824,0,0,1,.011-.626.954.954,0,0,0,.034-.316,4.343,4.343,0,0,1,.347-1.753c.091-.267.186-.534.264-.806a.465.465,0,0,0,0-.312,1.828,1.828,0,0,1-.131-1.037c.011-.141,0-.283,0-.427a3.943,3.943,0,0,0,.676-.924,1,1,0,0,1,.606-.563c.037-.014.047-.1.059-.156,0-.009-.058-.045-.09-.046-.495,0-.991,0-1.486-.008a3.285,3.285,0,0,1-1.259-.127.362.362,0,0,0-.209,0,.553.553,0,0,1-.5-.1,1.137,1.137,0,0,0-.586-.226c-.032,0-.088-.036-.086-.051a.3.3,0,0,1,.05-.174,1.592,1.592,0,0,1,.256-.183.288.288,0,0,0,.118-.365.58.58,0,0,1-.017-.1,8.308,8.308,0,0,0,.754-.875.314.314,0,0,1,.175-.11c.159-.051.361-.051.309-.311a.091.091,0,0,1,.051-.07,6.041,6.041,0,0,1,1.026-.263c.458-.028.891-.233,1.36-.22.356.011.479-.241.585-.515a.787.787,0,0,0,.037-.1c.069-.337-.032-.723.285-.989q.238-.474.477-.946a4.682,4.682,0,0,0,.815-1.35.655.655,0,0,0,.052-.608.971.971,0,0,1-.063-.31.758.758,0,0,1,.237-.675c.1-.095.213-.186.308-.29a.374.374,0,0,0,.056-.4.126.126,0,0,0,.178-.064c.006-.013-.039-.071-.057-.07-.084.006-.12.062-.107.149m10.644,12.7h-.015c0-.46,0-.92,0-1.38a.283.283,0,0,0-.165-.25,1.6,1.6,0,0,0-.592-.22,2.4,2.4,0,0,1-.628-.069c-.275-.095-.561-.079-.83-.154a6.349,6.349,0,0,0-.819-.164,10.225,10.225,0,0,1-1.753-.393,2.3,2.3,0,0,0-.414-.073,1.588,1.588,0,0,0-.212,0,.335.335,0,0,0-.336.335c-.017.529-.026,1.059-.04,1.589a1.2,1.2,0,0,1-.031.42,3.5,3.5,0,0,0-.128,1.466q.007.371,0,.743a2.456,2.456,0,0,1-.217,1.03c-.045.092-.12.22-.089.289.125.271-.064.473-.11.707a7.413,7.413,0,0,1-.169.935.619.619,0,0,0,.043.307c.014.069.06.13.072.2a.793.793,0,0,1-.164.791.655.655,0,0,0-.178.486c0,.141,0,.283,0,.424a2.53,2.53,0,0,1-.221,1.133,5,5,0,0,0-.241.807.354.354,0,0,0,.263.4.522.522,0,0,0,.1.025,2.672,2.672,0,0,1,1.385.471,3.487,3.487,0,0,0,.57.278,5.508,5.508,0,0,1,1.312.673,2.523,2.523,0,0,0,.572.273.284.284,0,0,0,.412-.186c.046-.314.04-.643.347-.856a.269.269,0,0,0,.085-.186,1.7,1.7,0,0,1,.225-.586,1.768,1.768,0,0,0,.25-.8c.207-.457.182-.969.354-1.437.293-.8.369-1.653.665-2.451a.5.5,0,0,0,.037-.207c-.031-.4.226-.749.211-1.137a5.908,5.908,0,0,1,.263-1.131,6.581,6.581,0,0,0,.142-1.046c0-.353.03-.705.046-1.058m-12.473.609a1.048,1.048,0,0,1,.548-.751c.154-.085.3-.176.454-.269a1.161,1.161,0,0,1,.711-.173,4.483,4.483,0,0,1,.63.076,3.2,3.2,0,0,1,.986.369,1.957,1.957,0,0,1,1.077.617c.088.088.165.05.221-.054.142-.26.091-.56.187-.825a8.106,8.106,0,0,0,.327-.782,7.355,7.355,0,0,1,.23-.813,1.7,1.7,0,0,0,.05-.524.4.4,0,0,0-.28-.4.834.834,0,0,0-.3-.09c-.32.025-.612-.123-.927-.117a3.1,3.1,0,0,1-.742-.021,2.086,2.086,0,0,0-.826.007.568.568,0,0,1-.3-.073.571.571,0,0,0-.4-.085,1.752,1.752,0,0,1-.628.007c-.351-.033-.707-.025-1.062-.032-.033,0-.066.018-.1.021-.092.007-.153.141-.105.244.089.193.2.379.266.578s-.083.408-.085.62-.018.425-.022.638a3.809,3.809,0,0,1-.134,1.045,13.6,13.6,0,0,0-.258,1.46c-.093.523-.069,1.058-.172,1.582a4.588,4.588,0,0,0,0,.954,1,1,0,0,0,.052.2c.033.133.2.262.312.228a3.213,3.213,0,0,1,.83-.155,1.028,1.028,0,0,0,.407-.1,1.45,1.45,0,0,1,.935-.057,2.976,2.976,0,0,0,.514.12c.245,0,.49-.093.733-.086a7.83,7.83,0,0,1,.836.127.371.371,0,0,0,.2-.037c.058-.03.131-.086.142-.143a3.9,3.9,0,0,0,.027-1.367.126.126,0,0,0-.149-.112c-.315.027-.63.012-.944.022a1.712,1.712,0,0,1-.509-.028,1.78,1.78,0,0,1-.742-.394,3.482,3.482,0,0,0-1.3-.693.979.979,0,0,1-.683-.735m2.067,8.682a.566.566,0,0,1,.4.032c.6.182.763-.082.989-.517a.963.963,0,0,0,.092-.408,2.015,2.015,0,0,1,.122-.611,8.3,8.3,0,0,0,.239-1.027c.033-.153-.176-.336-.346-.3-.1.019-.2.052-.3.078a1.839,1.839,0,0,1-.4.1c-.774.021-1.547.024-2.321.045a.907.907,0,0,1-.5-.128,1.447,1.447,0,0,0-.295-.1c-.07-.022-.264.06-.275.116a10.61,10.61,0,0,1-.6,2.125.242.242,0,0,0,.269.333,8.093,8.093,0,0,1,1.366.121,5.018,5.018,0,0,1,1.356.173c.056.02.133-.018.2-.028" transform="translate(13.504 0.114)" fill="#fff" fill-rule="evenodd"/>
      <path id="Path_1669" data-name="Path 1669" d="M89.109,39.636a.31.31,0,0,0-.105,0,.706.706,0,0,1-.606.067,5.52,5.52,0,0,0-.8-.265,9.14,9.14,0,0,1-1.149-.2.576.576,0,0,0-.309.028,3.622,3.622,0,0,0-.889.321,8.232,8.232,0,0,0-1.505.967c-.088.075-.148.064-.278-.046-.079-.066-.153-.14-.222-.2a4.858,4.858,0,0,0-.511.185,1.083,1.083,0,0,0-.231.207,1.081,1.081,0,0,1-.16.136c-.46.265-.46.265-.663.567-.018.025-.06.034-.091.045a.111.111,0,0,1-.146-.1,3.076,3.076,0,0,0-.215-.708.682.682,0,0,0-.1-.187c-.072-.075-.164-.187-.245-.185a3.514,3.514,0,0,1-.915-.249c-.058-.013-.105-.079-.153-.116.034-.178.07-.35.1-.524a1.4,1.4,0,0,1,.051-.314c.356-.772.44-1.641.864-2.386.1-.18.241-.34.355-.515.058-.089.071-.214.141-.283.391-.37.591-.878.953-1.27a2.369,2.369,0,0,1,.931-.682c.2-.073.388-.175.58-.267.236-.114.252-.194.108-.509a.527.527,0,0,1-.072-.194.193.193,0,0,1,.111-.142.913.913,0,0,1,.783.236.32.32,0,0,0,.388.057A12.873,12.873,0,0,0,87.96,31.1a1.247,1.247,0,0,0,.291-.436,3.159,3.159,0,0,1,.354-.649,10.617,10.617,0,0,1,.875-1.323,4.709,4.709,0,0,0,.707-1.86c.007-.072.18-.157.262-.13.1.033.2.088.3.115a.334.334,0,0,0,.353-.175c.073-.16.133-.324.2-.484a.2.2,0,0,1,.273-.073.672.672,0,0,0,.492.14,1.287,1.287,0,0,1,.724.1,6.743,6.743,0,0,0,1,.354.954.954,0,0,1,.613.553.528.528,0,0,0,.293.277c.091.036.105.08.065.168-.025.057-.049.148-.02.189a.466.466,0,0,0,.225.207c.718.169,1.449.307,2.167.484.685.169,1.363.374,2.045.561a3.519,3.519,0,0,1,.778.331,12.181,12.181,0,0,0,1.322.676,3.421,3.421,0,0,1,1.066.686,1.046,1.046,0,0,1,.4.716c.009.136.11.265.125.4a1.02,1.02,0,0,1-.02.52,2.061,2.061,0,0,0-.2,1.03,1.2,1.2,0,0,1-.275.89.637.637,0,0,0-.111.179c-.2.529-.406,1.056-.593,1.589a1.617,1.617,0,0,0-.034.418.384.384,0,0,0,.189.238,10.152,10.152,0,0,1,1.628.452,2.817,2.817,0,0,0,.619.138c.672.045,1.31.3,1.983.329a.655.655,0,0,1,.212.015,4.579,4.579,0,0,0,1.673.193,1.374,1.374,0,0,1,.42.052,4.373,4.373,0,0,0,1.469.169.66.66,0,0,1,.314.03c.269.163.548.062.821.072.246.009.491.064.737.08.282.019.567.024.85.025.851,0,1.7,0,2.55,0a2.106,2.106,0,0,1,.94.122.9.9,0,0,0,.314.041,2.365,2.365,0,0,1,.318.011c.97.211,1.967.219,2.946.366a6.716,6.716,0,0,0,.847.05c.565.011,1.133,0,1.7.019a3.683,3.683,0,0,1,1.049.146,2.621,2.621,0,0,0,.626.077,11.307,11.307,0,0,1,1.578.175c.48.1.979.111,1.465.219a4.17,4.17,0,0,0,.741.012c.495.017.989.04,1.485.062a8.16,8.16,0,0,0,1.351.262,10.783,10.783,0,0,0,1.69.13.411.411,0,0,0,.206-.035,3.034,3.034,0,0,0,1.071-.666,1.84,1.84,0,0,1,1.4-.631c.072,0,.143-.009.212-.007a.547.547,0,0,1,.369.187.709.709,0,0,1,.118.176,8,8,0,0,0,.514.923.8.8,0,0,1,.11.613,3.828,3.828,0,0,1-.615,1.563c-.355.483-.68.989-1,1.5a2.483,2.483,0,0,0-.316.665c-.1.381-.417.664-.45,1.069-.115.134-.221.276-.346.4a1.218,1.218,0,0,0-.342.518.759.759,0,0,1-.624.521c-.239.033-.443.241-.711.13-.045-.019-.14.031-.182.076-.125.129-.241.257-.446.234-.254-.028-.477.13-.711.157a2.984,2.984,0,0,1-.722-.122,2.541,2.541,0,0,0-1.434.273c-.322.146-.622.335-.941.486a1.308,1.308,0,0,1-.916.128,8.965,8.965,0,0,0-1.16-.134,2,2,0,0,0-.826-.141,2.663,2.663,0,0,0-.845,0,1.16,1.16,0,0,1-.82-.129.436.436,0,0,0-.407-.021.208.208,0,0,1-.272-.059c-.043-.056-.069-.124-.115-.178a.594.594,0,0,0-.66-.22c-.034.009-.066.024-.1.034a.521.521,0,0,1-.4-.092c-.173-.082-.078-.233-.07-.362,0-.105-.114-.221-.2-.2-.064.017-.129.041-.193.065a1.048,1.048,0,0,1-.728.011,5.7,5.7,0,0,1-1.457-.613.953.953,0,0,0-.6-.156,6.4,6.4,0,0,0-1.269,0,.79.79,0,0,1-.415-.046.769.769,0,0,0-.508.03.342.342,0,0,1-.389-.1c-.168-.238-.35-.325-.615-.16a.318.318,0,0,1-.207.028,3.083,3.083,0,0,0-1.549-.059.405.405,0,0,1-.3-.062.528.528,0,0,0-.57-.162,2.261,2.261,0,0,0-.831-.142.5.5,0,0,1-.342-.224c-.059-.071-.109-.07-.187-.027a.3.3,0,0,1-.2.027c-1.039-.333-2.123-.492-3.167-.807a8.854,8.854,0,0,1-1.814-.555.521.521,0,0,0-.206-.049,11.328,11.328,0,0,1-2.057-.507,13.414,13.414,0,0,0-1.747-.424,1.086,1.086,0,0,1-.308-.076,3.7,3.7,0,0,0-1.548-.3,2.108,2.108,0,0,1-.415-.072.547.547,0,0,0-.628.264c-.035.059-.062.144-.116.167-.179.079-.3.17-.191.385-.062.084-.1.206-.183.246a.612.612,0,0,0-.363.592.745.745,0,0,1-.111.293c-.032.062-.08.14-.137.156a2.023,2.023,0,0,0-.89.718c-.215.228-.58.3-.677.645-.178.114-.356.226-.531.342a.526.526,0,0,0-.257.312c-.039.147-.082.137-.174-.015-.034-.058-.073-.112-.12-.182a3.421,3.421,0,0,0-.962.611l.012-.012a2.387,2.387,0,0,0-.473.695.271.271,0,0,1-.235.183.533.533,0,0,0-.5.322.519.519,0,0,1-.507.309c-.105,0-.212,0-.318,0a.738.738,0,0,0-.563.243,1.323,1.323,0,0,1-.33.258c-.181.108-.415-.051-.6.123a.8.8,0,0,1-.478.2,5.219,5.219,0,0,0-.729.128.916.916,0,0,1-.959-.284c-.022-.026-.033-.065-.056-.089-.16-.16-.2-.17-.366-.1l-.483.214a.234.234,0,0,1-.28-.064,10.093,10.093,0,0,0-.621-.838,1.456,1.456,0,0,0-.611-.556.327.327,0,0,1-.121-.374.906.906,0,0,0,.12-.6A.518.518,0,0,1,85.743,46c.1-.059.138-.23.092-.277s-.1-.112-.161-.128c-.307-.076-.617-.136-.924-.2-.351-.078-.446-.278-.284-.613a2.6,2.6,0,0,1,.209-.367.673.673,0,0,1,.433-.28c.174-.032.353-.022.525-.053a3.515,3.515,0,0,0,.612-.156,4.841,4.841,0,0,1,1.006-.314,1.267,1.267,0,0,0,.652-.335,5.159,5.159,0,0,1,.969-.631,22.74,22.74,0,0,0,1.921-1.305,1.758,1.758,0,0,0,.6-.591c.1-.191.356-.233.4-.462,0-.025-.031-.08-.049-.08-.167,0-.336,0-.5.006a.313.313,0,0,1-.105-.009c-.295-.095-.55-.324-.892-.258-.025,0-.062-.031-.09-.052-.056-.043-.109-.091-.166-.133a.252.252,0,0,0-.283-.038,1.165,1.165,0,0,1-.407.08.212.212,0,0,1-.217-.185c.1-.051.115-.082.052-.07-.014,0-.018.062-.026.095m3.916-8.05c-.057.044-.129.077-.161.133a1.365,1.365,0,0,1-.42.583,1.06,1.06,0,0,0-.272.321c-.2.293-.393.588-.572.892a4.6,4.6,0,0,1-.307.67.184.184,0,0,0,.1.257,3.724,3.724,0,0,1,.51.12,8.054,8.054,0,0,0,1.316.382c.449.095.89.207,1.347.265a10.623,10.623,0,0,1,1.343.283c.327.086.459.013.594-.262.265-.538.523-1.079.78-1.621a1.24,1.24,0,0,0,.062-.2.321.321,0,0,0-.191-.425,19.718,19.718,0,0,0-2.418-.742.681.681,0,0,0-.311.017c-.1.021-.2.076-.3.107a.582.582,0,0,1-.669-.191c-.153-.189-.292-.391-.436-.587" transform="translate(14.641 4.781)" fill="#fff" fill-rule="evenodd"/>
      <path id="Path_1670" data-name="Path 1670" d="M102.351,20.1c-.07-.007-.2.019-.276-.033a3.866,3.866,0,0,0-.911-.266,3.142,3.142,0,0,1-1.338-.822c-.307-.342-.644-.654-.966-.982-.2-.2-.3-.2-.509.041q-.339.4-.672.812a2.063,2.063,0,0,1-.96.622,5.728,5.728,0,0,1-1.357.193,2.474,2.474,0,0,1-1.509-.383c-.032-.018-.06-.037-.092-.051-.217-.092-.36-.363-.651-.265-.222-.105-.4.052-.6.092a.266.266,0,0,1-.285-.336A2.1,2.1,0,0,1,92.74,17.7a1.709,1.709,0,0,0,.342-.53,4.177,4.177,0,0,1,.882-1.183,9.352,9.352,0,0,0,1.088-1.151,1.571,1.571,0,0,0,.49-.544,4.155,4.155,0,0,1,.58-.755,5.657,5.657,0,0,0,.859-1.453.9.9,0,0,0,.076-.409,1.275,1.275,0,0,1,.141-.613.494.494,0,0,1,.3-.28,2.876,2.876,0,0,0,.4-.131.243.243,0,0,1,.2,0,1.322,1.322,0,0,0,.514.1,7.086,7.086,0,0,1,1.772.232,1.577,1.577,0,0,1,.893.531,3.333,3.333,0,0,1,.317.425.755.755,0,0,1,.136.5c-.018.246-.058.491-.064.738a1.885,1.885,0,0,1-.27,1.007.935.935,0,0,0-.075.3.634.634,0,0,1-.194.366,1.889,1.889,0,0,0-.548.77c-.1.273-.333.45-.471.692a.113.113,0,0,0,.007.091.215.215,0,0,0,.077.072c.883.522,1.644,1.217,2.5,1.781a5.746,5.746,0,0,1,.785.709.621.621,0,0,1,.057.7.2.2,0,0,1-.063.084,1.921,1.921,0,0,1-1.112.365" transform="translate(16.915 1.95)" fill="#fff" fill-rule="evenodd"/>
      <path id="Path_1671" data-name="Path 1671" d="M118.173,10.838a.95.95,0,0,1-.163.043c-.019,0-.044-.039-.065-.059a.965.965,0,0,1,.167-.044c.018,0,.04.039.062.06" transform="translate(21.636 1.978)" fill="#fff" fill-rule="evenodd"/>
      <path id="Path_1672" data-name="Path 1672" d="M113.166,10.2c.03.017.062.032.093.049-.024-.024-.046-.049-.07-.073Z" transform="translate(20.759 1.867)" fill="#fff" fill-rule="evenodd"/>
      <path id="Path_1673" data-name="Path 1673" d="M235.123,41.631l.009-.006,0-.011-.012,0v.014" transform="translate(43.131 7.634)" fill="#b40019" fill-rule="evenodd"/>
      <path id="Path_1674" data-name="Path 1674" d="M239,40.468a.547.547,0,0,0-.244,0,.694.694,0,0,1-.311.041.472.472,0,0,0-.265.086.313.313,0,0,0-.185.285c0,.155-.021.31-.02.464,0,.181.077.257.262.275a2.293,2.293,0,0,0,.285,0,1.937,1.937,0,0,1,.638.065c.147.044.3.062.451.1a.483.483,0,0,1,.159.059.75.75,0,0,1,.03-.147.65.65,0,0,0,.019-.312,5.322,5.322,0,0,0-.14-.744.593.593,0,0,1-.032-.14,1.793,1.793,0,0,1-.646-.027" transform="translate(43.655 7.421)" fill="#b40019" fill-rule="evenodd"/>
      <path id="Path_1675" data-name="Path 1675" d="M235.122,41.837c0-.084.008-.148.011-.209-.086.047-.075.114-.011.209" transform="translate(43.122 7.637)" fill="#b40019" fill-rule="evenodd"/>
      <path id="Path_1676" data-name="Path 1676" d="M237.167,37.534l-.013.02,0,0,.011,0,.006-.027" transform="translate(43.503 6.886)" fill="#b40019" fill-rule="evenodd"/>
      <path id="Path_1677" data-name="Path 1677" d="M236.016,36.153l-.024.021v.007H236l.015-.027" transform="translate(43.291 6.632)" fill="#b40019" fill-rule="evenodd"/>
      <path id="Path_1678" data-name="Path 1678" d="M240.952,44.053c0-.057.006-.114,0-.17,0-.026,0-.053-.007-.079a.313.313,0,0,0-.138.043c-.02.012-.054.026-.066.018-.124-.092-.233.09-.337.028s-.212.058-.311-.045l.2-.283c-.149-.137-.169-.157-.3-.166a2.75,2.75,0,0,1-.529-.064.113.113,0,0,0-.135.124c.069.279,0,.57.088.851a1.434,1.434,0,0,1,.027.463.268.268,0,0,1-.417.212,1.456,1.456,0,0,0-.189-.09,1.034,1.034,0,0,1-.644-.57,1.337,1.337,0,0,0-.15-.182,1.968,1.968,0,0,1-.84.717c-.169.06-.224.04-.312-.123-.028-.052-.058-.1-.085-.151a.739.739,0,0,1,.434-.612,1,1,0,0,0,.318-.331c.112-.153.222-.308.323-.467.063-.1.1-.217.157-.317.086-.141.188-.271.278-.411a2.041,2.041,0,0,0,.1-.209.776.776,0,0,0-.46.142.751.751,0,0,0-.386.292.59.59,0,0,1-.34-.128.379.379,0,0,1,.08-.26,3.521,3.521,0,0,0,1.143-.467c.109-.164.022-.349.059-.521.008-.04-.046-.112-.091-.14-.1-.062-.212-.1-.317-.156a.093.093,0,0,1-.018-.151.521.521,0,0,1,.147-.086c.065-.025.138-.031.2-.057a.279.279,0,0,0,.2-.3,2.559,2.559,0,0,1,0-.286.161.161,0,0,0-.107-.167.079.079,0,0,1-.037-.118.184.184,0,0,1,.105-.082,1.707,1.707,0,0,1,.356,0,.366.366,0,0,1,.33.4c0,.046-.015.093-.02.141a.952.952,0,0,0,0,.12c.092.026.182.047.269.077a.151.151,0,0,1,.066.257.637.637,0,0,1-.2.137.265.265,0,0,0-.178.2c-.032.136-.124.263-.054.424a1.684,1.684,0,0,0,.23-.049c.078-.027.146-.082.224-.108s.156.03.241-.013a.961.961,0,0,1,.694.014c.1.025.2.06.3.095a.48.48,0,0,1,.04-.077.5.5,0,0,0,.091-.3,1.075,1.075,0,0,1,.153-.583,1.331,1.331,0,0,0,.128-.415c.033-.161.046-.327.073-.488.017-.105.05-.207.064-.312a9.176,9.176,0,0,0,.1-1.181,1.946,1.946,0,0,0-.084-.63,3.815,3.815,0,0,1-.219-.753.768.768,0,0,0-.121-.262.994.994,0,0,0-.34-.315.407.407,0,0,1-.188-.361.183.183,0,0,0-.012-.082,4.169,4.169,0,0,1-.309-.555.231.231,0,0,0-.071-.09,3.938,3.938,0,0,0-.383-.257,3.327,3.327,0,0,1-.84-.6.691.691,0,0,0-.182-.142,1.537,1.537,0,0,0-.73-.169,4.218,4.218,0,0,0-.692.077,2.583,2.583,0,0,1-.834.085c-.049,0-.1,0-.147,0a1,1,0,0,1-.373-.049.856.856,0,0,0-.282-.054.9.9,0,0,0-.567.08c-.044.031-.09.007-.138,0a.886.886,0,0,0-.613.08.947.947,0,0,0-.43.33,1.323,1.323,0,0,0-.11.206,5.288,5.288,0,0,1-.363.662c-.082.131-.185.247-.266.376a2.576,2.576,0,0,1-.538.6,1.136,1.136,0,0,0-.315.379c-.09.193-.179.388-.263.585a1.036,1.036,0,0,0-.062.225,2.552,2.552,0,0,0-.066.578.888.888,0,0,1-.034.259c-.063.284-.127.568-.2.851a1.777,1.777,0,0,0-.047.295.311.311,0,0,1,.214-.172.657.657,0,0,0,.177-.077c.357-.224.711-.456,1.073-.67a1.576,1.576,0,0,1,.421-.165.454.454,0,0,0,.344-.31,9.643,9.643,0,0,0,.383-1.237.824.824,0,0,0-.038-.511c-.024-.052-.038-.109.023-.142a.147.147,0,0,1,.181.014.35.35,0,0,1,.109.191,4.575,4.575,0,0,1-.017.65,4.383,4.383,0,0,1-.118.572c-.034.134-.085.265-.13.4a.387.387,0,0,0,.344.093,1.651,1.651,0,0,0,.058-.379c0-.018.025-.049.037-.047.028,0,.072.011.082.031a2.735,2.735,0,0,1,.13.3c.044.122.078.246.115.362-.047.167-.086.335-.142.5s-.129.321-.2.486a.139.139,0,0,0,.112.133.456.456,0,0,1,.31.256,2.216,2.216,0,0,0,.218.282.691.691,0,0,1,.062.136.3.3,0,0,1-.336.1c-.146-.039-.289-.086-.436-.123a.942.942,0,0,1-.258-.166,3.75,3.75,0,0,1-.478.2c-.176.049-.356.078-.531.131-.062.019-.142-.022-.223-.038a1.245,1.245,0,0,1,.528-.365.859.859,0,0,0,.344-.257c-.058-.032-.114-.088-.168-.085-.116.006-.225-.078-.347-.02-.043.02-.13-.062-.135-.116a.523.523,0,0,1,.1-.459.464.464,0,0,0,.088-.135,1.354,1.354,0,0,0,.049-.148.506.506,0,0,0-.489.178,4.808,4.808,0,0,1-.64.495c-.066.057-.143.1-.2.161a.491.491,0,0,1-.621.1c0,.039,0,.077,0,.115,0,.2.028.4.012.6a1.215,1.215,0,0,0,.062.565.932.932,0,0,1,.032.143,5.822,5.822,0,0,0,.328,1.083,2.1,2.1,0,0,1,.15.62c.019.163.015.328.031.491a2.527,2.527,0,0,0,.194.776,4.229,4.229,0,0,0,.321.522,2.812,2.812,0,0,1,.225.34,1.193,1.193,0,0,0,.389.426,3.163,3.163,0,0,0,.7.362,5.085,5.085,0,0,1,.482.207,1.347,1.347,0,0,1,.491.356,2.886,2.886,0,0,0,.987.646c.129-.013.2.11.321.128a1.819,1.819,0,0,1,.589.275c.013.063.024.11.037.175a.761.761,0,0,0,.4-.008.36.36,0,0,1,.256.007.486.486,0,0,0,.228.025,1.666,1.666,0,0,0,.767-.246c.069-.052.154-.072.214-.146s.176-.036.267-.044c.019,0,.034-.017.053-.024a1.03,1.03,0,0,0,.314-.211,1.6,1.6,0,0,0,.4-.567.2.2,0,0,1,.082-.111,3.075,3.075,0,0,0,.794-.8.527.527,0,0,0,.137-.432.34.34,0,0,1,.017-.144,1.165,1.165,0,0,0,.011-.491,1.033,1.033,0,0,1,0-.172m-5.312-5.721,1.278-.338a.32.32,0,0,0-.035-.1c-.059-.076-.167-.1-.212-.194-.012-.026-.072-.03-.111-.04s-.1-.025-.166-.041a1.477,1.477,0,0,1,.063-.23,1.351,1.351,0,0,1,.146-.253.882.882,0,0,0,.182-.531.412.412,0,0,0-.116.022c-.058.028-.108.073-.163.1a.832.832,0,0,1-.864.022c-.006-.052.022-.078.071-.088a1.639,1.639,0,0,0,.566-.234c.173-.11.359-.194.531-.308a.557.557,0,0,1,.614-.049,3.2,3.2,0,0,0,.3.134.212.212,0,0,1,.129.208.438.438,0,0,1-.085.273c-.154.2-.295.4-.449.6-.091.116-.2.222-.3.338l.329.26a1.285,1.285,0,0,1,.6.007.205.205,0,0,0,.127-.009.806.806,0,0,1,.813.175c.094.076.2.129.233.262a.166.166,0,0,1-.2.127,1.108,1.108,0,0,0-.684.127.273.273,0,0,1-.3-.044l.219-.3a.726.726,0,0,0-.549-.038c-.065.107-.014.191.021.282a3.605,3.605,0,0,1,.209,1.2.924.924,0,0,1-.264.641c-.018.022-.067.049-.082.04-.1-.062-.182.03-.273.041a1.6,1.6,0,0,1-.185,0,.775.775,0,0,0-.34.022c-.22.1-.387-.056-.563-.151a.1.1,0,0,1-.034-.054c-.037-.13-.071-.262-.112-.413a.984.984,0,0,1,.162.024.447.447,0,0,0,.374-.046A1.6,1.6,0,0,0,237,39.4a.561.561,0,0,0,.167-.409c-.009-.161.011-.324.012-.486a.438.438,0,0,0-.045-.125,6.312,6.312,0,0,0-.663.134,1.878,1.878,0,0,0-.591.219.506.506,0,0,1-.309-.217c.02-.053.041-.112.067-.185m.424,5.485-.337-.4c-.009.117.066.221-.037.305a1.825,1.825,0,0,0-.217.25,3.155,3.155,0,0,0-.379-.249c-.058-.027-.141,0-.154-.1a3.754,3.754,0,0,0-.309-.8,6.092,6.092,0,0,1,.807-1.32.3.3,0,0,1,.129.273.392.392,0,0,0,.115.307c.08,0,.174.006.266.018a.71.71,0,0,1,.389.151c.118.1.176.09.264-.024.043-.054.057-.138.153-.122s.148.092.181.194a.777.777,0,0,1-.122.708,4.519,4.519,0,0,0-.258.383.927.927,0,0,1-.492.419" transform="translate(42.499 6.214)" fill="#b40019" fill-rule="evenodd"/>
      <path id="Path_1679" data-name="Path 1679" d="M235.134,41.621c.024,0,.056,0,.017-.045,0,.015-.011.031-.017.045" transform="translate(43.133 7.627)" fill="#b40019" fill-rule="evenodd"/>
      <path id="Path_1680" data-name="Path 1680" d="M237.46,41.63a7.244,7.244,0,0,0-.3.857c.3.138.3.138.485.112a.528.528,0,0,0,.022-.13c-.015-.2-.028-.4-.058-.6-.009-.06-.07-.112-.154-.239" transform="translate(43.506 7.637)" fill="#b40019" fill-rule="evenodd"/>
      <path id="Path_1681" data-name="Path 1681" d="M234.075,38.331c.053-.129.1-.262.14-.394a.128.128,0,0,0-.038-.157h-.262a1.1,1.1,0,0,0-.354.521,1.072,1.072,0,0,0,.329.128.162.162,0,0,0,.185-.1" transform="translate(42.845 6.931)" fill="#b40019" fill-rule="evenodd"/>
      <path id="Path_1682" data-name="Path 1682" d="M113.132,57.688c-.349.159-.725.317-1.153.5,0,.389-.091.488-.22.488-.169,0-.324-.28-.791-1.036l.052-.085a6.493,6.493,0,0,0,1.322-.269c.245-.073.5-.146.789-.232V54.545h-1.011l-.907.072-.156-.56,1.063.073h1.011V52.267a1.972,1.972,0,0,0-.207-1.024l.065-.073c1.308.207,1.529.28,1.529.488,0,.159-.117.219-.6.341v2.133h.3l.505-.609h.181l.765.731v.292h-1.749v2.241c.492-.17,1.076-.378,1.788-.646l.078.28c-.725.378-1.283.646-1.866.914v.793l.052,3.107c0,.914-.6,1.218-1.555,1.254-.026-.4-.181-.585-1.024-.84l.052-.293a13.677,13.677,0,0,0,1.4.135c.233,0,.285-.1.285-.317Zm6.116,3.825a48.741,48.741,0,0,0,1.127-5.178,8.475,8.475,0,0,0,.078-1.353l.091-.049c1.218.378,1.438.5,1.438.67,0,.135-.117.207-.583.28a41.7,41.7,0,0,1-1.71,5.628h1.905l.634-.755h.181l.895.877v.293h-7.153l-.907.072-.156-.56,1.063.072Zm-.414-9.174a1.957,1.957,0,0,0-.208-1.022l.065-.073c1.322.207,1.568.279,1.568.488,0,.134-.117.194-.57.316v1.864h1.736l.57-.682h.181l.83.8v.292h-6.038l-.907.073-.156-.56,1.063.072h1.866Zm-1.944,2.669a11.082,11.082,0,0,1,1.516,4.959c0,.658-.207.853-.505.853-.259,0-.414-.122-.44-.89a17.04,17.04,0,0,0-.856-4.813Z" transform="translate(20.356 9.387)" fill="#fff"/>
      <path id="Path_1683" data-name="Path 1683" d="M139.493,60.174v.585l-.129.122-.649.025.065-2.851v-3.29a3.086,3.086,0,0,0-.142-1.218l.077-.073a8.343,8.343,0,0,1,.895.475h1.153a12.187,12.187,0,0,0,.4-1.68h-1.7l-.88.073.246.231v.292h-2.592v2.754c1.542.438,2.138.962,2.138,1.365,0,.256-.117.389-.324.389-.142,0-.3-.109-.479-.353a3.56,3.56,0,0,0-1.322-1.084l.052,1.047-.129.122-.662.024.1-1.291a7.051,7.051,0,0,1-2.592,1.937l-.13-.256a8.138,8.138,0,0,0,2.67-2.559v-2.1H134.1l-.908.073-.155-.561,1.063.073h1.464v-.231a2.263,2.263,0,0,0-.13-.915l.065-.072c1.037.182,1.322.267,1.322.426,0,.1-.13.207-.583.28v.511H137.4l.53-.573h.182l.44.427-.142-.524,1.062.073h4l.57-.683h.181l.83.8v.292h-2.9a11.876,11.876,0,0,1-.921,1.68h2.333l.388-.4h.182c.453.316.725.523.725.67,0,.122-.156.194-.428.3v3.741l.065,2.29-.129.122-.662.025v-.524Zm-2.085-2.315c.673.511.7.609.7.72s-.1.182-.479.292a7.43,7.43,0,0,1-1.154,1.559c.985.768,2.333,1.012,4.483,1.012a33.693,33.693,0,0,0,4.263-.244l.013.267c-.414.1-.7.305-.738.695-1.127.062-2.1.073-2.98.073-2.76,0-4.353-.353-5.428-1.413a8.154,8.154,0,0,1-2.928,1.632l-.143-.256a8.841,8.841,0,0,0,2.669-1.827,7.628,7.628,0,0,1-.778-1.4,6.829,6.829,0,0,1-1.619,1.291l-.194-.244a6.472,6.472,0,0,0,1.736-1.986,2.566,2.566,0,0,0,.337-.84l.09-.025c.946.244,1.076.329,1.076.476,0,.11-.143.17-.557.194l-.272.4h1.4l.323-.378Zm-3.343-4.727c.841.256.985.366.985.475s-.117.2-.492.22a3.621,3.621,0,0,1-.285.6c.712.207.959.488.959.695a.316.316,0,0,1-.3.341c-.155,0-.22-.073-.349-.292a1.624,1.624,0,0,0-.453-.5,5.428,5.428,0,0,1-.856,1.036l-.233-.2a4.986,4.986,0,0,0,.8-1.6,3.113,3.113,0,0,0,.129-.742Zm1.076,5.567a5.664,5.664,0,0,0,.88,1.3,6.257,6.257,0,0,0,.869-1.353h-1.711Zm2.124-5.6c.843.256.972.366.972.475s-.116.2-.492.22a4.776,4.776,0,0,1-.311.572c.727.257,1.063.561,1.063.878a.33.33,0,0,1-.336.341c-.182,0-.246-.073-.35-.292a1.871,1.871,0,0,0-.518-.695,5,5,0,0,1-.791.89l-.233-.2a4.2,4.2,0,0,0,.751-1.413,3.99,3.99,0,0,0,.156-.743Zm3.136,1.266h-.907v5.4h.907Zm1.658,0h-.972v1.353h.972Zm-.972,3.3h.972V56.129h-.972Zm0,2.1h.972V58.078h-.972Zm2.617-5.4h-.959v5.4h.959Z" transform="translate(24.379 9.387)" fill="#fff"/>
      <path id="Path_1684" data-name="Path 1684" d="M160.459,54.591a2.138,2.138,0,0,0-.181-.975l.065-.072c1.192.146,1.438.231,1.438.4,0,.135-.129.207-.518.305v.8h1.84l.4-.364h.182c.543.389.8.56.8.707,0,.122-.064.157-.44.28v1.437l.065,1.6-.13.122-.738.024v-.316h-2.553a6.774,6.774,0,0,0,1.724,1.767,9.272,9.272,0,0,0,1.813-1.341,1.581,1.581,0,0,0,.376-.5l.09-.025c.843.549,1.012.695,1.012.853,0,.1-.078.159-.2.159a3.7,3.7,0,0,1-.544-.062,18.978,18.978,0,0,1-2.2,1.134,8.7,8.7,0,0,0,3.681,1.024l-.052.267a.923.923,0,0,0-.895.585,7.738,7.738,0,0,1-3.329-1.523,7.161,7.161,0,0,1-1.931-2.338h-1.852v2.692c.933-.11,1.878-.256,3.032-.5l.077.279a34.951,34.951,0,0,1-4.2,1.134c-.039.366-.1.475-.259.475-.194,0-.272-.109-.828-1.133l.051-.085a8.373,8.373,0,0,0,1.089-.049c.077-.013.155-.013.233-.025V55.87a2.644,2.644,0,0,0-.156-1.047,18.181,18.181,0,0,1-2.5,1.047l-.143-.256a12.6,12.6,0,0,0,5.079-3.643,1.97,1.97,0,0,0,.492-.938l.09-.049c1.128.4,1.374.561,1.374.731,0,.121-.078.182-.466.17a10.884,10.884,0,0,0,5.7,2.936l-.013.267a.842.842,0,0,0-.828.646A11.833,11.833,0,0,1,161,52.009a11,11,0,0,1-3.343,2.7,6.938,6.938,0,0,1,.83.341h1.969Zm-2.072,1.962h4.859V55.469h-4.859Zm0,1.572h4.859V56.967h-4.859Z" transform="translate(28.394 9.353)" fill="#fff"/>
      <path id="Path_1685" data-name="Path 1685" d="M178.384,54.189c0,.95-.284,1.548-.894,1.548a.45.45,0,0,1-.492-.426c0-.208.09-.305.427-.622a2.181,2.181,0,0,0,.518-1.6l.311.012a4.775,4.775,0,0,1,.116.67h3.966V52.252a1.878,1.878,0,0,0-.207-1l.064-.072c1.335.207,1.529.279,1.529.475,0,.146-.116.207-.6.317v1.8h1.062a10.726,10.726,0,0,0,.791-1.254,2.427,2.427,0,0,0,.324-.84l.09-.037c.817.329,1.18.523,1.18.658,0,.17-.117.207-.6.17a13.265,13.265,0,0,1-1.309,1.3h2.4l.479-.511h.181c.791.621.972.817.972.962,0,.17-.142.207-.7.28a9,9,0,0,1-1.244,1.157l-.246-.182a6.84,6.84,0,0,0,.662-1.292Zm6.3,1.085.4-.464h.181c.712.512.856.609.856.755,0,.11-.117.2-.467.305v1.072l.078,1.5-.129.122-.778.025v-.5h-1.671V59.6h2.656l.569-.682h.182l.828.8v.292h-4.236v1.694h3.692l.634-.755h.181l.895.877v.292h-10.43l-.908.073-.155-.561,1.063.073h4.224V60.013h-2.89l-.907.073-.155-.56,1.062.072h2.89v-1.51h-1.7V58.5l-.129.122-.764.024.078-1.572V56.03a3.505,3.505,0,0,0-.181-1.206l.077-.073a10.329,10.329,0,0,1,1.063.524Zm-5.273-3.631c1.115.463,1.646,1.059,1.646,1.462s-.246.511-.479.511c-.2,0-.337-.1-.453-.45a2.67,2.67,0,0,0-.908-1.292Zm1.244,6.031h4.172V55.689h-4.172Z" transform="translate(32.469 9.389)" fill="#fff"/>
      <rect id="Rectangle_98" data-name="Rectangle 98" width="33.248" height="0.49" transform="translate(95.162 64.809)" fill="#fff"/>
      <rect id="Rectangle_99" data-name="Rectangle 99" width="33.248" height="0.49" transform="translate(223.81 64.809)" fill="#fff"/>
      <path id="Path_1686" data-name="Path 1686" d="M111.032,71.405l.9-6.673h.1l2.56,5.476,2.534-5.476h.1l.907,6.673h-.618l-.622-4.773-2.226,4.773h-.161L112.258,66.6l-.619,4.808Z" transform="translate(20.368 11.875)" fill="#fff"/>
      <path id="Path_1687" data-name="Path 1687" d="M118.265,64.732h.643v2.5l2.516-2.5h.846l-3.025,2.994,3.26,3.679h-.839L118.908,68.3v3.108h-.643Z" transform="translate(21.695 11.875)" fill="#fff"/>
      <path id="Path_1688" data-name="Path 1688" d="M122.827,64.732h.643v2.5l2.516-2.5h.846l-3.025,2.994,3.26,3.679h-.839L123.47,68.3v3.108h-.643Z" transform="translate(22.532 11.875)" fill="#fff"/>
      <path id="Path_1689" data-name="Path 1689" d="M129.654,64.732h1.253a7.182,7.182,0,0,1,1.421.091,1.606,1.606,0,0,1,.911.583,1.728,1.728,0,0,1,.351,1.1,1.867,1.867,0,0,1-.241.959,1.546,1.546,0,0,1-.691.624,3.028,3.028,0,0,1-1.241.217l2.264,3.1H132.9l-2.264-3.1h-.356v3.1h-.628Zm.628.653v2.269l1.085.008a2.554,2.554,0,0,0,.933-.127.988.988,0,0,0,.472-.406,1.193,1.193,0,0,0,.168-.624,1.137,1.137,0,0,0-.17-.611.966.966,0,0,0-.451-.392,2.577,2.577,0,0,0-.927-.118Z" transform="translate(23.784 11.875)" fill="#fff"/>
      <path id="Path_1690" data-name="Path 1690" d="M136.964,64.732l2.937,6.673h-.679l-.991-2.2h-2.712l-.981,2.2h-.7l2.975-6.673Zm-.079,1.418-1.078,2.415h2.151Z" transform="translate(24.551 11.875)" fill="#fff"/>
      <path id="Path_1691" data-name="Path 1691" d="M139.728,71.405l.9-6.673h.1l2.56,5.476,2.534-5.476h.1l.907,6.673h-.618l-.622-4.773-2.226,4.773h-.161L140.954,66.6l-.619,4.808Z" transform="translate(25.632 11.875)" fill="#fff"/>
      <path id="Path_1692" data-name="Path 1692" d="M146.967,64.732h3.608v.653h-2.98v2.091h2.954v.654h-2.954v2.621h2.954v.653h-3.582Z" transform="translate(26.96 11.875)" fill="#fff"/>
      <path id="Path_1693" data-name="Path 1693" d="M151.123,71.405V64.732h.136l4.191,5.116V64.732h.621v6.673h-.141l-4.156-5.053v5.053Z" transform="translate(27.722 11.875)" fill="#fff"/>
      <path id="Path_1694" data-name="Path 1694" d="M160.706,70.189l.535-.341q.566,1.1,1.307,1.1a1.2,1.2,0,0,0,.6-.156,1.084,1.084,0,0,0,.422-.42,1.133,1.133,0,0,0,.146-.557,1.172,1.172,0,0,0-.214-.658,5.223,5.223,0,0,0-1.078-1.071,5.653,5.653,0,0,1-.98-.911,1.735,1.735,0,0,1-.334-1.021,1.622,1.622,0,0,1,.2-.794,1.438,1.438,0,0,1,.555-.564,1.527,1.527,0,0,1,.776-.206,1.576,1.576,0,0,1,.832.233,2.932,2.932,0,0,1,.819.859l-.512.413a2.558,2.558,0,0,0-.606-.658,1,1,0,0,0-.546-.159.835.835,0,0,0-.622.245.822.822,0,0,0-.241.6,1.06,1.06,0,0,0,.085.421,1.523,1.523,0,0,0,.312.445c.083.085.353.308.813.667a4.688,4.688,0,0,1,1.121,1.138,1.916,1.916,0,0,1,.3,1,1.751,1.751,0,0,1-.52,1.262,1.7,1.7,0,0,1-1.265.535,1.773,1.773,0,0,1-1.039-.324,2.936,2.936,0,0,1-.862-1.086" transform="translate(29.48 11.849)" fill="#fff"/>
      <path id="Path_1695" data-name="Path 1695" d="M164.6,65.385v-.653h3.451v.653h-1.4v6.02h-.641v-6.02Z" transform="translate(30.195 11.875)" fill="#fff"/>
      <path id="Path_1696" data-name="Path 1696" d="M168.487,64.732h.628V68.76c0,.478.009.776.026.895a1.55,1.55,0,0,0,.218.659,1.3,1.3,0,0,0,.528.445,1.569,1.569,0,0,0,.714.179,1.378,1.378,0,0,0,1.079-.53,1.637,1.637,0,0,0,.283-.6,5.309,5.309,0,0,0,.064-1.044V64.732h.628V68.76a5.171,5.171,0,0,1-.165,1.445,1.967,1.967,0,0,1-.659.96,1.816,1.816,0,0,1-1.2.408,2.2,2.2,0,0,1-1.305-.386,1.843,1.843,0,0,1-.727-1.02,5.665,5.665,0,0,1-.116-1.407Z" transform="translate(30.908 11.875)" fill="#fff"/>
      <path id="Path_1697" data-name="Path 1697" d="M173.5,71.405V64.732h1.307a6.287,6.287,0,0,1,2.05.24,2.774,2.774,0,0,1,1.432,1.18,3.748,3.748,0,0,1,.516,2,3.678,3.678,0,0,1-.409,1.765,2.7,2.7,0,0,1-1.062,1.125,3.8,3.8,0,0,1-1.828.363Zm.6-.631h.728a6.426,6.426,0,0,0,1.812-.173,2.1,2.1,0,0,0,1.116-.882,2.836,2.836,0,0,0,.407-1.557,2.988,2.988,0,0,0-.44-1.65,2.243,2.243,0,0,0-1.23-.938,7.09,7.09,0,0,0-1.947-.189h-.446Z" transform="translate(31.828 11.875)" fill="#fff"/>
      <rect id="Rectangle_100" data-name="Rectangle 100" width="0.628" height="6.673" transform="translate(211.985 76.607)" fill="#fff"/>
      <path id="Path_1698" data-name="Path 1698" d="M184.1,64.59A3.171,3.171,0,0,1,186.5,65.6a3.7,3.7,0,0,1,0,4.976,3.1,3.1,0,0,1-2.344,1.021,3.135,3.135,0,0,1-2.366-1.017,3.447,3.447,0,0,1-.963-2.459,3.725,3.725,0,0,1,.439-1.782,3.306,3.306,0,0,1,1.2-1.286,3.081,3.081,0,0,1,1.641-.465m.027.649a2.487,2.487,0,0,0-1.325.386,2.689,2.689,0,0,0-.976,1.04,3.016,3.016,0,0,0-.353,1.458,2.811,2.811,0,0,0,.779,2.008,2.494,2.494,0,0,0,1.876.82,2.577,2.577,0,0,0,1.356-.378,2.634,2.634,0,0,0,.974-1.031,3.041,3.041,0,0,0,.349-1.452,2.971,2.971,0,0,0-.349-1.438,2.71,2.71,0,0,0-.985-1.028,2.555,2.555,0,0,0-1.346-.386" transform="translate(33.171 11.849)" fill="#fff"/>
      <path id="Path_1699" data-name="Path 1699" d="M73.2,37.179A36.6,36.6,0,1,1,36.6.58a36.6,36.6,0,0,1,36.6,36.6" transform="translate(0 0.107)" fill="#fff"/>
      <path id="Path_1700" data-name="Path 1700" d="M22.978,37.048c-.259-.505-.549-1-.837-1.484a.468.468,0,0,0-.62-.228.46.46,0,0,0-.3.583c.014.057.032.114.051.169a1.877,1.877,0,0,0,.089.213l.2.4c.178.355.356.708.534,1.062a14.457,14.457,0,0,0,3.231,4.168c.445.328.85.612,1.238.916l.04.032a10.852,10.852,0,0,0,3.7,1.6.431.431,0,0,0,.367-.273.448.448,0,0,0-.131-.617,2.528,2.528,0,0,0-.556-.288,13.046,13.046,0,0,1-3-1.456,13.286,13.286,0,0,1-4.007-4.8" transform="translate(3.89 6.475)" fill="#032344"/>
      <path id="Path_1701" data-name="Path 1701" d="M28.951,33.627a.547.547,0,0,0,.328-.3.779.779,0,0,0,0-.441.474.474,0,0,0-.109-.244l-.022-.019a.516.516,0,0,0-.107-.058,6.161,6.161,0,0,0-1.256-.249l-.723-.147a3.947,3.947,0,0,0-.888-.163.847.847,0,0,0-.43.128c-.091.056-.3.15-.317.265-.022.144.3.25.4.3l.425.2c.361.172.722.343,1.091.495a2.251,2.251,0,0,0,1.607.227" transform="translate(4.663 5.872)" fill="#032344"/>
      <path id="Path_1702" data-name="Path 1702" d="M37.531,31.158c.025-.28-.267-.363-.485-.372a4.852,4.852,0,0,0-3.456,1.4,1.355,1.355,0,0,0-.275.324.642.642,0,0,0-.011.559,1.041,1.041,0,0,0,1.975-.3c.012-.011.028-.019.039-.031.067-.07.137-.137.208-.2.038-.035.076-.07.115-.1l.019-.018.041-.033a5.078,5.078,0,0,1,.486-.351l.058-.037.02-.012.031-.018.075-.043c.085-.046.172-.091.259-.133l.062-.03c.013-.006.078-.034.022-.011l.032-.013.064-.026c.095-.039.192-.075.289-.107.063-.021.275-.117.323-.219a.383.383,0,0,0,.108-.227" transform="translate(6.099 5.647)" fill="#032344"/>
      <path id="Path_1703" data-name="Path 1703" d="M36.191,33.7a.792.792,0,0,0-.8.8.8.8,0,0,0,.8.8.794.794,0,0,0,.8-.8.785.785,0,0,0-.8-.8" transform="translate(6.492 6.182)" fill="#032344"/>
      <path id="Path_1704" data-name="Path 1704" d="M25.96,35.169a.79.79,0,0,0,.773.8.777.777,0,0,0,.785-.808.789.789,0,0,0-.781-.786.807.807,0,0,0-.776.8" transform="translate(4.762 6.306)" fill="#032344"/>
      <path id="Path_1705" data-name="Path 1705" d="M65.383,45.87c-.143-1.522-.986-2.168-2.144-3.024a40.2,40.2,0,0,0-5.391-3.309c-1.737-.9-3.475-1.882-5.237-2.759.076,0,.151-.008.23-.006a1.94,1.94,0,0,0,1.3-.75,2.176,2.176,0,0,1,.8-.838.757.757,0,0,0,.282-.293l.015-.025a3.43,3.43,0,0,0,.585-1.888.6.6,0,0,1,.052-.263.233.233,0,0,1,.051-.072,4.183,4.183,0,0,0,.608-.689,5.359,5.359,0,0,0,.869-2.512,5.491,5.491,0,0,0-1.911-5.071.364.364,0,0,1-.129-.4,5.431,5.431,0,0,0-.761-4.084,2.52,2.52,0,0,1-.413-.895A4.176,4.176,0,0,0,52.3,16.28a1.027,1.027,0,0,1-.29-.311,4.538,4.538,0,0,0-1.374-1.528c-.5-.316-1.072-.508-1.6-.776a.8.8,0,0,1-.363-.351A2.694,2.694,0,0,0,47.446,11.9a1.511,1.511,0,0,1-.678-.7,2.464,2.464,0,0,0-.483-.723,4.61,4.61,0,0,0-2.478-1.24.572.572,0,0,1-.29-.144c-.353-.342-.676-.715-1.043-1.039a2.642,2.642,0,0,0-1.521-.658,2.076,2.076,0,0,1-1.147-.249,4.442,4.442,0,0,0-.781-.458,2.564,2.564,0,0,0-2.272.011.593.593,0,0,1-.573-.007,2.621,2.621,0,0,0-2.4-.214,4.569,4.569,0,0,1-1.844.62,3.8,3.8,0,0,0-2.117.938.442.442,0,0,1-.3.114,2.467,2.467,0,0,0-2.447.787,1.317,1.317,0,0,1-1.233.5A1.242,1.242,0,0,0,25.4,9.5a5.1,5.1,0,0,0-3.552,2.14,1.824,1.824,0,0,1-.659.621c-.444.241-.951.366-1.4.606A3.23,3.23,0,0,0,18.638,13.9a3.66,3.66,0,0,0-.57,1.431,1.162,1.162,0,0,1-.166.469.6.6,0,0,1-.129.127,4.5,4.5,0,0,0-1.085,1.157q-.149.222-.277.46a4.894,4.894,0,0,0-.556,2.7.393.393,0,0,1-.036.219.442.442,0,0,1-.169.142,2.547,2.547,0,0,0-.684.489,6.458,6.458,0,0,0-.766,1,4.123,4.123,0,0,0-.449,3.5.821.821,0,0,1-.1.578,5.131,5.131,0,0,0-.685,2.2,9.9,9.9,0,0,0,.237,2.936,4.216,4.216,0,0,0,2.753,3.266c.107.04.179.227.221.361a6.573,6.573,0,0,0,.327,1.1c.174.324.374.634.581.944a2.528,2.528,0,0,0,.333.5,3.448,3.448,0,0,0,.389.394c-1.656.869-3.372,1.619-5.038,2.473a25.547,25.547,0,0,0-4.921,2.785c-2.415,2.076-2.643,5.858-1.557,8.728.245.651,1.3.369,1.05-.29a13.621,13.621,0,0,1-.507-4.067c-.117-2.265,1.671-3.662,3.478-4.591,2.857-1.467,5.831-2.82,8.631-4.406.021,0,.036-.009.04-.024A8.282,8.282,0,0,0,20.941,39c.221.028.445.047.672.054a.431.431,0,0,1,.122.02,9.474,9.474,0,0,0,2.671-.251,5.154,5.154,0,0,0,1.914-1.277l.03-.032c.083-.091.161-.188.238-.288.052-.069.1-.14.151-.212s.085-.123.125-.188a5.343,5.343,0,0,0,.284-.515,5.463,5.463,0,0,0,.283-.565.622.622,0,0,1,.077-.154.532.532,0,0,1,.484-.167,3.685,3.685,0,0,0,1.067-.063,4.173,4.173,0,0,0,2.182-1.368c.084-.1.161-.209.236-.321.022-.036.043-.072.065-.108.052-.084.1-.169.149-.26.007-.014.017-.027.024-.041l.064.009a4.986,4.986,0,0,0,3.431.657c.118-.017.24-.037.361-.06a2.642,2.642,0,0,0,.965-.27,4.557,4.557,0,0,0,1.138-.611,3.406,3.406,0,0,0,.612.02c.047,0,.095-.009.142-.014a2.931,2.931,0,0,0,1.492-.305,4.067,4.067,0,0,0,.426-.053,3.891,3.891,0,0,0,2.647,1.215.417.417,0,0,1,.428.366,4.394,4.394,0,0,0,1.543,2.3,2.438,2.438,0,0,0,1.6.587c.29,0,.372.114.431.361a1.84,1.84,0,0,0,.479,1.076c.049.044.09.083.125.12.105.077.215.149.327.219-.192.444-.381.889-.549,1.342a14.878,14.878,0,0,1-3.727,5.819,13.5,13.5,0,0,1-3.017,1.942,2.666,2.666,0,0,0-.557.38.528.528,0,0,0-.072.709.458.458,0,0,0,.418.271,11.108,11.108,0,0,0,3.738-2.178l.04-.04c.379-.382.775-.743,1.211-1.157a16.246,16.246,0,0,0,2.973-5.025q.225-.625.452-1.25c.07-.209.125-.38.169-.511.095-.114.191-.227.288-.338.191-.215.378-.449.586-.651h0a3.545,3.545,0,0,1,1.138-.969c1.4.67,2.709,1.517,4.1,2.221,1.594.809,3.178,1.551,4.708,2.485,1.4.856,3.875,1.891,4.408,3.566.546,1.714,0,4.335-.363,6.021a.545.545,0,0,0,1.051.29c.03-.091.06-.182.09-.273a.51.51,0,0,0,.019-.272,19.282,19.282,0,0,0,.359-5.386" transform="translate(1.04 1.149)" fill="#032344"/>
      <path id="Path_1706" data-name="Path 1706" d="M45.031,48.293A1.12,1.12,0,0,0,44.5,47.08a5.874,5.874,0,0,0-2.155-1.021,10.364,10.364,0,0,0-1.4-.215.438.438,0,0,0-.485.438c-.032.311.181.394.417.457.5.134,1,.243,1.494.406a10.866,10.866,0,0,1,1.33.553c.256.124.266.3.044.459a4.009,4.009,0,0,1-.989.6c-.948.312-1.918.556-2.879.832-.211.059-.31-.022-.3-.225a10.32,10.32,0,0,1,.11-1.473,4.787,4.787,0,0,0-.375-3.194c-.207-.412-.394-.834-.578-1.257a2.184,2.184,0,0,1,.466-2.175,2.164,2.164,0,0,0,.422-.583,1.172,1.172,0,0,0-.295-1.432,1.237,1.237,0,0,0-1.495-.148.61.61,0,0,0-.316.772c.12.252.363.321.737.225a4.876,4.876,0,0,1,.514-.072,1.233,1.233,0,0,1-.872.891,4.174,4.174,0,0,1-1.94.125c-.78-.091-1.527-.241-1.877-1.1a.45.45,0,0,0-.688-.122.5.5,0,0,0-.138.7c.181.305.419.578.614.875a.44.44,0,0,1,.07.322,3.927,3.927,0,0,0,.308,3.169c.226.426.489.834.71,1.264a1.751,1.751,0,0,1,.025,1.638c-.176.363-.327.74-.495,1.123l-4.239-3.1c.488-.388.559-.563.4-.96-.251-.634-.479-.788-1.078-.742a9.313,9.313,0,0,1-1.009.049A.978.978,0,0,1,28.041,44c-.562-.409-1.108-.843-1.654-1.272s-1.065-.862-1.611-1.276a.514.514,0,0,0-.88.283.63.63,0,0,0,.324.606q1.106.868,2.211,1.738c.07.054.133.118.2.178l-.04.083a3.056,3.056,0,0,1-.632-.226c-.756-.479-1.5-.985-2.243-1.478-.308-.2-.612-.413-.929-.6a.489.489,0,0,0-.678.111.524.524,0,0,0,.073.714,2.394,2.394,0,0,0,.333.239c.3.2.6.4.905.594a4.117,4.117,0,0,1-.831-.015.722.722,0,0,0-.854.534c-.142.4-.271.8-.394,1.2a.9.9,0,0,1-.5.578l-.356.178a.539.539,0,0,0-.353-.381c-.992-.355-1.882-.8-2.894-.277a3.035,3.035,0,0,0-1.025,1,.539.539,0,0,0-.221-.045,7.7,7.7,0,0,0-2.9.478c-1.314.505-2.174,1.367-3.695,1.247-.7-.056-.7,1.034,0,1.089a4.9,4.9,0,0,0,2.691-.516,7.11,7.11,0,0,1,3.475-1.2c-.147.247-.288.482-.431.68-.412.572.534,1.115.941.549.482-.67.878-1.4,1.407-2.034.559-.67,1.3-.357,1.982-.076-.122.063-.245.124-.366.188a.653.653,0,0,0-.337.362,4.09,4.09,0,0,0-1.129,2.623c-.291,2.149-.038,4.32-.374,6.478-.108.688.942.982,1.051.29A29.11,29.11,0,0,0,18.625,52c0-1.311-.18-3.383,1.123-4.168a.523.523,0,0,0,.224-.251c.517-.251,1.033-.5,1.544-.767a1.336,1.336,0,0,0,.776-.936,9.118,9.118,0,0,1,.277-.9c.053-.17.13-.264.343-.212.264.066.542.075.811.128a12.327,12.327,0,0,0,4.039.394c.11-.014.233.071.433.137-.2.1-.3.15-.4.2-.742.327-1.482.66-2.23.974a.917.917,0,0,0-.566.633.8.8,0,0,0,.116.541.383.383,0,0,0,.536.1c.331-.162.66-.328.993-.488.116-.056.238-.1.394-.163-.463,1.5-.9,2.947-1.362,4.387a.748.748,0,0,1-.309.359c-.257.163-.555.262-.806.432a1.449,1.449,0,0,1-1.818.013.9.9,0,0,0-1.044.02c-.691.425-1.392.833-2.077,1.267a1.31,1.31,0,0,0-.465.459.625.625,0,0,0,.039.51c.05.09.266.133.4.121a1.125,1.125,0,0,0,.436-.173c.466-.267.924-.547,1.388-.817.851-.5.857-.5,1.717,0a.881.881,0,0,0,.974,0c.586-.329,1.189-.633,1.8-.9a1.161,1.161,0,0,0,.735-.872L26.9,51.2c.114-.379.247-.819.355-1.174.08-.263.146-.476.178-.579l.151-.488c.191-.614.387-1.246.6-1.917.529.331,1.018.628,1.5.942,1.16.761,2.314,1.53,3.471,2.3.078.051.16.1.239.144,0,.027-.008.054-.013.082-.067.013-.135.027-.2.037l-1.682-.12-.022,0a10.847,10.847,0,0,1-2.355-.318,4.091,4.091,0,0,1,.551-.723c.484-.51-.286-1.282-.77-.77a4.942,4.942,0,0,0-1.259,2.359,2.629,2.629,0,0,0,.3,1.775,6.762,6.762,0,0,0,.517,1.245c.183.351.353.684.514,1.009a5.849,5.849,0,0,0,2.611,1.935c.267.1.529.208.8.308a.524.524,0,0,1,.372.46c.07.51.179,1.015.237,1.527a1.437,1.437,0,0,0,.9,1.231c.1.043.187.1.284.137a7.9,7.9,0,0,0,4.127.478,4.83,4.83,0,0,0,1.037-.238,4.1,4.1,0,0,0,1.464-.879c.083-.077.165-.155.243-.24a1.531,1.531,0,0,0,.426-1.15c-.02-.432-.021-.865-.059-1.3a.459.459,0,0,1,.32-.525,5.133,5.133,0,0,0,2.437-2.477,9.765,9.765,0,0,0,.924-4.973,4.065,4.065,0,0,1-.052-1m-7.883-6.155c.146-.013.292-.019.464-.03a2.713,2.713,0,0,0-.077.863,9.829,9.829,0,0,0,.535,1.5,5.6,5.6,0,0,1,.7,1.776,5.071,5.071,0,0,1-.018,1.064,7.053,7.053,0,0,0-.109,2.524c-.331.069-.609.12-.885.186-.217.053-.31-.031-.275-.239a8.3,8.3,0,0,1,.266-1.354,4.541,4.541,0,0,0-.386-3.71c-.143-.28-.333-.54-.457-.827a5.1,5.1,0,0,1-.349-1.03c-.082-.419.162-.68.593-.722M34.9,43.784a4.109,4.109,0,0,1-.122-1.367c.009-.446.244-.524.853-.314a3.07,3.07,0,0,0,.533,2.6,4.859,4.859,0,0,1,.78,2.041,1.992,1.992,0,0,1-.051.843,6.74,6.74,0,0,0-.409,2.69c-.179-.058-.342-.064-.433-.148a1.283,1.283,0,0,1-.266-1.634,2.959,2.959,0,0,0-.12-3.243,7.6,7.6,0,0,1-.765-1.472M38.12,60.036a7.425,7.425,0,0,1-3.279-.3c-.089-.031-.181-.058-.267-.1a.789.789,0,0,1-.592-.723,8.214,8.214,0,0,0-.188-1.076,26.839,26.839,0,0,0,3.286.245,27.088,27.088,0,0,0,3.264-.516c.017.334.058.711.044,1.086a.763.763,0,0,1-.218.434,3.178,3.178,0,0,1-2.05.944" transform="translate(1.627 7.139)" fill="#032344"/>
    </g>
  </g>
</svg>
