<svg id="Group_333" data-name="Group 333" xmlns="http://www.w3.org/2000/svg" xmlns:xlink="http://www.w3.org/1999/xlink" width="124.193" height="122.916" viewBox="0 0 124.193 122.916">
  <defs>
    <clipPath id="clip-path">
      <rect id="Rectangle_62" data-name="Rectangle 62" width="124.193" height="122.916" fill="none"/>
    </clipPath>
  </defs>
  <path id="Path_1387" data-name="Path 1387" d="M62.416,88.933l7.348-1.583-.277-3.874-11.058-7.5-4.4-10.2-2.364-1.408L50.516,59.3l1.387-6,25.311-9.516L100.388,54.63l8.232,8.653L105.5,71.668l-3.33,1.685L99.659,74.6l-9.9,8.612-3.381,1.1.545,3.977,2.045.2L96.4,91.1l-8.026,19.669L64.41,107.5Z" transform="translate(1.397 1.211)" fill="#fff"/>
  <g id="Group_332" data-name="Group 332">
    <g id="Group_331" data-name="Group 331" clip-path="url(#clip-path)">
      <path id="Path_1388" data-name="Path 1388" d="M53.927,89.628s-3.823,1.8-4.614,4.779L42.859,97.86a11.861,11.861,0,0,0-7.892,2.559c-4.07,3.032-3.3,9.105-3.3,9.105s3.093,7.307,9.023,6.834S52.447,111.2,52.447,111.2l14.572-10.009L53.927,89.638Z" transform="translate(0.874 2.479)" fill="#0f2c51"/>
      <path id="Path_1389" data-name="Path 1389" d="M10.886,93.373s1.8,2.076,6.865,4.922,12.322,9.989,14.439,12.239,12.013,6.413,12.147.9S40.349,101.1,39.7,101.194s-18.056-9.506-18.056-9.506l-10.76,1.685" transform="translate(0.301 2.536)" fill="#fff"/>
      <path id="Path_1390" data-name="Path 1390" d="M41.171,115a16.648,16.648,0,0,1-9.516-3.885c-2.631-2.816-9.588-9.475-14.243-12.085-5.128-2.877-7-5-7.081-5.1l-.945-1.089,12.455-1.953.236.134c6.258,3.453,16.494,8.992,17.748,9.4a1.776,1.776,0,0,1,1.007.524,15.485,15.485,0,0,1,4.347,10.533,3.224,3.224,0,0,1-2.107,3.206,5.35,5.35,0,0,1-1.9.308M12.685,93.94a36.489,36.489,0,0,0,5.508,3.689c5.21,2.929,12.486,10.1,14.624,12.383,1.49,1.593,7.224,4.121,9.691,3.175a1.652,1.652,0,0,0,1.079-1.747,13.659,13.659,0,0,0-3.967-9.434c-.524-.092-2.086-.8-9.506-4.8-3.8-2.045-7.584-4.121-8.55-4.655L12.7,93.94Z" transform="translate(0.26 2.514)" fill="#0f2c51"/>
      <path id="Path_1391" data-name="Path 1391" d="M98.794,90.818s-4.439,4.028-5.272,6.988c0,0-5.919.678-6.341,5.025,0,0-5.652-2.734-10.349.051s-3.443,11.571-3.443,11.571-1.182,6,5.775,5.95,17.326-9.475,17.326-9.475l5.683-6.043s2.939-4.039,2.148-7.1a15.609,15.609,0,0,0-3.247-5.693l-2.292-1.285Z" transform="translate(2.026 2.511)" fill="#0f2c51"/>
      <path id="Path_1392" data-name="Path 1392" d="M45.772,106.329l-.442-5.5s-.771-4.686,1.12-7.348a6.282,6.282,0,0,1,4.3-2.394l3.4-.76,1.428,16.514-9.794-.5Z" transform="translate(1.249 2.498)" fill="#0f2c51"/>
      <path id="Path_1393" data-name="Path 1393" d="M72.156,56.953a1.36,1.36,0,0,0,.853-.668,1.994,1.994,0,0,0,.082-1.1,1.234,1.234,0,0,0-.206-.637.124.124,0,0,0-.051-.051.892.892,0,0,0-.236-.164,14.8,14.8,0,0,0-2.949-.894l-1.7-.524a8.786,8.786,0,0,0-2.086-.6,2,2,0,0,0-1.058.226c-.226.123-.75.308-.822.6-.082.36.658.689.9.843.329.2.647.4.976.6.822.5,1.655,1.017,2.5,1.47,1.13.617,2.477,1.305,3.792.915Z" transform="translate(1.769 1.447)" fill="#0f2c51"/>
      <path id="Path_1394" data-name="Path 1394" d="M89.76,54.775c.257-.123,1.028-.4.976-.76-.041-.288-.545-.524-.76-.658a1.957,1.957,0,0,0-1.038-.319,8.871,8.871,0,0,0-2.127.421c-.575.123-1.161.247-1.737.38a13.663,13.663,0,0,0-3.011.637,1.264,1.264,0,0,0-.257.144.124.124,0,0,0-.051.051,1.151,1.151,0,0,0-.257.617,2.036,2.036,0,0,0,0,1.11,1.338,1.338,0,0,0,.791.74c1.274.493,2.682-.072,3.864-.586.884-.38,1.757-.822,2.621-1.254.339-.175.678-.339,1.017-.514Z" transform="translate(2.252 1.467)" fill="#0f2c51"/>
      <path id="Path_1395" data-name="Path 1395" d="M47.415,54.227,45.247,52.48a6.836,6.836,0,0,1-.637-.987,5.269,5.269,0,0,1-.483-1.182,15,15,0,0,1-.339-1.8,3.436,3.436,0,0,1-.884-.082c-1.531-.277-4.8-4.419-4.337-8.026.277-2.168,1.49-1.634,1.254-3.6s.5-1.593,1.593-2.9a1.878,1.878,0,0,0,.432-1.2,9.328,9.328,0,0,1,2.3-7.307,14.077,14.077,0,0,1,1.963-1.85,5.347,5.347,0,0,1,1.593-.781.884.884,0,0,0,.4-.236,1.016,1.016,0,0,0,.164-.452c.247-2.055-1.911-3.247-.647-4.871a10.174,10.174,0,0,1,.75-.874,9.752,9.752,0,0,1,2.682-2.066,1.444,1.444,0,0,0,.319-.216,2.69,2.69,0,0,0,.524-.935,8.138,8.138,0,0,1,1.737-2.836,6.781,6.781,0,0,1,2.775-1.768c1.007-.349,2.1-.421,3.1-.76A3.827,3.827,0,0,0,61.1,6.678c2.2-2.538,5.087-3.062,8.108-3.227a2.224,2.224,0,0,1,.9.041,2.674,2.674,0,0,0,2.723-.606,5.007,5.007,0,0,1,5.323-.75.944.944,0,0,0,.668-.123A7.8,7.8,0,0,1,83.537.81,9.334,9.334,0,0,0,87.556.183c1.86-.575,3.4.3,4.83,1.367a1.209,1.209,0,0,0,1.172.236,5.121,5.121,0,0,1,4.655.843A9.815,9.815,0,0,1,99.631,3.9a4.207,4.207,0,0,0,2.251.966,5.337,5.337,0,0,1,2.847,1.983c.617.832,1.13,1.757,1.716,2.61a1.256,1.256,0,0,0,.534.421,9.422,9.422,0,0,1,4.573,3.587,5.307,5.307,0,0,1,.7,1.726,3.274,3.274,0,0,0,1.11,1.768,5.8,5.8,0,0,1,1.953,3.484,1.7,1.7,0,0,0,.606.884c.976.771-1.665-2.949-.781-2.086a9.8,9.8,0,0,1,2.209,3.792,2.2,2.2,0,0,0,.473.771c1.747,1.778,1.4.966,1.408,3.535,0,.781,1.428,2.3,1.685,2.97,1.151,2.99,1.346,3.782.206,6.793a.822.822,0,0,0,.1.915,10.762,10.762,0,0,1,1.768,7.872s.3,4.789-1.058,6.166A9.1,9.1,0,0,1,120.41,53.3a.549.549,0,0,0-.134.134,1.358,1.358,0,0,0-.206.545,7.694,7.694,0,0,1-1.942,3.813.224.224,0,0,0-.041.051,1.649,1.649,0,0,1-.689.524c-.853.236-1.089,2.107-1.685,2.713a4,4,0,0,1-2.949,1.11c-.164-.031-.319-.051-.473-.072-1.685-.113-1.726,1.182-1.726,1.182s.442,2.569-2.713,1.644h0c-.5.349-.442.7-1.459,1.172s-2.888-.565-2.888-.565l-.288-.216c-.2-.185-.031-.051-.216-.257a2.38,2.38,0,0,0-.216-.3c-.555-.75-.483-.462-.514-1.315-.021-.545-.144-.832-.74-.935a4.9,4.9,0,0,1-3.042-1.86,9.572,9.572,0,0,1-2.251-5.488.884.884,0,0,0-.73-.945,7.936,7.936,0,0,1-4.933-3.6,8.692,8.692,0,0,1-.894-.051,5.863,5.863,0,0,1-3.175.092,2.9,2.9,0,0,1-.3-.021,6.4,6.4,0,0,1-1.243-.277,9.257,9.257,0,0,1-2.569.874,5.481,5.481,0,0,1-2.086.216h-.76a10.01,10.01,0,0,1-6.762-2.7c-.041-.01-.082-.031-.123-.041-.021.031-.041.051-.062.082-.134.175-.267.339-.411.5l-.175.206a8.26,8.26,0,0,1-.606.6,8.66,8.66,0,0,1-5,2.1,7.4,7.4,0,0,1-2.209-.267,1.1,1.1,0,0,0-1.058.175,1.868,1.868,0,0,0-.216.3c-.216.4-.545.719-.8,1.1-.247.36-.514.678-.781,1-.1.123-.216.236-.329.349-.134.134-.257.267-.391.391-.2.185-.391.36-.6.524-.021.021-.051.041-.072.062a10.685,10.685,0,0,1-4.419,2c-2.107.123-1.1-.771-2.713-1.161a.772.772,0,0,0-.247-.092q-.694-.154-1.357-.37a16.7,16.7,0,0,1-3.792-1.87.078.078,0,0,1-.092.031" transform="translate(1.065 0)" fill="#0f2c51"/>
      <path id="Path_1396" data-name="Path 1396" d="M79.255,85.9a26.306,26.306,0,0,1-21.7-9.824c-5.94-7.337-4.532-21.5-4.47-22.095a1.038,1.038,0,1,1,2.066.216c-.01.134-1.377,13.9,4.018,20.574a24.24,24.24,0,0,0,20.029,9.043,28.311,28.311,0,0,0,11.633-3.062C99.336,76.489,102.183,65.082,103,60.375c.062-.37.236-1.346,1.213-1.233s.935,1.089.915,1.459a.983.983,0,0,1-.144.483c-1.151,6.289-4.378,17.1-13.226,21.529A30.391,30.391,0,0,1,79.255,85.9" transform="translate(1.463 1.467)" fill="#0f2c51"/>
      <path id="Path_1397" data-name="Path 1397" d="M72.406,61.261a.489.489,0,0,1-.391-.092c-4.553-3.134-8.242-.483-8.4-.36a.558.558,0,1,1-.668-.894,8.446,8.446,0,0,1,9.7.339.561.561,0,0,1-.236,1.017Z" transform="translate(1.735 1.619)" fill="#102b50"/>
      <path id="Path_1398" data-name="Path 1398" d="M67.868,60.248a1.942,1.942,0,1,1-1.942,1.942,1.942,1.942,0,0,1,1.942-1.942" transform="translate(1.823 1.666)" fill="#102b50"/>
      <path id="Path_1399" data-name="Path 1399" d="M91.476,61.694a.607.607,0,0,1-.391-.1,7.324,7.324,0,0,0-8.386-.534.559.559,0,1,1-.658-.9,8.444,8.444,0,0,1,9.691.534.56.56,0,0,1,.123.781.519.519,0,0,1-.391.226Z" transform="translate(2.263 1.628)" fill="#102b50"/>
      <path id="Path_1400" data-name="Path 1400" d="M86.468,60.788a1.942,1.942,0,1,1-1.942,1.942,1.942,1.942,0,0,1,1.942-1.942" transform="translate(2.338 1.681)" fill="#102b50"/>
      <path id="Path_1401" data-name="Path 1401" d="M83.349,74.108a8.2,8.2,0,0,1-3.658-.987H79.67c-.031-.021-3.309-1.86-6.31-.247a4.475,4.475,0,0,1-6-1.243.563.563,0,0,1,.154-.781.556.556,0,0,1,.771.144,3.378,3.378,0,0,0,4.542.894c3.5-1.891,7.122.1,7.389.257.164.092,4.08,2.086,5.416-.38a.561.561,0,1,1,.987.534,3.489,3.489,0,0,1-3.278,1.809Z" transform="translate(1.86 1.957)" fill="#0f2c51"/>
      <path id="Path_1402" data-name="Path 1402" d="M69.757,89.5a.977.977,0,0,1-.781-1.079l.113-4.707a1.014,1.014,0,0,1,.884-1.079.95.95,0,0,1,.822,1.079l-.113,4.707A1.014,1.014,0,0,1,69.8,89.5Z" transform="translate(1.908 2.286)" fill="#0f2c51"/>
      <path id="Path_1403" data-name="Path 1403" d="M86.216,89.733c-.462.051-.915-.462-1-1.161l-.473-3.987c-.082-.7.226-1.305.7-1.367s.915.462,1,1.161l.473,3.987c.082.7-.226,1.305-.7,1.367" transform="translate(2.343 2.301)" fill="#0f2c51"/>
      <path id="Path_1404" data-name="Path 1404" d="M54.329,66.907a1.121,1.121,0,0,1-.5-.113c-6.392-3.186-4.018-12.085-3.915-12.455a1.054,1.054,0,0,1,1.285-.73,1.04,1.04,0,0,1,.73,1.274c-.031.1-2,7.625,2.836,10.04a1.043,1.043,0,0,1-.432,1.973Z" transform="translate(1.366 1.482)" fill="#0f2c51"/>
      <path id="Path_1405" data-name="Path 1405" d="M99.695,74.068a1.042,1.042,0,0,1-.154-2.076c5.416-.627,6.094-8.4,6.094-8.468a1.041,1.041,0,0,1,2.076.164c-.031.391-.843,9.557-7.934,10.379Z" transform="translate(2.728 1.73)" fill="#0f2c51"/>
      <path id="Path_1406" data-name="Path 1406" d="M43.363,45.188s-1.541,1.408.185,4.892c0,0-.771,5.508,2.374,7.913,0,0-.257,5.2,4.9,6,0,0-.226-5.56-.206-5.519s1.511-7.492,1.511-7.492l-8.766-5.8" transform="translate(1.182 1.25)" fill="#0f2c51"/>
      <path id="Path_1407" data-name="Path 1407" d="M117.075,54.5s1.069,1.788-1.593,4.635c0,0-.853,5.5-4.563,6.9,0,0-1.254,5.056-6.423,4.337,0,0,1.819-5.262,1.8-5.231s.719-7.615.719-7.615Z" transform="translate(2.89 1.507)" fill="#0f2c51"/>
      <path id="Path_1408" data-name="Path 1408" d="M59.663,107.394a.879.879,0,0,1-.925-.647L57.217,90.2a1.023,1.023,0,0,1,.041-.76.876.876,0,0,1,.524-.473c.226-.062,4.624-1.305,6.844-1.85a.906.906,0,0,1,1.058.894A.947.947,0,0,1,65,89c-1.675.421-4.213,1.11-5.868,1.572l1.172,15.5a1.041,1.041,0,0,1-.38,1.233.693.693,0,0,1-.267.092Z" transform="translate(1.581 2.409)" fill="#0f2c51"/>
      <path id="Path_1409" data-name="Path 1409" d="M47.836,92.6a.839.839,0,0,1,.606-.822L62.12,88a.822.822,0,0,1,1.007.6.858.858,0,0,1-.575,1.038L48.874,93.415a.822.822,0,0,1-1.007-.6.768.768,0,0,1-.031-.206Z" transform="translate(1.323 2.433)" fill="#0f2c51"/>
      <path id="Path_1410" data-name="Path 1410" d="M93.712,107.235a.836.836,0,0,1-.349-.041.936.936,0,0,1-.575-1.141l3.813-14.8a.825.825,0,0,1,1.058-.6.936.936,0,0,1,.575,1.141l-3.813,14.8a.865.865,0,0,1-.719.637Z" transform="translate(2.565 2.506)" fill="#0f2c51"/>
      <path id="Path_1411" data-name="Path 1411" d="M82.106,92.747l4.573,5.991,2.209-11.16-2.035-.74Z" transform="translate(2.271 2.402)" fill="#0f2c51"/>
      <path id="Path_1412" data-name="Path 1412" d="M82.345,98.923,81.06,95.008l-3.124,8.047Z" transform="translate(2.155 2.628)" fill="#0f2c51"/>
      <path id="Path_1413" data-name="Path 1413" d="M72.006,99.425l1.953,3.4L73.7,95.808Z" transform="translate(1.991 2.65)" fill="#0f2c51"/>
      <path id="Path_1414" data-name="Path 1414" d="M67.016,86.661,67.448,98l5.95-5.56c-2.261-2.908-3.638-5.118-4.4-6.258l-1.983.483" transform="translate(1.853 2.383)" fill="#0f2c51"/>
      <path id="Path_1415" data-name="Path 1415" d="M91.467,88.235a.575.575,0,0,0-.391.391l-2.425,12.28a.862.862,0,0,1-.647.668.8.8,0,0,1-.164.021.876.876,0,0,1-.709-.339l-3.062-4.018.617,1.881a.878.878,0,0,1-.226.894l-7.533,7.05a.813.813,0,0,1-.555.226.951.951,0,0,1-.514-.144h-.01a.768.768,0,0,1-.3.164.712.712,0,0,1-.206.031.849.849,0,0,1-.771-.432l-3.895-6.783a.86.86,0,0,1-.031-.791l1.5-3.2-4.655,4.347a.813.813,0,0,1-.555.226,1.1,1.1,0,0,1-.36-.062.842.842,0,0,1-.524-.76L65.6,87.618l-.678.4-6.937,1.706,1.367,16.761v.843H94.468l4.655-16.412-7.656-2.672Z" transform="translate(1.604 2.423)" fill="#0f2c51"/>
      <path id="Path_1416" data-name="Path 1416" d="M75.116,92.038a.146.146,0,0,0,.021.041.041.041,0,0,0-.021-.041" transform="translate(2.077 2.545)" fill="#fff"/>
      <path id="Path_1417" data-name="Path 1417" d="M80.276,92.234a.587.587,0,0,1,.134-.216.764.764,0,0,0-.134.216" transform="translate(2.22 2.545)" fill="#fff"/>
      <rect id="Rectangle_61" data-name="Rectangle 61" width="47.354" height="37.365" transform="translate(3.616 62.862) rotate(-9.49)" fill="#fff"/>
      <path id="Path_1418" data-name="Path 1418" d="M9.049,99.18,2.626,60.745l48.279-8.077L57.328,91.1,9.049,99.18M4.466,62.061l5.9,35.279L55.489,89.8l-5.9-35.279L4.466,62.061" transform="translate(0.073 1.457)" fill="#0f2c51"/>
      <path id="Path_1419" data-name="Path 1419" d="M3.212,87.967s-3.278-2.055-.226-3.515,10.03.606,10.03.606,3.72,2.692-.288,3.206c0,0,4.347,1.953,2.713,4.779,0,0,2.487.76-.976,2.97,0,0,2.446,1.973-3.628,3.371s-7.553-1.439-7.553-1.439-.976-.73.442-1.47c0,0-4.624-2.949-1.13-3.771,0,0-4.491-4.2.606-4.738Z" transform="translate(0.021 2.321)" fill="#fff"/>
      <path id="Path_1420" data-name="Path 1420" d="M7.786,100.587c-3.391,0-4.737-1.583-5.087-2.1a1.549,1.549,0,0,1-.514-1.233,1.483,1.483,0,0,1,.257-.709c-.935-.73-2.1-1.9-1.9-3.042a1.6,1.6,0,0,1,.719-1.079C.53,91.544-.3,90.177.109,88.954a2.305,2.305,0,0,1,1.449-1.4A2.52,2.52,0,0,1,.911,85.85a2.589,2.589,0,0,1,1.747-2.1c3.289-1.572,10.307.473,10.605.555l.134.041.113.082c.524.38,2.209,1.726,1.86,3.114a1.642,1.642,0,0,1-.709.966,5.118,5.118,0,0,1,1.829,2.343,3.059,3.059,0,0,1,0,1.87,1.629,1.629,0,0,1,.627,1.069c.134.976-.658,1.819-1.5,2.446a1.858,1.858,0,0,1,.123,1.151c-.288,1.243-1.778,2.127-4.686,2.805a14.578,14.578,0,0,1-3.258.4Zm-3.772-3c.113.2,1.5,2.22,6.659,1.038,3.258-.75,3.484-1.572,3.484-1.6.041-.154-.185-.37-.185-.37l-.863-.7.935-.6c1.285-.822,1.449-1.274,1.47-1.357a.974.974,0,0,0-.3-.185l-.966-.3.5-.874a1.551,1.551,0,0,0,.185-1.326,5.083,5.083,0,0,0-2.528-2.323L9.841,87.834l2.8-.36a2.121,2.121,0,0,0,1.161-.36,3.249,3.249,0,0,0-1.141-1.336c-1.973-.565-7.111-1.665-9.331-.606-.514.247-.832.524-.843.74-.021.4.658,1.058,1.151,1.377l1.942,1.233-2.281.236c-.956.1-1.583.349-1.7.678-.206.606.771,1.942,1.552,2.672L4.24,93.126l-1.449.339a1.39,1.39,0,0,0-.689.288c.01.329.915,1.295,2.066,2.035l1.161.75-1.223.637a2.168,2.168,0,0,0-.267.164l.123.082L4,97.566Z" transform="translate(0 2.3)" fill="#0f2c51"/>
      <path id="Path_1421" data-name="Path 1421" d="M60.534,97.809s-2.323-11.6-6.145-14.151l-5.375-1.511L43.187,85s-.75,3.782,5.231,1.223l4.059.884-5.909,1.223s-4.953.843-3.638,3.042c0,0-2.456,3.905-.524,4.439s7.451.041,7.451.041L45.53,97.594s.164,3.823,4.162,2l2.662-.73s.863,6.156,5.22,5.385c0,0,15.96,12.435,19.207,14.418s15.045,1.983,3.587-9.742c-7.43-3.587-19.844-11.109-19.844-11.109Z" transform="translate(1.152 2.272)" fill="#fff"/>
      <path id="Path_1422" data-name="Path 1422" d="M81.047,120.48a9.689,9.689,0,0,1-4.655-1.11C73.329,117.5,59.549,106.8,57.37,105.117a4.19,4.19,0,0,1-3-.781,8.011,8.011,0,0,1-2.61-4.45l-1.788.493a3.9,3.9,0,0,1-3.71.123,3.756,3.756,0,0,1-1.521-2.847.808.808,0,0,1,.462-.76,12.815,12.815,0,0,1-3.011-.277A1.713,1.713,0,0,1,41.01,95.57c-.493-1.295.5-3.309,1.017-4.2a1.889,1.889,0,0,1,.062-1.47,4.584,4.584,0,0,1,2.836-1.942,2.74,2.74,0,0,1-1.706-.565,2.646,2.646,0,0,1-.812-2.5.808.808,0,0,1,.432-.565l5.827-2.857a.826.826,0,0,1,.565-.051l5.375,1.511a.9.9,0,0,1,.226.1c3.71,2.466,5.981,12.291,6.413,14.3,1.932,1.161,12.8,7.677,19.484,10.893a.71.71,0,0,1,.226.164c4.676,4.789,6.176,8.314,4.45,10.482a5.47,5.47,0,0,1-4.357,1.613Zm-23.451-17a.86.86,0,0,1,.493.164c.154.123,15.96,12.424,19.135,14.367,1.685,1.028,5.755,1.357,6.937-.134,1.089-1.367-.462-4.378-4.244-8.273C72.528,106.021,60.258,98.6,60.134,98.529a.775.775,0,0,1-.37-.524c-.617-3.1-2.847-11.51-5.7-13.575l-4.953-1.4L43.98,85.55a.844.844,0,0,0,.267.6c.2.154,1.069.586,3.874-.617a.863.863,0,0,1,.483-.051l4.059.884a.8.8,0,0,1-.01,1.562l-5.909,1.223h-.031c-1.1.185-2.867.771-3.165,1.408-.021.051-.082.175.082.432a.807.807,0,0,1,0,.832c-.7,1.11-1.305,2.641-1.11,3.155.01.031.021.062.123.092,1.47.411,5.673.144,7.163,0a.8.8,0,0,1,.853.606.791.791,0,0,1-.483.925l-3.73,1.5a1.705,1.705,0,0,0,.668,1.017,2.7,2.7,0,0,0,2.271-.247.579.579,0,0,1,.123-.041l2.662-.73a.793.793,0,0,1,.647.1.776.776,0,0,1,.349.555c0,.031.452,3.042,2.148,4.265a2.655,2.655,0,0,0,2.138.442c.041,0,.092-.01.134-.01ZM48.5,87.091c-.1.041-.206.082-.3.123l.442-.092-.134-.031Z" transform="translate(1.131 2.251)" fill="#0f2c51"/>
      <path id="Path_1423" data-name="Path 1423" d="M12.448,71.628a1.283,1.283,0,0,1,1.428.473c2.076,2.117,4.686,4.768,6.258,6.33-.658-3.607-1.213-6.063-1.264-6.279-.031-.164-.3-1-.339-1.192-.072-.391.308-.514.575-.565l1.151-.216c.2-.041.678-.1.75.288.031.164,0,.185-.36.442-.257.185-.288.206-.062,1.418.206,1.13,1.274,6.7,1.511,7.954.185.987.206,1.1-.216,1.336a2.837,2.837,0,0,1-.832.257c-.462.082-.5.041-.925-.411-1.983-2.086-5.272-5.323-7.3-7.368l.164.9c.1.555,1.243,6.793,1.326,7.07.021.134.1.442.123.575.092.514-.73.75-1.161.822a.471.471,0,0,1-.627-.38c-.01-.082-.051-.555-.072-.647-.257-2.076-1-6.854-1.315-8.581-.164-.9-.226-1.13-.853-1.017-.247.041-.555.1-.627-.277-.062-.329.185-.473.432-.524l2.24-.411Z" transform="translate(0.27 1.94)" fill="#0d2b4d"/>
      <path id="Path_1424" data-name="Path 1424" d="M27.171,79.305c.092.514.524.462,1.028.339l1.12-.206c1.675-.308,2.086-.843,2.5-1.562a4.136,4.136,0,0,0,.37-1.017c.051-.164.113-.391.575-.483.575-.1.647.277.678.473a7.055,7.055,0,0,1,.072,1.973c-.062.473-.247.709-1.048.853l-6.2,1.13c-1.069.2-1.182-.411-1.223-.627-.051-.267-.206-1.562-.236-1.86-.226-1.418-.473-2.836-.73-4.255l-.545-2.908c-.092-.524-.411-.483-.719-.432-.38.072-.586.021-.658-.36-.092-.473.432-.586.637-.627.411-.072,2.4-.421,2.847-.5l3.145-.575c.226-.041,1.336-.308,1.583-.36.36-.062.637-.051.8.2a6.445,6.445,0,0,1,.5,1.552.612.612,0,0,1-.575.771.716.716,0,0,1-.832-.257c-.709-.894-.945-1.182-2.035-.987L25.846,70c-.216.041-.339.164-.308.38l.709,3.854c.391-.072,2.333-.432,2.775-.524a2.448,2.448,0,0,0,1.243-.637c.36-.36.421-.421.6-.452a.342.342,0,0,1,.432.308c.072.411.062,1.47-.565,1.583-.1.021-.565,0-.658,0-.349.01-1.243.164-1.726.247-.277.051-1.213.226-1.377.288s-.534.236-.462.627l.658,3.6Z" transform="translate(0.612 1.888)" fill="#0d2b4d"/>
      <path id="Path_1425" data-name="Path 1425" d="M35.12,67.481c.627-.113.781.185.935.627.092.308,2.744,6.793,3.268,8.067.37-5.149.432-6.628.524-9.105.021-.36.031-.493,1.295-.73.6-.113.719.236,1.048,1,.185.442,3.5,7.81,3.5,7.82.051-2.949.123-6.392.1-8.992,0-.421.031-.493.1-.575a.743.743,0,0,1,.37-.185l1.449-.267a.368.368,0,0,1,.473.267c.041.2-.082.288-.216.38a.5.5,0,0,0-.319.411c-.021.144-.062.791-.062.945l-.092,1.7s-.339,5.858-.462,7.307c-.051.719-.092,1.058-1.655,1.336-.678.123-.74-.072-1.192-1.038l-.75-1.593c-.956-2.035-1.13-2.394-2.271-4.9-.134,1.49-.658,7.091-.812,7.81-.051.267-.144.617-1.511.874a.585.585,0,0,1-.668-.216c-.021-.01-1.254-2.867-1.459-3.35-2.785-6.392-2.836-6.382-3.33-6.413-.514-.021-.6-.031-.647-.308a.461.461,0,0,1,.432-.524l1.973-.36Z" transform="translate(0.905 1.801)" fill="#0d2b4d"/>
    </g>
  </g>
</svg>
