<svg xmlns="http://www.w3.org/2000/svg" xmlns:xlink="http://www.w3.org/1999/xlink" width="40" height="40" viewBox="0 0 40 40">
  <defs>
    <clipPath id="clip-path">
      <rect id="Rectangle_81" data-name="Rectangle 81" width="30.065" height="22.628" fill="none"/>
    </clipPath>
  </defs>
  <g id="Group_544" data-name="Group 544" transform="translate(-2543 -2491)">
    <rect id="Rectangle_82" data-name="Rectangle 82" width="40" height="40" rx="4" transform="translate(2543 2491)" fill="#231815"/>
    <g id="Group_400" data-name="Group 400" transform="translate(2548.145 2499.686)">
      <g id="Group_399" data-name="Group 399" clip-path="url(#clip-path)">
        <path id="Path_1432" data-name="Path 1432" d="M0,474.353H7.088v1.734H1.915v2.463H6.944v1.675H1.915v2.5H7.088v1.734H0Zm26.662,10.293c2.173,0,3.4-1.041,3.4-2.47,0-1.018-.725-1.778-2.242-2.107l-1.6-.328c-.931-.173-1.224-.347-1.224-.694,0-.449.449-.725,1.276-.725.9,0,1.561.241,1.734,1.07h1.88c-.1-1.561-1.224-2.591-3.5-2.591-1.967,0-3.347.812-3.347,2.385,0,1.087.76,1.795,2.4,2.14l1.793.414c.708.139.9.33.9.623,0,.467-.534.76-1.4.76-1.086,0-1.707-.241-1.948-1.07h-1.89C23.161,483.61,24.316,484.646,26.662,484.646Zm-4.323-.189H20.3a1.787,1.787,0,0,1-1.984-1.8v-3.971H16.89V477h1.438v-2.124h1.89V477h2.121v1.693H20.218v3.488c0,.4.276.588.708.588h1.413ZM14.188,477v.673a3.67,3.67,0,0,0-2.381-.867,3.921,3.921,0,1,0-.165,7.84q.082,0,.165,0a3.659,3.659,0,0,0,2.381-.867v.675h1.885V477Zm-2.225,6.009a2.281,2.281,0,1,1,2.254-2.306c0,.009,0,.018,0,.028A2.254,2.254,0,0,1,11.984,483h-.024Z" transform="translate(0 -462.018)" fill="#05c167"/>
        <path id="Path_1433" data-name="Path 1433" d="M29.46,4.042a1.675,1.675,0,0,0-1.622,1.882V10.1H26.39V2.747h1.431v.9a1.941,1.941,0,0,1,1.724-.95h.52V4.042Zm-4.07,2.383a3.658,3.658,0,0,0-3.673-3.834A3.786,3.786,0,0,0,17.956,6.4q0,.011,0,.023a3.8,3.8,0,0,0,3.9,3.85A3.845,3.845,0,0,0,25.027,8.7l-1.051-.77A2.563,2.563,0,0,1,21.853,9,2.466,2.466,0,0,1,19.425,6.9h5.968Zm-5.933-.675A2.312,2.312,0,0,1,21.7,3.869a2.281,2.281,0,0,1,2.225,1.882Zm-6.087-3.16a3.663,3.663,0,0,0-2.6,1.087V0H9.32V10.1h1.431V9.171a3.72,3.72,0,0,0,2.622,1.1,3.843,3.843,0,0,0,.163-7.684q-.082,0-.163,0Zm-.1,6.391A2.548,2.548,0,1,1,15.8,6.422q0,.01,0,.021a2.529,2.529,0,0,1-2.525,2.532h-.01ZM3.987,8.912A2.494,2.494,0,0,0,6.47,6.235V0h1.5V10.1H6.488V9.148A3.684,3.684,0,0,1,3.815,10.27,3.738,3.738,0,0,1,0,6.316V0H1.528V6.243A2.452,2.452,0,0,0,3.987,8.912" fill="#fff"/>
      </g>
    </g>
  </g>
</svg>

