<svg xmlns="http://www.w3.org/2000/svg" width="40" height="40" viewBox="0 0 40 40">
  <g id="Group_542" data-name="Group 542" transform="translate(-376 -147)">
    <rect id="Rectangle_76" data-name="Rectangle 76" width="40" height="40" rx="8" transform="translate(376 147)" fill="#fff"/>
    <path id="line" d="M24.294,47.375v6.348a.282.282,0,0,1-.286.286H22.991a.3.3,0,0,1-.232-.116l-2.911-3.929v3.768a.282.282,0,0,1-.286.286H18.544a.282.282,0,0,1-.286-.286V47.384a.282.282,0,0,1,.286-.286h1.009a.269.269,0,0,1,.232.125L22.7,51.152V47.384a.282.282,0,0,1,.286-.286H24A.282.282,0,0,1,24.294,47.375Zm-7.321-.286H15.955a.282.282,0,0,0-.286.286v6.348a.282.282,0,0,0,.286.286h1.018a.282.282,0,0,0,.286-.286V47.375A.288.288,0,0,0,16.973,47.089Zm-2.455,5.321H11.741V47.375a.282.282,0,0,0-.286-.286H10.437a.282.282,0,0,0-.286.286v6.348a.263.263,0,0,0,.08.2.3.3,0,0,0,.2.08h4.08a.282.282,0,0,0,.286-.286V52.7a.286.286,0,0,0-.277-.286Zm15.134-5.321h-4.08a.288.288,0,0,0-.286.286v6.348a.288.288,0,0,0,.286.286h4.08a.282.282,0,0,0,.286-.286V52.705a.282.282,0,0,0-.286-.286H26.875V51.348h2.777a.282.282,0,0,0,.286-.286V50.036a.282.282,0,0,0-.286-.286H26.875V48.678h2.777a.282.282,0,0,0,.286-.286V47.375a.3.3,0,0,0-.286-.286ZM40,39.294V64.768A7.272,7.272,0,0,1,32.705,72H7.232A7.278,7.278,0,0,1,0,64.705V39.232A7.278,7.278,0,0,1,7.294,32H32.768A7.272,7.272,0,0,1,40,39.294ZM34.5,50.241c0-6.518-6.536-11.821-14.562-11.821S5.375,43.723,5.375,50.241c0,5.839,5.179,10.732,12.179,11.661,1.705.366,1.509.991,1.125,3.286-.062.366-.295,1.437,1.259.786s8.384-4.937,11.446-8.455A10.548,10.548,0,0,0,34.5,50.241Z" transform="translate(376 115)" fill="#59b53b"/>
  </g>
</svg>
