<svg xmlns="http://www.w3.org/2000/svg" xmlns:xlink="http://www.w3.org/1999/xlink" width="40" height="40" viewBox="0 0 40 40">
  <defs>
    <clipPath id="clip-path">
      <rect id="Rectangle_79" data-name="Rectangle 79" width="27.967" height="28.277" fill="none"/>
    </clipPath>
  </defs>
  <g id="Group_543" data-name="Group 543" transform="translate(-2508 -2523)">
    <rect id="Rectangle_77" data-name="Rectangle 77" width="40" height="40" rx="4" transform="translate(2508 2523)" fill="#c81460"/>
    <g id="Group_395" data-name="Group 395" transform="translate(2514.017 2528.861)">
      <g id="Group_394" data-name="Group 394" clip-path="url(#clip-path)">
        <path id="Path_1429" data-name="Path 1429" d="M2.335,6.49A3.944,3.944,0,0,1,1.141,4.055,3.7,3.7,0,0,1,3.33.324a3.65,3.65,0,0,1,4.262.934.6.6,0,0,0,.829.207,13.815,13.815,0,0,1,11.126,0c.3.125.5.172.758-.135A3.674,3.674,0,0,1,25.6.952,3.719,3.719,0,0,1,25.884,6.2c-.08.092-.165.179-.277.3a13.906,13.906,0,0,1,1.768,11.758,13.449,13.449,0,0,1-5.265,7.4A13.995,13.995,0,0,1,2.335,6.49M8.253,7.519A4.878,4.878,0,0,0,4.411,9.662a4.919,4.919,0,0,0,.8,6.785c1.273.979,2.4.594,2.906-.922a10.36,10.36,0,0,1,1.05-2.21A24.017,24.017,0,0,1,10.809,11.2a2,2,0,0,0,.5-1.6c-.192-1.3-1.2-2.079-3.06-2.082m16.232,4.988a5.168,5.168,0,0,0-5.325-4.989,2.475,2.475,0,0,0-2.4,1.465,2.182,2.182,0,0,0,.583,2.528A10.663,10.663,0,0,1,19.83,15.6a1.614,1.614,0,0,0,2.792.888,4.8,4.8,0,0,0,1.863-3.977M10.568,17.892A2.763,2.763,0,0,0,12.1,20.325a3.6,3.6,0,0,0,3.921-.146A2.6,2.6,0,0,0,17.3,17.892ZM6.818,2.1a2.425,2.425,0,0,0-2.549-.875A2.421,2.421,0,0,0,2.316,3.25a2.411,2.411,0,0,0,.637,2.2L6.818,2.1M25,5.454a2.433,2.433,0,0,0,.554-2.541,2.419,2.419,0,0,0-2.161-1.732,2.4,2.4,0,0,0-2.253.919L25,5.454M13.915,16.964a3.682,3.682,0,0,0,2.264-1.278c.3-.406.177-.7-.358-.847a6.817,6.817,0,0,0-3.774.006c-.532.152-.636.472-.3.9a3.874,3.874,0,0,0,2.167,1.217" transform="translate(0 0)" fill="#fff"/>
        <path id="Path_1430" data-name="Path 1430" d="M78.491,93.972a.785.785,0,0,1-.788.745.754.754,0,0,1,.02-1.508.785.785,0,0,1,.768.763" transform="translate(-68.884 -83.403)" fill="#fff"/>
        <path id="Path_1431" data-name="Path 1431" d="M177.607,93.947a.767.767,0,0,1-.765.761.754.754,0,0,1-.016-1.508.771.771,0,0,1,.781.746" transform="translate(-157.572 -83.396)" fill="#fff"/>
      </g>
    </g>
  </g>
</svg>
