<svg xmlns="http://www.w3.org/2000/svg" width="169.918" height="152.06" viewBox="0 0 169.918 152.06">
  <g id="_圖層_1-2" transform="translate(-57.082 -0.017)">
    <g id="Group_56" data-name="Group 56" transform="translate(57.082 0.017)">
      <g id="Group_55" data-name="Group 55">
        <g id="Group_49" data-name="Group 49">
          <path id="Path_231" data-name="Path 231" d="M78.283,160.885l8.013-25.68,9.442-2.172,2.73-1.268,5.148-2.527v-5.249l-12.662-8.03-5.79-13.11-4.6-1.674-4.345-9.5,3.762-7.286L111.308,71.64l26.787,3.4L155.88,89.847l-2.434,12.417-4.565,5.461-4.615,1.048-4.311,6.855-11.065,7.692-5.832,1.893-.237,5.435,5.486,1.429,2.8.955,23.888,14.421,2.561,14.133Z" transform="translate(-60.043 -11.098)" fill="#fff"/>
          <g id="Group_42" data-name="Group 42">
            <path id="Path_232" data-name="Path 232" d="M111.324,92.888a1.621,1.621,0,0,0,.888-.955,2.392,2.392,0,0,0-.11-1.327,1.4,1.4,0,0,0-.363-.71c-.025-.017-.042-.034-.068-.051a1.4,1.4,0,0,0-.321-.152,17.269,17.269,0,0,0-3.669-.5l-2.113-.3a11.161,11.161,0,0,0-2.587-.313,2.371,2.371,0,0,0-1.209.465c-.254.186-.828.507-.862.862-.034.44.913.693,1.226.82.423.178.845.347,1.268.524,1.074.448,2.147.888,3.246,1.276,1.462.507,3.187,1.074,4.674.363Z" transform="translate(-63.863 -13.716)" fill="#0f2c51"/>
            <path id="Path_233" data-name="Path 233" d="M143.7,92.521c.33-.085,1.3-.2,1.336-.634.025-.347-.507-.752-.727-.972a2.379,2.379,0,0,0-1.133-.642,10.72,10.72,0,0,0-2.6-.059h-2.139a16.945,16.945,0,0,0-3.7-.034,1.559,1.559,0,0,0-.338.1c-.025.017-.051.025-.076.042a1.4,1.4,0,0,0-.465.651,2.426,2.426,0,0,0-.3,1.293,1.612,1.612,0,0,0,.735,1.074c1.369.913,3.161.609,4.674.313,1.141-.22,2.265-.507,3.4-.795.44-.11.888-.22,1.327-.338Z" transform="translate(-68.912 -13.949)" fill="#0f2c51"/>
            <path id="Path_234" data-name="Path 234" d="M69.92,75.039l-3-2.13a9.3,9.3,0,0,1-.93-1.251,7.246,7.246,0,0,1-.735-1.522h0c-.456-.955-.237-1.361-.6-2.341a4.239,4.239,0,0,1-1.166-.034c-2.046-.245-6.7-5.435-6.39-10.228.186-2.891,1.834-2.274,1.352-4.852s.541-2.147,1.868-3.964a2.411,2.411,0,0,0,.465-1.614,12.313,12.313,0,0,1,2.434-9.831,18.432,18.432,0,0,1,2.434-2.6A6.974,6.974,0,0,1,67.689,33.5a1.282,1.282,0,0,0,.516-.347,1.263,1.263,0,0,0,.178-.609c.161-2.73-2.789-4.125-1.251-6.382q.431-.634.913-1.217a12.726,12.726,0,0,1,3.364-2.942,1.887,1.887,0,0,0,.4-.321,3.628,3.628,0,0,0,.617-1.285,10.632,10.632,0,0,1,2.054-3.888,9.073,9.073,0,0,1,3.516-2.57c1.3-.541,2.73-.727,4.032-1.268a5.084,5.084,0,0,0,2.012-1.555c2.7-3.533,6.458-4.472,10.439-4.92a3.383,3.383,0,0,1,1.2-.025A3.56,3.56,0,0,0,99.218,5.15a6.628,6.628,0,0,1,6.957-1.437,1.221,1.221,0,0,0,.871-.22,10.229,10.229,0,0,1,6.111-1.97A12.3,12.3,0,0,0,118.414.366c2.409-.913,4.514.11,6.492,1.412a1.58,1.58,0,0,0,1.564.211,6.819,6.819,0,0,1,6.213.718,12.2,12.2,0,0,1,1.978,1.564c.862.871,2.012.845,3.043,1.09a7.16,7.16,0,0,1,3.931,2.384c.888,1.048,1.64,2.223,2.485,3.314a1.611,1.611,0,0,0,.744.507,12.543,12.543,0,0,1,6.34,4.362,7.134,7.134,0,0,1,1.074,2.223,4.261,4.261,0,0,0,1.606,2.232,7.649,7.649,0,0,1,2.866,4.429,2.274,2.274,0,0,0,.871,1.124c1.133.448,1.352.947,1.352.947.228.135.71-.152.676,1.183-.008.4.4.727.685.981,2.46,2.206,1.919,1.166,2.147,4.556.068,1.023,2.079,2.916,2.468,3.778,1.767,3.854,2.1,4.877.837,8.943A1.056,1.056,0,0,0,166,47.516c3.778,4.353,2.975,10.236,2.975,10.236s.786,6.289-.879,8.216a11.124,11.124,0,0,1-1.9,1.758.729.729,0,0,0-.169.186,1.741,1.741,0,0,0-.228.735,10.207,10.207,0,0,1-2.248,5.19c-.017.025-.034.042-.051.068a2.074,2.074,0,0,1-.871.744c-1.107.389-1.268,2.874-2,3.719a5.286,5.286,0,0,1-3.8,1.707c-.22-.034-.423-.042-.634-.059-2.24,0-2.181,1.7-2.181,1.7s.795,3.356-3.44,2.392h0c-.634.507-.524.955-1.826,1.665s-3.863-.507-3.863-.507l-.4-.254c-.279-.237-.051-.059-.3-.321q-.127-.178-.3-.38c-.8-.938-.676-.566-.786-1.7-.076-.727-.262-1.09-1.048-1.175a6.511,6.511,0,0,1-4.167-2.206,12.73,12.73,0,0,1-3.423-7.058,1.178,1.178,0,0,0-1.04-1.192,10.527,10.527,0,0,1-6.813-4.345,9.216,9.216,0,0,1-1.183,0,7.734,7.734,0,0,1-4.184.38h-.389a9.231,9.231,0,0,1-1.665-.262,12.063,12.063,0,0,1-3.322,1.361,6.947,6.947,0,0,1-2.73.448c-.338.025-.676.042-1.006.051a13.229,13.229,0,0,1-9.146-3.009l-.169-.051a1.242,1.242,0,0,1-.085.11c-.161.245-.33.473-.5.693-.068.093-.144.194-.211.279a10.188,10.188,0,0,1-.752.837,11.417,11.417,0,0,1-6.433,3.178,9.618,9.618,0,0,1-2.942-.178,1.446,1.446,0,0,0-1.378.313,1.745,1.745,0,0,0-.262.414,16.994,16.994,0,0,1-.972,1.513,13.7,13.7,0,0,1-.955,1.378c-.135.169-.27.33-.406.49-.161.186-.321.38-.49.558-.245.254-.49.507-.752.744-.034.025-.059.059-.093.085a14.118,14.118,0,0,1-5.663,3.009c-2.764.338-1.513-.93-3.677-1.31a1.167,1.167,0,0,0-.33-.093c-.617-.093-1.217-.228-1.817-.38a21.855,21.855,0,0,1-5.156-2.155c-.017.034-.059.051-.118.051" transform="translate(-57.082 -0.017)" fill="#0f2c51"/>
            <path id="Path_235" data-name="Path 235" d="M116.329,130.088a33.8,33.8,0,0,1-25.375-11.411c-8.292-9.23-7.633-28.063-7.608-28.858a1.375,1.375,0,1,1,2.747.11c0,.186-.642,18.52,6.9,26.914a31.061,31.061,0,0,0,23.347,10.482,35.409,35.409,0,0,0,18.089-5.156c10.667-6.34,13.406-21.673,14.091-27.97.051-.49.194-1.8,1.5-1.741s1.327,1.361,1.336,1.851a1.49,1.49,0,0,1-.144.642c-.972,8.411-4.26,22.983-15.367,29.585a38.164,38.164,0,0,1-19.518,5.562Z" transform="translate(-61.142 -13.707)" fill="#0f2c51"/>
            <path id="Path_236" data-name="Path 236" d="M130.838,143.183a.928.928,0,0,1-.211-.017,1.372,1.372,0,0,1-1.15-1.564l.9-5.925a1.372,1.372,0,0,1,2.713.414l-.9,5.925a1.372,1.372,0,0,1-1.361,1.166Z" transform="translate(-68.28 -20.825)" fill="#0f2c51"/>
            <path id="Path_237" data-name="Path 237" d="M131.711,140.94c-.287.879-6.991,8.368-6.991,8.368l9.966,10.549,1.707-16.9-4.683-2.012Z" transform="translate(-67.547 -21.82)" fill="#0f2c51"/>
            <path id="Path_238" data-name="Path 238" d="M111.761,148.95l-6.2-8.25-4.936,2.282,2.223,16.255Z" transform="translate(-63.818 -21.783)" fill="#0f2c51"/>
            <path id="Path_239" data-name="Path 239" d="M107.688,142.148h-.135a1.381,1.381,0,0,1-1.234-1.5l.592-5.9a1.376,1.376,0,0,1,2.739.27l-.592,5.9a1.376,1.376,0,0,1-1.369,1.243Z" transform="translate(-64.699 -20.669)" fill="#0f2c51"/>
            <path id="Path_240" data-name="Path 240" d="M124.288,150.84l3.922,9.941-6.28,8.275Z" transform="translate(-67.115 -23.352)" fill="#0f2c51"/>
            <path id="Path_241" data-name="Path 241" d="M119.148,169.352l-5.993-18.892-3.525,8.8Z" transform="translate(-65.212 -23.293)" fill="#0f2c51"/>
            <path id="Path_242" data-name="Path 242" d="M83.449,107.009a1.307,1.307,0,0,1-.533-.11c-8.7-3.685-6.306-15.612-6.2-16.12a1.378,1.378,0,1,1,2.7.566c-.025.11-2.029,10.228,4.581,13.026a1.373,1.373,0,0,1-.541,2.637Z" transform="translate(-60.061 -13.891)" fill="#0f2c51"/>
            <path id="Path_243" data-name="Path 243" d="M158.188,114.313a1.376,1.376,0,0,1-.237-2.73c7.067-1.268,7.346-11.58,7.346-11.69a1.378,1.378,0,0,1,1.378-1.352h.025a1.382,1.382,0,0,1,1.352,1.395c0,.516-.321,12.679-9.611,14.353a1.208,1.208,0,0,1-.245.025Z" transform="translate(-72.512 -15.26)" fill="#0f2c51"/>
            <path id="Path_244" data-name="Path 244" d="M65.224,76.99s-1.919,1.978.642,6.441c0,0-.566,7.329,3.8,10.253,0,0,.093,6.889,6.965,7.523,0,0-.752-7.32-.727-7.269s1.378-10.017,1.378-10.017L65.232,76.99Z" transform="translate(-58.235 -11.926)" fill="#0f2c51"/>
            <path id="Path_245" data-name="Path 245" d="M181.261,84.56s1.555,2.274-1.716,6.247c0,0-.668,7.32-5.452,9.476,0,0-1.243,6.771-8.123,6.247,0,0,1.97-7.092,1.936-7.05s.321-10.1.321-10.1Z" transform="translate(-73.929 -13.097)" fill="#0f2c51"/>
            <path id="Path_246" data-name="Path 246" d="M154.671,173.015l.49-12.147c.034-3.88-1.327-8.225-6.264-11.893a35.943,35.943,0,0,0-11.521-5.215l-2.215,18.588-7.515-7.717,2.189,5.587-6.957,9.2.423,3.973,31.369-.363Z" transform="translate(-67.262 -22.257)" fill="#0f2c51"/>
            <path id="Path_247" data-name="Path 247" d="M74.457,173.813l-.161-8.656c-.3-6.128,2.409-13.448,7.354-17.117s13.8-3.77,13.8-3.77l2.51,18.047,6.889-7.92-2,4.26,10.9,11.826.786,3.33H74.465Z" transform="translate(-59.742 -22.335)" fill="#0f2c51"/>
            <path id="Path_248" data-name="Path 248" d="M106.981,104.768a6.189,6.189,0,0,1-.685-.034c-3.66-.406-5.968-3.981-6.061-4.133a1.215,1.215,0,0,1,.372-1.665,1.2,1.2,0,0,1,1.657.372h0s1.8,2.764,4.311,3.035c1.386.152,2.815-.5,4.252-1.936a1.2,1.2,0,1,1,1.7,1.7,7.89,7.89,0,0,1-5.545,2.663Z" transform="translate(-63.73 -15.292)" fill="#0f2c51"/>
            <path id="Path_249" data-name="Path 249" d="M138.63,106.9a6.189,6.189,0,0,1-.685-.034c-3.66-.406-5.968-3.981-6.069-4.133a1.215,1.215,0,0,1,.372-1.665,1.2,1.2,0,0,1,1.657.372c.025.034,1.809,2.764,4.311,3.035,1.386.152,2.815-.5,4.252-1.936a1.2,1.2,0,1,1,1.7,1.7,7.89,7.89,0,0,1-5.545,2.663Z" transform="translate(-68.625 -15.622)" fill="#0f2c51"/>
            <path id="Path_250" data-name="Path 250" d="M122.092,118.095c-5.131,0-8.867-6.872-9.028-7.16a1.2,1.2,0,1,1,2.122-1.141c.888,1.64,3.846,5.892,6.906,5.892h.017c1.97-.008,3.888-1.775,5.7-5.232a1.2,1.2,0,1,1,2.13,1.116c-2.257,4.311-4.894,6.509-7.819,6.517h-.025Z" transform="translate(-65.721 -16.904)" fill="#0f2c51"/>
            <path id="Path_251" data-name="Path 251" d="M87.865,88.56s-.609,6.61,1.217,9.814l-3.525-.8L83.25,88.56Z" transform="translate(-61.131 -13.716)" fill="#132c53"/>
            <path id="Path_252" data-name="Path 252" d="M157.307,94.36s.609,6.61-1.217,9.814l3.525-.8,2.308-9.011h-4.615Z" transform="translate(-72.4 -14.614)" fill="#132c53"/>
            <path id="Path_253" data-name="Path 253" d="M89.579,102.344a.381.381,0,0,1-.118-.017l-3.043-.744a.518.518,0,1,1,.245-1.006l3.043.744a.519.519,0,0,1-.118,1.023Z" transform="translate(-61.56 -15.573)" fill="#122c52"/>
            <path id="Path_254" data-name="Path 254" d="M89.579,104.434a.381.381,0,0,1-.118-.017l-3.043-.744a.518.518,0,1,1,.245-1.006l3.043.744a.519.519,0,0,1-.118,1.023Z" transform="translate(-61.56 -15.897)" fill="#122c52"/>
            <path id="Path_255" data-name="Path 255" d="M155.846,107.794a.519.519,0,0,1-.118-1.023l3.043-.744a.518.518,0,1,1,.245,1.006l-3.043.744A.919.919,0,0,1,155.846,107.794Z" transform="translate(-72.283 -16.416)" fill="#122c52"/>
            <path id="Path_256" data-name="Path 256" d="M155.166,110.044a.519.519,0,0,1-.118-1.023l3.043-.744a.518.518,0,1,1,.245,1.006l-3.043.744a.919.919,0,0,1-.127.017Z" transform="translate(-72.178 -16.765)" fill="#122c52"/>
          </g>
          <path id="Path_257" data-name="Path 257" d="M90.012,145.106l-1.3,29.3,54.521-.355-1.868-26.61-5.1-2.409-.321,22.7-41.766.659.456-24.065Z" transform="translate(-61.976 -22.343)" fill="#fff"/>
          <g id="Group_48" data-name="Group 48" transform="translate(74.072 103.414)">
            <path id="Path_258" data-name="Path 258" d="M159.94,176.612a1.2,1.2,0,0,1-1.2-1.2V166.02a1.2,1.2,0,0,1,2.4,0v9.391A1.2,1.2,0,0,1,159.94,176.612Z" transform="translate(-146.882 -128.929)" fill="#0f2c51"/>
            <path id="Path_259" data-name="Path 259" d="M171.75,176.826a1.208,1.208,0,0,1-1.166-.9l-2.561-9.636a1.2,1.2,0,0,1,2.325-.617l2.561,9.636a1.2,1.2,0,0,1-.854,1.471,1.326,1.326,0,0,1-.313.042Z" transform="translate(-148.312 -128.923)" fill="#0f2c51"/>
            <g id="Group_47" data-name="Group 47">
              <g id="Group_43" data-name="Group 43" transform="translate(7.556 27.269)">
                <path id="Path_260" data-name="Path 260" d="M162.952,167.9a10.43,10.43,0,0,1-2.037-.211c-3.035-.592-4.953-1.885-5.706-3.838-1.31-3.423,1.665-7.43,1.792-7.6a1.013,1.013,0,0,1,.82-.406h9.848a1.032,1.032,0,0,1,1.006.795c.059.245,1.395,6.052-1.124,9.239a5.548,5.548,0,0,1-4.6,2.029Z" transform="translate(-153.841 -154.81)" fill="#fff"/>
                <path id="Path_261" data-name="Path 261" d="M167.479,156.682s2.367,10-4.717,10a9.371,9.371,0,0,1-1.843-.194c-9.315-1.817-3.28-9.805-3.28-9.805h9.848m0-2.062H157.64a2.062,2.062,0,0,0-1.648.82c-.355.473-3.423,4.7-1.936,8.588.888,2.308,3.06,3.821,6.466,4.488a11.85,11.85,0,0,0,2.24.228,6.581,6.581,0,0,0,5.41-2.418c2.781-3.516,1.479-9.45,1.319-10.118a2.063,2.063,0,0,0-2.012-1.589h0Z" transform="translate(-153.651 -154.62)" fill="#0f2c51"/>
              </g>
              <g id="Group_44" data-name="Group 44" transform="translate(0 18.25)">
                <path id="Path_262" data-name="Path 262" d="M152.463,157.139a1.116,1.116,0,0,1-.33-.051c-2.494-.828-6.982-3.728-6.095-8.715.473-2.646,1.767-3.2,2.773-3.2,2.012,0,4.074,2.5,4.463,3.009a.184.184,0,0,1,.042.068c2.088,3.153,2.7,5.486,1.885,7.143a3.323,3.323,0,0,1-2.68,1.75h-.068Z" transform="translate(-144.9 -144.139)" fill="#fff"/>
                <path id="Path_263" data-name="Path 263" d="M148.624,146.012c1.614,0,3.652,2.612,3.652,2.612,4.632,6.991,0,7.295,0,7.295s-6.373-2.122-5.4-7.557c.313-1.758.989-2.35,1.758-2.35m0-2.062c-.921,0-3.136.4-3.787,4.049-1.014,5.689,4,8.943,6.788,9.873a2.146,2.146,0,0,0,.651.11h.135a4.309,4.309,0,0,0,3.533-2.325c1-2.012.355-4.691-1.953-8.174a1.208,1.208,0,0,0-.093-.127c-.626-.795-2.84-3.406-5.275-3.406Z" transform="translate(-144.712 -143.95)" fill="#0f2c51"/>
              </g>
              <g id="Group_45" data-name="Group 45" transform="translate(11.697)">
                <path id="Path_264" data-name="Path 264" d="M164.762,146.852c-1.285,0-3.144-1.851-4.48-3.406a1.046,1.046,0,0,1-.245-.558c-.194-1.691-1.682-16.593,4.624-18.926a5.3,5.3,0,0,1,1.792-.372,2.4,2.4,0,0,1,2.122,1.074c1.395,2.122-.448,6.855-.947,8.039-.194,1.014-1.716,9.061-1.4,11.935a2.252,2.252,0,0,1-.4,1.741,1.4,1.4,0,0,1-1.065.465Z" transform="translate(-158.736 -122.55)" fill="#fff"/>
                <path id="Path_265" data-name="Path 265" d="M166.268,124.431c3.525,0,.177,7.777.177,7.777s-1.792,9.1-1.437,12.35c.085.769-.1,1.065-.44,1.065-1.082,0-3.694-3.051-3.694-3.051s-1.775-15.722,3.956-17.836a4.17,4.17,0,0,1,1.429-.3m0-2.062h0a6.249,6.249,0,0,0-2.147.431c-3.212,1.183-5.055,5.063-5.469,11.513a54.343,54.343,0,0,0,.178,8.487,2.045,2.045,0,0,0,.482,1.116c3.237,3.77,4.759,3.77,5.266,3.77a2.414,2.414,0,0,0,1.834-.811,3.235,3.235,0,0,0,.651-2.544c-.262-2.341.862-8.926,1.369-11.53a25.246,25.246,0,0,0,1-2.958c.744-2.747.685-4.632-.186-5.942a3.431,3.431,0,0,0-2.984-1.538h0Z" transform="translate(-158.551 -122.36)" fill="#0f2c51"/>
              </g>
              <g id="Group_46" data-name="Group 46" transform="translate(1.916 18.258)">
                <path id="Path_266" data-name="Path 266" d="M157.234,161.257a10.326,10.326,0,0,1-2.637-.3c-.617-.169-2.5-.676-2.671-2.2a2.138,2.138,0,0,1,.33-1.327,4.844,4.844,0,0,1-4.049-4.37c-.558-5.029,12.113-7.413,14.657-7.836a2.281,2.281,0,0,1,.44-.042c2.612,0,3.39,4.2,3.6,5.883a4.711,4.711,0,0,1,1.961,2.857,6.956,6.956,0,0,1-1.116,4.843,1.068,1.068,0,0,1-.482.38c-.228.085-5.613,2.113-10.034,2.113h0Z" transform="translate(-147.166 -144.149)" fill="#fff"/>
                <path id="Path_267" data-name="Path 267" d="M163.116,146.014c2.139,0,2.629,5.452,2.629,5.452,3.863,2.316.964,6.526.964,6.526s-5.384,2.046-9.67,2.046a9.1,9.1,0,0,1-2.367-.27c-4.311-1.158,0-3.423,0-3.423a6.875,6.875,0,0,1-.811.042c-1.471,0-4.455-.406-4.81-3.635-.482-4.311,13.8-6.7,13.8-6.7a1.445,1.445,0,0,1,.262-.025m0-2.062a3.219,3.219,0,0,0-.634.059,57.208,57.208,0,0,0-7.346,1.8c-2.13.693-8.622,2.8-8.132,7.168a5.75,5.75,0,0,0,3.736,4.92,2.915,2.915,0,0,0-.017.769c.161,1.479,1.319,2.519,3.423,3.085a11.174,11.174,0,0,0,2.9.347,34.7,34.7,0,0,0,10.4-2.181,2.082,2.082,0,0,0,.964-.761,7.9,7.9,0,0,0,1.276-5.646,5.629,5.629,0,0,0-1.995-3.2c-.33-2.265-1.378-6.365-4.573-6.365h0Z" transform="translate(-146.979 -143.96)" fill="#0f2c51"/>
              </g>
            </g>
          </g>
        </g>
        <g id="Group_52" data-name="Group 52" transform="translate(66.752 1.022)">
          <path id="Path_268" data-name="Path 268" d="M196.093,16.692c-26.981-4.294-51.267,6.9-54.14,24.944-2.6,16.356,14.75,22,33.887,25.671a4.715,4.715,0,0,1,3.736,3.6,4.649,4.649,0,0,1-1.724,4.827l-.11.085A3.495,3.495,0,0,0,178.984,82c.423.1.845.194,1.268.262a15.365,15.365,0,0,0,16.179-8.377,4.809,4.809,0,0,1,4.92-2.578c18.461,2.2,35.9,2,38.46-14.1,2.874-18.047-16.745-36.229-43.727-40.523Z" transform="translate(-136.925 -3.478)" fill="#122d55"/>
          <g id="Group_51" data-name="Group 51">
            <g id="Group_50" data-name="Group 50" transform="translate(30.368)">
              <path id="Path_269" data-name="Path 269" d="M248.206,26.9a48.391,48.391,0,0,0-5.486-5.925,54.91,54.91,0,0,0-4.911-4,1.145,1.145,0,0,0-1.606.279h0a1.157,1.157,0,0,0,.279,1.589,54.218,54.218,0,0,1,4.691,3.821,45.41,45.41,0,0,1,5.207,5.621,1.159,1.159,0,0,0,1.589.237h0a1.136,1.136,0,0,0,.237-1.614Z" transform="translate(-181.884 -3.631)" fill="#122d55"/>
              <path id="Path_270" data-name="Path 270" d="M213.323,6.665a77.859,77.859,0,0,0-16.407-4.446,76.613,76.613,0,0,0-23.981-.093A1.147,1.147,0,0,0,172,3.461h0a1.141,1.141,0,0,0,1.319.921,74.485,74.485,0,0,1,23.245.093,75.9,75.9,0,0,1,15.917,4.311,1.146,1.146,0,0,0,.845-2.13Z" transform="translate(-171.979 -1.227)" fill="#122d55"/>
            </g>
            <path id="Path_271" data-name="Path 271" d="M190.485,10.262c26.4,4.2,45.552,21.758,42.771,39.2C230.974,63.8,215.979,64.977,196.064,62.6a5.979,5.979,0,0,0-6.086,3.212,14.171,14.171,0,0,1-9.3,7.506,14,14,0,0,1-6.847,0A2.354,2.354,0,0,1,173,69.17a1.442,1.442,0,0,0,.118-.093,5.9,5.9,0,0,0-2.485-10.465c-20.557-3.939-35.324-9.619-32.975-24.37,2.781-17.455,26.432-28.19,52.83-23.989Z" transform="translate(-136.262 -2.483)" fill="#fff"/>
            <path id="Path_272" data-name="Path 272" d="M174.621,74.5A15.365,15.365,0,0,0,190.8,66.122a4.81,4.81,0,0,1,4.92-2.578c18.461,2.2,35.9,2,38.46-14.1,2.874-18.047-16.745-36.229-43.727-40.523s-51.267,6.9-54.14,24.944c-2.6,16.356,14.75,22,33.887,25.671a4.715,4.715,0,0,1,3.736,3.6,4.649,4.649,0,0,1-1.724,4.827l-.11.085a3.495,3.495,0,0,0,1.243,6.179c.423.1.845.194,1.268.262ZM190.1,11.187c25.73,4.091,44.5,21.1,41.816,37.894-1.826,11.471-12.231,15-35.925,12.181a7.112,7.112,0,0,0-7.253,3.846,13.024,13.024,0,0,1-14.835,6.9,1.188,1.188,0,0,1-.871-.938,1.166,1.166,0,0,1,.44-1.175l.135-.1a7.05,7.05,0,0,0-2.967-12.51c-20.811-3.99-34.226-9.442-32.062-23.059,2.671-16.8,25.781-27.134,51.52-23.042Z" transform="translate(-136.052 -2.275)" fill="#122d55"/>
          </g>
        </g>
        <g id="Group_53" data-name="Group 53" transform="translate(81.103 20.869)">
          <path id="Path_273" data-name="Path 273" d="M171.647,28.944a1.015,1.015,0,0,1,.752-.33c.262.034.761.414.71.727a.347.347,0,0,1-.11.194.344.344,0,0,0-.093.245c-.034.237-.178,1.378-.211,1.631-.059.431-.152.465-.617.549a1.212,1.212,0,0,0-.642.482c.321.051.583.118.651.135.22.068,2.172.7,3.711,1.183a17.186,17.186,0,0,0,2.8.676,8.3,8.3,0,0,0,1.665.085,1.629,1.629,0,0,1,.406,0c.059.008.127.042.11.135-.025.169-1.243.9-1.276.913a1.734,1.734,0,0,1-1.268.27,13.069,13.069,0,0,1-2.646-.955l-2.68-1.3c-1.454-.7-1.817-.7-1.851-.685-.955,1.023-.981,1.065-1.293,1.023-.456-.068-.626-.685-.583-.972.034-.2.085-.228.549-.448a5.083,5.083,0,0,0,1.572-.93l.279-1.953-.727-.068c-.11-.017-.651.127-.769.11a.3.3,0,0,1-.287-.363.588.588,0,0,1,.676-.524c.059.008.338.11.414.118l.769.076Zm1.344-2.122c-.11-.017-2.054-.566-1.944-1.336a.765.765,0,0,1,.879-.609c.778.11,1.462,1.479,1.42,1.758-.017.135-.144.211-.355.178Zm5.866,4.8c.161-.169.414-.44.727-.4s.811.5.761.828c-.034.262-.363.262-.676.22l-5.7-.82c-.11-.017-.634.093-.752.076-.034,0-.372-.051-.33-.33a.484.484,0,0,1,.592-.406c.059.008.338.11.414.118l.9.127c.017-.135.1-.8.127-.955l-.338-.051c-.118-.017-.685.076-.8.059-.034,0-.363-.051-.321-.313a.5.5,0,0,1,.609-.423c.068.008.363.127.431.135l.482.068c.025-.194.042-.279-.017-.38a1.809,1.809,0,0,1-.085-.186c.034-.254.727-.49,1.031-.448.211.034.473.127.431.389-.017.118-.144.659-.161.795l.583.085V29.73c.042-.237.034-.254,0-.3-.085-.1-.127-.144-.118-.186.034-.254.71-.541,1.023-.5.237.034.533.178.5.44-.017.118-.169.659-.186.795l.482.068a.857.857,0,0,1,.71-.338c.338.051.744.448.693.795-.034.262-.4.237-.592.211l-1.378-.2-.152.947,1.116.161Zm-5.046,1.386a.64.64,0,0,1-.609-.659c.059-.38.507-.321.93-.254a2.123,2.123,0,0,0,1.268-.169c.211-.093.262-.11.38-.093s.211.076.194.186a2.2,2.2,0,0,1-2.155,1Zm1.09-6.289c-.11.693-.127.761-.034.837a.689.689,0,0,0,.271.076,2.469,2.469,0,0,0,1.64-.2.333.333,0,0,1,.178-.051.139.139,0,0,1,.135.169c-.347.972-.5,1.074-1.834.879-.583-.085-1.64-.3-1.5-1.141l.135-.778c-.068-.11-.118-.186-.11-.237.025-.178.575-.406.879-.363.2.025.38.144.372.313l.566.085.11-.778-.862-.127c-.118-.017-.7.127-.837.11-.085-.008-.3-.093-.279-.3a.561.561,0,0,1,.609-.482c.051,0,.321.118.4.127l1.057.152a.575.575,0,0,1,.482-.3c.194.025.735.347.693.617,0,.051-.085.27-.093.313-.025.178-.144,1.057-.169,1.243-.042.279-.659.347-.888.313-.347-.051-.33-.254-.313-.389l-.609-.085Zm1.665,4.59.135-.955-.634-.093-.135.955Zm2.6,2.443c-.051.338-.473.473-.761.431-.338-.051-.456-.2-.913-.795a7.308,7.308,0,0,0-.761-.9c-.355-.347-.4-.372-.389-.423.017-.093.22-.068.262-.059a6.623,6.623,0,0,1,1.615.575c.575.33,1.006.735.947,1.158Zm-.921-6.543c-.152.7-.169.854.338.93a3.548,3.548,0,0,0,2.02-.279.322.322,0,0,1,.161-.025c.093.017.152.068.135.152-.008.059-.355,1.014-.786,1.116a2.736,2.736,0,0,1-.642-.017c-2.113-.3-2.443-.752-2.367-1.31l.118-.837s-.093-.144-.085-.169c.025-.194.617-.4.837-.372.3.042.4.194.4.313l.566.085.11-.778-.955-.135c-.11-.017-.668.144-.8.127-.076-.008-.287-.1-.262-.3a.534.534,0,0,1,.592-.473c.059.008.33.11.389.118l1.15.169a.615.615,0,0,1,.516-.33c.2.025.786.406.744.659,0,.051-.135.245-.144.3-.034.2-.161,1.183-.169,1.234-.042.313-.735.355-.938.33a.353.353,0,0,1-.33-.406l-.6-.085Z" transform="translate(-155.527 -24.706)" fill="#122c52"/>
          <path id="Path_274" data-name="Path 274" d="M186.825,31.234s.93-.169,1.141-.186c.051,0,.135,0,.118.093a4.168,4.168,0,0,1-1.344.828c-.059.465-.3,2.274-.338,2.612-.11.752-.3,2.037-1.648,1.834a1.89,1.89,0,0,1-1.344-1.074c0-.051.042-.042.076-.034s.575.144.693.161c.634.093.778-.465.845-.761.118-.448.347-1.877.414-2.35a2.862,2.862,0,0,1-1.141.228.581.581,0,0,1-.507-.685.528.528,0,0,1,.313-.414,13.861,13.861,0,0,1,1.479-.169l.262-1.953-.583-.085c-.093-.017-.575.11-.693.093-.135-.017-.338-.118-.3-.338a.543.543,0,0,1,.6-.465c.051,0,.287.1.355.11l.7.1c.059-.465.085-.735.1-.964.025-.347.034-.389-.068-.507-.169-.186-.178-.194-.169-.254.059-.431.795-.837,1.268-.769a.516.516,0,0,1,.5.6c-.025.152-.2.9-.228,1.065l-.152,1.031.169.025a.613.613,0,0,1,.49-.279.717.717,0,0,1,.482.7c-.034.254-.414.22-.541.2l-.7-.1-.237,1.7Zm6.593,2.637a.866.866,0,0,1,.693-.338c.3.042.795.49.752.8-.034.228-.313.22-.465.2l-2.849-.414-.118.828,1.116.161a.86.86,0,0,1,.668-.347.921.921,0,0,1,.685.845c-.034.211-.3.211-.372.2-.2,0-1.834-.262-2.172-.313-.017.2-.118,1.243-.152,1.471-.068.465-.668.659-1.006.609a.541.541,0,0,1-.473-.7c.034-.228.262-1.319.3-1.572-.321-.034-.685-.085-1.082-.144-.118-.017-.693.051-.811.025-.178-.025-.321-.118-.3-.3a.518.518,0,0,1,.558-.456c.068.008.363.1.44.11l1.276.194.118-.811-1.9-.279a1.831,1.831,0,0,0-.211.034,1.236,1.236,0,0,1-.456.059c-.034,0-.313-.042-.279-.287a.529.529,0,0,1,.566-.431c.051,0,.279.093.338.1l1.3.186c-.287-.533-.321-.583-.3-.718.034-.228.406-.347.693-.3s.651.118.516,1.15l.947.135c.017-.042.262-.769.262-.795.068-.127.127-.228.541-.169.313.042.609.262.575.5-.025.178-.406.507-.5.583l1.116.161Zm.3-1.614a1.023,1.023,0,0,1,.71-.363c.287.042.744.5.7.811-.034.262-.338.228-.448.22l-6.061-.879c-.059-.008-.516.085-.617.068a.252.252,0,0,1-.228-.3.5.5,0,0,1,.549-.4c.034,0,.228.085.279.093l1.961.287c.017-.093.059-.6.076-.71l-1.116-.161c-.076-.008-.44.085-.524.068a.291.291,0,0,1-.262-.3.441.441,0,0,1,.5-.389c.051,0,.27.1.33.11l1.15.178.034-.5a.958.958,0,0,1-.11-.245c.017-.093.051-.118.161-.169l-1.116-.161c-.1.27-.735.287-.9.262-.194-.025-.456-.127-.423-.389.025-.178.178-1,.211-1.192l.076-.516c-.11-.178-.144-.22-.127-.287.034-.228.837-.431,1.082-.389a.521.521,0,0,1,.4.4l3.753.541a1,1,0,0,1,.668-.3c.262.042.854.347.811.642,0,.051-.135.27-.144.321-.034.237-.169,1.4-.186,1.522-.059.406-.71.414-1.065.355-.431-.059-.423-.211-.389-.431l-1.293-.186c-.042.144-.161.744-.178.913l.888.127a.835.835,0,0,1,.651-.287c.3.042.659.448.617.7-.017.135-.169.245-.423.211l-1.817-.262-.1.718,1.927.279Zm-3.449-3.161.169-1.15-.541-.076-.169,1.15Zm1.606.228.169-1.15-.558-.085-.169,1.15Zm1.648.237.169-1.15-.549-.076-.169,1.15Z" transform="translate(-157.73 -24.95)" fill="#122c52"/>
          <path id="Path_275" data-name="Path 275" d="M199.936,37.211l6.923,1.014c.228-.22.592-.541.938-.49a1.22,1.22,0,0,1,.879,1.04c-.042.321-.473.313-.828.262l-7.979-1.15-.034.254c-.059.423-.752.575-1.065.533a.694.694,0,0,1-.4-.2c-.085-.085-.127-.152-.076-.49.025-.169.194-.913.22-1.082s.178-1.074.228-1.42c.507-3.187.583-3.542.828-5.215a6.244,6.244,0,0,0,.076-.761c0-.076-.178-.44-.169-.524a1.4,1.4,0,0,1,1.217-.718c.541.076.524.406.524.592l6.111.888a1.02,1.02,0,0,1,.9-.465c.347.051.879.566.828.964-.059.38-.473.321-1.319.2-.9-.127-5.317-.795-6.323-.938-.178-.025-.338-.051-.38.3l-1.074,7.43Zm3.085-3.592a.711.711,0,0,1,.626-.279c.254.034.676.321.634.592a.147.147,0,0,1-.042.118.448.448,0,0,0-.085.228c-.042.3-.211,1.741-.262,2.062-.034.254-.051.338-.245.406a1.586,1.586,0,0,1-.659.068c-.431-.059-.423-.144-.372-.558l-.659-.093-.034.228c-.042.3-.634.406-.879.372-.49-.068-.456-.321-.423-.516.034-.254.27-1.471.313-1.758l.1-.693s-.076-.085-.093-.11a.152.152,0,0,1-.025-.093c.034-.228.685-.5,1-.456.2.025.473.152.456.38l.642.093Zm-.33,2.189.254-1.733-.685-.1-.254,1.733Zm3.229-4.835a.813.813,0,0,1,.71-.321c.254.034.752.363.71.642,0,.059-.161.279-.169.33-.034.211-.135,1.276-.169,1.513-.059.406-.558.482-1.023.414s-.423-.3-.406-.473l-1.877-.27c-.059.347-.693.338-.837.321-.49-.068-.456-.313-.423-.524,0-.034.237-1.488.254-1.589,0-.034-.118-.2-.11-.245.034-.254.735-.533,1.057-.482.135.017.456.127.44.431l1.851.27Zm-.27,1.6.161-1.1-1.707-.262c-.051,0-.178-.025-.2.127l-.135.955,1.893.27Zm1.124,1.589a.787.787,0,0,1,.642-.287c.3.042.811.4.769.659a.937.937,0,0,1-.144.211c-.017.025-.068.38-.076.414-.034.262-.178,1.513-.211,1.707-.034.254-.051.347-.321.456a1.3,1.3,0,0,1-.651.093c-.482-.068-.448-.3-.4-.609l-.786-.118a.481.481,0,0,1-.254.431.923.923,0,0,1-.566.135c-.5-.076-.465-.338-.448-.456.034-.228.228-1.336.262-1.589.017-.118.093-.718.11-.854a1.247,1.247,0,0,1-.093-.27c.034-.211.676-.448.972-.406.2.025.448.152.423.363l.769.11Zm-.313,2.189.254-1.733-.786-.118-.254,1.733Z" transform="translate(-160.03 -25.255)" fill="#122c52"/>
          <path id="Path_276" data-name="Path 276" d="M215.327,34.675c-.127.735-.2,1.217-.414,2.553.1-.008.888-.127.913-.127a.078.078,0,0,1,.068.093c-.059.38-2.84,1.657-3.669,1.53a.791.791,0,0,1-.626-.811.774.774,0,0,1,.626-.617c.211-.017,1.175.008,1.369-.008L214,34.472l-.549-.076c-.11-.017-.609.093-.71.085a.3.3,0,0,1-.287-.38.488.488,0,0,1,.566-.44c.068.008.389.127.448.135l.609.085c.1-.7.186-1.268.245-1.953-.034-.025-.287-.237-.262-.406.059-.4,1.014-.761,1.429-.693a.471.471,0,0,1,.431.583c-.017.118-.152.626-.178.718-.051.178-.178.972-.33,1.944l.152.025c.194-.254.406-.372.49-.355.034,0,.042.017.076.034a.445.445,0,0,1-.008-.186c.034-.262.347-.6.617-.558.085.008.448.186.533.2l2.232.338c0-.135.068-1.31.076-1.369-.2-.211-.347-.38-.33-.524.059-.4,1.031-.811,1.5-.744.516.076.482.4.456.558-.051.355-.347,1.953-.355,2.282l1.217.161a.81.81,0,0,1,.735-.406.972.972,0,0,1,.7.955c-.042.321-.4.27-.693.228l-2.037-.3a22.463,22.463,0,0,0-.093,3.026,7.983,7.983,0,0,0,.533-1.319.369.369,0,0,1-.076-.254c.051-.347.617-.558.989-.507a.649.649,0,0,1,.583.778,7.379,7.379,0,0,1-1.082,2.02c-.059.068-.38.456-.575.685.008.017.5,1.7,1.124,1.784.3.042.49-.161.761-.524.076-.11.1-.135.144-.127.093.017.059.245.034.423-.178,1.259-.592,1.868-1.344,1.758-.811-.118-1.522-1.183-1.817-2.561a4.425,4.425,0,0,1-3.077,1.031c-.068-.008-.237-.051-.22-.169,0-.051.093-.068.7-.3a6.919,6.919,0,0,0,2.291-1.6,20.556,20.556,0,0,1-.169-4.345l-2.4-.347c-.11,0-.583.076-.685.076a.7.7,0,0,1,.211.558c-.034.228-.33.3-.676.254l-.634-.093Zm-.169,5.063c-.338-.051-.7-.372-.651-.718.076-.549.659-.566,1.031-.575a20.866,20.866,0,0,0,2.789-.211c.059,0,.811-.118.845-.11.068.008.211.059.194.161-.059.423-3.305,1.572-4.21,1.445Zm2.1-2.5a.778.778,0,0,1-.888.558c-.49-.068-.448-.355-.414-.583.042-.287.237-1.488.279-1.741-.135-.144-.152-.152-.144-.22.042-.287.744-.575,1.031-.533.22.034.423.144.431.38l.659.093a.681.681,0,0,1,.609-.245c.3.042.6.33.558.609a1.782,1.782,0,0,1-.085.254c-.034.237-.152,1.369-.169,1.5-.051.372-.626.507-.888.473-.38-.059-.363-.262-.338-.448l-.642-.093Zm.888-1.581-.668-.093c-.034.144-.051.3-.076.456l-.1.685.685.1.161-1.133Zm3.263-2.223c-.135-.017-.22-.085-.194-.245a9.319,9.319,0,0,1,.626-1.217c.178-.279.4-.533.778-.473s.769.406.718.786c-.068.465-1.581,1.2-1.927,1.15Z" transform="translate(-162.09 -25.652)" fill="#122c52"/>
          <path id="Path_277" data-name="Path 277" d="M157.028,42.011a.75.75,0,0,1,.6-.363.83.83,0,0,1,.6.761c-.042.287-.321.279-.549.254l-1.006-.144-.262,1.826c.127,0,.727-.025.862-.042.169-.008.5-.059.533-.059a.093.093,0,0,1,.085.11c0,.059-.194.169-.279.22a12.116,12.116,0,0,1-1.276.549c-.051.347-.262,2.054-.313,2.443-.11.769-.3,2.02-1.657,1.826a1.851,1.851,0,0,1-1.336-1.074c0-.051.042-.042.076-.034s.566.144.676.161a.694.694,0,0,0,.769-.44,17.591,17.591,0,0,0,.507-2.654,3.041,3.041,0,0,1-1.243.178.708.708,0,0,1-.592-.744.512.512,0,0,1,.389-.431c.042-.017,1.454-.034,1.581-.042l.262-1.961-.668-.093c-.093-.017-.575.11-.685.093-.152-.025-.347-.127-.321-.338a.525.525,0,0,1,.6-.448c.051,0,.287.1.347.11l.786.118c.059-.465.085-.744.1-.972.025-.347.034-.389-.034-.456-.2-.211-.22-.237-.211-.313.059-.431.8-.82,1.268-.761.347.051.549.254.5.583-.017.093-.118.507-.152.6-.042.228-.2,1.268-.245,1.513l.262.034Zm6.027,7.126a1.564,1.564,0,0,0,1.166-.575c.025-.017.076-.076.135-.068.034,0,.093.034.076.161a5.788,5.788,0,0,1-.2.871c-.186.609-.575,1.293-1.378,1.183-.828-.118-1.834-1.107-2.4-2.646a5.552,5.552,0,0,1-3.719.879c-.271-.042-.592-.135-.575-.245.008-.059.287-.1.473-.135A7.287,7.287,0,0,0,160,47.032a16.239,16.239,0,0,1-.431-3.263c-.152.017-1.3.118-1.352.135a1.377,1.377,0,0,1-.668.127c-.254-.034-.389-.194-.355-.4a.634.634,0,0,1,.676-.549l.313.042c.059.008,1,.025,1.344.008.025-1.293.034-1.733.076-2.561-.211-.211-.245-.254-.228-.363.051-.355.82-.795,1.3-.727a.5.5,0,0,1,.482.617c-.017.093-.118.566-.135.685-.118.837-.2,1.97-.22,2.35.778-.034.9-.042,1.978-.1a.777.777,0,0,1,.71-.524c.3.042.989.473.938.845a.462.462,0,0,1-.389.321c-.22.051-2.7.076-3.2.085a10.451,10.451,0,0,0,.194,2.485,4.39,4.39,0,0,0,.676-1.133.54.54,0,0,1-.025-.237c.042-.287.659-.44.989-.4.211.034.676.194.617.626a6.7,6.7,0,0,1-1.344,1.953c-.059.051-.347.3-.406.372.127.3.871,1.606,1.522,1.7Zm-1.3-6.779c-.2-.025-.186-.161-.178-.237a12.58,12.58,0,0,1,.744-1.454.861.861,0,0,1,.82-.355.758.758,0,0,1,.634.761c-.076.549-1.758,1.319-2.029,1.285Z" transform="translate(-153.03 -26.961)" fill="#122c52"/>
          <path id="Path_278" data-name="Path 278" d="M176.84,49.456a1.046,1.046,0,0,1,.862-.414c.321.051.9.575.854.93-.051.372-.533.3-.82.262-.372-.051-2.139-.33-2.544-.389-.127,1.217-.135,1.352-.178,1.623a1.23,1.23,0,0,1-1.488,1.09,2.341,2.341,0,0,1-1.615-1.251c0-.051.042-.042.118-.034.008,0,.3.1.338.11a4.08,4.08,0,0,0,.507.11c.524.076.676-.008.778-.668l.186-1.192c-.685-.1-4.007-.566-4.75-.676a3.119,3.119,0,0,0-.541-.042c-.1,0-.575.076-.685.059-.279-.042-.389-.178-.363-.338a.674.674,0,0,1,.685-.5c.068.008.389.118.456.127l5.275.761a.665.665,0,0,0,0-.186,3.081,3.081,0,0,1-.118-.3c.017-.118.161-.186.254-.22a1.493,1.493,0,0,1-.473,0c-.313-.042-.27-.3-.254-.448.025-.194.2-1.158.237-1.369a.231.231,0,0,0-.017-.127c-.11-.186-.118-.2-.11-.262.034-.237.659-.516,1.09-.456a.389.389,0,0,1,.38.338l1.733.254a.753.753,0,0,1,.634-.262c.279.042.828.465.778.761,0,.051-.144.262-.161.321-.025.169-.11,1-.135,1.192-.059.431-.913.414-1.074.4-.431-.059-.406-.33-.38-.482l-1.707-.245c-.017.135-.059.178-.186.3a1.518,1.518,0,0,1,.549-.017c.338.051.507.118.473.347-.017.093-.144.549-.161.659l1.555.228Zm-5.384-2.375c.186-.008,1.386.017,1.513.034.11.017.135.093.127.144-.059.423-3.2.617-4.125.482-.051,0-.676-.118-.609-.575.059-.431.533-.363.769-.33.152.025.347.051,1.082.118l.135-.947c-.11,0-.651-.085-.769-.085-.085,0-.5.076-.592.059a.316.316,0,0,1-.3-.338.534.534,0,0,1,.541-.423c.068.008.211.093.279.11l2.384.347a.649.649,0,0,1,.558-.338.772.772,0,0,1,.651.769c-.034.254-.355.228-.516.2l-.981-.144-.135.913Zm-1.226,2.874a2.844,2.844,0,0,0,1.606-.194.573.573,0,0,1,.33-.11c.152.025.144.11.127.211a3.139,3.139,0,0,1-.676.795,2.468,2.468,0,0,1-1.877.448c-.609-.085-.879-.533-.837-.82s.423-.49.786-.456a2.589,2.589,0,0,0,.533.127Zm5.6-7.675a.83.83,0,0,1,.676-.355c.372.051.972.473.921.828,0,.051-.2.228-.211.287-.042.321-.228,1.91-.279,2.257-.076.5-.769.583-1.15.533s-.372-.287-.363-.431l-4.412-.634c-.11-.017-.609.068-.719.059-.152-.025-.372-.152-.347-.33a.54.54,0,0,1,.634-.4c.059.008.347.11.423.118l4.5.651.093-.668-4.412-.634c-.093-.017-.583.076-.693.059-.152-.025-.38-.144-.355-.347a.544.544,0,0,1,.626-.431c.059.008.347.11.423.118l4.5.651.1-.693-4.412-.634c-.11-.017-.626.085-.744.068-.178-.025-.372-.152-.338-.347a.616.616,0,0,1,.668-.49c.059.008.347.127.423.135l4.463.642Zm.566,5.384.118-.888-1.606-.228a.109.109,0,0,0-.11.085l-.118.786,1.707.245Z" transform="translate(-155.268 -27.306)" fill="#122c52"/>
          <path id="Path_279" data-name="Path 279" d="M187.755,49.761a4.13,4.13,0,0,1-.668,1.64,10.818,10.818,0,0,0,5.029,2.265c.237.051.355.076.338.194-.017.144-.5.321-.752.414a4.092,4.092,0,0,1-1.564.372,2.14,2.14,0,0,1-.8-.262,14.692,14.692,0,0,1-2.984-2.274,5.006,5.006,0,0,1-4.117.989,7.276,7.276,0,0,1-.913-.194c-.1-.042-.22-.1-.2-.211,0-.059.034-.059.338-.051a5.4,5.4,0,0,0,4.049-1.319,9.094,9.094,0,0,0-1.691-1.31c-.456-.161-.533-.178-.516-.321.034-.254.49-.262.719-.228A13.771,13.771,0,0,1,186,50.725a3.472,3.472,0,0,0,.44-1.166l-1.4-.2c-.068.059-.228.211-.837.127-.372-.051-.448-.211-.4-.549.042-.313.3-1.809.347-2.164l.034-.262a.339.339,0,0,0-.068-.194.321.321,0,0,1-.068-.22c.051-.321.7-.609,1.006-.566.118.017.49.144.516.482l1.336.194c.085-.6.11-.778.135-1.09l-2.8-.406a1.709,1.709,0,0,0-.287-.017c-.1,0-.592.135-.7.118-.178-.025-.44-.194-.4-.456a.653.653,0,0,1,.735-.533c.093.017.575.178.676.194,1.014.161,2.68.4,3.753.558.9.127,1.64.228,3.153.423a.886.886,0,0,1,.845-.448c.33.051.938.524.871.972s-.423.389-1.631.22l-2.874-.414c-.059.347-.127.761-.169,1.09l1.4.2a.954.954,0,0,1,.778-.33c.287.042.735.423.685.761a.313.313,0,0,1-.076.186.533.533,0,0,0-.118.3c-.051.355-.245,2.1-.3,2.51-.11.752-.913.634-1.04.617-.516-.076-.49-.228-.423-.693l-1.386-.2Zm-1.226-.727.127-.845-1.352-.194-.127.845Zm.2-1.4.127-.845-1.234-.178a.128.128,0,0,0-.135.076l-.11.752Zm2.485,1.792.127-.845-1.4-.2-.127.845Zm.2-1.4.1-.7c.008-.068,0-.144-.085-.161l-1.276-.186-.127.845Z" transform="translate(-157.375 -27.662)" fill="#122c52"/>
          <path id="Path_280" data-name="Path 280" d="M196.4,47.865c.034-.254.769-.583,1.107-.533.194.025.549.186.5.533-.008.085-.161.44-.186.533-.068.3-.38,1.767-.456,2.1a.784.784,0,0,1-.769.406c-.423-.059-.389-.279-.27-.837.051-.3.27-1.682.279-1.868-.068-.059-.211-.228-.194-.33Zm3.669-.642a.443.443,0,0,1,.524-.245.684.684,0,0,1,.592.634c-.059.423-1.564,1.285-1.877,1.243-.127.71-.693,4.784-.82,5.68-.076.549-.085.609-.27.778a1.081,1.081,0,0,1-.8.3.508.508,0,0,1-.482-.617c.017-.135.609-2.925.71-3.491.262-1.4.431-2.477.626-3.8a7.632,7.632,0,0,0,.118-1.352c-.161-.245-.178-.27-.169-.33.042-.279.871-.634,1.217-.583.152.025.5.161.456.49,0,.008-.093.3-.093.313-.051.186-.279,1.361-.44,2.265a11.352,11.352,0,0,0,.718-1.31Zm3.491,4.658a6.575,6.575,0,0,0,3.009,4.176c.068.042.3.186.3.228a5.518,5.518,0,0,1-1.927.482.491.491,0,0,1-.3-.118,5.418,5.418,0,0,1-1.462-4.827A4.715,4.715,0,0,1,201,54.94a4.368,4.368,0,0,1-2.333.423c-.085-.008-.194-.042-.178-.127a.082.082,0,0,1,.059-.068,1.948,1.948,0,0,1,.237-.051c2.139-.507,2.8-2.536,3.077-3.474l-1.454-.178c-.11-.017-.651.11-.786.093-.169-.025-.33-.11-.3-.321a.565.565,0,0,1,.609-.507c.051,0,.456.118.541.127l1.581.228c.211-1.175.262-1.479.38-2.206l-.634-.068c-.118-.017-.693.085-.828.068-.118-.017-.3-.1-.279-.3a.6.6,0,0,1,.651-.507c.051,0,.33.085.389.093l.778.1c.11-.786.152-1.31.178-1.538a.883.883,0,0,0-.161-.144.187.187,0,0,1-.068-.178c.059-.4,1.09-.626,1.412-.575a.42.42,0,0,1,.406.524c-.008.085-.11.507-.127.609-.068.3-.1.448-.279,1.488l.82.093c.423-.321.507-.38.718-.347.262.034.888.516.845.854a.627.627,0,0,1-.245.355c-.068.321-.3,1.471-.414,2.2l.211.034c.211-.279.456-.473.71-.431a.919.919,0,0,1,.693.879c-.034.237-.347.287-.634.254l-3.026-.44Zm1.074-2.764-.854-.1c-.127.871-.2,1.31-.372,2.257l.862.127Z" transform="translate(-159.716 -27.913)" fill="#122c52"/>
          <path id="Path_281" data-name="Path 281" d="M212.893,56.786a4.955,4.955,0,0,0-1.9-.668c-.879,1.074-.9,1.116-1.192,1.074-.44-.068-.642-.7-.6-1.023.034-.228.1-.254.431-.389A5.556,5.556,0,0,0,211.3,54.8l.279-1.953-.659-.059c-.11-.017-.642.118-.761.1a.281.281,0,0,1-.254-.355.551.551,0,0,1,.626-.524c.059.008.338.11.414.118l.71.068a1.063,1.063,0,0,1,.769-.338c.254.034.693.347.651.659-.008.085-.169.431-.186.507-.034.228-.161,1.344-.194,1.6-.051.372-.118.372-.7.533a1.244,1.244,0,0,0-.609.507,20.8,20.8,0,0,1,3.364.989,22.086,22.086,0,0,0,3.956,1.023,6.241,6.241,0,0,0,1.716.11,1.269,1.269,0,0,1,.363,0,.105.105,0,0,1,.1.135,4.433,4.433,0,0,1-.964.642,2.246,2.246,0,0,1-1.589.49,11.151,11.151,0,0,1-2.637-.955l-2.815-1.31Zm-1.784-8.039a.778.778,0,0,1,.871-.617c.811.118,1.4,1.53,1.369,1.75-.034.2-.3.186-.372.178a4.607,4.607,0,0,1-1.623-.769c-.27-.262-.262-.44-.254-.541Zm6.357,4.353a4.786,4.786,0,0,0,2.68,2.341c.287.127.414.194.406.262a2.449,2.449,0,0,1-1.462.744,3.677,3.677,0,0,1-1.877-2.713c-.042.406-.254,2.367-.3,2.671-.051.321-.668.473-.981.431-.2-.025-.456-.228-.423-.448.042-.313.355-1.817.406-2.164l.042-.279a4.439,4.439,0,0,1-3.322,1.547c-.118-.017-.169-.085-.161-.135s.034-.059.254-.161a6.428,6.428,0,0,0,2.088-1.623c.287-.389.406-.541.744-.49a.724.724,0,0,1,.5.279l.034-.228.042-.228-.989-.144c-.051.2-.524.313-.795.279-.431-.059-.44-.3-.423-.473.034-.228.228-1.344.271-1.6.008-.085.025-.152-.017-.194-.068-.11-.093-.135-.085-.186.034-.237.811-.533,1.074-.49a.493.493,0,0,1,.423.389l.888.127.118-.921h-.025c-.321-.051-1.809-.262-2.046-.237a6.071,6.071,0,0,1-.7.118c-.068-.008-.313-.042-.262-.38a.509.509,0,0,1,.6-.465c.059.008.33.11.4.118l2.079.3c.008-.085.042-.456.051-.516s-.186-.262-.178-.321c.042-.287.82-.617,1.217-.558a.462.462,0,0,1,.423.516c-.025.152-.237.9-.262,1.065l1.75.254a1.043,1.043,0,0,1,.752-.456c.279.042.811.541.761.888-.051.321-.516.254-.718.228l-2.646-.38c-.034.127-.135.778-.161.921l1.04.152c.11-.093.389-.347.617-.313.279.042.82.524.778.795,0,.051-.051.076-.076.11a.407.407,0,0,0-.1.254c-.042.3-.11,1.192-.135,1.361-.076.541-.727.541-1.04.5-.38-.059-.406-.178-.372-.406l-.888-.127Zm-1.251-.693.186-1.3-.811-.118c-.11-.017-.135,0-.152.051-.017.025-.178,1.107-.194,1.234l.972.144Zm2.215.321.186-1.3-1.057-.152c-.025.194-.169,1.1-.2,1.3l1.065.152Z" transform="translate(-161.719 -28.271)" fill="#122c52"/>
          <path id="Path_282" data-name="Path 282" d="M224.7,55.467c-.068-.008-.228-.2-.211-.3a4.336,4.336,0,0,1,3.246-1.336,2.992,2.992,0,0,1,1.471.626c1.724,1.141,2.451,1.614,3.254,1.724a3.021,3.021,0,0,0,2.257-.685.265.265,0,0,1,.22-.025.289.289,0,0,1,.194.262,3.968,3.968,0,0,1-3.508,1.724,5.88,5.88,0,0,1-2.6-1.319,5.034,5.034,0,0,0-2.291-1.158,2.951,2.951,0,0,0-1.183.144c-.1.034-.592.27-.7.313a.244.244,0,0,1-.152.025Z" transform="translate(-164.085 -29.209)" fill="#122c52"/>
        </g>
      </g>
    </g>
  </g>
</svg>
