<svg xmlns="http://www.w3.org/2000/svg" width="222" height="181" viewBox="0 0 222 181">
  <g id="Rectangle_31" data-name="Rectangle 31" fill="#fff" stroke="#9aafcf" stroke-width="1" stroke-dasharray="8">
    <rect width="222" height="181" stroke="none"/>
    <rect x="0.5" y="0.5" width="221" height="180" fill="none"/>
  </g>
  <g id="Group_59" data-name="Group 59" transform="translate(-2305.143 -2329.268)">
    <g id="Group_59-2" data-name="Group 59" transform="translate(2377.055 2442.179)">
      <path id="Path_284" data-name="Path 284" d="M2518.916,2867.741l-.755,8.281,2.7-7.32Z" transform="translate(-2518.161 -2867.741)" fill="#9aafcf"/>
    </g>
    <g id="Group_60" data-name="Group 60" transform="translate(2366.904 2412.206)">
      <path id="Path_285" data-name="Path 285" d="M2441.114,2625.442a2.789,2.789,0,0,1,2.231-.254l.559.122.913-.075-.2-1.5-5.942-1.007-3.6-2.243-3.4-3.85-1.674-1.14-2.016-4.977,15.058-9.055,13.282,1.642,4.072,3.979-1.106,4.026-.835,2.325-1.755,1.377-2.617,4.3-4.381,3.122.627,2.045,1.778-.679,3.052-.133,5.16,17-22.557-.288S2440.33,2626.33,2441.114,2625.442Z" transform="translate(-2427.979 -2601.468)" fill="#9aafcf"/>
    </g>
    <g id="Group_61" data-name="Group 61" transform="translate(2374.346 2435.196)">
      <path id="Path_286" data-name="Path 286" d="M2500.538,2806.4s-4.919-1.96-6.04.7a3.7,3.7,0,0,0,.4,4.138l3.066,2.42A23.145,23.145,0,0,1,2500.538,2806.4Z" transform="translate(-2494.086 -2805.704)" fill="#9aafcf"/>
    </g>
    <g id="Group_87" data-name="Group 87" transform="translate(2359.157 2388.199)">
      <g id="Group_63" data-name="Group 63" transform="translate(15.217 31.474)">
        <g id="Group_62" data-name="Group 62">
          <path id="Path_287" data-name="Path 287" d="M2498.685,2669.088a.648.648,0,0,0,.271-.449.98.98,0,0,0-.149-.513.572.572,0,0,0-.2-.251l-.031-.016a.6.6,0,0,0-.137-.035,6.854,6.854,0,0,0-1.485.1l-.858.052a4.4,4.4,0,0,0-1.046.084.953.953,0,0,0-.439.282c-.084.093-.287.268-.27.408.022.175.416.2.551.226l.541.1c.459.089.918.177,1.381.24A2.511,2.511,0,0,0,2498.685,2669.088Z" transform="translate(-2494.341 -2667.801)" fill="#9aafcf"/>
        </g>
      </g>
      <g id="Group_65" data-name="Group 65" transform="translate(26.805 29.5)">
        <g id="Group_64" data-name="Group 64">
          <path id="Path_288" data-name="Path 288" d="M2601.33,2651.108c.125-.06.5-.184.475-.359-.019-.14-.26-.257-.365-.325a.951.951,0,0,0-.5-.161,4.407,4.407,0,0,0-1.033.185l-.842.169a6.848,6.848,0,0,0-1.461.283.576.576,0,0,0-.124.069.264.264,0,0,0-.026.023.573.573,0,0,0-.13.294.984.984,0,0,0-.013.534.648.648,0,0,0,.377.365,2.511,2.511,0,0,0,1.868-.253c.431-.179.853-.382,1.274-.585Z" transform="translate(-2597.282 -2650.262)" fill="#9aafcf"/>
        </g>
      </g>
      <g id="Group_67" data-name="Group 67" transform="translate(16.279 34.529)">
        <g id="Group_66" data-name="Group 66">
          <path id="Path_289" data-name="Path 289" d="M2505.339,2698.218a.292.292,0,0,1-.247-.522l1.981-1.311-2.545-.359a.292.292,0,1,1,.082-.577l3.307.467a.291.291,0,0,1,.12.532l-2.623,1.735A.285.285,0,0,1,2505.339,2698.218Z" transform="translate(-2504.221 -2695.39)" fill="#9aafcf"/>
          <path id="Path_290" data-name="Path 290" d="M2504.81,2697.843a.348.348,0,0,1-.342-.417.346.346,0,0,1,.149-.22l1.857-1.229-2.4-.339a.348.348,0,0,1-.16-.623.343.343,0,0,1,.258-.066l3.307.467a.348.348,0,0,1,.143.635l-2.623,1.735a.348.348,0,0,1-.089.042h0A.342.342,0,0,1,2504.81,2697.843Zm-.686-2.785a.235.235,0,0,0-.032.469l2.692.38-2.1,1.392a.236.236,0,0,0-.1.149.233.233,0,0,0,.034.177.237.237,0,0,0,.266.1.233.233,0,0,0,.06-.029l2.623-1.735a.236.236,0,0,0-.1-.429l-3.307-.467A.2.2,0,0,0,2504.123,2695.058Z" transform="translate(-2503.776 -2694.945)" fill="#9aafcf"/>
        </g>
      </g>
      <g id="Group_69" data-name="Group 69" transform="translate(28.18 31.589)">
        <g id="Group_68" data-name="Group 68">
          <path id="Path_291" data-name="Path 291" d="M2613.472,2672.171a.292.292,0,0,0-.025-.577l-2.364-.233,2.083-1.507a.292.292,0,0,0-.342-.473l-2.706,1.958a.292.292,0,0,0,.142.526l3.13.308A.289.289,0,0,0,2613.472,2672.171Z" transform="translate(-2609.941 -2669.27)" fill="#9aafcf"/>
          <path id="Path_292" data-name="Path 292" d="M2612.976,2671.788l-.034,0-3.13-.308a.348.348,0,0,1-.17-.628l2.706-1.958a.348.348,0,0,1,.547.337.348.348,0,0,1-.14.227l-1.962,1.42,2.216.218a.348.348,0,0,1,.03.688h0A.378.378,0,0,1,2612.976,2671.788Zm-.425-2.85a.232.232,0,0,0-.137.045l-2.706,1.958a.235.235,0,0,0,.115.425l3.13.308a.243.243,0,0,0,.066,0h0a.235.235,0,0,0-.02-.466l-2.512-.247,2.2-1.594a.236.236,0,0,0-.1-.423Z" transform="translate(-2609.498 -2668.825)" fill="#9aafcf"/>
        </g>
      </g>
      <g id="Group_71" data-name="Group 71" transform="translate(0)">
        <g id="Group_70" data-name="Group 70">
          <path id="Path_293" data-name="Path 293" d="M2365.644,2421.973l-1.354-.6a3.845,3.845,0,0,1-.467-.42,2.9,2.9,0,0,1-.412-.542h0c-.257-.338-.2-.518-.425-.875a1.747,1.747,0,0,1-.462.082c-.825.069-3.081-1.6-3.343-3.517-.158-1.154.541-1.045.144-2.021s.039-.89.416-1.712a.978.978,0,0,0,.053-.674,4.944,4.944,0,0,1,.169-4.071,7.383,7.383,0,0,1,.751-1.221,2.814,2.814,0,0,1,.709-.624.5.5,0,0,0,.174-.179.482.482,0,0,0,.019-.255c-.158-1.089-1.432-1.4-1.008-2.415q.119-.286.263-.554a5.11,5.11,0,0,1,1.09-1.431.726.726,0,0,0,.13-.157,1.39,1.39,0,0,0,.139-.555,4.338,4.338,0,0,1,.5-1.7,3.613,3.613,0,0,1,1.178-1.294c.469-.317,1.018-.506,1.486-.823a2.061,2.061,0,0,0,.669-.775,5.613,5.613,0,0,1,3.719-2.781,1.316,1.316,0,0,1,.47-.106,1.428,1.428,0,0,0,1.313-.69,2.664,2.664,0,0,1,2.627-1.125.474.474,0,0,0,.324-.158,4.132,4.132,0,0,1,2.248-1.27,4.945,4.945,0,0,0,1.978-.879,2.8,2.8,0,0,1,2.673.032.634.634,0,0,0,.633-.043,2.731,2.731,0,0,1,2.506-.215,4.964,4.964,0,0,1,.9.458,2.205,2.205,0,0,0,1.287.184,2.869,2.869,0,0,1,1.74.623c.435.341.826.742,1.247,1.1a.621.621,0,0,0,.334.14,5.037,5.037,0,0,1,2.849,1.208,2.853,2.853,0,0,1,.6.79,1.713,1.713,0,0,0,.813.751,3.077,3.077,0,0,1,1.486,1.516.908.908,0,0,0,.434.372c.609.263-1.266-1.284-.689-.964a5.186,5.186,0,0,1,1.659,1.639,1.162,1.162,0,0,0,.349.332c1.146.67.85.3,1.214,1.621.11.4,1.053.981,1.278,1.289,1.007,1.376,1.218,1.754,1.049,3.457a.429.429,0,0,0,.179.453,5.709,5.709,0,0,1,2,3.8s.816,2.416.314,3.31a4.711,4.711,0,0,1-.607.847.283.283,0,0,0-.05.088.718.718,0,0,0-.032.308,4.086,4.086,0,0,1-.469,2.226l-.015.03a.865.865,0,0,1-.283.364c-.4.241-.267,1.233-.492,1.627a2.128,2.128,0,0,1-1.359.979c-.088.005-.17.017-.253.028-.882.177-.723.845-.723.845s.584,1.26-1.165,1.219,0,0,0,0c-.211.251-.13.419-.585.8s-1.563.11-1.563.11l-.176-.07c-.129-.07-.023-.021-.146-.1-.043-.04-.092-.081-.151-.126-.391-.305-.311-.17-.447-.606-.087-.279-.189-.409-.508-.378a2.619,2.619,0,0,1-1.819-.534,5.092,5.092,0,0,1-1.917-2.507.469.469,0,0,0-.506-.384,4.231,4.231,0,0,1-3.035-1.163,4.422,4.422,0,0,1-.465.1,3.12,3.12,0,0,1-1.618.486c-.052.009-.1.021-.155.028a3.673,3.673,0,0,1-.677.032,4.919,4.919,0,0,1-1.2.8,2.821,2.821,0,0,1-1.039.4c-.132.038-.263.073-.393.1a5.331,5.331,0,0,1-3.846-.45c-.024,0-.048,0-.072-.006-.007.018-.016.033-.022.051-.043.108-.091.211-.14.313-.021.043-.04.087-.062.128a4.379,4.379,0,0,1-.229.391,4.594,4.594,0,0,1-2.281,1.771,3.879,3.879,0,0,1-1.172.167.581.581,0,0,0-.519.236.74.74,0,0,0-.069.185,6.5,6.5,0,0,1-.26.675,6.125,6.125,0,0,1-.265.618c-.039.078-.08.153-.121.228s-.1.175-.148.258c-.075.121-.152.24-.235.352l-.03.04a5.706,5.706,0,0,1-1.991,1.642c-1.062.354-.672-.243-1.554-.219a.468.468,0,0,0-.137-.012c-.25.013-.5.01-.746,0a8.889,8.889,0,0,1-2.206-.434c0,.016-.02.025-.042.03" transform="translate(-2359.157 -2388.199)" fill="#9aafcf"/>
        </g>
      </g>
      <g id="Group_73" data-name="Group 73" transform="translate(9.763 29.1)">
        <g id="Group_72" data-name="Group 72">
          <path id="Path_294" data-name="Path 294" d="M2463.765,2663.931a13.992,13.992,0,0,1-12.507-2.03c-4.07-2.945-5.315-10.409-5.366-10.726a.553.553,0,0,1,1.093-.176c.012.073,1.225,7.329,4.922,10a12.909,12.909,0,0,0,11.539,1.863,15.063,15.063,0,0,0,5.548-3.185c3.779-3.374,3.652-9.625,3.422-12.156-.018-.2-.065-.725.453-.8s.631.43.674.622a.549.549,0,0,1-.008.269c.284,3.389.128,9.386-3.8,12.9A16.191,16.191,0,0,1,2463.765,2663.931Z" transform="translate(-2445.885 -2646.712)" fill="#9aafcf"/>
        </g>
      </g>
      <g id="Group_86" data-name="Group 86" transform="translate(18.881 36.782)">
        <g id="Group_75" data-name="Group 75">
          <g id="Group_74" data-name="Group 74">
            <path id="Path_295" data-name="Path 295" d="M2535.189,2721.252a8.1,8.1,0,0,1-.869.253c-.131.021-2.928.464-4.628-.347a3.451,3.451,0,0,1-2.271-2.5h0c-.174-.855.468-1.265,1.046-1.525a2.15,2.15,0,0,1,1.708.178,6.736,6.736,0,0,0,1.485.421,4.884,4.884,0,0,0,3.659-.8,6.563,6.563,0,0,0,.7-.6,2.63,2.63,0,0,1,1.389-.85,1.936,1.936,0,0,1,1.937.729c.526.873-.216,2.037-.46,2.419A7.19,7.19,0,0,1,2535.189,2721.252Zm-7.256-2.7c.133.651.472,1.414,1.989,2.137,1.552.74,4.277.31,4.3.305s2.951-.658,4.215-2.639c.2-.316.815-1.277.452-1.878a1.444,1.444,0,0,0-1.4-.487,2.179,2.179,0,0,0-1.113.712,7.037,7.037,0,0,1-.754.647,5.4,5.4,0,0,1-4.042.894,7.268,7.268,0,0,1-1.6-.449c-.547-.206-.941-.356-1.306-.191-.72.325-.819.594-.747.949Z" transform="translate(-2527.335 -2715.398)" fill="#9aafcf"/>
            <path id="Path_296" data-name="Path 296" d="M2531.991,2721.26a6.708,6.708,0,0,1-2.772-.495,3.5,3.5,0,0,1-2.3-2.537c-.182-.9.48-1.319,1.078-1.588a2.19,2.19,0,0,1,1.751.177,6.7,6.7,0,0,0,1.472.418,4.831,4.831,0,0,0,3.618-.79,6.484,6.484,0,0,0,.69-.594,2.678,2.678,0,0,1,1.422-.867,1.993,1.993,0,0,1,1.994.756c.544.9-.212,2.089-.461,2.478a7.3,7.3,0,0,1-3.723,2.644h0a7.877,7.877,0,0,1-.876.255A12.576,12.576,0,0,1,2531.991,2721.26Zm-3.421-4.629a1.275,1.275,0,0,0-.529.112c-.559.252-1.18.647-1.013,1.463.146.716.532,1.643,2.24,2.458s4.566.347,4.595.342a7.758,7.758,0,0,0,.86-.25h0a7.193,7.193,0,0,0,3.665-2.6c.24-.375.968-1.517.459-2.36a1.879,1.879,0,0,0-1.879-.7,2.577,2.577,0,0,0-1.357.833,6.634,6.634,0,0,1-.708.608,4.938,4.938,0,0,1-3.7.81,6.76,6.76,0,0,1-1.495-.424A3.365,3.365,0,0,0,2528.57,2716.631Zm3.418,4.11a6.192,6.192,0,0,1-2.539-.441c-1.539-.734-1.884-1.512-2.02-2.177h0c-.076-.374.028-.673.779-1.012.384-.174.785-.023,1.341.187a7.269,7.269,0,0,0,1.591.449,5.346,5.346,0,0,0,4-.884,7.069,7.069,0,0,0,.748-.642,2.219,2.219,0,0,1,1.143-.727,1.5,1.5,0,0,1,1.461.513c.38.631-.247,1.614-.453,1.938-1.256,1.969-4.128,2.637-4.25,2.664A12.521,12.521,0,0,1,2531.988,2720.741Zm-3.419-3.593a.751.751,0,0,0-.314.065c-.69.311-.783.552-.715.887h0c.13.637.464,1.385,1.958,2.1,1.524.727,4.244.3,4.271.3.117-.026,2.946-.684,4.177-2.614.2-.309.8-1.248.451-1.819a1.387,1.387,0,0,0-1.346-.46,2.139,2.139,0,0,0-1.084.7,7.153,7.153,0,0,1-.76.652,5.452,5.452,0,0,1-4.083.9,7.323,7.323,0,0,1-1.607-.452A2.963,2.963,0,0,0,2528.569,2717.148Z" transform="translate(-2526.886 -2714.955)" fill="#9aafcf"/>
          </g>
        </g>
        <g id="Group_77" data-name="Group 77" transform="translate(1.114 2.123)">
          <g id="Group_76" data-name="Group 76">
            <path id="Path_297" data-name="Path 297" d="M2537.923,2737.159l-.453-.255,1.4-2.415.453.255Z" transform="translate(-2537.393 -2734.413)" fill="#9aafcf"/>
            <path id="Path_298" data-name="Path 298" d="M2537.335,2736.634l-.551-.31,1.458-2.512.551.31Zm-.4-.352.355.2,1.344-2.318-.355-.2Z" transform="translate(-2536.784 -2733.812)" fill="#9aafcf"/>
          </g>
        </g>
        <g id="Group_79" data-name="Group 79" transform="translate(3.241 2.471)">
          <g id="Group_78" data-name="Group 78">
            <path id="Path_299" data-name="Path 299" d="M2556.786,2740.825l-.51-.108.722-3.218.51.108Z" transform="translate(-2556.208 -2737.432)" fill="#9aafcf"/>
            <path id="Path_300" data-name="Path 300" d="M2556.3,2740.365l-.62-.132.747-3.328.62.132Zm-.485-.218.4.085.7-3.108-.4-.085Z" transform="translate(-2555.677 -2736.906)" fill="#9aafcf"/>
          </g>
        </g>
        <g id="Group_81" data-name="Group 81" transform="translate(5.587 2.482)">
          <g id="Group_80" data-name="Group 80">
            <path id="Path_301" data-name="Path 301" d="M2577.931,2740.947l-.52.056-.346-3.393.52-.056Z" transform="translate(-2577.004 -2737.493)" fill="#9aafcf"/>
            <path id="Path_302" data-name="Path 302" d="M2576.875,2740.577l-.357-3.5.632-.068.357,3.5Zm-.234-3.4.334,3.281.408-.044-.335-3.281Z" transform="translate(-2576.518 -2737.004)" fill="#9aafcf"/>
          </g>
        </g>
        <g id="Group_83" data-name="Group 83" transform="translate(7.094 1.997)">
          <g id="Group_82" data-name="Group 82">
            <path id="Path_303" data-name="Path 303" d="M2592.146,2736.559l-1.564-2.951.463-.243,1.564,2.951Z" transform="translate(-2590.506 -2733.29)" fill="#9aafcf"/>
            <path id="Path_304" data-name="Path 304" d="M2591.521,2736.036l-1.616-3.05.563-.3,1.617,3.05Zm-1.464-3,1.511,2.852.363-.191-1.511-2.852Z" transform="translate(-2589.905 -2732.691)" fill="#9aafcf"/>
          </g>
        </g>
        <g id="Group_85" data-name="Group 85" transform="translate(8.292 0.94)">
          <g id="Group_84" data-name="Group 84">
            <path id="Path_305" data-name="Path 305" d="M2603.775,2726.644l-2.515-2.256.352-.384,2.515,2.256Z" transform="translate(-2601.18 -2723.925)" fill="#9aafcf"/>
            <path id="Path_306" data-name="Path 306" d="M2603.148,2726.1l-2.6-2.331.428-.467,2.6,2.331Zm-2.438-2.338,2.431,2.18.277-.3-2.431-2.18Z" transform="translate(-2600.55 -2723.302)" fill="#9aafcf"/>
          </g>
        </g>
      </g>
    </g>
    <g id="Group_89" data-name="Group 89" transform="translate(2367.297 2421.853)">
      <g id="Group_88" data-name="Group 88" transform="translate(0 0)">
        <path id="Path_307" data-name="Path 307" d="M2435.481,2693.559a.545.545,0,0,1-.273.014c-3.723-.751-3.742-5.646-3.741-5.854a.554.554,0,0,1,1.107,0c0,.058.029,4.194,2.853,4.764a.553.553,0,0,1,.054,1.071Z" transform="translate(-2431.467 -2687.168)" fill="#9aafcf"/>
      </g>
    </g>
    <g id="Group_91" data-name="Group 91" transform="translate(2395.621 2418.668)">
      <g id="Group_90" data-name="Group 90">
        <path id="Path_308" data-name="Path 308" d="M2683.806,2665.772a.554.554,0,0,1-.369-1.043c2.692-1.072,1.962-5.156,1.954-5.2a.554.554,0,0,1,1.088-.2c.039.2.9,5.024-2.632,6.429Z" transform="translate(-2683.089 -2658.876)" fill="#9aafcf"/>
      </g>
    </g>
    <g id="Group_93" data-name="Group 93" transform="translate(2360.706 2415.684)">
      <g id="Group_92" data-name="Group 92" transform="translate(0)">
        <path id="Path_309" data-name="Path 309" d="M2373,2632.371s-.5.99,1.015,2.4c0,0,.655,2.884,2.678,3.488a3.07,3.07,0,0,0,3.571,2.061s-1.161-2.723-1.146-2.708-.665-4.012-.665-4.012Z" transform="translate(-2372.92 -2632.371)" fill="#9aafcf"/>
      </g>
    </g>
    <g id="Group_95" data-name="Group 95" transform="translate(2398.15 2410.51)">
      <g id="Group_94" data-name="Group 94" transform="translate(0 0)">
        <path id="Path_310" data-name="Path 310" d="M2710.305,2586.4s.8.771-.173,2.6c0,0,.326,2.939-1.388,4.173a3.07,3.07,0,0,1-2.7,3.117s.205-2.953.2-2.934-.687-4.008-.687-4.008Z" transform="translate(-2705.556 -2586.401)" fill="#9aafcf"/>
      </g>
    </g>
    <g id="Group_96" data-name="Group 96" transform="translate(2380.555 2435.823)">
      <path id="Path_311" data-name="Path 311" d="M2552.437,2811.427c-.182-.1-1.657,3.127,2.781,5.757l-4.059-.5.657-1.97-2.565.679s1.5-3.474,2.465-3.906S2552.437,2811.427,2552.437,2811.427Z" transform="translate(-2549.25 -2811.278)" fill="#9aafcf"/>
    </g>
    <g id="Group_97" data-name="Group 97" transform="translate(2386.807 2434.337)">
      <path id="Path_312" data-name="Path 312" d="M2604.785,2805.437s.633-5.727,2.636-7.088l1.585-.275.993,2.558-3.119.67,1.739,1.376C2606.522,2803.038,2604.785,2805.437,2604.785,2805.437Z" transform="translate(-2604.785 -2798.074)" fill="#9aafcf"/>
    </g>
    <g id="Group_98" data-name="Group 98" transform="translate(2380.823 2437.239)">
      <path id="Path_313" data-name="Path 313" d="M2562.781,2827.29l-.282,1.833c-3.776,3.615-10.849,1.722-10.849,1.722-.084-1.417.08-4.082.08-4.082l1.583-.352-.693,1.869,4.927.6a9.535,9.535,0,0,1,4.695-3.138l-1.687-1.356,2.276-.532Z" transform="translate(-2551.625 -2823.856)" fill="#9aafcf"/>
    </g>
    <g id="Group_99" data-name="Group 99" transform="translate(2393.004 2434.203)">
      <path id="Path_314" data-name="Path 314" d="M2659.84,2796.984s4.146-1.12,5.2,3.967a79.195,79.195,0,0,1,1.035,12.925l-5.613.137S2661.692,2800.25,2659.84,2796.984Z" transform="translate(-2659.84 -2796.879)" fill="#9aafcf"/>
    </g>
    <g id="Group_100" data-name="Group 100" transform="translate(2383.405 2434.61)">
      <path id="Path_315" data-name="Path 315" d="M2575.279,2802.931a.281.281,0,0,1-.274-.218l-.433-1.872a.281.281,0,1,1,.548-.126l.433,1.872a.282.282,0,0,1-.274.345Z" transform="translate(-2574.565 -2800.496)" fill="#9aafcf"/>
    </g>
    <g id="Group_101" data-name="Group 101" transform="translate(2388.563 2433.259)">
      <path id="Path_316" data-name="Path 316" d="M2621.1,2790.934a.282.282,0,0,1-.274-.218l-.433-1.872a.281.281,0,1,1,.548-.127l.433,1.872a.281.281,0,0,1-.211.337A.272.272,0,0,1,2621.1,2790.934Z" transform="translate(-2620.384 -2788.5)" fill="#9aafcf"/>
    </g>
    <g id="Group_106" data-name="Group 106" transform="translate(2359.919 2422.241)">
      <g id="Group_102" data-name="Group 102" transform="translate(0.573 0.468)">
        <path id="Path_317" data-name="Path 317" d="M2371.022,2699.62l.043-1.434.589-.64.508-1.236,1-.595.513-.933,2.122.373,1.44.6.854,1.936.537,1.976,7.274,7.056-3.025,2.736-7.572-7.775-2.179-.218Z" transform="translate(-2371.022 -2694.782)" fill="#9aafcf"/>
      </g>
      <g id="Group_103" data-name="Group 103" transform="translate(3.169 0.477)">
        <path id="Path_318" data-name="Path 318" d="M2406.688,2707.512l-8.514-8.1.02-.193a7.234,7.234,0,0,0-.142-2.05,2.432,2.432,0,0,0-1.266-1.439c-.1-.04-1.057-.392-1.627.872-.454,1.008-.266,1.4-.173,1.514a.531.531,0,0,0,.355-.128,1.093,1.093,0,0,0,.171-.888l-.021-.2.752-.663.521.591-.453.4a1.649,1.649,0,0,1-.436,1.342,1.363,1.363,0,0,1-1.107.323l-.056-.01-.051-.025c-.046-.022-1.122-.579-.221-2.576a2.017,2.017,0,0,1,2.665-1.268,3.193,3.193,0,0,1,1.716,1.988,8.1,8.1,0,0,1,.171,2.1l8.239,7.842Z" transform="translate(-2394.082 -2694.861)" fill="#9aafcf"/>
      </g>
      <g id="Group_104" data-name="Group 104" transform="translate(0 0)">
        <path id="Path_319" data-name="Path 319" d="M2378.52,2706.692l-7.582-8.334a3.174,3.174,0,0,1-2.263-.315c-.469-.266-2.756-1.622-2.745-2.833a1.393,1.393,0,0,1,.412-1.07,1.1,1.1,0,0,1,.4-.229,2.351,2.351,0,0,1,1.536-2.185,1.508,1.508,0,0,1,.666-.968c.828-.533,1.76.651,1.864.788l-.628.476.314-.238-.314.238c-.273-.359-.7-.673-.809-.6a.716.716,0,0,0-.333.586l.018.329-.321.07a1.591,1.591,0,0,0-1.192,1.8l.05.478-.478-.044a.382.382,0,0,0-.245.091.708.708,0,0,0-.147.488c0,.553,1.4,1.606,2.349,2.143l.01.006a2.362,2.362,0,0,0,1.847.173l.249-.092,7.929,8.716Z" transform="translate(-2365.931 -2690.621)" fill="#9aafcf"/>
      </g>
      <g id="Group_105" data-name="Group 105" transform="translate(1.844 2.096)">
        <path id="Path_320" data-name="Path 320" d="M2383.8,2714.27a3.9,3.9,0,0,1-1.491-.387l.339-.711-.169.356.169-.356c.411.2,1.147.413,1.419.263.026-.014.08-.044.1-.188l.034-.288.285-.053c.049-.009,1.224-.243,1.085-1.038l-.084-.479.485.017h0a.529.529,0,0,0,.341-.121.4.4,0,0,0,.065-.316,1.492,1.492,0,0,0-.651-1.052l.407-.675a2.3,2.3,0,0,1,1.028,1.647,1.087,1.087,0,0,1-.8,1.246,1.878,1.878,0,0,1-1.484,1.484.939.939,0,0,1-.433.506A1.333,1.333,0,0,1,2383.8,2714.27Z" transform="translate(-2382.312 -2709.241)" fill="#9aafcf"/>
      </g>
    </g>
    <g id="Group_107" data-name="Group 107" transform="translate(2370.973 2432.359)">
      <path id="Path_321" data-name="Path 321" d="M2471.4,2783.688c.673-.686-.952-.509-1.68-.717.066-.384-2.115-2.062-2.394-1.66,0,0,.193-1.629-1.963-.279s-.838,4.316-.838,4.316a12.174,12.174,0,0,0,2.856,2.679c1.134.513,1.82.917,1.82.917Z" transform="translate(-2464.126 -2780.497)" fill="#9aafcf"/>
    </g>
    <g id="Group_108" data-name="Group 108" transform="translate(2394.399 2418.207)">
      <path id="Path_322" data-name="Path 322" d="M2672.285,2654.783s.465,3.975-.054,4.708l1.478-.576.758-3.99Z" transform="translate(-2672.231 -2654.783)" fill="#9aafcf"/>
    </g>
    <g id="Group_109" data-name="Group 109" transform="translate(2368.94 2420.948)">
      <path id="Path_323" data-name="Path 323" d="M2448.153,2679.131s.465,3.975,1.139,4.568l-1.57-.219-1.659-3.707Z" transform="translate(-2446.063 -2679.131)" fill="#9aafcf"/>
    </g>
    <g id="Group_110" data-name="Group 110" transform="translate(2370.362 2425.669)">
      <path id="Path_324" data-name="Path 324" d="M2460.587,2721.85l-.037,0-1.612-.214a.282.282,0,0,1,.074-.558l1.612.214a.282.282,0,0,1-.037.561Z" transform="translate(-2458.694 -2721.072)" fill="#9aafcf"/>
    </g>
    <g id="Group_111" data-name="Group 111" transform="translate(2370.65 2426.63)">
      <path id="Path_325" data-name="Path 325" d="M2463.153,2730.386l-.037,0-1.612-.214a.282.282,0,0,1,.074-.558l1.612.214a.282.282,0,0,1-.037.561Z" transform="translate(-2461.259 -2729.608)" fill="#9aafcf"/>
    </g>
    <g id="Group_112" data-name="Group 112" transform="translate(2394.231 2422.698)">
      <path id="Path_326" data-name="Path 326" d="M2671.019,2695.825a.282.282,0,0,1-.1-.544l1.519-.58a.281.281,0,0,1,.2.526l-1.519.581A.278.278,0,0,1,2671.019,2695.825Z" transform="translate(-2670.738 -2694.681)" fill="#9aafcf"/>
    </g>
    <g id="Group_113" data-name="Group 113" transform="translate(2394.171 2423.7)">
      <path id="Path_327" data-name="Path 327" d="M2670.494,2704.724a.281.281,0,0,1-.1-.544l1.519-.581a.281.281,0,0,1,.2.526l-1.519.581A.278.278,0,0,1,2670.494,2704.724Z" transform="translate(-2670.212 -2703.58)" fill="#9aafcf"/>
    </g>
  </g>
  <text id="籌備中" transform="translate(110 101.181)" fill="#9aafcf" font-size="18" font-family="NotoSansTC-Regular, Noto Sans TC"><tspan x="0" y="0">籌備中</tspan></text>
</svg>
