<svg xmlns="http://www.w3.org/2000/svg" width="148.021" height="124.73" viewBox="0 0 148.021 124.73">
  <g id="Group_401" data-name="Group 401" transform="translate(0.001 0)">
    <path id="Path_1434" data-name="Path 1434" d="M115.14,84.97a.417.417,0,0,0,.02-.06,6.426,6.426,0,0,0-.75-5.53,5.826,5.826,0,0,0-4.64-2.3,6.3,6.3,0,0,0-5.47,2.77,5.7,5.7,0,0,0-.83,2.22,6.155,6.155,0,0,0,2.19,5.45,6.525,6.525,0,0,0,5.31,1.27,5.378,5.378,0,0,0,4.17-3.8Zm-1.34-2.65c-.82-1.17-1.61-2.27-2.43-3.43A3.487,3.487,0,0,1,113.8,82.32Zm-8.73-.04c1.22,1.69,2.41,3.33,3.61,4.99C106.82,87.48,104.46,84.25,105.07,82.28Zm5.57,5.07c-.7-.94-1.36-1.82-1.99-2.7-.89-1.24-1.73-2.5-2.63-3.72-.29-.4-.27-.69.11-.97l.72-.55c1.76,2.48,3.49,4.91,5.29,7.45-.61.2-1.09.36-1.5.49Zm2.52-1.66q-2.5-3.525-5-7.03c.74-.36.98-.29,1.44.36,1.15,1.62,2.31,3.25,3.49,4.86.57.78.6.9.07,1.82Z" fill="#132c53"/>
    <path id="Path_1435" data-name="Path 1435" d="M85.08,78.96a6.575,6.575,0,0,0-1.49,1.44c-2.55,3.46-.1,8.3,3.86,9.19a5.981,5.981,0,0,0,3-.11,5.036,5.036,0,0,0,3.06-2.15c1.86-3.04,1.2-7.33-2.24-8.87a6.43,6.43,0,0,0-6.2.49Zm-.94,4.13c.09.11.14.17.18.22q1.71,2.415,3.43,4.83C85.78,88.17,83.62,85.22,84.14,83.09Zm5.58,5.11c-.7-.94-1.36-1.82-1.99-2.7-.88-1.24-1.73-2.5-2.62-3.72-.3-.4-.28-.69.1-.97.21-.16.41-.32.72-.55,1.76,2.48,3.49,4.91,5.29,7.45-.6.2-1.09.36-1.5.49Zm2.51-1.67q-2.5-3.525-4.99-7.01a.873.873,0,0,1,1.39.28q1.77,2.49,3.57,4.97c.52.72.55.93.02,1.76Zm.67-3.34c-.86-1.19-1.63-2.3-2.47-3.48A3.6,3.6,0,0,1,92.9,83.19Z" fill="#132c53"/>
    <path id="Path_1436" data-name="Path 1436" d="M147.57,94.52l-2.5-1.18V90.86a.781.781,0,0,0-.45-.71L120.04,78.29l.13-.6c.63-3.21,1.24-6.42,1.86-9.63a.448.448,0,0,1,.31-.29,5.806,5.806,0,0,0,2.63-.61,4.545,4.545,0,0,0,2.92-3.38c.44-2.35-.25-5.4-2.2-6.94a4.185,4.185,0,0,0-4.39-.49c-.36-1.02-.71-2.02-1.09-3.02a1.047,1.047,0,0,0-1.39-.78c-.26.04-.52.06-.78.11s-.39-.03-.48-.29c-.29-.91-.58-1.82-.91-2.72-.7-1.89-1.42-3.78-2.14-5.67a.749.749,0,0,0-.78-.48c-.45,0-.91.06-1.36.08-1.35.05-2.69.1-4.05.13a.766.766,0,0,1-.69-.96c.21-.78.43-1.55.65-2.31.29-1.03.59-2.07.89-3.1a2.554,2.554,0,0,0,2.86-3.42,2.885,2.885,0,0,0-2.54-1.8,2.766,2.766,0,0,0-2.88,3.41c.09.32,0,.44-.25.59-.55.33-1.09.67-1.63,1.03-.87.58-1.74,1.18-2.58,1.75-1.11-.71-2.19-1.41-3.28-2.08a25.77,25.77,0,0,0-7.78-3.37,8.161,8.161,0,0,0-3.96.05,2.839,2.839,0,0,0-2.19,2.3,18.322,18.322,0,0,0-.05,5.63c.16,1.27.4,2.53.6,3.82-.29.03-.59.06-.9.1-1.65.17-3.31.35-4.95.54-.59.07-.77.36-.69.94a1.414,1.414,0,0,1-.02.41,48.7,48.7,0,0,1-2.14,7.78.387.387,0,0,1-.44.32c-.55-.02-1.09,0-1.65.02a1.034,1.034,0,0,0-1.11.97c-.18.8-.4,1.6-.59,2.4a5.053,5.053,0,0,0-3.41.03,6.17,6.17,0,0,0-3.62,7,5.715,5.715,0,0,0,5.29,4.93,17.811,17.811,0,0,0,2.52-.03c.55,1.64,1.1,3.33,1.68,5.03h0a28.007,28.007,0,0,1,1.14,3.23L52.43,90.58a.8.8,0,0,0-.45.71v2.48l-2.5,1.18a.784.784,0,0,0-.45.72v7.2a.79.79,0,0,0,1.58,0V96.18L77.46,83.47l.45,2.28c-4.07,1.96-24.56,11.8-24.79,11.91a.8.8,0,0,0-.45.71v3.39a.788.788,0,0,0,.79.79.807.807,0,0,0,.34-.08L75.59,91.98a.794.794,0,0,0-.69-1.43l-20.65,9.94V98.86c3.04-1.46,19.58-9.41,23.97-11.52.31,1.55.61,3.1.92,4.64.1.46.18.92.29,1.37a.929.929,0,0,0,.99.75c.4-.09.59-.44.51-1.01-.06-.39-.15-.77-.22-1.15-.18-.94-.36-1.86-.54-2.8a.1.1,0,0,0,.07-.02c.71,1.93,1.41,3.86,2.07,5.68-.31.15-.65.21-.79.42a1.13,1.13,0,0,0-.06.78c.03.16.22.3.36.42,1.05.84,2.12,1.66,3.18,2.5.16.12.3.27.45.4a.73.73,0,0,1-.09.13,8.183,8.183,0,0,1-1.09-.48c-1.4-.9-2.77-1.82-4.16-2.73a3.96,3.96,0,0,0-.52-.31.755.755,0,0,0-1,.35.592.592,0,0,0,.29.9c.2.12.38.27.53.38a16.331,16.331,0,0,0-1.79.77,3.059,3.059,0,0,0-1.84,2.5c-.03.45-.02.9-.07,1.36a.389.389,0,0,1-.21.29c-.2.11-.4.2-.6.3-.04.01-.08,0-.12.03l-2.3,1.03-.1-5.51a.8.8,0,0,0-.33-.63.765.765,0,0,0-.7-.11l-28.3,9.12a.795.795,0,0,0,.24,1.55.672.672,0,0,0,.24-.04l27.28-8.79.09,5.12L67,106.3a.786.786,0,0,0-.47.72V117.7a.8.8,0,0,0,.8.79.815.815,0,0,0,.31-.06l3.44-1.48v4.81a.79.79,0,0,0,1.58,0v-5.4s-.01-.05-.02-.08l.63-.27a.793.793,0,0,0-.62-1.46l-4.53,1.95v-8.96l7.31-3.27s.02-.02.03-.02l.59-.28a30.927,30.927,0,0,0,2.59,7.24s.07.12.18.29l-3.72,1.93a.795.795,0,0,0,.36,1.5.768.768,0,0,0,.36-.09l4.16-2.16a.924.924,0,0,0,.27.08h.05a13.937,13.937,0,0,0,4.82-.14.909.909,0,0,0,.52-.45c.23-.46.4-.95.55-1.34.79,1.35,1.56,2.73,2.39,4.07a7.785,7.785,0,0,0,2.77,2.7A24.311,24.311,0,0,0,94,118.79a1.034,1.034,0,0,1,.7.81,13.477,13.477,0,0,1,.2,1.4,3.078,3.078,0,0,0,2.68,3.18c.12.03.24.09.36.11.71.15,1.43.3,2.15.44h2.16a3.582,3.582,0,0,1,.45-.09,6.532,6.532,0,0,0,4.38-2.02,2.312,2.312,0,0,0,.68-1.74c-.02-.61,0-1.23-.07-1.83a.885.885,0,0,1,.58-1.01,6.553,6.553,0,0,0,2.62-2.16,13.462,13.462,0,0,0,2.33-8.58,15.407,15.407,0,0,1-.07-1.92,1.715,1.715,0,0,0-.58-1.6,9.23,9.23,0,0,0-5.64-2.04.57.57,0,0,0-.64.55.551.551,0,0,0,.43.71c.2.05.4.1.59.16,1.25.44,2.51.86,3.75,1.32.48.18.5.47.09.75a6.426,6.426,0,0,1-1.54.89c-1.38.46-2.79.81-4.19,1.22-.37.11-.51-.06-.49-.38a10.115,10.115,0,0,1,.13-1.83,7.91,7.91,0,0,0-.77-5.64c-.18-.32-.29-.69-.47-1.02a3.125,3.125,0,0,1,.73-3.73c.21-.23.44-.23.58.1.09.19.17.38.26.55a.739.739,0,1,0,1.34-.61c-.13-.34-.29-.66-.44-.99a1.017,1.017,0,0,0-1.09-.7c-2.35.11-4.7.21-7.05.32-.98.04-1.97.11-2.96.15a.879.879,0,0,0-.89.57,7.732,7.732,0,0,0-.32,1.28.657.657,0,0,0,.52.78.692.692,0,0,0,.86-.4,2.011,2.011,0,0,0,.16-.49c.07-.43.41-.35.66-.3.11.02.21.28.25.44a.656.656,0,0,1-.06.36,5.953,5.953,0,0,0,.59,4.54c.32.6.67,1.2,1.01,1.8a2.406,2.406,0,0,1,.28,1.86c-.25.78-.61,1.52-.95,2.35-1.91-1.4-3.76-2.75-5.62-4.11.77-.52.92-.97.48-1.49a13.531,13.531,0,0,0-2.9-2.68c.33,0,.61.02.89,0a.715.715,0,0,1,.67.32c.59.78,1.19,1.54,1.79,2.3.82,1.01,1.62,2.04,2.46,3.04.36.44.75.5,1.1.21a.816.816,0,0,0,.12-1.14c-.06-.09-.12-.18-.19-.27-.54-.67-1.09-1.34-1.62-2.01-.59-.72-1.17-1.45-1.84-2.29a9.163,9.163,0,0,0,1.26.33c.3.04.78.06.89-.1a2.271,2.271,0,0,0,.37-1.28c-.03-.41-.53-.48-.92-.49-2.95-.06-5.9-.13-8.85-.19-.75-.02-.84-.05-1.1-.75-.82-2.22-1.64-4.43-2.43-6.66q-1.755-4.92-3.49-9.86a.632.632,0,0,0-.07-.26.265.265,0,0,0-.05-.06c-1-2.82-2-5.63-2.99-8.45-.07-.21-.13-.44-.21-.71,1.86-.11,3.64-.21,5.42-.31,1-.06,2.01-.06,3.01-.11,2.58-.14,5.16-.3,7.74-.44q2.91-.15,5.83-.31c2.62-.14,5.23-.3,7.85-.45,1.25-.07,2.5-.13,3.76-.21q3.45-.21,6.9-.45c1.24-.1,2.49-.25,3.73-.36.47-.04.94-.06,1.47-.09-.51,2.73-.97,5.42-1.51,8.08-.78,3.87-1.62,7.72-2.39,11.59-.59,2.93-1.13,5.87-1.7,8.81-.17.94-.21.95-1.15.97q-3.645.09-7.29.2c-.52.02-1.03.02-1.55.07a.916.916,0,0,0-.59.21.556.556,0,0,0,.1.8,3.224,3.224,0,0,0,.75.34,3.994,3.994,0,0,0-.1.52.753.753,0,0,0,.54.84.7.7,0,0,0,.86-.39c.13-.25.23-.52.37-.76a.409.409,0,0,1,.25-.22c.93-.07,1.86-.12,2.85-.18-.03.22-.05.38-.08.53-.07.4-.17.79-.22,1.2a.813.813,0,0,0,.62.93c.46.1.65-.21.78-.56a2.418,2.418,0,0,0,.1-.36c.14-.58.28-1.15.44-1.83h3.96c-.04.72-.11,1.51-.12,2.28,0,1.1.02,2.2.06,3.29.02.35.18.63.61.63.4,0,.55-.23.61-.58.06-.4.13-.81.16-1.21.21-3.5.39-7.01.59-10.53.04-.62.06-1.25.12-1.87l25.4,12.23a.844.844,0,0,0,.34.08.787.787,0,0,0,.42-.12.8.8,0,0,0,.37-.67V97.95a.781.781,0,0,0-.45-.71c-.8-.39-19.7-9.55-20.11-9.75a.79.79,0,1,0-.67,1.43c.37.17,16.71,8.1,19.65,9.52v1.63L118.09,88.18h-.03c.29-1.71.63-3.41.97-5.11l.06-.27,27.35,12.95v9.8a.79.79,0,1,0,1.58,0V95.25a.8.8,0,0,0-.45-.72Zm-69.11,5c.79-.25,1.59-.48,2.39-.7a.492.492,0,0,1,.34.02c.62.43,1.22.86,1.89,1.35a17.563,17.563,0,0,1-4.33.13.447.447,0,0,1-.28-.06c-.19-.11-.36-.25-.55-.37a2.162,2.162,0,0,1,.54-.37Zm22.22-4.39a.643.643,0,0,1,.44-.36c.54-.07,1.08-.08,1.67-.12-.25.46-.45.82-.64,1.2a2.38,2.38,0,0,0-.16,2,18.392,18.392,0,0,0,.97,2.39,5.975,5.975,0,0,1,.71,3.84c-.17,1.18-.22,2.39-.33,3.66-.29.06-.72.14-1.14.24-.36.09-.48-.08-.42-.4a10.692,10.692,0,0,1,.35-1.79,7.146,7.146,0,0,0-.75-6.17c-.16-.29-.31-.58-.48-.86a4.523,4.523,0,0,1-.22-3.62Zm-2.9,2.97a6.124,6.124,0,0,1,.33-3,.462.462,0,0,1,.34-.22,3.371,3.371,0,0,1,.63-.02c-.08.62-.16,1.2-.23,1.79a5.218,5.218,0,0,0,.82,3.16,18.312,18.312,0,0,1,1.18,2.68,3.151,3.151,0,0,1-.06,2.16,9.384,9.384,0,0,0-.53,3.65,1.43,1.43,0,0,1-1.31-1.45,2.556,2.556,0,0,1,.26-1.12,4.565,4.565,0,0,0-.14-4.85,8.23,8.23,0,0,1-1.3-2.78ZM106,119.28a2.3,2.3,0,0,1-1.15,3.12,6.067,6.067,0,0,1-2.66.71,11.4,11.4,0,0,1-4.45-.52c-.78-.27-1.28-.66-1.27-1.56a7.494,7.494,0,0,0-.25-1.36,20.281,20.281,0,0,0,9.77-.38ZM91.24,105.61c1.45.98,2.89,1.98,4.33,2.97.03.02.03.08.1.23-2.9-.21-5.73-.42-8.66-.63.15-.47.28-.87.41-1.28.21-.66.41-1.32.63-1.97a.85.85,0,0,1,1.31-.47c.63.39,1.27.75,1.88,1.15Zm-.81-4.25a5.3,5.3,0,0,1-.55.47,12.111,12.111,0,0,1-5.21,2.16c-.93.14-1.87.2-2.8.32a2.133,2.133,0,0,0-.71.19.7.7,0,0,0-.44.88.973.973,0,0,0,.71.49c1-.02,1.99-.11,2.99-.21.61-.07,1.22-.22,1.85-.34-.25,1.14-.53,2.21-1.83,2.5a7.474,7.474,0,0,1-1.26.12c-.57.02-.9.27-.91.72a.807.807,0,0,0,.86.81c.61.02,1.22,0,1.93,0-.2.56-.37,1.08-.58,1.58a.431.431,0,0,1-.33.19q-1.62.045-3.24.06a.772.772,0,0,1-.73-.5,27.855,27.855,0,0,1-2.92-8.85v-.13a16.933,16.933,0,0,0,11.76-2.05c.44.48.9,1.01,1.41,1.58Zm-1.82-3.27c-.09.07-.15.12-.22.17a1.631,1.631,0,0,1-2.31-.39c.86.08,1.68.15,2.54.22ZM53.57,93V91.76L76.94,80.48c.02.12.03.24.05.36v.03c.03.23.06.47.11.7.02.09.03.17.05.26L53.57,92.99Zm68.7-35.45a2.446,2.446,0,0,1,2.85.75,5.732,5.732,0,0,1,1.13,5.64,4.091,4.091,0,0,1-3.35,2.26c.19-.86.39-1.7.53-2.54a1.791,1.791,0,0,0-.06-.86c-.44-1.56-.89-3.12-1.37-4.67-.1-.33-.02-.44.26-.56ZM109.23,33.41a1.617,1.617,0,0,1,1.66,1.41,1.464,1.464,0,0,1-1.37,1.41,1.706,1.706,0,0,1-1.66-1.42,1.3,1.3,0,0,1,1.36-1.4Zm-1.53,3.42c.06.04.11.09.17.13-.48,1.72-.97,3.43-1.47,5.16-1.05-.81-2.05-1.58-3.16-2.43,1.52-.98,2.99-1.93,4.46-2.87ZM87.52,34.74a7.22,7.22,0,0,1,3.27-.02,24.869,24.869,0,0,1,7.47,3.25c.9.55,1.78,1.13,2.76,1.75-1.48,1-2.85,1.94-4.23,2.86-.65.43-1.34.82-2.01,1.21-.48.28-.64.63-.45.98a.687.687,0,0,0,1.06.19q2.175-1.335,4.3-2.72c.74-.48,1.44-1.01,2.17-1.5a.543.543,0,0,1,.48-.02c1.12.83,2.22,1.69,3.34,2.53a.639.639,0,0,1,.24.77c-.54,2.26-1.06,4.52-1.58,6.78-.13.52.06.89.45.98.42.1.74-.17.86-.71.46-2.03.92-4.07,1.39-6.1a2.538,2.538,0,0,1,.12-.37c.57.52,1.13.97,1.62,1.48a20.556,20.556,0,0,1,4.45,5.74,9.653,9.653,0,0,1,.8,3.46,1.361,1.361,0,0,1-1.46,1.48c-.86-.06-1.7-.24-2.55-.37a30.8,30.8,0,0,1-18.43-9.96,21.992,21.992,0,0,1-4.83-8.22,9.1,9.1,0,0,1-.32-2.08,1.22,1.22,0,0,1,1.09-1.41Zm-1.36,5.73a1.759,1.759,0,0,1,.13.21,26.576,26.576,0,0,0,9.8,11.52,31.711,31.711,0,0,0,4.77,2.72,34.356,34.356,0,0,0,4.82,1.57c1.37.38,2.77.66,4.15.98.43.1.85.21,1.27.34a2.123,2.123,0,0,1,.37.24v.14a13.867,13.867,0,0,1-1.99.63,30.607,30.607,0,0,1-5.82.36,19.842,19.842,0,0,1-9.46-3.1,13.747,13.747,0,0,1-3.85-3.75,23.285,23.285,0,0,1-4.24-11.71c0-.03.02-.06.03-.16ZM69.52,68.5a4.567,4.567,0,0,1-2.19-3.67,3.956,3.956,0,0,1,4.97-4.74c.25.04.36.21.29.52-.28,1.2-.52,2.42-.74,3.63a2.522,2.522,0,0,0,.1,1.09c.36,1.15.77,2.27,1.16,3.42.03.09.04.17.08.34a4.907,4.907,0,0,1-3.67-.59Zm4.65-4.17q-.18.62-.93.5c.15-.69.3-1.34.44-2,.4-1.87.82-3.75,1.19-5.64.09-.4.24-.56.65-.51.2.02.4,0,.66,0-.21.75-.43,1.44-.61,2.15-.42,1.63-.82,3.27-1.24,4.91-.05.2-.11.39-.17.59Zm45.47,1.03c-2.12.25-4.22.52-6.34.74-1,.11-2,.14-3,.21q-4,.24-8.03.46c-1.91.1-3.82.19-5.73.3-2.47.14-4.94.31-7.41.44-1.43.09-2.85.14-4.28.21-2.18.1-4.35.19-6.53.3-1.25.06-2.5.15-3.79.23a20.577,20.577,0,0,1,.52-2.12,57.324,57.324,0,0,0,1.8-6.17c.59-2.38,1.46-4.68,2.14-7.05.52-1.8.92-3.64,1.4-5.45a.644.644,0,0,1,.39-.35c1.12-.15,2.24-.27,3.36-.39.48-.06.97-.06,1.45-.13.26-.03.4.02.48.29a22.766,22.766,0,0,0,3.5,6.58,16.062,16.062,0,0,0,7.27,5.48,18.589,18.589,0,0,0,7.59,1.59,44.558,44.558,0,0,0,5.66-.49,8.931,8.931,0,0,0,3.76-1.68,3.707,3.707,0,0,0,1.5-3.34,11.1,11.1,0,0,0-2.53-6.42c-.87-1.09-1.84-2.1-2.77-3.15-.1-.12-.21-.22-.38-.4,1.18-.06,2.26-.12,3.34-.14.13,0,.32.21.38.35.91,2.42,1.85,4.83,2.68,7.27,1.37,4.06,2.66,8.15,3.99,12.22.14.43.04.56-.4.61ZM118.17,54c.25-.03.45-.06.68-.08a70.214,70.214,0,0,1,2.9,8.91c-.26.1-.46.1-.56-.2-1-2.86-2-5.71-3.02-8.63Zm1.51,25.86,23.79,11.48v1.24L119.4,81.19c.09-.44.18-.89.28-1.33Z" fill="#132c53"/>
  </g>
  <g id="Group_405" data-name="Group 405" transform="translate(0.001 0)">
    <g id="Group_404" data-name="Group 404">
      <path id="Path_1437" data-name="Path 1437" d="M32.69,11.35c20.97-4.77,40.63,2.76,43.82,16.79C79.4,40.85,66.06,46.19,51.22,50.06a3.721,3.721,0,0,0-2.75,3.02,3.664,3.664,0,0,0,1.6,3.7l.09.06a2.752,2.752,0,0,1-.66,4.92c-.32.1-.65.19-.98.27a12.068,12.068,0,0,1-13.14-5.74,3.787,3.787,0,0,0-4-1.77C16.99,57.2,3.28,57.95.44,45.44-2.75,31.42,11.72,16.12,32.69,11.35Z" fill="#132c53"/>
      <g id="Group_403" data-name="Group 403">
        <g id="Group_402" data-name="Group 402">
          <path id="Path_1438" data-name="Path 1438" d="M3.74,21.2a38.644,38.644,0,0,1,4-4.94,45.8,45.8,0,0,1,3.65-3.4.9.9,0,0,1,1.28.14h0a.892.892,0,0,1-.14,1.26A43.27,43.27,0,0,0,9.04,17.5a36.24,36.24,0,0,0-3.8,4.68A.913.913,0,0,1,4,22.45H4a.9.9,0,0,1-.27-1.26Z" fill="#132c53"/>
          <path id="Path_1439" data-name="Path 1439" d="M22.43,5.9A61.778,61.778,0,0,1,35.09,1.56,60.177,60.177,0,0,1,53.93.24a.91.91,0,0,1,.81,1h0a.9.9,0,0,1-.99.79A58.625,58.625,0,0,0,35.49,3.31,60.085,60.085,0,0,0,23.21,7.52a.9.9,0,1,1-.78-1.63Z" fill="#132c53"/>
        </g>
        <path id="Path_1440" data-name="Path 1440" d="M36.29,6.83C15.77,11.5,1.63,26.28,4.72,39.85,7.25,51,19.1,51.14,34.62,48.25a4.706,4.706,0,0,1,4.95,2.21,11.172,11.172,0,0,0,13.07,5.06,1.849,1.849,0,0,0,.44-3.3.607.607,0,0,1-.1-.07,4.646,4.646,0,0,1,1.41-8.35c15.95-4.16,27.25-9.39,24.64-20.85C75.95,9.38,56.81,2.17,36.29,6.84Z" fill="#fff"/>
        <path id="Path_1441" data-name="Path 1441" d="M51.93,56.64A12.068,12.068,0,0,1,38.79,50.9a3.787,3.787,0,0,0-4-1.77C20.4,51.81,6.69,52.56,3.85,40.05.65,26.02,15.12,10.72,36.09,5.95S76.72,8.71,79.91,22.74C82.8,35.45,69.46,40.79,54.62,44.66a3.721,3.721,0,0,0-2.75,3.02,3.664,3.664,0,0,0,1.6,3.7l.09.06a2.752,2.752,0,0,1-.66,4.92c-.32.1-.65.19-.98.27ZM36.49,7.71C16.49,12.26,2.63,26.59,5.6,39.65c2.03,8.92,10.39,11.15,28.85,7.71A5.589,5.589,0,0,1,40.34,50a10.265,10.265,0,0,0,12.01,4.66.942.942,0,0,0,.64-.78.913.913,0,0,0-.41-.9l-.11-.07a5.55,5.55,0,0,1,1.68-9.98c16.14-4.21,26.4-9.19,23.99-19.78C75.17,10.09,56.48,3.17,36.48,7.72Z" fill="#132c53"/>
      </g>
    </g>
    <path id="Path_1442" data-name="Path 1442" d="M42.97,26.14c.63,2.49,3.15,7.93,12.65,10.61.15.03.48.15.48.3s-.39.39-.57.51c-.12.09-.63.42-.75.48-2.34,1.5-2.64,1.8-3.48,1.8-.51,0-1.14-.09-2.67-1.11-3.43-2.22-5.32-5.62-6.43-10.31a1.345,1.345,0,0,1-.03.36,14.062,14.062,0,0,1-1.83,4.33,14,14,0,0,1-7.54,5.32,20.863,20.863,0,0,1-4.21.72c-.69,0-.78-.24-.78-.36,0-.24.84-.42,1.14-.51a6.8,6.8,0,0,0,1.41-.54,14.33,14.33,0,0,0,8.53-11.57c-2.31.06-4.18.09-5.8.24-.24.03-1.44.42-1.74.42a.9.9,0,0,1-1.02-.96,1.6,1.6,0,0,1,1.5-1.59c.15,0,.9.12,1.08.12.93.09,5.11.15,6.1.18l.03-.78V22.48c0-.6-.03-3.21-.06-3.76-1.02,0-6.97.09-7.39.24a8.537,8.537,0,0,1-1.68.51,1.046,1.046,0,0,1-1.05-1.11,1.974,1.974,0,0,1,1.71-1.68c.21,0,1.17.18,1.38.21,1.74.15,7.15.15,9.28.15,1.5,0,2.16,0,8.05-.09a2.78,2.78,0,0,1,1.89-1.47c.84,0,2.67,1.14,2.67,2.25,0,.84-.99.96-1.32.99H42.97c-.03,1.8-.09,4.09-.15,5.86,1.77,0,3.21,0,5.14-.09.63-1.05,1.29-1.41,1.8-1.41.93,0,2.49,1.17,2.49,2.19,0,.75-.9.84-1.2.87H42.97Z" fill="#132c53"/>
  </g>
</svg>
