<svg xmlns="http://www.w3.org/2000/svg" width="132.805" height="124.72" viewBox="0 0 132.805 124.72">
  <g id="Group_424" data-name="Group 424" transform="translate(-517.689 -0.01)">
    <g id="Group_419" data-name="Group 419">
      <path id="Path_1477" data-name="Path 1477" d="M625.16,58.99a48.25,48.25,0,0,1-8.33,4.44,33.034,33.034,0,0,1-6.39,1.89c-2.46.45-4.89,1.04-7.36,1.33a52.321,52.321,0,0,1-11.05.13,16.06,16.06,0,0,1-6.6-1.83,5.67,5.67,0,0,0-1.3-.54c-.61-.17-.95.06-1,.7-.08.94-.08,1.88-.16,2.81a1.307,1.307,0,0,0,.6,1.24,7.663,7.663,0,0,0,3.19,1.45,60.763,60.763,0,0,0,8.41.92,52.37,52.37,0,0,0,14.75-1.44,48.488,48.488,0,0,0,13.56-5.32c.78-.46,1.6-.86,2.47-1.32a15.111,15.111,0,0,0-.57-4.61c-.1.06-.17.1-.23.13Z" fill="none"/>
      <path id="Path_1478" data-name="Path 1478" d="M587.06,64.2s.09.03.13.05a23.015,23.015,0,0,0,7.21,1.17,48.421,48.421,0,0,0,10.42-.53c4.33-.79,8.7-1.49,12.71-3.48,1.06-.52,2.11-1.08,3.08-1.57-.07-.48-.14-.84-.17-1.2a8.419,8.419,0,0,1,.51-3.33,1.1,1.1,0,0,0,0-.82,12.779,12.779,0,0,0-1.24-1.77,17.909,17.909,0,0,0-5.22-3.81,17.229,17.229,0,0,0-4.18-1.28,2.266,2.266,0,0,0,.13.23,23.9,23.9,0,0,1,2.83,4.33.83.83,0,0,1-.21,1.2.8.8,0,0,1-1.1-.42c-.36-.59-.69-1.2-1.04-1.79a12.591,12.591,0,0,0-3.05-3.61,4.2,4.2,0,0,0-2.77-.63c.04.1.05.14.07.18a24.017,24.017,0,0,1,3.11,7.68c.17.71,0,1.17-.5,1.28s-.78-.21-1.01-.92c-.53-1.67-1.03-3.36-1.7-4.98a17.659,17.659,0,0,0-1.7-2.81.62.62,0,0,0-.89-.27,1.066,1.066,0,0,0-.52.96c.13,1.43.22,2.88.31,4.32a.746.746,0,0,1-.72.87.79.79,0,0,1-.8-.81c-.04-.5-.06-1.01-.1-1.51-.09-1.15-.18-2.31-.28-3.46-.42,0-.69.1-.77.51-.06.3-.21.59-.25.9-.2,1.68-.37,3.36-.54,5.05-.06.56-.31.9-.76.9s-.77-.36-.78-.93a7.947,7.947,0,0,1,.03-.85c.14-1.51.29-3.02.43-4.53a2.047,2.047,0,0,0-1.23,1.13,31.886,31.886,0,0,0-1.66,3.68,22.234,22.234,0,0,0-1.03,5.68c-.06.59-.39.91-.85.85a.821.821,0,0,1-.67-.97,24.476,24.476,0,0,1,1.62-7.61,1.185,1.185,0,0,0,.06-.3c-.12.1-.19.13-.25.19a22.529,22.529,0,0,0-7.21,12.12c-.15.71-.25.61.52.92Z" fill="none"/>
      <path id="Path_1479" data-name="Path 1479" d="M627.81,58.72c-.25.08-.7-.02-.63.5.08.59.13,1.18.19,1.78s.08,1.23.13,1.85h.18c.13-1.24.29-2.49.4-3.74.02-.17.05-.48-.28-.39Z" fill="none"/>
      <path id="Path_1480" data-name="Path 1480" d="M635.54,92.7c-.65-3.29-1.17-6.6-1.86-9.88-.95-4.54-1.99-9.06-3-13.59-.46-2.06-.95-4.11-1.43-6.17a.18.18,0,0,0-.1.02,2.327,2.327,0,0,0-.08.46c0,.56-.02,1.13.02,1.69.25,4.76.48,9.53.75,14.29.24,4.29.47,8.58.77,12.86.16,2.33.45,4.65.7,6.98a.887.887,0,0,0,.17.47c1.36,1.55,2.73,3.07,4.11,4.6.16.18.34.33.6.58.28-1.47.56-2.82.76-4.19a5.274,5.274,0,0,0-.02-1.9c-.41-2.08-.96-4.12-1.37-6.2Z" fill="none"/>
      <path id="Path_1481" data-name="Path 1481" d="M613.2,119.49a35.18,35.18,0,0,1-4.27.56,35.953,35.953,0,0,1-4.26-.21A20.412,20.412,0,0,0,613.2,119.49Z" fill="#132c53"/>
      <path id="Path_1482" data-name="Path 1482" d="M613.34,121.86a1.692,1.692,0,0,0,.56-1.59A2.005,2.005,0,0,1,613.34,121.86Z" fill="#132c53"/>
      <path id="Path_1483" data-name="Path 1483" d="M604.25,121.12a1.311,1.311,0,0,0,.09.5,1.166,1.166,0,0,1-.07-.38.486.486,0,0,0-.01-.12Z" fill="#132c53"/>
      <path id="Path_1484" data-name="Path 1484" d="M604.02,119.8c.03.15.07.3.1.45-.02-.14-.05-.29-.07-.45h-.03Z" fill="#132c53"/>
      <path id="Path_1485" data-name="Path 1485" d="M613.85,119.39a.225.225,0,0,0-.07.01c.04.15.06.29.09.43,0-.15,0-.29-.01-.44Z" fill="#132c53"/>
      <path id="Path_1486" data-name="Path 1486" d="M617.35,85.47a.719.719,0,0,0,.91-.28,1.654,1.654,0,0,0,.21-.47,3.158,3.158,0,0,0-1.22-3.5,6.554,6.554,0,0,0-5.12-1.23c-2.19.4-3.1,1.53-3.08,3.75a1.916,1.916,0,0,1-.21.04c-2.13.14-4.26.28-6.38.44-.32.02-.43-.13-.55-.37-1.56-3.23-5.55-3.54-8.17-1.73a1.946,1.946,0,0,0-.9,1.38.768.768,0,0,0,.55.92c.44.09.68-.13.9-.5a2.022,2.022,0,0,1,.72-.76,4.487,4.487,0,0,1,3.55-.39,3.75,3.75,0,0,1,2.4,3.24,1.833,1.833,0,0,1-.07.46,2.464,2.464,0,0,1-3.83,1.22c-.14-.1-.26-.22-.4-.33a.758.758,0,1,0-1.02,1.12,3.849,3.849,0,0,0,3.97,1.09,3.8,3.8,0,0,0,2.86-3.06,8,8,0,0,0,.08-.8c1.25-.08,2.47-.17,3.69-.24.99-.06,1.98-.05,2.96-.14a.771.771,0,0,1,.83.31,4.722,4.722,0,0,0,4.28,1.8,1.439,1.439,0,0,0,.54-.14.722.722,0,0,0-.25-1.38c-.28-.02-.56,0-.85,0a2.984,2.984,0,0,1-2.67-1.42c-1-1.61-.56-2.27.83-2.82a4.581,4.581,0,0,1,3.3.19c1.53.55,1.92,1.2,1.69,2.79a.707.707,0,0,0,.45.84Z" fill="#132c53"/>
      <path id="Path_1487" data-name="Path 1487" d="M589.85,85.22a.673.673,0,0,0-.89-.3.656.656,0,0,0-.44.83,3.935,3.935,0,0,0,.31.83c.99,1.99,1.99,3.97,2.99,5.96.69,1.35,1.38,2.7,2.1,4.04a.794.794,0,1,0,1.37-.79c-.14-.26-.32-.5-.48-.75a12.217,12.217,0,0,1,3.31,2.81c1.51,1.96,3.08,3.89,4.63,5.82.39.48.81.56,1.18.28s.4-.76.06-1.26c-.1-.14-.21-.28-.32-.41-.96-1.2-1.93-2.39-2.9-3.59-.1-.12-.19-.25-.34-.46.55.15.98.28,1.42.39a.659.659,0,0,0,.87-.43.671.671,0,0,0-.33-.92,13.945,13.945,0,0,0-1.37-.61,15.927,15.927,0,0,1-5.52-3.3,22.437,22.437,0,0,1-4.54-6.18c-.34-.67-.73-1.31-1.12-1.96Z" fill="#132c53"/>
      <path id="Path_1488" data-name="Path 1488" d="M586.04,80.27c-.16-.59-.56-.83-.98-.7-.44.14-.59.54-.43,1.13.08.29.17.57.23.86q1.035,5.22,2.07,10.43a13.916,13.916,0,0,0,.36,1.55.824.824,0,0,0,.93.55.652.652,0,0,0,.5-.75,1.229,1.229,0,0,0-.03-.33c-.65-3.27-1.3-6.55-1.96-9.82-.2-.98-.43-1.95-.69-2.92Z" fill="#132c53"/>
      <path id="Path_1489" data-name="Path 1489" d="M613.19,89.81c-.48-.19-.95-.39-1.43-.58-.26-.1-.52-.19-.67-.24-.53,0-.81.18-.9.56a.711.711,0,0,0,.42.85c.53.26,1.08.5,1.62.72a2.775,2.775,0,0,0,.63.16.756.756,0,0,0,.89-.57.789.789,0,0,0-.58-.9Z" fill="#132c53"/>
      <path id="Path_1490" data-name="Path 1490" d="M602.57,89.92a7.949,7.949,0,0,0-1.15.95.774.774,0,0,0-.19,1.12.786.786,0,0,0,1.17.05c.4-.32.79-.66,1.16-1.02a2.73,2.73,0,0,0,.32-.58c-.15-.21-.26-.5-.44-.56a1.179,1.179,0,0,0-.87.04Z" fill="#132c53"/>
      <path id="Path_1491" data-name="Path 1491" d="M604.04,119.74v.06c.21.01.41.03.62.05-.21-.04-.42-.06-.63-.11Z" fill="#132c53"/>
      <path id="Path_1492" data-name="Path 1492" d="M604.12,120.25c.05.31.1.6.13.87V121a3.257,3.257,0,0,0-.12-.75Z" fill="#132c53"/>
      <path id="Path_1493" data-name="Path 1493" d="M609.95,123.09a11.4,11.4,0,0,1-4.45-.52,1.716,1.716,0,0,1-1.17-.95,1.381,1.381,0,0,0,.92.9,10.645,10.645,0,0,0,4.29.64,6.935,6.935,0,0,0,2.87-.63,3.4,3.4,0,0,0,.92-.66,4.369,4.369,0,0,1-.46.37,5.662,5.662,0,0,1-2.93.87Z" fill="#132c53"/>
      <path id="Path_1494" data-name="Path 1494" d="M613.9,120.26a3.283,3.283,0,0,0-.04-.43,1.342,1.342,0,0,0,.03.35v.08Z" fill="#132c53"/>
      <path id="Path_1495" data-name="Path 1495" d="M613.76,119.35c-.19.05-.38.1-.56.14.19-.03.38-.06.58-.09a.09.09,0,0,0-.01-.05Z" fill="#132c53"/>
      <path id="Path_1496" data-name="Path 1496" d="M650.42,95.3c-.24-2.09-1.91-3.99-3.43-5.33-3.41-2.99-7.75-4.52-11.53-6.93a1.006,1.006,0,0,0-.15-.07l-.43-1.87q-2.25-10-4.53-20a20.072,20.072,0,0,0-.86-2.96c-.36-.88-.95-1.09-1.92-.97-.39.06-.82.42-1.13-.16-.02-.03-.12-.02-.18-.04a1.486,1.486,0,0,0-1.49.35c-.81-1.16-1.62-2.25-2.36-3.39a13.854,13.854,0,0,0-3.54-4.04,18.837,18.837,0,0,0-6.12-3.23,29.767,29.767,0,0,0-9.34-1.17c-.49.03-.98.07-1.47.11-.07-.91.13-1.2.93-1.43.45-.13.9-.25,1.35-.42a3.118,3.118,0,0,0,2.14-3.55c-.06-.59-.41-.95-.87-.9s-.7.43-.65,1.02a1.7,1.7,0,0,1-1.36,2.05c-.44.15-.9.27-1.35.4a2.237,2.237,0,0,0-1.65,1.76c-.09.43-.1.86-.16,1.35a6.8,6.8,0,0,0-1.46.37c-1.18.58-2.35,1.18-3.47,1.87a24.151,24.151,0,0,0-8.95,10.49,2.25,2.25,0,0,1-.21.41,17.151,17.151,0,0,0-2.23,3.6.549.549,0,0,1-.33.25,2.071,2.071,0,0,0-2.03,2.03c-.11.99-.1,2.01-.19,3a2.665,2.665,0,0,0,1.29,2.54,1.015,1.015,0,0,1,.41.78c.17,1.14.33,2.29.58,3.42.04.18.09.35.14.52a13.631,13.631,0,0,0-5.62,3.6,7.885,7.885,0,0,0-1.65,3.75c-.98.58-2,1.11-2.93,1.76-.99.7-1.94,1.45-2.93,2.15-1.21.86-2.5,1.59-3.74,2.42-1.92,1.28-4.67,2.9-5.21,5.32-.61,2.74.28,5.75,1.04,8.36a.794.794,0,0,0,1.53-.42,33.6,33.6,0,0,1-.96-3.96,8.409,8.409,0,0,1,.04-3.99,7,7,0,0,1,2.4-2.56,32.3,32.3,0,0,1,3.46-2.34c1.88-1.14,3.56-2.53,5.38-3.76.58-.39,1.2-.74,1.81-1.09a9.54,9.54,0,0,0,.14,1.31c.52,2.77,2.23,5.21,3.78,7.5a83.387,83.387,0,0,0,5.16,6.81c-.08.23-.15.47-.21.71a1.876,1.876,0,0,1-1.13,1.29c-.27.12-.53.25-.79.39-.02-.04-.02-.08-.04-.13a21.609,21.609,0,0,0-1.57-2.78,2.849,2.849,0,0,0-2.16-1.01,16.954,16.954,0,0,0-5.27.22,17.332,17.332,0,0,0-9.09,4.97.22.22,0,0,1-.08-.01,9.177,9.177,0,0,0-3.93.32.794.794,0,0,0,.42,1.53,8.6,8.6,0,0,1,2.06-.38,6.271,6.271,0,0,1,.75.03,1.1,1.1,0,0,1,.18.02h.03l.39.06a12.815,12.815,0,0,0,4.86-.04c.99-.24.57-1.77-.42-1.53a8.453,8.453,0,0,1-2.13.19,15.728,15.728,0,0,1,10.94-3.89c.69.03,1.8-.05,2.25.57a23.332,23.332,0,0,1,1.41,2.55c0,.02.02.02.03.04-.07.04-.15.08-.22.12a.763.763,0,0,0-.32,1.21.832.832,0,0,0,1.08.16c1.03-.5,2.05-1.01,3.08-1.54a2,2,0,0,0,1.05-1.36c.1-.44.26-.87.4-1.31a.416.416,0,0,1,.53-.32c.67.12,1.33.21,2,.33a16.085,16.085,0,0,0,5.18.45,2.066,2.066,0,0,1,.59.12,1.126,1.126,0,0,1-.49.36c-1.08.47-2.16.91-3.22,1.43a2.28,2.28,0,0,0-.86.8.891.891,0,0,0,.17,1.09c.29.3.6.14.91,0,.59-.29,1.2-.58,1.87-.9-.06.23-.08.36-.12.49-.51,1.63-1.05,3.25-1.5,4.89a2.8,2.8,0,0,1-1.85,2.26,1.876,1.876,0,0,0-.36.21,2.1,2.1,0,0,1-2.47,0,1.411,1.411,0,0,0-1.67-.03c-.91.55-1.82,1.1-2.73,1.67a11.136,11.136,0,0,0-.73-2.15c-1.13-2.43-3.01-4.68-2.84-7.5.06-1.02-1.53-1.02-1.59,0-.16,2.74,1.35,5.03,2.58,7.34a10.871,10.871,0,0,1,1.32,3.94,24.313,24.313,0,0,1,0,4.18c-.05,1.02,1.53,1.02,1.59,0a25.656,25.656,0,0,0-.05-4.21h0c.87-.49,1.74-1,2.6-1.51a1.268,1.268,0,0,1,1.42,0c.16.1.33.17.49.28a1.473,1.473,0,0,0,1.6.03c.87-.45,1.75-.9,2.65-1.32a2,2,0,0,0,1.17-1.43c.08-.36.19-.71.31-1.15a3.288,3.288,0,0,1,.17.35,19.443,19.443,0,0,0,2.43,4.65,9.155,9.155,0,0,0,4.63,3.68,4.641,4.641,0,0,1,1,.4,1.4,1.4,0,0,1,.58.72,13.763,13.763,0,0,1,.32,2.04,2.335,2.335,0,0,0,1.47,2.11c.19.08.36.17.55.25a11.918,11.918,0,0,0,6.06.63,6.412,6.412,0,0,0,4.03-2.02,2.253,2.253,0,0,0,.65-1.66c0-.61,0-1.23-.06-1.84a.925.925,0,0,1,.61-1.07,6.456,6.456,0,0,0,2.58-2.14,13.409,13.409,0,0,0,2.34-8.58,17.611,17.611,0,0,1-.08-1.92,1.712,1.712,0,0,0-.56-1.6,9.324,9.324,0,0,0-5.64-2.05.571.571,0,0,0-.65.54.549.549,0,0,0,.42.72,5.72,5.72,0,0,1,.59.17c1.25.43,2.51.85,3.75,1.31.48.18.51.48.1.75a7.081,7.081,0,0,1-1.58.9c-1.36.45-2.76.8-4.14,1.2-.37.11-.52-.04-.5-.37a12.869,12.869,0,0,1,.13-1.87,7.909,7.909,0,0,0-.3-4.57c-.28-.67-.59-1.32-.9-1.96a3.248,3.248,0,0,1,.58-3.82,3.627,3.627,0,0,0,.67-1.12,1.743,1.743,0,0,0-.9-2.06,1.8,1.8,0,0,0-2.16.26.766.766,0,0,0-.17.94.734.734,0,0,0,.84.36c.32-.05.63-.1.99-.15a1.923,1.923,0,0,1-1.5,1.42,7.041,7.041,0,0,1-3.03.08,2.837,2.837,0,0,1-2.52-1.62.876.876,0,0,0-.66-.32.749.749,0,0,0-.55,1.17c.23.4.56.75.78,1.17a1.218,1.218,0,0,1,.17.82,6.147,6.147,0,0,0,.62,4.76,16.377,16.377,0,0,1,.93,1.69,2.626,2.626,0,0,1,.32,1.47,23.635,23.635,0,0,1-.92,2.77c-2.2-1.61-4.28-3.14-6.38-4.68.07-.08.13-.13.18-.19.54-.52.59-.76.35-1.36s-.57-1.09-1.33-1.04c-.39.03-.78.04-1.17.07a2.193,2.193,0,0,1-1.67-.46c-1.2-.96-2.42-1.9-3.63-2.85a10.828,10.828,0,0,0-1.13-.86.738.738,0,0,0-1.19.63,1.335,1.335,0,0,0,.45.77c.63.54,1.31,1.03,1.96,1.55.56.44,1.11.89,1.67,1.34-.03.05-.06.1-.09.14a10.6,10.6,0,0,1-1.09-.48c-1.16-.75-2.31-1.51-3.46-2.27-.36-.25-.73-.49-1.11-.71a.786.786,0,0,0-.88,1.3c.14.12.31.21.46.32.39.26.77.52,1.27.85-.54,0-.94.02-1.34,0a1.157,1.157,0,0,0-.58.13c-1.48-1.78-2.89-3.61-4.2-5.51a27.02,27.02,0,0,1-3.69-6.42,7.247,7.247,0,0,1,.71-6.51c1.27-1.78,3.4-2.71,5.37-3.52a3.7,3.7,0,0,0,.68.69c.03.02.04.07.06.13a10.985,10.985,0,0,0,.78,1.21c.11.24.17.4.25.55a.77.77,0,0,0,1.03.49.791.791,0,0,0,.34-1.05c-.07-.22-.16-.43-.24-.64.13-.09.22-.16.31-.21a3.6,3.6,0,0,0,1.71-3.45c-.05-.54,0-1.09,0-1.7a55.685,55.685,0,0,0,32.45-5.15c0,.09.02.18.03.28.28,1.82.53,3.65.84,5.48a2.966,2.966,0,0,0,1.7,2.13,9.232,9.232,0,0,0,1.01.4,1.043,1.043,0,0,1,0,.25c-.24,1.15-.43,2.31-.71,3.45a33.027,33.027,0,0,1-2.39,5.81,22.274,22.274,0,0,1-4.9,7.06c-1.55,1.43-3.31,2.63-4.98,3.94a8.381,8.381,0,0,0-.66.52.735.735,0,0,0,.7,1.21c.2-.05.4-.1.63-.17-.06.24-.1.42-.14.6a.818.818,0,0,0,.51,1.03c.37.11.7-.07.93-.53a10.432,10.432,0,0,0,.63-1.36c.6-2.06,2.44-3.02,3.84-4.38a.853.853,0,0,1,0,.32c-.44,1.98-.89,3.96-1.33,5.95,0,.04-.02.09-.02.13a.829.829,0,0,0,.63.96c.46.08.67-.22.77-.59.3-1.17.62-2.33.84-3.51a36.4,36.4,0,0,1,3.99-10.97c.07-.13.25-.22.37-.32a1.542,1.542,0,0,1,.11.46c-.16,2.36-.34,4.72-.5,7.09-.16,2.52-.32,5.04-.44,7.56a29.175,29.175,0,0,0,.08,3.1c.02.35.17.63.61.63.4,0,.55-.22.61-.57a1.8,1.8,0,0,0,.06-.32c.06-.85.12-1.71.18-2.56a.631.631,0,0,0,.42-.21q2.07-2.43,3.94-5.01l.15,1.68c.08.97.12,1.94.24,2.9a1.874,1.874,0,0,0,.44.97c.77.89,1.59,1.74,2.38,2.61.96,1.05,1.9,2.12,2.88,3.17a1.089,1.089,0,0,0,2-.47c.3-1.18.55-2.38.81-3.57a11.372,11.372,0,0,0,0-5.06c-.94-4.12-1.67-8.29-2.49-12.45v-.02c3.19,1.86,6.68,3.25,9.58,5.57,1.4,1.12,3.17,2.79,3.52,4.63.43,2.29-.92,4.72-1.5,6.88a.794.794,0,0,0,1.53.42c.63-2.36,1.86-4.74,1.57-7.25Zm-41.35.83c.2-.03.4-.04.69-.06a4.81,4.81,0,0,0,.83,3.81,7.343,7.343,0,0,1,.74,5.07,22.278,22.278,0,0,0-.17,2.77c-.37.08-.82.19-1.28.27-.32.06-.38-.17-.34-.41a11.817,11.817,0,0,1,.36-1.79,7.317,7.317,0,0,0-.76-6.21,11.566,11.566,0,0,1-.91-2.14c-.26-.79.02-1.17.85-1.3Zm-3.04,3.36a5.286,5.286,0,0,1-.55-3.1c.02-.38.3-.55.71-.48.35.06.59.12.48.62a4.212,4.212,0,0,0,.56,2.89c.37.69.78,1.36,1.09,2.08a4.739,4.739,0,0,1,.2,3.38,28.708,28.708,0,0,0-.63,3.42,1.631,1.631,0,0,1-1.13-2.02,2.76,2.76,0,0,1,.26-.65,4.347,4.347,0,0,0,0-4.42c-.31-.58-.64-1.15-.97-1.71Zm-1.99,20.24c.21.04.42.07.63.11a35.953,35.953,0,0,0,4.26.21,37.282,37.282,0,0,0,4.27-.56c.19-.05.38-.09.56-.14a.09.09,0,0,0,.01.05.17.17,0,0,0,.07-.01c0,.14,0,.29.01.44a3.437,3.437,0,0,1,.04.43,1.692,1.692,0,0,1-.56,1.59,3.57,3.57,0,0,1-.92.66,6.781,6.781,0,0,1-2.87.63,10.645,10.645,0,0,1-4.29-.64,1.342,1.342,0,0,1-.92-.9,1.787,1.787,0,0,1-.09-.5,7.347,7.347,0,0,0-.13-.87c-.04-.15-.07-.3-.1-.45h.03v-.06Zm-.66-11.13a.613.613,0,0,1-.06.13,68.26,68.26,0,0,1-9.08-.9c.43-1.38.87-2.81,1.35-4.34,2.65,1.74,5.22,3.42,7.79,5.11Zm24.44-49.9c.32-.1.3.21.28.39-.12,1.25-.27,2.5-.4,3.74h-.18c-.05-.62-.08-1.24-.13-1.85-.06-.59-.11-1.18-.19-1.78-.07-.52.37-.42.63-.5Zm-1.02,5.81a.857.857,0,0,1,.78.91c.1,1.67.22,3.34.3,5.02.07,1.4.13,2.81.2,4.22v.06l.04.78c-.3-.13-.61-.26-.91-.38q0-2.655-.06-5.31c-.05-1.62-.22-3.25-.34-4.87v-.42Zm-40.25-1.24a22.5,22.5,0,0,1,7.21-12.12,2.583,2.583,0,0,1,.25-.19,1.188,1.188,0,0,1-.06.3,24.764,24.764,0,0,0-1.62,7.61.811.811,0,0,0,.67.97c.46.06.79-.25.85-.85a22.308,22.308,0,0,1,1.03-5.68,32.682,32.682,0,0,1,1.66-3.68,2.019,2.019,0,0,1,1.23-1.13c-.14,1.51-.29,3.02-.43,4.53-.02.28-.03.56-.03.85,0,.57.32.93.78.93s.7-.34.76-.9c.17-1.69.34-3.37.54-5.05a7.068,7.068,0,0,1,.25-.9c.08-.41.35-.52.77-.51.1,1.16.19,2.31.28,3.46.04.5.06,1.01.1,1.51a.8.8,0,0,0,.8.81.756.756,0,0,0,.72-.87c-.09-1.44-.18-2.89-.31-4.32a1.046,1.046,0,0,1,.52-.96.622.622,0,0,1,.89.27,17.668,17.668,0,0,1,1.7,2.81c.67,1.62,1.17,3.31,1.7,4.98.23.71.52,1.04,1.01.92s.67-.56.5-1.28a24.017,24.017,0,0,0-3.11-7.68c-.02-.04-.03-.09-.07-.18a4.132,4.132,0,0,1,2.77.63,12.3,12.3,0,0,1,3.05,3.61c.35.59.68,1.2,1.04,1.79a.8.8,0,0,0,1.1.42.821.821,0,0,0,.21-1.2,23.891,23.891,0,0,0-2.83-4.33,1.2,1.2,0,0,1-.13-.23,16.516,16.516,0,0,1,4.18,1.28,18.177,18.177,0,0,1,5.22,3.81,11.978,11.978,0,0,1,1.24,1.77,1.105,1.105,0,0,1,0,.82,8.6,8.6,0,0,0-.51,3.33c.02.36.1.73.17,1.2-.97.49-2.01,1.05-3.08,1.57-4.01,1.99-8.38,2.69-12.71,3.48a48.453,48.453,0,0,1-10.42.53,22.73,22.73,0,0,1-7.21-1.17.894.894,0,0,1-.13-.05c-.77-.31-.67-.21-.52-.92Zm36.95,1.51a48.488,48.488,0,0,1-13.56,5.32,52.041,52.041,0,0,1-14.75,1.44,60.761,60.761,0,0,1-8.41-.92,7.664,7.664,0,0,1-3.19-1.45,1.317,1.317,0,0,1-.6-1.24c.08-.94.08-1.88.16-2.81.05-.63.39-.87,1-.7a5.67,5.67,0,0,1,1.3.54,16.06,16.06,0,0,0,6.6,1.83,53.691,53.691,0,0,0,11.05-.13c2.47-.29,4.9-.88,7.36-1.33a33.034,33.034,0,0,0,6.39-1.89A48.25,48.25,0,0,0,625.18,59c.06-.04.13-.07.23-.13a15.152,15.152,0,0,1,.57,4.61c-.87.46-1.69.86-2.47,1.32Zm1.63,33.35c.09-1.65.17-3.3.27-4.95.17-3.05.4-6.1.52-9.16a11.2,11.2,0,0,1,.25-1.93l.22-.89a24.948,24.948,0,0,0,.73-4.4c.36.16.72.32,1.08.49l.16,3.26.08,1.7c.12,2.46.25,4.91.41,7.37.07,1.08.17,2.17.26,3.25-1.25,1.81-2.59,3.56-3.98,5.26Zm11.79.75a5.51,5.51,0,0,1,.02,1.9c-.2,1.36-.48,2.71-.76,4.19-.26-.25-.44-.4-.6-.58-1.37-1.53-2.75-3.05-4.11-4.6a.811.811,0,0,1-.17-.47c-.25-2.32-.54-4.64-.7-6.98-.3-4.28-.53-8.58-.77-12.86-.27-4.76-.5-9.53-.75-14.29-.03-.56-.02-1.13-.02-1.69a2.327,2.327,0,0,1,.08-.46.18.18,0,0,0,.1-.02c.48,2.06.98,4.11,1.43,6.17,1.01,4.53,2.05,9.05,3,13.59.69,3.28,1.21,6.59,1.86,9.88.41,2.08.96,4.12,1.37,6.2Z" fill="#132c53"/>
    </g>
    <g id="Group_423" data-name="Group 423">
      <g id="Group_422" data-name="Group 422">
        <path id="Path_1497" data-name="Path 1497" d="M550.38,11.35c20.97-4.77,40.63,2.76,43.82,16.79,2.89,12.71-10.45,18.05-25.29,21.92a3.721,3.721,0,0,0-2.75,3.02,3.664,3.664,0,0,0,1.6,3.7l.09.06a2.752,2.752,0,0,1-.66,4.92c-.32.1-.65.19-.98.27a12.068,12.068,0,0,1-13.14-5.74,3.787,3.787,0,0,0-4-1.77c-14.39,2.68-28.1,3.43-30.94-9.08-3.19-14.03,11.28-29.32,32.25-34.09Z" fill="#132c53"/>
        <g id="Group_421" data-name="Group 421">
          <g id="Group_420" data-name="Group 420">
            <path id="Path_1498" data-name="Path 1498" d="M521.42,21.2a38.645,38.645,0,0,1,4-4.94,45.786,45.786,0,0,1,3.65-3.4.9.9,0,0,1,1.28.14h0a.892.892,0,0,1-.14,1.26,43.274,43.274,0,0,0-3.49,3.24,36.237,36.237,0,0,0-3.8,4.68.913.913,0,0,1-1.24.27h0a.9.9,0,0,1-.27-1.26Z" fill="#132c53"/>
            <path id="Path_1499" data-name="Path 1499" d="M540.11,5.9a61.778,61.778,0,0,1,12.66-4.34A60.466,60.466,0,0,1,571.61.25a.91.91,0,0,1,.81,1h0a.9.9,0,0,1-.99.79,58.625,58.625,0,0,0-18.26,1.28,60.086,60.086,0,0,0-12.28,4.21.9.9,0,1,1-.78-1.63Z" fill="#132c53"/>
          </g>
          <path id="Path_1500" data-name="Path 1500" d="M553.97,6.83c-20.52,4.67-34.66,19.45-31.57,33.01,2.53,11.15,14.38,11.29,29.9,8.4a4.706,4.706,0,0,1,4.95,2.21,11.172,11.172,0,0,0,13.07,5.06,1.849,1.849,0,0,0,.44-3.3.6.6,0,0,1-.1-.07,4.646,4.646,0,0,1,1.41-8.35c15.95-4.16,27.25-9.39,24.64-20.85C593.63,9.37,574.49,2.16,553.97,6.83Z" fill="#fff"/>
          <path id="Path_1501" data-name="Path 1501" d="M569.61,56.64a12.068,12.068,0,0,1-13.14-5.74,3.787,3.787,0,0,0-4-1.77c-14.39,2.68-28.1,3.43-30.94-9.08-3.19-14.03,11.28-29.32,32.25-34.09s40.63,2.76,43.82,16.79c2.89,12.71-10.45,18.05-25.29,21.92a3.721,3.721,0,0,0-2.75,3.02,3.664,3.664,0,0,0,1.6,3.7l.09.06a2.752,2.752,0,0,1-.66,4.92c-.32.1-.65.19-.98.27ZM554.17,7.71c-20,4.55-33.86,18.87-30.89,31.93,2.03,8.92,10.39,11.15,28.85,7.71a5.589,5.589,0,0,1,5.89,2.64,10.265,10.265,0,0,0,12.01,4.66.942.942,0,0,0,.64-.78.913.913,0,0,0-.41-.9l-.11-.07a5.55,5.55,0,0,1,1.68-9.98c16.14-4.21,26.4-9.19,23.99-19.78-2.97-13.06-21.66-19.98-41.66-15.43Z" fill="#132c53"/>
        </g>
      </g>
      <path id="Path_1502" data-name="Path 1502" d="M545.42,27.94a16.516,16.516,0,0,0,3.79-5.98c.39-1.17.57-1.68,1.68-1.68a2.315,2.315,0,0,1,.78.21l-.03-.96c-1.23,0-2.37.09-2.43.09-.3.03-1.56.57-1.83.57a.83.83,0,0,1-.87-.78,1.424,1.424,0,0,1,1.32-1.38c.12,0,.69.15.81.15h3c0-.51-.06-1.71-.15-2.4a4.049,4.049,0,0,1-.45-.78c0-.78,1.83-1.65,2.7-1.65.45,0,1.26.18,1.26.96,0,.12-.09.78-.12.9-.15,1.2-.24,2.46-.24,2.97h.81c.24-.36.6-.9,1.17-.9a1.819,1.819,0,0,1,1.65,1.53c0,.75-.75.72-1.11.72h-2.52v1.62a9.046,9.046,0,0,0,3,2.61c.57.33.63.39.63.6,0,.54-1.71,1.29-2.07,1.29-.39,0-.63,0-1.68-1.89.03.9.21,5.5.21,5.71,0,1.11-1.92,1.62-2.37,1.62-.6,0-1.14-.24-1.14-.9,0-.99.27-5.35.3-6.25-1.86,2.67-4.48,4.45-5.86,4.45-.06,0-.39,0-.39-.18l.15-.27Zm2.46,10.64c-.96,0-2.46-.45-2.46-1.59a1.711,1.711,0,0,1,1.74-1.77,7.3,7.3,0,0,0,3.58-.54c.33-.15,2.01-1.11,2.04-1.11.12,0,.39.09.39.33,0,.84-1.86,4.69-5.29,4.69Zm24.07-.72c-1.77,2.91-2.97,3.03-4.18,3.03a47.632,47.632,0,0,1-7.36-.51c-6.16-.96-6.55-2.97-6.55-4.42,0-.3.06-1.71.06-2.01,0-.09,0-1.05-.03-1.05a3.869,3.869,0,0,0-.48-.27.312.312,0,0,1-.12-.24c0-.9,1.92-1.71,2.64-1.71s1.23.09,1.23.9a3.39,3.39,0,0,1-.06.66,22.291,22.291,0,0,0-.51,3.61c0,.87,0,1.74,5.02,1.74,3.21,0,5.23,0,8.53-1.26.36-.15,2.16-.99,2.31-.99.24,0,.45.12.45.36a6.918,6.918,0,0,1-.96,2.16Zm-10.12-9.07c0,.6,0,.75-.48,1.11a2.855,2.855,0,0,1-1.5.57c-.75,0-1.29-.33-1.29-1.08,0-1.08.18-5.98.18-6.97V17.76c0-.21-.09-.3-.42-.63a.488.488,0,0,1-.15-.33c0-.78,1.8-1.92,2.61-1.92a1.073,1.073,0,0,1,1.08.72h4.81a2.473,2.473,0,0,1,1.95-1.11c.75,0,1.95.63,1.95,1.44,0,.18-.18.99-.18,1.14l.03,4.84c0,1.11.15,5.95.15,6.97a1,1,0,0,1-.63,1.08,4.754,4.754,0,0,1-2.01.57c-.84,0-1.17-.39-1.17-1.11v-.63h-4.93Zm-1.14,2.25c.72,0,1.71.57,1.71,1.32,0,1.05-2.46,3.73-3.49,3.73a.5.5,0,0,1-.57-.57c0-.06.54-3,.72-3.51a1.855,1.855,0,0,1,1.62-.96Zm6.07-14.09h-4.63c-.24,0-.3.42-.3.54v2.19h4.93V16.95Zm0,4.06h-4.93v2.55h4.93Zm0,3.91h-4.93v2.52h4.93Zm-3.09,11.15a.6.6,0,0,1-.63-.63c0-.24.45-2.07.57-2.55.27-.96.48-1.77,1.92-1.77.96,0,1.98.69,1.98,1.41,0,1.02-2.76,3.55-3.85,3.55Z" fill="#132c53"/>
    </g>
  </g>
</svg>
