<svg xmlns="http://www.w3.org/2000/svg" width="135.947" height="124.697" viewBox="0 0 135.947 124.697">
  <g id="Group_430" data-name="Group 430" transform="translate(-688.759 -0.01)">
    <g id="Group_425" data-name="Group 425">
      <path id="Path_1503" data-name="Path 1503" d="M796.52,104.4a1.682,1.682,0,0,0-.52-1.42,9.526,9.526,0,0,0-6.03-2.23c-.41-.02-.6.29-.67.66a.6.6,0,0,0,.48.7c.29.09.6.13.89.24,1.2.41,2.4.82,3.59,1.28.55.21.55.46.06.82a4.85,4.85,0,0,1-1.15.73c-1.58.51-3.18.95-4.78,1.42-.29.08-.44-.02-.42-.33.05-.78.05-1.58.17-2.35a7.934,7.934,0,0,0-.65-5.05c-.3-.59-.58-1.2-.83-1.82a3.16,3.16,0,0,1,.25-2.82.7.7,0,0,1,.27-.27,11.572,11.572,0,0,0,3.31-3.08,1.241,1.241,0,0,1,.66-.41,3.876,3.876,0,0,0,2.2-1.09,25.9,25.9,0,0,0,2.14-2.54,7.853,7.853,0,0,0,1.13-3.15.806.806,0,0,0-.57-1.04.825.825,0,0,0-.97.68,3.3,3.3,0,0,0-.13.52A7.892,7.892,0,0,1,792.5,88a3,3,0,0,1-1.94.93,1.576,1.576,0,0,0-1.15.67c-.56.69-1.15,1.37-1.76,2.03a4.256,4.256,0,0,1-2.94,1.4c-.82.06-1.66-.07-2.48-.06a7.765,7.765,0,0,1-5.72-2,2.145,2.145,0,0,0-.89-.48A8.078,8.078,0,0,1,772,88.34a17.7,17.7,0,0,0-2.29-1.74.8.8,0,0,0-1.23.23c-.21.4-.03.8.44,1.15.78.59,1.57,1.17,2.29,1.82A8.937,8.937,0,0,0,775,91.96a1.18,1.18,0,0,1,.4.17,10.929,10.929,0,0,0,3.57,2.11c-.05.93-.16,1.78-.12,2.64a6.858,6.858,0,0,0,1.13,3.09,12.065,12.065,0,0,1,.94,1.82c.49,1.43-.52,2.49-.93,3.75-2.24-1.63-4.4-3.21-6.58-4.8.07-.07.12-.13.17-.19.57-.56.63-.79.38-1.42-.34-.84-.66-1.09-1.43-1.09-.39,0-.78.04-1.17.07a2.282,2.282,0,0,1-1.74-.47c-1.08-.87-2.18-1.72-3.27-2.57-.54-.43-1.06-.87-1.63-1.26a.782.782,0,0,0-1.29.47c-.1.48.21.76.53,1.01,1.12.89,2.24,1.76,3.34,2.64.13.1.24.22.35.32a.644.644,0,0,1-.1.13,9.667,9.667,0,0,1-1.13-.53c-1.29-.82-2.57-1.69-3.84-2.53a10.771,10.771,0,0,0-.96-.59.726.726,0,0,0-1,.21.756.756,0,0,0,.03,1.03,1.872,1.872,0,0,0,.49.4c.44.29.88.59,1.45.96h-1.3a1.106,1.106,0,0,0-1.28.89c-.19.52-.39,1.04-.53,1.58a1.843,1.843,0,0,1-1.1,1.28c-.8.38-1.58.78-2.36,1.2-.02-.19-.03-.38-.06-.58a1.879,1.879,0,0,0-1.49-1.77.638.638,0,0,0-.27-.2,21.46,21.46,0,0,0-3.13-1.19,12.868,12.868,0,0,0-3.36-.63c-1.13,0-1.31,1.35-1.5,2.21a15.094,15.094,0,0,0-.34,2.75,18.746,18.746,0,0,1-2.36-.18c-.54-.07-1.09-.15-1.63-.19a3,3,0,0,0-1.23.03c-.87.32-.74,1.41-.77,2.16-.04.95-.04,1.9-.02,2.85-.4.23-.81.46-1.21.69a.794.794,0,0,0,.8,1.37l1.41-.81a.735.735,0,0,0,.41-.23c1.92-1.1,3.82-2.23,5.67-3.45,2.06-1.37,4.12-2.93,6.57-3.53.81-.2.84-.15.93.65.07.67.09,1.34.1,2.01.03,1.46-.04,2.91-.04,4.37a18.955,18.955,0,0,0,1.29,7.64c.4.93,1.77.13,1.37-.8-.11-.26-.2-.52-.29-.78a2.07,2.07,0,0,0,.61-.27c.89-.51,1.78-1.03,2.66-1.55a1.331,1.331,0,0,1,1.47,0c.15.1.32.17.47.27a1.582,1.582,0,0,0,1.79.02c.86-.47,1.74-.9,2.63-1.31a2.119,2.119,0,0,0,1.28-1.55c.07-.36.19-.71.32-1.15a2.555,2.555,0,0,1,.17.35,20.714,20.714,0,0,0,2.49,4.81,9.538,9.538,0,0,0,4.92,3.92,3.958,3.958,0,0,1,.95.39,1.407,1.407,0,0,1,.58.7,9.279,9.279,0,0,1,.34,2.02,2.8,2.8,0,0,0,2.08,2.6,12.737,12.737,0,0,0,6.64.61,6.531,6.531,0,0,0,3.82-1.93,2.657,2.657,0,0,0,.81-2.08c-.03-.6-.04-1.21-.1-1.82a.857.857,0,0,1,.58-.95,7.268,7.268,0,0,0,3.08-2.73,14.528,14.528,0,0,0,2.08-8.89c-.03-.59-.06-1.17-.04-1.75Zm-12.4-9.42c.22-.02.45-.04.72-.06-.38,1.74.47,3.12,1.16,4.5a5.778,5.778,0,0,1,.63,3.5c-.09.63-.19,1.26-.23,1.89a17.221,17.221,0,0,0,0,1.76c.02.29,0,.46-.35.49-.31.03-.6.13-.91.18-.44.06-.55-.04-.45-.48.2-.94.44-1.86.63-2.81a7.862,7.862,0,0,0-1.05-5.41,14.427,14.427,0,0,1-1-2.43c-.21-.66.14-1.09.85-1.16Zm-3.68.33c.04-.62.53-.75,1.28-.35a4.883,4.883,0,0,0,.82,3.93,7.24,7.24,0,0,1,1.28,3.55,3.087,3.087,0,0,1-.12,1.05,11.437,11.437,0,0,0-.61,3.94c0,.06-.02.12-.02.18a1.75,1.75,0,0,1-1.13-2.57,9.688,9.688,0,0,0,.64-1.58,4.357,4.357,0,0,0-.53-3.25c-.3-.58-.64-1.14-.98-1.7a5.46,5.46,0,0,1-.63-3.22Zm-32.5,4.39c.02-.06.03-.11.05-.17.17.02.38.04.4.04a19.245,19.245,0,0,1,3.34.85,21.842,21.842,0,0,0-4.27,2.43,12.9,12.9,0,0,1,.2-1.96c.08-.4.17-.8.28-1.2Zm-6.51,5.77c0-.43.03-.86.05-1.3a.41.41,0,0,1,.01-.11h.12c1.16.08,2.3.29,3.46.36-1.2.76-2.41,1.49-3.63,2.2,0-.38-.01-.77,0-1.15Zm26.77-2.26c-.54,1.76-1.12,3.51-1.6,5.29a2.883,2.883,0,0,1-1.93,2.35,2.58,2.58,0,0,0-.42.25,2.178,2.178,0,0,1-2.53-.03,1.471,1.471,0,0,0-1.74-.04c-1.09.66-2.18,1.32-3.25,1.99-.09.06-.19.13-.28.2a31.571,31.571,0,0,1-.34-6.94c.01-.79.03-1.58,0-2.38a1.348,1.348,0,0,0,.56-.12c1.05-.51,2.08-1.02,3.11-1.55a2.078,2.078,0,0,0,1.16-1.5c.09-.43.25-.84.38-1.26a.473.473,0,0,1,.62-.38c.67.13,1.36.21,2.02.35a16.871,16.871,0,0,0,5.39.47,2.412,2.412,0,0,1,.63.12,1.2,1.2,0,0,1-.51.37c-1.12.49-2.25.96-3.35,1.48a2.474,2.474,0,0,0-.86.75,1.035,1.035,0,0,0,.13,1.23c.33.32.66.13.99-.03.61-.29,1.22-.59,1.91-.92-.05.17-.06.25-.09.32Zm9.99,4.86a73.914,73.914,0,0,1-9.46-.94c.44-1.43.9-2.91,1.4-4.53,2.74,1.81,5.43,3.57,8.12,5.33a1.389,1.389,0,0,0-.06.13Zm9.52,14.27a7.212,7.212,0,0,1-4,.67,26.721,26.721,0,0,1-3.4-.63,1.407,1.407,0,0,1-1.15-1.49,11.81,11.81,0,0,0-.23-1.42,21.264,21.264,0,0,0,10.13-.4A2.437,2.437,0,0,1,787.71,122.34Z" fill="#132c53"/>
      <path id="Path_1504" data-name="Path 1504" d="M782.99,52.26a3.169,3.169,0,0,0-1.68-1.82,1.379,1.379,0,0,0-1.84.52c-.05.07-.09.17-.15.18-.68.23-.72.77-.67,1.36.13,1.82.26,3.64.38,5.46a2.42,2.42,0,0,1-.06.76,3.451,3.451,0,0,0-.21.97,12.558,12.558,0,0,0,1.33,4.47,4.47,4.47,0,0,0,.64.86c.74.78,1.58.74,2.1-.19.75-1.33,1.4-2.72,2.07-4.09a3.87,3.87,0,0,0,.21-.89c-.12-.62-.26-1.26-.36-1.9a24.754,24.754,0,0,0-1.76-5.68Zm.45,7.76a14.36,14.36,0,0,1-1.82,3.63,5.542,5.542,0,0,1-.86-2.94,24.544,24.544,0,0,0-.16-3.08c-.1-1.37-.19-2.73-.28-4.11a.906.906,0,0,1,.06-.32c.2-.33.41-.67.66-1.05a4.05,4.05,0,0,1,.42.63,27.191,27.191,0,0,1,1.99,6.89.975.975,0,0,1-.02.34Z" fill="#132c53"/>
      <path id="Path_1505" data-name="Path 1505" d="M780.68,75.48a7.176,7.176,0,0,0,.58,1.18,2.128,2.128,0,0,0,3.86-1.37c-.09-.88-.22-1.75-.25-2.63-.09-1.97-1.26-3.34-2.52-4.66a.894.894,0,0,0-1.55.48,4.048,4.048,0,0,0-.08.78v2.35h.06c-.06,1.16-.11,2.32-.17,3.49a.8.8,0,0,0,.06.38Zm1.74-5.03a4.171,4.171,0,0,1,.54,1c.22,1.33.4,2.67.55,4.01.02.13-.2.39-.35.43a.9.9,0,0,1-.59-.17.618.618,0,0,1-.15-.44c-.04-1.51-.06-3.03-.1-4.54a1.029,1.029,0,0,1,.09-.28Z" fill="#132c53"/>
      <path id="Path_1506" data-name="Path 1506" d="M789.16,47.42a3.366,3.366,0,0,0-.4-1.08c-.27-.49-.61-.95-.9-1.43-.17-.29-.27-.63-.46-.91a.89.89,0,0,0-1.57.1,3.282,3.282,0,0,0-.3,1.07c-.18,1.31-.31,2.62-.49,3.93a3.807,3.807,0,0,0,.11,2.24A2.623,2.623,0,0,0,786.64,53a1.786,1.786,0,0,0,2.29-1.43,26.45,26.45,0,0,0,.32-2.66.149.149,0,0,1-.09-.02,10.325,10.325,0,0,0-.02-1.47Zm-1.67,3.29a4.2,4.2,0,0,1-.25.84,1.659,1.659,0,0,1-.71-1.43c.11-1.05.32-2.08.48-3.15a1.036,1.036,0,0,1,.58,1.01c-.05.91-.06,1.82-.11,2.73Z" fill="#132c53"/>
      <path id="Path_1507" data-name="Path 1507" d="M789.35,56.46c-.18-.85-.48-1.19-1.01-1.2s-.92.39-1.13,1.18c-.31,1.2-.58,2.41-.94,3.6a3.752,3.752,0,0,0-.07,2.02,3.211,3.211,0,0,0,1.31,2.05,1.3,1.3,0,0,0,1.89-.19,2.483,2.483,0,0,0,.78-2.09c-.08-.75-.13-1.5-.25-2.24-.17-1.05-.37-2.09-.59-3.13Zm-.94,6.26c-.96-.78-.79-1.97-.16-3.6A9.323,9.323,0,0,1,788.41,62.72Z" fill="#132c53"/>
      <path id="Path_1508" data-name="Path 1508" d="M772.42,45.36a2.257,2.257,0,0,0-.67-.76,1.663,1.663,0,0,0-1-.16c-.38.07-.51.45-.54.85a1.73,1.73,0,0,1-.16.52,4.131,4.131,0,0,0-.32.84,7.572,7.572,0,0,0,.65,3.72,2.421,2.421,0,0,0,2.47,1.69c1.25,0,1.73-.45,1.61-1.46a12.527,12.527,0,0,0-2.04-5.24ZM771.96,50c-.17-.57-.35-1.14-.55-1.71-.14-.39-.07-.66.39-.79a6.791,6.791,0,0,1,.94,2.93c-.37.03-.65-.04-.77-.43Z" fill="#132c53"/>
      <path id="Path_1509" data-name="Path 1509" d="M775.01,55.52a2.27,2.27,0,0,0-.69-.69.809.809,0,0,0-1.2.19,3.437,3.437,0,0,0-.44,1.79,24.538,24.538,0,0,0,1.09,3.64c.21.59.44,1.27,1.22,1.4.06,0,.1.09.13.13a1.091,1.091,0,0,0,1.54.09,2.458,2.458,0,0,0,.84-1.83,3.7,3.7,0,0,0-.21-.73c-.74-1.34-1.49-2.67-2.27-3.99Zm.59,5.18c-.38-.93-.76-1.85-1.14-2.77.06-.02.12-.05.18-.07a8.178,8.178,0,0,1,1.22,2.73c-.09.04-.17.07-.26.11Z" fill="#132c53"/>
      <path id="Path_1510" data-name="Path 1510" d="M777.28,64.38a1.03,1.03,0,0,0-1.15-.1.976.976,0,0,0-.44,1.06c.05.42.11.84.17,1.25-.03,0-.06.02-.09.02a9.251,9.251,0,0,0,.2,1.05c.22.8.48,1.59.72,2.39a1.8,1.8,0,0,0,3.39-1.21,24.347,24.347,0,0,0-.99-2.49,5.163,5.163,0,0,0-1.81-1.96Zm.97,5.28c-.29-.95-.57-1.86-.85-2.78C778.11,67.56,778.64,69.29,778.25,69.66Z" fill="#132c53"/>
      <path id="Path_1511" data-name="Path 1511" d="M788.65,70.95a9.2,9.2,0,0,0,.26-1.29,12.369,12.369,0,0,0-.15-1.27c-.21-.82-.47-1.62-.71-2.44-.13-.44-.34-.78-.86-.78-.44,0-.71.26-.86.84-.21.78-.4,1.58-.62,2.36a6.636,6.636,0,0,1-.29.6,2.239,2.239,0,0,0-.25.94,2.436,2.436,0,0,0,1.24,1.85,1.488,1.488,0,0,0,2.26-.81Zm-1.43-.69q-.48-.23.06-1.05C787.26,69.55,787.23,69.9,787.22,70.26Z" fill="#132c53"/>
      <path id="Path_1512" data-name="Path 1512" d="M771.13,82.1a1.14,1.14,0,0,0-.89,1.44,1.2,1.2,0,0,0,1.34,1.02c.15-.01.29-.03.44-.04a1.212,1.212,0,0,0,.74-2.12,1.463,1.463,0,0,0-1.63-.3Z" fill="#132c53"/>
      <path id="Path_1513" data-name="Path 1513" d="M791.1,82.86a1.253,1.253,0,0,0,1.31-1.18,1.456,1.456,0,0,0-1.38-1.44,1.23,1.23,0,0,0-1.29,1.19A1.366,1.366,0,0,0,791.1,82.86Z" fill="#132c53"/>
      <path id="Path_1514" data-name="Path 1514" d="M785.2,88.65a.85.85,0,0,0,.35,1.03,5.068,5.068,0,0,0,.72.4.777.777,0,0,0,1.12-.81,1.287,1.287,0,0,0-1.35-1.14.766.766,0,0,0-.84.53Z" fill="#132c53"/>
      <path id="Path_1515" data-name="Path 1515" d="M778.98,88.94a1.451,1.451,0,0,0-1.31,1.17.762.762,0,0,0,.82.78,1.37,1.37,0,0,0,1.28-1.18.766.766,0,0,0-.78-.77Z" fill="#132c53"/>
      <path id="Path_1516" data-name="Path 1516" d="M823.19,93.8a.746.746,0,0,0,.06-.31c-.02-2.38-.46-4.71-.69-7.07a.8.8,0,0,0-.79-.79c-1.06.01-2.12.02-3.17.04-.02-1.3-.08-2.6-.21-3.89a.8.8,0,0,0-.79-.79l-2.51.12a14.1,14.1,0,0,1-1.91.13,9.15,9.15,0,0,1-.3-1.9c-.12-.76-.24-1.52-.37-2.28a.8.8,0,0,0-.98-.55c-.73.14-1.45.27-2.18.41-.54.1-1.16.29-1.74.35-.11-.37-.24-1.02-.32-1.29-.18-.65-.37-1.3-.55-1.94a.8.8,0,0,0-.98-.55A33.661,33.661,0,0,0,802,74.96c-.05-.97-.12-1.78-.14-2.07v-.02a8.528,8.528,0,0,0-1.34-3.5,1.229,1.229,0,0,1-.12-.74c.06-.59.23-1.17.24-1.74a12.679,12.679,0,0,0-2.63-8.03c-.3-.4-.74-.82-.57-1.4a11.507,11.507,0,0,0,.25-3.74,3.291,3.291,0,0,0-.98-2.64,5.976,5.976,0,0,1-1.69-2.68,2.793,2.793,0,0,0-1.04-1.36,10.2,10.2,0,0,0-1.09-.66,4.286,4.286,0,0,1-2.05-1.94,14.441,14.441,0,0,0-1.44-2.21c-.63-.83-1.38-1.57-2.01-2.39a3.955,3.955,0,0,0-2.27-1.51c-.97-.24-1.92-.53-2.9-.68a1.424,1.424,0,0,1-1.38-1.09,9.836,9.836,0,0,0-.81-1.78,2.579,2.579,0,0,0-.32-.49.968.968,0,0,0-1.77.25,4.062,4.062,0,0,0-.25.84c-.17.86-.3,1.74-.5,2.59a1.429,1.429,0,0,1-.44.71,5.038,5.038,0,0,1-2.62,1.29,8.656,8.656,0,0,0-5.18,2.94c-1.06,1.22-2.02,2.54-3.12,3.71a5.433,5.433,0,0,0-1.58,4.26,1.117,1.117,0,0,1-.39.94,5.409,5.409,0,0,0-1.56,3.34c-.07.52-.08,1.04-.13,1.56a5.726,5.726,0,0,1-1.1,3.57,1.79,1.79,0,0,0-.25.52,14.5,14.5,0,0,0-1.13,6.94,5.4,5.4,0,0,1-.02,1.84,15.259,15.259,0,0,0-.66,4.18v.16q-.525-.42-1.05-.81c-.49-.35-1.09-.59-1.61-.14a6.738,6.738,0,0,0-1.06,1.96c-.3.54-.63,1.06-.98,1.57-.64-.4-1.28-.79-1.93-1.17-.55-.32-1.2-.63-1.73-.09a6.309,6.309,0,0,0-.92,2.2l-.54,1.47c-.09.25-.18.49-.27.73-.02.04-.06.23-.1.4-1.16-.67-2.93-2.23-3.76-.88a10.5,10.5,0,0,0-.78,2.65c-.2.72-.4,1.44-.59,2.16-1.55-1.34-3.84-2.86-4.72-.44a26.025,26.025,0,0,0-.97,4.54c-.27,1.56-.48,3.13-.64,4.7a.844.844,0,0,0,.03.33c-1.41,2.97-1.45,6.56-1.84,9.77-.12,1.01,1.46,1,1.59,0,.4-3.3.38-7.04,2.14-9.96a30.957,30.957,0,0,1,5.27-6.32,41.778,41.778,0,0,1,6.91-5.22c2.44-1.48,5.03-2.72,7.54-4.08a42.767,42.767,0,0,0,.49,5.05.2.2,0,0,0,.02.1q.735,3.675,1.44,7.35c.16.78.31,1.57.5,2.35a.923.923,0,0,0,1.05.69c.4-.08.56-.39.51-.97a3.558,3.558,0,0,0-.06-.44c-.17-.93-.35-1.85-.53-2.78q-.675-3.465-1.37-6.9c-.1-.48-.21-.94-.31-1.42a.284.284,0,0,0,.12-.04c.55.98,1.11,1.96,1.66,2.94a2.606,2.606,0,0,1,.21.55,13.528,13.528,0,0,0,.52,1.47c.71,1.47,1.47,2.94,2.21,4.41.97,1.89,1.93,3.78,2.92,5.65.31.59.79.75,1.25.48s.51-.75.16-1.33c-.11-.19-.23-.39-.35-.59a12.845,12.845,0,0,1,3.42,2.93c1.05,1.43,2.2,2.8,3.31,4.19.53.66,1.07,1.32,1.62,1.97a.732.732,0,0,0,1.05.15.779.779,0,0,0,.25-1.05,2.158,2.158,0,0,0-.29-.45c-.38-.48-.78-.97-1.17-1.45-.78-.97-1.56-1.95-2.42-3.01.56.16,1.01.28,1.47.41a.694.694,0,0,0,.94-.44.679.679,0,0,0-.3-.96,7.59,7.59,0,0,0-1.19-.56,17.259,17.259,0,0,1-7.01-4.51,36.256,36.256,0,0,1-4.74-7.28l-.05-.1c-.36-.81-.67-1.65-1.08-2.43-.56-1.08-1.24-2.1-1.81-3.18a9.377,9.377,0,0,1-.61-6.17,18.49,18.49,0,0,0,.49-4.82,10.775,10.775,0,0,1,1.8-7.03,2.924,2.924,0,0,0,.44-1.17c.15-1.17.25-2.34.36-3.51a3.6,3.6,0,0,1,1.01-2.33,2.731,2.731,0,0,0,.95-2.39,2.039,2.039,0,0,1,.62-1.92,1.64,1.64,0,0,0,.33-.48,25.5,25.5,0,0,1,3.39-4.36,7.792,7.792,0,0,1,3.9-2.32,4.923,4.923,0,0,0,2.73-1.18h.07c.02.12.05.25.06.37.22,2.12.48,4.25.64,6.38.08,1.03.79,1.47,1.49,1.95a.933.933,0,0,0,.62.09,2.6,2.6,0,0,0,1.85-.98c.33-.44.64-.91.99-1.34,1.19-1.43.76-2.94.28-4.45-.33-1.06-.7-2.11-1.07-3.19a6.943,6.943,0,0,1,5.33,2.58,30.005,30.005,0,0,1,2.39,3.46,5.4,5.4,0,0,0,2.45,2.37,3.758,3.758,0,0,1,2.17,2.76,1.238,1.238,0,0,0,.27.52c.33.38.71.71,1.03,1.11.24.28.55.6.56.93a13.151,13.151,0,0,1,0,3.6,3.434,3.434,0,0,0,.71,3.15,11.034,11.034,0,0,1,1.7,3.12,8.793,8.793,0,0,1,.46,5.48,2.323,2.323,0,0,0,.39,2,3.4,3.4,0,0,1,.45.75,11.7,11.7,0,0,1-.02,9.07c-.6,1.43-1.33,2.8-1.98,4.21a20.992,20.992,0,0,1-5.16,7.07c-1.53,1.36-3.24,2.52-4.87,3.77a4.473,4.473,0,0,0-.52.44.73.73,0,0,0-.06.95.713.713,0,0,0,.88.33c.17-.06.35-.1.57-.17-.06.25-.1.4-.13.55a.881.881,0,0,0,.46,1.11c.44.17.81,0,1.06-.54a16.277,16.277,0,0,0,.74-1.65,5.039,5.039,0,0,1,1.46-2.17c.8-.71,1.6-1.44,2.46-2.22-.48,2.24-.95,4.37-1.41,6.5a.967.967,0,0,0,.62,1.26c.42.1.75-.21.91-.88.24-.96.5-1.93.68-2.9a39.055,39.055,0,0,1,4.22-11.87c.13-.22.29-.42.44-.63a.817.817,0,0,1,.09.45c-.17,2.43-.35,4.85-.51,7.28-.17,2.58-.34,5.15-.45,7.74-.06,1.24.02,2.5.06,3.76a.582.582,0,0,0,.6.64.6.6,0,0,0,.69-.55c.02-.13.05-.25.06-.38.11-1.57.23-3.13.32-4.69.17-2.74.31-5.48.47-8.22q.165-2.835.36-5.68c.11-1.72.25-3.43.36-5.15v-.17a.714.714,0,0,1,.02-.2v-.81c2.39,1.35,4.85,2.57,7.18,4.03a40.546,40.546,0,0,1,6.7,5.26,30.072,30.072,0,0,1,5.07,6.33c1.7,2.94,1.67,6.67,2.05,9.96.12,1,1.7,1.01,1.59,0-.34-2.96-.39-6.24-1.47-9.08Zm-66.7-17.78c.25-.44.44-1.08.72-1.56a8.228,8.228,0,0,1,.75.66c.23.18.47.36.7.55-.97.53-1.94,1.05-2.92,1.56.27-.39.52-.78.76-1.2Zm-10.38,5.09c.04-.16.1-.48.17-.74.56.28,1.46.9,1.9,1.13a.935.935,0,0,0,.1.05c-.99.69-1.96,1.43-2.89,2.21.1-.38.21-.76.31-1.13.14-.5.28-1.01.42-1.51Zm-6.82,8.9c.19-1.31.41-2.62.69-3.92q.15-.735.33-1.47c.13-.54.14-.85.71-.58a9.359,9.359,0,0,1,2.19,1.64c-.06.06-.13.12-.2.18a35.262,35.262,0,0,0-3.71,4.15Zm11.2-9.9c.1-.34.19-.68.29-.96l.54-1.47c.09-.25.18-.67.3-1.01.32.18.73.49.91.6.48.29.95.58,1.42.88-1.18.62-2.34,1.26-3.47,1.96Zm30.88-34.39c-.34.49-.68.99-1.07,1.46a1.081,1.081,0,0,1-.61.33c-.08,0-.26-.3-.3-.48a16.826,16.826,0,0,1-.55-3.75,28.437,28.437,0,0,0-.22-3.08,7.159,7.159,0,0,1,.37-2.93,20.569,20.569,0,0,1,1.63,4.61c.15.68.38,1.35.58,2.02a1.1,1.1,0,0,0,.15.31c.47.67.48.85.02,1.51Zm24.64,31.54c.04.15.08.3.12.46-.98-.53-1.95-1.06-2.92-1.6.73-.32,1.48-.61,2.23-.87Zm2.06,1.53c.35-.08.7-.18.97-.23.68-.13,1.36-.25,2.04-.38.12.77.25,1.55.37,2.32.02.14.04.29.06.44-.29-.2-.58-.41-.88-.6-.84-.55-1.7-1.05-2.57-1.55Zm5.91,3.96c.19-.02.36-.04.52-.05.79-.04,1.58-.07,2.36-.11.08.94.13,1.88.14,2.83a38.538,38.538,0,0,0-3.03-2.67Zm4.8,4.49c.76,0,1.53-.02,2.29-.03.13,1.13.28,2.27.4,3.4A29.217,29.217,0,0,0,818.78,87.24Z" fill="#132c53"/>
      <path id="Path_1517" data-name="Path 1517" d="M808.49,84.56a2.708,2.708,0,0,1-.55-.57,2.939,2.939,0,0,0-.86-.67c-.32-.17-.65-.33-.98-.5a8.277,8.277,0,0,0-1.13-.53.814.814,0,0,0-.98.55.607.607,0,0,0-.01.19.8.8,0,0,0-.09.36v2.1c0,.32-.02.65,0,.97a1.346,1.346,0,0,0,.6,1.07,9.045,9.045,0,0,1,1.22,1.09,7.456,7.456,0,0,0,1.23,1.28,1.548,1.548,0,0,0,1.84-.11,2.712,2.712,0,0,0,.85-1.57,3.455,3.455,0,0,0-1.14-3.65Zm-.66,4.01Zm.07-.18a1.42,1.42,0,0,1-.11.16c-.04-.03-.09-.06-.07-.04a9.7,9.7,0,0,1-.89-1.02,9.846,9.846,0,0,0-1.06-.98s-.16-.13-.29-.23V84.26c.14.08.27.15.41.22a6.08,6.08,0,0,1,.62.33,2.09,2.09,0,0,1,.44.45,2.663,2.663,0,0,0,.54.52,2.9,2.9,0,0,1,.37.28,1.934,1.934,0,0,1,.3,1.14,2.524,2.524,0,0,1-.25,1.18Z" fill="#132c53"/>
      <path id="Path_1518" data-name="Path 1518" d="M815.34,89.94c-.34-.39-.73-.73-1.1-1.09a7.09,7.09,0,0,0-.65-.58,1.751,1.751,0,0,0-.96-.37.765.765,0,0,0-.75.56.822.822,0,0,0-.53.73c-.04.51-.08,1.02-.07,1.53a2.041,2.041,0,0,0,.58,1.5,12.3,12.3,0,0,0,2.21,1.87,1.523,1.523,0,0,0,1.58.24c.57-.32.61-.93.62-1.52a4.79,4.79,0,0,0-.16-1.55,3.71,3.71,0,0,0-.77-1.33Zm-.8,1.6Zm-.08.89a.379.379,0,0,1-.08-.07c-.15-.12-.29-.24-.43-.36-.28-.25-.56-.51-.83-.77-.06-.06-.13-.12-.19-.19h0c0-.01-.02-.03-.02-.04,0-.03-.02-.06-.02-.09v-.32c0-.27.02-.54.04-.82.07.07.14.13.21.2.27.26.54.51.8.77.11.11.22.23.33.35.02.02.04.05.06.07l.01.02c.05.08.11.16.15.24a.913.913,0,0,1,.07.14h0a2.17,2.17,0,0,1,.07.24c.01.04.02.08.03.13a.176.176,0,0,0,.01.06v.07a.914.914,0,0,0,.01.17v.36c-.07-.05-.13-.09-.2-.14-.03-.02-.02-.02-.03-.02Zm.7.47Z" fill="#132c53"/>
      <path id="Path_1519" data-name="Path 1519" d="M820.09,96.84c-.6-.56-1.2-1.11-1.81-1.66a.827.827,0,0,0-.91-.14.771.771,0,0,0-.69.57,7.6,7.6,0,0,0,.02,4.38,7.155,7.155,0,0,0,2.4,3.23.793.793,0,0,0,1.08-.28,8.19,8.19,0,0,0,.7-4.15,2.484,2.484,0,0,0-.81-1.94Zm-1.9,2.62a4.222,4.222,0,0,1-.17-2.36l.71.65a2.527,2.527,0,0,1,.49.49,1.262,1.262,0,0,1,.09.67,10.689,10.689,0,0,1-.14,2.26,7.126,7.126,0,0,1-.98-1.7Z" fill="#132c53"/>
      <path id="Path_1520" data-name="Path 1520" d="M755.3,86.11a5.339,5.339,0,0,0,1.07-.88A3.16,3.16,0,0,0,757,83.4c.06-.7.11-1.4.17-2.1a.8.8,0,0,0-.79-.79.738.738,0,0,0-.53.22.863.863,0,0,0-.62.22,14.433,14.433,0,0,1-2.65,1.74c-1.14.61-.92,2.28-.68,3.33a2.061,2.061,0,0,0,.86,1.51,1.458,1.458,0,0,0,1.81-.63c.15-.2.22-.32.33-.44.07-.07.15-.14.22-.2.12-.1.04-.03.02-.01.06-.04.12-.09.18-.13Zm-.11-1.93Zm-1.83-.16Zm-.2,2.09Zm1.97-1.86c-.06.06-.12.12-.19.18-.03.02-.06.05-.09.07h0c-.01,0-.01,0-.04.03a10.248,10.248,0,0,0-.91.68,3.422,3.422,0,0,0-.44.49v.01c-.01-.04-.02-.08-.03-.13a5,5,0,0,1-.1-1.29v-.15a.2.2,0,0,1,.01-.07h0c.03-.02.06-.03.07-.04.11-.06.22-.11.33-.17a12.868,12.868,0,0,0,1.72-1.1v.06c-.02.22-.03.45-.06.67a2.2,2.2,0,0,1-.09.46,1.993,1.993,0,0,1-.11.2c0,.01,0,.01-.01.02-.02.03-.05.05-.07.08Z" fill="#132c53"/>
      <path id="Path_1521" data-name="Path 1521" d="M746.88,91.08a8.774,8.774,0,0,0,1.1-.35c.39-.13.79-.25,1.18-.4a1.558,1.558,0,0,0,.79-.56,1.944,1.944,0,0,0,.28-.7c.12-.48.23-.95.35-1.43a.825.825,0,0,0-.34-.87.8.8,0,0,0-.96-.53l-2.4.81a2.446,2.446,0,0,0-1.29.65,2.768,2.768,0,0,0-.31,1.48,2.5,2.5,0,0,0,.16,1.24,1.253,1.253,0,0,0,1.43.65Zm.6-2.55c.46-.15.91-.31,1.37-.46-.02.06-.03.13-.05.19-.04.15-.08.31-.11.46a.45.45,0,0,1-.03.11c-.06.02-.12.04-.17.06l-.52.17c-.32.11-.64.21-.96.32-.05.02-.1.03-.14.05v-.17c.01-.17.02-.33.04-.5v-.03c.02,0,.03-.01.05-.02.17-.06.35-.12.52-.18Zm-.93,1Z" fill="#132c53"/>
      <path id="Path_1522" data-name="Path 1522" d="M741.92,98.3a1.8,1.8,0,0,0,.92.1,1.3,1.3,0,0,0,.78-.6,10.428,10.428,0,0,0,1.29-2.64,2.127,2.127,0,0,0,.16-1.85,3.765,3.765,0,0,0-1.29-1.22.8.8,0,0,0-.84.03h-.03c-.99.22-1.54,1.36-1.93,2.2a12.332,12.332,0,0,0-.58,1.46,1.746,1.746,0,0,0,.1,1.78,2.922,2.922,0,0,0,1.42.75Zm1.77-4.23Zm-1.56,1.55c.07-.19.08-.2.17-.4a9.363,9.363,0,0,1,.58-1.08l.15-.24a.186.186,0,0,0,.03-.04c.02-.02.05-.06.06-.07.03-.04.19-.17.09-.1a.434.434,0,0,1,.07-.04.124.124,0,0,0,.03.02,3.643,3.643,0,0,1,.34.34c-.03.07-.06.18-.08.24-.03.09-.07.19-.1.28a10.673,10.673,0,0,1-.8,1.84c-.08.14-.16.27-.25.4-.12-.03-.25-.06-.36-.1a2.281,2.281,0,0,1-.23-.1c.05-.15.09-.31.14-.46s.11-.32.17-.48Z" fill="#132c53"/>
    </g>
    <g id="Group_429" data-name="Group 429">
      <g id="Group_428" data-name="Group 428">
        <path id="Path_1523" data-name="Path 1523" d="M721.45,11.35c20.97-4.77,40.63,2.76,43.82,16.79,2.89,12.71-10.45,18.05-25.29,21.92a3.721,3.721,0,0,0-2.75,3.02,3.664,3.664,0,0,0,1.6,3.7l.09.06a2.752,2.752,0,0,1-.66,4.92c-.32.1-.65.19-.98.27a12.068,12.068,0,0,1-13.14-5.74,3.787,3.787,0,0,0-4-1.77c-14.39,2.68-28.1,3.43-30.94-9.08-3.19-14.03,11.28-29.32,32.25-34.09Z" fill="#132c53"/>
        <g id="Group_427" data-name="Group 427">
          <g id="Group_426" data-name="Group 426">
            <path id="Path_1524" data-name="Path 1524" d="M692.49,21.2a38.645,38.645,0,0,1,4-4.94,45.786,45.786,0,0,1,3.65-3.4.9.9,0,0,1,1.28.14h0a.892.892,0,0,1-.14,1.26,43.274,43.274,0,0,0-3.49,3.24,36.237,36.237,0,0,0-3.8,4.68.913.913,0,0,1-1.24.27h0a.9.9,0,0,1-.27-1.26Z" fill="#132c53"/>
            <path id="Path_1525" data-name="Path 1525" d="M711.19,5.9a61.778,61.778,0,0,1,12.66-4.34A60.466,60.466,0,0,1,742.69.25a.91.91,0,0,1,.81,1h0a.9.9,0,0,1-.99.79,58.625,58.625,0,0,0-18.26,1.28,60.086,60.086,0,0,0-12.28,4.21.9.9,0,1,1-.78-1.63Z" fill="#132c53"/>
          </g>
          <path id="Path_1526" data-name="Path 1526" d="M725.05,6.83c-20.52,4.67-34.66,19.45-31.57,33.01,2.53,11.15,14.38,11.29,29.9,8.4a4.706,4.706,0,0,1,4.95,2.21,11.172,11.172,0,0,0,13.07,5.06,1.849,1.849,0,0,0,.44-3.3.6.6,0,0,1-.1-.07,4.646,4.646,0,0,1,1.41-8.35c15.95-4.16,27.25-9.39,24.64-20.85C764.71,9.37,745.57,2.16,725.05,6.83Z" fill="#fff"/>
          <path id="Path_1527" data-name="Path 1527" d="M740.68,56.64a12.068,12.068,0,0,1-13.14-5.74,3.787,3.787,0,0,0-4-1.77c-14.39,2.68-28.1,3.43-30.94-9.08-3.19-14.03,11.28-29.32,32.25-34.09s40.63,2.76,43.82,16.79c2.89,12.71-10.45,18.05-25.29,21.92a3.721,3.721,0,0,0-2.75,3.02,3.664,3.664,0,0,0,1.6,3.7l.09.06a2.752,2.752,0,0,1-.66,4.92c-.32.1-.65.19-.98.27ZM725.24,7.71c-20,4.55-33.86,18.87-30.89,31.93,2.03,8.92,10.39,11.15,28.85,7.71a5.589,5.589,0,0,1,5.89,2.64,10.265,10.265,0,0,0,12.01,4.66.942.942,0,0,0,.64-.78.913.913,0,0,0-.41-.9l-.11-.07a5.55,5.55,0,0,1,1.68-9.98c16.14-4.21,26.4-9.19,23.99-19.78-2.97-13.06-21.66-19.98-41.66-15.43Z" fill="#132c53"/>
        </g>
      </g>
      <path id="Path_1528" data-name="Path 1528" d="M739.74,19.17a2.5,2.5,0,0,1,1.86-1.35c.84,0,2.28,1.02,2.28,2.01,0,.84-.84.9-1.2.9H731.95c-1.11,1.29-3.72,3.61-5.2,3.61,0,.9.06,5.35.06,6.37,0,.78-1.47,1.32-2.22,1.32-1.2,0-1.2-.63-1.2-1.68h-2.58v1.29c0,.9-1.56,1.47-2.31,1.47-.93,0-.93-.9-.93-1.59,0-1.2.15-7.06.15-8.38,0-.42,0-2.61-.06-2.79-.03-.12-.45-.6-.45-.72,0-.63,1.65-1.8,2.52-1.8a1.1,1.1,0,0,1,1.14,1.02h2.7a2.257,2.257,0,0,1,1.71-1.05c.69,0,1.83.72,1.83,1.41,0,.18-.36.96-.36,1.14v3.34a25.339,25.339,0,0,0,4.09-7.84,1.714,1.714,0,0,1,1.68-1.92c.99,0,2.4.57,2.4,1.68,0,.66-.81,2.04-1.74,3.57h6.55Zm-16.28,9.88V20.13h-2.28c-.36,0-.36.15-.36,1.35s-.03,6.01-.03,7.57h2.67Zm12.62-3.81a2.722,2.722,0,0,1,1.86-1.05c.93,0,2.34.93,2.34,2.07,0,.54-.18.63-1.17,1.08a67.054,67.054,0,0,0-6.94,6.22,3.292,3.292,0,0,0-1.05,2.04c0,1.68,4.06,1.77,4.84,1.77,3.97,0,5.56-.81,6.64-1.35.3-.15,1.83-1.02,1.98-1.02.3,0,.3.21.3.3a12.939,12.939,0,0,1-.96,3.21c-1.05,1.86-2.34,2.1-4.27,2.1-3.7,0-11.48-.75-11.48-4.33a6.131,6.131,0,0,1,1.35-3.21c.66-.96,4.39-5.38,5.17-6.43l-3.64.15c-.3,0-1.62.57-1.92.57a.792.792,0,0,1-.81-.75,1.429,1.429,0,0,1,1.38-1.47c.15,0,.87.15,1.02.15l5.35-.06Z" fill="#132c53"/>
    </g>
  </g>
</svg>
