<svg xmlns="http://www.w3.org/2000/svg" width="118.357" height="124.715" viewBox="0 0 118.357 124.715">
  <g id="Group_418" data-name="Group 418" transform="translate(-361.069 -0.01)">
    <g id="Group_413" data-name="Group 413">
      <path id="Path_1465" data-name="Path 1465" d="M421.71,84.16v0Z" fill="#132c53"/>
      <path id="Path_1466" data-name="Path 1466" d="M453.34,89.99a1.1,1.1,0,0,0-1.11,1.1,1.115,1.115,0,1,0,1.11-1.1Z" fill="#132c53"/>
      <path id="Path_1467" data-name="Path 1467" d="M437.69,90.83a1.131,1.131,0,0,0-1.15,1.12,1.151,1.151,0,0,0,1.11,1.13,1.131,1.131,0,0,0,1.14-1.13,1.1,1.1,0,0,0-1.09-1.12Z" fill="#132c53"/>
      <path id="Path_1468" data-name="Path 1468" d="M454.74,87.6a.421.421,0,0,0-.24-.37,1.03,1.03,0,0,0-.55-.05c-.4.05-.79.11-1.19.16h-.01a.772.772,0,0,0-.15.02.908.908,0,0,0-.31.12.761.761,0,0,0-.26.18.671.671,0,0,0-.22.46.421.421,0,0,0,.24.37,1.03,1.03,0,0,0,.55.05c.45-.06.9-.12,1.35-.19a.908.908,0,0,0,.31-.12.761.761,0,0,0,.26-.18.671.671,0,0,0,.22-.46Z" fill="#132c53"/>
      <path id="Path_1469" data-name="Path 1469" d="M439.28,88.84a.706.706,0,0,0,.34-.38.416.416,0,0,0-.13-.42.981.981,0,0,0-.52-.2l-1.19-.18h-.01c-.05,0-.1-.02-.15-.02a.926.926,0,0,0-.33.03.885.885,0,0,0-.3.1.706.706,0,0,0-.34.38.416.416,0,0,0,.13.42.981.981,0,0,0,.52.2c.45.07.9.13,1.35.2a.926.926,0,0,0,.33-.03A.885.885,0,0,0,439.28,88.84Z" fill="#132c53"/>
      <path id="Path_1470" data-name="Path 1470" d="M479.35,110.88a20.76,20.76,0,0,0-1.47-3.71,12.561,12.561,0,0,0-2.17-3.25,13.534,13.534,0,0,0-3.2-2.05c-1.26-.67-2.52-1.34-3.78-2a2.836,2.836,0,0,0-.35-1.72,8.394,8.394,0,0,0-2.18-1.83c-1.72-1.21-3.79-1.81-5.47-3.07a15.807,15.807,0,0,0,4.05-3.77,19.472,19.472,0,0,0,1.96-3.42,14.706,14.706,0,0,0,.81-2.43c1.38-5.72.12-11.89-2.06-17.24-4.38-10.78-15.89-17.37-27.37-13.97a12.706,12.706,0,0,0-5.48,3.24.944.944,0,0,1-.53.23,7.56,7.56,0,0,0-5.38,3.34c-4.72,6.26-6.31,15.06-5.4,22.71,0,0,.37,2.17.37,2.23a21.907,21.907,0,0,0,2.27,5.7,19.288,19.288,0,0,0,1.83,2.91,19.963,19.963,0,0,1-4.03,2.27,15.04,15.04,0,0,0-2.07,1.26,8.223,8.223,0,0,0-1.84,1.58,2.828,2.828,0,0,0-.34,1.71c-1.89.99-3.84,1.92-5.65,3.04a5.622,5.622,0,0,0-1.84,1.69c-.37.57-.67,1.18-1.03,1.75v.02c-.67.14-1.34.27-2.02.37-1.01.14-.58,1.67.42,1.53,3.06-.44,6.01-1.55,9.09-1.89.55-.06,1.11-.1,1.66-.13.36-.01,1.02-.15,1.34.03.7.4-.04,2.08-.25,2.61a14.789,14.789,0,0,0-1.22,6.15c.04,1.02,1.62,1.02,1.59,0a14.565,14.565,0,0,1,.03-1.48,5.356,5.356,0,0,1,.44.86c.31.77.45,1.58.79,2.34a7.822,7.822,0,0,0,2.94,3.35c.86.55,1.66-.82.8-1.37a6.316,6.316,0,0,1-1.27-1.1c.03-.02.06-.02.08-.04.62-.48,1.24-.97,1.83-1.48a.68.68,0,0,1,1.03-.01,1.588,1.588,0,0,0,1.62.37c1.04-.34,2.08-.7,3.12-1.06a1.58,1.58,0,0,0,1.05-1.12c.07-.23.14-.46.24-.77.36.82.67,1.56,1.01,2.28a11.371,11.371,0,0,0,4.38,5.05,4.864,4.864,0,0,1,2.34,2.88,1.546,1.546,0,0,0,1.53,1.18c1.84.05,3.67.09,5.51.07a2.681,2.681,0,0,0,2.79-2.26,2.528,2.528,0,0,1,1.46-1.9c.08-.04.16-.1.24-.15a8.969,8.969,0,0,0,3.62-3.85,14.89,14.89,0,0,0,1.54-8.17,2.111,2.111,0,0,0-.52-1.17,5.583,5.583,0,0,0-4.3-1.88c-.15,0-.36,0-.44.1a1.343,1.343,0,0,0-.41.7c0,.17.28.39.48.53a1.017,1.017,0,0,0,.5.09,4.778,4.778,0,0,1,2.91,1.19c.44.4.45.62,0,.98a12.525,12.525,0,0,1-1.35.94,5.58,5.58,0,0,1-2.44.79c-.03-.46-.03-.88-.08-1.3a13.95,13.95,0,0,0-1.24-3.98,6.456,6.456,0,0,1-.4-4.67c.24-.75.49-1.49.75-2.23a1.637,1.637,0,0,0-.98-2.18c-.59-.23-1.05-.12-1.23.29s-.03.66.58,1c.04.02.11.03.12.06.04.15.15.34.09.44a2.738,2.738,0,0,1-1.99,1.5,3.421,3.421,0,0,1-3.85-2.25c-.07-.18-.12-.36-.2-.53a.658.658,0,0,0-.86-.44.689.689,0,0,0-.45.94,5.952,5.952,0,0,0,.68,1.44,1.9,1.9,0,0,1,.29,1.85,4.752,4.752,0,0,0,.51,4.11,17.2,17.2,0,0,1,1.05,2.05,4.3,4.3,0,0,1,0,3.46c-2.52-1.94-4.99-3.84-7.46-5.75.1-.14.16-.22.22-.31.45-.68.24-1.22-.56-1.39a3.749,3.749,0,0,0-.93-.11,3.712,3.712,0,0,1-2.8-1.31c.5-.54.52-.64.19-1.3l-1.26-2.52a1.8,1.8,0,0,1-.12-.29c.89.22,1.76.47,2.65.64a1.678,1.678,0,0,1,.92.48c1.29,1.17,2.58,2.34,3.92,3.45a12.831,12.831,0,0,0,1.87,1.18.711.711,0,0,0,1.03-.21c.22-.33.11-.72-.3-1.01-.14-.1-.3-.18-.44-.28-.61-.41-1.25-.79-1.82-1.25-.91-.73-1.78-1.52-2.67-2.28.56-.65.56-.81.08-1.44a4.375,4.375,0,0,0-.41-.45,15.043,15.043,0,0,1-2.8-3.64,8.911,8.911,0,0,1-.33-8.19c.79-1.67,1.49-3.39,2.23-5.08.05-.11.11-.2.24-.43v.54c0,.72-.04,1.44-.02,2.17a.849.849,0,0,0,1.03.88c5.55-.53,11.15-.69,16.69-1.28,1.26-.13,1.53-.48,1.4-1.75-.05-.49-.09-.98-.15-1.58a4.121,4.121,0,0,1,.27.34c1.1,2.08,2.27,4.12,3.26,6.25a8.142,8.142,0,0,1,.75,3.18,8.789,8.789,0,0,1-2.81,6.79,3.7,3.7,0,0,0-.4.39.739.739,0,0,0-.08.92.766.766,0,0,0,.9.33,6.172,6.172,0,0,0,.61-.24c-.14.22-.22.36-.32.49a26.743,26.743,0,0,1-5.68,5.46,6.214,6.214,0,0,0-.63.49.7.7,0,1,0,.86,1.1c.32-.2.63-.42.93-.64a28.728,28.728,0,0,0,4.27-3.89,4.02,4.02,0,0,1-.07.54c-.1.44-.21.89-.31,1.33-.17.75-.35,1.5-.5,2.25a.718.718,0,0,0,.52.92.733.733,0,0,0,.85-.56,2.756,2.756,0,0,0,.08-.27c.27-1.16.53-2.32.8-3.48a14.757,14.757,0,0,1,.64-2.39,23.855,23.855,0,0,1,1.4-2.58,16.19,16.19,0,0,0,2.56,1.53c0,.01-.01.02-.02.03q-1.875,5.745-3.46,11.58a.794.794,0,0,0,1.53.42q1.56-5.7,3.38-11.31c.11.05.21.11.32.17.32.17.62.37.92.56-.54,2.28-1.04,4.56-1.67,6.81-.63,2.23-1.51,4.38-2.24,6.57-.32.97,1.21,1.39,1.53.42.73-2.2,1.61-4.34,2.24-6.57.58-2.06,1.05-4.15,1.53-6.23.08.07.17.12.25.19.45.37.52.34.58.81a6.258,6.258,0,0,1-.13,1.83,57.467,57.467,0,0,1-3.66,12.39c-.4.93.97,1.74,1.37.8a52.165,52.165,0,0,0,2.31-6.64,57.543,57.543,0,0,0,1.52-6.22c.94.5,1.88.99,2.82,1.49a14.921,14.921,0,0,1,3.12,1.87,10.279,10.279,0,0,1,1.97,2.89,19.972,19.972,0,0,1,1.4,3.5.794.794,0,0,0,1.53-.42Zm-61.58-6.46a38.206,38.206,0,0,0-6.64,1.2l.21-.36a4.285,4.285,0,0,1,1.61-1.4c1.57-.92,3.2-1.75,4.82-2.59v.02c.15,1.04.35,2.07.59,3.09-.2.01-.4.03-.58.04Zm28.82-2.35c.08-.8.35-1.06,1.2-1.16-.03.54-.08,1.09-.08,1.63a10.685,10.685,0,0,0,.81,3.51c.44,1.28.77,2.61,1.13,3.92a3.428,3.428,0,0,1,.06.56.468.468,0,0,1-.46.58c-.28.03-.56.08-.93.13a8.281,8.281,0,0,0-.24-4.12c-.3-.95-.68-1.89-1.07-2.81a4.437,4.437,0,0,1-.41-2.24Zm-2.64,1.54a3.723,3.723,0,0,1-.08-3.05c.47.17.92.32,1.41.5a4.009,4.009,0,0,1-.07.5,4.36,4.36,0,0,0,.21,2.76c.48,1.24.91,2.5,1.36,3.75a4.817,4.817,0,0,1,.07,2.91c-.11.43-.31.7-.8.69a6.575,6.575,0,0,0-.85.1c.17-.89.33-1.68.46-2.48a5.832,5.832,0,0,0-.63-3.64c-.35-.68-.7-1.36-1.08-2.03Zm4.43,18.31a1.182,1.182,0,0,1-1.14,1.31c-1.8.01-3.61-.01-5.41-.04a.606.606,0,0,1-.43-.29,5.164,5.164,0,0,1-.33-.87,12.543,12.543,0,0,0,7.31-.11Zm-7.16-9.99a25.7,25.7,0,0,1-8.24-1.44c.34-1.17.68-2.3,1.03-3.52,2.45,1.62,4.86,3.22,7.27,4.82C441.26,111.84,441.24,111.88,441.22,111.93Zm-5.99-6.6,4.76,3.71a.549.549,0,0,1-.07.09c-1.73-1.14-3.46-2.27-5.23-3.44.22-.14.36-.24.53-.36Zm-1.36-1.3h.39a1.115,1.115,0,0,1-.42.46c-1.08.7-2.17,1.39-3.25,2.09-.2.13-.44.25-.53.44a.934.934,0,0,0-.06.76.951.951,0,0,0,.7.3,1.591,1.591,0,0,0,.65-.25c.32-.15.62-.32.97-.5v.2c-.52,1.92-1.03,3.84-1.59,5.75a1.177,1.177,0,0,1-.63.61c-.56.24-1.17.36-1.73.6a1.532,1.532,0,0,1-1.86-.26.989.989,0,0,0-1.38-.07c-.88.67-1.75,1.38-2.6,2.08a5.681,5.681,0,0,1-.37-.79c-.28-.75-.43-1.52-.76-2.25a7.714,7.714,0,0,0-1.34-1.97c-.02-.02-.04-.02-.06-.04h0c.32-1.16.93-2.23,1.19-3.4a3.029,3.029,0,0,0-.52-2.91,1.877,1.877,0,0,0-.72-.39,2.611,2.611,0,0,0,0-.28c-.24-1.01-.44-2.02-.6-3.05-.08-.5-.14-1.01-.17-1.52a2.912,2.912,0,0,1,0-.66c.04-.26.14-.31.37-.5a14.159,14.159,0,0,1,1.18-.9c.19,1.2.41,2.39.67,3.58.18.84.3,1.69.51,2.53.2.82.46,1.63.73,2.44a.733.733,0,0,0,.26.37c-.37.13-.74.26-1.11.4a.657.657,0,0,0-.49.8.647.647,0,0,0,.8.55,6.7,6.7,0,0,0,1.31-.36c2.48-1.02,2.05-.58,3.04-3.06a.814.814,0,0,1,.87-.59c2.2-.05,4.39-.13,6.59-.2Zm-2.38-1.53c.08.06.14.13.21.19a.456.456,0,0,1-.42.03c-.49-.24-.98-.48-1.45-.76-.98-.59-1.93-1.23-2.92-1.8a.683.683,0,0,0-1.05.25c-.19.37-.08.7.36.99.59.38,1.2.75,1.79,1.13a3.891,3.891,0,0,1,.35.3h-1.68a1.4,1.4,0,0,0-1.46,1.02,10.087,10.087,0,0,1-.62,1.52,1.91,1.91,0,0,1-.46.53.681.681,0,0,0-.02-.2c-.26-.81-.53-1.61-.73-2.44s-.32-1.69-.51-2.53c-.29-1.32-.53-2.62-.73-3.96,0-.04-.03-.07-.05-.11.32-.18.64-.35.98-.52.03.13.06.27.09.4.08.33.15.66.23.99.15.66.31,1.33.46,1.99a.8.8,0,0,0,.98.55.814.814,0,0,0,.55-.98c-.17-.71-.33-1.43-.5-2.14-.08-.36-.17-.71-.25-1.07-.04-.16-.07-.33-.11-.49a13.778,13.778,0,0,0,2.26-1.45,18.164,18.164,0,0,0,1.84,1.77.918.918,0,0,1,.24.28q1.05,2.025,2.08,4.06a.4.4,0,0,1-.06.11c-.46-.32-.91-.66-1.39-.96a.687.687,0,0,0-.92.99,1.7,1.7,0,0,0,.3.3c.86.66,1.72,1.32,2.57,1.98Z" fill="#132c53"/>
    </g>
    <g id="Group_417" data-name="Group 417">
      <g id="Group_416" data-name="Group 416">
        <path id="Path_1471" data-name="Path 1471" d="M393.76,11.35c20.97-4.77,40.63,2.76,43.82,16.79,2.89,12.71-10.45,18.05-25.29,21.92a3.721,3.721,0,0,0-2.75,3.02,3.664,3.664,0,0,0,1.6,3.7l.09.06a2.752,2.752,0,0,1-.66,4.92c-.32.1-.65.19-.98.27a12.068,12.068,0,0,1-13.14-5.74,3.787,3.787,0,0,0-4-1.77c-14.39,2.68-28.1,3.43-30.94-9.08-3.19-14.03,11.28-29.32,32.25-34.09Z" fill="#132c53"/>
        <g id="Group_415" data-name="Group 415">
          <g id="Group_414" data-name="Group 414">
            <path id="Path_1472" data-name="Path 1472" d="M364.8,21.2a38.643,38.643,0,0,1,4-4.94,45.8,45.8,0,0,1,3.65-3.4.9.9,0,0,1,1.28.14h0a.892.892,0,0,1-.14,1.26,43.269,43.269,0,0,0-3.49,3.24,36.24,36.24,0,0,0-3.8,4.68.913.913,0,0,1-1.24.27h0a.9.9,0,0,1-.27-1.26Z" fill="#132c53"/>
            <path id="Path_1473" data-name="Path 1473" d="M383.5,5.9a61.778,61.778,0,0,1,12.66-4.34A60.466,60.466,0,0,1,415,.25a.91.91,0,0,1,.81,1h0a.9.9,0,0,1-.99.79,58.625,58.625,0,0,0-18.26,1.28,60.085,60.085,0,0,0-12.28,4.21.9.9,0,1,1-.78-1.63Z" fill="#132c53"/>
          </g>
          <path id="Path_1474" data-name="Path 1474" d="M397.36,6.83c-20.52,4.67-34.66,19.45-31.57,33.01,2.53,11.15,14.38,11.29,29.9,8.4a4.706,4.706,0,0,1,4.95,2.21,11.172,11.172,0,0,0,13.07,5.06,1.849,1.849,0,0,0,.44-3.3.607.607,0,0,1-.1-.07,4.646,4.646,0,0,1,1.41-8.35c15.95-4.16,27.25-9.39,24.64-20.85C437.02,9.37,417.88,2.16,397.36,6.83Z" fill="#fff"/>
          <path id="Path_1475" data-name="Path 1475" d="M413,56.64a12.068,12.068,0,0,1-13.14-5.74,3.787,3.787,0,0,0-4-1.77c-14.39,2.68-28.1,3.43-30.94-9.08-3.19-14.03,11.28-29.32,32.25-34.09s40.63,2.76,43.82,16.79c2.89,12.71-10.45,18.05-25.29,21.92a3.721,3.721,0,0,0-2.75,3.02,3.664,3.664,0,0,0,1.6,3.7l.09.06a2.752,2.752,0,0,1-.66,4.92c-.32.1-.65.19-.98.27ZM397.56,7.71c-20,4.55-33.86,18.87-30.89,31.93,2.03,8.92,10.39,11.15,28.85,7.71a5.589,5.589,0,0,1,5.89,2.64,10.265,10.265,0,0,0,12.01,4.66.942.942,0,0,0,.64-.78.913.913,0,0,0-.41-.9l-.11-.07a5.55,5.55,0,0,1,1.68-9.98c16.14-4.21,26.4-9.19,23.99-19.78-2.97-13.06-21.66-19.98-41.66-15.43Z" fill="#132c53"/>
        </g>
      </g>
      <path id="Path_1476" data-name="Path 1476" d="M399.77,27.88a2.015,2.015,0,0,1,1.65-.93c.54,0,1.71.42,1.71,1.29a8.419,8.419,0,0,1-.24.93,2.849,2.849,0,0,0-.06.87c0,1.11.12,7.15.12,7.39a1.187,1.187,0,0,1-.54,1.23,2.947,2.947,0,0,1-1.62.57c-.6,0-1.29-.18-1.26-1.17h-3.85a1.938,1.938,0,0,1-2.1,1.92c-.69,0-1.26-.3-1.26-1.05s.24-7.36.3-8.74a12.682,12.682,0,0,1-4.39,1.26c-.21,0-.66,0-.66-.27,0-.18.09-.21,1.02-.69a34.163,34.163,0,0,0,7.63-5.62h-3.09a11.887,11.887,0,0,0-1.89.09c-.27.06-1.44.45-1.71.45-.63,0-.81-.42-.81-.87a1.386,1.386,0,0,1,1.23-1.32c.24,0,1.17.18,1.38.18l3.46.06-.03-3.18-1.74.03c-.3,0-1.53.36-1.8.36-.42,0-.69-.21-.69-.63a1.229,1.229,0,0,1,1.2-1.29c.18,0,.99.15,1.14.15h1.8a19.343,19.343,0,0,0-.09-2.19c-.51-.21-.63-.54-.63-.72,0-1.02,1.83-2.04,2.82-2.04a1.284,1.284,0,0,1,1.41,1.2c0,.06-.09.69-.12.84-.09.93-.12,1.2-.21,2.91h.45a1.173,1.173,0,0,1,1.02-.87,1.566,1.566,0,0,1,1.17.96c.24-.57.36-.81.72-1.71.03-.48.06-1.59,1.5-1.59a2.041,2.041,0,0,1,2.07,1.68c0,1.35-2.25,4.51-3.55,6.1h1.2c.54-.81.99-.9,1.2-.9a1.875,1.875,0,0,1,1.71,1.56c0,.75-.51.75-1.08.75h-4.27a36.276,36.276,0,0,1-3.33,3h3.09Zm-.15,1.35h-3.55c-.21,0-.42.09-.42.33v2.55h3.97Zm0,4.24h-3.97v3.18h3.97Zm-1.77-13.16-.12,2.85a18.97,18.97,0,0,0,2.04-2.85Zm11.24-2.25c-.33,0-.45.39-.45.6v8.53c0,1.86.36,10.25.36,11.72a2.508,2.508,0,0,1-2.19,2.49c-.27,0-1.53-.33-1.53-1.32,0-.93.15-4.99.18-5.83.18-5.02.21-9.73.21-14.09a12.684,12.684,0,0,0-.09-1.92c-.09-.15-.6-.78-.6-.96,0-.78,1.77-1.8,2.43-1.8a1.528,1.528,0,0,1,1.44,1.17h2.55a2.8,2.8,0,0,1,1.83-1.2c.84,0,2.4.9,2.4,2.07,0,.48-.12.63-1.23,1.92a24.72,24.72,0,0,0-2.61,4.48c0,.21.09.27,1.14,1.05a8.947,8.947,0,0,1,3.85,6.82c0,2.82-1.89,4.51-3.82,4.51-1.53,0-3.91-1.68-3.91-2.1,0-.24.18-.24.27-.24.06,0,.9.06,1.05.06,1.86,0,2.64-1.05,2.64-2.92a5.846,5.846,0,0,0-1.8-4.48c-1.5-1.74-1.68-1.95-1.68-2.28,0-.39,1.53-6.25,1.53-6.28h-1.98Z" fill="#132c53"/>
    </g>
  </g>
</svg>
