<svg xmlns="http://www.w3.org/2000/svg" width="136.464" height="124.699" viewBox="0 0 136.464 124.699">
  <g id="Group_412" data-name="Group 412" transform="translate(-186.319 -0.01)">
    <g id="Group_407" data-name="Group 407">
      <path id="Path_1443" data-name="Path 1443" d="M285.03,83.43a9.477,9.477,0,0,0-3.89-.77c-.31.03-.81.09-1.31.1a12.447,12.447,0,0,0-4.95,1.18,5.794,5.794,0,0,0-1.44,1.02.772.772,0,0,0-.04,1.14c.44.55.87,1.11,1.25,1.69.58.87.98.97,1.83.37a.818.818,0,0,1,.2-.12c2.07-.84,4.15-1.23,6.27-.18a1.131,1.131,0,0,0,1.74-.51c.35-.57.64-1.19.99-1.76a1.314,1.314,0,0,0-.64-2.16Zm-1.39,2.52a.4.4,0,0,1-.36.13,12.043,12.043,0,0,0-6.73.25c-.8.24-.82.23-1.19-.31-.31-.46-.23-.76.31-.96a10.353,10.353,0,0,1,1.54-.43,14.779,14.779,0,0,1,6.07-.15c.29.07.57.15.94.26-.22.46-.38.84-.59,1.21Z" fill="#132c53"/>
      <path id="Path_1444" data-name="Path 1444" d="M273.52,82.42c.08-.42-.17-.75-.69-.9-.54-.15-1.08-.31-1.62-.47-.7-.21-1.4-.42-2.2-.65.21-.41.43-.88.68-1.33a.874.874,0,0,0-.57-1.41c-.54-.15-1.08-.3-1.63-.45a1.41,1.41,0,0,0-1.97.9,9.233,9.233,0,0,0-.46,5.12,1.139,1.139,0,0,0,.56.75,16.415,16.415,0,0,0,2.03.85.717.717,0,0,0,.97-.34,3.286,3.286,0,0,0,.22-1.17c.01-.45-.07-.9-.11-1.44.89.28,1.64.53,2.41.76a11.2,11.2,0,0,0,1.41.36.79.79,0,0,0,.98-.59Zm-6.3.5c-.65-.04-.77-.14-.76-.73.01-.76.02-1.53.1-2.29a8.063,8.063,0,0,1,.34-1.27l1.06.37a7.569,7.569,0,0,0-.73,3.93Z" fill="#132c53"/>
      <path id="Path_1445" data-name="Path 1445" d="M285.7,81.87a1.137,1.137,0,0,0,.3-.13c.92-.68,1.84-1.36,2.74-2.07a1.21,1.21,0,0,0,.26-.46.762.762,0,0,0-1.24-.68c-.95.66-1.88,1.36-2.8,2.06a.681.681,0,0,0-.19.93.717.717,0,0,0,.93.34Z" fill="#132c53"/>
      <path id="Path_1446" data-name="Path 1446" d="M287.7,82.02a1.085,1.085,0,0,0-1.08,1.12,1.108,1.108,0,0,0,1.06,1.15,1.167,1.167,0,0,0,1.12-1.16,1.082,1.082,0,0,0-1.09-1.1Z" fill="#132c53"/>
      <path id="Path_1447" data-name="Path 1447" d="M270.81,83.26a1.163,1.163,0,0,0-1.13,1.09,1.08,1.08,0,1,0,1.13-1.1Z" fill="#132c53"/>
      <path id="Path_1448" data-name="Path 1448" d="M260.64,61.62a2.53,2.53,0,0,0,1.82,2.29.814.814,0,0,0,1.06-.43.756.756,0,0,0-.53-1,1.216,1.216,0,0,1-.84-1.23c-.03-.68-.06-1.41.62-1.87.7-.47.74-.82.27-1.55a3.088,3.088,0,0,1-.27-3.29c.56-1.07,1.16-2.08,2.65-1.88a.661.661,0,0,0,.74-.59.683.683,0,0,0-.43-.8,4.892,4.892,0,0,0-.86-.2,3.14,3.14,0,0,0-2.33,1.1c-1.54,1.72-2.18,3.64-1.15,5.88a.594.594,0,0,1-.02.49,3.968,3.968,0,0,0-.7,3.08Z" fill="#132c53"/>
      <path id="Path_1449" data-name="Path 1449" d="M268.59,63.06a.749.749,0,0,0,.44-.96,1.211,1.211,0,0,0-.05-.18,2.151,2.151,0,0,1,.87-2.31c.26-.18.53-.33.8-.48a1.081,1.081,0,0,0,.64-1.02,2.113,2.113,0,0,1,1.48-2.07,8.556,8.556,0,0,1,1.45-.37.7.7,0,0,0,.43-1.18,2.077,2.077,0,0,0-.66-.32,4.637,4.637,0,0,0-3.8,2.12,2.768,2.768,0,0,0-.37,1.09.8.8,0,0,1-.44.69,3.377,3.377,0,0,0-1.94,2.71,5.49,5.49,0,0,0,.18,1.84.722.722,0,0,0,.96.44Z" fill="#132c53"/>
      <path id="Path_1450" data-name="Path 1450" d="M286.1,52.15c.1.04.21.07.31.1a1.575,1.575,0,0,1,1.18,1.82,1.083,1.083,0,0,0,.64,1.11,1.092,1.092,0,0,1,.48,1.51c-.25.58-.16.97.26,1.17a.867.867,0,0,0,1.15-.53,2.845,2.845,0,0,0-.61-3.19,2.319,2.319,0,0,1-.33-.47c.04-.02.08-.05.12-.07a3.249,3.249,0,0,0-.14-.69,3.785,3.785,0,0,0-2.21-2.12,1.569,1.569,0,0,0-.65-.05.69.69,0,0,0-.67.62.7.7,0,0,0,.47.78Z" fill="#132c53"/>
      <path id="Path_1451" data-name="Path 1451" d="M268.69,49.53c.4-.04.6-.35.69-.82a2.989,2.989,0,0,1,.42-1.17,3.181,3.181,0,0,1,3.72-1.12c.55.26.98.1,1.16-.32a.821.821,0,0,0-.57-1.08,15.125,15.125,0,0,0-1.51-.44c-.42.07-.72.1-1,.16a4.619,4.619,0,0,0-3.62,3.02,2.378,2.378,0,0,0-.11,1.06.772.772,0,0,0,.84.72Z" fill="#132c53"/>
      <path id="Path_1452" data-name="Path 1452" d="M279.63,47.15c.06-.05.11-.11.17-.16a1.137,1.137,0,0,1,1.83.5.978.978,0,0,0,1.22.76,1.375,1.375,0,0,1,1.32.41.744.744,0,0,0,1.09.13.794.794,0,0,0,.03-1.14,2.261,2.261,0,0,0-1.9-.95.505.505,0,0,1-.56-.3,2.309,2.309,0,0,0-2.11-1.21,2.814,2.814,0,0,0-2.18.89.811.811,0,0,0-.04,1.18c.32.3.72.26,1.13-.11Z" fill="#132c53"/>
      <path id="Path_1453" data-name="Path 1453" d="M277.64,67.83a5.125,5.125,0,0,1,.87.16.516.516,0,0,1,.33.33,1.17,1.17,0,0,0,.84.97,1.028,1.028,0,0,1,.29,1.67.731.731,0,0,0-.28,1.09.851.851,0,0,0,1.18.14,2.2,2.2,0,0,0,.98-1.92,2.786,2.786,0,0,0-1.2-2.24,1.025,1.025,0,0,1-.33-.36,2.513,2.513,0,0,0-2.8-1.27.726.726,0,0,0,.13,1.43Z" fill="#132c53"/>
      <path id="Path_1454" data-name="Path 1454" d="M286.65,60.28a2.84,2.84,0,0,0-1.75-2.68.772.772,0,0,0-.99.3.729.729,0,0,0,.21.97,1.33,1.33,0,0,0,.19.14c.85.61.91.77.66,1.76a.959.959,0,0,0,.46,1.17,1.087,1.087,0,0,1,.54,1.28.778.778,0,0,0,.44.97.8.8,0,0,0,.98-.44,2.093,2.093,0,0,0-.37-2.59c-.3-.28-.52-.53-.37-.88Z" fill="#132c53"/>
      <path id="Path_1455" data-name="Path 1455" d="M284.37,65.68a1.463,1.463,0,0,1-.37-.45,3.246,3.246,0,0,0-2.9-1.98c-.8,0-1.19.23-1.2.74s.36.77,1.12.8a1.719,1.719,0,0,1,1.63,1.25,2.912,2.912,0,0,0,.56.77,4.338,4.338,0,0,1,.44.54c.18.36.43.6.85.52a.733.733,0,0,0,.64-.76,1.7,1.7,0,0,0-.76-1.44Z" fill="#132c53"/>
      <path id="Path_1456" data-name="Path 1456" d="M271.49,68.23c-.01.54.26.93.68.98.44.05.74-.24.83-.82a.277.277,0,0,1,.01-.09,2.691,2.691,0,0,1,2.08-2.17,4.032,4.032,0,0,0,.5-.11.746.746,0,0,0-.23-1.47,4.151,4.151,0,0,0-3.89,3.67Z" fill="#132c53"/>
      <path id="Path_1457" data-name="Path 1457" d="M275.28,70.43a4.643,4.643,0,0,0-.16,1.34,1.725,1.725,0,0,0,1.33,1.63.792.792,0,0,0,1.02-.42.728.728,0,0,0-.43-.97.623.623,0,0,1-.4-.79c.02-.14.05-.28.07-.44a.74.74,0,0,0-.56-.8.669.669,0,0,0-.87.45Z" fill="#132c53"/>
      <path id="Path_1458" data-name="Path 1458" d="M322.71,102.23c-.04-1.53-.08-3.07-.18-4.6a14.7,14.7,0,0,0-.48-3.43,6.021,6.021,0,0,0-2.73-3.5c-1.39-.72-2.78-1.45-4.14-2.22-2.32-1.31-4.56-2.75-6.82-4.17a57.709,57.709,0,0,1-9.21-6.5,1.052,1.052,0,0,0-.24-.15c.08-.35.13-.56.13-.56.35-1.51.75-2.93,1-4.37a4.526,4.526,0,0,0-.47-3.42,3.444,3.444,0,0,1-.59-2.37,6.258,6.258,0,0,0-.01-.75A9.4,9.4,0,0,0,297.39,61a.687.687,0,0,1-.09-.36,8.755,8.755,0,0,0-1.57-4.71.464.464,0,0,1-.08-.37,8.323,8.323,0,0,0,.42-3.89,4.834,4.834,0,0,0-2.86-4.61,1.2,1.2,0,0,1-.39-.32c-.53-.61-1.01-1.27-1.58-1.84a3.619,3.619,0,0,0-2.75-1.03c-.6.02-1.21.1-1.82.15a4.776,4.776,0,0,0-4.26-2.45,5.593,5.593,0,0,0-4.73,1.57c-.42-.26-.78-.51-1.17-.72s-.82-.39-1.24-.56a7.9,7.9,0,0,0-9.78,2.88.461.461,0,0,1-.61.21,4.192,4.192,0,0,0-3.07.28c-2.6,1.35-4.39,3.31-4.76,6.34a1.1,1.1,0,0,1-.28.56,7.867,7.867,0,0,0-2.39,7.02,4.327,4.327,0,0,1-.02,1.39c-.27,1.69-.37,3.34.7,4.84a.858.858,0,0,1,.04.58c-.13,1.12-.35,2.23-.39,3.35a3.88,3.88,0,0,0,.89,2.81.613.613,0,0,1,.05.47,4.92,4.92,0,0,0,1.72,5.02c.02.01.02.05.04.09a.8.8,0,0,0-.22.12c-3.55,2.92-7.77,4.95-11.78,7.14-1.42.78-2.83,1.56-4.26,2.31-1.57.82-3.17,1.6-4.77,2.35a8.583,8.583,0,0,0-3.41,2.34,10.29,10.29,0,0,0-1.83,4.54,25.945,25.945,0,0,0-.7,5.95.8.8,0,0,0,1.59,0,23.382,23.382,0,0,1,.6-5.34,9.174,9.174,0,0,1,1.65-4.26,9.948,9.948,0,0,1,3.58-2.18q2.4-1.14,4.76-2.38c2.41-1.28,4.78-2.61,7.17-3.92,1.88-1.03,3.76-2.08,5.54-3.26-.01.01-.02.03-.03.04-.71.93-1.39,1.89-2.04,2.86a59.37,59.37,0,0,0-3.61,6.16.966.966,0,0,0,.82,1.43c1.17.13,2.34.2,3.51.24-.32.52-.64,1.04-.96,1.57-.5.82-1.33,1.8-1.35,2.8-.02.98.89,1.92,1.4,2.7.84,1.3,1.71,2.54,2.62,3.79-.34.17-.68.33-1.01.51-.54.29-.69.68-.48,1.11a.8.8,0,0,0,1.18.29c.61-.29,1.21-.6,1.82-.91a1.108,1.108,0,0,0,.22-.07,1.431,1.431,0,0,0,.15-.11c.29-.15.59-.29.89-.44a1.919,1.919,0,0,0,1.04-1.38c.09-.41.25-.81.37-1.21a.466.466,0,0,1,.62-.39c.66.13,1.33.22,1.99.35a16.108,16.108,0,0,0,5.08.44,2.1,2.1,0,0,1,.64.11,1.478,1.478,0,0,1-.55.38c-1.05.46-2.11.89-3.13,1.4a2.364,2.364,0,0,0-.9.82.877.877,0,0,0,.18,1.08c.29.3.61.12.91-.02.6-.29,1.19-.57,1.89-.91-.59,1.89-1.18,3.66-1.67,5.45a2.676,2.676,0,0,1-1.8,2.18,1.635,1.635,0,0,0-.4.24,2.117,2.117,0,0,1-2.47-.02,1.426,1.426,0,0,0-1.67-.02c-1.03.62-2.07,1.24-3.09,1.89a2.263,2.263,0,0,0-.53.45,10.723,10.723,0,0,1-1.8-4.89,14.087,14.087,0,0,1,.44-4.48c.32-1.28.72-2.73-.26-3.85-.86-.98-2.2-.92-3.38-.79a33.616,33.616,0,0,0-4.58.74,14.908,14.908,0,0,0-7.32,3.96c-.51-.1-1.01-.2-1.52-.27a12.347,12.347,0,0,0-7.44.9c-.92.45-.11,1.82.8,1.37,2.39-1.17,4.93-.99,7.46-.53a16.167,16.167,0,0,0,4.3.6,10.2,10.2,0,0,0,3.23-.96c.92-.45.11-1.82-.8-1.37a6.5,6.5,0,0,1-3.52.71c-.19-.03-.37-.07-.56-.1a14.323,14.323,0,0,1,6.12-2.86,28.751,28.751,0,0,1,4.42-.66c.5-.03,1.2-.12,1.58.28.55.57.15,1.62-.02,2.25a13.532,13.532,0,0,0-.04,7.62,22.4,22.4,0,0,0,3.92,6.46c.62.8,1.74-.32,1.12-1.12-.47-.61-.95-1.23-1.41-1.88a2.088,2.088,0,0,0,.4-.19c.78-.44,1.56-.87,2.31-1.36a1.612,1.612,0,0,1,2.04,0,2.115,2.115,0,0,0,.2.12,1.453,1.453,0,0,0,1.6.03c.87-.46,1.75-.91,2.65-1.32a2.015,2.015,0,0,0,1.17-1.43c.08-.35.19-.7.31-1.14a2.412,2.412,0,0,1,.15.31,20,20,0,0,0,2.44,4.7,9.1,9.1,0,0,0,4.62,3.69c.28.1.55.23.83.31a1.012,1.012,0,0,1,.78.94c.08.59.24,1.17.26,1.76a2.638,2.638,0,0,0,1.96,2.47,12.362,12.362,0,0,0,6.43.6,6.373,6.373,0,0,0,3.6-1.79,2.56,2.56,0,0,0,.83-2.11c-.04-.55-.03-1.1-.09-1.65a.852.852,0,0,1,.57-.96,7.144,7.144,0,0,0,3.26-3.1,14.335,14.335,0,0,0,1.39-3.68c3.28-3.56,7.07-6.7,9.78-10.75a16.841,16.841,0,0,0,1.68-3.02c.47-1.19-.19-2.07-.8-3.08-.46-.76-.91-1.51-1.37-2.25,1.24-.04,2.48-.11,3.71-.25a.845.845,0,0,0,.72-1.25,61.212,61.212,0,0,0-3.61-6.16c-.6-.9-1.24-1.79-1.89-2.66,1.54,1.09,3.14,2.09,4.73,3.09,1.79,1.13,3.58,2.27,5.38,3.38q2.64,1.62,5.38,3.04a6.423,6.423,0,0,1,2.79,2.06,7.186,7.186,0,0,1,.98,3.63c.1,1.31.15,2.62.19,3.93a.522.522,0,0,0-.21.04,20.533,20.533,0,0,1-5.45,1.35,38.979,38.979,0,0,1-4.04.16c-.03-.66-.06-1.32-.13-1.99-.11-1.06-1.77-1.07-1.66,0,.41,4-.04,7.99-.29,11.98-.07,1.07,1.6,1.07,1.66,0,.06-1.02.14-2.04.21-3.06a1.681,1.681,0,0,0,.32.09,19.823,19.823,0,0,0,9.67-1.34c0,.69,0,1.37-.01,2.06a.8.8,0,0,0,1.59,0c.06-2.67.03-5.35-.03-8.03ZM295.74,60.7a2.843,2.843,0,0,0,.56,1.49,6.117,6.117,0,0,1,1.04,3.13c.09,1.04.04,2.1.08,3.15a1.292,1.292,0,0,0,.25.82,3.4,3.4,0,0,1,.87,3.01,12.644,12.644,0,0,1-1.25,4.49,9.035,9.035,0,0,1-.96-3.23,14.377,14.377,0,0,0-.02-1.97,3.882,3.882,0,0,0-.46-1.34c-.45-.89-1.13-1.68-1.03-2.77a10.727,10.727,0,0,0,.19-1.11,1.824,1.824,0,0,0-.2-1.06,6.643,6.643,0,0,1-1.2-5.51,2.915,2.915,0,0,0,.06-.65,1.743,1.743,0,0,1,1.01-1.92,6.813,6.813,0,0,1,1.04,3.49Zm-39.72-4.16a5.86,5.86,0,0,1,1.55-3.01.664.664,0,0,1,.35-.21.8.8,0,0,0,.65-.9,6,6,0,0,1,2.92-5.22c.22-.15.46-.27.68-.42a2.837,2.837,0,0,1,2.79-.2c.88.37,1.05.3,1.51-.55a5.632,5.632,0,0,1,4.59-3.18,7.164,7.164,0,0,1,5.81,1.73.916.916,0,0,0,1.51-.04,4.825,4.825,0,0,1,5.37-1.15,2.4,2.4,0,0,1,1.63,1.57c.29.81.67.98,1.49.69,2.14-.76,3.51.01,4.65,1.94a5.37,5.37,0,0,1,.31.69.821.821,0,0,0,.72.52,1.588,1.588,0,0,1,.64.23,3.35,3.35,0,0,1,1.36,3.09,7.32,7.32,0,0,1-.66,3.2,4.475,4.475,0,0,1-1.03,1.23,1.712,1.712,0,0,0-.7,1.51,5.565,5.565,0,0,1-1.57,4.83,3.9,3.9,0,0,1-1.09.62c-.93.4-1.11.62-1.07,1.63a3.571,3.571,0,0,1-2.19,3.43,2.329,2.329,0,0,1-1.6.21,3.007,3.007,0,0,0-.42-.05.848.848,0,0,0-.94,1.08c.08.4.22.78.33,1.18a3.29,3.29,0,0,1-1.62,3.59,1.932,1.932,0,0,1-.86.15,1.006,1.006,0,0,0-1.16.79c-.08.27-.15.54-.23.81a.846.846,0,0,1-.93.63,2.064,2.064,0,0,1-1.83-.97,2.759,2.759,0,0,0-1.72-1.28,9.709,9.709,0,0,1-3.66-2.16,4.237,4.237,0,0,1-.93-1.34,2.03,2.03,0,0,0-2.1-1.26,7.723,7.723,0,0,1-3.76-.67,6.755,6.755,0,0,1-3.41-3.86,2.329,2.329,0,0,0-1.81-1.65,5.143,5.143,0,0,1-3.57-4.45,26.134,26.134,0,0,1,.02-2.8Zm1.23,16.07a1.04,1.04,0,0,0-.21-1.22,2.552,2.552,0,0,1-.8-2.22,23.4,23.4,0,0,1,.38-2.88,2.382,2.382,0,0,0-.28-1.84,12.2,12.2,0,0,1-.73-1.54c.16,0,.21-.02.22-.01a7.475,7.475,0,0,0,3.16,2.45.978.978,0,0,1,.41.42,6.632,6.632,0,0,1,.62,4.52,3.648,3.648,0,0,0,.25,2.23,8.042,8.042,0,0,1,.74,4.49,1.26,1.26,0,0,0,.11.77,6.469,6.469,0,0,1,.65,3.23c.02.42,0,.83,0,1.25-.07.03-.13.06-.2.09a10.9,10.9,0,0,1-1.14-1.32,4.991,4.991,0,0,1-.82-2.81,1.536,1.536,0,0,0-.88-1.58,3.353,3.353,0,0,1-1.48-4.02Zm18.82,36.23c-3-.3-6.01-.6-9.1-.91.45-1.46.89-2.89,1.37-4.44,2.64,1.73,5.22,3.42,7.79,5.11-.02.08-.05.16-.07.24Zm9.12,13.63a6.781,6.781,0,0,1-2.87.63,10.645,10.645,0,0,1-4.29-.64,1.35,1.35,0,0,1-1-1.28c-.03-.46-.13-.91-.22-1.5a20.372,20.372,0,0,0,9.73-.39c.4,1.6.02,2.45-1.35,3.17ZM280.13,99.7a8.6,8.6,0,0,1,1.27,2.91,3.892,3.892,0,0,1-.1,2.03,9.056,9.056,0,0,0-.5,3.65,1.53,1.53,0,0,1-1.29-1.83,3.079,3.079,0,0,1,.31-.83,4.36,4.36,0,0,0,.02-4.35c-.24-.46-.51-.9-.77-1.34a5.312,5.312,0,0,1-.82-3.08c.04-.94.32-1.13,1.25-.72a4.532,4.532,0,0,0,.64,3.57Zm3.45.73a5.54,5.54,0,0,1,.62,3.36c-.09.59-.18,1.18-.22,1.77a15.1,15.1,0,0,0,0,1.78c.01.27-.03.4-.33.44s-.61.13-.92.18c-.36.06-.5-.07-.41-.44.21-.91.43-1.83.61-2.74a7.435,7.435,0,0,0-1.01-5.14,13.97,13.97,0,0,1-.97-2.33c-.21-.65.13-1.06.8-1.13.22-.02.43-.04.7-.06-.37,1.67.45,2.99,1.11,4.32Zm21.53-10.06c-1.15.1-2.3.16-3.45.17-.35-.5-.71-1-1.1-1.48-.67-.83-1.85.35-1.18,1.18a42.875,42.875,0,0,1,3.11,4.77,6.569,6.569,0,0,1,.85,1.44c.12.49-.26,1.01-.5,1.46a21.35,21.35,0,0,1-1.71,2.68,75.543,75.543,0,0,1-7.37,7.92,15.075,15.075,0,0,0-.05-1.77,10.729,10.729,0,0,1-.02-1.5,1.647,1.647,0,0,0-.69-1.56,13.935,13.935,0,0,0-1.55-.98,9.833,9.833,0,0,0-3.98-1,.641.641,0,0,0-.71.6c-.08.38.13.59.46.71.16.06.34.08.5.13,1.29.44,2.58.87,3.85,1.34.46.17.46.43.07.72a4.4,4.4,0,0,1-1.14.73c-1.53.5-3.09.93-4.63,1.38-.29.08-.41-.04-.4-.33a14.885,14.885,0,0,1,.09-1.64,8.511,8.511,0,0,0-.19-4.64c-.32-.8-.72-1.57-1.06-2.35a3.184,3.184,0,0,1,.59-3.53,4.538,4.538,0,0,0,.69-1.05,1.728,1.728,0,0,0-.68-2.11,1.844,1.844,0,0,0-2.27.04.854.854,0,0,0-.29,1.05c.19.41.56.45.97.37.27-.05.55-.09.87-.15a1.937,1.937,0,0,1-1.58,1.41,6.93,6.93,0,0,1-2.76.08,2.912,2.912,0,0,1-2.69-1.66.686.686,0,0,0-.49-.29.763.763,0,0,0-.77,1.13c.24.44.59.81.83,1.25a1.231,1.231,0,0,1,.15.83,6,6,0,0,0,.58,4.63c.33.61.68,1.2,1,1.81a2.357,2.357,0,0,1,.24,1.95c-.26.73-.59,1.43-.92,2.2-2.14-1.56-4.22-3.08-6.32-4.62a1.733,1.733,0,0,1,.18-.19,1.014,1.014,0,0,0,.37-1.32c-.34-.82-.64-1.08-1.35-1.07-.38,0-.75.03-1.13.06a2.261,2.261,0,0,1-1.76-.49c-1.44-1.16-2.91-2.29-4.37-3.43-.6-.47-1.05-.51-1.37-.13-.36.43-.23.89.39,1.39l.15.12c1,.79,2,1.57,2.99,2.36.13.1.24.21.37.32-.02.04-.05.09-.07.13a6.974,6.974,0,0,1-1.04-.46c-1.07-.68-2.12-1.39-3.19-2.09-.47-.31-.94-.63-1.42-.91a.737.737,0,0,0-1.13.34.794.794,0,0,0,.35,1.02c.5.35,1.01.68,1.56,1.05-.09.05-.11.07-.14.07-.36,0-.72-.01-1.08-.01a1.017,1.017,0,0,0-1.14.78,15.841,15.841,0,0,0-.54,1.6,1.724,1.724,0,0,1-.71,1.02c-.81-1.1-1.6-2.19-2.33-3.34-.38-.61-.78-1.21-1.18-1.81-.09-.14-.19-.28-.28-.42-.07-.04-.05-.1.07-.19a2.632,2.632,0,0,1,.36-.63c.24-.41.49-.82.74-1.23a37.435,37.435,0,0,1,2.83-4.33c.76-.94-.57-2.3-1.35-1.35-.38.47-.73.96-1.07,1.44-1.07,0-2.14-.06-3.21-.15.94-1.73,1.95-3.42,3.05-5.05.68-1,1.38-1.98,2.11-2.94a13.9,13.9,0,0,0,1.3-1.9,19.965,19.965,0,0,0,1.81,3.23.537.537,0,0,1,.17.26,8.525,8.525,0,0,0,1.24,3.31c.65,1.41,1.37,2.78,2.08,4.16q1.44,2.82,2.92,5.63a.784.784,0,0,0,1.15.36.812.812,0,0,0,.22-1.16c-.07-.12-.15-.24-.22-.36s-.11-.22-.23-.43a14.3,14.3,0,0,1,3.39,3c1,1.35,2.07,2.64,3.12,3.96.5.63,1,1.25,1.52,1.86a.735.735,0,0,0,1.05.17.784.784,0,0,0,.21-1.05,2.647,2.647,0,0,0-.26-.39c-.37-.47-.75-.93-1.12-1.4-.75-.93-1.5-1.87-2.32-2.89.55.15.99.27,1.42.4a.675.675,0,0,0,.89-.39.65.65,0,0,0-.29-.96,6,6,0,0,0-1.15-.53,16.325,16.325,0,0,1-8.19-6.13,26.053,26.053,0,0,1-1.7-2.7c-.5-.93-1.24-1.78-1.13-2.95.03-.32-.02-.65,0-.98.07-1.28.22-2.56.22-3.84a6.636,6.636,0,0,0-.38-2.16,4.551,4.551,0,0,1-.28-1.71,11.009,11.009,0,0,0-1.01-4.61,1.077,1.077,0,0,1-.14-.44c.07-.74.18-1.48.27-2.23.47.38.89.75,1.34,1.08a8.86,8.86,0,0,0,5.5,1.44.739.739,0,0,1,.71.41,6.33,6.33,0,0,0,1.21,1.72,21.8,21.8,0,0,0,3.47,2.23,5.748,5.748,0,0,1,2.13,1.47c1.31,1.62,4.7,1.8,5.21-.77a.4.4,0,0,1,.28-.24,4.263,4.263,0,0,0,3.17-2.55,4.2,4.2,0,0,0,.3-3.33.539.539,0,0,1,.16-.05c2.42.03,4.99-2.73,4.74-5.04-.03-.27.13-.35.33-.48.56-.33,1.09-.72,1.62-1.09a1.659,1.659,0,0,0,.2-.17c.42.75.83,1.47,1.22,2.19a.9.9,0,0,1,.15.55,4.4,4.4,0,0,0,.6,3.78,4.816,4.816,0,0,1,.77,2.96,5.985,5.985,0,0,0,.39,2.57,10.087,10.087,0,0,1,.79,4.35c0,.52.05.97.63,1.2a36.55,36.55,0,0,1-1.33,3.77,23.927,23.927,0,0,1-5.86,8.09c-1.37,1.17-2.87,2.18-4.31,3.27a3.475,3.475,0,0,0-.47.39.718.718,0,0,0-.07.95.685.685,0,0,0,.86.3c.15-.05.31-.09.52-.15-.05.22-.09.39-.13.55a.845.845,0,0,0,.47,1.05c.41.14.75-.01.99-.5.3-.62.56-1.26.85-1.88a3.361,3.361,0,0,1,.53-.99c.99-1,2.02-1.96,3.04-2.94a.3.3,0,0,1,.06.25c-.34,1.48-.7,2.95-1.03,4.43-.14.64-.25,1.29-.33,1.94a.736.736,0,0,0,.64.81c.39.1.61-.17.75-.5a5.674,5.674,0,0,0,.2-.67c.51-2.16.98-4.33,1.52-6.49.69-2.71,2.28-5.04,3.26-7.63.52-1.38,1.13-3.58,1.58-5.35a11.091,11.091,0,0,0,1.42,2.19c.76.99,1.5,2.01,2.2,3.05a58.415,58.415,0,0,1,3.13,5.21Zm6.4,17.51a.785.785,0,0,0-.22.02c.08-1.24.13-2.47.13-3.71a38.662,38.662,0,0,0,4.17-.17,21.945,21.945,0,0,0,5.54-1.32c.03,1.24.05,2.48.05,3.72a18.388,18.388,0,0,1-9.68,1.46Z" fill="#132c53"/>
    </g>
    <g id="Group_411" data-name="Group 411">
      <g id="Group_410" data-name="Group 410">
        <path id="Path_1459" data-name="Path 1459" d="M219.01,11.35c20.97-4.77,40.63,2.76,43.82,16.79,2.89,12.71-10.45,18.05-25.29,21.92a3.721,3.721,0,0,0-2.75,3.02,3.664,3.664,0,0,0,1.6,3.7l.09.06a2.752,2.752,0,0,1-.66,4.92c-.32.1-.65.19-.98.27a12.068,12.068,0,0,1-13.14-5.74,3.787,3.787,0,0,0-4-1.77c-14.39,2.68-28.1,3.43-30.94-9.08-3.19-14.03,11.28-29.32,32.25-34.09Z" fill="#132c53"/>
        <g id="Group_409" data-name="Group 409">
          <g id="Group_408" data-name="Group 408">
            <path id="Path_1460" data-name="Path 1460" d="M190.05,21.2a38.644,38.644,0,0,1,4-4.94,45.8,45.8,0,0,1,3.65-3.4.9.9,0,0,1,1.28.14h0a.892.892,0,0,1-.14,1.26,43.269,43.269,0,0,0-3.49,3.24,36.24,36.24,0,0,0-3.8,4.68.913.913,0,0,1-1.24.27h0a.9.9,0,0,1-.27-1.26Z" fill="#132c53"/>
            <path id="Path_1461" data-name="Path 1461" d="M208.75,5.9a61.778,61.778,0,0,1,12.66-4.34A60.466,60.466,0,0,1,240.25.25a.91.91,0,0,1,.81,1h0a.9.9,0,0,1-.99.79,58.625,58.625,0,0,0-18.26,1.28,60.085,60.085,0,0,0-12.28,4.21.9.9,0,1,1-.78-1.63Z" fill="#132c53"/>
          </g>
          <path id="Path_1462" data-name="Path 1462" d="M222.61,6.83c-20.52,4.67-34.66,19.45-31.57,33.01,2.53,11.15,14.38,11.29,29.9,8.4a4.706,4.706,0,0,1,4.95,2.21,11.172,11.172,0,0,0,13.07,5.06,1.849,1.849,0,0,0,.44-3.3.607.607,0,0,1-.1-.07,4.646,4.646,0,0,1,1.41-8.35c15.95-4.16,27.25-9.39,24.64-20.85C262.27,9.37,243.13,2.16,222.61,6.83Z" fill="#fff"/>
          <path id="Path_1463" data-name="Path 1463" d="M238.24,56.64A12.068,12.068,0,0,1,225.1,50.9a3.787,3.787,0,0,0-4-1.77c-14.39,2.68-28.1,3.43-30.94-9.08-3.19-14.03,11.28-29.32,32.25-34.09s40.63,2.76,43.82,16.79c2.89,12.71-10.45,18.05-25.29,21.92a3.721,3.721,0,0,0-2.75,3.02,3.664,3.664,0,0,0,1.6,3.7l.09.06a2.752,2.752,0,0,1-.66,4.92c-.32.1-.65.19-.98.27ZM222.8,7.71c-20,4.55-33.86,18.87-30.89,31.93,2.03,8.92,10.39,11.15,28.85,7.71a5.589,5.589,0,0,1,5.89,2.64,10.265,10.265,0,0,0,12.01,4.66.942.942,0,0,0,.64-.78.913.913,0,0,0-.41-.9l-.11-.07a5.55,5.55,0,0,1,1.68-9.98c16.14-4.21,26.4-9.19,23.99-19.78-2.97-13.06-21.66-19.98-41.66-15.43Z" fill="#132c53"/>
        </g>
      </g>
      <path id="Path_1464" data-name="Path 1464" d="M229.28,26.14c.63,2.49,3.15,7.93,12.65,10.61.15.03.48.15.48.3s-.39.39-.57.51c-.12.09-.63.42-.75.48-2.34,1.5-2.64,1.8-3.48,1.8-.51,0-1.14-.09-2.67-1.11-3.43-2.22-5.32-5.62-6.43-10.31a1.345,1.345,0,0,1-.03.36,14.063,14.063,0,0,1-1.83,4.33,14,14,0,0,1-7.54,5.32,20.863,20.863,0,0,1-4.21.72c-.69,0-.78-.24-.78-.36,0-.24.84-.42,1.14-.51a6.8,6.8,0,0,0,1.41-.54,14.33,14.33,0,0,0,8.53-11.57c-2.31.06-4.18.09-5.8.24-.24.03-1.44.42-1.74.42a.9.9,0,0,1-1.02-.96,1.6,1.6,0,0,1,1.5-1.59c.15,0,.9.12,1.08.12.93.09,5.11.15,6.1.18l.03-.78V22.48c0-.6-.03-3.21-.06-3.76-1.02,0-6.97.09-7.39.24a8.538,8.538,0,0,1-1.68.51,1.046,1.046,0,0,1-1.05-1.11,1.974,1.974,0,0,1,1.71-1.68c.21,0,1.17.18,1.38.21,1.74.15,7.15.15,9.28.15,1.5,0,2.16,0,8.05-.09a2.78,2.78,0,0,1,1.89-1.47c.84,0,2.67,1.14,2.67,2.25,0,.84-.99.96-1.32.99h-9.55c-.03,1.8-.09,4.09-.15,5.86,1.77,0,3.21,0,5.14-.09.63-1.05,1.29-1.41,1.8-1.41.93,0,2.49,1.17,2.49,2.19,0,.75-.9.84-1.2.87h-8.08Z" fill="#132c53"/>
    </g>
  </g>
</svg>
