<svg id="_圖層_1-2" xmlns="http://www.w3.org/2000/svg" width="683.52" height="164.83" viewBox="0 0 683.52 164.83">
  <g id="Group_22" data-name="Group 22">
    <g id="Group_19" data-name="Group 19" opacity="0.2">
      <path id="Path_84" data-name="Path 84" d="M50.7,155.6a11.363,11.363,0,0,0-10.4,6.83q1.035,1.17,2.01,2.4a8.668,8.668,0,0,1,16.81-.02c.64-.82,1.32-1.62,2.01-2.4a11.358,11.358,0,0,0-10.42-6.81Z" fill="#bacbd7"/>
      <path id="Path_85" data-name="Path 85" d="M50.66,111.09A55.934,55.934,0,0,0,0,143.53c.97.03,1.94.04,2.9.12a53.189,53.189,0,0,1,95.59-.08c.96-.08,1.93-.09,2.9-.12A55.951,55.951,0,0,0,50.67,111.1Z" fill="#bacbd7"/>
      <path id="Path_86" data-name="Path 86" d="M50.69,144.48a22.457,22.457,0,0,0-18.8,10.21c.72.54,1.44,1.07,2.12,1.64a19.779,19.779,0,0,1,33.38-.03c.69-.57,1.41-1.1,2.12-1.64a22.494,22.494,0,0,0-18.82-10.17Z" fill="#bacbd7"/>
      <path id="Path_87" data-name="Path 87" d="M50.68,133.35a33.591,33.591,0,0,0-28.29,15.57c.81.39,1.6.79,2.38,1.22a30.9,30.9,0,0,1,51.85-.04c.78-.42,1.57-.83,2.38-1.22a33.625,33.625,0,0,0-28.32-15.52Z" fill="#bacbd7"/>
      <path id="Path_88" data-name="Path 88" d="M50.67,122.22a44.776,44.776,0,0,0-38.96,22.86c.9.22,1.78.48,2.67.75A41.981,41.981,0,0,1,87,145.77c.88-.27,1.77-.53,2.67-.75a44.749,44.749,0,0,0-39-22.79Z" fill="#bacbd7"/>
      <path id="Path_89" data-name="Path 89" d="M156.75,155.51a11.363,11.363,0,0,0-10.4,6.83q1.035,1.17,2.01,2.4a8.668,8.668,0,0,1,16.81-.02c.64-.82,1.32-1.62,2.01-2.4a11.358,11.358,0,0,0-10.42-6.81Z" fill="#bacbd7"/>
      <path id="Path_90" data-name="Path 90" d="M156.71,111a55.934,55.934,0,0,0-50.66,32.44c.97.03,1.94.04,2.9.12a53.189,53.189,0,0,1,95.59-.08c.96-.08,1.93-.09,2.9-.12a55.951,55.951,0,0,0-50.72-32.35Z" fill="#bacbd7"/>
      <path id="Path_91" data-name="Path 91" d="M156.74,144.38a22.457,22.457,0,0,0-18.8,10.21c.72.54,1.44,1.07,2.12,1.64a19.779,19.779,0,0,1,33.38-.03c.69-.57,1.41-1.1,2.12-1.64a22.494,22.494,0,0,0-18.82-10.17Z" fill="#bacbd7"/>
      <path id="Path_92" data-name="Path 92" d="M156.73,133.26a33.591,33.591,0,0,0-28.29,15.57c.81.38,1.6.79,2.38,1.22a30.9,30.9,0,0,1,51.85-.04c.78-.42,1.57-.83,2.38-1.22a33.592,33.592,0,0,0-28.32-15.51Z" fill="#bacbd7"/>
      <path id="Path_93" data-name="Path 93" d="M156.72,122.13a44.776,44.776,0,0,0-38.96,22.86c.9.22,1.78.48,2.67.75a41.981,41.981,0,0,1,72.62-.06c.88-.27,1.77-.53,2.67-.75a44.749,44.749,0,0,0-39-22.79Z" fill="#bacbd7"/>
      <path id="Path_94" data-name="Path 94" d="M112.1,128.17c.64-.82,1.32-1.62,2.01-2.4a11.355,11.355,0,0,0-20.82.02q1.035,1.17,2.01,2.4a8.668,8.668,0,0,1,16.81-.02Z" fill="#bacbd7"/>
      <path id="Path_95" data-name="Path 95" d="M103.66,77.11a53.254,53.254,0,0,1,47.82,29.81c.96-.08,1.93-.09,2.9-.12A55.856,55.856,0,0,0,53,106.89c.97.03,1.94.04,2.9.12a53.27,53.27,0,0,1,47.77-29.89Z" fill="#bacbd7"/>
      <path id="Path_96" data-name="Path 96" d="M84.88,118.03c.72.54,1.44,1.07,2.12,1.64a19.779,19.779,0,0,1,33.38-.03c.69-.57,1.41-1.1,2.12-1.64a22.456,22.456,0,0,0-37.62.04Z" fill="#bacbd7"/>
      <path id="Path_97" data-name="Path 97" d="M129.61,113.44c.78-.42,1.57-.83,2.38-1.22a33.548,33.548,0,0,0-56.61.06c.81.38,1.6.79,2.38,1.22a30.9,30.9,0,0,1,51.85-.04Z" fill="#bacbd7"/>
      <path id="Path_98" data-name="Path 98" d="M139.99,109.12c.88-.27,1.77-.53,2.67-.75a44.7,44.7,0,0,0-77.96.07c.9.22,1.78.48,2.67.75a41.981,41.981,0,0,1,72.62-.06Z" fill="#bacbd7"/>
      <path id="Path_99" data-name="Path 99" d="M260.96,155.42a11.363,11.363,0,0,0-10.4,6.83q1.035,1.17,2.01,2.4a8.668,8.668,0,0,1,16.81-.02c.64-.82,1.32-1.62,2.01-2.4a11.358,11.358,0,0,0-10.42-6.81Z" fill="#bacbd7"/>
      <path id="Path_100" data-name="Path 100" d="M260.92,110.91a55.934,55.934,0,0,0-50.66,32.44c.97.03,1.94.04,2.9.12a53.189,53.189,0,0,1,95.59-.08c.96-.08,1.93-.09,2.9-.12a55.951,55.951,0,0,0-50.72-32.35Z" fill="#bacbd7"/>
      <path id="Path_101" data-name="Path 101" d="M260.95,144.29a22.457,22.457,0,0,0-18.8,10.21c.72.54,1.44,1.07,2.12,1.64a19.779,19.779,0,0,1,33.38-.03c.69-.57,1.41-1.1,2.12-1.64a22.494,22.494,0,0,0-18.82-10.17Z" fill="#bacbd7"/>
      <path id="Path_102" data-name="Path 102" d="M260.94,133.17a33.591,33.591,0,0,0-28.29,15.57c.81.38,1.6.79,2.38,1.22a30.9,30.9,0,0,1,51.85-.04c.78-.42,1.57-.83,2.38-1.22a33.592,33.592,0,0,0-28.32-15.51Z" fill="#bacbd7"/>
      <path id="Path_103" data-name="Path 103" d="M260.93,122.04a44.748,44.748,0,0,0-38.95,22.86c.9.22,1.78.48,2.67.75a41.981,41.981,0,0,1,72.62-.06c.88-.27,1.77-.53,2.67-.75a44.749,44.749,0,0,0-39-22.79Z" fill="#bacbd7"/>
      <path id="Path_104" data-name="Path 104" d="M322.36,127.98c.64-.82,1.32-1.62,2.01-2.4a11.355,11.355,0,0,0-20.82.02q1.035,1.17,2.01,2.4a8.668,8.668,0,0,1,16.81-.02Z" fill="#bacbd7"/>
      <path id="Path_105" data-name="Path 105" d="M313.91,76.93a53.254,53.254,0,0,1,47.82,29.81c.96-.08,1.93-.09,2.9-.12a55.856,55.856,0,0,0-101.38.09c.97.03,1.94.04,2.9.12a53.27,53.27,0,0,1,47.77-29.89Z" fill="#bacbd7"/>
      <path id="Path_106" data-name="Path 106" d="M295.13,117.85c.72.54,1.44,1.07,2.12,1.64a19.779,19.779,0,0,1,33.38-.03c.69-.57,1.41-1.1,2.12-1.64a22.456,22.456,0,0,0-37.62.04Z" fill="#bacbd7"/>
      <path id="Path_107" data-name="Path 107" d="M339.87,113.25c.78-.42,1.57-.83,2.38-1.22a33.548,33.548,0,0,0-56.61.06c.81.38,1.6.79,2.38,1.22a30.9,30.9,0,0,1,51.85-.04Z" fill="#bacbd7"/>
      <path id="Path_108" data-name="Path 108" d="M350.25,108.93c.88-.27,1.77-.53,2.67-.75a44.689,44.689,0,0,0-77.95.07c.9.22,1.78.48,2.67.75a41.981,41.981,0,0,1,72.62-.06Z" fill="#bacbd7"/>
      <path id="Path_109" data-name="Path 109" d="M216.31,128.08c.64-.82,1.32-1.62,2.01-2.4a11.355,11.355,0,0,0-20.82.02q1.035,1.17,2.01,2.4a8.668,8.668,0,0,1,16.81-.02Z" fill="#bacbd7"/>
      <path id="Path_110" data-name="Path 110" d="M207.86,77.02a53.254,53.254,0,0,1,47.82,29.81c.96-.08,1.93-.09,2.9-.12a55.856,55.856,0,0,0-101.38.09c.97.03,1.94.04,2.9.12a53.27,53.27,0,0,1,47.77-29.89Z" fill="#bacbd7"/>
      <path id="Path_111" data-name="Path 111" d="M189.09,117.94c.72.54,1.44,1.07,2.12,1.64a19.779,19.779,0,0,1,33.38-.03c.69-.57,1.41-1.1,2.12-1.64a22.456,22.456,0,0,0-37.62.04Z" fill="#bacbd7"/>
      <path id="Path_112" data-name="Path 112" d="M233.82,113.35c.78-.42,1.57-.83,2.38-1.22a33.548,33.548,0,0,0-56.61.06c.81.39,1.6.79,2.38,1.22a30.9,30.9,0,0,1,51.85-.04Z" fill="#bacbd7"/>
      <path id="Path_113" data-name="Path 113" d="M244.2,109.03c.88-.27,1.76-.53,2.66-.75a44.689,44.689,0,0,0-77.95.07c.9.22,1.78.48,2.67.75a41.981,41.981,0,0,1,72.62-.06Z" fill="#bacbd7"/>
    </g>
    <g id="Group_20" data-name="Group 20" opacity="0.2">
      <path id="Path_114" data-name="Path 114" d="M261.96,81.34a11.363,11.363,0,0,0-10.4,6.83q1.035,1.17,2.01,2.4a8.668,8.668,0,0,1,16.81-.02c.64-.82,1.32-1.62,2.01-2.4a11.358,11.358,0,0,0-10.42-6.81Z" fill="#bacbd7"/>
      <path id="Path_115" data-name="Path 115" d="M261.92,36.83a55.934,55.934,0,0,0-50.66,32.44c.97.03,1.94.04,2.9.12a53.189,53.189,0,0,1,95.59-.08c.96-.08,1.93-.09,2.9-.12a55.951,55.951,0,0,0-50.72-32.35Z" fill="#bacbd7"/>
      <path id="Path_116" data-name="Path 116" d="M261.95,70.22a22.457,22.457,0,0,0-18.8,10.21c.72.54,1.44,1.07,2.12,1.64a19.779,19.779,0,0,1,33.38-.03c.69-.57,1.41-1.1,2.12-1.64a22.494,22.494,0,0,0-18.82-10.17Z" fill="#bacbd7"/>
      <path id="Path_117" data-name="Path 117" d="M261.94,59.09a33.591,33.591,0,0,0-28.29,15.57c.81.39,1.6.79,2.38,1.22a30.9,30.9,0,0,1,51.85-.04c.78-.42,1.57-.83,2.38-1.22A33.625,33.625,0,0,0,261.94,59.1Z" fill="#bacbd7"/>
      <path id="Path_118" data-name="Path 118" d="M261.93,47.96a44.776,44.776,0,0,0-38.96,22.86c.9.22,1.78.48,2.67.75a41.981,41.981,0,0,1,72.62-.06c.88-.27,1.77-.53,2.67-.75a44.749,44.749,0,0,0-39-22.79Z" fill="#bacbd7"/>
      <path id="Path_119" data-name="Path 119" d="M368,81.25a11.363,11.363,0,0,0-10.4,6.83q1.035,1.17,2.01,2.4a8.668,8.668,0,0,1,16.81-.02c.64-.82,1.32-1.62,2.01-2.4a11.358,11.358,0,0,0-10.42-6.81Z" fill="#bacbd7"/>
      <path id="Path_120" data-name="Path 120" d="M367.97,36.74a55.934,55.934,0,0,0-50.66,32.44c.97.03,1.94.04,2.9.12a53.189,53.189,0,0,1,95.59-.08c.96-.08,1.93-.09,2.9-.12a55.951,55.951,0,0,0-50.72-32.35Z" fill="#bacbd7"/>
      <path id="Path_121" data-name="Path 121" d="M368,70.12a22.457,22.457,0,0,0-18.8,10.21c.72.54,1.44,1.07,2.12,1.64a19.779,19.779,0,0,1,33.38-.03c.69-.57,1.41-1.1,2.12-1.64A22.494,22.494,0,0,0,368,70.13Z" fill="#bacbd7"/>
      <path id="Path_122" data-name="Path 122" d="M367.99,59A33.591,33.591,0,0,0,339.7,74.57c.81.38,1.6.79,2.38,1.22a30.9,30.9,0,0,1,51.85-.04c.78-.42,1.57-.83,2.38-1.22a33.592,33.592,0,0,0-28.32-15.51Z" fill="#bacbd7"/>
      <path id="Path_123" data-name="Path 123" d="M367.98,47.87a44.776,44.776,0,0,0-38.96,22.86c.9.22,1.78.48,2.67.75a41.981,41.981,0,0,1,72.62-.06c.88-.27,1.77-.53,2.67-.75a44.749,44.749,0,0,0-39-22.79Z" fill="#bacbd7"/>
      <path id="Path_124" data-name="Path 124" d="M323.36,53.91c.64-.82,1.32-1.62,2.01-2.4a11.355,11.355,0,0,0-20.82.02q1.035,1.17,2.01,2.4a8.668,8.668,0,0,1,16.81-.02Z" fill="#bacbd7"/>
      <path id="Path_125" data-name="Path 125" d="M314.91,2.85a53.254,53.254,0,0,1,47.82,29.81c.96-.08,1.93-.09,2.9-.12a55.852,55.852,0,0,0-101.38.08c.97.03,1.94.04,2.9.12A53.27,53.27,0,0,1,314.92,2.85Z" fill="#bacbd7"/>
      <path id="Path_126" data-name="Path 126" d="M296.14,43.78c.72.54,1.44,1.07,2.12,1.64a19.779,19.779,0,0,1,33.38-.03c.69-.57,1.41-1.1,2.12-1.64a22.456,22.456,0,0,0-37.62.04Z" fill="#bacbd7"/>
      <path id="Path_127" data-name="Path 127" d="M340.87,39.18c.78-.42,1.57-.83,2.38-1.22a33.548,33.548,0,0,0-56.61.06c.81.38,1.6.79,2.38,1.22a30.9,30.9,0,0,1,51.85-.04Z" fill="#bacbd7"/>
      <path id="Path_128" data-name="Path 128" d="M351.25,34.86c.88-.27,1.77-.53,2.67-.75a44.7,44.7,0,0,0-77.96.07c.9.22,1.78.48,2.67.75a41.981,41.981,0,0,1,72.62-.06Z" fill="#bacbd7"/>
      <path id="Path_129" data-name="Path 129" d="M472.21,81.16a11.363,11.363,0,0,0-10.4,6.83q1.035,1.17,2.01,2.4a8.668,8.668,0,0,1,16.81-.02c.64-.82,1.32-1.62,2.01-2.4a11.358,11.358,0,0,0-10.42-6.81Z" fill="#bacbd7"/>
      <path id="Path_130" data-name="Path 130" d="M472.17,36.65a55.934,55.934,0,0,0-50.66,32.44c.97.03,1.94.04,2.9.12A53.189,53.189,0,0,1,520,69.13c.96-.08,1.93-.09,2.9-.12a55.951,55.951,0,0,0-50.72-32.35Z" fill="#bacbd7"/>
      <path id="Path_131" data-name="Path 131" d="M472.2,70.03a22.457,22.457,0,0,0-18.8,10.21c.72.54,1.44,1.07,2.12,1.64a19.779,19.779,0,0,1,33.38-.03c.69-.57,1.41-1.1,2.12-1.64A22.494,22.494,0,0,0,472.2,70.04Z" fill="#bacbd7"/>
      <path id="Path_132" data-name="Path 132" d="M472.19,58.91A33.591,33.591,0,0,0,443.9,74.48c.81.38,1.6.79,2.38,1.22a30.9,30.9,0,0,1,51.85-.04c.78-.42,1.57-.83,2.38-1.22a33.592,33.592,0,0,0-28.32-15.51Z" fill="#bacbd7"/>
      <path id="Path_133" data-name="Path 133" d="M472.18,47.78a44.748,44.748,0,0,0-38.95,22.86c.9.22,1.78.48,2.67.75a41.981,41.981,0,0,1,72.62-.06c.88-.27,1.77-.53,2.67-.75a44.749,44.749,0,0,0-39-22.79Z" fill="#bacbd7"/>
      <path id="Path_134" data-name="Path 134" d="M533.61,53.72c.64-.82,1.32-1.62,2.01-2.4a11.355,11.355,0,0,0-20.82.02q1.035,1.17,2.01,2.4a8.668,8.668,0,0,1,16.81-.02Z" fill="#bacbd7"/>
      <path id="Path_135" data-name="Path 135" d="M525.17,2.67a53.254,53.254,0,0,1,47.82,29.81c.96-.08,1.93-.09,2.9-.12a55.86,55.86,0,0,0-101.39.08c.97.03,1.94.04,2.9.12A53.27,53.27,0,0,1,525.17,2.67Z" fill="#bacbd7"/>
      <path id="Path_136" data-name="Path 136" d="M506.39,43.59c.72.54,1.44,1.07,2.12,1.64a19.779,19.779,0,0,1,33.38-.03c.69-.57,1.41-1.1,2.12-1.64a22.456,22.456,0,0,0-37.62.04Z" fill="#bacbd7"/>
      <path id="Path_137" data-name="Path 137" d="M551.12,38.99c.78-.42,1.57-.83,2.38-1.22a33.548,33.548,0,0,0-56.61.06c.81.38,1.6.79,2.38,1.22a30.9,30.9,0,0,1,51.85-.04Z" fill="#bacbd7"/>
      <path id="Path_138" data-name="Path 138" d="M561.5,34.67c.88-.27,1.77-.53,2.67-.75a44.689,44.689,0,0,0-77.95.07c.9.22,1.78.48,2.67.75a41.981,41.981,0,0,1,72.62-.06Z" fill="#bacbd7"/>
      <path id="Path_139" data-name="Path 139" d="M427.57,53.82c.64-.82,1.32-1.62,2.01-2.4a11.355,11.355,0,0,0-20.82.02q1.035,1.17,2.01,2.4a8.668,8.668,0,0,1,16.81-.02Z" fill="#bacbd7"/>
      <path id="Path_140" data-name="Path 140" d="M419.12,2.76a53.254,53.254,0,0,1,47.82,29.81c.96-.08,1.93-.09,2.9-.12a55.852,55.852,0,0,0-101.38.08c.97.03,1.94.04,2.9.12A53.27,53.27,0,0,1,419.13,2.76Z" fill="#bacbd7"/>
      <path id="Path_141" data-name="Path 141" d="M400.34,43.68c.72.54,1.44,1.07,2.12,1.64a19.779,19.779,0,0,1,33.38-.03c.69-.57,1.41-1.1,2.12-1.64a22.456,22.456,0,0,0-37.62.04Z" fill="#bacbd7"/>
      <path id="Path_142" data-name="Path 142" d="M445.07,39.09c.78-.42,1.57-.83,2.38-1.22a33.548,33.548,0,0,0-56.61.06c.81.39,1.6.79,2.38,1.22a30.9,30.9,0,0,1,51.85-.04Z" fill="#bacbd7"/>
      <path id="Path_143" data-name="Path 143" d="M455.46,34.77c.88-.27,1.76-.53,2.66-.75a44.689,44.689,0,0,0-77.95.07c.9.22,1.78.48,2.67.75a41.981,41.981,0,0,1,72.62-.06Z" fill="#bacbd7"/>
    </g>
    <g id="Group_21" data-name="Group 21" opacity="0.2">
      <path id="Path_144" data-name="Path 144" d="M369.59,154.75a11.363,11.363,0,0,0-10.4,6.83q1.035,1.17,2.01,2.4a8.668,8.668,0,0,1,16.81-.02c.64-.82,1.32-1.62,2.01-2.4a11.358,11.358,0,0,0-10.42-6.81Z" fill="#bacbd7"/>
      <path id="Path_145" data-name="Path 145" d="M369.55,110.24a55.934,55.934,0,0,0-50.66,32.44c.97.03,1.94.04,2.9.12a53.189,53.189,0,0,1,95.59-.08c.96-.08,1.93-.09,2.9-.12a55.951,55.951,0,0,0-50.72-32.35Z" fill="#bacbd7"/>
      <path id="Path_146" data-name="Path 146" d="M369.58,143.63a22.457,22.457,0,0,0-18.8,10.21c.72.54,1.44,1.07,2.12,1.64a19.779,19.779,0,0,1,33.38-.03c.69-.57,1.41-1.1,2.12-1.64a22.494,22.494,0,0,0-18.82-10.17Z" fill="#bacbd7"/>
      <path id="Path_147" data-name="Path 147" d="M369.57,132.5a33.591,33.591,0,0,0-28.29,15.57c.81.39,1.6.79,2.38,1.22a30.9,30.9,0,0,1,51.85-.04c.78-.42,1.57-.83,2.38-1.22a33.625,33.625,0,0,0-28.32-15.52Z" fill="#bacbd7"/>
      <path id="Path_148" data-name="Path 148" d="M369.56,121.37a44.776,44.776,0,0,0-38.96,22.86c.9.22,1.78.48,2.67.75a41.981,41.981,0,0,1,72.62-.06c.88-.27,1.77-.53,2.67-.75a44.749,44.749,0,0,0-39-22.79Z" fill="#bacbd7"/>
      <path id="Path_149" data-name="Path 149" d="M475.64,154.66a11.363,11.363,0,0,0-10.4,6.83q1.035,1.17,2.01,2.4a8.668,8.668,0,0,1,16.81-.02c.64-.82,1.32-1.62,2.01-2.4a11.358,11.358,0,0,0-10.42-6.81Z" fill="#bacbd7"/>
      <path id="Path_150" data-name="Path 150" d="M475.6,110.15a55.934,55.934,0,0,0-50.66,32.44c.97.03,1.94.04,2.9.12a53.189,53.189,0,0,1,95.59-.08c.96-.08,1.93-.09,2.9-.12a55.951,55.951,0,0,0-50.72-32.35Z" fill="#bacbd7"/>
      <path id="Path_151" data-name="Path 151" d="M475.63,143.53a22.457,22.457,0,0,0-18.8,10.21c.72.54,1.44,1.07,2.12,1.64a19.779,19.779,0,0,1,33.38-.03c.69-.57,1.41-1.1,2.12-1.64a22.494,22.494,0,0,0-18.82-10.17Z" fill="#bacbd7"/>
      <path id="Path_152" data-name="Path 152" d="M475.62,132.4a33.591,33.591,0,0,0-28.29,15.57c.81.38,1.6.79,2.38,1.22a30.9,30.9,0,0,1,51.85-.04c.78-.42,1.57-.83,2.38-1.22a33.592,33.592,0,0,0-28.32-15.51Z" fill="#bacbd7"/>
      <path id="Path_153" data-name="Path 153" d="M475.61,121.28a44.776,44.776,0,0,0-38.96,22.86c.9.22,1.78.48,2.67.75a41.981,41.981,0,0,1,72.62-.06c.88-.27,1.77-.53,2.67-.75a44.749,44.749,0,0,0-39-22.79Z" fill="#bacbd7"/>
      <path id="Path_154" data-name="Path 154" d="M430.99,127.32c.64-.82,1.32-1.62,2.01-2.4a11.355,11.355,0,0,0-20.82.02q1.035,1.17,2.01,2.4a8.668,8.668,0,0,1,16.81-.02Z" fill="#bacbd7"/>
      <path id="Path_155" data-name="Path 155" d="M422.54,76.26a53.254,53.254,0,0,1,47.82,29.81c.96-.08,1.93-.09,2.9-.12a55.856,55.856,0,0,0-101.38.09c.97.03,1.94.04,2.9.12a53.27,53.27,0,0,1,47.77-29.89Z" fill="#bacbd7"/>
      <path id="Path_156" data-name="Path 156" d="M403.77,117.18c.72.54,1.44,1.07,2.12,1.64a19.779,19.779,0,0,1,33.38-.03c.69-.57,1.41-1.1,2.12-1.64a22.456,22.456,0,0,0-37.62.04Z" fill="#bacbd7"/>
      <path id="Path_157" data-name="Path 157" d="M448.5,112.59c.78-.42,1.57-.83,2.38-1.22a33.548,33.548,0,0,0-56.61.06c.81.38,1.6.79,2.38,1.22a30.9,30.9,0,0,1,51.85-.04Z" fill="#bacbd7"/>
      <path id="Path_158" data-name="Path 158" d="M458.88,108.27c.88-.27,1.77-.53,2.67-.75a44.7,44.7,0,0,0-77.96.07c.9.22,1.78.48,2.67.75a41.981,41.981,0,0,1,72.62-.06Z" fill="#bacbd7"/>
      <path id="Path_159" data-name="Path 159" d="M579.84,154.57a11.363,11.363,0,0,0-10.4,6.83q1.035,1.17,2.01,2.4a8.668,8.668,0,0,1,16.81-.02c.64-.82,1.32-1.62,2.01-2.4a11.358,11.358,0,0,0-10.42-6.81Z" fill="#bacbd7"/>
      <path id="Path_160" data-name="Path 160" d="M579.8,110.06a55.934,55.934,0,0,0-50.66,32.44c.97.03,1.94.04,2.9.12a53.189,53.189,0,0,1,95.59-.08c.96-.08,1.93-.09,2.9-.12a55.951,55.951,0,0,0-50.72-32.35Z" fill="#bacbd7"/>
      <path id="Path_161" data-name="Path 161" d="M579.83,143.44a22.457,22.457,0,0,0-18.8,10.21c.72.54,1.44,1.07,2.12,1.64a19.779,19.779,0,0,1,33.38-.03c.69-.57,1.41-1.1,2.12-1.64a22.494,22.494,0,0,0-18.82-10.17Z" fill="#bacbd7"/>
      <path id="Path_162" data-name="Path 162" d="M579.82,132.31a33.591,33.591,0,0,0-28.29,15.57c.81.38,1.6.79,2.38,1.22a30.9,30.9,0,0,1,51.85-.04c.78-.42,1.57-.83,2.38-1.22a33.592,33.592,0,0,0-28.32-15.51Z" fill="#bacbd7"/>
      <path id="Path_163" data-name="Path 163" d="M579.81,121.19a44.748,44.748,0,0,0-38.95,22.86c.9.22,1.78.48,2.67.75a41.981,41.981,0,0,1,72.62-.06c.88-.27,1.77-.53,2.67-.75a44.749,44.749,0,0,0-39-22.79Z" fill="#bacbd7"/>
      <path id="Path_164" data-name="Path 164" d="M641.24,127.13c.64-.82,1.32-1.62,2.01-2.4a11.355,11.355,0,0,0-20.82.02q1.035,1.17,2.01,2.4a8.668,8.668,0,0,1,16.81-.02Z" fill="#bacbd7"/>
      <path id="Path_165" data-name="Path 165" d="M632.8,76.08a53.254,53.254,0,0,1,47.82,29.81c.96-.08,1.93-.09,2.9-.12a55.856,55.856,0,0,0-101.38.09c.97.03,1.94.04,2.9.12a53.27,53.27,0,0,1,47.77-29.89Z" fill="#bacbd7"/>
      <path id="Path_166" data-name="Path 166" d="M614.02,117c.72.54,1.44,1.07,2.12,1.64a19.779,19.779,0,0,1,33.38-.03c.69-.57,1.41-1.1,2.12-1.64a22.456,22.456,0,0,0-37.62.04Z" fill="#bacbd7"/>
      <path id="Path_167" data-name="Path 167" d="M658.75,112.4c.78-.42,1.57-.83,2.38-1.22a33.548,33.548,0,0,0-56.61.06c.81.38,1.6.79,2.38,1.22a30.9,30.9,0,0,1,51.85-.04Z" fill="#bacbd7"/>
      <path id="Path_168" data-name="Path 168" d="M669.13,108.08c.88-.27,1.77-.53,2.67-.75a44.689,44.689,0,0,0-77.95.07c.9.22,1.78.48,2.67.75a41.981,41.981,0,0,1,72.62-.06Z" fill="#bacbd7"/>
      <path id="Path_169" data-name="Path 169" d="M535.2,127.22c.64-.82,1.32-1.62,2.01-2.4a11.355,11.355,0,0,0-20.82.02q1.035,1.17,2.01,2.4a8.668,8.668,0,0,1,16.81-.02Z" fill="#bacbd7"/>
      <path id="Path_170" data-name="Path 170" d="M526.75,76.17a53.254,53.254,0,0,1,47.82,29.81c.96-.08,1.93-.09,2.9-.12a55.856,55.856,0,0,0-101.38.09c.97.03,1.94.04,2.9.12a53.27,53.27,0,0,1,47.77-29.89Z" fill="#bacbd7"/>
      <path id="Path_171" data-name="Path 171" d="M507.97,117.09c.72.54,1.44,1.07,2.12,1.64a19.779,19.779,0,0,1,33.38-.03c.69-.57,1.41-1.1,2.12-1.64a22.456,22.456,0,0,0-37.62.04Z" fill="#bacbd7"/>
      <path id="Path_172" data-name="Path 172" d="M552.71,112.49c.78-.42,1.57-.83,2.38-1.22a33.548,33.548,0,0,0-56.61.06c.81.39,1.6.79,2.38,1.22a30.9,30.9,0,0,1,51.85-.04Z" fill="#bacbd7"/>
      <path id="Path_173" data-name="Path 173" d="M563.09,108.17c.88-.27,1.76-.53,2.66-.75a44.689,44.689,0,0,0-77.95.07c.9.22,1.78.48,2.67.75a41.981,41.981,0,0,1,72.62-.06Z" fill="#bacbd7"/>
    </g>
  </g>
</svg>
