<svg id="_圖層_1-2" xmlns="http://www.w3.org/2000/svg" width="683.52" height="164.83" viewBox="0 0 683.52 164.83">
  <g id="Group_22" data-name="Group 22" transform="translate(0 0)">
    <g id="Group_19" data-name="Group 19" transform="translate(318.89 74.27)" opacity="0.2">
      <path id="Path_84" data-name="Path 84" d="M50.73,155.6a11.363,11.363,0,0,1,10.4,6.83q-1.035,1.17-2.01,2.4a8.668,8.668,0,0,0-16.81-.02c-.64-.82-1.32-1.62-2.01-2.4a11.358,11.358,0,0,1,10.42-6.81Z" transform="translate(263.2 -74.27)" fill="#bacbd7"/>
      <path id="Path_85" data-name="Path 85" d="M50.73,111.09a55.934,55.934,0,0,1,50.66,32.44c-.97.03-1.94.04-2.9.12a53.189,53.189,0,0,0-95.59-.08c-.96-.08-1.93-.09-2.9-.12A55.951,55.951,0,0,1,50.72,111.1Z" transform="translate(263.24 -74.27)" fill="#bacbd7"/>
      <path id="Path_86" data-name="Path 86" d="M50.71,144.48a22.457,22.457,0,0,1,18.8,10.21c-.72.54-1.44,1.07-2.12,1.64a19.779,19.779,0,0,0-33.38-.03c-.69-.57-1.41-1.1-2.12-1.64a22.494,22.494,0,0,1,18.82-10.17Z" transform="translate(263.23 -74.27)" fill="#bacbd7"/>
      <path id="Path_87" data-name="Path 87" d="M50.71,133.35A33.591,33.591,0,0,1,79,148.92c-.81.39-1.6.79-2.38,1.22a30.9,30.9,0,0,0-51.85-.04c-.78-.42-1.57-.83-2.38-1.22a33.625,33.625,0,0,1,28.32-15.52Z" transform="translate(263.24 -74.27)" fill="#bacbd7"/>
      <path id="Path_88" data-name="Path 88" d="M50.71,122.22a44.776,44.776,0,0,1,38.96,22.86c-.9.22-1.78.48-2.67.75a41.981,41.981,0,0,0-72.62-.06c-.88-.27-1.77-.53-2.67-.75a44.749,44.749,0,0,1,39-22.79Z" transform="translate(263.25 -74.27)" fill="#bacbd7"/>
      <path id="Path_89" data-name="Path 89" d="M156.78,155.51a11.363,11.363,0,0,1,10.4,6.83q-1.035,1.17-2.01,2.4a8.668,8.668,0,0,0-16.81-.02c-.64-.82-1.32-1.62-2.01-2.4a11.358,11.358,0,0,1,10.42-6.81Z" transform="translate(51.1 -74.27)" fill="#bacbd7"/>
      <path id="Path_90" data-name="Path 90" d="M156.78,111a55.934,55.934,0,0,1,50.66,32.44c-.97.03-1.94.04-2.9.12a53.189,53.189,0,0,0-95.59-.08c-.96-.08-1.93-.09-2.9-.12a55.951,55.951,0,0,1,50.72-32.35Z" transform="translate(51.14 -74.27)" fill="#bacbd7"/>
      <path id="Path_91" data-name="Path 91" d="M156.76,144.38a22.457,22.457,0,0,1,18.8,10.21c-.72.54-1.44,1.07-2.12,1.64a19.779,19.779,0,0,0-33.38-.03c-.69-.57-1.41-1.1-2.12-1.64a22.494,22.494,0,0,1,18.82-10.17Z" transform="translate(51.13 -74.27)" fill="#bacbd7"/>
      <path id="Path_92" data-name="Path 92" d="M156.76,133.26a33.591,33.591,0,0,1,28.29,15.57c-.81.38-1.6.79-2.38,1.22a30.9,30.9,0,0,0-51.85-.04c-.78-.42-1.57-.83-2.38-1.22a33.592,33.592,0,0,1,28.32-15.51Z" transform="translate(51.14 -74.27)" fill="#bacbd7"/>
      <path id="Path_93" data-name="Path 93" d="M156.76,122.13a44.776,44.776,0,0,1,38.96,22.86c-.9.22-1.78.48-2.67.75a41.981,41.981,0,0,0-72.62-.06c-.88-.27-1.77-.53-2.67-.75a44.749,44.749,0,0,1,39-22.79Z" transform="translate(51.15 -74.27)" fill="#bacbd7"/>
      <path id="Path_94" data-name="Path 94" d="M95.3,128.17c-.64-.82-1.32-1.62-2.01-2.4a11.355,11.355,0,0,1,20.82.02q-1.035,1.17-2.01,2.4a8.668,8.668,0,0,0-16.81-.02Z" transform="translate(157.23 -74.27)" fill="#bacbd7"/>
      <path id="Path_95" data-name="Path 95" d="M103.72,77.11A53.254,53.254,0,0,0,55.9,106.92c-.96-.08-1.93-.09-2.9-.12a55.856,55.856,0,0,1,101.38.09c-.97.03-1.94.04-2.9.12a53.27,53.27,0,0,0-47.77-29.89Z" transform="translate(157.25 -74.27)" fill="#bacbd7"/>
      <path id="Path_96" data-name="Path 96" d="M122.5,118.03c-.72.54-1.44,1.07-2.12,1.64A19.779,19.779,0,0,0,87,119.64c-.69-.57-1.41-1.1-2.12-1.64a22.456,22.456,0,0,1,37.62.04Z" transform="translate(157.25 -74.27)" fill="#bacbd7"/>
      <path id="Path_97" data-name="Path 97" d="M77.76,113.44c-.78-.42-1.57-.83-2.38-1.22a33.548,33.548,0,0,1,56.61.06c-.81.38-1.6.79-2.38,1.22a30.9,30.9,0,0,0-51.85-.04Z" transform="translate(157.26 -74.27)" fill="#bacbd7"/>
      <path id="Path_98" data-name="Path 98" d="M67.37,109.12c-.88-.27-1.77-.53-2.67-.75a44.7,44.7,0,0,1,77.96.07c-.9.22-1.78.48-2.67.75a41.981,41.981,0,0,0-72.62-.06Z" transform="translate(157.27 -74.27)" fill="#bacbd7"/>
      <path id="Path_99" data-name="Path 99" d="M260.99,155.42a11.363,11.363,0,0,1,10.4,6.83q-1.035,1.17-2.01,2.4a8.668,8.668,0,0,0-16.81-.02c-.64-.82-1.32-1.62-2.01-2.4a11.358,11.358,0,0,1,10.42-6.81Z" transform="translate(-157.32 -74.27)" fill="#bacbd7"/>
      <path id="Path_100" data-name="Path 100" d="M260.99,110.91a55.934,55.934,0,0,1,50.66,32.44c-.97.03-1.94.04-2.9.12a53.189,53.189,0,0,0-95.59-.08c-.96-.08-1.93-.09-2.9-.12a55.951,55.951,0,0,1,50.72-32.35Z" transform="translate(-157.28 -74.27)" fill="#bacbd7"/>
      <path id="Path_101" data-name="Path 101" d="M260.97,144.29a22.457,22.457,0,0,1,18.8,10.21c-.72.54-1.44,1.07-2.12,1.64a19.779,19.779,0,0,0-33.38-.03c-.69-.57-1.41-1.1-2.12-1.64a22.494,22.494,0,0,1,18.82-10.17Z" transform="translate(-157.29 -74.27)" fill="#bacbd7"/>
      <path id="Path_102" data-name="Path 102" d="M260.97,133.17a33.591,33.591,0,0,1,28.29,15.57c-.81.38-1.6.79-2.38,1.22a30.9,30.9,0,0,0-51.85-.04c-.78-.42-1.57-.83-2.38-1.22a33.592,33.592,0,0,1,28.32-15.51Z" transform="translate(-157.28 -74.27)" fill="#bacbd7"/>
      <path id="Path_103" data-name="Path 103" d="M260.99,122.04a44.748,44.748,0,0,1,38.95,22.86c-.9.22-1.78.48-2.67.75a41.981,41.981,0,0,0-72.62-.06c-.88-.27-1.77-.53-2.67-.75a44.749,44.749,0,0,1,39-22.79Z" transform="translate(-157.29 -74.27)" fill="#bacbd7"/>
      <path id="Path_104" data-name="Path 104" d="M305.56,127.98c-.64-.82-1.32-1.62-2.01-2.4a11.355,11.355,0,0,1,20.82.02q-1.035,1.17-2.01,2.4a8.668,8.668,0,0,0-16.81-.02Z" transform="translate(-263.29 -74.27)" fill="#bacbd7"/>
      <path id="Path_105" data-name="Path 105" d="M313.97,76.93a53.254,53.254,0,0,0-47.82,29.81c-.96-.08-1.93-.09-2.9-.12a55.856,55.856,0,0,1,101.38.09c-.97.03-1.94.04-2.9.12a53.27,53.27,0,0,0-47.77-29.89Z" transform="translate(-263.25 -74.27)" fill="#bacbd7"/>
      <path id="Path_106" data-name="Path 106" d="M332.75,117.85c-.72.54-1.44,1.07-2.12,1.64a19.779,19.779,0,0,0-33.38-.03c-.69-.57-1.41-1.1-2.12-1.64a22.456,22.456,0,0,1,37.62.04Z" transform="translate(-263.25 -74.27)" fill="#bacbd7"/>
      <path id="Path_107" data-name="Path 107" d="M288.02,113.25c-.78-.42-1.57-.83-2.38-1.22a33.548,33.548,0,0,1,56.61.06c-.81.38-1.6.79-2.38,1.22a30.9,30.9,0,0,0-51.85-.04Z" transform="translate(-263.26 -74.27)" fill="#bacbd7"/>
      <path id="Path_108" data-name="Path 108" d="M277.64,108.93c-.88-.27-1.77-.53-2.67-.75a44.689,44.689,0,0,1,77.95.07c-.9.22-1.78.48-2.67.75a41.981,41.981,0,0,0-72.62-.06Z" transform="translate(-263.26 -74.27)" fill="#bacbd7"/>
      <path id="Path_109" data-name="Path 109" d="M199.51,128.08c-.64-.82-1.32-1.62-2.01-2.4a11.355,11.355,0,0,1,20.82.02q-1.035,1.17-2.01,2.4a8.668,8.668,0,0,0-16.81-.02Z" transform="translate(-51.19 -74.27)" fill="#bacbd7"/>
      <path id="Path_110" data-name="Path 110" d="M207.92,77.02a53.254,53.254,0,0,0-47.82,29.81c-.96-.08-1.93-.09-2.9-.12a55.856,55.856,0,0,1,101.38.09c-.97.03-1.94.04-2.9.12a53.27,53.27,0,0,0-47.77-29.89Z" transform="translate(-51.15 -74.27)" fill="#bacbd7"/>
      <path id="Path_111" data-name="Path 111" d="M226.71,117.94c-.72.54-1.44,1.07-2.12,1.64a19.779,19.779,0,0,0-33.38-.03c-.69-.57-1.41-1.1-2.12-1.64a22.456,22.456,0,0,1,37.62.04Z" transform="translate(-51.17 -74.27)" fill="#bacbd7"/>
      <path id="Path_112" data-name="Path 112" d="M181.97,113.35c-.78-.42-1.57-.83-2.38-1.22a33.548,33.548,0,0,1,56.61.06c-.81.39-1.6.79-2.38,1.22a30.9,30.9,0,0,0-51.85-.04Z" transform="translate(-51.16 -74.27)" fill="#bacbd7"/>
      <path id="Path_113" data-name="Path 113" d="M171.57,109.03c-.88-.27-1.76-.53-2.66-.75a44.689,44.689,0,0,1,77.95.07c-.9.22-1.78.48-2.67.75a41.981,41.981,0,0,0-72.62-.06Z" transform="translate(-51.14 -74.27)" fill="#bacbd7"/>
    </g>
    <g id="Group_20" data-name="Group 20" transform="translate(107.63)" opacity="0.2">
      <path id="Path_114" data-name="Path 114" d="M261.99,81.34a11.363,11.363,0,0,1,10.4,6.83q-1.035,1.17-2.01,2.4a8.668,8.668,0,0,0-16.81-.02c-.64-.82-1.32-1.62-2.01-2.4a11.358,11.358,0,0,1,10.42-6.81Z" transform="translate(51.94 0)" fill="#bacbd7"/>
      <path id="Path_115" data-name="Path 115" d="M261.99,36.83a55.934,55.934,0,0,1,50.66,32.44c-.97.03-1.94.04-2.9.12a53.189,53.189,0,0,0-95.59-.08c-.96-.08-1.93-.09-2.9-.12a55.951,55.951,0,0,1,50.72-32.35Z" transform="translate(51.98 0)" fill="#bacbd7"/>
      <path id="Path_116" data-name="Path 116" d="M261.97,70.22a22.457,22.457,0,0,1,18.8,10.21c-.72.54-1.44,1.07-2.12,1.64a19.779,19.779,0,0,0-33.38-.03c-.69-.57-1.41-1.1-2.12-1.64a22.494,22.494,0,0,1,18.82-10.17Z" transform="translate(51.97 0)" fill="#bacbd7"/>
      <path id="Path_117" data-name="Path 117" d="M261.97,59.09a33.591,33.591,0,0,1,28.29,15.57c-.81.39-1.6.79-2.38,1.22a30.9,30.9,0,0,0-51.85-.04c-.78-.42-1.57-.83-2.38-1.22A33.625,33.625,0,0,1,261.97,59.1Z" transform="translate(51.98 0)" fill="#bacbd7"/>
      <path id="Path_118" data-name="Path 118" d="M261.97,47.96a44.776,44.776,0,0,1,38.96,22.86c-.9.22-1.78.48-2.67.75a41.981,41.981,0,0,0-72.62-.06c-.88-.27-1.77-.53-2.67-.75a44.749,44.749,0,0,1,39-22.79Z" transform="translate(51.99 0)" fill="#bacbd7"/>
      <path id="Path_119" data-name="Path 119" d="M368.03,81.25a11.363,11.363,0,0,1,10.4,6.83q-1.035,1.17-2.01,2.4a8.668,8.668,0,0,0-16.81-.02c-.64-.82-1.32-1.62-2.01-2.4a11.358,11.358,0,0,1,10.42-6.81Z" transform="translate(-160.14 0)" fill="#bacbd7"/>
      <path id="Path_120" data-name="Path 120" d="M368.04,36.74A55.934,55.934,0,0,1,418.7,69.18c-.97.03-1.94.04-2.9.12a53.189,53.189,0,0,0-95.59-.08c-.96-.08-1.93-.09-2.9-.12a55.951,55.951,0,0,1,50.72-32.35Z" transform="translate(-160.12 0)" fill="#bacbd7"/>
      <path id="Path_121" data-name="Path 121" d="M368.02,70.12a22.457,22.457,0,0,1,18.8,10.21c-.72.54-1.44,1.07-2.12,1.64a19.779,19.779,0,0,0-33.38-.03c-.69-.57-1.41-1.1-2.12-1.64a22.494,22.494,0,0,1,18.82-10.17Z" transform="translate(-160.13 0)" fill="#bacbd7"/>
      <path id="Path_122" data-name="Path 122" d="M368.02,59a33.591,33.591,0,0,1,28.29,15.57c-.81.38-1.6.79-2.38,1.22a30.9,30.9,0,0,0-51.85-.04c-.78-.42-1.57-.83-2.38-1.22a33.592,33.592,0,0,1,28.32-15.51Z" transform="translate(-160.12 0)" fill="#bacbd7"/>
      <path id="Path_123" data-name="Path 123" d="M368.02,47.87a44.776,44.776,0,0,1,38.96,22.86c-.9.22-1.78.48-2.67.75a41.981,41.981,0,0,0-72.62-.06c-.88-.27-1.77-.53-2.67-.75a44.749,44.749,0,0,1,39-22.79Z" transform="translate(-160.11 0)" fill="#bacbd7"/>
      <path id="Path_124" data-name="Path 124" d="M306.56,53.91c-.64-.82-1.32-1.62-2.01-2.4a11.355,11.355,0,0,1,20.82.02q-1.035,1.17-2.01,2.4a8.668,8.668,0,0,0-16.81-.02Z" transform="translate(-54.03 0)" fill="#bacbd7"/>
      <path id="Path_125" data-name="Path 125" d="M314.97,2.85a53.254,53.254,0,0,0-47.82,29.81c-.96-.08-1.93-.09-2.9-.12a55.852,55.852,0,0,1,101.38.08c-.97.03-1.94.04-2.9.12A53.27,53.27,0,0,0,314.96,2.85Z" transform="translate(-53.99 0)" fill="#bacbd7"/>
      <path id="Path_126" data-name="Path 126" d="M333.76,43.78c-.72.54-1.44,1.07-2.12,1.64a19.779,19.779,0,0,0-33.38-.03c-.69-.57-1.41-1.1-2.12-1.64a22.456,22.456,0,0,1,37.62.04Z" transform="translate(-54.01 0)" fill="#bacbd7"/>
      <path id="Path_127" data-name="Path 127" d="M289.02,39.18c-.78-.42-1.57-.83-2.38-1.22a33.548,33.548,0,0,1,56.61.06c-.81.38-1.6.79-2.38,1.22a30.9,30.9,0,0,0-51.85-.04Z" transform="translate(-54 0)" fill="#bacbd7"/>
      <path id="Path_128" data-name="Path 128" d="M278.63,34.86c-.88-.27-1.77-.53-2.67-.75a44.7,44.7,0,0,1,77.96.07c-.9.22-1.78.48-2.67.75a41.981,41.981,0,0,0-72.62-.06Z" transform="translate(-53.99 0)" fill="#bacbd7"/>
      <path id="Path_129" data-name="Path 129" d="M472.24,81.16a11.363,11.363,0,0,1,10.4,6.83q-1.035,1.17-2.01,2.4a8.668,8.668,0,0,0-16.81-.02c-.64-.82-1.32-1.62-2.01-2.4a11.358,11.358,0,0,1,10.42-6.81Z" transform="translate(-368.56 0)" fill="#bacbd7"/>
      <path id="Path_130" data-name="Path 130" d="M472.24,36.65A55.934,55.934,0,0,1,522.9,69.09c-.97.03-1.94.04-2.9.12a53.189,53.189,0,0,0-95.59-.08c-.96-.08-1.93-.09-2.9-.12a55.951,55.951,0,0,1,50.72-32.35Z" transform="translate(-368.52 0)" fill="#bacbd7"/>
      <path id="Path_131" data-name="Path 131" d="M472.22,70.03a22.457,22.457,0,0,1,18.8,10.21c-.72.54-1.44,1.07-2.12,1.64a19.779,19.779,0,0,0-33.38-.03c-.69-.57-1.41-1.1-2.12-1.64a22.494,22.494,0,0,1,18.82-10.17Z" transform="translate(-368.53 0)" fill="#bacbd7"/>
      <path id="Path_132" data-name="Path 132" d="M472.22,58.91a33.591,33.591,0,0,1,28.29,15.57c-.81.38-1.6.79-2.38,1.22a30.9,30.9,0,0,0-51.85-.04c-.78-.42-1.57-.83-2.38-1.22a33.592,33.592,0,0,1,28.32-15.51Z" transform="translate(-368.52 0)" fill="#bacbd7"/>
      <path id="Path_133" data-name="Path 133" d="M472.24,47.78a44.748,44.748,0,0,1,38.95,22.86c-.9.22-1.78.48-2.67.75a41.981,41.981,0,0,0-72.62-.06c-.88-.27-1.77-.53-2.67-.75a44.749,44.749,0,0,1,39-22.79Z" transform="translate(-368.53 0)" fill="#bacbd7"/>
      <path id="Path_134" data-name="Path 134" d="M516.81,53.72c-.64-.82-1.32-1.62-2.01-2.4a11.355,11.355,0,0,1,20.82.02q-1.035,1.17-2.01,2.4a8.668,8.668,0,0,0-16.81-.02Z" transform="translate(-474.53 0)" fill="#bacbd7"/>
      <path id="Path_135" data-name="Path 135" d="M525.22,2.67A53.254,53.254,0,0,0,477.4,32.48c-.96-.08-1.93-.09-2.9-.12a55.86,55.86,0,0,1,101.39.08c-.97.03-1.94.04-2.9.12A53.27,53.27,0,0,0,525.22,2.67Z" transform="translate(-474.5 0)" fill="#bacbd7"/>
      <path id="Path_136" data-name="Path 136" d="M544.01,43.59c-.72.54-1.44,1.07-2.12,1.64a19.779,19.779,0,0,0-33.38-.03c-.69-.57-1.41-1.1-2.12-1.64a22.456,22.456,0,0,1,37.62.04Z" transform="translate(-474.51 0)" fill="#bacbd7"/>
      <path id="Path_137" data-name="Path 137" d="M499.27,38.99c-.78-.42-1.57-.83-2.38-1.22a33.548,33.548,0,0,1,56.61.06c-.81.38-1.6.79-2.38,1.22a30.9,30.9,0,0,0-51.85-.04Z" transform="translate(-474.5 0)" fill="#bacbd7"/>
      <path id="Path_138" data-name="Path 138" d="M488.89,34.67c-.88-.27-1.77-.53-2.67-.75a44.689,44.689,0,0,1,77.95.07c-.9.22-1.78.48-2.67.75a41.981,41.981,0,0,0-72.62-.06Z" transform="translate(-474.5 0)" fill="#bacbd7"/>
      <path id="Path_139" data-name="Path 139" d="M410.77,53.82c-.64-.82-1.32-1.62-2.01-2.4a11.355,11.355,0,0,1,20.82.02q-1.035,1.17-2.01,2.4a8.668,8.668,0,0,0-16.81-.02Z" transform="translate(-262.45 0)" fill="#bacbd7"/>
      <path id="Path_140" data-name="Path 140" d="M419.18,2.76a53.254,53.254,0,0,0-47.82,29.81c-.96-.08-1.93-.09-2.9-.12a55.852,55.852,0,0,1,101.38.08c-.97.03-1.94.04-2.9.12A53.27,53.27,0,0,0,419.17,2.76Z" transform="translate(-262.41 0)" fill="#bacbd7"/>
      <path id="Path_141" data-name="Path 141" d="M437.96,43.68c-.72.54-1.44,1.07-2.12,1.64a19.779,19.779,0,0,0-33.38-.03c-.69-.57-1.41-1.1-2.12-1.64a22.456,22.456,0,0,1,37.62.04Z" transform="translate(-262.41 0)" fill="#bacbd7"/>
      <path id="Path_142" data-name="Path 142" d="M393.22,39.09c-.78-.42-1.57-.83-2.38-1.22a33.548,33.548,0,0,1,56.61.06c-.81.39-1.6.79-2.38,1.22a30.9,30.9,0,0,0-51.85-.04Z" transform="translate(-262.4 0)" fill="#bacbd7"/>
      <path id="Path_143" data-name="Path 143" d="M382.83,34.77c-.88-.27-1.76-.53-2.66-.75a44.689,44.689,0,0,1,77.95.07c-.9.22-1.78.48-2.67.75a41.981,41.981,0,0,0-72.62-.06Z" transform="translate(-262.4 0)" fill="#bacbd7"/>
    </g>
    <g id="Group_21" data-name="Group 21" transform="translate(0 73.42)" opacity="0.2">
      <path id="Path_144" data-name="Path 144" d="M369.62,154.75a11.363,11.363,0,0,1,10.4,6.83q-1.035,1.17-2.01,2.4a8.668,8.668,0,0,0-16.81-.02c-.64-.82-1.32-1.62-2.01-2.4a11.358,11.358,0,0,1,10.42-6.81Z" transform="translate(-55.69 -73.42)" fill="#bacbd7"/>
      <path id="Path_145" data-name="Path 145" d="M369.62,110.24a55.934,55.934,0,0,1,50.66,32.44c-.97.03-1.94.04-2.9.12a53.189,53.189,0,0,0-95.59-.08c-.96-.08-1.93-.09-2.9-.12a55.951,55.951,0,0,1,50.72-32.35Z" transform="translate(-55.65 -73.42)" fill="#bacbd7"/>
      <path id="Path_146" data-name="Path 146" d="M369.6,143.63a22.457,22.457,0,0,1,18.8,10.21c-.72.54-1.44,1.07-2.12,1.64a19.779,19.779,0,0,0-33.38-.03c-.69-.57-1.41-1.1-2.12-1.64a22.494,22.494,0,0,1,18.82-10.17Z" transform="translate(-55.66 -73.42)" fill="#bacbd7"/>
      <path id="Path_147" data-name="Path 147" d="M369.6,132.5a33.591,33.591,0,0,1,28.29,15.57c-.81.39-1.6.79-2.38,1.22a30.9,30.9,0,0,0-51.85-.04c-.78-.42-1.57-.83-2.38-1.22a33.625,33.625,0,0,1,28.32-15.52Z" transform="translate(-55.65 -73.42)" fill="#bacbd7"/>
      <path id="Path_148" data-name="Path 148" d="M369.6,121.37a44.776,44.776,0,0,1,38.96,22.86c-.9.22-1.78.48-2.67.75a41.981,41.981,0,0,0-72.62-.06c-.88-.27-1.77-.53-2.67-.75a44.749,44.749,0,0,1,39-22.79Z" transform="translate(-55.64 -73.42)" fill="#bacbd7"/>
      <path id="Path_149" data-name="Path 149" d="M475.67,154.66a11.363,11.363,0,0,1,10.4,6.83q-1.035,1.17-2.01,2.4a8.668,8.668,0,0,0-16.81-.02c-.64-.82-1.32-1.62-2.01-2.4a11.358,11.358,0,0,1,10.42-6.81Z" transform="translate(-267.79 -73.42)" fill="#bacbd7"/>
      <path id="Path_150" data-name="Path 150" d="M475.67,110.15a55.934,55.934,0,0,1,50.66,32.44c-.97.03-1.94.04-2.9.12a53.189,53.189,0,0,0-95.59-.08c-.96-.08-1.93-.09-2.9-.12a55.951,55.951,0,0,1,50.72-32.35Z" transform="translate(-267.75 -73.42)" fill="#bacbd7"/>
      <path id="Path_151" data-name="Path 151" d="M475.65,143.53a22.457,22.457,0,0,1,18.8,10.21c-.72.54-1.44,1.07-2.12,1.64a19.779,19.779,0,0,0-33.38-.03c-.69-.57-1.41-1.1-2.12-1.64a22.494,22.494,0,0,1,18.82-10.17Z" transform="translate(-267.76 -73.42)" fill="#bacbd7"/>
      <path id="Path_152" data-name="Path 152" d="M475.65,132.4a33.591,33.591,0,0,1,28.29,15.57c-.81.38-1.6.79-2.38,1.22a30.9,30.9,0,0,0-51.85-.04c-.78-.42-1.57-.83-2.38-1.22a33.592,33.592,0,0,1,28.32-15.51Z" transform="translate(-267.75 -73.42)" fill="#bacbd7"/>
      <path id="Path_153" data-name="Path 153" d="M475.65,121.28a44.776,44.776,0,0,1,38.96,22.86c-.9.22-1.78.48-2.67.75a41.981,41.981,0,0,0-72.62-.06c-.88-.27-1.77-.53-2.67-.75a44.749,44.749,0,0,1,39-22.79Z" transform="translate(-267.74 -73.42)" fill="#bacbd7"/>
      <path id="Path_154" data-name="Path 154" d="M414.19,127.32c-.64-.82-1.32-1.62-2.01-2.4a11.355,11.355,0,0,1,20.82.02q-1.035,1.17-2.01,2.4a8.668,8.668,0,0,0-16.81-.02Z" transform="translate(-161.66 -73.42)" fill="#bacbd7"/>
      <path id="Path_155" data-name="Path 155" d="M422.6,76.26a53.254,53.254,0,0,0-47.82,29.81c-.96-.08-1.93-.09-2.9-.12a55.856,55.856,0,0,1,101.38.09c-.97.03-1.94.04-2.9.12a53.27,53.27,0,0,0-47.77-29.89Z" transform="translate(-161.62 -73.42)" fill="#bacbd7"/>
      <path id="Path_156" data-name="Path 156" d="M441.39,117.18c-.72.54-1.44,1.07-2.12,1.64a19.779,19.779,0,0,0-33.38-.03c-.69-.57-1.41-1.1-2.12-1.64a22.456,22.456,0,0,1,37.62.04Z" transform="translate(-161.64 -73.42)" fill="#bacbd7"/>
      <path id="Path_157" data-name="Path 157" d="M396.65,112.59c-.78-.42-1.57-.83-2.38-1.22a33.548,33.548,0,0,1,56.61.06c-.81.38-1.6.79-2.38,1.22a30.9,30.9,0,0,0-51.85-.04Z" transform="translate(-161.63 -73.42)" fill="#bacbd7"/>
      <path id="Path_158" data-name="Path 158" d="M386.26,108.27c-.88-.27-1.77-.53-2.67-.75a44.7,44.7,0,0,1,77.96.07c-.9.22-1.78.48-2.67.75a41.981,41.981,0,0,0-72.62-.06Z" transform="translate(-161.62 -73.42)" fill="#bacbd7"/>
      <path id="Path_159" data-name="Path 159" d="M579.87,154.57a11.363,11.363,0,0,1,10.4,6.83q-1.035,1.17-2.01,2.4a8.668,8.668,0,0,0-16.81-.02c-.64-.82-1.32-1.62-2.01-2.4a11.358,11.358,0,0,1,10.42-6.81Z" transform="translate(-476.19 -73.42)" fill="#bacbd7"/>
      <path id="Path_160" data-name="Path 160" d="M579.87,110.06a55.934,55.934,0,0,1,50.66,32.44c-.97.03-1.94.04-2.9.12a53.189,53.189,0,0,0-95.59-.08c-.96-.08-1.93-.09-2.9-.12a55.951,55.951,0,0,1,50.72-32.35Z" transform="translate(-476.15 -73.42)" fill="#bacbd7"/>
      <path id="Path_161" data-name="Path 161" d="M579.85,143.44a22.457,22.457,0,0,1,18.8,10.21c-.72.54-1.44,1.07-2.12,1.64a19.779,19.779,0,0,0-33.38-.03c-.69-.57-1.41-1.1-2.12-1.64a22.494,22.494,0,0,1,18.82-10.17Z" transform="translate(-476.16 -73.42)" fill="#bacbd7"/>
      <path id="Path_162" data-name="Path 162" d="M579.85,132.31a33.591,33.591,0,0,1,28.29,15.57c-.81.38-1.6.79-2.38,1.22a30.9,30.9,0,0,0-51.85-.04c-.78-.42-1.57-.83-2.38-1.22a33.592,33.592,0,0,1,28.32-15.51Z" transform="translate(-476.15 -73.42)" fill="#bacbd7"/>
      <path id="Path_163" data-name="Path 163" d="M579.87,121.19a44.748,44.748,0,0,1,38.95,22.86c-.9.22-1.78.48-2.67.75a41.981,41.981,0,0,0-72.62-.06c-.88-.27-1.77-.53-2.67-.75a44.749,44.749,0,0,1,39-22.79Z" transform="translate(-476.16 -73.42)" fill="#bacbd7"/>
      <path id="Path_164" data-name="Path 164" d="M624.44,127.13c-.64-.82-1.32-1.62-2.01-2.4a11.355,11.355,0,0,1,20.82.02q-1.035,1.17-2.01,2.4a8.668,8.668,0,0,0-16.81-.02Z" transform="translate(-582.16 -73.42)" fill="#bacbd7"/>
      <path id="Path_165" data-name="Path 165" d="M632.86,76.08a53.254,53.254,0,0,0-47.82,29.81c-.96-.08-1.93-.09-2.9-.12a55.856,55.856,0,0,1,101.38.09c-.97.03-1.94.04-2.9.12a53.27,53.27,0,0,0-47.77-29.89Z" transform="translate(-582.14 -73.42)" fill="#bacbd7"/>
      <path id="Path_166" data-name="Path 166" d="M651.64,117c-.72.54-1.44,1.07-2.12,1.64a19.779,19.779,0,0,0-33.38-.03c-.69-.57-1.41-1.1-2.12-1.64a22.456,22.456,0,0,1,37.62.04Z" transform="translate(-582.14 -73.42)" fill="#bacbd7"/>
      <path id="Path_167" data-name="Path 167" d="M606.9,112.4c-.78-.42-1.57-.83-2.38-1.22a33.548,33.548,0,0,1,56.61.06c-.81.38-1.6.79-2.38,1.22a30.9,30.9,0,0,0-51.85-.04Z" transform="translate(-582.13 -73.42)" fill="#bacbd7"/>
      <path id="Path_168" data-name="Path 168" d="M596.52,108.08c-.88-.27-1.77-.53-2.67-.75a44.689,44.689,0,0,1,77.95.07c-.9.22-1.78.48-2.67.75a41.981,41.981,0,0,0-72.62-.06Z" transform="translate(-582.13 -73.42)" fill="#bacbd7"/>
      <path id="Path_169" data-name="Path 169" d="M518.4,127.22c-.64-.82-1.32-1.62-2.01-2.4a11.355,11.355,0,0,1,20.82.02q-1.035,1.17-2.01,2.4a8.668,8.668,0,0,0-16.81-.02Z" transform="translate(-370.08 -73.42)" fill="#bacbd7"/>
      <path id="Path_170" data-name="Path 170" d="M526.81,76.17a53.254,53.254,0,0,0-47.82,29.81c-.96-.08-1.93-.09-2.9-.12a55.856,55.856,0,0,1,101.38.09c-.97.03-1.94.04-2.9.12A53.27,53.27,0,0,0,526.8,76.18Z" transform="translate(-370.04 -73.42)" fill="#bacbd7"/>
      <path id="Path_171" data-name="Path 171" d="M545.59,117.09c-.72.54-1.44,1.07-2.12,1.64a19.779,19.779,0,0,0-33.38-.03c-.69-.57-1.41-1.1-2.12-1.64a22.456,22.456,0,0,1,37.62.04Z" transform="translate(-370.04 -73.42)" fill="#bacbd7"/>
      <path id="Path_172" data-name="Path 172" d="M500.86,112.49c-.78-.42-1.57-.83-2.38-1.22a33.548,33.548,0,0,1,56.61.06c-.81.39-1.6.79-2.38,1.22a30.9,30.9,0,0,0-51.85-.04Z" transform="translate(-370.05 -73.42)" fill="#bacbd7"/>
      <path id="Path_173" data-name="Path 173" d="M490.46,108.17c-.88-.27-1.76-.53-2.66-.75a44.688,44.688,0,0,1,77.95.07c-.9.22-1.78.48-2.67.75a41.981,41.981,0,0,0-72.62-.06Z" transform="translate(-370.03 -73.42)" fill="#bacbd7"/>
    </g>
  </g>
</svg>
