<svg id="_圖層_1-2" xmlns="http://www.w3.org/2000/svg" width="259.9" height="63.94" viewBox="0 0 259.9 63.94">
  <g id="Group_24" data-name="Group 24">
    <path id="Path_174" data-name="Path 174" d="M31.05,28.22,20.92,22.37V10.61L10.46,4.57,0,10.61V22.69l10.13,5.85V40.3l10.13,5.85V57.91l10.46,6.03,10.46-6.03V45.83L31.05,39.98Z" fill="#595757"/>
    <path id="Path_175" data-name="Path 175" d="M66.51,28.22,56.38,22.37V10.61L45.92,4.57,35.46,10.61V22.69l10.13,5.85V40.3l10.13,5.85V57.91l10.46,6.03,10.46-6.03V45.83L66.51,39.98Z" fill="#595757"/>
    <path id="Path_176" data-name="Path 176" d="M81.38,4.57,70.92,10.61V22.69l10.46,6.04,10.46-6.04V10.61Z" fill="#f5ba18"/>
    <path id="Path_177" data-name="Path 177" d="M132.36,6.99h-3.69a.283.283,0,0,0-.29.19l-4.72,13.6L119.25,7.2a.3.3,0,0,0-.31-.21h-3a.3.3,0,0,0-.31.21l-4.41,13.58L106.5,7.18a.293.293,0,0,0-.31-.19h-3.67a.309.309,0,0,0-.26.12.342.342,0,0,0-.05.29l7.36,20.91a.3.3,0,0,0,.31.21h2.52a.3.3,0,0,0,.31-.21l4.72-14.17,4.72,14.17a.3.3,0,0,0,.31.21h2.52a.321.321,0,0,0,.31-.21L132.65,7.4a.312.312,0,0,0-.31-.41" fill="#595757"/>
    <path id="Path_178" data-name="Path 178" d="M178.54,10.18a10.675,10.675,0,0,0-14.15-.72V.31a.271.271,0,0,0-.31-.31h-3.45a.271.271,0,0,0-.31.31V28.14a.271.271,0,0,0,.31.31h3.45a.271.271,0,0,0,.31-.31V26.16a10.639,10.639,0,0,0,14.46-1.02,10.485,10.485,0,0,0,2.26-3.62,10.611,10.611,0,0,0,.64-4.41,10.337,10.337,0,0,0-3.22-6.93m-2.74,12.36a6.517,6.517,0,0,1-4.74,1.95,6.369,6.369,0,0,1-4.67-1.91,6.5,6.5,0,0,1-2-4.62v-.31a6.677,6.677,0,0,1,6.67-6.53,6.658,6.658,0,0,1,6.69,6.69,6.456,6.456,0,0,1-1.95,4.72" fill="#595757"/>
    <path id="Path_179" data-name="Path 179" d="M202.25,10.28a10.18,10.18,0,0,0-14.64-.07,10.468,10.468,0,0,0-3.02,7.62,10.174,10.174,0,0,0,3.14,7.55,10.279,10.279,0,0,0,7.55,3.14,10.786,10.786,0,0,0,9.13-5.08.271.271,0,0,0-.12-.43l-2.93-1.72a.29.29,0,0,0-.43.12,6.449,6.449,0,0,1-2.43,2.26,6.664,6.664,0,0,1-3.22.81,6.66,6.66,0,0,1-6.03-3.81l15.72-1.36a.283.283,0,0,0,.29-.31V17.64a10.225,10.225,0,0,0-3-7.38m-13.58,6.43a6.4,6.4,0,0,1,2.1-4,5.957,5.957,0,0,1,4.14-1.57,6.176,6.176,0,0,1,3.93,1.24,5.676,5.676,0,0,1,2.17,3.26Z" fill="#595757"/>
    <path id="Path_180" data-name="Path 180" d="M154.35,6.99h-3.49c-.21,0-.31.11-.31.33l.02,1.69c0,1.03,0,2.28.01,3.73v7.85a4.9,4.9,0,0,1-.16.78,4.568,4.568,0,0,1-1,1.83,4.617,4.617,0,0,1-1.71,1.21,6.281,6.281,0,0,1-1,.29l-.14.02-.12.02h-.21l-.31.02h-.33l-.31-.02h-.21l-.12-.02-.14-.02a5.387,5.387,0,0,1-1-.29,4.857,4.857,0,0,1-1.72-1.21,4.568,4.568,0,0,1-1-1.83,4.964,4.964,0,0,1-.19-1.02V17.04l.02-.64V13.99c.02-2,.02-3.66.02-4.98l.02-1.69c0-.22-.1-.33-.31-.33h-3.41c-.21,0-.31.11-.31.33V9.01c0,1.32,0,2.98.02,4.98v1.14l.02.62v4.03c.02.3.03.59.05.86a9.8,9.8,0,0,0,.33,1.86,8.62,8.62,0,0,0,1.91,3.29,8.193,8.193,0,0,0,3.12,2.14,10.33,10.33,0,0,0,1.81.5l.21.02.24.02.24.02.26.02h1.19l.26-.02.24-.02.24-.02.21-.02a10.33,10.33,0,0,0,1.81-.5,7.825,7.825,0,0,0,1.47-.75v1.03a.271.271,0,0,0,.31.31h3.45a.271.271,0,0,0,.31-.31V7.3a.271.271,0,0,0-.31-.31" fill="#595757"/>
    <path id="Path_181" data-name="Path 181" d="M116.22,56.1v1.09H104.1V56.1h3.33c.13-.46.28-1.01.42-1.56h-2.16V53.5h2.4c.09-.46.2-.93.3-1.36h-3.3V51.06H115.3v1.08h-5.62c-.09.43-.19.9-.3,1.36h3.34l.2-.07.9.07c-.03.84-.11,1.78-.16,2.6h2.56Zm-10.44,2.26h8.78v4.61h-1.28v-.58h-6.26v.59h-1.24Zm1.24,2.94h6.26V59.44h-6.26Zm2.12-6.77c-.14.57-.27,1.11-.39,1.56h3.67c.05-.51.09-1.08.12-1.56Z" fill="#595757"/>
    <path id="Path_182" data-name="Path 182" d="M143.99,52.02a7.285,7.285,0,0,1-1.87,2.67,9.761,9.761,0,0,0,3.1,1.19,5.366,5.366,0,0,0-.74.98,9.174,9.174,0,0,1-3.25-1.47,11.238,11.238,0,0,1-3.42,1.58,3.091,3.091,0,0,0-.36-.62v1.7h-1.73v2.47l.86-.16c-.11-.49-.23-.97-.32-1.39l.9-.24a25,25,0,0,1,.74,3.33l-.96.28c-.03-.28-.08-.61-.15-.94-1.4.3-2.82.59-3.96.82l-.24-1.16c.58-.08,1.31-.2,2.08-.35V58.05h-.74v.57h-.9V53.08h1.65V50.76h1.05v2.32h1.73v.67a7.386,7.386,0,0,0,2.64-3.17l1.09.28a5.811,5.811,0,0,1-.44.86h2.32l.2-.05.74.35Zm-10.07,5h.84V54.09h-.84Zm2.6-2.93h-.92v2.93h.92Zm.92,1.89a10.082,10.082,0,0,0,2.95-1.28,7.5,7.5,0,0,1-1.02-1.16,7.38,7.38,0,0,1-1.12,1c-.18-.15-.54-.46-.81-.65Zm4.37,4.37h3.01v.96h-3.01v1.63h-1.17V61.31h-2.79v-.96h2.79v-.8h-2.12v-.9h2.12V57.9h-2.36v-.92h2.36v-.94h1.17v.94h2.43v.92h-2.43v.75h2.18v.9h-2.18Zm-1.71-7.67-.05.07a6.109,6.109,0,0,0,1.19,1.32,5.438,5.438,0,0,0,1.2-1.39h-2.33Z" fill="#595757"/>
    <path id="Path_183" data-name="Path 183" d="M168.19,57.52c-.03.31-.08.61-.13.89h5.41v1.07h-5.69c-.63,1.75-2.06,2.89-5.62,3.46a3.511,3.511,0,0,0-.63-1.13c2.95-.4,4.23-1.16,4.84-2.33h-4.3V58.41h4.68c.05-.28.11-.57.15-.89h-5.12V56.41h5.27v-.96h-4.07V54.38h4.07v-.92h-4.83V52.35h2.71a8.751,8.751,0,0,0-.9-1.4l1.09-.43a6.132,6.132,0,0,1,1.11,1.63l-.44.2h3.29a13.173,13.173,0,0,0,1.05-1.83l1.33.36c-.31.5-.67,1.04-1,1.47h2.75v1.11h-4.87v.92h4.22v1.07h-4.22v.96h5.43v1.11H168.2Zm4.99,5.5a35.768,35.768,0,0,0-5.42-2.6l.55-.94a36.963,36.963,0,0,1,5.45,2.44l-.58,1.11Z" fill="#595757"/>
    <path id="Path_184" data-name="Path 184" d="M191.51,59.66v1.05h-1.15V51.79h3.73v7.87H191.5Zm0-1.21h1.44V53h-1.44Zm7.77-1.35a10.4,10.4,0,0,0,3.11,4.04,5.375,5.375,0,0,0-.94,1.02,12.03,12.03,0,0,1-2.57-3.49v4.27h-1.27v-4.3a10.129,10.129,0,0,1-3.15,3.52,4.893,4.893,0,0,0-.85-.97,9.308,9.308,0,0,0,3.61-4.1h-2.7v-1.2h3.09v-2h-2.6v-1.2h2.6V50.67h1.27v2.02h2.86v1.2h-2.86v2h3.34v1.2h-2.94Z" fill="#595757"/>
    <path id="Path_185" data-name="Path 185" d="M220.84,54.21c-.31.31-.63.59-.98.88a3.845,3.845,0,0,0-.89-.82,10.887,10.887,0,0,0,3.14-3.69l1.29.24c-.22.38-.44.77-.71,1.15h2.56c-.15-.35-.34-.77-.51-1.09l1.17-.34a9.421,9.421,0,0,1,.7,1.43h3.91v.98h-4.23v.75h3.65v.85h-3.65v.73h3.68v.86h-3.68v.77h4.61v.98h-8.82v.38h-1.24V54.21Zm3.06,6.57a11.384,11.384,0,0,1-4.02,1.78,6.08,6.08,0,0,0-.77-.97,10.447,10.447,0,0,0,3.84-1.27l.94.46Zm7.36-1.94v1.01h-5.39v3.09h-1.24V59.85h-5.34V58.84h5.34v-.82h1.24v.82Zm-6.17-5.89h-3.01v.76h3.01Zm0,1.6h-3.01v.73h3.01Zm0,1.59h-3.01v.77h3.01Zm2.14,4.09c1.24.39,3.02,1.01,3.96,1.42l-.74.88c-.89-.4-2.66-1.08-3.94-1.52l.71-.77Z" fill="#595757"/>
    <path id="Path_186" data-name="Path 186" d="M259.35,51.13v11.8h-1.2V62.3h-8.66v.69h-1.15V51.14h11Zm-1.2.97h-8.66v9.21h8.66Zm-.38,7.13h-1.83v1.08c0,.44-.11.59-.43.69a6.075,6.075,0,0,1-1.62.11,2.3,2.3,0,0,0-.27-.67c.46.01.94.01,1.08.01s.19-.05.19-.18V59.23h-5V58.5h5v-.44h1.05v.44h1.83Zm-1.5-2.43a8.508,8.508,0,0,1,1.29,1.19l-.67.51a5.272,5.272,0,0,0-.53-.57c-2.29.07-4.6.13-6.26.18l-.05-.73c.89,0,2-.01,3.2-.03V56.8h-2.76V54.09h2.76V53.6h-3.22v-.74h3.22v-.55h1.04v.55h3.29v.74h-3.29v.49h2.87V56.8Zm-3.99,4.09a6.53,6.53,0,0,0-1.06-1.25l.8-.4a6.745,6.745,0,0,1,1.11,1.2l-.84.46Zm-.81-5.73h1.78v-.5h-1.78Zm1.78.55h-1.78v.51h1.78Zm1.04-.55h1.86v-.5h-1.86v.5Zm1.86.55h-1.86v.51h1.86Zm-.44,1.62c-.08-.07-.16-.13-.24-.2l.5-.32H254.3v.55l1.42-.03Z" fill="#595757"/>
    <path id="Path_187" data-name="Path 187" d="M111.98,38.48a2.728,2.728,0,0,0-2.84-2.27c-2.44,0-3.47,2.16-3.47,4.35s1.02,4.35,3.47,4.35c1.77,0,2.75-1.33,2.91-2.99H114a4.677,4.677,0,0,1-4.86,4.62c-3.42,0-5.46-2.72-5.46-5.97s2.04-5.97,5.46-5.97c2.57.02,4.6,1.44,4.84,3.9h-2Z" fill="#595757"/>
    <path id="Path_188" data-name="Path 188" d="M119.66,34.85h2.12l4.39,11.41h-2.14l-1.07-3.02h-4.55l-1.07,3.02h-2.06Zm-.7,6.87h3.48l-1.71-4.9h-.05l-1.73,4.9Z" fill="#595757"/>
    <path id="Path_189" data-name="Path 189" d="M125.51,34.85h9.23v1.73h-3.62v9.68h-2V36.58h-3.61Z" fill="#595757"/>
    <path id="Path_190" data-name="Path 190" d="M136.87,34.85h8.21v1.73h-6.22v2.98h5.76v1.63h-5.76v3.34h6.33v1.73h-8.32Z" fill="#595757"/>
    <path id="Path_191" data-name="Path 191" d="M147.73,34.85h5.45c2.49,0,3.77,1.15,3.77,3.08a2.776,2.776,0,0,1-1.89,2.88v.03c.69.1,1.69.61,1.69,2.41a5.174,5.174,0,0,0,.62,3h-2.14a3.231,3.231,0,0,1-.3-1.68c0-2.09-.43-3.02-2.27-3.02h-2.94v4.7h-2V34.84Zm2,5.19H153c1.26,0,1.95-.62,1.95-1.82,0-1.45-.94-1.74-1.98-1.74h-3.24Z" fill="#595757"/>
    <rect id="Rectangle_16" data-name="Rectangle 16" width="2" height="11.41" transform="translate(159.78 34.85)" fill="#595757"/>
    <path id="Path_192" data-name="Path 192" d="M164.94,34.85h2.1l5.21,8.4h.03v-8.4h1.9V46.26h-2.1l-5.2-8.39h-.04v8.39h-1.9Z" fill="#595757"/>
    <path id="Path_193" data-name="Path 193" d="M187.3,46.26h-1.28l-.3-1.34a4.123,4.123,0,0,1-3.43,1.61c-3.42,0-5.46-2.72-5.46-5.97s2.04-5.97,5.46-5.97c2.49,0,4.58,1.33,4.89,3.9h-1.95a2.722,2.722,0,0,0-2.94-2.27c-2.44,0-3.47,2.16-3.47,4.35s1.02,4.35,3.47,4.35a2.9,2.9,0,0,0,3.19-3.13h-3.04V40.27h4.86v6.01Z" fill="#595757"/>
    <path id="Path_194" data-name="Path 194" d="M210.7,46.26h-1.28l-.3-1.34a4.123,4.123,0,0,1-3.43,1.61c-3.42,0-5.46-2.72-5.46-5.97s2.04-5.97,5.46-5.97c2.49,0,4.58,1.33,4.89,3.9h-1.95a2.722,2.722,0,0,0-2.94-2.27c-2.44,0-3.47,2.16-3.47,4.35s1.02,4.35,3.47,4.35a2.9,2.9,0,0,0,3.19-3.13h-3.04V40.27h4.86v6.01Z" fill="#595757"/>
    <path id="Path_195" data-name="Path 195" d="M213.67,34.85h5.45c2.49,0,3.77,1.15,3.77,3.08A2.776,2.776,0,0,1,221,40.81v.03c.69.1,1.69.61,1.69,2.41a5.174,5.174,0,0,0,.62,3h-2.14a3.231,3.231,0,0,1-.3-1.68c0-2.09-.43-3.02-2.27-3.02h-2.94v4.7h-2V34.84Zm2,5.19h3.27c1.26,0,1.95-.62,1.95-1.82,0-1.45-.94-1.74-1.98-1.74h-3.24Z" fill="#595757"/>
    <path id="Path_196" data-name="Path 196" d="M236.04,40.55c0,3.26-2.05,5.97-5.46,5.97s-5.46-2.72-5.46-5.97,2.05-5.97,5.46-5.97,5.46,2.72,5.46,5.97m-8.93,0c0,2.19,1.02,4.35,3.47,4.35s3.47-2.16,3.47-4.35-1.02-4.35-3.47-4.35-3.47,2.16-3.47,4.35" fill="#595757"/>
    <path id="Path_197" data-name="Path 197" d="M238.53,34.85h2V41.5c0,1.53.1,3.31,2.68,3.31s2.68-1.77,2.68-3.31V34.85h2v7.3c0,2.92-1.87,4.38-4.68,4.38s-4.68-1.45-4.68-4.38Z" fill="#595757"/>
    <path id="Path_198" data-name="Path 198" d="M250.99,34.85h5.03c3.26,0,3.88,2.11,3.88,3.53s-.62,3.51-3.88,3.5h-3.04v4.38h-2V34.85Zm2,5.4h2.92a1.822,1.822,0,0,0,2-1.88,1.732,1.732,0,0,0-1.96-1.89h-2.96v3.77Z" fill="#595757"/>
  </g>
</svg>
